<svg xmlns="http://www.w3.org/2000/svg" xmlns:xlink="http://www.w3.org/1999/xlink" width="400" height="532" viewBox="0 0 400 532"><defs><clipPath id="a"><path d="M80,0H400V532H0V80A80,80,0,0,1,80,0Z" transform="translate(390 5462)" fill="#a3edff"/></clipPath></defs><g transform="translate(-390 -5462)" clip-path="url(#a)"><path d="M-263.133-189.913C-367.8-189.913-452.642-105.067-452.642-.4S-367.8,189.109-263.133,189.109-73.62,104.263-73.62-.4-158.466-189.913-263.133-189.913Zm0,285.736A96.226,96.226,0,0,1-359.356-.4a96.226,96.226,0,0,1,96.223-96.223A96.226,96.226,0,0,1-166.906-.4,96.227,96.227,0,0,1-263.133,95.823Z" transform="translate(680.62 5804.39)" fill="#2df0da" fill-rule="evenodd" opacity="0.208"/></g></svg>