<svg xmlns="http://www.w3.org/2000/svg" xmlns:xlink="http://www.w3.org/1999/xlink" width="360.279" height="338.04" viewBox="0 0 360.279 338.04"><defs><style>.a{opacity:0.5;}.b{fill:#1d7e96;}.c{fill:#ff8900;}.d,.k{opacity:0.1;}.ab,.e,.j,.m{opacity:0.2;}.f,.h{opacity:0.3;}.g,.i{opacity:0.4;}.h,.i,.m{fill:#fff;}.l{opacity:0.07;}.n{fill:#75b51d;}.o{fill:#455a64;}.p{fill:#263238;}.q{fill:#37474f;}.r{fill:#ffa8a7;}.s{fill:#e0e0e0;}.t{fill:#f0f0f0;}.u{fill:#e6e6e6;}.v{fill:#74ddf7;}.w{fill:#35a3be;}.x{fill:#f28f8f;}.ab,.y{fill:#8dd52c;}.z{opacity:0.15;}.aa{fill:#a9f73f;}.ac{fill:url(#a);}</style><linearGradient id="a" x1="0.5" x2="0.5" y2="1" gradientUnits="objectBoundingBox"><stop offset="0" stop-color="#ccfff9"/><stop offset="1" stop-color="#89fff2"/></linearGradient></defs><g transform="translate(-10.05 -23.43)"><g class="a" transform="translate(10.05 152.772)"><path class="b" d="M317.149,226.282c-70.568-40.749-184.633-40.749-254.751,0s-69.75,106.813.826,147.57,184.633,40.749,254.758,0S387.724,267.031,317.149,226.282Z" transform="translate(-10.05 -195.72)"/></g><g transform="translate(119.753 234.528)"><path class="b" d="M255.14,314.47c-22.739-13.13-59.495-13.13-82.092,0s-22.477,34.421.27,47.551,59.495,13.13,82.092,0S277.85,327.608,255.14,314.47Z" transform="translate(-156.18 -304.622)"/></g><g transform="translate(41.107 23.43)"><path class="c" d="M111.015,23.43,98.088,30.937l-.518,181.48L312.277,336.362l12.927-7.507.51-181.48Zm61.634,88.638-1.036-1.013-.21-.623Zm81.829,145.641-4.745,2.755h0l-1.862-3.131-17.484-1.456-8.025-16.156-8.07-.338-5.353-10.435-9.977-10.75-12.927,7.507-.623,1.329-3.363-1.944-2.665-8.738L167.312,204.91v-7.755l-3-4.437,3.453,1.006,12.927-7.507-3.859-23.167-5.368-1.674-.751-4.324,11.584-6.757.038-14.639-10.743-6.2-.586-1.306,11.366-6.606-7.027-6.847,11.614-5.15,6.7,7.38,10.51-6.111,6.659,4.167,5.645,23.272,9.407-1.4,11.163,17.635-4.2,9.594,18.2,9.369-2.913,1.614L235.2,182.569l9.377,14.369,6.711,3.874,1.074,7.109-5.585,3.243,6.569,11.411-3.468,3.341,6.824,12.207-8.22,4.775Z" transform="translate(-62.924 -23.43)"/><path class="d" d="M111.015,23.43,98.088,30.937l-.518,181.48L312.277,336.362l12.927-7.507.51-181.48Zm61.634,88.638-1.036-1.013-.21-.623Zm81.829,145.641-4.745,2.755h0l-1.862-3.131-17.484-1.456-8.025-16.156-8.07-.338-5.353-10.435-9.977-10.75-12.927,7.507-.623,1.329-3.363-1.944-2.665-8.738L167.312,204.91v-7.755l-3-4.437,3.453,1.006,12.927-7.507-3.859-23.167-5.368-1.674-.751-4.324,11.584-6.757.038-14.639-10.743-6.2-.586-1.306,11.366-6.606-7.027-6.847,11.614-5.15,6.7,7.38,10.51-6.111,6.659,4.167,5.645,23.272,9.407-1.4,11.163,17.635-4.2,9.594,18.2,9.369-2.913,1.614L235.2,182.569l9.377,14.369,6.711,3.874,1.074,7.109-5.585,3.243,6.569,11.411-3.468,3.341,6.824,12.207-8.22,4.775Z" transform="translate(-62.924 -23.43)"/><path class="e" d="M186.2,254.84l-12.927,7.507-.023,7.762,12.927-7.515Z" transform="translate(-81.789 -81.115)"/><path class="f" d="M181.863,248.7l-2.372-.691-11.561,6.719,4.016,5.916,12.927-7.507Z" transform="translate(-80.463 -79.412)"/><path class="e" d="M202.26,280.41l-12.92,7.515L192,296.663l12.927-7.515Z" transform="translate(-85.8 -87.489)"/><path class="f" d="M186.177,265.17l-12.927,7.515,12.079,11.441,12.92-7.515Z" transform="translate(-81.789 -83.69)"/><path class="g" d="M167.96,243.55l-.03,10.067,11.561-6.719Z" transform="translate(-80.463 -78.301)"/><path class="d" d="M192.88,299.565l10.75,6.2,5.54-11.771-3.363-1.944Z" transform="translate(-86.683 -90.39)"/><path class="d" d="M228.337,282.87l-12.927,7.507,9.985,10.75,12.92-7.507Z" transform="translate(-92.299 -88.102)"/><path class="e" d="M241.63,297.19,228.71,304.7l5.345,10.443,12.927-7.515Z" transform="translate(-95.614 -91.672)"/><path class="f" d="M191.717,207.18l-12.927,7.515,5.375,1.659,12.927-7.507Z" transform="translate(-83.17 -69.234)"/><path class="e" d="M198.877,209.4l-12.927,7.507,3.859,23.175,12.927-7.515Z" transform="translate(-84.955 -69.788)"/><path class="e" d="M259.507,311.54l-12.927,7.515,8.025,16.156,12.927-7.515Z" transform="translate(-100.069 -95.249)"/><path class="d" d="M248.757,311.09,235.83,318.6l8.07.338,12.927-7.515Z" transform="translate(-97.389 -95.137)"/><path class="g" d="M190.052,200.548l-1.344.781L175.27,197.89l2.643,14.489,12.927-7.515Z" transform="translate(-82.293 -66.919)"/><path class="g" d="M189.921,162.91l-1.554.9-14.8-1.051,4.009,8.971,12.927-7.515Z" transform="translate(-81.869 -58.162)"/><path class="d" d="M270.2,333.06l-12.927,7.515,17.484,1.449,12.927-7.507Z" transform="translate(-102.733 -100.613)"/><path class="e" d="M295.372,338.116,293.487,335l-12.927,7.507,4.016,6.644,11.441-6.651Z" transform="translate(-108.539 -101.097)"/><path class="e" d="M206.1,187.6l.038-14.639-12.927,7.515-.038,14.639,1.344-.781Z" transform="translate(-86.755 -60.704)"/><path class="f" d="M191.837,164.7l-12.927,7.515,10.743,6.2L202.58,170.9Z" transform="translate(-83.2 -58.645)"/><path class="e" d="M190.369,137.857l-3.363-4.407-13.355.871,4,11.674,12.927-7.515Z" transform="translate(-81.889 -50.855)"/><path class="d" d="M202.635,150.668l-7-6.862-.5.225-2.192-2.868-1.036-1.013-12.927,7.515,10.735,10.51,1.554-.9Z" transform="translate(-83.218 -52.525)"/><path class="f" d="M285.91,351.641l11.921-3.348-.48-3.3Z" transform="translate(-109.873 -103.587)"/><path class="f" d="M305.673,337l-.638-1.546-4.745,2.763Z" transform="translate(-113.457 -101.209)"/><path class="f" d="M309.836,314.885l-3.055-5.465-8.22,4.775Z" transform="translate(-113.026 -94.72)"/><path class="f" d="M302.881,275.834l-1.006-6.644-5.585,3.243Z" transform="translate(-112.46 -84.692)"/><path class="g" d="M228.3,133.34l-2.725,11,10.518-6.111Z" transform="translate(-94.831 -50.828)"/><path class="f" d="M280.87,232.389l16.163-8.964-.323-.165-2.913,1.614Z" transform="translate(-108.616 -73.243)"/><path class="h" d="M384.05,196.045l-.51,181.48,12.927-7.515.51-181.48Z" transform="translate(-134.209 -64.585)"/><path class="i" d="M325.865,147.375,111.187,23.43,98.26,30.945,312.937,154.889Z" transform="translate(-63.096 -23.43)"/><g class="j" transform="translate(45.622 65.11)"><path d="M147.971,165.114l8.235,4.2-8.814-3.1-5.45-6.344-9.384-4.647-5.473,1.254-8.9-8.341,8.423,6.629,5.563-.871,10.247,5.263Z" transform="translate(-113.686 -119.627)"/><path d="M153.381,192.865l9.384,4.977-9.519-4.324-4.264-4.227-5.045-1.952-2.485-2.755-17.68-10.21-7.432-6.606,7.56,5.8,11.869,6.847.03-9.9,1.787-6.126-1.089,6.381.3,10.09,4.212,2.29,3,3.2,5.173,1.742Z" transform="translate(-113.224 -123.678)"/><path d="M290.889,173.019l6.223,2.29-6.584-1.441-4.016-5.57-6.929-4.572-4.039.03-6.494-5.225,6.073,3.919,4.106.345,7.567,4.85Z" transform="translate(-151.291 -122.217)"/><path d="M312.3,211.548l5.585,2.17-5.5-1.471-13.055-7.53-1.839-.09-3.724-2.853-3.161-.526-7.019-4.917,6.922,4.324,3.123.068,3.814,3.123,2.222.2,3.108,1.907.255-7.177-.773-5.63,1.291,6.036-.023,7.312Z" transform="translate(-154.916 -130.845)"/><path d="M241.288,347.8l8.1,3.146-7.958-2.125L222.5,337.886l-2.673-.12-5.4-4.136-4.587-.766-10.18-7.132L209.7,332l4.527.1,5.533,4.527,3.213.285,4.512,2.763.368-10.405-1.126-8.168,1.877,8.753-.03,10.6Z" transform="translate(-133.994 -162.742)"/><path d="M155.4,111.436l6.456,4.925,7.447,4.782-6.884-3.806-6.689-5.225-4.2-1.224.413,3.926-.661,2.658.36,3.566,9.286,4.174,3.716,3.333-3.9-2.86-9.091-3.9-.736-.788-2.41-.293-2.965-1.914-1.269-2.042L136.43,110.9l8.153,5.413,1.456,2.087,2.357,1.577,2.4.36.008-3.3.5-2.755-.473-4.114Z" transform="translate(-118.232 -110.16)"/><path d="M335.214,337.8l9.437,7.2,10.893,7-10.067-5.57-9.782-7.635L329.554,337l.6,5.743-.953,3.889.518,5.218,13.581,6.1,5.443,4.88-5.7-4.182-13.3-5.713-1.089-1.164-3.521-.428-4.339-2.8-1.854-2.98-11.486-8.551,11.922,7.913,2.132,3.055,3.446,2.3,3.513.526.015-4.835.721-4.024-.691-6.036Z" transform="translate(-160.866 -166.436)"/><path d="M130.928,224.549l2.162.668-3.671-6.967-6.561-10.135L112.19,199.43l11.111,8.326,6.621,10.322,3.836,7.124,3.949.315,8.663,2.47,7.665,4.429-7.6-3.558-8.551-2.748-3.566-.1,2.7,5.3.173,3.093,4.91,9.9-5.368-9.849-.345-3.341-2.92-5.157-1.959-.338Z" transform="translate(-112.19 -132.413)"/><path d="M345.079,260.065l-10.653-3.416-4.444-.128,3.363,6.6.218,3.859,6.118,12.342L333,267.04l-.435-4.152-3.634-6.426-3.063-.526-6.4-3.956,8.1,10.638,1.231-.315,2.2,1.074-1.734-.36-1.4.473,3.911,3.221-4.294-2.793-9.316-12.71-3.9-4.955-8.986-6.726,9.331,6.284,4.069,4.79,7.087,4.1,2.688.833-4.564-8.678L315.7,234.218,302.4,223.4l13.851,10.375,8.25,12.86,4.782,8.874,4.925.4L345,258.984l9.557,5.518Z" transform="translate(-159.605 -138.388)"/></g><g class="k" transform="translate(218.754 269.283)"><path d="M354.121,382.227c-.405-.233-.751-.045-.751.42v4.5a1.637,1.637,0,0,0,.751,1.276l11.937,6.884c.4.233.751.053.751-.42v-4.5a1.622,1.622,0,0,0-.751-1.269Z" transform="translate(-345.442 -382.127)"/><path d="M354.121,402.966c-.405-.233-.751-.053-.751.42v4.5a1.622,1.622,0,0,0,.751,1.269l11.936,6.892c.4.233.751.045.751-.42v-4.5a1.637,1.637,0,0,0-.751-1.276Z" transform="translate(-345.442 -387.296)"/><path d="M343.561,386.367c-.405-.233-.751-.045-.751.42v4.5a1.622,1.622,0,0,0,.751,1.269l11.929,6.892c.405.233.751.045.751-.42v-4.5a1.621,1.621,0,0,0-.751-1.269Z" transform="translate(-342.81 -383.159)"/><g class="l"><path d="M354.121,382.227c-.405-.233-.751-.045-.751.42v4.5a1.637,1.637,0,0,0,.751,1.276l11.937,6.884c.4.233.751.053.751-.42v-4.5a1.622,1.622,0,0,0-.751-1.269Z" transform="translate(-345.442 -382.127)"/><path d="M354.121,402.966c-.405-.233-.751-.053-.751.42v4.5a1.622,1.622,0,0,0,.751,1.269l11.936,6.892c.4.233.751.045.751-.42v-4.5a1.637,1.637,0,0,0-.751-1.276Z" transform="translate(-345.442 -387.296)"/><path d="M343.561,386.367c-.405-.233-.751-.045-.751.42v4.5a1.622,1.622,0,0,0,.751,1.269l11.929,6.892c.405.233.751.045.751-.42v-4.5a1.621,1.621,0,0,0-.751-1.269Z" transform="translate(-342.81 -383.159)"/></g></g><g class="k" transform="translate(46.778 156.057)"><path d="M125.041,231.406c-.405-.233-.751-.053-.751.42v4.5a1.622,1.622,0,0,0,.751,1.269l11.929,6.892c.405.233.751.045.751-.42v-4.5a1.6,1.6,0,0,0-.751-1.269Z" transform="translate(-116.362 -231.305)"/><path d="M125.041,252.115c-.405-.24-.751-.053-.751.42v4.5a1.622,1.622,0,0,0,.751,1.269L136.97,265.2c.405.233.751.045.751-.42v-4.5A1.606,1.606,0,0,0,136.97,259Z" transform="translate(-116.362 -236.467)"/><path d="M114.481,235.546c-.405-.233-.751-.053-.751.42v4.5a1.622,1.622,0,0,0,.751,1.269l11.914,6.884c.405.233.751.045.751-.42v-4.5a1.636,1.636,0,0,0-.751-1.276Z" transform="translate(-113.73 -232.337)"/><g class="l"><path d="M125.041,231.406c-.405-.233-.751-.053-.751.42v4.5a1.622,1.622,0,0,0,.751,1.269l11.929,6.892c.405.233.751.045.751-.42v-4.5a1.6,1.6,0,0,0-.751-1.269Z" transform="translate(-116.362 -231.305)"/><path d="M125.041,252.115c-.405-.24-.751-.053-.751.42v4.5a1.622,1.622,0,0,0,.751,1.269L136.97,265.2c.405.233.751.045.751-.42v-4.5A1.606,1.606,0,0,0,136.97,259Z" transform="translate(-116.362 -236.467)"/><path d="M114.481,235.546c-.405-.233-.751-.053-.751.42v4.5a1.622,1.622,0,0,0,.751,1.269l11.914,6.884c.405.233.751.045.751-.42v-4.5a1.636,1.636,0,0,0-.751-1.276Z" transform="translate(-113.73 -232.337)"/></g></g><g class="k" transform="translate(39.158 163.828)"><path d="M104.331,241.757c-.405-.233-.751-.045-.751.42v4.5a1.622,1.622,0,0,0,.751,1.276l11.929,6.884c.405.24.751.053.751-.42v-4.5a1.622,1.622,0,0,0-.751-1.269Z" transform="translate(-103.58 -241.657)"/><path d="M104.331,262.467c-.405-.233-.751-.045-.751.42v4.5a1.637,1.637,0,0,0,.751,1.276l11.914,6.937c.405.233.751.053.751-.42v-4.5a1.622,1.622,0,0,0-.751-1.269Z" transform="translate(-103.58 -246.819)"/><g class="l"><path d="M104.331,241.757c-.405-.233-.751-.045-.751.42v4.5a1.622,1.622,0,0,0,.751,1.276l11.929,6.884c.405.24.751.053.751-.42v-4.5a1.622,1.622,0,0,0-.751-1.269Z" transform="translate(-103.58 -241.657)"/><path d="M104.331,262.467c-.405-.233-.751-.045-.751.42v4.5a1.637,1.637,0,0,0,.751,1.276l11.914,6.937c.405.233.751.053.751-.42v-4.5a1.622,1.622,0,0,0-.751-1.269Z" transform="translate(-103.58 -246.819)"/></g></g><g class="k" transform="translate(44.323 116.991)"><path d="M121.751,179.367c-.405-.233-.751-.045-.751.42v4.5a1.614,1.614,0,0,0,.751,1.276l11.937,6.892c.405.233.751.045.751-.428v-4.5a1.622,1.622,0,0,0-.751-1.276Z" transform="translate(-113.087 -179.267)"/><path d="M111.211,183.507c-.405-.233-.751-.045-.751.42v4.5a1.622,1.622,0,0,0,.751,1.276l11.914,6.907c.405.24.751.053.751-.42v-4.5a1.621,1.621,0,0,0-.751-1.269Z" transform="translate(-110.46 -180.299)"/><g class="l"><path d="M121.751,179.367c-.405-.233-.751-.045-.751.42v4.5a1.614,1.614,0,0,0,.751,1.276l11.937,6.892c.405.233.751.045.751-.428v-4.5a1.622,1.622,0,0,0-.751-1.276Z" transform="translate(-113.087 -179.267)"/><path d="M111.211,183.507c-.405-.233-.751-.045-.751.42v4.5a1.622,1.622,0,0,0,.751,1.276l11.914,6.907c.405.24.751.053.751-.42v-4.5a1.621,1.621,0,0,0-.751-1.269Z" transform="translate(-110.46 -180.299)"/></g></g><g class="k" transform="translate(39.293 31.206)"><path d="M115.081,65.1c-.405-.233-.751-.045-.751.428v4.5a1.622,1.622,0,0,0,.751,1.276L127.017,78.2c.405.233.751.045.751-.428v-4.5a1.622,1.622,0,0,0-.751-1.276Z" transform="translate(-106.395 -64.997)"/><path d="M115.081,85.807c-.405-.233-.751-.045-.751.42v4.5a1.622,1.622,0,0,0,.751,1.276l11.937,6.884c.405.233.751.053.751-.42v-4.5a1.622,1.622,0,0,0-.751-1.269Z" transform="translate(-106.395 -70.16)"/><path d="M124.511,80.965c-.405-.24-.751-.053-.751.42v4.5a1.622,1.622,0,0,0,.751,1.269L136.44,94.05c.405.233.751.045.751-.42v-4.5a1.622,1.622,0,0,0-.751-1.276Z" transform="translate(-108.746 -68.952)"/><path d="M104.511,69.237c-.405-.233-.751-.045-.751.42v4.5a1.622,1.622,0,0,0,.751,1.276l11.929,6.884c.405.24.751.053.751-.42V77.4a1.622,1.622,0,0,0-.751-1.269Z" transform="translate(-103.76 -66.029)"/><g class="l"><path d="M115.081,65.1c-.405-.233-.751-.045-.751.428v4.5a1.622,1.622,0,0,0,.751,1.276L127.017,78.2c.405.233.751.045.751-.428v-4.5a1.622,1.622,0,0,0-.751-1.276Z" transform="translate(-106.395 -64.997)"/><path d="M115.081,85.807c-.405-.233-.751-.045-.751.42v4.5a1.622,1.622,0,0,0,.751,1.276l11.937,6.884c.405.233.751.053.751-.42v-4.5a1.622,1.622,0,0,0-.751-1.269Z" transform="translate(-106.395 -70.16)"/><path d="M124.511,80.965c-.405-.24-.751-.053-.751.42v4.5a1.622,1.622,0,0,0,.751,1.269L136.44,94.05c.405.233.751.045.751-.42v-4.5a1.622,1.622,0,0,0-.751-1.276Z" transform="translate(-108.746 -68.952)"/><path d="M104.511,69.237c-.405-.233-.751-.045-.751.42v4.5a1.622,1.622,0,0,0,.751,1.276l11.929,6.884c.405.24.751.053.751-.42V77.4a1.622,1.622,0,0,0-.751-1.269Z" transform="translate(-103.76 -66.029)"/></g></g><g class="k" transform="translate(62.145 36.708)"><path d="M145.511,72.427c-.405-.233-.751-.045-.751.42v4.5a1.637,1.637,0,0,0,.751,1.276l11.929,6.884c.405.233.751.053.751-.42v-4.5a1.622,1.622,0,0,0-.751-1.269Z" transform="translate(-136.832 -72.327)"/><path d="M145.511,93.136c-.405-.233-.751-.053-.751.42v4.5a1.622,1.622,0,0,0,.751,1.269l11.929,6.892c.405.233.751.045.751-.42v-4.5a1.637,1.637,0,0,0-.751-1.276Z" transform="translate(-136.832 -77.489)"/><path d="M154.951,88.247c-.405-.233-.751-.045-.751.42v4.5a1.607,1.607,0,0,0,.751,1.276l11.929,6.892c.405.233.751.045.751-.428v-4.5a1.622,1.622,0,0,0-.751-1.276Z" transform="translate(-139.185 -76.27)"/><path d="M134.951,76.567c-.405-.233-.751-.045-.751.42v4.5a1.614,1.614,0,0,0,.751,1.269l11.937,6.892c.405.233.751.053.751-.42v-4.5a1.622,1.622,0,0,0-.751-1.269Z" transform="translate(-134.2 -73.359)"/><g class="l"><path d="M145.511,72.427c-.405-.233-.751-.045-.751.42v4.5a1.637,1.637,0,0,0,.751,1.276l11.929,6.884c.405.233.751.053.751-.42v-4.5a1.622,1.622,0,0,0-.751-1.269Z" transform="translate(-136.832 -72.327)"/><path d="M145.511,93.136c-.405-.233-.751-.053-.751.42v4.5a1.622,1.622,0,0,0,.751,1.269l11.929,6.892c.405.233.751.045.751-.42v-4.5a1.637,1.637,0,0,0-.751-1.276Z" transform="translate(-136.832 -77.489)"/><path d="M154.951,88.247c-.405-.233-.751-.045-.751.42v4.5a1.607,1.607,0,0,0,.751,1.276l11.929,6.892c.405.233.751.045.751-.428v-4.5a1.622,1.622,0,0,0-.751-1.276Z" transform="translate(-139.185 -76.27)"/><path d="M134.951,76.567c-.405-.233-.751-.045-.751.42v4.5a1.614,1.614,0,0,0,.751,1.269l11.937,6.892c.405.233.751.053.751-.42v-4.5a1.622,1.622,0,0,0-.751-1.269Z" transform="translate(-134.2 -73.359)"/></g></g><g class="k" transform="translate(199.963 201.199)"><path d="M329.091,291.537c-.405-.233-.751-.045-.751.42v4.5a1.622,1.622,0,0,0,.751,1.276L341,304.622c.405.24.751.053.751-.42v-4.5a1.622,1.622,0,0,0-.751-1.269Z" transform="translate(-320.412 -291.437)"/><path d="M329.091,312.247c-.405-.233-.751-.045-.751.42v4.5a1.637,1.637,0,0,0,.751,1.276l11.929,6.884c.405.233.751.053.751-.42v-4.5a1.622,1.622,0,0,0-.751-1.269Z" transform="translate(-320.412 -296.599)"/><path d="M338.531,307.357c-.405-.233-.751-.045-.751.428v4.5a1.607,1.607,0,0,0,.751,1.276l11.929,6.892c.405.233.751.045.751-.42v-4.5a1.621,1.621,0,0,0-.751-1.276Z" transform="translate(-322.766 -295.381)"/><path d="M318.531,295.677c-.405-.233-.751-.045-.751.42v4.5a1.629,1.629,0,0,0,.751,1.276l11.937,6.884c.405.233.751.053.751-.42v-4.5a1.622,1.622,0,0,0-.751-1.269Z" transform="translate(-317.78 -292.469)"/><g class="l"><path d="M329.091,291.537c-.405-.233-.751-.045-.751.42v4.5a1.622,1.622,0,0,0,.751,1.276L341,304.622c.405.24.751.053.751-.42v-4.5a1.622,1.622,0,0,0-.751-1.269Z" transform="translate(-320.412 -291.437)"/><path d="M329.091,312.247c-.405-.233-.751-.045-.751.42v4.5a1.637,1.637,0,0,0,.751,1.276l11.929,6.884c.405.233.751.053.751-.42v-4.5a1.622,1.622,0,0,0-.751-1.269Z" transform="translate(-320.412 -296.599)"/><path d="M338.531,307.357c-.405-.233-.751-.045-.751.428v4.5a1.607,1.607,0,0,0,.751,1.276l11.929,6.892c.405.233.751.045.751-.42v-4.5a1.621,1.621,0,0,0-.751-1.276Z" transform="translate(-322.766 -295.381)"/><path d="M318.531,295.677c-.405-.233-.751-.045-.751.42v4.5a1.629,1.629,0,0,0,.751,1.276l11.937,6.884c.405.233.751.053.751-.42v-4.5a1.622,1.622,0,0,0-.751-1.269Z" transform="translate(-317.78 -292.469)"/></g></g><g class="k" transform="translate(208.544 123.588)"><path d="M340.521,188.156c-.405-.233-.751-.053-.751.42v4.5a1.622,1.622,0,0,0,.751,1.269l11.929,6.892c.405.233.751.045.751-.42v-4.5a1.607,1.607,0,0,0-.751-1.276Z" transform="translate(-331.842 -188.055)"/><path d="M329.961,192.3c-.405-.24-.751-.053-.751.42v4.5a1.622,1.622,0,0,0,.751,1.269L341.9,205.38c.405.233.751.045.751-.42v-4.5a1.621,1.621,0,0,0-.751-1.276Z" transform="translate(-329.21 -189.086)"/><g class="l"><path d="M340.521,188.156c-.405-.233-.751-.053-.751.42v4.5a1.622,1.622,0,0,0,.751,1.269l11.929,6.892c.405.233.751.045.751-.42v-4.5a1.607,1.607,0,0,0-.751-1.276Z" transform="translate(-331.842 -188.055)"/><path d="M329.961,192.3c-.405-.24-.751-.053-.751.42v4.5a1.622,1.622,0,0,0,.751,1.269L341.9,205.38c.405.233.751.045.751-.42v-4.5a1.621,1.621,0,0,0-.751-1.276Z" transform="translate(-329.21 -189.086)"/></g></g><g class="k" transform="translate(185.744 247.091)"><path d="M310.161,352.667c-.405-.233-.751-.045-.751.42v4.5a1.622,1.622,0,0,0,.751,1.276l11.936,6.892c.405.233.751.045.751-.428v-4.5a1.622,1.622,0,0,0-.751-1.276Z" transform="translate(-301.475 -352.567)"/><path d="M310.161,373.377c-.405-.233-.751-.045-.751.42v4.5a1.637,1.637,0,0,0,.751,1.276l11.936,6.884c.405.233.751.053.751-.42v-4.5a1.621,1.621,0,0,0-.751-1.269Z" transform="translate(-301.475 -357.729)"/><path d="M319.591,368.5c-.405-.24-.751-.053-.751.42v4.5a1.621,1.621,0,0,0,.751,1.269L331.5,381.61c.405.233.751.045.751-.42v-4.5a1.607,1.607,0,0,0-.751-1.276Z" transform="translate(-303.826 -356.511)"/><path d="M299.591,356.807c-.405-.233-.751-.045-.751.42v4.5a1.622,1.622,0,0,0,.751,1.276l11.929,6.884c.405.24.751.053.751-.42v-4.5a1.622,1.622,0,0,0-.751-1.269Z" transform="translate(-298.84 -353.599)"/><g class="l"><path d="M310.161,352.667c-.405-.233-.751-.045-.751.42v4.5a1.622,1.622,0,0,0,.751,1.276l11.936,6.892c.405.233.751.045.751-.428v-4.5a1.622,1.622,0,0,0-.751-1.276Z" transform="translate(-301.475 -352.567)"/><path d="M310.161,373.377c-.405-.233-.751-.045-.751.42v4.5a1.637,1.637,0,0,0,.751,1.276l11.936,6.884c.405.233.751.053.751-.42v-4.5a1.621,1.621,0,0,0-.751-1.269Z" transform="translate(-301.475 -357.729)"/><path d="M319.591,368.5c-.405-.24-.751-.053-.751.42v4.5a1.621,1.621,0,0,0,.751,1.269L331.5,381.61c.405.233.751.045.751-.42v-4.5a1.607,1.607,0,0,0-.751-1.276Z" transform="translate(-303.826 -356.511)"/><path d="M299.591,356.807c-.405-.233-.751-.045-.751.42v4.5a1.622,1.622,0,0,0,.751,1.276l11.929,6.884c.405.24.751.053.751-.42v-4.5a1.622,1.622,0,0,0-.751-1.269Z" transform="translate(-298.84 -353.599)"/></g></g><g class="k" transform="translate(220.465 142.035)"><path d="M356.4,212.727c-.405-.233-.751-.045-.751.42v4.5a1.622,1.622,0,0,0,.751,1.269l11.929,6.892c.405.233.751.045.751-.42v-4.5a1.621,1.621,0,0,0-.751-1.269Z" transform="translate(-347.722 -212.627)"/><path d="M356.4,233.436c-.405-.233-.751-.053-.751.42v4.5a1.622,1.622,0,0,0,.751,1.269l11.929,6.892c.405.233.751.045.751-.42v-4.5a1.621,1.621,0,0,0-.751-1.276Z" transform="translate(-347.722 -217.789)"/><path d="M345.841,216.866c-.405-.233-.751-.053-.751.42v4.5a1.6,1.6,0,0,0,.751,1.269l11.944,6.914c.405.233.751.045.751-.42v-4.5a1.637,1.637,0,0,0-.751-1.276Z" transform="translate(-345.09 -213.658)"/><g class="l"><path d="M356.4,212.727c-.405-.233-.751-.045-.751.42v4.5a1.622,1.622,0,0,0,.751,1.269l11.929,6.892c.405.233.751.045.751-.42v-4.5a1.621,1.621,0,0,0-.751-1.269Z" transform="translate(-347.722 -212.627)"/><path d="M356.4,233.436c-.405-.233-.751-.053-.751.42v4.5a1.622,1.622,0,0,0,.751,1.269l11.929,6.892c.405.233.751.045.751-.42v-4.5a1.621,1.621,0,0,0-.751-1.276Z" transform="translate(-347.722 -217.789)"/><path d="M345.841,216.866c-.405-.233-.751-.053-.751.42v4.5a1.6,1.6,0,0,0,.751,1.269l11.944,6.914c.405.233.751.045.751-.42v-4.5a1.637,1.637,0,0,0-.751-1.276Z" transform="translate(-345.09 -213.658)"/></g></g><path class="c" d="M89.362,271.886l8.431-4.9.015-4.279-2.7-2.245-8.431,4.895-2.395,1.9,2.38,4.422Z" transform="translate(-59.611 -82.516)"/><path class="h" d="M98.6,262.7l-2.7-2.245-8.431,4.895,2.7,2.245Z" transform="translate(-60.406 -82.516)"/><path class="m" d="M91.05,272.631l8.431-4.9.015-4.279-8.431,4.895Z" transform="translate(-61.299 -83.261)"/><path class="c" d="M180.885,146.348l5.1-.435,8.423-4.9-6.021-11.3L181.7,127.79l-8.423,4.9Z" transform="translate(-81.797 -49.444)"/><path class="h" d="M188.208,146.551l8.423-4.9-6.021-11.3-8.431,4.895Z" transform="translate(-84.015 -50.083)"/><path class="i" d="M179.961,134.607l8.431-4.895L181.7,127.79l-8.423,4.9Z" transform="translate(-81.797 -49.444)"/><path class="c" d="M93.727,306.34l.008-1.607L91.94,303.7l-1.546-6.584-5.555-.983-8.431,4.895-1.284,4.332-1.284,2.38,3.8,8.371,2.552-.158,5.645,2,8.431-4.9Z" transform="translate(-57.009 -91.407)"/><path class="i" d="M97.533,309.73l-8.423,4.895.533,6.711,8.431-4.9Z" transform="translate(-60.815 -94.798)"/><path class="i" d="M88.514,312.148l8.431-4.9-1.794-1.036L86.72,311.1Z" transform="translate(-60.219 -93.92)"/><path class="h" d="M89.11,314.091l8.423-4.895.008-1.607-8.431,4.9Z" transform="translate(-60.815 -94.264)"/><path class="h" d="M86.209,308.919l8.431-4.895-1.546-6.584-8.423,4.895Z" transform="translate(-59.708 -91.734)"/><path class="i" d="M91.246,297.113l-5.555-.983-8.431,4.895,5.563.983Z" transform="translate(-57.861 -91.407)"/><path class="c" d="M301.924,436.375l-3.093-7.7-4.1-2.372-1.689-3.191L284.612,428l-2.552,2.44.548,5.758,2.83.7,2.958,5.653,5.1-1.284Z" transform="translate(-108.913 -123.06)"/><path class="i" d="M295.58,426.3l-1.689-3.191L285.46,428l1.689,3.191Z" transform="translate(-109.76 -123.06)"/><path class="h" d="M291.816,434.627l8.423-4.895-4.1-2.372-8.431,4.895Z" transform="translate(-110.321 -124.12)"/><path class="i" d="M296.273,443.117l8.423-4.895-3.093-7.7-8.423,4.895Z" transform="translate(-111.685 -124.908)"/><path class="c" d="M184.953,296.773l-2.042-4.437-2.552-.916-8.423,4.895-.015,4.324,2.537,3.258-.008,4.016,5.09,2.943,8.423-4.9-.826-7.027Z" transform="translate(-81.458 -90.233)"/><path class="h" d="M177.372,301.971l8.431-4.895-2.042-4.437-8.431,4.9Z" transform="translate(-82.308 -90.537)"/><path class="i" d="M182.916,292.336l-2.552-.916-8.423,4.895,2.545.923Z" transform="translate(-81.463 -90.233)"/><path class="i" d="M180.235,305.6l8.431-4.895-2.185-2.155-8.431,4.895Z" transform="translate(-82.986 -92.011)"/><path class="h" d="M180.96,306.315l.833,7.034,8.423-4.9-.826-7.027Z" transform="translate(-83.711 -92.726)"/><path class="c" d="M115.068,215.955l-2.838,3.784,4.609,5.57,8.423-4.9,1.051-3.416L123.5,211.06Z" transform="translate(-66.578 -70.202)"/><path class="h" d="M118.37,227.278l8.423-4.9,1.051-3.416-8.423,4.895Z" transform="translate(-68.109 -72.171)"/><path class="i" d="M116.01,215.955l2.823,5.931,8.423-4.895-2.815-5.931Z" transform="translate(-67.521 -70.202)"/><path class="c" d="M59.28,327.555l-1.952,3.221-5.886,2.455-.023,6.5,4.76,5.578L63,344.176l.008-2.733,6.862-1.261.023-6.5-.128-6.2Z" transform="translate(-51.42 -99.222)"/><path class="m" d="M66.52,339.779l.263-.045-.008,3.769,6.862-1.261.023-6.5-7.132,1.314Z" transform="translate(-55.184 -101.281)"/><path class="h" d="M64.336,341.105l-6.561,1.089-.015,6.5,6.824-1.134.008-2.733.008-3.769Z" transform="translate(-53 -102.607)"/><path class="m" d="M51.443,335.14l-.023,6.5,4.76,5.578.015-6.5Z" transform="translate(-51.42 -101.132)"/><path class="c" d="M214.178,411.187l.015-6.494-8.348-2.883-.36,9.054-.015,6.494,8,1.246Z" transform="translate(-89.821 -117.751)"/><path class="h" d="M216.836,412.144l.015-6.494-.7,7.41-.023,6.5Z" transform="translate(-92.478 -118.708)"/><path class="m" d="M213.5,415.109l-8.01-1.239-.015,6.494,8,1.246Z" transform="translate(-89.821 -120.757)"/><path class="c" d="M135.506,352.039l8.738.811,2-4.76.015-6.5-3.881-2.245.007-2.215-5.923.5-4.144,3.055-.015,6.494,3.221,1.029Z" transform="translate(-71.581 -101.628)"/><path class="m" d="M135.521,346.717l.428.038.015-3.739-3.648-1.156-.015,6.494,3.221,1.028Z" transform="translate(-71.581 -102.807)"/><path class="m" d="M150.207,349.571l.015-6.5-1.989,4.767-.023,6.494Z" transform="translate(-75.547 -103.108)"/><path class="h" d="M136.585,351l-.015,3.836,8.738.811.023-6.494-8.318-.781-.428-.038Z" transform="translate(-72.646 -104.42)"/><path class="c" d="M130.722,409.215l-6.156-.841-1.592,3.131-.015,6.5,10.458,3.506,5.841-3.393.015-6.5-6.479-4.587Z" transform="translate(-69.253 -119.052)"/><path class="h" d="M136.89,423.035l5.841-3.393.015-6.5-5.841,3.393Z" transform="translate(-72.726 -120.575)"/><path class="m" d="M122.975,412.99l-.015,6.5L133.418,423l.015-6.5Z" transform="translate(-69.253 -120.538)"/><path class="c" d="M226.5,402.425l.338-3.326.015-6.5-1.359-2.9-4.272.458-.218,1.6-2.973.255-.008,2.95-3.281,1.914-.023,6.5,3.513.9,2.74-.113Z" transform="translate(-92.127 -114.732)"/><path class="h" d="M230.748,400.061l.015-6.5-.338,3.333-.015,6.494Z" transform="translate(-96.038 -115.694)"/><path class="m" d="M228.575,404.494,228.59,398l-5.525,1.734-.015,6.5Z" transform="translate(-94.203 -116.801)"/><path class="h" d="M222.155,400.31l-2.733.113-.023,6.5,2.74-.113Z" transform="translate(-93.293 -117.377)"/><path class="m" d="M218.233,400.161l-.218-.06-3.273-.841-.023,6.5,3.513.9.023-6.5Z" transform="translate(-92.127 -117.115)"/><path class="c" d="M265.111,385.328l-9.819-.518-3.866,1.809-.015,6.494,1.989,4.114,7.958-2.41,3.739-3Z" transform="translate(-101.273 -113.513)"/><path class="h" d="M268.414,385.5l-3.731,2.988-.023,6.5,3.739-3Z" transform="translate(-104.576 -113.685)"/><path class="m" d="M254.083,391.89l-.023,6.5,7.958-2.41.023-6.5Z" transform="translate(-101.933 -114.677)"/><path class="h" d="M251.425,387.22l-.015,6.494,1.989,4.114.023-6.5Z" transform="translate(-101.273 -114.114)"/><path class="c" d="M285.975,266.548l.015-6.5-2.11-1.907-5.218.27-.24,2.905-.023,6.494,3.874.886Z" transform="translate(-108.001 -81.937)"/><path class="m" d="M287.261,267.181l.015-6.5-3.7,2.155-.015,6.494Z" transform="translate(-109.287 -82.571)"/><path class="h" d="M282.289,263.256l-3.866-.886-.023,6.494,3.874.886Z" transform="translate(-108.001 -82.992)"/><path class="c" d="M288.909,318.5l-8.326-3.686-3.761.646-2.282,9.8,3.844,3.791,1.937,6.989,8.536-1.013,3.761-.646.053-7.042-3.648-1.4Z" transform="translate(-107.038 -96.064)"/><path class="h" d="M282.24,342.539l8.536-1.013,3.761-.646L286,341.893Z" transform="translate(-108.958 -102.563)"/><path class="h" d="M283.429,332.92l-3.769.646,1.937,6.989,3.761-.646Z" transform="translate(-108.315 -100.578)"/><path class="m" d="M278.3,327.88l-3.761.638,3.844,3.791,3.769-.646Z" transform="translate(-107.038 -99.322)"/><path class="h" d="M280.583,314.81l-3.761.646-2.282,9.8,3.761-.638Z" transform="translate(-107.038 -96.064)"/><path class="c" d="M163.337,200.828l-.758-1.787-2.3.39-3.739-4.782-3.769.638-4.5,5.683,1.126,6.374.2,4.189,6.742,4.662,3.761-.638,1.779-3.281,5.037-4.677Z" transform="translate(-75.562 -66.111)"/><path class="m" d="M152.031,202.22l-3.761.638,1.126,6.374,3.761-.646Z" transform="translate(-75.562 -67.998)"/><path class="h" d="M156.535,194.65l-3.769.638-4.5,5.683,3.761-.638Z" transform="translate(-75.562 -66.111)"/><path class="m" d="M150.03,216.926l6.742,4.662,3.761-.638-6.742-4.669Z" transform="translate(-76.001 -71.503)"/><path class="h" d="M153.531,210.7l-3.761.646.2,4.189,3.761-.646Z" transform="translate(-75.936 -70.112)"/><path class="c" d="M145.239,257.24l-3.761.646-5.308,3.063.263,6.524,6.464,1.674,3.761-.638,1.734-3.851-3.491-2.485Z" transform="translate(-72.546 -81.713)"/><path class="m" d="M145.239,257.24l-3.761.646-5.308,3.063,3.769-.646Z" transform="translate(-72.546 -81.713)"/><path class="m" d="M136.52,270.658l6.464,1.674,3.761-.638-6.464-1.674Z" transform="translate(-72.633 -84.899)"/><path class="h" d="M139.939,261.32l-3.769.646.263,6.524,3.761-.638Z" transform="translate(-72.546 -82.73)"/><path class="c" d="M256.63,316.259l3.491-6.7-9.737-5.2-3.769.646-5.766,6.013,12.019,5.878Z" transform="translate(-98.64 -93.459)"/><path class="h" d="M256.63,318.256l-12.019-5.886-3.761.646,12.019,5.878Z" transform="translate(-98.64 -95.456)"/><path class="m" d="M250.384,304.36l-3.769.646-5.766,6.013,3.761-.646Z" transform="translate(-98.64 -93.459)"/><path class="c" d="M230.7,370.435l3.761-.638,3.085-7.635-5.908-4.782-3.761.646-1.712.983-1.366-.743-3.761.646-.7,5.8,3.138,5.728,3.761-.638.758-.856Z" transform="translate(-93.528 -106.676)"/><path class="h" d="M226.1,369.956l-2-3.656-3.761.638,3.138,5.728,3.761-.638-1-1.824Z" transform="translate(-93.528 -108.899)"/><path class="m" d="M224.559,360.549l.038-.338.2-1.652-3.761.646-.7,5.8,3.761-.638Z" transform="translate(-93.528 -106.97)"/><path class="c" d="M152.937,160.26l-3.761.638-.435,10.2,3.761-.646,5-1.7.706-4.962Z" transform="translate(-75.68 -57.538)"/><path class="m" d="M148.74,171.1l3.761-.646.435-10.195-3.761.638Z" transform="translate(-75.68 -57.538)"/><path class="c" d="M262.549,347.64l-3.754.638-.435,10.2,3.761-.638,4.992-1.712.706-4.962Z" transform="translate(-103.005 -104.248)"/><path class="m" d="M258.36,358.48l3.761-.638.428-10.2-3.754.638Z" transform="translate(-103.005 -104.248)"/><path class="c" d="M162.762,372.506l-7.612,3.228,2.447,3.258-2.537,5.21,3.829,3.408,3.761-.638,7.072-7.6-3.2-7.515Z" transform="translate(-77.255 -110.285)"/><path class="h" d="M162.792,372.506l-7.612,3.228,3.761-.646,7.612-3.228Z" transform="translate(-77.285 -110.285)"/><path class="m" d="M157.627,380.064l3.769-.638-2.455-3.266-3.761.646Z" transform="translate(-77.285 -111.357)"/><path class="m" d="M158.889,391.5l3.761-.638-3.829-3.408-3.761.638Z" transform="translate(-77.255 -114.171)"/><path class="h" d="M155.06,386.358l3.761-.638,2.545-5.21-3.769.638Z" transform="translate(-77.255 -112.441)"/><path class="c" d="M292.029,384.782l-3.6-2.432-3.754.638-2.29,2.095,2.049,4.8,3.386.51,1.907,4.482,3.761-.646,5.09-2.935-3.941-6.787Z" transform="translate(-108.995 -112.9)"/><path class="m" d="M289.63,392.858l1.907,4.482,3.761-.646-1.907-4.474Z" transform="translate(-110.8 -115.36)"/><path class="h" d="M288.881,391.54l-3.761.638,3.386.51,3.761-.638Z" transform="translate(-109.676 -115.191)"/><path class="m" d="M286.159,385.13l-3.769.646,2.049,4.8,3.761-.638Z" transform="translate(-108.995 -113.593)"/><path class="h" d="M288.433,382.35l-3.754.638-2.29,2.095,3.769-.646Z" transform="translate(-108.995 -112.9)"/><path class="c" d="M129.842,132.252l-3.588-2.432-3.761.638-2.282,2.087,2.049,4.812,3.386.51,1.907,4.474,3.761-.638,5.09-2.935-3.949-6.787Z" transform="translate(-68.568 -49.95)"/><path class="m" d="M127.45,140.328l1.907,4.474,3.761-.638-1.907-4.474Z" transform="translate(-70.372 -52.411)"/><path class="h" d="M126.7,139l-3.761.646,3.386.51,3.761-.638Z" transform="translate(-69.248 -52.239)"/><path class="m" d="M123.971,132.6l-3.761.638,2.049,4.812,3.761-.646Z" transform="translate(-68.568 -50.643)"/><path class="h" d="M126.253,129.82l-3.761.638-2.282,2.087,3.761-.638Z" transform="translate(-68.568 -49.95)"/><path class="c" d="M177.751,234.05l-3.769.646-.263,7.65,5.991.556,3.761-.638-.863-5.06Z" transform="translate(-81.906 -75.932)"/><path class="m" d="M173.72,244.888l5.991.556,3.761-.638-5.983-.556Z" transform="translate(-81.906 -78.475)"/><path class="h" d="M177.751,234.05l-3.769.646-.263,7.65,3.769-.638Z" transform="translate(-81.906 -75.932)"/><path class="c" d="M148.83,314.773l1.914,4.512,3.761-.638,2.012-2.725.48-2.613-1.059-6.2-4.377-2.365-4.182-.5-3.761.646-.36,4.257,2.087,1.179L145,313.234Z" transform="translate(-74.313 -93.429)"/><path class="h" d="M152.594,322.57l3.761-.638-1.914-4.512-3.761.638Z" transform="translate(-76.163 -96.715)"/><path class="m" d="M149.409,317.547l3.761-.638-3.829-1.539-3.761.638Z" transform="translate(-74.892 -96.204)"/><path class="h" d="M149.341,314.4l.345-2.913-3.761.638-.345,2.913Z" transform="translate(-74.892 -95.236)"/><path class="m" d="M147.021,309.92l-3.761.638,2.087,1.179,3.761-.638Z" transform="translate(-74.313 -94.845)"/><path class="h" d="M147.381,304.24l-3.761.646-.36,4.257,3.761-.638Z" transform="translate(-74.313 -93.429)"/><path class="c" d="M267.977,198.944l3.761-.646-1.389-8.874L267.2,184.11l-3.761.646-2.943,8.821,1.531,4.7Z" transform="translate(-103.539 -63.484)"/><path class="m" d="M268.486,203.434l3.761-.646-5.946-.668-3.761.646Z" transform="translate(-104.047 -67.973)"/><path class="h" d="M265.793,200.56l-1.531-4.7-3.761.646,1.531,4.7Z" transform="translate(-103.539 -66.413)"/><path class="m" d="M267.2,184.11l-3.761.646-2.943,8.821,3.761-.646Z" transform="translate(-103.539 -63.484)"/><path class="c" d="M251.01,164.433l2.064-3.063-2.027-4.76-3.761.638-3.025.811-.841,5.015,3.829,2Z" transform="translate(-99.281 -56.629)"/><path class="h" d="M251.327,156.61l-3.761.638-3.025.811,3.761-.646Z" transform="translate(-99.56 -56.629)"/><path class="m" d="M251.01,166.364l-3.829-2-3.761.646,3.829,2Z" transform="translate(-99.281 -58.56)"/><path class="h" d="M248.022,157.68l-3.761.646-.841,5.015,3.761-.646Z" transform="translate(-99.281 -56.895)"/><path class="c" d="M180.156,352.48l-.15-4.219,2.973-3.769-6.742-2.462-3.761.646-.676,9.587,4.594.856Z" transform="translate(-81.428 -102.849)"/><path class="h" d="M180.156,355.666l-4.594-.856-3.761.638,4.594.856Z" transform="translate(-81.428 -106.035)"/><path class="m" d="M176.237,342.03l-3.761.646-.676,9.587,3.761-.638Z" transform="translate(-81.428 -102.849)"/><path class="c" d="M128.139,356.138l.008-3.063,1.546-1.734.023-6.494-7.47-2.087-5.653,1.809-3.964.826-1.516,5.308-.023,6.494,3.956.653,6.742,2.62,4.97-3.528Z" transform="translate(-66.294 -103.031)"/><path class="m" d="M133.222,350.33l-.008,3.438,1.546-1.734.023-6.494-3.356,3.754-.008,2.14.42-.293Z" transform="translate(-71.362 -103.724)"/><path class="h" d="M131.975,352.731l-.015,6.494,1.381-.8.008-3.063.008-3.438Z" transform="translate(-71.497 -105.315)"/><path class="h" d="M111.113,353.34l-.023,6.494,3.956.653.015-6.494Z" transform="translate(-66.294 -105.669)"/><path class="h" d="M130.325,353l-.42.293-4.549,3.236-.015,6.494,4.97-3.528Z" transform="translate(-69.846 -105.584)"/><path class="m" d="M116.375,354.21l-.015,6.494,6.742,2.62.015-6.494Z" transform="translate(-67.608 -105.885)"/></g><g transform="translate(139.2 123.056)"><path class="n" d="M259.489,229.374,243.926,217.22l-1.516,2.74,15.8,12.379Z" transform="translate(-197.121 -171.363)"/><path class="o" d="M224.1,247.733l-8.731-.8c1.1,5.548,3.048,13.228,3.048,13.228l10.51-3.063Z" transform="translate(-190.381 -178.769)"/><path d="M192.338,355.229a9.121,9.121,0,0,0,5.766-.863,41.321,41.321,0,0,0,3.618-2.447,6.824,6.824,0,0,1,2.965-1.2,11.961,11.961,0,0,0,3.461-.908,5.353,5.353,0,0,0,2.883-2.733,1.914,1.914,0,0,0,0-1.546l.278.308a1.967,1.967,0,0,1,.315,2.072,5.51,5.51,0,0,1-2.943,2.785,11.943,11.943,0,0,1-3.528.923,6.975,6.975,0,0,0-3,1.231c-1.246.818-2.38,1.809-3.7,2.5a9.324,9.324,0,0,1-5.886.878,3.146,3.146,0,0,1-2.155-1.171,2.1,2.1,0,0,1-.3-1.239c.045.09.09.18.143.27A3.1,3.1,0,0,0,192.338,355.229Z" transform="translate(-184.082 -203.348)"/><path class="p" d="M210.661,344.531a2.328,2.328,0,0,1,.3.48,1.914,1.914,0,0,1,0,1.546,5.352,5.352,0,0,1-2.883,2.733,11.959,11.959,0,0,1-3.461.908,6.824,6.824,0,0,0-2.965,1.2,41.33,41.33,0,0,1-3.618,2.447,9.121,9.121,0,0,1-5.766.863,3.1,3.1,0,0,1-2.117-1.141c-.053-.09-.1-.18-.143-.27a2.417,2.417,0,0,1,.173-2.064,4.5,4.5,0,0,1,1.772-1.652c.751-.405,1.5-.751,2.177-1.126a18.326,18.326,0,0,0,3.161-2.492q1.374-1.261,2.755-2.515l9.97.4S210.331,344.156,210.661,344.531Z" transform="translate(-184.02 -202.829)"/><path d="M286.637,289.714a9.113,9.113,0,0,0-1.862-5.525,42.781,42.781,0,0,0-3.04-3.138,6.756,6.756,0,0,1-1.7-2.71,12.147,12.147,0,0,0-1.5-3.243,5.383,5.383,0,0,0-3.2-2.365,1.9,1.9,0,0,0-1.5.278l.255-.323a1.959,1.959,0,0,1,1.982-.676,5.473,5.473,0,0,1,3.258,2.41,12.52,12.52,0,0,1,1.5,3.311,6.952,6.952,0,0,0,1.734,2.763,43.123,43.123,0,0,1,3.108,3.206,9.332,9.332,0,0,1,1.9,5.638,3.153,3.153,0,0,1-.751,2.327,2.057,2.057,0,0,1-1.171.518,1.958,1.958,0,0,0,.233-.188A3.078,3.078,0,0,0,286.637,289.714Z" transform="translate(-204.954 -185.008)"/><path class="p" d="M273.058,273.634a1.855,1.855,0,0,1,.42-.383,1.9,1.9,0,0,1,1.5-.278,5.383,5.383,0,0,1,3.2,2.365,12.144,12.144,0,0,1,1.5,3.243,6.757,6.757,0,0,0,1.7,2.71,42.8,42.8,0,0,1,3.04,3.138,9.114,9.114,0,0,1,1.862,5.525,3.078,3.078,0,0,1-.751,2.252,1.961,1.961,0,0,1-.233.188,2.425,2.425,0,0,1-2.065.188,4.565,4.565,0,0,1-1.937-1.456c-.525-.623-.961-1.321-1.5-1.944a18.511,18.511,0,0,0-3-2.673l-2.965-2.252-1.351-9.887S272.743,274.024,273.058,273.634Z" transform="translate(-204.617 -185.249)"/><path class="q" d="M240.336,271.037l.458,12.222c5.54-5.615,19.969-10.855,19.969-10.855,5.465,4.024,4.249,8.656,2.2,10.855-11.313,6.156-24.218,14.429-27.184,13.746s-6.869-5.172-9.759-13.633l2.567-14.181Z" transform="translate(-193.036 -184.318)"/><path class="o" d="M240.563,245.76c1.824,8.964,1.134,12.9-5.848,19.436s-18.445,15.72-18.445,15.72c2.808,9.106-1.366,21.1-1.5,25.735s-.788,13.145-.788,13.145c-6.381,3.416-10.51-.7-10.51-.7l.218-40.231a14.557,14.557,0,0,1,3.6-9.587l13.851-15.93v-5.908Z" transform="translate(-187.414 -178.478)"/><path class="r" d="M186.1,206.675a7.507,7.507,0,0,1-3.754.27c0-2.425,0-5.127-.2-8.648-.458-7.6,1.592-11.771,3.288-13.288s4.6-1.546,5.69-.586-1.569,4.459-1.944,7.507c1.5-1.772,2.252-2.38,3.716-1.291a9.5,9.5,0,0,0-1.847,3.318c-.3,1.5-1.922,2.583-2.38,3.844-.345.968,0,4.106.578,6.794A7.455,7.455,0,0,1,186.1,206.675Z" transform="translate(-182.083 -163.026)"/><path class="s" d="M186.175,209.207a7.455,7.455,0,0,0,3.168-2.095c.173.8.353,1.569.541,2.215,0,0,5.871-8.048,7.184-9.564s2.53-5.165,8.258-5.833l-.7,14.189s-11.636,13.258-15.638,15.487-5.315-.661-6.126-6.006a51.946,51.946,0,0,1-.458-8.1,7.507,7.507,0,0,0,3.769-.293Z" transform="translate(-182.161 -165.558)"/><path class="d" d="M193.263,222.582c.916-3.3-.45-7.4-.893-8.6l1-1.366a11.554,11.554,0,0,1-.105,9.962Z" transform="translate(-184.648 -170.217)"/><path class="t" d="M229.451,193.141c3.341-.458,6.907.113,10.555.751a140.591,140.591,0,0,1,0,23.835l2.883,15.487c-11.313,6.839-25.742,3.8-28.625,1.824-4.557-17.762-5.69-34.533-2.012-41.568l9.009-1.5Z" transform="translate(-189.057 -165.069)"/><path class="u" d="M230.87,192.185c3.341-.45,5.488,1.059,9.136,1.667a140.591,140.591,0,0,1,0,23.835l2.883,15.487c-11.313,6.839-25.742,3.8-28.625,1.824-4.557-17.762-5.69-34.533-2.012-41.568l9.009-1.5Z" transform="translate(-189.057 -165.059)"/><path class="b" d="M225.951,201.705l2.643-2.095a15.15,15.15,0,0,0-2.583-.991l-1.051.518Z" transform="translate(-192.771 -166.727)"/><path class="b" d="M221.984,201.488l-.586-.36L220.43,199l1.126-.383.683.518Z" transform="translate(-191.642 -166.727)"/><path class="v" d="M224.71,204.67c1.989,7.92,11.261,13.093,18.941,12.537a4.624,4.624,0,0,1,3.07.8,13.776,13.776,0,0,1,3,2.89,1.216,1.216,0,0,1-.5,1.854,32.28,32.28,0,0,1-5.255,1.607,11.261,11.261,0,0,1-5.645-.143c-13.911-4.031-15.84-12.943-15.465-19.519Z" transform="translate(-192.237 -168.235)"/><path class="f" d="M222.84,205.023v-.353H224.7v.12a1.854,1.854,0,0,1-.886.39,1.772,1.772,0,0,1-.976-.158Z" transform="translate(-192.243 -168.235)"/><path class="w" d="M224.192,199.288a4.925,4.925,0,0,0-1.592,0,4.129,4.129,0,0,0-.841,1.989,5.353,5.353,0,0,0,.856,2.034c.48.368,1.862,0,1.862,0a10.429,10.429,0,0,0,.923-1.5,1.209,1.209,0,0,0,0-1.044A4.579,4.579,0,0,0,224.192,199.288Z" transform="translate(-191.974 -166.877)"/><path class="f" d="M218.26,253a9.406,9.406,0,0,0,5.608,3.266l-4.7,5.383a15.014,15.014,0,0,1,2.35-4.73A7.92,7.92,0,0,1,218.26,253Z" transform="translate(-191.101 -180.282)"/><path class="s" d="M222.834,197.185c-2.14-.571-3.506,1.8-3.506,1.8-.135-5.255,2.6-7.267,2.6-7.267Z" transform="translate(-191.366 -165.007)"/><path class="q" d="M228.8,162.34l2.868-1.892a2.6,2.6,0,0,0-1.974-.908,1.644,1.644,0,0,0-1.5,1.749,5.252,5.252,0,0,0-3.115-4.009,10,10,0,0,0-5.037-.751c-1.712.113-3.408.443-5.127.5a16.825,16.825,0,0,1-5.848-.826,1.2,1.2,0,0,0-1.546,1.5,8.161,8.161,0,0,0,1.629,2.965,3.507,3.507,0,0,1-1.224.135,1.216,1.216,0,0,0-1.111,1.839,6.756,6.756,0,0,0,3.063,2.47c4.549,7.192,16.831,13.6,16.831,13.6a2.522,2.522,0,0,0,1.959-1.389,7.507,7.507,0,0,0,.7-2.387q.751-4.73,1.306-9.5a4.5,4.5,0,0,0-.09-2,1.592,1.592,0,0,0-1.5-1.141" transform="translate(-188.205 -156.137)"/><path class="r" d="M231.382,179.068c.33,2.958.991,8.085.991,8.085-2.583,3.491-7.6,4.249-8.926,6.757a40.749,40.749,0,0,1-1.667-8.543l8.543-6.757Z" transform="translate(-191.979 -161.739)"/><path class="x" d="M230.323,178.66l.218.083a9.5,9.5,0,0,1-8.341,9.872,30.56,30.56,0,0,1-.42-3.236Z" transform="translate(-191.979 -161.751)"/><path class="r" d="M210.853,167.524a31.245,31.245,0,0,0,1.592,14.647,3,3,0,0,0,2.86,1.959c6.486,0,11.6-2.215,12.492-7.98a2.425,2.425,0,0,0,2.83.751,5.075,5.075,0,0,0,2.613-3.618,1.967,1.967,0,0,0-2.823-2.064,3.543,3.543,0,0,0-1.794,1.907c-.143.315-.323.7-.668.706s-.556-.39-.661-.751a12.492,12.492,0,0,1-.533-4.182,3.866,3.866,0,0,1-4.624-3.048,3.7,3.7,0,0,1-2.725,1.937,3.6,3.6,0,0,1-3.108-1.074,4.429,4.429,0,0,1-2.477,1.269,5.12,5.12,0,0,1-2.973-.458Z" transform="translate(-189.189 -158.558)"/><path class="x" d="M217.815,175.54l-2.965,3.739,2.808.931Z" transform="translate(-190.251 -160.974)"/><path class="x" d="M221.225,184.13l-2.335.751a1.456,1.456,0,0,0,1.6.7,1.306,1.306,0,0,0,.736-1.449Z" transform="translate(-191.258 -163.115)"/><path class="f" d="M221.225,184.13l-2.335.751a1.456,1.456,0,0,0,1.6.7,1.306,1.306,0,0,0,.736-1.449Z" transform="translate(-191.258 -163.115)"/><path class="x" d="M220,185.639a1.366,1.366,0,0,0,.751,0,1.171,1.171,0,0,0,.751-1.074,1.374,1.374,0,0,0-.908.18A1.411,1.411,0,0,0,220,185.639Z" transform="translate(-191.535 -163.22)"/><path class="p" d="M223.772,176.223a.833.833,0,1,1-.225-.6A.841.841,0,0,1,223.772,176.223Z" transform="translate(-192.056 -160.928)"/><path class="p" d="M214.442,175.543a.833.833,0,1,1-.225-.6A.841.841,0,0,1,214.442,175.543Z" transform="translate(-189.73 -160.759)"/><path class="p" d="M214.6,171.727l-2.11-.751a1.2,1.2,0,0,1,1.284-.45,1.419,1.419,0,0,1,.826,1.2Z" transform="translate(-189.663 -159.713)"/><path class="p" d="M221.74,172.359l2.215-.413a1.2,1.2,0,0,0-1.186-.668A1.426,1.426,0,0,0,221.74,172.359Z" transform="translate(-191.969 -159.91)"/><path class="s" d="M232.926,189.561l-.173-1.321a1.088,1.088,0,0,1,.338.045c.9.488,2.62,3.161,2.62,3.161-.608,1.419-3.5,5.848-5.773,7.365-2.635-1.314-4.5-3.168-5.938-2.492C224.548,193.232,232.926,189.561,232.926,189.561Z" transform="translate(-192.532 -164.139)"/><path class="n" d="M235.259,239.46c-6.321-8.874-20.27-29.406-19.429-46.17l-2.875.48c-1.194,16.516,11.9,38.077,21.02,49.255Z" transform="translate(-189.76 -165.398)"/><path class="y" d="M245.34,258.756l19.324-16.276,3.4,12.012a.465.465,0,0,1-.1.443h0l-.06.06-19.068,17.086a.51.51,0,0,0,.135-.5Z" transform="translate(-197.852 -177.66)"/><path class="z" d="M245.34,258.756l19.324-16.276,3.4,12.012a.465.465,0,0,1-.1.443h0l-.06.06-19.068,17.086a.51.51,0,0,0,.135-.5Z" transform="translate(-198.029 -177.198)"/><path class="c" d="M245.435,264.518l-3.025-10.7,3.025,10.7Z" transform="translate(-197.121 -180.487)"/><path class="c" d="M239.68,252.3Z" transform="translate(-196.441 -180.108)"/><path class="c" d="M250,281.91Z" transform="translate(-199.013 -187.489)"/><path class="c" d="M239.63,252.34Z" transform="translate(-196.428 -180.118)"/><path class="c" d="M250,281.92Z" transform="translate(-199.013 -187.492)"/><path class="c" d="M272.02,245.82Z" transform="translate(-204.502 -178.493)"/><path class="aa" d="M239.388,252.849a.683.683,0,0,1,.188-.571h0a.751.751,0,0,1,.586-.18h0a1.824,1.824,0,0,1,1.464,1.321l3,10.7,2.8,9.887a.51.51,0,0,1-.135.5h0a.5.5,0,0,1-.5.12l-3.754-1.141a1.5,1.5,0,0,1-1.081-1.261Z" transform="translate(-196.366 -180.056)"/><path class="f" d="M239.388,252.849a.683.683,0,0,1,.188-.571h0a.751.751,0,0,1,.586-.18h0a1.824,1.824,0,0,1,1.464,1.321l3,10.7,2.8,9.887a.51.51,0,0,1-.135.5h0a.5.5,0,0,1-.5.12l-3.754-1.141a1.5,1.5,0,0,1-1.081-1.261Z" transform="translate(-196.105 -180.056)"/><path class="aa" d="M254.228,254.91l3.416,12.259-.54.511-3.3-12.154Z" transform="translate(-199.961 -180.759)"/><path class="aa" d="M263.878,246.28l3.416,12.259-.54.511-3.3-12.154Z" transform="translate(-202.366 -178.607)"/><path class="aa" d="M258.761,229.542h0a.683.683,0,0,1,.563-.165,1.832,1.832,0,0,1,1.5,1.321l2.605,9.226a3,3,0,0,1-.908,3.063l-2.012,1.749L246.757,256.7a1.689,1.689,0,0,1-2.733-.811l-2.3-8.138a1.824,1.824,0,0,0-1.464-1.321h0a.751.751,0,0,0-.586.18Z" transform="translate(-196.438 -174.392)"/><path class="ab" d="M258.761,229.542h0a.683.683,0,0,1,.563-.165,1.832,1.832,0,0,1,1.5,1.321l2.605,9.226a3,3,0,0,1-.908,3.063l-2.012,1.749L246.757,256.7a1.689,1.689,0,0,1-2.733-.811l-2.3-8.138a1.824,1.824,0,0,0-1.464-1.321h0a.751.751,0,0,0-.586.18Z" transform="translate(-196.393 -174.392)"/><path class="r" d="M276.926,230.778l-.631,9.339c-1.321,9.316-3,10.78-7.29,12.012s-1.772-4.091-1.216-5.082a10.884,10.884,0,0,0,.856-2.785c-2.095,1.892-2.628,1.689-3.461,1.111-.33-.255,1.239-1.622,1.239-1.622a20.6,20.6,0,0,1,3.213-4.932l-.5-8.078Z" transform="translate(-202.787 -174.734)"/><path class="s" d="M243.793,193.534c6.006-1.006,9.94,2.019,12.672,3.754,1.974,1.269,9.226,6.757,13.093,9.677a6.006,6.006,0,0,1,2.4,4.97l-.21,9.872a8.2,8.2,0,0,1-8.2-.338l-.713-7.237s-8.423-4.1-14.084-6.681S242.381,197.753,243.793,193.534Z" transform="translate(-197.31 -165.409)"/></g><g transform="translate(236.416 49.216)"><path class="ac" d="M373.135,60.872c-3.9-2.252-7.2-1.149-8.258,2.35a11.569,11.569,0,0,0-4.219-4.685c-3.055-1.764-5.54-.353-5.548,3.161v1.614l-4.091-2.365c-2.14-1.231-3.881-.24-3.889,2.252a8.506,8.506,0,0,0,3.859,6.689L385.74,89.948c2.147,1.239,3.889.248,3.9-2.207a8.528,8.528,0,0,0-3.866-6.7l-4.106-2.372v-3C381.693,70.234,377.865,63.605,373.135,60.872Z" transform="translate(-320.442 -57.778)"/><path class="ac" d="M330.213,78.671c-2.8-1.614-5.165-.826-5.916,1.689a8.258,8.258,0,0,0-3-3.371c-2.192-1.261-3.979-.248-3.979,2.252V80.4l-2.943-1.7c-1.539-.893-2.785-.173-2.793,1.592a6.111,6.111,0,0,0,2.778,4.8L339.3,99.5c1.539.886,2.785.173,2.793-1.592a6.1,6.1,0,0,0-2.778-4.8l-2.943-1.7v-2.1A13.578,13.578,0,0,0,330.213,78.671Z" transform="translate(-311.58 -62.432)"/></g></g></svg>