<svg xmlns="http://www.w3.org/2000/svg" width="320.275" height="260" viewBox="0 0 320.275 260"><defs><style>.a{fill:#2df0da;}.b{opacity:0.29;}.c,.d{fill:#1d7e96;}.c{opacity:0.46;}.e{fill:#b16668;}.f{fill:#263238;}.g{fill:#455a64;}.h{fill:#f5f5f5;}.i{fill:#37474f;}.j{fill:#9a4a4d;}.k{fill:#a3edff;}.l{fill:#35a3be;}.m{fill:#a9f73f;}.n{opacity:0.6;}.o{fill:#ffa8a7;}.p{fill:#f28f8f;}.q{fill:#ff8900;}.r{opacity:0.1;}.s{fill:#ffbf76;}.t,.y{opacity:0.2;}.u{fill:#d87808;}.v{fill:#fddab1;}.w{opacity:0.4;}.x{opacity:0.3;}</style></defs><g transform="translate(6020.112 10122.113)"><path class="a" d="M80,0H295a0,0,0,0,1,0,0V120a80,80,0,0,1-80,80H0a0,0,0,0,1,0,0V80A80,80,0,0,1,80,0Z" transform="translate(-6010.64 -10062.113)"/><g transform="translate(-6024.55 -10150.986)"><g class="b" transform="translate(46.808 204.281)"><ellipse class="c" cx="21.003" cy="12.13" rx="21.003" ry="12.13" transform="translate(96.796)"/><ellipse class="d" cx="33.201" cy="19.168" rx="33.201" ry="19.168" transform="translate(180.924 18.338)"/><ellipse class="d" cx="33.201" cy="19.168" rx="33.201" ry="19.168" transform="translate(-29 20.41)"/></g><g transform="translate(216.652 66.042)"><g transform="translate(0 32.339)"><path class="e" d="M397.419,356.3l-5.815-.668-1.5-11.718,7.107,2.109Z" transform="translate(-335.728 -216.845)"/><path class="f" d="M381.346,373.913a1.753,1.753,0,0,0,.1,1.423,6.8,6.8,0,0,0,4.43,1.728,8.842,8.842,0,0,0,5.2-.911,3.638,3.638,0,0,0,1.947-2.845c.119-1.192,0-2.346.555-3.263s1.36-1.81,1.541-2.271a4.649,4.649,0,0,0,0-2.433Z" transform="translate(-332.396 -224.903)"/><path class="g" d="M387.125,360.985a4.849,4.849,0,0,1-.243,1.329,12.205,12.205,0,0,1-1.285,2.627,10.745,10.745,0,0,1-.874,1.248c-.624.755-1.423,1.379-2.1,2.1a4.305,4.305,0,0,0-1.3,2.571c-.087,1.647,2.533,2.209,3.912,2.452a10.1,10.1,0,0,0,4.468-.225,4.1,4.1,0,0,0,3.008-3.276c.081-.462.05-.93.106-1.385a6.458,6.458,0,0,1,1.279-2.883,8.543,8.543,0,0,0,.98-1.566,4.923,4.923,0,0,0-.187-3.176c-.237-.88-.524-1.872-.836-1.8,0,.456,0,.518-.306.824s-.424.98-.861,1.323a6.309,6.309,0,0,0,.306-1.173.655.655,0,0,0-.094-.462,1.248,1.248,0,0,0-.505-.275,10.41,10.41,0,0,0-2-.455,12.265,12.265,0,0,0-2.789,0,.83.83,0,0,0-.493.287,1.017,1.017,0,0,0-.175.562C387.113,359.868,387.138,360.548,387.125,360.985Z" transform="translate(-332.428 -222.407)"/><path class="h" d="M387.795,368.469c.624-.462,2.827-.468,3.575-.387a4.53,4.53,0,0,1,2.134.749.487.487,0,0,0,.624-.05h0a.462.462,0,0,0-.05-.7,4.636,4.636,0,0,0-2.4-.892,12.392,12.392,0,0,0-3.232.187S387.614,367.92,387.795,368.469Z" transform="translate(-334.851 -225.586)"/><path class="h" d="M385.55,371.242c.774-.456,3.12-.393,3.875-.312a4.262,4.262,0,0,1,2.072.792.493.493,0,0,0,.624-.05h0a.462.462,0,0,0-.05-.7,8.9,8.9,0,0,0-3.288-.961c-1.872-.131-2.327.243-2.327.243a1.554,1.554,0,0,0-.9.986Z" transform="translate(-334.017 -226.65)"/><path class="h" d="M393.067,364.345a9.085,9.085,0,0,0-3.157.193c-.324.181-.543.7-.331.83a8.875,8.875,0,0,1,2.9-.287,6.179,6.179,0,0,1,2,.549c.162.075.349.168.512.262a.43.43,0,0,0,.624-.187h0a.412.412,0,0,0-.156-.53A5.96,5.96,0,0,0,393.067,364.345Z" transform="translate(-335.5 -224.507)"/><path class="e" d="M363.748,347.556l-5.528-1.541V334.84l6.857.3Z" transform="translate(-323.74 -213.434)"/><path class="f" d="M339.44,362.606a2.04,2.04,0,0,0,.081,1.466c.206.424,2.446,1.691,5.466,1.485a12.617,12.617,0,0,0,6.24-2.184,7.172,7.172,0,0,1,3.844-.986c1.5-.081,3.457-.836,3.787-1.535a3.338,3.338,0,0,0-.05-1.9Z" transform="translate(-316.641 -222.5)"/><path class="g" d="M351.562,349.512l-.237-.05a.867.867,0,0,0-.4,0,.842.842,0,0,0-.374.25,7.407,7.407,0,0,0-.767,1.217,9.072,9.072,0,0,1-3.413,2.664c-.986.53-1.953.942-2.97,1.4a24.714,24.714,0,0,0-3.232,1.3,2.178,2.178,0,0,0,0,3.594,10.636,10.636,0,0,0,7.444.518c1.747-.5,3.694-2.365,5.99-2.546,1.46-.119,4.224-.524,5.166-1.635.349-.493-.119-2.053-.5-3.4-.418-1.473-.811-3.744-1.3-3.638a.661.661,0,0,1-.256.549,7.81,7.81,0,0,1-.624.474,3.839,3.839,0,0,0-.811,1.167.88.88,0,0,1-.412.449c-.25.087-.431-.062-.624-.162a1.248,1.248,0,0,0-.874-.062,5.879,5.879,0,0,1,.156-.867.462.462,0,0,0,0-.275.412.412,0,0,0-.187-.212A4.637,4.637,0,0,0,351.562,349.512Z" transform="translate(-316.595 -218.828)"/><path class="h" d="M352.9,354.492a1.348,1.348,0,0,1,1.079-.724,3.93,3.93,0,0,1,2.564.967.543.543,0,0,1-.075.9h0a.537.537,0,0,1-.624-.069,4.181,4.181,0,0,0-2.945-1.073Z" transform="translate(-321.739 -220.544)"/><path class="h" d="M349.59,356.391a1.566,1.566,0,0,1,1.279-.661,4.855,4.855,0,0,1,2.814,1.055.53.53,0,0,1-.075.867h0a.518.518,0,0,1-.624-.069,4.181,4.181,0,0,0-3.394-1.192Z" transform="translate(-320.494 -221.289)"/><path class="h" d="M346,358.093a1.735,1.735,0,0,1,1.323-.593,4.7,4.7,0,0,1,2.7,1.061.537.537,0,0,1-.075.874h0a.518.518,0,0,1-.624-.069A3.987,3.987,0,0,0,346,358.093Z" transform="translate(-319.144 -221.955)"/><path class="g" d="M383.833,234.647c.381,11.525.406,36.483.406,36.483.119,1.435.243,3.981.349,9.147.156,7.488.518,25.976.518,25.976s-3.575,1.678-6.864.312c0,0-4.567-25.995-5.5-33.407-.817-6.471-2.384-21.645-2.384-21.645L368.2,270.775s0,4.992-.293,9.4c-.243,3.432-3.575,21.109-3.575,21.109a11.456,11.456,0,0,1-6.608-.218s-.3-27.136-.362-30.287c-.069-3.582.855-42.305.855-42.305Z" transform="translate(-323.414 -173.436)"/><path class="i" d="M373.239,259.41l-.824-6.533a22.831,22.831,0,0,1-7.425-3.407s1.585,2.121,6.24,4.368l1.048,5.928-1.186,18.906Z" transform="translate(-326.285 -181.332)"/><path class="e" d="M337.465,184.571c-1.685,2.209-10.352,14.1-10.352,14.1l-8.006-6.2c-1.872-1.466-2.427-3.388-3.6-4.717s-2.458-1.647-3.775-2.758-1.822-1.953-2.271-1,1,2.6,1.248,3,1.747,1.354-.237,1.248-5.8-2.371-6.726-2.789-.948.724-.512,1.473.218,2.833.73,4.174,1.41,2.165,3.238,3.07c1.7.849,5.847,1.379,7.194,2.228h0c2.958,3.032,8.536,8.692,9.946,9.74,1.941,1.441,3.819,2.77,6.789-.087s11.575-14.07,11.575-14.07l1.778-10.664A7.45,7.45,0,0,0,337.465,184.571Z" transform="translate(-302.96 -155.7)"/><path class="j" d="M341.67,208.753a7.131,7.131,0,0,1,2.346,3.451,5.616,5.616,0,0,0-1.872-4.093Z" transform="translate(-317.516 -165.78)"/><path class="i" d="M361.063,180.9s-4.118-.05-5.928,1.217-3.151,3.12-6.09,7.394c-2.577,3.744-3.825,5.541-3.825,5.541a13.814,13.814,0,0,0,6.995,5.341l7.687-9.522Z" transform="translate(-318.851 -155.548)"/><path class="k" d="M373.957,180.563c2.334.225,5.616.25,7.924.487,1.6.661,4.7,3.357,4.468,5.279-.861,7.182-2.6,18.956-2.6,18.956l.574,12.479c-3.213,3.207-18.251,4.461-26-.668,0,0,.25-22.413.786-26.207.955-6.795,1.791-9.316,5.3-9.915A62.994,62.994,0,0,1,373.957,180.563Z" transform="translate(-323.777 -155.411)"/><path class="e" d="M400.337,184.861c1.685,2.209,10.358,14.1,10.358,14.1l8.012-6.2c1.872-1.473,2.427-3.394,3.6-4.717s2.458-1.647,3.775-2.758,1.822-1.953,2.271-1.011-1,2.608-1.248,3.008-1.747,1.354.237,1.248,5.8-2.377,6.726-2.8.942.724.512,1.473-.225,2.839-.73,4.181-1.41,2.159-3.238,3.07c-1.7.849-5.847,1.379-7.194,2.228h0c-2.958,3.026-8.536,8.692-9.946,9.734-1.94,1.441-3.819,2.77-6.789-.081s-9.759-11.731-9.759-11.731l-3.594-13A7.431,7.431,0,0,1,400.337,184.861Z" transform="translate(-336.942 -155.809)"/><path class="j" d="M419.746,209.039a7.132,7.132,0,0,0-2.346,3.451,5.616,5.616,0,0,1,1.872-4.1Z" transform="translate(-345.993 -165.885)"/><path class="i" d="M392.217,181.1s3.7-.231,5.647,1.248c1.753,1.348,3.12,3.12,6.09,7.394,2.577,3.744,3.825,5.541,3.825,5.541a13.852,13.852,0,0,1-7,5.341l-5.235-6.452C392.816,190.717,390.115,185.457,392.217,181.1Z" transform="translate(-336.241 -155.619)"/><path class="f" d="M375.586,149.175a7.238,7.238,0,1,1-7.3-7.176,7.238,7.238,0,0,1,7.3,7.176Z" transform="translate(-324.826 -140.92)"/><path class="f" d="M391.02,161.68a62.567,62.567,0,0,1-1.591,6.427A2.5,2.5,0,0,1,388,169.286l.044-3.881Z" transform="translate(-334.938 -148.32)"/><path class="f" d="M389.968,149.037a2.7,2.7,0,0,1,2.253.767c.973.98.462,4.075-.711,7.113l-2.209.275Z" transform="translate(-335.427 -143.558)"/><path class="e" d="M378.754,155.212c.443.262,1.067-.624,1.61-1.173a1.936,1.936,0,0,1,3.226.493c.911,1.866-.749,4.443-2.146,4.892-2.415.786-2.8-.767-2.8-.767l-.1,9h0c-2.97,3.887-11.325,3.632-7.881-.424v-2.658a15.3,15.3,0,0,1-3.257.193c-1.785-.256-2.914-1.654-3.475-3.575-.892-3.082-1.248-5.578-.562-11.674.749-6.676,8.5-6.814,12.716-4.212S378.754,155.212,378.754,155.212Z" transform="translate(-325.542 -141.571)"/><path class="f" d="M378.162,154.652c.218,0,1.055-1.41,1.6-1.916.755-.705-.281-6.988-.281-6.988a3.057,3.057,0,0,0-.562-3.4c-1.055-1.142-2.527-2.533-7.269-1.934-3.388.431-7.063,1.522-10.052.087a5.073,5.073,0,0,0,1.81,5.366,10.161,10.161,0,0,0,3.925,1,42.047,42.047,0,0,0,7.85-.218c.824-.119,1,.674,1.466,2.852C377.057,151.408,377.413,154.646,378.162,154.652Z" transform="translate(-324.944 -140.269)"/><path class="f" d="M390.264,148.446l2.664-1.46a1.472,1.472,0,0,0-2.034-.655,1.6,1.6,0,0,0-.63,2.115Z" transform="translate(-335.723 -142.481)"/><path class="j" d="M375.25,175.02a30.514,30.514,0,0,0,5.347-1.585,4.567,4.567,0,0,0,1.9-1.916,6.239,6.239,0,0,1-1.067,2.246c-1,1.31-6.171,2.309-6.171,2.309Z" transform="translate(-330.143 -152.021)"/><path class="f" d="M374.74,160.6a.8.8,0,0,0,.8.817.83.83,0,1,0-.8-.817Z" transform="translate(-329.952 -147.599)"/><path class="f" d="M377.413,156.235l-1.772-.8a1.023,1.023,0,0,0,.5,1.323.955.955,0,0,0,1.273-.518Z" transform="translate(-330.26 -145.97)"/><path class="f" d="M365.451,155.15l-1.541,1.21a.93.93,0,0,0,1.348.193,1.036,1.036,0,0,0,.193-1.4Z" transform="translate(-325.879 -145.865)"/><path class="f" d="M364.89,160.319a.761.761,0,1,0,.755-.8.774.774,0,0,0-.755.8Z" transform="translate(-326.247 -147.508)"/><path class="j" d="M369.754,159.77l-.449,4.773-2.465-.948Z" transform="translate(-326.981 -147.602)"/><path class="j" d="M373.68,169.831a.767.767,0,1,0,.767-.761.768.768,0,0,0-.767.761Z" transform="translate(-329.553 -151.099)"/></g><g transform="translate(51.98 0)"><path class="d" d="M397.893,88.678a13.035,13.035,0,0,1,3.407,1.279,9.778,9.778,0,0,1,2.708,2.153,7.718,7.718,0,0,1,1.6,2.92,6.864,6.864,0,0,1,.075,3.507,7.082,7.082,0,0,1-1.073,2.565,8.381,8.381,0,0,1-1.678,1.766,13.682,13.682,0,0,1-2,1.292l-1.984,1.048a10.875,10.875,0,0,0-1.7,1.1,3.213,3.213,0,0,0-1.061,1.416,1.479,1.479,0,0,1-.505.624.892.892,0,0,1-.761.156l-2.92-.624a1.079,1.079,0,0,1-.686-.474.886.886,0,0,1-.125-.792,6.957,6.957,0,0,1,1.248-2.5,9.822,9.822,0,0,1,1.8-1.735,14.064,14.064,0,0,1,2.053-1.248c.711-.356,1.373-.7,1.984-1.036a8.667,8.667,0,0,0,1.566-1.061,2.5,2.5,0,0,0,.83-1.373,2.976,2.976,0,0,0-.7-2.671,5.354,5.354,0,0,0-3.064-1.666,5.156,5.156,0,0,0-5.528,2.2,2.016,2.016,0,0,1-.543.543.98.98,0,0,1-.755.056l-3.12-.693a.842.842,0,0,1-.543-.362.792.792,0,0,1-.118-.668,6.1,6.1,0,0,1,1.435-2.565,9.659,9.659,0,0,1,2.677-2.072,11.5,11.5,0,0,1,3.525-1.173,10.246,10.246,0,0,1,3.962.081ZM394.6,110.854a1.017,1.017,0,0,1,.661.474,1.03,1.03,0,0,1,.144.8l-.749,3.382a1.067,1.067,0,0,1-1.248.8l-3.307-.73a1.03,1.03,0,0,1-.661-.468,1.011,1.011,0,0,1-.143-.8l.749-3.388a1.067,1.067,0,0,1,1.248-.8Z" transform="translate(-386.265 -88.442)"/><path class="l" d="M417,139.74a8.736,8.736,0,0,1,2.5-.05,6.745,6.745,0,0,1,2.29.686,5.328,5.328,0,0,1,1.76,1.448,4.679,4.679,0,0,1,.942,2.228,4.774,4.774,0,0,1,0,1.916,5.747,5.747,0,0,1-.624,1.566,9.732,9.732,0,0,1-.948,1.335l-1,1.186a8.142,8.142,0,0,0-.811,1.136,2.234,2.234,0,0,0-.312,1.179,1.029,1.029,0,0,1-.162.549.624.624,0,0,1-.443.293l-2.04.337a.767.767,0,0,1-.562-.131.624.624,0,0,1-.281-.474,4.643,4.643,0,0,1,.144-1.909,6.338,6.338,0,0,1,.705-1.579,9.688,9.688,0,0,1,.992-1.329c.368-.412.7-.8,1.011-1.173a6.1,6.1,0,0,0,.73-1.079,1.722,1.722,0,0,0,.181-1.092,2.053,2.053,0,0,0-1.136-1.535,3.656,3.656,0,0,0-2.384-.287,3.575,3.575,0,0,0-2.983,2.827,1.461,1.461,0,0,1-.212.493.693.693,0,0,1-.468.225l-2.171.356a.624.624,0,0,1-.443-.094.555.555,0,0,1-.25-.4,4.212,4.212,0,0,1,.268-2.009,6.539,6.539,0,0,1,1.186-2.015,7.98,7.98,0,0,1,1.959-1.654A7.1,7.1,0,0,1,417,139.74Zm3.563,15.094a.735.735,0,0,1,.842.605l.387,2.359a.724.724,0,0,1-.131.549.7.7,0,0,1-.474.293l-2.309.381a.718.718,0,0,1-.543-.131.7.7,0,0,1-.3-.474l-.387-2.365a.743.743,0,0,1,.624-.842Z" transform="translate(-395.562 -107.688)"/><path class="m" d="M451.544,140.139a.88.88,0,0,1,.206,1.21l-1.647,2.309a.88.88,0,0,1-1.21.206l-2.259-1.6a.842.842,0,0,1-.349-.562.874.874,0,0,1,.144-.624l1.647-2.315a.867.867,0,0,1,.562-.349.855.855,0,0,1,.624.15Zm9.534-15.655a10.345,10.345,0,0,1,2.159,2.047,8.019,8.019,0,0,1,1.354,2.5,6.334,6.334,0,0,1,.281,2.689,5.615,5.615,0,0,1-1.061,2.664,5.821,5.821,0,0,1-1.622,1.591,6.781,6.781,0,0,1-1.835.792,11.229,11.229,0,0,1-1.916.337l-1.835.156a9.868,9.868,0,0,0-1.622.287,2.671,2.671,0,0,0-1.248.736,1.316,1.316,0,0,1-.586.331.749.749,0,0,1-.624-.131l-2-1.416a.9.9,0,0,1-.362-.574.724.724,0,0,1,.156-.624,5.615,5.615,0,0,1,1.716-1.491,7.687,7.687,0,0,1,1.909-.736,11.668,11.668,0,0,1,1.947-.3c.624-.037,1.248-.087,1.822-.144a6.863,6.863,0,0,0,1.516-.306,2.015,2.015,0,0,0,1.061-.767,2.415,2.415,0,0,0,.324-2.234,4.367,4.367,0,0,0-1.772-2.228,4.223,4.223,0,0,0-4.867-.106,1.747,1.747,0,0,1-.58.237.811.811,0,0,1-.593-.2l-2.121-1.51a.718.718,0,0,1-.3-.449.661.661,0,0,1,.131-.537,4.948,4.948,0,0,1,1.872-1.479,7.918,7.918,0,0,1,2.677-.705,9.552,9.552,0,0,1,3.026.237A8.311,8.311,0,0,1,461.078,124.483Z" transform="translate(-408.831 -101.391)"/><g class="n" transform="translate(37.444 21.488)"><path class="l" d="M451.544,140.139a.88.88,0,0,1,.206,1.21l-1.647,2.309a.88.88,0,0,1-1.21.206l-2.259-1.6a.842.842,0,0,1-.349-.562.874.874,0,0,1,.144-.624l1.647-2.315a.867.867,0,0,1,.562-.349.855.855,0,0,1,.624.15Zm9.534-15.655a10.345,10.345,0,0,1,2.159,2.047,8.019,8.019,0,0,1,1.354,2.5,6.334,6.334,0,0,1,.281,2.689,5.615,5.615,0,0,1-1.061,2.664,5.821,5.821,0,0,1-1.622,1.591,6.781,6.781,0,0,1-1.835.792,11.229,11.229,0,0,1-1.916.337l-1.835.156a9.868,9.868,0,0,0-1.622.287,2.671,2.671,0,0,0-1.248.736,1.316,1.316,0,0,1-.586.331.749.749,0,0,1-.624-.131l-2-1.416a.9.9,0,0,1-.362-.574.724.724,0,0,1,.156-.624,5.615,5.615,0,0,1,1.716-1.491,7.687,7.687,0,0,1,1.909-.736,11.668,11.668,0,0,1,1.947-.3c.624-.037,1.248-.087,1.822-.144a6.863,6.863,0,0,0,1.516-.306,2.015,2.015,0,0,0,1.061-.767,2.415,2.415,0,0,0,.324-2.234,4.367,4.367,0,0,0-1.772-2.228,4.223,4.223,0,0,0-4.867-.106,1.747,1.747,0,0,1-.58.237.811.811,0,0,1-.593-.2l-2.121-1.51a.718.718,0,0,1-.3-.449.661.661,0,0,1,.131-.537,4.948,4.948,0,0,1,1.872-1.479,7.918,7.918,0,0,1,2.677-.705,9.552,9.552,0,0,1,3.026.237A8.311,8.311,0,0,1,461.078,124.483Z" transform="translate(-446.274 -122.879)"/></g></g></g><g transform="translate(4.437 67.183)"><g transform="translate(12.828 34.248)"><path class="o" d="M127.885,336.367c-.062-1.872,1.285-20.167,1.285-20.167l-8.91,6.464c1.828,10.907,2.221,13.484,2.253,15.268h0a1.654,1.654,0,0,0-.05.456c0,2.121,2.4,3.263,4.268,4.68a35.335,35.335,0,0,0,5.048,3.295c1.354.68,4.112.743,4.449-.131a64.878,64.878,0,0,1-7.382-6.308C127.985,338.975,127.954,338.226,127.885,336.367Z" transform="translate(-84.769 -209.475)"/><path class="f" d="M140.766,365.1a1.66,1.66,0,0,1-.381,1.7,7.637,7.637,0,0,1-5.666,1.348,9.944,9.944,0,0,1-5.5-2.122c-1.129-.948-2.72-2.284-4.006-2.565a7.724,7.724,0,0,1-2.858-1.173c-.381-.368-.331-2-.331-2Z" transform="translate(-85.433 -226.054)"/><path class="g" d="M123.167,350.2a.449.449,0,0,0-.431.381c-.087.449-.181,1.76-.368,2.5a13.321,13.321,0,0,0-.275,3.968c.156.842,2.09,1.423,3.332,1.872a15.692,15.692,0,0,1,4.018,2.533,11.331,11.331,0,0,0,5.971,2.228c2.184,0,4.642-.724,5.21-1.735.693-1.248.15-1.978-3.089-3.482-.624-.281-2.764-1.56-3.5-2.022a12.041,12.041,0,0,1-4.867-5.2,1.248,1.248,0,0,0-.462-.674,1.036,1.036,0,0,0-.624-.062,5.442,5.442,0,0,0-1.56.474c-.431.206-1.048.449-1.042,1a1.928,1.928,0,0,0,.125.562c.037.119.069.268,0,.337s-.218,0-.306-.087a8.231,8.231,0,0,1-.867-1.048,3.388,3.388,0,0,0-.518-.518,4.908,4.908,0,0,1-.549-.362C123.13,350.7,123.18,350.462,123.167,350.2Z" transform="translate(-85.442 -222.26)"/><path class="i" d="M132.836,366.272c-.568-.462-1.167-.917-1.766-1.317h0s3.806,2.315,5.341,1.248a1.373,1.373,0,0,0,.5-1.76c0-.262,2.421-1.391,3.382-1.5h0c.268.15.493.268.624.331,3.238,1.5,3.781,2.228,3.089,3.482-.568,1.011-2.346,1.8-5.166,1.8A11.457,11.457,0,0,1,132.836,366.272Z" transform="translate(-88.833 -227.051)"/><path class="f" d="M133.581,358.891c2.015.8,1.154,1.179.593,1.248s-3.95-1.872-6.021-3.532-3.513-3.575-4.312-4.2c-.3-.231-.624-.518-.911-.786.056-.443.1-.849.137-1.061a.449.449,0,0,1,.431-.381c0,.262-.037.505.162.7a4.918,4.918,0,0,0,.549.362,3.387,3.387,0,0,1,.518.518,8.233,8.233,0,0,0,.867,1.048A26.207,26.207,0,0,0,133.581,358.891Z" transform="translate(-85.773 -222.253)"/><path class="h" d="M140.6,364.611a.2.2,0,0,1-.125-.05.193.193,0,0,1-.031-.275,4.786,4.786,0,0,1,3.688-1.46.206.206,0,0,1,.181.225.2.2,0,0,1-.218.175,4.442,4.442,0,0,0-3.338,1.31A.206.206,0,0,1,140.6,364.611Z" transform="translate(-92.342 -227.006)"/><path class="h" d="M137.8,362.925a.193.193,0,0,1-.131-.044.206.206,0,0,1,0-.281,4.8,4.8,0,0,1,3.688-1.454.2.2,0,1,1-.044.4,4.418,4.418,0,0,0-3.338,1.31A.2.2,0,0,1,137.8,362.925Z" transform="translate(-91.293 -226.374)"/><path class="h" d="M134.98,361.235a.193.193,0,0,1-.125-.044.2.2,0,0,1,0-.281,4.8,4.8,0,0,1,3.688-1.454.2.2,0,1,1-.037.4,4.418,4.418,0,0,0-3.338,1.31.212.212,0,0,1-.187.069Z" transform="translate(-90.235 -225.739)"/><path class="h" d="M132.368,359.365a.187.187,0,0,1-.125-.325,4.786,4.786,0,0,1,3.688-1.454.2.2,0,1,1-.044.393,4.461,4.461,0,0,0-3.338,1.31.2.2,0,0,1-.181.075Z" transform="translate(-89.252 -225.035)"/><path class="h" d="M129.82,357.471a.23.23,0,0,1-.125-.044.2.2,0,0,1,0-.281,4.879,4.879,0,0,1,4.025-1.473.187.187,0,0,1,.175.218.2.2,0,0,1-.218.175,4.536,4.536,0,0,0-3.669,1.323.212.212,0,0,1-.187.081Z" transform="translate(-88.295 -224.309)"/><path class="o" d="M100.161,329.452l-8.991-.162c.131,6,1.086,12.66,1.248,18.289,0,1.061,0,8.236.374,10.42.624,3.276,4.493,2.833,4.7.874s-.25-10.339-.237-11.231c-.037-3.607,1.654-9.7,2.546-16.186C99.837,331.162,100.118,329.764,100.161,329.452Z" transform="translate(-73.83 -214.397)"/><path class="f" d="M98.852,378.173a8.979,8.979,0,0,1-.624,4.418,2.833,2.833,0,0,1-3.12,1.473c-1.329-.193-3.082-.9-3.619-2.5A10.557,10.557,0,0,1,90.965,377Z" transform="translate(-73.731 -232.338)"/><path class="g" d="M92.332,357.5c-.53.094-.431,2.683-.48,5.285-.056,2.8-.761,4.018-.83,6.308-.081,2.621.175,3.744,1.248,5.229s4.424,2.683,5.778.287c1.1-1.953.955-3.981.574-6.552s-.68-4.518-.78-6.552-.144-3.837-.624-4.006v.936c0,.281.044,1.248-.256,1.31a4.667,4.667,0,0,1-.081-.73.886.886,0,0,0-.206-.624,1.024,1.024,0,0,0-.624-.2,13.915,13.915,0,0,0-1.61-.087,4.934,4.934,0,0,0-.8.044,2.022,2.022,0,0,0-.668.168.487.487,0,0,0-.268.287.805.805,0,0,0,0,.3,2.2,2.2,0,0,1,0,.537c0,.081-.056.181-.137.168s-.094-.087-.1-.15c-.037-.312,0-.543-.037-.9v-.568C92.426,357.818,92.338,357.668,92.332,357.5Z" transform="translate(-73.769 -225.005)"/><path class="i" d="M91.037,374.842c0,.381-.081,2.883.624,3.257s.98-1.572.98-1.572a6.546,6.546,0,0,1,4.249.143c-.087.412.424,1.7,1.079,1.348s.624-3.2.624-3.238c.356,2.5.468,4.43-.624,6.327-1.354,2.4-4.717,1.186-5.778-.287s-1.317-2.608-1.248-5.229C90.975,375.329,91.019,375.086,91.037,374.842Z" transform="translate(-73.741 -231.503)"/><path class="f" d="M93.345,370.158c.081.936-.867.718-1.042-.624s.237-4.518,0-6.789c.05-2.6-.05-5.191.48-5.285a.474.474,0,0,0,0,.094l.062,1.317a4.276,4.276,0,0,0,0,.562c.175,1.909.281,5.616.287,7.375a31.444,31.444,0,0,0,.212,3.351Z" transform="translate(-74.239 -224.99)"/><path class="f" d="M100,370.173a29.815,29.815,0,0,0,.181-3.326c0-1.747.112-5.41.287-7.332a4.8,4.8,0,0,0,.081-1.079V357.5c.349.131.474,1.161.549,2.458,0,.755,0,1.691-.069,2.827-.237,2.271.175,5.491,0,6.807S99.936,371.109,100,370.173Z" transform="translate(-77.148 -225.005)"/><path class="h" d="M97.876,377.462h-.069a6.377,6.377,0,0,0-4.162,0,.2.2,0,1,1-.144-.374,6.614,6.614,0,0,1,4.449,0,.193.193,0,0,1-.075.374Z" transform="translate(-74.658 -232.226)"/><path class="h" d="M97.993,374.144a.143.143,0,0,1-.069,0,7.849,7.849,0,0,0-4.655,0,.2.2,0,0,1-.256-.125.193.193,0,0,1,.125-.25,8.112,8.112,0,0,1,4.923,0,.2.2,0,0,1-.069.387Z" transform="translate(-74.519 -230.979)"/><path class="h" d="M93.181,370.946a.206.206,0,0,1-.181-.119.2.2,0,0,1,.1-.262,6.82,6.82,0,0,1,4.911-.031.193.193,0,0,1,.112.256.2.2,0,0,1-.256.112,6.661,6.661,0,0,0-4.6,0,.218.218,0,0,1-.087.044Z" transform="translate(-74.511 -229.74)"/><path class="h" d="M93.11,367.959a.2.2,0,0,1-.087-.374,6.171,6.171,0,0,1,4.992-.056.2.2,0,1,1-.168.356,5.928,5.928,0,0,0-4.667.056.218.218,0,0,1-.069.019Z" transform="translate(-74.485 -228.589)"/><path class="h" d="M93.038,364.68a.2.2,0,0,1-.087-.381,6.44,6.44,0,0,1,5.048,0,.187.187,0,0,1,.1.262.2.2,0,0,1-.262.1,6.18,6.18,0,0,0-4.7,0A.175.175,0,0,1,93.038,364.68Z" transform="translate(-74.456 -227.362)"/><path class="g" d="M93.923,236c-3.17,8.779-2.614,14.289-2.072,23.492.5,8.436,1.292,15.867,1.292,15.867-.125,1.5-2.209,4.418-2.5,11.032a108.351,108.351,0,0,0,.624,13.946s4.149,1.516,7.656,0c0,0,3.588-15.843,4.567-23.586.849-6.758,2.334-15.393,2.334-15.393l3.12,15.362a22.7,22.7,0,0,0-.93,6.358c0,3.613,1.678,13.659,1.678,13.659s4.649,1.5,7.594-1.111c0,0,1.167-14.457,1.579-19.967.549-7.35-.25-27.5-2.015-37.812Z" transform="translate(-73.625 -179.317)"/><path class="i" d="M115.05,267.677l1.3-11.556s5.809-.774,8.442-3.251a9.528,9.528,0,0,1-6.864,4.324l-1.872,10.757,2.121,15.088Z" transform="translate(-82.809 -185.661)"/><path class="o" d="M131.553,208.3c-2.827-2.908-7.931-9.484-7.931-9.484l-2.883-9.983a18.648,18.648,0,0,0,1.934,0c3.12.206,4.037.474,5.978,2.6,1.541,1.691,7.419,9.715,9.459,12.417l5.422-6.907c1.3-1.965,1.092-4.168,1.766-5.772s1.766-2.309,2.639-3.744,1.079-2.4,1.8-1.653-.112,2.739-.218,3.195-1.2,1.81.624,1.1,4.649-4.043,5.372-4.723,1.111.374.948,1.21.624,2.72.337,4.1a5.616,5.616,0,0,1-1.934,3.563c-1.317,1.323-4.536,2.951-5.8,4.692s-3.95,7.151-5.616,10.408c-2.09,4.143-3.869,5.51-6.24,4.112S132.6,209.384,131.553,208.3Z" transform="translate(-84.949 -160.189)"/><path class="i" d="M121.691,190.869a10.345,10.345,0,0,1,4.7.624c1.691.761,2.839,2.4,4.493,4.611s4.6,6.09,4.6,6.09-.8,3.363-6.065,6.383l-8.6-8.854Z" transform="translate(-84.983 -162.327)"/><path class="p" d="M147.344,214.748a6.589,6.589,0,0,0-1.965,3.638s-.624-2,1.5-4.255Z" transform="translate(-94.182 -171.094)"/><path class="q" d="M117.1,208.623c3.837-3.157,2.571-7.269,1.173-10.04-2.8-5.535-5.716-7.712-6.932-7.694l-7.631.075c-3.644.5-6.464.25-7.344.455-2.246.53-2.3,2.377-2.384,4.767-.094,2.621-1.435,2.178-.755,6.508a44.692,44.692,0,0,1,2.109,4.961c.412,1.5,1.572,3.881.955,6.3-.237.936-.874,1.872-1.828,4.436a48.313,48.313,0,0,0-2.4,8.9,10.712,10.712,0,0,0,4.761-3.213s3.463,4.636,11.793,4.168c8.642-.487,9.4-4.992,9.4-4.992l-1.323-8.112C116.894,211.868,116.981,210.682,117.1,208.623Z" transform="translate(-74.164 -162.354)"/><path class="r" d="M117.557,216.15a7.832,7.832,0,0,1-6.783,1.3,6.24,6.24,0,0,1-4.237-4.368,5.48,5.48,0,0,0,4.293,5.485A5.99,5.99,0,0,0,117.557,216.15Z" transform="translate(-79.607 -170.699)"/><path class="i" d="M86.106,185.145c-1.129-.824-7.213,7.319-4.368,9.36s5.878-3.744,5.266-6.477S86.106,185.145,86.106,185.145Z" transform="translate(-70.001 -160.172)"/><path class="o" d="M73.962,166.087c1.522-2.109,2.558-3.7,3.95-5.51.786-1.03,1.292-1.76,2.047-2.814.524-.724.83-1.335,1.416-1.566a4.992,4.992,0,0,0,1.716-1.248,10.167,10.167,0,0,0,.8-1.067,15.6,15.6,0,0,1,3.12-3.22c1.248-.967,2.614-1.716,3.887-2.639.755-.549,1.566-1.454.624-2.271a2.24,2.24,0,0,0-1.011-.462c-2.271-.456-4.237.362-6.446.967a19.274,19.274,0,0,0-2.808,1,4.824,4.824,0,0,0-1.248.743,6.446,6.446,0,0,0-1.248,1.872c-.967,1.778-3.008,3.363-4.436,4.755-1.678,1.635-3.176,3.12-5.092,4.936-1.722,1.622-3.413,3.12-4.992,4.892a2.5,2.5,0,0,0-.624,2.964c1.123,2.209,2.346,2.989,3.819,4.368.487.449.98.892,1.473,1.335,1.909,1.722,3.819,3.332,5.8,4.992,2.121,1.747,3,2.6,4.886,4.293a14.033,14.033,0,0,1,2.939,3.825c3.276.543,6.5-4.468,3.688-10.327A6.127,6.127,0,0,0,84.2,173.55C80.745,171.085,73.962,166.087,73.962,166.087Z" transform="translate(-63.38 -145.158)"/><path class="p" d="M77.956,178.7A8.623,8.623,0,0,1,74,181.514s2.09.5,4.9-2.115Z" transform="translate(-67.373 -157.771)"/><path class="g" d="M92.931,189.223c-.767-.53-2.633-1.66-6.358-4.043,0,0,.574,1.2-.331,4.23s-2.814,4.942-4.012,5.16c0,0,2.084,1.647,4.006,3.507s3.5,3.176,4.611,5.335c0,0,2.745-.705,3.369-5.36C94.653,194.789,94.391,190.958,92.931,189.223Z" transform="translate(-70.468 -160.207)"/><path class="f" d="M118.265,160.258a7.488,7.488,0,0,0-.505-7.307c-2.365-3.363-6.352-4.992-10.757-4.942h-1.366c-5.946.1-11.35,5.2-11.456,10.951h0c0,4.043,0,7.781,2.228,10.539,2.053,2.564,5.254,3.407,7.956,3.819,5.166.786,10.969.187,13.315-3.332,0,0-3.12.624-2.727-2.608.056-.512-.431-1.073-1.285-1.654a17.328,17.328,0,0,1,2.1-2.9C116.649,161.943,117.666,161.45,118.265,160.258Z" transform="translate(-74.962 -146.23)"/><path class="o" d="M118.481,167.312c-.031,6.021-1.959,7.538-2.926,7.987s-2.864.212-4.7-.056l.062,3.613s2.153,2.178,2.028,3.837-3.295,1.872-5.7.318a17.821,17.821,0,0,1-3.569-3.12,1.31,1.31,0,0,1-.318-.83l-.15-8.492s-.986,1.079-2.783-.106a3.282,3.282,0,0,1-.93-4.748,2.421,2.421,0,0,1,3.694.381c.549,1.023.5,1.747,1.248,1.629s.78-.93.83-1.51,0-.767.075-1.529c1.778-.381,3.619-2.858,3.825-4.667a8.518,8.518,0,0,0,3.875.874c1.99-.137,3.02-.537,4-1.972a4.368,4.368,0,0,1,.555,1.067,13.876,13.876,0,0,1,.624,2.365,30.461,30.461,0,0,1,.262,4.961Z" transform="translate(-76.719 -150.333)"/><path class="p" d="M114.109,183.358c-1.941-.225-5.94-1.3-6.589-2.858a4.081,4.081,0,0,0,1.429,1.984c1.211,1,5.179,2.078,5.179,2.078Z" transform="translate(-79.978 -158.448)"/><path class="e" d="M120.255,179.414a.792.792,0,1,1-.8-.774.792.792,0,0,1,.8.774Z" transform="translate(-84.171 -157.748)"/><path class="f" d="M118.543,169.9a.842.842,0,0,1-.767.917.861.861,0,1,1,.767-.917Z" transform="translate(-83.476 -154.16)"/><path class="f" d="M127.688,169.366a.774.774,0,0,1-.705.83.718.718,0,0,1-.8-.73.761.761,0,0,1,.7-.836A.78.78,0,0,1,127.688,169.366Z" transform="translate(-86.992 -153.984)"/><path class="p" d="M122.37,168.56l.6,5.029,2.577-1.073Z" transform="translate(-85.562 -153.958)"/><path class="f" d="M114.76,166.043l1.5-1.423a1.086,1.086,0,0,1-.044,1.5,1,1,0,0,1-1.454-.075Z" transform="translate(-82.7 -152.476)"/><path class="f" d="M126.655,163.88l1.66,1.248a1,1,0,0,1-1.435.231A1.1,1.1,0,0,1,126.655,163.88Z" transform="translate(-87.102 -152.198)"/></g><g transform="translate(0 0)"><path class="s" d="M83.323,90.495a12.686,12.686,0,0,1,3.631-.162,9.722,9.722,0,0,1,3.338.911A7.681,7.681,0,0,1,92.9,93.278a6.864,6.864,0,0,1,1.448,3.188,6.969,6.969,0,0,1,0,2.783,8.211,8.211,0,0,1-.849,2.284,13.3,13.3,0,0,1-1.329,1.972c-.5.624-.973,1.2-1.416,1.753a11.232,11.232,0,0,0-1.123,1.672,3.226,3.226,0,0,0-.418,1.722,1.572,1.572,0,0,1-.206.8.9.9,0,0,1-.624.443l-2.939.555a1.061,1.061,0,0,1-.811-.168.861.861,0,0,1-.431-.68,6.864,6.864,0,0,1,.137-2.77,9.7,9.7,0,0,1,.967-2.3,13.727,13.727,0,0,1,1.391-1.947c.518-.624.986-1.186,1.416-1.735a9.042,9.042,0,0,0,1.023-1.591,2.5,2.5,0,0,0,.218-1.585,2.958,2.958,0,0,0-1.691-2.184,5.354,5.354,0,0,0-3.469-.331,5.182,5.182,0,0,0-4.212,4.206,2.265,2.265,0,0,1-.287.711,1.023,1.023,0,0,1-.68.349l-3.12.593a.892.892,0,0,1-.624-.119.842.842,0,0,1-.368-.574,6.115,6.115,0,0,1,.312-2.92,9.646,9.646,0,0,1,1.6-2.976,11.762,11.762,0,0,1,2.783-2.5,10.346,10.346,0,0,1,3.725-1.435Zm5.7,21.683a1.086,1.086,0,0,1,1.248.849l.624,3.407a1,1,0,0,1-.168.792,1.042,1.042,0,0,1-.674.449l-3.326.624a1.017,1.017,0,0,1-.8-.168,1.042,1.042,0,0,1-.449-.674l-.624-3.407a1.03,1.03,0,0,1,.175-.792,1,1,0,0,1,.674-.449Z" transform="translate(-54.865 -90.27)"/><path class="m" d="M132.7,112.6a8.679,8.679,0,0,1,2,1.522,6.545,6.545,0,0,1,1.366,1.959,5.36,5.36,0,0,1,.48,2.228,4.692,4.692,0,0,1-.624,2.334,4.992,4.992,0,0,1-1.217,1.485,5.822,5.822,0,0,1-1.466.83,9.36,9.36,0,0,1-1.579.462l-1.522.3a7.233,7.233,0,0,0-1.335.393,2.2,2.2,0,0,0-.98.724,1.061,1.061,0,0,1-.468.331.624.624,0,0,1-.53-.044l-1.8-1.011a.755.755,0,0,1-.362-.449.624.624,0,0,1,.075-.549,4.717,4.717,0,0,1,1.3-1.4,6.676,6.676,0,0,1,1.535-.8,9.981,9.981,0,0,1,1.6-.424c.543-.094,1.048-.187,1.522-.287a6.608,6.608,0,0,0,1.248-.393,1.772,1.772,0,0,0,.824-.743,2.059,2.059,0,0,0,.062-1.909,3.681,3.681,0,0,0-1.691-1.71,3.575,3.575,0,0,0-4.093.362,1.473,1.473,0,0,1-.468.256.705.705,0,0,1-.512-.112l-1.922-1.073a.624.624,0,0,1-.287-.349.574.574,0,0,1,.056-.468,4.262,4.262,0,0,1,1.454-1.41,6.626,6.626,0,0,1,2.184-.836,7.956,7.956,0,0,1,2.565-.081A7.144,7.144,0,0,1,132.7,112.6ZM126.121,126.6a.73.73,0,0,1,.349.443.711.711,0,0,1-.062.555l-1.167,2.09a.736.736,0,0,1-1,.287l-2.04-1.142a.668.668,0,0,1-.343-.443.693.693,0,0,1,.056-.555l1.167-2.09a.724.724,0,0,1,.443-.343.686.686,0,0,1,.555.062Z" transform="translate(-72.529 -98.314)"/><g class="t" transform="translate(49.297 13.348)"><path class="u" d="M132.7,112.6a8.679,8.679,0,0,1,2,1.522,6.545,6.545,0,0,1,1.366,1.959,5.36,5.36,0,0,1,.48,2.228,4.692,4.692,0,0,1-.624,2.334,4.992,4.992,0,0,1-1.217,1.485,5.822,5.822,0,0,1-1.466.83,9.36,9.36,0,0,1-1.579.462l-1.522.3a7.233,7.233,0,0,0-1.335.393,2.2,2.2,0,0,0-.98.724,1.061,1.061,0,0,1-.468.331.624.624,0,0,1-.53-.044l-1.8-1.011a.755.755,0,0,1-.362-.449.624.624,0,0,1,.075-.549,4.717,4.717,0,0,1,1.3-1.4,6.676,6.676,0,0,1,1.535-.8,9.981,9.981,0,0,1,1.6-.424c.543-.094,1.048-.187,1.522-.287a6.608,6.608,0,0,0,1.248-.393,1.772,1.772,0,0,0,.824-.743,2.059,2.059,0,0,0,.062-1.909,3.681,3.681,0,0,0-1.691-1.71,3.575,3.575,0,0,0-4.093.362,1.473,1.473,0,0,1-.468.256.705.705,0,0,1-.512-.112l-1.922-1.073a.624.624,0,0,1-.287-.349.574.574,0,0,1,.056-.468,4.262,4.262,0,0,1,1.454-1.41,6.626,6.626,0,0,1,2.184-.836,7.956,7.956,0,0,1,2.565-.081A7.144,7.144,0,0,1,132.7,112.6ZM126.121,126.6a.73.73,0,0,1,.349.443.711.711,0,0,1-.062.555l-1.167,2.09a.736.736,0,0,1-1,.287l-2.04-1.142a.668.668,0,0,1-.343-.443.693.693,0,0,1,.056-.555l1.167-2.09a.724.724,0,0,1,.443-.343.686.686,0,0,1,.555.062Z" transform="translate(-121.826 -111.662)"/></g><path class="m" d="M59.037,140.764a.849.849,0,0,1,.624-.231.874.874,0,0,1,.624.275l1.922,2.084a.88.88,0,0,1-.05,1.248l-2.034,1.872a.88.88,0,0,1-1.248-.05l-1.922-2.084A.874.874,0,0,1,57,142.63ZM45.684,128.191a10.439,10.439,0,0,1,2.446-1.7,8.03,8.03,0,0,1,2.708-.811,6.433,6.433,0,0,1,2.689.275,5.616,5.616,0,0,1,2.39,1.591,5.753,5.753,0,0,1,1.248,1.916,6.764,6.764,0,0,1,.4,1.953,11.232,11.232,0,0,1-.062,1.947c-.081.624-.156,1.248-.225,1.828a9.247,9.247,0,0,0-.056,1.647,2.621,2.621,0,0,0,.462,1.379,1.248,1.248,0,0,1,.2.624.718.718,0,0,1-.25.58l-1.8,1.666a.892.892,0,0,1-.624.231.711.711,0,0,1-.593-.281,5.722,5.722,0,0,1-1.111-1.984,7.85,7.85,0,0,1-.324-2.015,11.437,11.437,0,0,1,.112-1.972c.094-.624.168-1.248.231-1.81a7.22,7.22,0,0,0,0-1.554,2.028,2.028,0,0,0-.53-1.192,2.427,2.427,0,0,0-2.121-.78,4.412,4.412,0,0,0-2.546,1.248,4.256,4.256,0,0,0-1.1,4.748,1.8,1.8,0,0,1,.112.624.8.8,0,0,1-.318.53L45.1,138.649a.711.711,0,0,1-.5.2.668.668,0,0,1-.5-.237,4.929,4.929,0,0,1-1.079-2.14,7.824,7.824,0,0,1-.144-2.764,9.459,9.459,0,0,1,.861-2.914,8.374,8.374,0,0,1,1.941-2.6Z" transform="translate(-42.821 -103.57)"/><g class="n" transform="translate(0 22.068)"><path class="v" d="M59.037,140.764a.849.849,0,0,1,.624-.231.874.874,0,0,1,.624.275l1.922,2.084a.88.88,0,0,1-.05,1.248l-2.034,1.872a.88.88,0,0,1-1.248-.05l-1.922-2.084A.874.874,0,0,1,57,142.63ZM45.684,128.191a10.439,10.439,0,0,1,2.446-1.7,8.03,8.03,0,0,1,2.708-.811,6.433,6.433,0,0,1,2.689.275,5.616,5.616,0,0,1,2.39,1.591,5.753,5.753,0,0,1,1.248,1.916,6.764,6.764,0,0,1,.4,1.953,11.232,11.232,0,0,1-.062,1.947c-.081.624-.156,1.248-.225,1.828a9.247,9.247,0,0,0-.056,1.647,2.621,2.621,0,0,0,.462,1.379,1.248,1.248,0,0,1,.2.624.718.718,0,0,1-.25.58l-1.8,1.666a.892.892,0,0,1-.624.231.711.711,0,0,1-.593-.281,5.722,5.722,0,0,1-1.111-1.984,7.85,7.85,0,0,1-.324-2.015,11.437,11.437,0,0,1,.112-1.972c.094-.624.168-1.248.231-1.81a7.22,7.22,0,0,0,0-1.554,2.028,2.028,0,0,0-.53-1.192,2.427,2.427,0,0,0-2.121-.78,4.412,4.412,0,0,0-2.546,1.248,4.256,4.256,0,0,0-1.1,4.748,1.8,1.8,0,0,1,.112.624.8.8,0,0,1-.318.53L45.1,138.649a.711.711,0,0,1-.5.2.668.668,0,0,1-.5-.237,4.929,4.929,0,0,1-1.079-2.14,7.824,7.824,0,0,1-.144-2.764,9.459,9.459,0,0,1,.861-2.914,8.374,8.374,0,0,1,1.941-2.6Z" transform="translate(-42.821 -125.638)"/></g></g></g><g transform="translate(128.64 28.873)"><path class="m" d="M253.477,214.787c-1.778-1.017-9.266-5.347-11.812-6.82-.505-.287-.824-.474-.849-.493a5.978,5.978,0,0,0-4.162-.624,10.85,10.85,0,0,0-3.444,1.342c-.175.1-.349.218-.518.331a21.76,21.76,0,0,0-7.406,8.6,26.674,26.674,0,0,0-3.276,12.479q0,6.2,3.307,8.7a6.673,6.673,0,0,0,.7.455c2.065,1.173,12.423,7.176,12.654,7.307h.056a5.819,5.819,0,0,1-.73-.474q-3.313-2.5-3.307-8.7a26.675,26.675,0,0,1,3.276-12.479q3.263-6.24,7.918-8.941,4.43-2.558,7.65-.668Z" transform="translate(-203.508 -95.748)"/><path class="w" d="M255.785,214.812q-3.22-1.872-7.65.661a20.593,20.593,0,0,0-7.456,8.112L228,216.241a20.987,20.987,0,0,1,6.939-7.756c.168-.106.343-.231.518-.331a10.683,10.683,0,0,1,3.444-1.335,5.94,5.94,0,0,1,4.162.624l.849.493c2.546,1.466,10.033,5.8,11.812,6.814Z" transform="translate(-205.761 -95.736)"/><path class="x" d="M238.726,251.8h-.056c-.231-.131-10.607-6.134-12.654-7.307a6.673,6.673,0,0,1-.7-.455q-3.307-2.5-3.307-8.7a26.637,26.637,0,0,1,3.276-12.479c.15-.293.306-.58.468-.855l12.673,7.319c-.156.275-.312.562-.462.849a26.674,26.674,0,0,0-3.276,12.479q0,6.2,3.307,8.7A5.823,5.823,0,0,0,238.726,251.8Z" transform="translate(-203.508 -101.499)"/><path class="m" d="M236.8,40.847q9.229-5.335,15.711-4.536a13.1,13.1,0,0,1,4.992,1.66,1.316,1.316,0,0,1-.125-.075c-1.485-.836-10.433-6-12.479-7.2a13.047,13.047,0,0,0-5.092-1.7q-6.489-.792-15.718,4.53Q209.737,41.808,201,57.863a67.031,67.031,0,0,0-8.642,32.777l12.673,7.319a66.483,66.483,0,0,1,8.642-32.783Q222.447,49.127,236.8,40.847Z" transform="translate(-192.358 -28.882)"/><path class="y" d="M262.186,37.894a13.359,13.359,0,0,0-4.892-1.591q-6.477-.8-15.712,4.536Q227.231,49.113,218.5,65.174c-.243.443-.48.892-.711,1.335l-12.7-7.332c.231-.443.468-.892.711-1.335q8.773-16.042,23.087-24.335,9.241-5.329,15.718-4.53a13.054,13.054,0,0,1,5.092,1.7C251.753,31.9,260.7,37.064,262.186,37.894Z" transform="translate(-197.142 -28.873)"/><path class="x" d="M212.972,84.759a66,66,0,0,0-7.931,31.442l-12.673-7.319A66.073,66.073,0,0,1,200.3,77.44Z" transform="translate(-192.362 -47.136)"/><path class="m" d="M257.725,80.893q-3.451-1.834-9.216,1.435a22.974,22.974,0,0,1-1.4,6.689q-1.441,3.881-8.386,16.011a106.679,106.679,0,0,0-10.408,23.954,84.947,84.947,0,0,0-3.207,23.087l.062,3.887,8.648,4.992,4.031,2.327-.069-3.894v-.05a85.24,85.24,0,0,1,3.207-23.012A106.409,106.409,0,0,1,251.4,112.372q6.939-12.13,8.38-16.017a22.787,22.787,0,0,0,1.448-8.012Q261.232,82.758,257.725,80.893Z" transform="translate(-204.674 -48.186)"/><path class="x" d="M258.542,106.183q-2.146,4.468-7.138,13.191a106.15,106.15,0,0,0-10.414,23.954,85.2,85.2,0,0,0-3.207,23.031v.1l.069,3.894-4.031-2.321-8.648-4.992-.062-3.894a84.985,84.985,0,0,1,3.207-23.087A106.677,106.677,0,0,1,238.725,112.1q4.992-8.736,7.151-13.184Z" transform="translate(-204.674 -55.213)"/><path class="w" d="M273.746,88.343A22.787,22.787,0,0,1,272.3,96.33q-.4,1.1-1.248,2.827L258.39,91.843q.83-1.735,1.248-2.827a22.975,22.975,0,0,0,1.4-6.689q5.765-3.27,9.216-1.435T273.746,88.343Z" transform="translate(-217.188 -48.186)"/><path class="m" d="M229.832,92.433l-17.153,9.909a66.483,66.483,0,0,1,8.642-32.783q8.773-16.048,23.087-24.335,9.228-5.335,15.711-4.536T270.5,47.794q3.9,6.308,3.9,15.736a50.866,50.866,0,0,1-1.248,10.845,81.637,81.637,0,0,1-3.925,12.479,153.682,153.682,0,0,1-7.531,14.651,142.106,142.106,0,0,0-7.138,13.858,49.586,49.586,0,0,0-2.365,8.966,94.05,94.05,0,0,0-1.248,13.815L233.2,148.39l-.069-3.894a84.984,84.984,0,0,1,3.207-23.087,106.409,106.409,0,0,1,10.414-23.948q6.939-12.13,8.38-16.017a22.787,22.787,0,0,0,1.423-8.012q0-5.616-3.5-7.45t-9.4,1.535a26.548,26.548,0,0,0-9.89,10.445A29.951,29.951,0,0,0,229.832,92.433Z" transform="translate(-199.999 -33.277)"/><path class="m" d="M253.47,219.942q4.773-2.764,8.149-.343t3.376,8.617a26.768,26.768,0,0,1-3.338,12.536q-3.332,6.333-8.055,9.06t-8.024.225q-3.307-2.5-3.307-8.7a26.675,26.675,0,0,1,3.276-12.479Q248.822,222.625,253.47,219.942Z" transform="translate(-211.127 -100.167)"/></g></g></g></svg>