<svg xmlns="http://www.w3.org/2000/svg" width="295" height="248.598" viewBox="0 0 295 248.598"><defs><style>.a{fill:#2df0da;}.b{opacity:0.1;}.c{fill:#b16668;}.d{fill:#455a64;}.e{fill:#37474f;}.f{fill:#263238;}.g{fill:#35a3be;}.h{fill:#9a4a4d;}.i{fill:#45c6e5;}.j{fill:#ffa8a7;}.k,.m,.q,.u{fill:#fff;}.k,.n,.t{opacity:0.2;}.l,.w{fill:#1d7e96;}.m,.w{opacity:0.3;}.o{fill:#ffbf76;}.p{fill:#a9f73f;}.q,.v{opacity:0.5;}.r{fill:#f28f8f;}.s{fill:#ff8900;}.x{fill:#fafafa;}</style></defs><g transform="translate(6011 10583)"><path class="a" d="M80,0H295a0,0,0,0,1,0,0V120a80,80,0,0,1-80,80H0a0,0,0,0,1,0,0V80A80,80,0,0,1,80,0Z" transform="translate(-6011 -10534.402)"/><g transform="translate(-6018.479 -10639.097)"><g transform="translate(118.157 246.677)"><ellipse class="b" cx="47.271" cy="27.292" rx="47.271" ry="27.292"/></g><g transform="translate(128.2 62.005)"><g transform="translate(0)"><g transform="translate(0 93.818)"><path class="c" d="M235.125,234.26l3.514,39.97a56.188,56.188,0,0,0-10.3,12.187c-2.788,4.787-12.063,22.394-13.659,25.455a39.317,39.317,0,0,1-2.843,4.482c-.59.813-1.409,1.2-1.645,2.161-1.043,4.247,1.726,11.119,4.346,14.683a9.574,9.574,0,0,0,2.583,2.483,5.525,5.525,0,0,0,3.477.869,2.272,2.272,0,0,0,1.825-1.037,2.75,2.75,0,0,0,.13-1.571,49.052,49.052,0,0,1-.621-5.855c0-4.16,2.589-8.17,5.345-11.262,3.644-4.085,27.081-32.545,28.441-34.513,2.03-2.949,4.278-5.426,4.923-15.434.528-8.2.677-24.076.279-32.6Z" transform="translate(-204.974 -234.26)"/><path class="d" d="M243.428,234.26H222.711l14.037,41.317s-4.594,6.668-9.232,15.291S217.93,310.4,217.93,310.4c3.353,6.072,11.175,8.282,11.175,8.282,2.322-2.483,24.623-27.69,29.8-34.978,7.45-10.43,7.053-14.559,7.332-27.783.223-10.734.056-17.905-.087-21.661Z" transform="translate(-207.993 -234.26)"/><path class="e" d="M219.88,348.77c1.173,2.806,8.692,9.971,12.373,9.493l-4.346,4.923c-3.353,0-9.033-5.023-10.778-8.6Z" transform="translate(-207.69 -277.677)"/><path class="e" d="M268.459,234.26H232.45l1.577,2.055,8.257,39.262s-3.855,5.588-8.071,13.174c.621,1.863,1.291,4.06,1.329,4.216a48.867,48.867,0,0,0,1.918,22.586c.056-.068.124-.13.18-.192,5.271-5.935,15.887-18.048,22.406-26-.031-2.372-.13-6.724-.4-10.337-.335-4.433-2.024-25.79-2.024-25.79a18.458,18.458,0,0,0,5.277-4.278,11.709,11.709,0,0,0,2.589-4.861A22.915,22.915,0,0,0,268.459,234.26Z" transform="translate(-213.499 -234.26)"/><path class="f" d="M203.331,374.3c-.584-.174-1.242,1.863-1.391,2.521s.813,3.5,1.5,4.967a23.375,23.375,0,0,1,2.4,5.737c.422,2.179,0,6.208,1.62,9.313s6,6.618,12.131,7a8.22,8.22,0,0,0,4.725-1.161,2.732,2.732,0,0,0,.969-2.074Z" transform="translate(-201.925 -287.354)"/><path class="e" d="M207.748,385.181a15.426,15.426,0,0,0-1.968-6.01c-1.155-2.365-3.011-5.476-2.657-8.1a8.888,8.888,0,0,1,3.557-3.967c1.931-1.285,2.359-3.017,3.415-2.626l-.478.664a29.667,29.667,0,0,0,2.26,3.837,2.179,2.179,0,0,1,.317,1.863,5.991,5.991,0,0,0,.106,3.253,10.554,10.554,0,0,1,.726-1.943,2.067,2.067,0,0,1,1.447-1.18c1.242-.372,2.918.441,3.787.875,1.322.664,2.906,1.242,3.464,2.328.472.919-.453,2.167-.882,2.937-1.186,2.142-.459,4.749.174,6.947.677,2.353,1.813,5.693,3.322,7.655s2.707,2.968,1.391,5.153a4.253,4.253,0,0,1-1.962,1.521,6.649,6.649,0,0,1-2.446.472,14.279,14.279,0,0,1-9.518-3.216,11.237,11.237,0,0,1-2.825-3.98C208.164,389.968,208,387.931,207.748,385.181Z" transform="translate(-202.363 -283.611)"/><path class="d" d="M226.855,404.338a13.518,13.518,0,0,0,1.335,2.247c1.534,1.993,2.707,2.968,1.391,5.153a4.253,4.253,0,0,1-1.962,1.521,6.649,6.649,0,0,1-2.446.472,14.279,14.279,0,0,1-9.518-3.216,10.071,10.071,0,0,1-2.415-3.179C213.252,404.778,221.236,402.363,226.855,404.338Z" transform="translate(-206.215 -298.471)"/><path class="c" d="M243.007,322.846c-.137,1.956-1.614,10.244.435,17.477,3.235,11.417,5.55,23.76,6.879,29.993s2.086,9.2,2.372,10.89c.062.435.037,2.192.062,2.651a21.638,21.638,0,0,1-.081,3.172,10.178,10.178,0,0,0-.1,1.627c.124,2.1,1.863,3.508,3.651,4.284l2.856,1.242a15.143,15.143,0,0,1,3.973,2.229c.677.621,1.242,1.31,1.863,1.962a15.875,15.875,0,0,0,11.374,4.9,9.98,9.98,0,0,0,7.289-2.694,2.806,2.806,0,0,0,.832-1.49,2.359,2.359,0,0,0-.745-1.906,7.7,7.7,0,0,0-1.745-1.2c-1.465-.838-2.893-1.751-4.271-2.732-.689-.49-1.366-.993-2.024-1.521a80.585,80.585,0,0,1-6.829-6.612,18.5,18.5,0,0,1-4.017-10.256c-.49-4.247-.671-7.618-1.018-11.5q-.7-7.841-1.36-15.695-.689-8.071-1.36-16.1c-.354-4.278-1.664-7.972-2.024-12.249" transform="translate(-217.258 -266.511)"/><path class="c" d="M229.758,234.26a136.722,136.722,0,0,0-1.285,13.758c-.4,14.236,10.269,40.976,10.269,40.976l16.291-1.316a281.336,281.336,0,0,0-3.824-36.518,25.678,25.678,0,0,0,8.543-6.134,27.41,27.41,0,0,0,6.544-10.753Z" transform="translate(-211.987 -234.26)"/><path class="d" d="M267.044,234.26H225.268c-.279,2.483-.522,4.725-.584,7.047a76.362,76.362,0,0,0,1.682,17.191c1.242,6.289,7.14,31.961,7.624,34.184-.118,6.364,0,12.417,1.67,19.116,3.675,14.7,7.879,28.41,7.879,28.41s9.493,0,14.534-2.576c0,0-2.117-39.4-1.993-49.19.112-8.506-3.862-36.63-3.862-36.63S264.338,247.521,267.044,234.26Z" transform="translate(-210.551 -234.26)"/><path class="e" d="M253.65,399.389c2.992,1.136,12.963,0,15.18-3l.553,6.469c-2.359,2.452-9.865,4.023-13.851,2.757Z" transform="translate(-221.537 -295.732)"/><path class="f" d="M258.5,434.77a3.169,3.169,0,0,0,.248,2.241c.373.646,1.447,1.285,3.1,2.08s3.93,1.149,5.588,3.154c1.167,1.422,3.458,4.569,7.028,6.109a15.562,15.562,0,0,0,12.274.261c4.073-1.813,4.278-3.644,4.048-5.2Z" transform="translate(-223.332 -310.284)"/><path class="e" d="M274.257,420.571a4.414,4.414,0,0,0,1.111,1.95,31.786,31.786,0,0,0,5.768,5.234,58.465,58.465,0,0,0,6.569,4.377c1.863,1.086,3.166,2.316,3.2,3.477.118,3.6-4.129,5.712-8.692,6.128a14.733,14.733,0,0,1-7.866-1.459,14.976,14.976,0,0,1-3.837-2.993c-2.316-2.483-2.85-3.849-5.432-5.029-2.192-1-4.532-1.018-6.829-3.725-.969-1.863-.261-4.122-.18-6.159a21.215,21.215,0,0,0-.279-2.732,1.1,1.1,0,0,1,.733-1.242c.037.174.161.875.161.875a3.532,3.532,0,0,0,1.645,1.136c1.142.422,2.092-.168,2.906.664a6.829,6.829,0,0,1,.851,1.3,6.737,6.737,0,0,0,1.347,1.689,10.734,10.734,0,0,1-.515-1.825c-.1-1.006-.248-1.676.261-2.092a12.931,12.931,0,0,1,2.434-1.341,16.525,16.525,0,0,1,3.781-1.242,2.038,2.038,0,0,1,2.316.453,5.571,5.571,0,0,1,.571,2.483A.363.363,0,0,0,274.257,420.571Z" transform="translate(-223.09 -303.703)"/><path class="d" d="M294.534,438.47c.9.577,1.807,1.136,2.676,1.645,1.863,1.086,3.166,2.316,3.2,3.477.118,3.6-4.129,5.712-8.692,6.128a14.733,14.733,0,0,1-7.866-1.459,8.531,8.531,0,0,1-.969-.565C282.384,445.138,287,438.979,294.534,438.47Z" transform="translate(-232.608 -311.687)"/></g><g transform="translate(6.448)"><path class="c" d="M322.514,167.85c-1.608,1.242-3.284,3.2-6.028,5.42s-6.91,6.109-10.9,8.431-5.948,3.266-10.852-1.863a139.283,139.283,0,0,1-12.318-15.7l.217-18.917c4.153,1.291,6.531,3.533,9.077,7.487,4.8,7.45,8.071,12.255,10.828,16.558,0,0,11.722-6.786,13.243-7.866a6.209,6.209,0,0,0,2.4-3.315,30.246,30.246,0,0,1,1.2-3.3c.478-1.149.658-1.583,1.211-3.017s.975-3.862,1.149-4.4c.341-.621,1.242-.553,2.005.931a5.787,5.787,0,0,1,.335,2.918c-.05.888-.317,1.956-.05,2.1s1.527-.5,2.788-.795,2.384-.844,3.781-.422a1.651,1.651,0,0,1,1.142,2.192,2.086,2.086,0,0,1-.745.844,1.8,1.8,0,0,1,1.347.422,1.918,1.918,0,0,1,0,2.446,1.105,1.105,0,0,1,1.074.969c.149.832.056,1.651-.77,1.974,0,0,.683.161.726.565a1.962,1.962,0,0,1-.621,1.819,6.382,6.382,0,0,1-2.372.559s-.124.3-.913.708a20.375,20.375,0,0,1-2.645,1.422A16.258,16.258,0,0,0,322.514,167.85Z" transform="translate(-238.893 -106.682)"/><path class="g" d="M282.468,145a13.149,13.149,0,0,1,6.159,3.638c1.738,1.769,4.843,6.792,6.693,9.58s3.831,5.724,3.831,5.724.043,7.177-9.039,10.958l-8.17-10.654Z" transform="translate(-238.711 -106.598)"/><path class="h" d="M353.01,166.816a3.831,3.831,0,0,0,1.055-.335c.329-.112.677-.174,1.018-.261.7-.149,1.4-.279,2.1-.447-.72.037-1.428.118-2.136.217a5.838,5.838,0,0,0-1.068.224,4.017,4.017,0,0,1-.981.292,2.148,2.148,0,0,1-.956-.248,2.2,2.2,0,0,1-.844-.522,1.279,1.279,0,0,1-.2-.447.509.509,0,0,1,.1-.435,1.074,1.074,0,0,1,.621-.391,3.6,3.6,0,0,0,.745.143,3.433,3.433,0,0,0,1.192-.292c.373-.149.733-.3,1.093-.466.72-.323,1.434-.621,2.136-1.018-.751.242-1.49.515-2.229.795a7.922,7.922,0,0,1-2.2.677,3.179,3.179,0,0,1-1.086-.255,5.99,5.99,0,0,1-1-.571.925.925,0,0,1-.466-.906.832.832,0,0,1,.3-.534l.267-.05c.441-.068.9-.087,1.36-.149a4.824,4.824,0,0,0,1.347-.4,10.971,10.971,0,0,0,2.334-1.471,9.854,9.854,0,0,1-1.192.683c-.41.2-.813.416-1.242.584a5.545,5.545,0,0,1-1.3.335c-.441.056-.9.062-1.366.13-.23.031-.466.087-.677.106s-.286,0-.4-.224a1.161,1.161,0,0,1,.273-1.124,4.278,4.278,0,0,1,2.216-1.416h.037V159a2.08,2.08,0,0,1,.3-.534,4.345,4.345,0,0,1,.422-.466,3.1,3.1,0,0,0-.478.422,1.862,1.862,0,0,0-.348.509,4.067,4.067,0,0,0-2.378,1.366,2,2,0,0,0-.348.621,1.068,1.068,0,0,0,.031.782.72.72,0,0,0,.267.323.2.2,0,0,0,.056,0A5.035,5.035,0,0,1,347,168.3a5.817,5.817,0,0,0,2.359-1.546,4.83,4.83,0,0,0,1.18-1.987l.255.373a.621.621,0,0,0,0,.186,1.677,1.677,0,0,0,.186.546,2.191,2.191,0,0,0,.925.621,3.853,3.853,0,0,0,.664.248.652.652,0,0,0-.1.286,1,1,0,0,0,.124.466,3.725,3.725,0,0,0,.59.689,3.3,3.3,0,0,0,.366.273,1.086,1.086,0,0,0,.435.174,3.3,3.3,0,0,0,.888.068l-.819-.3a1.532,1.532,0,0,1-.348-.18,3.274,3.274,0,0,1-.317-.267,5.943,5.943,0,0,1-.621-.59.726.726,0,0,1-.168-.621,1.44,1.44,0,0,0,.41.074Zm-2.961-4.756Z" transform="translate(-263.379 -111.527)"/><path class="h" d="M314.85,183.6a10.348,10.348,0,0,1,1.5,5.339,7,7,0,0,0-.546-5.855Z" transform="translate(-251.189 -121.037)"/><g transform="translate(2.904 35.658)"><path class="i" d="M264.949,164.383a38.411,38.411,0,0,0-4.06-16.713,13.938,13.938,0,0,0-3.048-4.3c-3.272-1.031-12.417-2.788-12.417-2.788-3.992.043-11.678.459-11.678.459,0,.813-6.593,2.719-10.927,4.346-3.874,1.459-6.339,7.543-5.743,13.156,1.105,10.405,4.812,17.824,5.619,31.042-.776,10.07-.969,13.932-.969,13.932s5.817,4.967,21.407,4.6c20.823-.515,22.729-7.866,22.729-7.866C265.88,190.13,265.142,174.987,264.949,164.383Z" transform="translate(-216.987 -140.58)"/></g><g transform="translate(12.647)"><path class="f" d="M262.644,96.714c1.242-3.762-.875-8.35-3.055-10.374-3.148-2.924-7.649-3.849-14.168-2.738-4.967.838-9.642,3.371-10.039,8.425-3.886,1.589-2.738,7.9-1.434,10.6,2.645,5.482,5.234,8.506,5.619,11.411Z" transform="translate(-232.695 -83.146)"/><path class="c" d="M262.68,115.817c-.813,2.763-2.763,4.892-5.414,5.271a27.14,27.14,0,0,1-3.346.23l.081,3.868c5.327,6.3-9.8,7.165-14.279-.292l-.279-11.306s-1.633,1.763-4.29.062c-1.825-1.173-3.452-4.346-1.757-6.9a3.377,3.377,0,0,1,4.694-1,2.744,2.744,0,0,1,1.192,1.552c.484.559.95,1.006,1.335.888a2.44,2.44,0,0,0,1.658-1.608,14.1,14.1,0,0,0,.906-5.228,7.183,7.183,0,0,0,2.08-1.527,6.326,6.326,0,0,0,1.831-3.986c5.737-1.689,11.039-1.757,14.236.1,1.347,2.334,1.714,7.45,1.918,10.592A30.106,30.106,0,0,1,262.68,115.817Z" transform="translate(-232.682 -87.473)"/><path class="f" d="M258.356,105.063l-2.446,1.465a1.428,1.428,0,1,1,2.446-1.465Z" transform="translate(-241.395 -91.166)"/><path class="h" d="M262.084,123.7l4.16,1.055a2.26,2.26,0,0,1-2.7,1.515,2.024,2.024,0,0,1-1.459-2.57Z" transform="translate(-243.795 -98.522)"/><path class="f" d="M276.927,105.5l-2.657-1.13a1.428,1.428,0,0,1,1.863-.757A1.453,1.453,0,0,1,276.927,105.5Z" transform="translate(-248.45 -90.864)"/><path class="h" d="M267,108.59l.788,8.232,4.576-1.3A22.729,22.729,0,0,0,267,108.59Z" transform="translate(-245.694 -92.793)"/><path class="h" d="M259.217,132.8c-2.924-.18-8.475-1.49-10.033-3.1a14.327,14.327,0,0,1-2.514-4.855s.335,3.806,1.527,5.619a9.3,9.3,0,0,0,5.42,3.353,48.652,48.652,0,0,0,5.643.757Z" transform="translate(-237.985 -98.955)"/><path class="f" d="M258.069,110.417a1.242,1.242,0,1,0,1.242-1.167,1.2,1.2,0,0,0-1.242,1.167Z" transform="translate(-242.306 -93.043)"/><path class="f" d="M273.319,109.713a1.242,1.242,0,1,0,1.242-1.173,1.2,1.2,0,0,0-1.242,1.173Z" transform="translate(-248.089 -92.774)"/><path class="j" d="M262.35,125.16h-.31a2.024,2.024,0,0,0,1.521,1.651,2.179,2.179,0,0,0,1.322-.074,2.825,2.825,0,0,0-2.533-1.577Z" transform="translate(-243.813 -99.076)"/></g><g transform="translate(46.604 48.572)"><path class="d" d="M287.44,186.6a.329.329,0,0,1-.037-.329l3.1-12.02a1.714,1.714,0,0,1,.708-.931l20.73-11.864c.161-.093.286-.1.354,0l1.2,1.18a.329.329,0,0,1,.037.329l-3.1,12.02a1.738,1.738,0,0,1-.708.931L289,187.755c-.161.093-.286.1-.354,0Z" transform="translate(-287.375 -161.382)"/><path class="e" d="M294.031,174.927a1.57,1.57,0,0,1,.441-.422l20.73-11.864c.155-.087.273-.1.348-.043l-1.2-1.167c-.068-.068-.192-.062-.354,0l-20.73,11.864a1.583,1.583,0,0,0-.447.422Z" transform="translate(-289.44 -161.381)"/><path class="f" d="M314.271,163.662l-3.1,12.02a1.738,1.738,0,0,1-.708.931l-20.711,11.864c-.3.174-.478.037-.391-.3l3.1-12.02a1.713,1.713,0,0,1,.708-.931l20.73-11.864C314.184,163.19,314.358,163.327,314.271,163.662Z" transform="translate(-288.118 -162.104)"/><path class="e" d="M299.417,181.505l-2.111,1.2a1.98,1.98,0,0,0-.807,1.068l-.124.466c-.161.621.161.863.714.546l2.111-1.211a1.98,1.98,0,0,0,.813-1.062l.118-.472C300.292,181.431,299.969,181.188,299.417,181.505Z" transform="translate(-290.772 -168.958)"/><path class="d" d="M300.532,182.347a1.863,1.863,0,0,0-.739,1.006c-.1.379.074.54.385.366a1.819,1.819,0,0,0,.733-1.006C301,182.335,300.824,182.174,300.532,182.347Z" transform="translate(-292.073 -169.304)"/><path class="k" d="M300.6,182.909a.944.944,0,0,0-.379.515c-.05.192.037.273.2.186a.962.962,0,0,0,.373-.515C300.842,182.9,300.755,182.822,300.6,182.909Z" transform="translate(-292.241 -169.53)"/><path class="d" d="M297.993,183.816a1.863,1.863,0,0,0-.739,1.006c-.093.379.075.54.385.36a1.863,1.863,0,0,0,.739-1.006C298.471,183.8,298.328,183.636,297.993,183.816Z" transform="translate(-291.111 -169.86)"/><path class="k" d="M298.083,184.377a.925.925,0,0,0-.372.509c-.056.2.037.279.192.186a.938.938,0,0,0,.379-.509C298.331,184.371,298.244,184.284,298.083,184.377Z" transform="translate(-291.287 -170.086)"/><path class="f" d="M297.535,178.966l-.155-.161a.186.186,0,0,1-.062-.18,1.577,1.577,0,0,1,.062-.23.193.193,0,0,1,.093-.118l1.863-1.08a.36.36,0,0,1,.4.05l.161.161a.174.174,0,0,1,.056.18c0,.037-.05.192-.056.23a.192.192,0,0,1-.1.124l-1.863,1.074a.36.36,0,0,1-.4-.05Z" transform="translate(-291.143 -167.363)"/><path class="d" d="M299.933,177.712l-1.863,1.074a.348.348,0,0,1-.4-.05l-.161-.155a.186.186,0,0,1,.037-.3l1.862-1.08a.36.36,0,0,1,.4.05l.161.161a.186.186,0,0,1-.037.3Z" transform="translate(-291.195 -167.363)"/><path class="f" d="M302.5,176.116l-.155-.161a.186.186,0,0,1-.062-.18,1.567,1.567,0,0,1,.062-.23.18.18,0,0,1,.093-.118l1.863-1.08a.366.366,0,0,1,.4.05l.161.161a.174.174,0,0,1,.056.18c0,.037-.05.192-.056.23a.217.217,0,0,1-.1.124l-1.863,1.074a.36.36,0,0,1-.4-.05Z" transform="translate(-293.028 -166.282)"/><path class="d" d="M304.893,174.861l-1.863,1.074a.348.348,0,0,1-.4-.05l-.161-.161a.18.18,0,0,1,.037-.3l1.863-1.08a.366.366,0,0,1,.4.05l.161.161a.18.18,0,0,1-.043.3Z" transform="translate(-293.075 -166.282)"/></g><path class="c" d="M233.544,182.98l-5.463-19.246s-1.863-12.026-6.867-15.173c-5.848,2.024-7.382,4.6-8.189,7.984-1.043,4.383.155,9.412,3.322,19.662,2.682,8.692,5.141,14.081,6.953,17.123,2.241,3.769,5.836,3.545,11.939,2.254s9.859-2.483,18.216-4.967c4.017-1.2,6.028-2.483,9.257-4.048a13.037,13.037,0,0,0,3.4-2.241,7.711,7.711,0,0,0,2.123-3.03,2.1,2.1,0,0,1,.261-.621,4.887,4.887,0,0,1,.441-.509,4.16,4.16,0,0,0,.82-.987,6.208,6.208,0,0,0,.4-1.3,5.5,5.5,0,0,1,.174-.621,3.373,3.373,0,0,1,.317-.565,4.706,4.706,0,0,0,.82-1.484.882.882,0,0,0-.224-.832s.5-.54.658-.733a4.347,4.347,0,0,0,.577-.875.447.447,0,0,0,.068-.391.435.435,0,0,0-.161-.174c-1.068-.745-2.26-.174-3.247.4-2.577,1.49-3.874,2.961-6.612,4.172-1.49.652-1.863.8-2.446.714l1.012-3.924.447-1.763c-.106-1.4-1.273-2.3-1.943-.9-1.415,2.918-2.893,3.855-4.023,5.588a11.476,11.476,0,0,1-5.023,4.271C247.638,182.284,233.544,182.98,233.544,182.98Z" transform="translate(-212.442 -107.948)"/><path class="h" d="M241.993,203.386a16.537,16.537,0,0,0-7.053,1.44,12.957,12.957,0,0,1,6.718-2.446Z" transform="translate(-220.891 -128.354)"/><path class="h" d="M302.882,190.4a22.22,22.22,0,0,1-1.558,1.6c-.534.515-1.086,1.006-1.62,1.515-.273.248-.528.509-.82.757s-.577.472-.882.689c-.621.435-1.211.851-1.863,1.242l.869-.7c.286-.23.577-.459.857-.7s.571-.472.838-.72.534-.509.807-.764c.54-.5,1.1-.993,1.664-1.471Z" transform="translate(-244.095 -123.812)"/><path class="h" d="M302.694,194.65a9.193,9.193,0,0,1-1,1.459c-.366.435-.764.844-1.167,1.242s-.826.788-1.242,1.161a12.349,12.349,0,0,1-1.366,1.037c.416-.391.813-.8,1.242-1.2l1.211-1.192,1.211-1.2C301.937,195.525,302.316,195.091,302.694,194.65Z" transform="translate(-244.77 -125.423)"/><path class="g" d="M221.064,148.31c-3.421,1.124-6.631,2.452-8.344,7.742-1.142,3.539.341,10.194,1.565,14.559s2.4,8.319,2.4,8.319a14.223,14.223,0,0,0,8.276-.223,13.82,13.82,0,0,0,6.6-4.9s-2.949-10.517-3.613-12.746S225.981,150.526,221.064,148.31Z" transform="translate(-212.31 -107.853)"/></g></g></g><g transform="translate(90.471 163.532)"><path class="l" d="M320.4,321.677l22.773-11.337,9.288,4.1Z" transform="translate(-209.117 -270.815)"/><path class="m" d="M320.4,321.677l22.773-11.337,9.288,4.1Z" transform="translate(-209.117 -270.815)"/><path class="l" d="M320.4,317.184l20-13.41-3.682-5.283Z" transform="translate(-209.117 -266.322)"/><path class="m" d="M320.4,317.184l20-13.41-3.682-5.283Z" transform="translate(-209.117 -266.322)"/><path class="l" d="M340.4,307l-.391,3.651L320.4,320.41Z" transform="translate(-209.117 -269.548)"/><path class="n" d="M340.4,307l-.391,3.651L320.4,320.41Z" transform="translate(-209.117 -269.548)"/><path class="d" d="M340.2,284.072a.354.354,0,0,1-.248-.1.36.36,0,0,1,0-.515,15.462,15.462,0,0,0,1.763-2.229.369.369,0,1,1,.621.4,16.141,16.141,0,0,1-1.863,2.334A.372.372,0,0,1,340.2,284.072Zm2.974-4.408a.329.329,0,0,1-.149-.037.354.354,0,0,1-.18-.478,17.062,17.062,0,0,0,.962-2.688.36.36,0,0,1,.447-.255.366.366,0,0,1,.261.447,18.444,18.444,0,0,1-1.006,2.794.372.372,0,0,1-.335.217Zm1.459-5.128h-.043a.366.366,0,0,1-.317-.41,19.036,19.036,0,0,0,.161-2.483v-.391a.366.366,0,0,1,.36-.366h0a.366.366,0,0,1,.366.354v.4a20.419,20.419,0,0,1-.18,2.552.366.366,0,0,1-.348.341Zm-.037-5.327a.36.36,0,0,1-.36-.31,19.861,19.861,0,0,0-.621-2.794.366.366,0,0,1,.7-.211,20.686,20.686,0,0,1,.621,2.9.354.354,0,0,1-.31.41Zm-1.447-5.128a.354.354,0,0,1-.335-.224,21.432,21.432,0,0,0-1.31-2.545.362.362,0,1,1,.621-.372,21.543,21.543,0,0,1,1.36,2.632.366.366,0,0,1-.192.478.422.422,0,0,1-.143.031Zm-2.707-4.594a.36.36,0,0,1-.286-.143,22.938,22.938,0,0,0-1.863-2.161.362.362,0,1,1,.515-.509,23.45,23.45,0,0,1,1.949,2.223.366.366,0,0,1-.068.515.372.372,0,0,1-.248.075Zm-3.725-3.831a.36.36,0,0,1-.23-.081c-.441-.36-.906-.714-1.372-1.049q-.466-.335-.95-.652a.37.37,0,1,1,.4-.621c.329.217.652.441.969.664.484.348.956.708,1.409,1.08a.366.366,0,0,1,.05.515.354.354,0,0,1-.267.143Zm-4.433-2.974a.36.36,0,0,1-.174-.043c-.82-.453-1.689-.888-2.583-1.291a.36.36,0,0,1-.186-.478.372.372,0,0,1,.484-.186c.913.41,1.8.857,2.639,1.316a.366.366,0,0,1-.18.683Zm-4.849-2.229a.44.44,0,0,1-.13,0c-.888-.335-1.807-.652-2.738-.937a.367.367,0,0,1,.217-.7c.944.292,1.863.621,2.775.956a.36.36,0,0,1,.211.472.366.366,0,0,1-.323.211Zm-5.1-1.608a.243.243,0,0,1-.093,0c-.913-.23-1.863-.447-2.825-.621a.366.366,0,1,1,.143-.714c.975.192,1.937.41,2.862.652a.366.366,0,0,1,.261.441.354.354,0,0,1-.335.242Zm-5.24-1.068h-.056c-.937-.143-1.906-.273-2.875-.372a.373.373,0,0,1-.323-.4.366.366,0,0,1,.4-.323c.981.106,1.956.236,2.906.379a.366.366,0,0,1-.05.726Z" transform="translate(-206.632 -246.676)"/><g transform="translate(3.902 54.767)"><path class="l" d="M162.43,348.58l20.463-13.69-13.777,17.154Z" transform="translate(-153.124 -334.89)"/><path class="m" d="M162.43,348.58l20.463-13.69-13.777,17.154Z" transform="translate(-153.124 -334.89)"/><path class="l" d="M177.209,334.89l-23.083,11.2-6.686-3.458Z" transform="translate(-147.44 -334.89)"/><path class="m" d="M177.209,334.89l-23.083,11.2-6.686-3.458Z" transform="translate(-147.44 -334.89)"/><path class="l" d="M158.21,346.09l1.776,6.01.844-3.52,20.463-13.69Z" transform="translate(-151.524 -334.89)"/><path class="n" d="M158.21,346.09l1.776,6.01.844-3.52,20.463-13.69Z" transform="translate(-151.524 -334.89)"/><path class="l" d="M161.07,360.46l3.073-2.365-2.229-1.155Z" transform="translate(-152.608 -343.25)"/><path class="n" d="M162.43,356.94l2.229,1.155-.49.379Z" transform="translate(-153.124 -343.25)"/></g><path class="d" d="M149.359,358.654a.4.4,0,0,1,.223.155.373.373,0,0,1-.106.509,15.115,15.115,0,0,0-2.229,1.763.364.364,0,0,1-.515-.515,15.875,15.875,0,0,1,2.334-1.863A.373.373,0,0,1,149.359,358.654Zm-3.9,3.62a.316.316,0,0,1,.137.068.36.36,0,0,1,.068.509,16.84,16.84,0,0,0-1.552,2.4.366.366,0,0,1-.621-.348,18.29,18.29,0,0,1,1.62-2.483.36.36,0,0,1,.348-.143Zm-2.6,4.656h.05a.366.366,0,0,1,.211.472,19.6,19.6,0,0,0-.72,2.359,2.062,2.062,0,0,1-.081.379.373.373,0,0,1-.435.286h0a.36.36,0,0,1-.273-.428,1.823,1.823,0,0,1,.087-.4,20.019,20.019,0,0,1,.745-2.452.36.36,0,0,1,.416-.211Zm-1.186,5.2a.366.366,0,0,1,.279.385,20,20,0,0,0-.037,2.862.372.372,0,0,1-.348.385.366.366,0,0,1-.385-.341,20.549,20.549,0,0,1,.043-2.968.366.366,0,0,1,.4-.329Zm.242,5.327a.36.36,0,0,1,.273.292,21.85,21.85,0,0,0,.7,2.775.366.366,0,0,1-.7.224,21.365,21.365,0,0,1-.714-2.875.36.36,0,0,1,.292-.422.4.4,0,0,1,.161.006Zm1.583,5.091a.354.354,0,0,1,.248.2,23.553,23.553,0,0,0,1.347,2.527.366.366,0,1,1-.621.385,24.046,24.046,0,0,1-1.391-2.614.373.373,0,0,1,.18-.484.391.391,0,0,1,.273-.019Zm2.744,4.569a.329.329,0,0,1,.2.137c.348.453.714.9,1.1,1.335.248.286.509.571.77.851a.354.354,0,0,1,0,.509.36.36,0,0,1-.515,0c-.273-.286-.534-.571-.795-.869-.385-.441-.77-.906-1.124-1.372a.36.36,0,0,1,.068-.509.366.366,0,0,1,.3-.081Zm3.638,3.911a.36.36,0,0,1,.161.081c.689.621,1.44,1.242,2.216,1.863a.366.366,0,1,1-.441.577c-.795-.621-1.558-1.242-2.266-1.863a.36.36,0,0,1,.329-.621ZM154.1,394.3a.285.285,0,0,1,.118.05c.782.528,1.608,1.049,2.452,1.54a.36.36,0,1,1-.366.621c-.857-.5-1.695-1.024-2.483-1.558a.366.366,0,0,1-.1-.509.354.354,0,0,1,.372-.143Zm4.594,2.725a.211.211,0,0,1,.087,0c.838.435,1.714.863,2.608,1.242a.366.366,0,1,1-.3.664c-.9-.41-1.794-.844-2.639-1.285a.337.337,0,1,1,.261-.621Z" transform="translate(-141.155 -289.129)"/></g><g transform="translate(71.703 87.097)"><g transform="translate(148.324 43.055)"><path class="l" d="M372.659,207.575s-3.1-6.755-3.309-7.8.888-5.277,1.018-6.053-3.533-1.7-5.184.931a11.635,11.635,0,0,0-1.9,7.723l-9.04-1.527a2.821,2.821,0,0,0-3.166,2.384,3.1,3.1,0,0,0,1.024,2.887,2.552,2.552,0,0,0-2.235,2.235,2.875,2.875,0,0,0,1.732,3.1,3.452,3.452,0,0,0-.944,2.049,3.139,3.139,0,0,0,2.092,3.067,5.7,5.7,0,0,0-.733,1.987,3.172,3.172,0,0,0,2.843,3.4l14.944,2.514Z" transform="translate(-349.832 -192.911)"/><path class="l" d="M388.172,216.33l-3.322,19.662,6.525,1.093,3.3-19.668Zm.3,18.408a.572.572,0,1,1,0,.012Z" transform="translate(-363.109 -201.791)"/></g><g transform="translate(123.556 138.996)"><path class="d" d="M310.945,369.96a.385.385,0,0,1-.329-.354l-.677-12.746a.372.372,0,0,1,.1-.273.36.36,0,0,1,.255-.124l4.222-.224a.366.366,0,0,1,.391.354l.658,12.746a.4.4,0,0,1-.093.273.385.385,0,0,1-.261.124l-4.222.223Zm-.236-12.771.621,12,3.477-.18-.621-12Zm5.774,11a.372.372,0,0,1-.329-.354l-.59-10.952a.348.348,0,0,1,.056-.217c.975-1.62,2.483-4.191,2.632-4.638a14.427,14.427,0,0,0-.155-3.067c-.037-.335-.062-.59-.068-.72s.043-.546.726-.714a2.843,2.843,0,0,1,3.21,1.509,7.761,7.761,0,0,1,.764,4.805l5.383-.286a2.185,2.185,0,0,1,2.235,2.1,2.347,2.347,0,0,1-.553,1.664,2.024,2.024,0,0,1,.95,1.676,2.272,2.272,0,0,1-1.155,2.055,3.136,3.136,0,0,1,.279,1.167,2.483,2.483,0,0,1-1.428,2.08,3.861,3.861,0,0,1,.193,1.037,2.378,2.378,0,0,1-2.409,2.341l-9.685.515Zm-.161-11.231.559,10.461,9.313-.49a1.664,1.664,0,0,0,1.7-1.558,3.222,3.222,0,0,0-.286-1.167.379.379,0,0,1,0-.354.366.366,0,0,1,.3-.186,1.65,1.65,0,0,0,1.2-1.4,1.862,1.862,0,0,0-.354-1.142.366.366,0,0,1-.081-.354.391.391,0,0,1,.261-.261,1.459,1.459,0,0,0,1.055-1.465,1.242,1.242,0,0,0-.956-1.242.379.379,0,0,1-.3-.292.373.373,0,0,1,.155-.385,1.608,1.608,0,0,0,.7-1.434,1.434,1.434,0,0,0-1.447-1.391l-5.855.31a.354.354,0,0,1-.3-.124.385.385,0,0,1-.081-.323,7.059,7.059,0,0,0-.621-4.805,2.012,2.012,0,0,0-1.49-1.118,1.825,1.825,0,0,0-1.018.062c0,.137.037.335.062.571a12.06,12.06,0,0,1,.124,3.4C318.756,352.893,316.757,356.233,316.322,356.953Z" transform="translate(-309.939 -347.445)"/></g><path class="o" d="M392.837,124.492l.192,7.2,6.041,3.924a.931.931,0,0,1-.2,1.664l-6.786,2.409-1.863,6.96a.937.937,0,0,1-1.645.323l-4.383-5.712-7.2.373a.931.931,0,0,1-.813-1.459l4.079-5.941-2.583-6.724a.931.931,0,0,1,1.136-1.242l6.91,2.043,5.588-4.532a.931.931,0,0,1,1.527.714Z" transform="translate(-211.436 -123.563)"/><path class="o" d="M121.638,242.252l.124,4.588,3.843,2.483a.621.621,0,0,1-.124,1.055l-4.346,1.533-1.186,4.433a.621.621,0,0,1-1.043.2l-2.794-3.638-4.582.242a.621.621,0,0,1-.522-.931l2.6-3.781-1.645-4.284a.621.621,0,0,1,.726-.782l4.4,1.3,3.57-2.887a.621.621,0,0,1,.987.466Z" transform="translate(-110.926 -168.342)"/></g><g transform="translate(91.827 154.475)"><path class="p" d="M143.34,264.938c0-11.9,7.233-25.734,16.142-30.887,4.1-2.365,7.854-2.533,10.7-.826h0l6.947,4.1-3.1,6.562c.031.49.05.987.05,1.5,0,11.43-6.674,24.629-15.111,30.223L155.9,282.08l-6.891-4.017h0C145.538,276.113,143.34,271.482,143.34,264.938Z" transform="translate(-143.34 -232.088)"/><path class="k" d="M143.34,264.938c0-11.9,7.233-25.734,16.142-30.887,4.1-2.365,7.854-2.533,10.7-.826h0l6.947,4.1-3.1,6.562c.031.49.05.987.05,1.5,0,11.43-6.674,24.629-15.111,30.223L155.9,282.08l-6.891-4.017h0C145.538,276.113,143.34,271.482,143.34,264.938Z" transform="translate(-143.34 -232.088)"/><path class="p" d="M188.94,275.511a10.672,10.672,0,0,1-6.053-6.035,39.567,39.567,0,0,0,4.085-16.695c0-11.926-7.251-17.384-16.2-12.243s-16.2,19.023-16.2,30.949,7.258,17.415,16.2,12.249a27.727,27.727,0,0,0,8.108-7.593,12.417,12.417,0,0,0,10.008,1.012.875.875,0,0,0,.05-1.645Z" transform="translate(-147.598 -234.559)"/><path class="q" d="M188.94,275.511a10.672,10.672,0,0,1-6.053-6.035,39.567,39.567,0,0,0,4.085-16.695c0-11.926-7.251-17.384-16.2-12.243s-16.2,19.023-16.2,30.949,7.258,17.415,16.2,12.249a27.727,27.727,0,0,0,8.108-7.593,12.417,12.417,0,0,0,10.008,1.012.875.875,0,0,0,.05-1.645Z" transform="translate(-147.598 -234.559)"/><path class="e" d="M163.92,281.158a11.628,11.628,0,0,0,2.26,7.512c1.974,2.365,5.029,2.937,8.462.944s6.506-6.115,8.475-10.734a26.5,26.5,0,0,0,2.26-10.12Z" transform="translate(-151.143 -245.993)"/><path class="r" d="M167.56,294.142c1.974,2.365,5.029,2.937,8.462.944s6.506-6.115,8.475-10.734c-2.192-1.583-5.19-1.6-8.475.286S169.758,289.995,167.56,294.142Z" transform="translate(-152.523 -251.464)"/><path class="e" d="M164.594,276.2a.919.919,0,0,0,.621-.248l5.588-5.29a.9.9,0,0,0,.23-.956.888.888,0,0,0-.776-.621l-4.309-.385a.907.907,0,0,0-.155,1.807l2.3.2-4.129,3.905a.913.913,0,0,0-.037,1.285A.925.925,0,0,0,164.594,276.2Z" transform="translate(-151.053 -245.968)"/><path class="e" d="M187.378,259.914a.95.95,0,0,0,.186,0l5.588-1.161a.907.907,0,1,0-.373-1.776l-3.1.621,2.725-3.39a.908.908,0,0,0-1.416-1.136l-4.309,5.358a.906.906,0,0,0,.708,1.478Z" transform="translate(-159.694 -239.916)"/></g><g transform="translate(52.474 65.116)"><g transform="translate(0)"><path class="s" d="M81.12,142.973c0-20.022,11.8-42.807,26.839-51.48,6.891-3.973,12.305-4.346,18-1.391h0L138,96.534l-5.24,11.039c.043.826.074,1.658.074,2.527,0,19.246-11.225,41.423-25.411,50.835l-5.159,10.871-11.591-6.761h0C84.826,161.772,81.12,154.024,81.12,142.973Z" transform="translate(-80.395 -88.157)"/><g class="t" transform="translate(0.725)"><path class="u" d="M81.12,142.973c0-20.022,11.8-42.807,26.839-51.48,6.891-3.973,12.305-4.346,18-1.391h0L138,96.534l-5.24,11.039c.043.826.074,1.658.074,2.527,0,19.246-11.225,41.423-25.411,50.835l-5.159,10.871-11.591-6.761h0C84.826,161.772,81.12,154.024,81.12,142.973Z" transform="translate(-81.12 -88.157)"/></g><path class="s" d="M138.088,98.45a21.866,21.866,0,0,0-10.815,3.272c-15.049,8.692-27.243,31.129-27.243,52.058,0,14.938,6.761,23.865,16.428,23.865a21.853,21.853,0,0,0,10.815-3.266,47.255,47.255,0,0,0,13.659-12.771,20.587,20.587,0,0,0,10.244,2.738,21.792,21.792,0,0,0,6.575-1.037,1.471,1.471,0,0,0,.087-2.763,17.912,17.912,0,0,1-10.188-10.182c4.265-8.878,6.879-18.8,6.879-28.044,0-14.944-6.761-23.871-16.434-23.871Z" transform="translate(-87.565 -92.06)"/><g class="v" transform="translate(12.465 6.39)"><path class="u" d="M138.088,98.45a21.866,21.866,0,0,0-10.815,3.272c-15.049,8.692-27.243,31.129-27.243,52.058,0,14.938,6.761,23.865,16.428,23.865a21.853,21.853,0,0,0,10.815-3.266,47.255,47.255,0,0,0,13.659-12.771,20.587,20.587,0,0,0,10.244,2.738,21.792,21.792,0,0,0,6.575-1.037,1.471,1.471,0,0,0,.087-2.763,17.912,17.912,0,0,1-10.188-10.182c4.265-8.878,6.879-18.8,6.879-28.044,0-14.944-6.761-23.871-16.434-23.871Z" transform="translate(-100.03 -98.45)"/></g><path class="w" d="M119.534,167.274c0,4.663-3.135,10.244-7,12.479s-7,.261-7-4.4,3.1-10.244,7-12.473S119.534,162.6,119.534,167.274Z" transform="translate(-89.654 -116.139)"/><ellipse class="w" cx="10.12" cy="5.83" rx="10.12" ry="5.83" transform="translate(46.655 41.969) rotate(-62.15)"/><path class="e" d="M130.18,175.508a11.074,11.074,0,0,0,2.148,7.152c1.863,2.254,4.793,2.8,8.071.9s6.208-5.824,8.071-10.225a25.231,25.231,0,0,0,2.154-9.636Z" transform="translate(-98.997 -116.8)"/><path class="l" d="M133.64,187.872c1.863,2.254,4.793,2.8,8.071.9s6.208-5.824,8.071-10.225c-2.092-1.5-4.967-1.521-8.071.273A22.689,22.689,0,0,0,133.64,187.872Z" transform="translate(-100.309 -122.011)"/><path class="e" d="M165.6,130.743c0,3.533-1.863,1.353-4.153,2.676s-4.147,5.65-4.147,2.117,1.863-7.45,4.147-8.785S165.6,127.216,165.6,130.743Z" transform="translate(-109.279 -102.623)"/><path class="e" d="M127.313,152.843c0,3.533-1.863,1.353-4.153,2.682s-4.16,5.668-4.16,2.111,1.863-7.45,4.153-8.785S127.313,149.316,127.313,152.843Z" transform="translate(-94.758 -111.002)"/></g></g><g transform="translate(188.915 56.097)"><g transform="translate(0 0)"><path class="l" d="M300,98.294l4.309.149,3.253,3.762,2.483,1.434V97.884l-2.483-1.434h-4.284a.348.348,0,0,0-.186.062h0Z" transform="translate(-299.826 -82.282)"/><path class="n" d="M300,98.294l4.309.149,3.253,3.762,2.483,1.434V97.884l-2.483-1.434h-4.284a.348.348,0,0,0-.186.062h0Z" transform="translate(-299.826 -82.282)"/><path class="l" d="M323.629,111.688a3.3,3.3,0,0,0,2.992,0l1.242-.7a3.3,3.3,0,0,0,1.49-2.589V86.842a3.3,3.3,0,0,0-1.521-2.589L310.038,73.984a3.328,3.328,0,0,0-2.986,0l-1.242.7a3.315,3.315,0,0,0-1.5,2.589V89.6h-4.271a.317.317,0,0,0-.242.528l4.52,5.221V98.83a3.3,3.3,0,0,0,1.49,2.589Z" transform="translate(-299.72 -73.63)"/><path class="n" d="M312.859,73.984a3.328,3.328,0,0,0-2.986,0l-1.242.7A3.359,3.359,0,0,0,307.16,77c.118-.739.733-1.006,1.471-.584L326.412,86.68a3.1,3.1,0,0,1,1.055,1.111l4.2-2.427a2.986,2.986,0,0,0-1.055-1.111Z" transform="translate(-302.541 -73.63)"/><path class="m" d="M338.87,119.025c.621.168,1.1-.23,1.1-1.031V96.439a2.948,2.948,0,0,0-.441-1.471l4.2-2.428a2.968,2.968,0,0,1,.441,1.471v21.55a3.328,3.328,0,0,1-1.5,2.589l-1.242.708A3.278,3.278,0,0,1,338.87,119.025Z" transform="translate(-314.564 -80.8)"/><g transform="translate(9.449 12.436)"><path class="x" d="M328.292,107.394a.677.677,0,0,1-.981.621,3.984,3.984,0,0,1,.143,1.012c0,.621-.521.962-1.285.522l-5.8-3.34V98.615a21.837,21.837,0,0,0,1.738-2.148,16.579,16.579,0,0,0,0-2.719c0-.279.95.13,1.558,1.124a3.239,3.239,0,0,1,.341.77,10.213,10.213,0,0,1,.348,1.608,5.24,5.24,0,0,1-.118,2.018l3.508,2.03a1.862,1.862,0,0,1,.677.689,2.483,2.483,0,0,1,.366,1.18c0,.683-.372.844-.565.857a2.185,2.185,0,0,1,.7,1.533c0,.534-.317.919-.851.739a2.576,2.576,0,0,1,.223,1.1Z" transform="translate(-316.999 -93.662)"/><path class="x" d="M314.94,98.575v8.177a.621.621,0,0,0,.286.49l1.956,1.13a.176.176,0,0,0,.286-.161v-8.164a.621.621,0,0,0-.286-.49l-1.962-1.149C315.064,98.32,314.94,98.389,314.94,98.575Z" transform="translate(-314.94 -95.447)"/></g></g></g></g></g></svg>