<svg xmlns="http://www.w3.org/2000/svg" width="468.718" height="289.083" viewBox="0 0 468.718 289.083"><g transform="translate(2862.359 12428.084)"><path d="M80,0H468.718a0,0,0,0,1,0,0V116.309a80,80,0,0,1-80,80H0a0,0,0,0,1,0,0V80A80,80,0,0,1,80,0Z" transform="translate(-2862.359 -12335.311)" fill="#35a3be" opacity="0.2"/><g transform="translate(-3002.998 -12627.478)"><path d="M464.073,453.68c0,.15-91.056.26-203.349.26s-203.374-.11-203.374-.26,91.037-.26,203.374-.26S464.073,453.54,464.073,453.68Z" transform="translate(114.289)" fill="#263238"/><path d="M460.21,374.93c-.18,1.85-11.15,78.23-11.15,78.23h4.21l14.1-76.83Z" fill="#455a64"/><path d="M503.76,376.34l1.33,7.76-20.22,9.26L464,381.69l-.88,1.57,19.69,11.06-24.19,11.07.65,1.65,25.54-11.59,24.59,13.82,8,43.89h4.21s-10.31-76.18-10.47-78h0a21.5,21.5,0,0,0,4.3-1.7c7.68-4,8.7-12.45,8.55-22.8q.11-25.26.2-50.52c0-4.17,0-8.59-2.19-12.16s-6.13-5.69-10.2-6.52-8.27-.53-12.41-.17l-21.45,67.79c-6.74,2-13,4.9-17.7,9.76a15,15,0,0,0-4.4,7.84,8.14,8.14,0,0,0,3.21,8c2.37,1.58,5.48,1.66,8.39,1.67l28.66.16C498.59,376.51,501.19,376.51,503.76,376.34Zm1.66,9.73,3.52,20.72-22.05-12.3Z" fill="#455a64"/><path d="M373.49,260.28a9.78,9.78,0,0,1,3.36-.09c-2.3-.45-3.23-1.09-3.17-1.68.09-1,5.42-.53,7.91-.24a48.93,48.93,0,0,1-6.83-1.18c-1.17-.52.22-1.2,1.52-1.45,1.47-.27,10.21-.64,12.73-.87a1.49,1.49,0,0,0,1.51-1.69c-1-3.53.08-6.81.79-7.57a1.12,1.12,0,0,1,1.82,1.12,13.8,13.8,0,0,0,.34,3.7,8.75,8.75,0,0,0,1,2.77c.58,1,1.12,1.82,1.59,2.5l34.79,28,5-4.4,11,13-8.56,8.18a9.51,9.51,0,0,1-13,.13l-34.12-31.33-12.91-4.49c-3.33-.93-4.64-1.54-4.42-2.15.28-.82.14-.52,6.43.3C380.31,262.79,371.34,261.54,373.49,260.28Z" fill="#ffbe9d"/><path d="M383.13,263.08a32.352,32.352,0,0,1-8.58-1.34,16.59,16.59,0,0,1,4.34.39,17.22,17.22,0,0,1,4.24.95Z" fill="#eb996e"/><path d="M383.78,260.65a18.851,18.851,0,0,1-4.64-.15,19.2,19.2,0,0,1-4.59-.73,19,19,0,0,1,4.65.15,18.479,18.479,0,0,1,4.58.73Z" fill="#eb996e"/><path d="M384,258.35a16.69,16.69,0,0,1-4.39-.07,17.68,17.68,0,0,1-4.35-.64,16.75,16.75,0,0,1,4.4.07,16.49,16.49,0,0,1,4.34.64Z" fill="#eb996e"/><path d="M389.44,405.62l3.2-8,15.08,5.89-4.56,11.8-1-.31c-4.25-1.39-21.51-7.39-24-9.32C375.51,403.49,389.44,405.62,389.44,405.62Z" fill="#455a64"/><path d="M403.51,415a.788.788,0,0,1-.27-.07l-.76-.24-2.79-1c-2.35-.82-5.57-2-9.11-3.37s-6.71-2.69-9-3.68l-2.7-1.18-.73-.34-.24-.12a.94.94,0,0,1,.26.09l.74.3,2.72,1.13c2.3.95,5.48,2.24,9,3.62s6.75,2.57,9.09,3.42l2.76,1,.75.28Z" fill="#263238"/><path d="M383,407.5a5.819,5.819,0,0,0,0-1.51,6.662,6.662,0,0,0-.52-1.41,2.18,2.18,0,0,1,.72,1.38A2.12,2.12,0,0,1,383,407.5Z" fill="#263238"/><path d="M388.36,407a1.82,1.82,0,0,1-.25-.76c-.08-.44-.11-.8-.05-.81a1.9,1.9,0,0,1,.25.77C388.39,406.61,388.42,407,388.36,407Z" fill="#263238"/><path d="M389.84,406.81a2.493,2.493,0,0,1-.4-.56c-.17-.33-.26-.63-.21-.65s.22.23.39.56S389.89,406.79,389.84,406.81Z" fill="#263238"/><path d="M391.16,405.69a1.85,1.85,0,0,1-.82-.21c-.44-.16-.78-.34-.76-.39a1.88,1.88,0,0,1,.83.21C390.84,405.46,391.18,405.64,391.16,405.69Z" fill="#263238"/><path d="M391.82,404.79a1.7,1.7,0,0,1-1-.09,1.78,1.78,0,0,1-.86-.47,4.782,4.782,0,0,1,.92.28,5.221,5.221,0,0,1,.94.28Z" fill="#263238"/><path d="M388.37,405.46a2.56,2.56,0,0,1-1-.38,5.921,5.921,0,0,1-.94-.63,3.11,3.11,0,0,1-.5-.47.6.6,0,0,1-.12-.4.42.42,0,0,1,.3-.33,1.91,1.91,0,0,1,2,1.38,1.85,1.85,0,0,1,.07.77.65.65,0,0,1-.08.27,3.071,3.071,0,0,0-.12-1,1.89,1.89,0,0,0-.62-.86,1.63,1.63,0,0,0-1.18-.37c-.2.05-.21.26-.08.43a3.749,3.749,0,0,0,.45.44,6.837,6.837,0,0,0,.9.65C388,405.29,388.38,405.43,388.37,405.46Z" fill="#263238"/><path d="M388.1,405.41a1,1,0,0,1,.15-.71,1.6,1.6,0,0,1,.54-.61,1.06,1.06,0,0,1,1-.18.42.42,0,0,1,.12.57,1.2,1.2,0,0,1-.33.37,3,3,0,0,1-.69.4,1.549,1.549,0,0,1-.71.18s.26-.1.65-.3a3.819,3.819,0,0,0,.63-.42c.22-.16.45-.49.23-.63a.94.94,0,0,0-.8.16,1.631,1.631,0,0,0-.52.53A3.17,3.17,0,0,0,388.1,405.41Z" fill="#263238"/><path d="M404.81,410.77a6.162,6.162,0,0,0-1.13-.4A5.11,5.11,0,0,0,398.5,412a8.436,8.436,0,0,0-.7,1,.83.83,0,0,1,.12-.3,3.87,3.87,0,0,1,.48-.75,4.916,4.916,0,0,1,5.32-1.65,3.693,3.693,0,0,1,.82.35C404.72,410.69,404.82,410.76,404.81,410.77Z" fill="#263238"/><path d="M405.7,403.88a27.7,27.7,0,0,1-1.08,3.15,29.581,29.581,0,0,1-1.26,3.08,27.684,27.684,0,0,1,1.08-3.15,28.191,28.191,0,0,1,1.26-3.08Z" fill="#263238"/><path d="M396.42,410.81a9.092,9.092,0,0,1-2.29-.64,8.449,8.449,0,0,1-2.13-1c0-.05,1,.4,2.2.86S396.43,410.76,396.42,410.81Z" fill="#263238"/><path d="M399.37,412c0,.05-.16.18-.35.36s-.32.37-.37.35,0-.27.24-.49S399.36,411.91,399.37,412Z" fill="#263238"/><path d="M401,411c0,.05-.14.17-.35.26s-.42.14-.44.09.14-.17.36-.26A1.268,1.268,0,0,1,401,411Z" fill="#263238"/><path d="M402.87,411c0,.05-.23,0-.48,0h-.49a.626.626,0,0,1,.5-.19A.6.6,0,0,1,402.87,411Z" fill="#263238"/><path d="M404.12,411.14c0,.06-.12.1-.26.1s-.26,0-.26-.1.12-.1.26-.1S404.12,411.09,404.12,411.14Z" fill="#263238"/><path d="M430.43,449.14l.15-8.64,16.19.19-.1,12.64-1,.05c-4.47.2-22.74.68-25.71-.26C416.64,452.07,430.43,449.14,430.43,449.14Z" fill="#455a64"/><path d="M446.91,453a1.071,1.071,0,0,1-.28,0h-.8l-2.95.09c-2.48.06-5.92.1-9.71.06s-7.23-.15-9.71-.26l-2.94-.15-.8-.06h.8l2.94.09c2.49.08,5.92.17,9.71.21s7.23,0,9.71,0h4.03Z" fill="#263238"/><path d="M425.1,453.16a6.792,6.792,0,0,0-.54-1.41,6.163,6.163,0,0,0-1-1.13,2.11,2.11,0,0,1,1.16,1,2.16,2.16,0,0,1,.38,1.54Z" fill="#263238"/><path d="M429.9,450.79a3.328,3.328,0,0,1-.5-.62c-.23-.37-.39-.7-.34-.73s.27.25.5.63S430,450.77,429.9,450.79Z" fill="#263238"/><path d="M431.22,450.12a2.772,2.772,0,0,1-.57-.39c-.28-.25-.47-.49-.43-.53s.29.13.56.39S431.25,450.08,431.22,450.12Z" fill="#263238"/><path d="M432.06,448.6a3.62,3.62,0,0,1-1.69,0c0-.06.38-.1.85-.1S432.06,448.54,432.06,448.6Z" fill="#263238"/><path d="M432.36,447.52a1.67,1.67,0,0,1-.95.27,1.71,1.71,0,0,1-1-.14,5,5,0,0,1,1-.06A6,6,0,0,1,432.36,447.52Z" fill="#263238"/><path d="M429.37,449.38a3.26,3.26,0,0,1-1,0,5.622,5.622,0,0,1-1.11-.26,2.779,2.779,0,0,1-.63-.27.55.55,0,0,1-.25-.32.42.42,0,0,1,.16-.42,1.91,1.91,0,0,1,2.35.59,1.79,1.79,0,0,1,.33.7.67.67,0,0,1,0,.28,3,3,0,0,0-.47-.89,1.8,1.8,0,0,0-.88-.59,1.62,1.62,0,0,0-1.24.07c-.17.12-.1.31.08.43a3,3,0,0,0,.58.25,7.259,7.259,0,0,0,1.07.29A9.471,9.471,0,0,1,429.37,449.38Z" fill="#263238"/><path d="M429.1,449.43a1,1,0,0,1-.12-.73,1.67,1.67,0,0,1,.3-.75,1,1,0,0,1,.87-.53.42.42,0,0,1,.31.49,1.06,1.06,0,0,1-.18.46,3.083,3.083,0,0,1-.5.63,1.53,1.53,0,0,1-.6.41,5.6,5.6,0,0,0,.5-.51,3.69,3.69,0,0,0,.45-.62c.14-.22.24-.61,0-.66s-.53.23-.69.43a1.78,1.78,0,0,0-.3.67A3.552,3.552,0,0,0,429.1,449.43Z" fill="#263238"/><path d="M446.62,448.53h-1.19a5.06,5.06,0,0,0-4.28,3.33c-.25.69-.28,1.16-.32,1.15a1.111,1.111,0,0,1,0-.32,3.9,3.9,0,0,1,.18-.88,4.85,4.85,0,0,1,4.4-3.39,4.7,4.7,0,0,1,.89,0A1.025,1.025,0,0,1,446.62,448.53Z" fill="#263238"/><path d="M445,441.78a27.5,27.5,0,0,1,.11,3.32,26.646,26.646,0,0,1-.1,3.33,29.166,29.166,0,0,1-.1-3.33,30.645,30.645,0,0,1,.09-3.32Z" fill="#263238"/><path d="M438.79,451.53a8.459,8.459,0,0,1-2.37.21,9.33,9.33,0,0,1-2.36-.21c0-.06,1.06,0,2.36,0S438.78,451.48,438.79,451.53Z" fill="#263238"/><path d="M442,451.56s-.09.23-.2.47-.17.45-.23.45-.08-.26.05-.53S441.93,451.53,442,451.56Z" fill="#263238"/><path d="M443.17,450.09a1.008,1.008,0,0,1-.24.37c-.17.16-.33.28-.37.24s.07-.21.24-.38S443.13,450.05,443.17,450.09Z" fill="#263238"/><path d="M444.89,449.43c0,.05-.23.05-.47.13s-.41.21-.45.17.1-.26.39-.36S444.91,449.38,444.89,449.43Z" fill="#263238"/><path d="M446.11,449.12c0,.05-.07.14-.21.19s-.26.05-.28,0,.08-.14.21-.19S446.09,449.07,446.11,449.12Z" fill="#263238"/><path d="M460.82,216.38a11.38,11.38,0,0,1-4.08-4.16,6,6,0,0,1-.07-5.65,4.1,4.1,0,0,1,5.06-1.77,5,5,0,0,1,3.31-5.19,8,8,0,0,1,5.22.53,28.831,28.831,0,0,0,5,1.82c2.5.45,5-.2,7.59-.16a6.11,6.11,0,0,1,3.12.75c1.75,1.09,2.35,3.36,2.45,5.43a2.42,2.42,0,0,1,2.23,1.4,5.3,5.3,0,0,1,.44,2.73,13.2,13.2,0,0,1-3.09,7.73" fill="#455a64"/><circle cx="7.21" cy="7.21" r="7.21" transform="translate(456.27 219.37)" fill="#35a3be"/><path d="M474.68,204.79A13.72,13.72,0,0,0,461,218.24c-.13,6.8-.17,14,.16,16.15,1.36,8.56,7.92,9.65,7.92,9.65s.11,5.36.13,10.45c0,4.85,4.23,8.87,9.42,9h0c5.14.11,9.32-3.66,9.38-8.46l.41-36.36a13.71,13.71,0,0,0-13.71-13.86Z" fill="#ffbe9d"/><path d="M462.78,222.31a1.1,1.1,0,0,0,1.06,1.11,1.05,1.05,0,0,0,1.13-1,1.1,1.1,0,0,0-1.06-1.11,1.05,1.05,0,0,0-1.13,1Z" fill="#263238"/><path d="M462.54,221.08c.14.15,1-.47,2.15-.47s2.05.6,2.18.45-.08-.32-.46-.59a3,3,0,0,0-1.74-.54,2.87,2.87,0,0,0-1.71.55C462.6,220.76,462.48,221,462.54,221.08Z" fill="#263238"/><path d="M474.6,222.31a1.1,1.1,0,0,0,1.06,1.11,1,1,0,0,0,1.13-1,1.09,1.09,0,0,0-1.05-1.11,1.06,1.06,0,0,0-1.14,1Z" fill="#263238"/><path d="M474.15,221.3c.14.15,1-.47,2.15-.47s2.05.6,2.18.45-.08-.32-.46-.59a3,3,0,0,0-1.74-.54,2.87,2.87,0,0,0-1.71.55C474.21,221,474.09,221.24,474.15,221.3Z" fill="#263238"/><path d="M469.87,230.06a8.468,8.468,0,0,0-1.92-.34c-.3,0-.59-.09-.64-.3a1.5,1.5,0,0,1,.2-.89l.89-2.3a40,40,0,0,0,2-6,38.106,38.106,0,0,0-2.49,5.83c-.29.81-.58,1.58-.85,2.31a1.82,1.82,0,0,0-.16,1.19.78.78,0,0,0,.5.44,2,2,0,0,0,.51.07A7.74,7.74,0,0,0,469.87,230.06Z" fill="#263238"/><path d="M469.05,244a21.76,21.76,0,0,0,11.46-3s-2.78,5.88-11.34,5.08Z" fill="#eb996e"/><path d="M473.34,230.88c-.19,0-.19,1.27-1.29,2.18s-2.46.77-2.47.95.3.25.88.26a3.17,3.17,0,0,0,2.06-.72,2.74,2.74,0,0,0,1-1.82C473.57,231.19,473.43,230.87,473.34,230.88Z" fill="#263238"/><path d="M473.85,216.67c.11.33,1.29.17,2.68.34s2.51.55,2.69.26-.11-.44-.57-.75a4.42,4.42,0,0,0-2-.7,4.6,4.6,0,0,0-2.1.24C474.05,216.27,473.8,216.52,473.85,216.67Z" fill="#455a64"/><path d="M463,217.66c.2.27,1,0,2,0s1.8.18,2-.1,0-.4-.4-.66a2.91,2.91,0,0,0-3.23.1C463,217.26,462.88,217.53,463,217.66Z" fill="#455a64"/><path d="M487.29,221.65c.13-.06,4.95-1.7,5,3.3s-5,4-5,3.87Z" fill="#ffbe9d"/><path d="M488.82,226.91a1.569,1.569,0,0,0,.23.12.84.84,0,0,0,.65,0,2.15,2.15,0,0,0,1-1.94,2.75,2.75,0,0,0-.26-1.24,1,1,0,0,0-.66-.66.44.44,0,0,0-.51.24c-.06.14,0,.24-.06.25s-.11-.08-.07-.29a.52.52,0,0,1,.2-.31.66.66,0,0,1,.47-.14,1.24,1.24,0,0,1,.92.77,3,3,0,0,1,.32,1.39,2.27,2.27,0,0,1-1.25,2.17,1,1,0,0,1-.8-.13C488.83,227,488.8,226.92,488.82,226.91Z" fill="#eb996e"/><path d="M459.93,213.25s4.42,2.14,10.17-.73c3.78-1.88,8.18-2.8,9.15-2s1.17,4.64,4.91,5.78c0,0-.26,7.42,2.7,7.15s2.93-13.27,2.93-13.27l-8.73-6.45-9.5-.76-7.68,3.12-4.24,3.21Z" fill="#455a64"/><path d="M480.54,225.87a7.2,7.2,0,1,0,2.109-5.1A7.21,7.21,0,0,0,480.54,225.87Z" fill="#35a3be"/><path d="M485,220.75s.29-15.36-9.48-19.64h4.38s7.76,1.13,8.52,18.43" fill="#35a3be"/><g opacity="0.2"><path d="M484.75,225.87a3,3,0,1,0,3-3,3,3,0,0,0-3,3Z"/></g><path d="M485.5,227.61a3.7,3.7,0,0,0,1.49.93,3.07,3.07,0,0,0,1.87,0,3,3,0,0,0,1.68-3.81,3.1,3.1,0,0,0-1.24-1.41,3.5,3.5,0,0,0-1.7-.46,1.36,1.36,0,0,1,.49,0,2.85,2.85,0,0,1,1.28.38,3.13,3.13,0,0,1,1.34,1.45,3.053,3.053,0,0,1-1.75,4.07,3.14,3.14,0,0,1-2,0,2.8,2.8,0,0,1-1.15-.69,1.67,1.67,0,0,1-.31-.46Z" fill="#263238"/><path d="M483.49,225.79a3.1,3.1,0,0,1,.09-1,4.28,4.28,0,0,1,1.54-2.4,4.35,4.35,0,1,1,0,6.89,4.26,4.26,0,0,1-1.54-2.39,3.1,3.1,0,0,1-.09-1.05,6.66,6.66,0,0,0,.17,1,4.18,4.18,0,1,0,1.55-4.36,4.24,4.24,0,0,0-1.55,2.3,6.664,6.664,0,0,0-.17,1.01Z" fill="#263238"/><path d="M457.06,206.65a9.633,9.633,0,0,0-.43,1.13,1.68,1.68,0,0,0,.1,1.34,3.8,3.8,0,0,0,1.35,1.24,6.91,6.91,0,0,0,4.71.58,16.5,16.5,0,0,0,5.44-2.39,31.529,31.529,0,0,1,5.28-2.89,5.38,5.38,0,0,1,2.62-.37,3.59,3.59,0,0,1,2,1.06,5.08,5.08,0,0,1,1.32,3,5.359,5.359,0,0,1,0,1.21v-.31a4.667,4.667,0,0,0-.07-.89,5,5,0,0,0-1.34-2.92,3.45,3.45,0,0,0-2-1,5.27,5.27,0,0,0-2.52.38,32.452,32.452,0,0,0-5.24,2.89,16.44,16.44,0,0,1-5.51,2.39,6.92,6.92,0,0,1-4.82-.63,3.8,3.8,0,0,1-1.38-1.31,1.74,1.74,0,0,1-.07-1.42A5.7,5.7,0,0,1,457.06,206.65Z" fill="#263238"/><path d="M480.11,212.47a2.305,2.305,0,0,1,.1-.33,10.322,10.322,0,0,0,.27-1,7.38,7.38,0,0,0,0-3.62,4.87,4.87,0,0,0-1.23-2.15,5.19,5.19,0,0,0-2.51-1.32,7,7,0,0,0-3.16,0,12.149,12.149,0,0,0-3.18,1.29c-2.06,1.17-3.83,2.61-5.68,3.56a10,10,0,0,1-2.76,1,3.28,3.28,0,0,1-2.49-.48,3.13,3.13,0,0,1-1.26-1.7,3.19,3.19,0,0,1,0-1.59,3,3,0,0,1,.38-.93,1.488,1.488,0,0,1,.22-.28,3.461,3.461,0,0,0-.52,1.23,3.15,3.15,0,0,0,.06,1.54,3,3,0,0,0,1.23,1.6,3.14,3.14,0,0,0,2.38.44,9.86,9.86,0,0,0,2.7-1c1.82-1,3.59-2.39,5.67-3.57a12.39,12.39,0,0,1,3.23-1.31,7.14,7.14,0,0,1,3.25,0,5.33,5.33,0,0,1,2.59,1.38,5,5,0,0,1,1.25,2.23,7.1,7.1,0,0,1-.07,3.68A6.86,6.86,0,0,1,480.11,212.47Z" fill="#263238"/><path d="M508.91,274.28l-7.29,36.41,1.3,27.29-52-1.69,4.92-30.36V286.16l-6.7,8.5L435,278.09l16.67-17.74h0a28.881,28.881,0,0,1,11.21-7.26,18.61,18.61,0,0,1,6.3-1.34h0a36.31,36.31,0,0,0,19.32.19l1.21.14h.22a21.67,21.67,0,0,1,18.9,20.37Z" fill="#05d6bf"/><path d="M489.69,252.09s20.13.15,22.62,21.41l1.25,15.8-18.25-.36Z" fill="#05d6bf"/><path d="M510.64,266.08l-.7.06a9,9,0,0,1-2-.17,18.11,18.11,0,0,1-3.05-.89c-1.16-.42-2.46-1-3.95-1.42a10.51,10.51,0,0,0-5-.37,15.28,15.28,0,0,0-5.34,2.21c-1.74,1.08-3.41,2.45-5.23,3.77a21.181,21.181,0,0,1-6.09,3.31,18.25,18.25,0,0,1-13.14-.69,37.736,37.736,0,0,1-5.05-3,41.581,41.581,0,0,0-4.34-2.63,12.6,12.6,0,0,0-7.09-1.47,8.479,8.479,0,0,0-1.93.48l-.64.28s.21-.12.63-.31a7.809,7.809,0,0,1,1.93-.53,12.55,12.55,0,0,1,7.16,1.42,40.57,40.57,0,0,1,4.38,2.61,37.609,37.609,0,0,0,5,2.94,18.19,18.19,0,0,0,13,.66,21.141,21.141,0,0,0,6-3.27c1.81-1.32,3.49-2.69,5.25-3.78a15.45,15.45,0,0,1,5.41-2.21,10.57,10.57,0,0,1,5.06.4c1.49.45,2.79,1,3.94,1.45a18.379,18.379,0,0,0,3,.92,9.388,9.388,0,0,0,2,.21Z" fill="#fafafa"/><path d="M452.53,289.4a3.059,3.059,0,0,1-.79-.3,5.5,5.5,0,0,1-1.76-1.47,10.761,10.761,0,0,1-1.63-3c-.46-1.2-.83-2.56-1.41-3.9a8.431,8.431,0,0,0-2.39-3.29,8.52,8.52,0,0,0-2.93-1.59,9.669,9.669,0,0,0-3.07-.39,4.079,4.079,0,0,1,.84-.07,7.748,7.748,0,0,1,2.27.32,8.38,8.38,0,0,1,5.47,4.94c.59,1.36.95,2.72,1.4,3.91a10.589,10.589,0,0,0,1.57,3A5.66,5.66,0,0,0,452.53,289.4Z" fill="#fafafa"/><path d="M493.55,284.73l-.36-.18a8.292,8.292,0,0,0-1.08-.44,9.34,9.34,0,0,0-4.23-.24,20.671,20.671,0,0,0-6,2.11,28.389,28.389,0,0,1-7.32,2.73,21.77,21.77,0,0,1-17.54-4.12c-.78-.65-1.19-1-1.19-1s.12.08.33.25l.91.72a23,23,0,0,0,3.67,2.22,22.259,22.259,0,0,0,6.05,1.87,21.909,21.909,0,0,0,7.73-.1,28.258,28.258,0,0,0,7.28-2.71,20.74,20.74,0,0,1,6-2.08,9.4,9.4,0,0,1,4.28.31,5.61,5.61,0,0,1,1.47.66Z" fill="#fafafa"/><path d="M513,280.63a3.12,3.12,0,0,1-.68.44,5.339,5.339,0,0,1-2.15.5,10.22,10.22,0,0,1-3.23-.51,35.257,35.257,0,0,0-3.84-1.08,16.91,16.91,0,0,0-7.15.22,20.731,20.731,0,0,0-2.09.66c-.48.19-.75.3-.75.29a12.68,12.68,0,0,1,2.8-1.09,16.22,16.22,0,0,1,7.23-.28,33,33,0,0,1,3.85,1.09,10.171,10.171,0,0,0,3.18.55,5.63,5.63,0,0,0,2.12-.42A4.906,4.906,0,0,0,513,280.63Z" fill="#fafafa"/><path d="M498.78,304l-.44-.16a12.666,12.666,0,0,0-1.23-.44,17.17,17.17,0,0,0-4.77-.7,28.747,28.747,0,0,0-7.09.9c-2.62.64-5.43,1.62-8.42,2.53a36,36,0,0,1-8.64,1.73,18.23,18.23,0,0,1-7.1-1,12.34,12.34,0,0,1-4.14-2.5,10.749,10.749,0,0,1-.9-1c-.19-.24-.28-.37-.28-.37a11.218,11.218,0,0,0,1.23,1.28,12.529,12.529,0,0,0,4.14,2.42,18.41,18.41,0,0,0,7,1,36.2,36.2,0,0,0,8.59-1.74c3-.9,5.8-1.89,8.44-2.51a28,28,0,0,1,7.14-.87,16.79,16.79,0,0,1,4.78.77A11.143,11.143,0,0,1,498.78,304Z" fill="#fafafa"/><path d="M499.48,322.93l-.47-.14a10.728,10.728,0,0,0-1.34-.32,13.429,13.429,0,0,0-5.06.27,38.67,38.67,0,0,0-7.07,2.67,38.06,38.06,0,0,1-4.19,1.63,20.29,20.29,0,0,1-4.74.89,28.21,28.21,0,0,1-9.23-1,48.384,48.384,0,0,1-7.12-2.63c-2-.89-3.53-1.68-4.61-2.22l-1.24-.64-.42-.24.44.2,1.25.6c1.09.53,2.66,1.3,4.64,2.17a50.243,50.243,0,0,0,7.11,2.57,27.91,27.91,0,0,0,9.17,1,19.769,19.769,0,0,0,4.69-.87,40.684,40.684,0,0,0,4.17-1.62,38.089,38.089,0,0,1,7.12-2.63,13,13,0,0,1,5.1-.21,7.467,7.467,0,0,1,1.8.52Z" fill="#fafafa"/><path d="M500.27,257.12l-.53.16a4.82,4.82,0,0,0-1.44.65,10.2,10.2,0,0,0-3.45,4.61,21.254,21.254,0,0,0-1.21,3.85,15.63,15.63,0,0,0-.3,2.22c0,.76,0,1.57.06,2.39.14,3.28.28,6.88.44,10.66.1,2.67.2,5.24.3,7.63l-.1-.09h-.1v-.1c-.1-2.39-.2-5-.31-7.63-.15-3.78-.29-7.38-.42-10.66,0-.82-.09-1.61-.06-2.41a14.682,14.682,0,0,1,.33-2.25,21.206,21.206,0,0,1,1.23-3.87,10,10,0,0,1,3.55-4.61,4.53,4.53,0,0,1,1.47-.63A1.317,1.317,0,0,0,500.27,257.12Z" fill="#263238"/><path d="M455.91,271.05c.06,0,.11,6.6.11,14.75s0,14.76-.11,14.76-.1-6.61-.1-14.76S455.86,271.05,455.91,271.05Z" fill="#263238"/><g opacity="0.2"><path d="M455.88,294.73c7.53,10.13,15.47,21.2,25.38,29a20.611,20.611,0,0,0,6.86,3.95,8.68,8.68,0,0,0,7.61-1,1.19,1.19,0,0,0,.5-.61c.14-.58-.51-1-1-1.27-8.76-4.19-15-12.14-22.46-18.35-5.09-4.24-16.85-11.73-16.85-11.73"/></g><path d="M448,286.05c1.23-.9,6.13,5.8,5.9,3.73s-6.93-7.48-5.61-8.36c1.72-1.16,6.73,5.95,7.2,6.52s1.29-.1.84-.59c-.65-.71-7.24-8.3-5.56-9.45.93-.64,1.89,1.18,1.89,1.18s5.66,7.57,6.43,7-2.38-5.14-3.56-6.6-1-2.6.08-2.6c.72,0,4.43,4.38,5.57,5.85s4.16,5.56,4.27,2.29v-.15c0-3.23,1.11-5.71,1.91-6.21a1.12,1.12,0,0,1,1.61,1.2,1.239,1.239,0,0,1-.11.45l-.09.23a15.728,15.728,0,0,0-.38,3.31,8.73,8.73,0,0,0,.39,2.92c.34,1.09.68,2,1,2.77l.5.6,27.41,15.5h0l-.75-15.86v-.63l16.15.16.29,21.09a27.338,27.338,0,0,1-.62,6.25c-.7,3.12-1.82,6-4.51,7.79-6.13,4.09-16,2.85-21.49-2.11l-22.77-20.69-4.71-4.28h0a104.864,104.864,0,0,1-8.67-7.23C447.19,286.7,447.49,286.39,448,286.05Z" fill="#ffbe9d"/><path d="M503,335.69s-77.34-15.93-84-12.77-30.79,78.92-30.79,78.92l19.45,7.73,25.25-61.73s52.69,20.52,61.14,18.78S503,335.69,503,335.69Z" fill="#263238"/><path d="M468.52,339.19c-1,.35-41.71,13.66-44.54,18.93s2.35,89,2.35,89h23.6v-79.3l44.51-1.12Z" fill="#263238"/><path d="M494.67,366.7a2.92,2.92,0,0,1-.66-.08l-1.86-.33c-1.61-.3-3.94-.76-6.8-1.38-5.74-1.22-13.63-3.06-22.24-5.53-4.3-1.25-8.36-2.55-12-3.82s-6.92-2.52-9.62-3.68c-1.36-.55-2.57-1.1-3.63-1.58s-2-.9-2.7-1.28l-1.69-.85a2.8,2.8,0,0,1-.57-.33,4.182,4.182,0,0,1,.62.24l1.72.76c.75.35,1.66.74,2.74,1.19s2.28,1,3.65,1.51c2.71,1.11,6,2.29,9.64,3.57s7.73,2.52,12,3.77c8.58,2.47,16.45,4.36,22.17,5.67l6.76,1.54,1.84.43A3.1,3.1,0,0,1,494.67,366.7Z" fill="#455a64"/><path d="M423.37,379a6,6,0,0,1-.21-1.31c-.1-.95-.22-2.16-.37-3.59s-.31-3.35-.49-5.33a24.271,24.271,0,0,1,0-6.6,10.24,10.24,0,0,1,3.33-5.7,17.391,17.391,0,0,1,4.55-2.92,35.679,35.679,0,0,1,3.37-1.32,6.924,6.924,0,0,1,1.28-.37c0,.09-1.76.72-4.49,2A17.75,17.75,0,0,0,426,356.8a10,10,0,0,0-3.14,5.44,25.049,25.049,0,0,0,0,6.47c.14,2,.26,3.78.37,5.34s.16,2.65.21,3.6a6.188,6.188,0,0,1-.07,1.35Z" fill="#455a64"/><path d="M480.1,373c-6.9-.46-3.65-10.37-3.48-21.4.1-6.92,4.7-13.71,9.72-18.48a23.589,23.589,0,0,1,8.8-4.92,54.77,54.77,0,0,1,26.7-1.71S534.91,376.56,480.1,373Z" fill="#455a64"/><path d="M256.88,372.87l30.21-.16c3.06,0,6.34-.1,8.83-1.77a8.54,8.54,0,0,0,3.39-8.43,15.84,15.84,0,0,0-4.63-8.26c-5-5.13-11.55-8.19-18.66-10.28l-22.61-71.45c-4.36-.38-8.79-.71-13.08.17s-8.48,3.13-10.75,6.87-2.33,8.42-2.31,12.83q.1,26.61.22,53.24c-.17,10.91.91,19.77,9,24a24.119,24.119,0,0,0,4.53,1.79h0c-.17,1.94-11,82.23-11,82.23h4.44l8.41-46.25,25.92-14.57,26.91,12.23.69-1.75L270.9,391.65,291.61,380l-.93-1.65-22,12.29-21.3-9.75,1.39-8.19C251.44,372.89,254.19,372.89,256.88,372.87Zm9.63,19-23.24,13L247,383Z" fill="#455a64"/><path d="M294.63,371.22c.19,1.95,11.76,82.44,11.76,82.44h-4.44l-14.86-81Z" fill="#455a64"/><path d="M353,300.59l11.4-4c2.94-.82,4.09-1.36,3.9-1.9-.25-.72-.12-.45-5.68.27,0,0,7.92-1.11,6-2.21a8.54,8.54,0,0,0-3-.09c2-.39,2.84-1,2.8-1.48-.08-.9-4.79-.46-7-.21a42.617,42.617,0,0,0,6-1c1-.46-.19-1.07-1.34-1.28s-9-.56-11.23-.77a1.32,1.32,0,0,1-1.34-1.49c.9-3.12-.07-6-.7-6.68s-1.75,0-1.61,1A12.119,12.119,0,0,1,351,284a8,8,0,0,1-.91,2.45c-.52.88-1,1.6-1.41,2.2l-7.51,2.11,3.1,12.24Z" fill="#aa6550"/><path d="M360.16,295.26a28.481,28.481,0,0,0,7.57-1.19,15.44,15.44,0,0,0-3.82.34A14.658,14.658,0,0,0,360.16,295.26Z" fill="#874030"/><path d="M359.59,293.11a16.71,16.71,0,0,0,4.09-.13,16.54,16.54,0,0,0,4.05-.65A33.459,33.459,0,0,0,359.59,293.11Z" fill="#874030"/><path d="M359.44,291.08a15.131,15.131,0,0,0,3.88-.06,15.292,15.292,0,0,0,3.84-.57,15.22,15.22,0,0,0-3.89.06,15,15,0,0,0-3.83.57Z" fill="#874030"/><path d="M291.44,252.56s7.88,20.17,7.86,27.93c0,5.1-1.33,46.31-1.33,46.31l-48.12,10.88,11.89-32.83L258,289.65l.83-37.09Z" fill="#ff8900"/><path d="M291.44,252.56a16.6,16.6,0,0,1,11.67,11.71c2.75,9.82,10.14,28.86,10.14,28.86l33.5-5,4.09,13.69-34,10.66a15.71,15.71,0,0,1-18.56-9.88L288,274.17Z" fill="#ff8900"/><path d="M258.79,252.56s-8.38,1.94-11.93,9.35-15.15,38.69-15.15,38.69L253,302.54l7.09-18.38Z" fill="#ff8900"/><path d="M232.36,298.86c-.14.38-2.6,1-2.33,3.68s.42,8.6,5,8.87,21.83-7.19,21.83-7.19v-3.37a3.56,3.56,0,0,0-3.82-3.54Z" fill="#ff8900"/><path d="M298.9,306.42a7.719,7.719,0,0,1-.1-1.49c0-1-.05-2.35,0-4.06,0-3.43.16-8.17.06-13.39a57.808,57.808,0,0,0-.62-7.31c-.36-2.22-.82-4.21-1.25-5.86s-.85-3-1.14-3.89a7.163,7.163,0,0,1-.38-1.44,8.62,8.62,0,0,1,.58,1.38c.35.89.79,2.21,1.29,3.85a51.856,51.856,0,0,1,1.38,5.89,54.851,54.851,0,0,1,.66,7.37c.1,5.25-.14,10-.21,13.4-.05,1.64-.09,3-.13,4.06A8.911,8.911,0,0,1,298.9,306.42Z" fill="#263238"/><path d="M262.37,277.55c.13.05-1.38,4.45-3.37,9.83a103.1,103.1,0,0,1-3.86,9.65,100.913,100.913,0,0,1,3.37-9.83,99.943,99.943,0,0,1,3.86-9.65Z" fill="#263238"/><path d="M255.86,298.57a9.51,9.51,0,0,0-3.24-1.32,15.79,15.79,0,0,0-3.81-.17c-1.44.09-3,.28-4.71.45-3.35.36-6.37.76-8.56,1.05A27.718,27.718,0,0,1,232,299a3.388,3.388,0,0,1,.93-.26c.6-.13,1.48-.31,2.57-.5,2.17-.38,5.2-.83,8.55-1.2,1.68-.17,3.27-.34,4.75-.41a14.791,14.791,0,0,1,3.91.29,7.279,7.279,0,0,1,2.44,1C255.66,298.27,255.88,298.55,255.86,298.57Z" fill="#263238"/><path d="M254,301.26a32.692,32.692,0,0,1-3.46.42c-2.14.23-5.09.62-8.31,1.26s-6.09,1.39-8.15,2a29.417,29.417,0,0,1-3.37.92,3.69,3.69,0,0,1,.85-.4c.56-.23,1.38-.53,2.41-.87a68.409,68.409,0,0,1,16.53-3.26c1.08-.07,2-.11,2.56-.1a2.819,2.819,0,0,1,.94.03Z" fill="#263238"/><g opacity="0.2"><path d="M257.74,289.77l3.51,12.37a34.26,34.26,0,0,0,.43-22.07L258,289.72"/></g><g opacity="0.2"><path d="M233.19,304.72a.75.75,0,0,1-1.11-.37,1.17,1.17,0,0,1,.42-1.22,3.29,3.29,0,0,1,1.24-.58A62.63,62.63,0,0,1,252.21,300c.31,0,.74.17.63.46s-.24.2-.4.23l-19.62,3.82"/></g><path d="M258.64,253h.41a4.83,4.83,0,0,1,1.14.32,6.2,6.2,0,0,1,3.16,2.94,6.06,6.06,0,0,1-.61,6.27,6.45,6.45,0,0,1-3.12,2.27,10.73,10.73,0,0,0-3.54,1.69,5.6,5.6,0,0,0-1.35,3.54,12.35,12.35,0,0,1-.4,1.92,5.26,5.26,0,0,1-.89,1.71,5.6,5.6,0,0,1-9.34-.48,4.76,4.76,0,0,1-.48-1.09c-.07-.26-.09-.4-.07-.41a10.243,10.243,0,0,0,.72,1.39,5.76,5.76,0,0,0,3.36,2.35,5.37,5.37,0,0,0,5.43-2,6.68,6.68,0,0,0,1.16-3.41,13.316,13.316,0,0,1,.39-2,4,4,0,0,1,1.12-1.85,10.76,10.76,0,0,1,3.71-1.79,5.9,5.9,0,0,0,2.91-2.07,5.73,5.73,0,0,0,.67-5.82,6.14,6.14,0,0,0-2.91-2.92,12.14,12.14,0,0,0-1.47-.56Z" fill="#fafafa"/><path d="M270.28,279a5.223,5.223,0,0,1-.19.87l-.64,2.47a26,26,0,0,0-.9,9.22,13.34,13.34,0,0,0,2.21,5.92,9.559,9.559,0,0,0,2.5,2.45,9.27,9.27,0,0,0,3.46,1.35,24.38,24.38,0,0,0,8.08-.31,16.641,16.641,0,0,0,8-3.22,8.36,8.36,0,0,0,3-7.59,5.75,5.75,0,0,0-2-3.39,14.54,14.54,0,0,0-3.41-2,32.712,32.712,0,0,1-3.47-1.68,8.82,8.82,0,0,1-2.68-2.5,26,26,0,0,0-2-2.71,7.51,7.51,0,0,0-7.57-2,7.65,7.65,0,0,0-3.3,2.13,8.54,8.54,0,0,0-1.7,2.93,3.939,3.939,0,0,1,.23-.86,7.409,7.409,0,0,1,1.32-2.2,7.77,7.77,0,0,1,3.36-2.28,7.64,7.64,0,0,1,5.34.23,7.46,7.46,0,0,1,2.61,1.78,24.346,24.346,0,0,1,2,2.72,8,8,0,0,0,2.57,2.36,31.007,31.007,0,0,0,3.42,1.65,14.47,14.47,0,0,1,3.54,2,6.24,6.24,0,0,1,2.18,3.68,8.85,8.85,0,0,1-3.21,8.08,17,17,0,0,1-8.2,3.32,24.56,24.56,0,0,1-8.26.28,9.66,9.66,0,0,1-3.62-1.44,9.82,9.82,0,0,1-2.6-2.58,13.69,13.69,0,0,1-2.23-6.12,20.269,20.269,0,0,1,.19-5.37,37,37,0,0,1,.89-3.95c.29-1.07.55-1.89.73-2.45l.21-.63Z" fill="#fafafa"/><path d="M304.81,270.56a2,2,0,0,1-.9-.2,4.27,4.27,0,0,1-1.94-1.6,4.06,4.06,0,0,1-.68-1.64c-.12-.63-.08-1.3-.21-1.93a1.61,1.61,0,0,0-1.22-1.31c-.66-.2-1.45-.16-2.27-.35a5.67,5.67,0,0,1-3.63-2.76,5.41,5.41,0,0,1,.55-6c.38-.45.66-.63.68-.61a6.91,6.91,0,0,0-1.4,2.95,5.05,5.05,0,0,0,.58,3.39,5.4,5.4,0,0,0,3.33,2.5c.73.17,1.53.13,2.31.36a2.17,2.17,0,0,1,1.05.64,2.331,2.331,0,0,1,.49,1.06c.13.73.07,1.39.17,2a3.74,3.74,0,0,0,.56,1.51,4.48,4.48,0,0,0,1.72,1.62,7.922,7.922,0,0,1,.81.37Z" fill="#fafafa"/><path d="M336.75,290a1.12,1.12,0,0,1,.49.39,2.18,2.18,0,0,1,.3,1.75,2.59,2.59,0,0,1-.6,1.19,4.069,4.069,0,0,1-1.26.92,36.154,36.154,0,0,1-3.54,1.14,4,4,0,0,0-1.72,1.09,3.91,3.91,0,0,0-.9,2c-.29,1.55,0,3.3-.4,5.15a6.15,6.15,0,0,1-3.64,4.41,5.26,5.26,0,0,1-3.12.19,4.92,4.92,0,0,1-2.68-1.76,4,4,0,0,0-2.28-1.72,6.161,6.161,0,0,0-2.8.58,6.18,6.18,0,0,1-3,.37,6.65,6.65,0,0,1-2.68-1,7,7,0,0,1-3-4.26,9.17,9.17,0,0,1,.06-4.55,12.27,12.27,0,0,1,3.41-5.55,14.312,14.312,0,0,1,1.35-1.15,2.5,2.5,0,0,1,.51-.35s-.65.55-1.72,1.65a12.46,12.46,0,0,0-3.19,5.49,8.88,8.88,0,0,0,0,4.35,6.54,6.54,0,0,0,2.84,4,5.61,5.61,0,0,0,5.23.57,6.64,6.64,0,0,1,3.05-.6,2.9,2.9,0,0,1,1.5.73,11.939,11.939,0,0,1,1.1,1.16,4.5,4.5,0,0,0,5.22,1.43,5.72,5.72,0,0,0,3.36-4c.38-1.71.12-3.48.44-5.12a4.32,4.32,0,0,1,1-2.19A4.56,4.56,0,0,1,332,295c1.33-.45,2.57-.59,3.54-1.06a2.89,2.89,0,0,0,1.78-1.88,2.1,2.1,0,0,0-.19-1.65,3.481,3.481,0,0,0-.38-.41Z" fill="#fafafa"/><path d="M258.37,290.25a23.64,23.64,0,0,0-2.58-1,9.29,9.29,0,0,0-11,5.09,25.374,25.374,0,0,0-.91,2.62,1.93,1.93,0,0,1,0-.76,8.221,8.221,0,0,1,.55-2,9.22,9.22,0,0,1,11.47-5.29,7.82,7.82,0,0,1,1.89.89C258.19,290,258.39,290.22,258.37,290.25Z" fill="#fafafa"/><path d="M290.61,317.63a1.909,1.909,0,0,1,.17.29,5.229,5.229,0,0,1,.28.94,5.6,5.6,0,0,1-.59,3.53,5.15,5.15,0,0,1-1.7,1.86,5.33,5.33,0,0,1-2.77.85,5.68,5.68,0,0,1-3.1-.81c-1-.56-1.57-1.76-2.61-1.7a7,7,0,0,0-2.88,1.29,5.731,5.731,0,0,1-8.75-5.06,5.563,5.563,0,0,1,.13-1c.06-.21.1-.32.12-.32a7.162,7.162,0,0,0,0,1.29A6,6,0,0,0,270,322a5.51,5.51,0,0,0,7.19,1.4c.46-.26.92-.57,1.42-.84a3.74,3.74,0,0,1,1.72-.53,2.32,2.32,0,0,1,1.67.76,6.693,6.693,0,0,0,1.21,1,5.28,5.28,0,0,0,2.82.76,5,5,0,0,0,2.55-.73,4.85,4.85,0,0,0,1.61-1.68,5.63,5.63,0,0,0,.71-3.32C290.76,318.07,290.56,317.65,290.61,317.63Z" fill="#fafafa"/><path d="M360,421.85l3.55,24.59-16.01,2.2-3.27-24.05Z" fill="#aa6550"/><path d="M363.09,446.91l-.24-1.41-15.56,2.06,1,5.84,1-.1c4.28-.5,21.73-2.86,24.42-4.21C376.66,447.58,363.09,446.91,363.09,446.91Z" fill="#ff8900"/><g opacity="0.5"><path d="M353.84,452.31a5.45,5.45,0,0,0-2.54-2.93,5.24,5.24,0,0,0-3.78-.49l.74,4.29Z" fill="#fff"/></g><g opacity="0.5"><path d="M369.76,447.47s4.81.52,4.37,1.37-18,3.9-25.85,4.56v-.34l20.5-3.38S368.87,447.66,369.76,447.47Z" fill="#fff"/></g><path d="M348,453.09a1.1,1.1,0,0,0,.27,0L349,453l2.82-.37c2.37-.32,5.64-.81,9.25-1.44s6.85-1.25,9.2-1.74l2.77-.6.75-.18.26-.07h-.27l-.76.14-2.78.55c-2.35.45-5.6,1.07-9.21,1.69s-6.86,1.13-9.23,1.49l-2.81.42-.76.12Z" fill="#263238"/><path d="M368.78,449.92a6.778,6.778,0,0,1,.29-1.42,7.449,7.449,0,0,1,.77-1.24,2.1,2.1,0,0,0-.94,1.17,2.16,2.16,0,0,0-.12,1.49Z" fill="#263238"/><path d="M363.85,448.41a3.045,3.045,0,0,0,.38-.68c.16-.4.26-.72.21-.74s-.22.28-.38.67S363.8,448.39,363.85,448.41Z" fill="#263238"/><path d="M362.49,448a2.5,2.5,0,0,0,.48-.46c.22-.28.37-.54.33-.57s-.25.17-.48.45S362.45,447.93,362.49,448Z" fill="#263238"/><path d="M361.45,446.65a1.76,1.76,0,0,0,.82,0,1.82,1.82,0,0,0,.79-.22,3.69,3.69,0,0,0-1.61.26Z" fill="#263238"/><path d="M361,445.67a1.571,1.571,0,0,0,.94.11,1.67,1.67,0,0,0,.9-.28,4.57,4.57,0,0,0-.92.09,5.5,5.5,0,0,0-.92.08Z" fill="#263238"/><path d="M364.14,447a3,3,0,0,0,1-.18,6.45,6.45,0,0,0,1-.42,2.69,2.69,0,0,0,.56-.35.55.55,0,0,0,.19-.35.43.43,0,0,0-.22-.37,1.85,1.85,0,0,0-2.15.92,1.921,1.921,0,0,0-.21.72.6.6,0,0,0,0,.27,2.9,2.9,0,0,1,.31-.92,1.83,1.83,0,0,1,.75-.7,1.58,1.58,0,0,1,1.19-.12c.17.09.15.28,0,.42a3.057,3.057,0,0,1-.52.33,6.6,6.6,0,0,1-1,.44C364.51,446.88,364.13,447,364.14,447Z" fill="#263238"/><path d="M364.4,447a1,1,0,0,0,0-.7,1.62,1.62,0,0,0-.4-.68,1,1,0,0,0-.91-.36.4.4,0,0,0-.22.51,1.17,1.17,0,0,0,.24.41,3.323,3.323,0,0,0,.57.52,1.45,1.45,0,0,0,.64.3,5.539,5.539,0,0,1-.56-.41,3.609,3.609,0,0,1-.51-.52c-.17-.19-.33-.54-.09-.63s.54.13.72.3a1.711,1.711,0,0,1,.39.6,2.839,2.839,0,0,1,.13.66Z" fill="#263238"/><path d="M347.59,448.83a5.9,5.9,0,0,1,1.14-.16,5.17,5.17,0,0,1,2.66.59,5.08,5.08,0,0,1,1.92,1.92c.35.62.45,1.06.49,1.05a1.212,1.212,0,0,0-.06-.31,3.713,3.713,0,0,0-.31-.8,4.76,4.76,0,0,0-1.95-2,4.83,4.83,0,0,0-2.76-.56,3.813,3.813,0,0,0-.84.17A1,1,0,0,0,347.59,448.83Z" fill="#263238"/><path d="M355.51,450.5a8.779,8.779,0,0,0,2.28-.19,9.143,9.143,0,0,0,2.21-.58c0-.06-1,.19-2.24.4S355.51,450.44,355.51,450.5Z" fill="#263238"/><path d="M352.5,451s.12.2.26.41.23.41.28.39,0-.25-.13-.5A.585.585,0,0,0,352.5,451Z" fill="#263238"/><path d="M351.12,449.78a.9.9,0,0,0,.28.32c.19.13.36.21.39.17s-.09-.19-.28-.32S351.15,449.74,351.12,449.78Z" fill="#263238"/><path d="M349.38,449.42c0,.05.22,0,.46.05s.43.13.46.09-.13-.23-.43-.27S349.36,449.37,349.38,449.42Z" fill="#263238"/><path d="M348.17,449.31c0,.06.09.12.23.15a.653.653,0,0,0,.26,0,.4.4,0,0,0-.22-.14C348.31,449.29,348.18,449.26,348.17,449.31Z" fill="#263238"/><path d="M311.37,423.71l-9.85,21.33-14.35-7.43,7.12-15.76Z" fill="#aa6550"/><path d="M300.88,445.17l.61-1.3-13.9-7.28L285,441.94l.85.47c3.79,2,19.41,10.19,22.38,10.63C311.58,453.53,300.88,445.17,300.88,445.17Z" fill="#ff8900"/><g opacity="0.5"><path d="M290.2,444.24a5.35,5.35,0,0,0-.38-3.85A5.24,5.24,0,0,0,287,437.8l-1.87,3.94Z" fill="#fff"/></g><g opacity="0.5"><path d="M306,449.46s3.62,3.2,2.77,3.64-16.94-7.18-23.75-11.16l.18-.31,18.69,9.06S305.17,449.11,306,449.46Z" fill="#fff"/></g><path d="M285,441.52l.23.14.68.37,2.5,1.33c2.13,1.1,5.09,2.58,8.39,4.15s6.33,2.92,8.53,3.88l2.61,1.1.72.29a.84.84,0,0,0,.25.09l-.24-.12-.7-.32-2.59-1.17c-2.18-1-5.19-2.35-8.5-3.92s-6.26-3-8.4-4.1L285.93,442l-.69-.34Z" fill="#263238"/><path d="M303.8,450.9a6,6,0,0,1,1.05-1,6.423,6.423,0,0,1,1.34-.57,2.52,2.52,0,0,0-2.39,1.56Z" fill="#263238"/><path d="M300.64,446.82c0,.05.34-.1.7-.33s.62-.44.6-.49a1.81,1.81,0,0,0-.7.33C300.88,446.56,300.61,446.78,300.64,446.82Z" fill="#263238"/><path d="M299.78,445.68c0,.05.31,0,.65-.1s.62-.22.6-.27-.3,0-.65.09S299.77,445.63,299.78,445.68Z" fill="#263238"/><path d="M299.69,444a2.08,2.08,0,0,0,.69.44c.4.2.75.32.77.27s-.28-.24-.69-.44A3.141,3.141,0,0,0,299.69,444Z" fill="#263238"/><path d="M299.89,443a2.177,2.177,0,0,0,.7.63,1.61,1.61,0,0,0,.9.29,5.64,5.64,0,0,0-.8-.46,6.213,6.213,0,0,0-.8-.46Z" fill="#263238"/><path d="M301.7,445.82a2.611,2.611,0,0,0,.91.42,5.929,5.929,0,0,0,1.06.25,2.822,2.822,0,0,0,.66,0,.51.51,0,0,0,.36-.17.4.4,0,0,0,0-.43,1.84,1.84,0,0,0-2.28-.49,1.74,1.74,0,0,0-.58.47c-.11.13-.15.22-.14.23a2.781,2.781,0,0,1,.77-.58,1.85,1.85,0,0,1,1-.13,1.51,1.51,0,0,1,1,.58c.09.18,0,.32-.25.34a4.191,4.191,0,0,1-.61,0,7.882,7.882,0,0,1-1.05-.2C302.06,446,301.71,445.79,301.7,445.82Z" fill="#263238"/><path d="M301.91,446a1,1,0,0,0,.4-.58,1.63,1.63,0,0,0,.07-.78,1,1,0,0,0-.54-.82.4.4,0,0,0-.47.29,1,1,0,0,0,0,.47,2.871,2.871,0,0,0,.17.75,1.43,1.43,0,0,0,.34.62,6.794,6.794,0,0,0-.22-.66,4.314,4.314,0,0,1-.12-.72c0-.25.05-.63.29-.57s.36.42.42.67a1.51,1.51,0,0,1,0,.71A3.77,3.77,0,0,1,301.91,446Z" fill="#263238"/><path d="M287.1,437.8a11.054,11.054,0,0,1,1,.53,5,5,0,0,1,1.83,2,5.13,5.13,0,0,1,.47,2.68c-.08.71-.25,1.12-.21,1.13s.06-.09.13-.28a4.671,4.671,0,0,0,.21-.83,4.75,4.75,0,0,0-2.36-4.83,4.531,4.531,0,0,0-.79-.34A.941.941,0,0,0,287.1,437.8Z" fill="#263238"/><path d="M292.62,443.73a8.621,8.621,0,0,0,2,1.16,9.211,9.211,0,0,0,2.14.8c0-.06-.93-.43-2.06-1A14.83,14.83,0,0,0,292.62,443.73Z" fill="#263238"/><path d="M289.86,442.4c-.05,0,0,.23,0,.48v.49a.689.689,0,0,0,.18-.48C290.04,442.6,289.91,442.38,289.86,442.4Z" fill="#263238"/><path d="M289.44,440.61c-.05,0,0,.21,0,.42s.18.38.23.36,0-.2,0-.42S289.49,440.59,289.44,440.61Z" fill="#263238"/><path d="M288.23,439.31c0,.05.17.14.35.31s.26.35.32.34,0-.27-.19-.47S288.23,439.26,288.23,439.31Z" fill="#263238"/><path d="M287.3,438.53a.39.39,0,0,0,.1.25c.1.1.21.15.24.11s0-.14-.1-.24S287.34,438.49,287.3,438.53Z" fill="#263238"/><path d="M250.64,336.65S245.27,356,262.4,361.37l51.22,1.68-24.37,62,22,6.23L339.4,368a20.72,20.72,0,0,0,2.23-9.37h0a20.79,20.79,0,0,0-15.88-20.21l-40-9.7-34.34,8.19" fill="#263238"/><path d="M271,333.34s-9.82,19.67,12.22,24l51.67,6,6.78,66.42,21.42-1.29-4.74-70.15a23,23,0,0,0-16.12-20.87L298,326.8l-27,6.54" fill="#263238"/><path d="M330.3,388.44a9.811,9.811,0,0,1,.58-1.52c.44-1.06,1.05-2.54,1.83-4.39l6.64-15.6h0c3.16-5.74,2.42-14.64-2.7-21.1a20.28,20.28,0,0,0-7.27-5.47,47.921,47.921,0,0,0-8.13-2.82c-2.66-.72-5.23-1.26-7.62-1.8l-6.66-1.5-9.64-2.2-2.61-.63-.68-.18-.23-.07h.24l.69.13,2.64.53,9.67,2,6.68,1.44c2.4.52,5,1.05,7.64,1.76a46,46,0,0,1,8.22,2.82,20.92,20.92,0,0,1,7.47,5.6c5.24,6.64,6,15.72,2.69,21.64h0c-2.81,6.39-5.16,11.73-6.82,15.52-.82,1.84-1.48,3.3-1.95,4.34A13.993,13.993,0,0,1,330.3,388.44Z" fill="#455a64"/><path d="M317.2,355.06a30.2,30.2,0,0,1-1.78,5.3,29.842,29.842,0,0,1-2.27,5.12,30.2,30.2,0,0,1,1.78-5.3A29.842,29.842,0,0,1,317.2,355.06Z" fill="#455a64"/><path d="M254.7,304.21l27.6,2.49s8.22-3.41,10-2.49,10.06,8.56,10.06,8.56H235.52l-.5-1.36Z" fill="#aa6550"/><path d="M274.16,202.41c1.37-2.2,4.23-3,6.83-3a16.17,16.17,0,0,1,15.22,12.93c.52,2.92.21,6,1.13,8.79a24.558,24.558,0,0,0,3.1,5.6,15,15,0,0,1,2.6,5.82,5.84,5.84,0,0,1-2.14,5.7,7.13,7.13,0,0,1-6.3,12c-1.56-.27-3.24-1-4.65-.3a7.58,7.58,0,0,0-1.72,1.63c-2.16,2.21-5.74,2.57-8.62,1.45a15,15,0,0,1-6.81-6c-.45-.68-1-1.47-1.85-1.39a2.57,2.57,0,0,0-1.22.68,7.25,7.25,0,0,1-9.91-10.49,8.3,8.3,0,0,1-5.44-5.45,12.05,12.05,0,0,1,.3-7.86c1.34-3.72,4-6.78,6.67-9.74,2.41-2.71,3.12-6.9,5.53-9.6a7.72,7.72,0,0,1,4.49-3,8.94,8.94,0,0,1,5.16,1.15" fill="#263238"/><circle cx="7.21" cy="7.21" r="7.21" transform="translate(286.56 217.2)" fill="#35a3be"/><path d="M279.57,203.7a13.47,13.47,0,0,0-13.46,13.61l.39,36.82c.07,4.69,4.15,8.37,9.17,8.27h0c5.08-.11,9.2-4,9.21-8.78,0-5,.13-10.21.13-10.21s6.41-1.07,7.74-9.43c.33-2.1.35-9.82.29-16.93a13.46,13.46,0,0,0-13.47-13.35Z" fill="#aa6550"/><path d="M291.13,222.17a1.08,1.08,0,0,1-1,1.09,1,1,0,0,1-1.11-1,1.08,1.08,0,0,1,1-1.09,1,1,0,0,1,1.11,1Z" fill="#263238"/><path d="M291.37,221c-.14.14-.95-.46-2.1-.46s-2,.58-2.13.44.07-.31.44-.58a3,3,0,0,1,1.7-.53,2.91,2.91,0,0,1,1.68.54C291.31,220.66,291.43,220.91,291.37,221Z" fill="#263238"/><path d="M279.58,222.17a1.08,1.08,0,0,1-1,1.09,1,1,0,0,1-1.1-1,1.08,1.08,0,0,1,1-1.09,1,1,0,0,1,1.1,1Z" fill="#263238"/><path d="M280,221.19c-.13.14-.95-.46-2.1-.46s-2,.58-2.13.44.08-.32.45-.59a3,3,0,0,1,1.7-.52,2.8,2.8,0,0,1,1.67.54C280,220.87,280.08,221.12,280,221.19Z" fill="#263238"/><path d="M284.21,229.75a7.309,7.309,0,0,1,1.87-.34c.3,0,.58-.09.63-.29a1.52,1.52,0,0,0-.2-.87l-.87-2.25a38.391,38.391,0,0,1-2-5.87,37.84,37.84,0,0,1,2.43,5.7c.29.79.57,1.54.83,2.26a1.64,1.64,0,0,1,.15,1.15.75.75,0,0,1-.48.44,1.879,1.879,0,0,1-.5.06,7.678,7.678,0,0,1-1.86.01Z" fill="#263238"/><path d="M285,243.41a21.33,21.33,0,0,1-11.21-3s2.72,5.74,11.09,5Z" fill="#874030"/><path d="M283.72,232.53a2.06,2.06,0,0,0-1.86-.77,1.9,1.9,0,0,0-1.32.7,1.23,1.23,0,0,0-.09,1.38,1.41,1.41,0,0,0,1.52.38,4.43,4.43,0,0,0,1.47-.88,1.329,1.329,0,0,0,.33-.34.38.38,0,0,0,0-.43" fill="#874030"/><path d="M280.81,230.55c.19,0,.19,1.24,1.26,2.13s2.41.75,2.42.92-.3.25-.86.26a3.15,3.15,0,0,1-2-.7,2.77,2.77,0,0,1-1-1.79C280.59,230.85,280.73,230.54,280.81,230.55Z" fill="#263238"/><path d="M280.07,218c-.12.31-1.27.16-2.62.32s-2.45.54-2.63.25c-.08-.13.11-.43.55-.73a4.46,4.46,0,0,1,1.95-.68,4.38,4.38,0,0,1,2.05.24C279.87,217.56,280.12,217.81,280.07,218Z" fill="#263238"/><path d="M290.94,217.63c-.2.26-1,0-1.95,0s-1.77.17-2-.1.05-.4.4-.64a2.71,2.71,0,0,1,1.59-.43,2.75,2.75,0,0,1,1.56.52C290.92,217.23,291,217.5,290.94,217.63Z" fill="#263238"/><path d="M263.08,217.09c.59-5.07,3-10.17,7.33-12.84,3.81-2.34,7.71-2.88,11.5-.81a10.84,10.84,0,0,1,8.87,2.79,14.07,14.07,0,0,1,4.31,8.82c.38,3.32-.78,6.81-2,9.91-.21-2.82.09-5.74-.12-8.57-4.35-1.84-9.1-5.49-10.79-9.91a17.71,17.71,0,0,1-12.67,12.35,14.5,14.5,0,0,1-5,13.42C263.46,227.26,262.49,222.15,263.08,217.09Z" fill="#263238"/><path d="M268.63,222.1c-.65,3.24.46,6.54,1.28,9.74s1.31,6.81-.41,9.63a5,5,0,0,0-1.16,2.57,9.291,9.291,0,0,0,.87,2.37,3.71,3.71,0,0,1-1.67,4,6.07,6.07,0,0,1-4.52.65,17.821,17.821,0,0,1-4.35-1.71l-4.07-2a6.84,6.84,0,0,1-1.71-1.07,5.75,5.75,0,0,1-1.49-3,18.38,18.38,0,0,1,2.18-12.83c2.18-3.87,1.21-10.29,5-12.67" fill="#263238"/><path d="M256.68,248a8.09,8.09,0,0,1-2.18-.86,6.83,6.83,0,0,1-2-1.87,6.76,6.76,0,0,1-1.25-3.34,8.7,8.7,0,0,1,.73-4.27,10.51,10.51,0,0,1,1.25-2.09,25.937,25.937,0,0,1,1.76-1.94,18.422,18.422,0,0,0,1.84-2.14,6.181,6.181,0,0,0,1.11-2.79c.26-2.06-.52-4.1-.19-6.07a3.79,3.79,0,0,1,1.48-2.41,9.471,9.471,0,0,1,2.62-1.26,19.61,19.61,0,0,0,5.24-2.34,35.469,35.469,0,0,0,7.15-6.5c1.8-2.08,3.11-3.88,4-5.13.44-.63.78-1.12,1-1.46a3,3,0,0,0,.31-.53,4.934,4.934,0,0,0-.41.46l-1.08,1.4c-.94,1.2-2.3,3-4.13,5a36.279,36.279,0,0,1-7.13,6.34,19.67,19.67,0,0,1-5.14,2.25,9.62,9.62,0,0,0-2.78,1.34,4.35,4.35,0,0,0-1.69,2.75c-.35,2.2.44,4.21.2,6.1s-1.56,3.35-2.79,4.64c-.62.66-1.24,1.31-1.77,2a10.79,10.79,0,0,0-1.29,2.21,9,9,0,0,0-.69,4.49,6.94,6.94,0,0,0,1.39,3.49,6.76,6.76,0,0,0,2.12,1.87,5.651,5.651,0,0,0,1.67.62,2.08,2.08,0,0,0,.65.04Z" fill="#455a64"/><path d="M259.26,215.07a2.771,2.771,0,0,0,.89-.18,22.991,22.991,0,0,0,2.35-.79,36,36,0,0,0,13.39-9.1,22.145,22.145,0,0,0,1.59-1.89c.35-.46.53-.73.5-.76s-.9.92-2.37,2.38a43.19,43.19,0,0,1-13.27,9C260.45,214.57,259.23,215,259.26,215.07Z" fill="#455a64"/><path d="M288.66,202.15a4.31,4.31,0,0,0-1.22-1.1,7.09,7.09,0,0,0-3.79-1.32,4.81,4.81,0,0,0-2.21.47,4,4,0,0,0-1.44,1.17c-.64.86-.63,1.57-.57,1.56a11,11,0,0,1,.88-1.31,4.36,4.36,0,0,1,3.33-1.33,7.89,7.89,0,0,1,3.59,1.09A7.339,7.339,0,0,0,288.66,202.15Z" fill="#455a64"/><circle cx="7.21" cy="7.21" r="7.21" transform="translate(257.99 217.75)" fill="#35a3be"/><path d="M268,219.84s-.28-15.36,9.49-19.64H273.1s-7.75,1.13-8.51,18.43" fill="#35a3be"/><g opacity="0.2"><circle cx="2.99" cy="2.99" r="2.99" transform="translate(262.21 221.97)"/></g><path d="M267.45,226.7a1.821,1.821,0,0,1-.3.39,3.21,3.21,0,0,1-1.15.69,3.17,3.17,0,0,1-2,0,3.04,3.04,0,0,1,.84-5.9,1.68,1.68,0,0,1,.48,0,3.75,3.75,0,0,0-1.69.47,3.07,3.07,0,0,0-1.24,1.4,2.89,2.89,0,0,0,.06,2.25,2.84,2.84,0,0,0,1.62,1.56,3.08,3.08,0,0,0,1.87,0A3.53,3.53,0,0,0,267.45,226.7Z" fill="#263238"/><path d="M269.46,224.88a9.081,9.081,0,0,0-.17-1,4.31,4.31,0,0,0-1.55-2.29,4.13,4.13,0,1,0,1.55,4.35,8.7,8.7,0,0,0,.17-1,3.471,3.471,0,0,1-.09,1.05,4.25,4.25,0,0,1-1.55,2.4,4.352,4.352,0,1,1-.02-6.89,4.23,4.23,0,0,1,1.55,2.39,3.1,3.1,0,0,1,.11.99Z" fill="#263238"/><path d="M273.47,366.31c7.06-.46,3.74-10.61,3.57-21.9-.11-7.08-4.82-14-10-18.91a24.189,24.189,0,0,0-9-5,56,56,0,0,0-27.33-1.75S217.38,370,273.47,366.31Z" fill="#455a64"/><path d="M312.45,266.79v.16a5.26,5.26,0,0,0,3.86,6.21l8.56,2.12,3-9.14L319.4,263a5.25,5.25,0,0,0-6.95,3.79Z" fill="#455a64"/><path d="M315.3,272.72a6.45,6.45,0,0,1-.39-1.11c-.22-.7-.49-1.67-.74-2.76s-.44-2.07-.56-2.8a5.732,5.732,0,0,1-.14-1.17,6.521,6.521,0,0,1,.28,1.15c.22,1,.42,1.85.62,2.77s.44,1.79.68,2.77A6.419,6.419,0,0,1,315.3,272.72Z" fill="#263238"/><path d="M317.72,273.57c-.06,0-.53-2.29-1.05-5.13s-.91-5.16-.85-5.17.53,2.29,1.05,5.13S317.78,273.56,317.72,273.57Z" fill="#263238"/><path d="M320.7,274.1c-.06,0-.62-2.5-1.26-5.61s-1.12-5.65-1.06-5.66.62,2.5,1.26,5.61S320.75,274.09,320.7,274.1Z" fill="#263238"/><path d="M322.91,271.89a7.115,7.115,0,0,1-.23-1.18l-.51-2.85c-.19-.95-.37-1.84-.57-2.85a8.842,8.842,0,0,1-.21-1.18,5.83,5.83,0,0,1,.36,1.15c.18.72.41,1.72.63,2.84s.36,2.13.44,2.87a5.9,5.9,0,0,1,.09,1.2Z" fill="#263238"/><path d="M325,267.36a4.27,4.27,0,0,1-.42-1.32,4.51,4.51,0,0,1-.22-1.38,5.17,5.17,0,0,1,.42,1.33A4.83,4.83,0,0,1,325,267.36Z" fill="#263238"/><path d="M322.48,272.63a16.46,16.46,0,0,1-2.66.51,17.77,17.77,0,0,1-2.7.3,19.542,19.542,0,0,1,2.66-.51A17.645,17.645,0,0,1,322.48,272.63Z" fill="#263238"/><path d="M324.14,269.63c0,.05-2.36.51-5.3,1s-5.32.87-5.33.81,2.36-.51,5.3-1S324.13,269.57,324.14,269.63Z" fill="#263238"/><path d="M325.42,266.83c0,.05-2.95.52-6.6,1.05s-6.62.9-6.63.84,2.95-.53,6.6-1.05S325.41,266.77,325.42,266.83Z" fill="#263238"/><path d="M322.75,264.3c0,.06-2.21.43-5,.82s-5,.66-5,.61,2.22-.43,5-.82S322.74,264.25,322.75,264.3Z" fill="#263238"/><path d="M312.45,266.79v.16a5.26,5.26,0,0,0,3.86,6.21l8.56,2.12,3-9.14L319.4,263a5.25,5.25,0,0,0-6.95,3.79Z" fill="#455a64"/><path d="M315.3,272.72a6.45,6.45,0,0,1-.39-1.11c-.22-.7-.49-1.67-.74-2.76s-.44-2.07-.56-2.8a5.732,5.732,0,0,1-.14-1.17,6.521,6.521,0,0,1,.28,1.15c.22,1,.42,1.85.62,2.77s.44,1.79.68,2.77A6.419,6.419,0,0,1,315.3,272.72Z" fill="#263238"/><path d="M317.72,273.57c-.06,0-.53-2.29-1.05-5.13s-.91-5.16-.85-5.17.53,2.29,1.05,5.13S317.78,273.56,317.72,273.57Z" fill="#263238"/><path d="M320.7,274.1c-.06,0-.62-2.5-1.26-5.61s-1.12-5.65-1.06-5.66.62,2.5,1.26,5.61S320.75,274.09,320.7,274.1Z" fill="#263238"/><path d="M322.91,271.89a7.115,7.115,0,0,1-.23-1.18l-.51-2.85c-.19-.95-.37-1.84-.57-2.85a8.842,8.842,0,0,1-.21-1.18,5.83,5.83,0,0,1,.36,1.15c.18.72.41,1.72.63,2.84s.36,2.13.44,2.87a5.9,5.9,0,0,1,.09,1.2Z" fill="#263238"/><path d="M325,267.36a4.27,4.27,0,0,1-.42-1.32,4.51,4.51,0,0,1-.22-1.38,5.17,5.17,0,0,1,.42,1.33A4.83,4.83,0,0,1,325,267.36Z" fill="#263238"/><path d="M322.48,272.63a16.46,16.46,0,0,1-2.66.51,17.77,17.77,0,0,1-2.7.3,19.542,19.542,0,0,1,2.66-.51A17.645,17.645,0,0,1,322.48,272.63Z" fill="#263238"/><path d="M324.14,269.63c0,.05-2.36.51-5.3,1s-5.32.87-5.33.81,2.36-.51,5.3-1S324.13,269.57,324.14,269.63Z" fill="#263238"/><path d="M325.42,266.83c0,.05-2.95.52-6.6,1.05s-6.62.9-6.63.84,2.95-.53,6.6-1.05S325.41,266.77,325.42,266.83Z" fill="#263238"/><path d="M322.75,264.3c0,.06-2.21.43-5,.82s-5,.66-5,.61,2.22-.43,5-.82S322.74,264.25,322.75,264.3Z" fill="#263238"/><path d="M325.54,264.89,322,275.25l16.73,5.28a3.14,3.14,0,0,0,3.7-2.08l1.06-3.24a3.13,3.13,0,0,0-1.71-3.84Z" fill="#263238"/><path d="M327.64,271H328a2.4,2.4,0,0,1,2.4,2.4v39.34h-5.16V273.43a2.4,2.4,0,0,1,2.4-2.43Z" fill="#455a64"/><path d="M329.48,274.17a1.66,1.66,0,1,1-1.66-1.65,1.66,1.66,0,0,1,1.66,1.65Z" fill="#263238"/><path d="M341.2,276.98l4.82,1.42.36-1.42-5.18-1.52Z" fill="#263238"/><path d="M365.57,313.12a6.2,6.2,0,0,1,.56,1.08,11.09,11.09,0,0,1,.81,3.38,13.111,13.111,0,0,1-.71,5.46,14.138,14.138,0,0,1-1.53,3.1,25.905,25.905,0,0,1-2.41,3c-1.77,2-4,4-5.3,6.91a9.33,9.33,0,0,0-.85,4.66,5.42,5.42,0,0,0,2.5,4.12,5.56,5.56,0,0,0,5,.46,6.2,6.2,0,0,0,3.38-4.08,8.75,8.75,0,0,0-.29-5.64,17,17,0,0,0-3.16-5.06c-2.64-3.07-6-5.62-7.65-9.27a12,12,0,0,1-1-5.69,29.206,29.206,0,0,1,1-5.42c.93-3.44,1.91-6.71,1.77-9.86a23.06,23.06,0,0,0-1.91-8.47,31.28,31.28,0,0,0-3.61-6.26,45.3,45.3,0,0,0-3.49-4.21c-1-1.11-1.85-1.93-2.42-2.49l-.64-.63c-.14-.15-.21-.22-.2-.23l.24.19.67.6c.59.53,1.45,1.33,2.5,2.42a45.6,45.6,0,0,1,3.58,4.18,31.65,31.65,0,0,1,3.71,6.28,23.63,23.63,0,0,1,2,8.61c.15,3.23-.84,6.57-1.74,10a28.181,28.181,0,0,0-1,5.33,11.41,11.41,0,0,0,.94,5.44c1.6,3.51,4.87,6,7.57,9.15a17.349,17.349,0,0,1,3.26,5.22,9.25,9.25,0,0,1,.29,6,6.65,6.65,0,0,1-3.68,4.4,6.06,6.06,0,0,1-5.47-.52,5.87,5.87,0,0,1-2.7-4.47,9.89,9.89,0,0,1,.91-4.89,16,16,0,0,1,2.56-3.86c1-1.12,2-2.13,2.87-3.12a25.065,25.065,0,0,0,2.4-3,13.91,13.91,0,0,0,1.54-3,13.179,13.179,0,0,0,.78-5.34,11.581,11.581,0,0,0-.71-3.36C365.75,313.5,365.55,313.13,365.57,313.12Z" fill="#263238"/><path d="M419.09,266.79a.75.75,0,0,1,0,.16,5.27,5.27,0,0,1-3.86,6.21l-8.56,2.12-3-9.14,8.42-3.13a5.24,5.24,0,0,1,7,3.78Z" fill="#455a64"/><path d="M416.24,272.72a9.006,9.006,0,0,1,.26-1.15c.24-1,.45-1.85.67-2.77s.4-1.78.62-2.77a7,7,0,0,1,.29-1.15,5.726,5.726,0,0,1-.14,1.17c-.12.73-.31,1.72-.56,2.8s-.53,2.06-.74,2.76a5.13,5.13,0,0,1-.4,1.11Z" fill="#263238"/><path d="M413.83,273.57c-.06,0,.32-2.33.84-5.17s1-5.14,1.06-5.13-.33,2.32-.85,5.17S413.88,273.58,413.83,273.57Z" fill="#263238"/><path d="M410.85,274.1c-.06,0,.42-2.54,1.06-5.66s1.2-5.63,1.26-5.61-.42,2.54-1.06,5.66S410.91,274.11,410.85,274.1Z" fill="#263238"/><path d="M408.63,271.89a8.546,8.546,0,0,1,.09-1.2c.09-.74.24-1.76.45-2.87s.44-2.12.63-2.84a7.562,7.562,0,0,1,.35-1.15,7.191,7.191,0,0,1-.21,1.18c-.2,1-.37,1.9-.56,2.85l-.51,2.85a7.676,7.676,0,0,1-.24,1.18Z" fill="#263238"/><path d="M406.53,267.36a4.441,4.441,0,0,1,.22-1.37,5.17,5.17,0,0,1,.42-1.33A4.511,4.511,0,0,1,407,266,4.27,4.27,0,0,1,406.53,267.36Z" fill="#263238"/><path d="M409.07,272.63a17.582,17.582,0,0,1,2.69.3,19.905,19.905,0,0,1,2.67.51,17.646,17.646,0,0,1-2.7-.3A16.457,16.457,0,0,1,409.07,272.63Z" fill="#263238"/><path d="M407.41,269.63c0-.06,2.4.3,5.33.81s5.3,1,5.29,1-2.39-.3-5.33-.81S407.4,269.68,407.41,269.63Z" fill="#263238"/><path d="M406.13,266.83c0-.06,3,.32,6.63.84s6.6,1,6.6,1.05-3-.32-6.63-.84S406.12,266.88,406.13,266.83Z" fill="#263238"/><path d="M408.79,264.3c0-.05,2.25.22,5,.61s5,.76,5,.82-2.25-.22-5-.61S408.79,264.36,408.79,264.3Z" fill="#263238"/><path d="M406,264.89l3.54,10.36-16.73,5.28a3.13,3.13,0,0,1-3.7-2.08l-1.06-3.24a3.13,3.13,0,0,1,1.71-3.84Z" fill="#263238"/><path d="M401.15,271h5.16v39.34a2.4,2.4,0,0,1-2.4,2.4h-.36a2.4,2.4,0,0,1-2.4-2.4V271Z" transform="translate(807.45 583.8) rotate(180)" fill="#455a64"/><path d="M402.07,274.17a1.66,1.66,0,1,0,1.66-1.65,1.66,1.66,0,0,0-1.66,1.65Z" fill="#263238"/><path d="M390.35,276.98l-4.82,1.42-.36-1.42,5.18-1.52Z" fill="#263238"/><path d="M376.42,316.48a1,1,0,0,1,0,.25v.73c.05.69.1,1.63.17,2.82.17,2.44.44,6,1,10.31.3,2.16.66,4.53,1.14,7.06a11.53,11.53,0,0,0,1.09,3.73,2.69,2.69,0,0,0,1.41,1.25,2.54,2.54,0,0,0,1.91-.12,4,4,0,0,0,1.57-1.31,5.17,5.17,0,0,0,.77-2,21.759,21.759,0,0,0,0-4.57c-.16-3.14-.33-6.4-.5-9.74-.66-13.33-1.25-25.4-1.68-34.19-.08-2.19-.23-4.16-.18-5.92a14.21,14.21,0,0,1,.72-4.42,7.071,7.071,0,0,1,1.44-2.44,4.371,4.371,0,0,1,.74-.65,8.37,8.37,0,0,0-.66.72,7.49,7.49,0,0,0-1.33,2.44,14.35,14.35,0,0,0-.62,4.36c0,1.73.15,3.7.26,5.89.47,8.79,1.12,20.85,1.83,34.19.17,3.33.33,6.59.49,9.74a20.919,20.919,0,0,1-.05,4.68,5.4,5.4,0,0,1-.85,2.18,4.42,4.42,0,0,1-1.77,1.47,3,3,0,0,1-2.27.12,3.22,3.22,0,0,1-1.65-1.45,12.32,12.32,0,0,1-1.12-3.89c-.45-2.54-.8-4.92-1.07-7.1-.55-4.35-.77-7.89-.87-10.34-.05-1.23-.07-2.18-.07-2.82v-.74A1.268,1.268,0,0,1,376.42,316.48Z" fill="#263238"/><path d="M556.89,453.68l-17.6-135.87h6.19v-5H201v5h10c0,1.42-29.1,135.87-29.1,135.87H187l30.3-135.87H532.6l17.94,135.87Z" fill="#263238"/></g></g></svg>