<svg xmlns="http://www.w3.org/2000/svg" width="1030" height="652.685" viewBox="0 0 1030 652.685"><g transform="translate(1950 13596.676)"><g transform="translate(-1950 -13596.676)" fill="#fddab1" opacity="0.2"><path d="M 1010 652.1845092773438 L 20 652.1845092773438 C 17.38475036621094 652.1845092773438 14.8462495803833 651.5216674804688 12.45499992370605 650.2144165039062 C 10.13424968719482 648.94580078125 8.047624588012695 647.1266479492188 6.253375053405762 644.8075561523438 C 4.451624870300293 642.4790649414062 3.036375045776367 639.7652587890625 2.046875 636.7416381835938 C 1.02049994468689 633.6051635742188 0.5 630.2722778320312 0.5 626.8356323242188 L 0.5 25.84890937805176 C 0.5 22.41228485107422 1.02049994468689 19.07941055297852 2.046875 15.94291019439697 C 3.036375045776367 12.91928482055664 4.451624870300293 10.20553493499756 6.253375053405762 7.876910209655762 C 8.047624588012695 5.557909965515137 10.13424968719482 3.738785266876221 12.45499992370605 2.470035076141357 C 14.8462495803833 1.162910103797913 17.38475036621094 0.5000351667404175 20 0.5000351667404175 L 1010 0.5000351667404175 C 1012.615234375 0.5000351667404175 1015.153747558594 1.162910103797913 1017.545104980469 2.470035076141357 C 1019.865844726562 3.738785266876221 1021.952392578125 5.557909965515137 1023.746765136719 7.876910209655762 C 1025.54833984375 10.20553493499756 1026.963623046875 12.91928482055664 1027.953125 15.94291019439697 C 1028.9794921875 19.07928466796875 1029.5 22.41228485107422 1029.5 25.84890937805176 L 1029.5 626.8356323242188 C 1029.5 630.2722778320312 1028.9794921875 633.6051635742188 1027.953125 636.7416381835938 C 1026.963623046875 639.7652587890625 1025.54833984375 642.4790649414062 1023.746765136719 644.8075561523438 C 1021.952392578125 647.1266479492188 1019.865844726562 648.94580078125 1017.545104980469 650.2144165039062 C 1015.153747558594 651.5216674804688 1012.615234375 652.1845092773438 1010 652.1845092773438 Z" stroke="none"/><path d="M 20 1.00006103515625 C 9.52337646484375 1.00006103515625 1 12.14715576171875 1 25.84893798828125 L 1 626.8356323242188 C 1 640.5374145507812 9.52337646484375 651.6845092773438 20 651.6845092773438 L 1010 651.6845092773438 C 1020.476623535156 651.6845092773438 1029 640.5374145507812 1029 626.8356323242188 L 1029 25.84893798828125 C 1029 12.14715576171875 1020.476623535156 1.00006103515625 1010 1.00006103515625 L 20 1.00006103515625 M 20 6.103515625e-05 L 1010 6.103515625e-05 C 1021.045776367188 6.103515625e-05 1030 11.57293701171875 1030 25.84893798828125 L 1030 626.8356323242188 C 1030 641.1115112304688 1021.045776367188 652.6845092773438 1010 652.6845092773438 L 20 652.6845092773438 C 8.9542236328125 652.6845092773438 0 641.1115112304688 0 626.8356323242188 L 0 25.84893798828125 C 0 11.57293701171875 8.9542236328125 6.103515625e-05 20 6.103515625e-05 Z" stroke="none" fill="#707070"/></g><path d="M0,0H721.311V81.09H0Z" transform="translate(-1795 -13025.081)" fill="#0a62a5"/><path d="M670.485,393.67H80.726L14.95,413.42H736.261Z" transform="translate(-1809.95 -13438.501)" fill="#0082d2"/><path d="M0,0H587.578V81.09H0Z" transform="translate(-1728.133 -13124.881)" fill="#008cb4"/><path d="M612.162,293.87H156.136L90.36,313.62H677.938Z" transform="translate(-1818.493 -13438.501)" fill="#00aae1"/><path d="M0,0H456.026V81.09H0Z" transform="translate(-1662.357 -13224.681)" fill="#00aab4"/><path d="M554.79,194.07H230.307L164.54,213.82H620.566Z" transform="translate(-1826.897 -13438.501)" fill="#00d7e1"/><path d="M0,0H324.482V81.09H0Z" transform="translate(-1596.59 -13325.521)" fill="#00aa87"/><path d="M497.425,93.23H304.486L238.71,112.98H563.193Z" transform="translate(-1835.3 -13438.501)" fill="#00d2aa"/><path d="M190.151,249.01a34.872,34.872,0,0,0,58.266,22.064l17.453,2.559-8.738-15.085a34.872,34.872,0,1,0-66.982-9.538Z" transform="translate(-1409.777 -13231.884)" fill="#fff" opacity="0.5"/><path d="M200.595,220.255a34.781,34.781,0,0,1,29.212-9.707,35.221,35.221,0,0,1,14.894,5.637,35.672,35.672,0,0,1,10.914,11.635,35.266,35.266,0,0,1,2.153,31.084v-.6l8.681,15.108.643,1.127-1.263-.192-17.43-2.672.406-.135a35.232,35.232,0,0,1-17.25,8.524,31.7,31.7,0,0,1-4.825.507,34.94,34.94,0,0,1-22.65-7.024,37.2,37.2,0,0,1-3.675-3.112,38.783,38.783,0,0,1-3.168-3.642,35.075,35.075,0,0,1,3.382-46.473Zm-3.3,46.394a31.784,31.784,0,0,0,6.866,6.675,32.256,32.256,0,0,0,8.411,4.51,34.262,34.262,0,0,0,9.313,2.052,33.659,33.659,0,0,0,4.769,0,30.5,30.5,0,0,0,4.735-.575,34.353,34.353,0,0,0,16.7-8.6l.169-.158h.248l17.464,2.559-.631.913-8.805-15.1-.158-.282.124-.316a34.77,34.77,0,0,0,2.447-15.187,34.354,34.354,0,0,0-4.42-14.758A35.887,35.887,0,0,0,244.08,217a34.54,34.54,0,0,0-46.812,49.709Z" transform="translate(-1409.78 -13231.923)" fill="#263238"/><path d="M219.054,263.551,204.16,248.477l5.006-4.949,8.7,8.817L235.943,224l5.942,3.777Z" transform="translate(-1407.967 -13230.167)" fill="#0a62a5"/><path d="M190.151,249.01a34.872,34.872,0,0,0,58.266,22.064l17.453,2.559-8.738-15.085a34.872,34.872,0,1,0-66.982-9.538Z" transform="translate(-1467.299 -13324.884)" fill="#fff" opacity="0.5"/><path d="M200.595,220.255a34.781,34.781,0,0,1,29.212-9.707,35.221,35.221,0,0,1,14.894,5.637,35.672,35.672,0,0,1,10.914,11.635,35.266,35.266,0,0,1,2.153,31.084v-.6l8.681,15.108.643,1.127-1.263-.192-17.43-2.672.406-.135a35.232,35.232,0,0,1-17.25,8.524,31.7,31.7,0,0,1-4.825.507,34.94,34.94,0,0,1-22.65-7.024,37.2,37.2,0,0,1-3.675-3.112,38.783,38.783,0,0,1-3.168-3.642,35.075,35.075,0,0,1,3.382-46.473Zm-3.3,46.394a31.784,31.784,0,0,0,6.866,6.675,32.256,32.256,0,0,0,8.411,4.51,34.262,34.262,0,0,0,9.313,2.052,33.659,33.659,0,0,0,4.769,0,30.5,30.5,0,0,0,4.735-.575,34.353,34.353,0,0,0,16.7-8.6l.169-.158h.248l17.464,2.559-.631.913-8.805-15.1-.158-.282.124-.316a34.77,34.77,0,0,0,2.447-15.187,34.354,34.354,0,0,0-4.42-14.758A35.887,35.887,0,0,0,244.08,217a34.54,34.54,0,0,0-46.812,49.709Z" transform="translate(-1467.302 -13324.923)" fill="#263238"/><path d="M219.054,263.551,204.16,248.477l5.006-4.949,8.7,8.817L235.943,224l5.942,3.777Z" transform="translate(-1465.49 -13323.167)" fill="#008cb4"/><path d="M190.151,249.01a34.872,34.872,0,0,0,58.266,22.064l17.453,2.559-8.738-15.085a34.872,34.872,0,1,0-66.982-9.538Z" transform="translate(-1516.697 -13430.566)" fill="#fff" opacity="0.5"/><path d="M200.595,220.255a34.781,34.781,0,0,1,29.212-9.707,35.221,35.221,0,0,1,14.894,5.637,35.672,35.672,0,0,1,10.914,11.635,35.266,35.266,0,0,1,2.153,31.084v-.6l8.681,15.108.643,1.127-1.263-.192-17.43-2.672.406-.135a35.232,35.232,0,0,1-17.25,8.524,31.7,31.7,0,0,1-4.825.507,34.94,34.94,0,0,1-22.65-7.024,37.2,37.2,0,0,1-3.675-3.112,38.783,38.783,0,0,1-3.168-3.642,35.075,35.075,0,0,1,3.382-46.473Zm-3.3,46.394a31.784,31.784,0,0,0,6.866,6.675,32.256,32.256,0,0,0,8.411,4.51,34.262,34.262,0,0,0,9.313,2.052,33.659,33.659,0,0,0,4.769,0,30.5,30.5,0,0,0,4.735-.575,34.353,34.353,0,0,0,16.7-8.6l.169-.158h.248l17.464,2.559-.631.913-8.805-15.1-.158-.282.124-.316a34.77,34.77,0,0,0,2.447-15.187,34.354,34.354,0,0,0-4.42-14.758A35.887,35.887,0,0,0,244.08,217a34.54,34.54,0,0,0-46.812,49.709Z" transform="translate(-1516.669 -13430.923)" fill="#263238"/><path d="M219.054,263.551,204.16,248.477l5.006-4.949,8.7,8.817L235.943,224l5.942,3.777Z" transform="translate(-1514.857 -13429.167)" fill="#00aab4"/><path d="M190.151,249.01a34.872,34.872,0,0,0,58.266,22.064l17.453,2.559-8.738-15.085a34.872,34.872,0,1,0-66.982-9.538Z" transform="translate(-1553.088 -13528.884)" fill="#fff" opacity="0.5"/><path d="M200.595,220.255a34.781,34.781,0,0,1,29.212-9.707,35.221,35.221,0,0,1,14.894,5.637,35.672,35.672,0,0,1,10.914,11.635,35.266,35.266,0,0,1,2.153,31.084v-.6l8.681,15.108.643,1.127-1.263-.192-17.43-2.672.406-.135a35.232,35.232,0,0,1-17.25,8.524,31.7,31.7,0,0,1-4.825.507,34.94,34.94,0,0,1-22.65-7.024,37.2,37.2,0,0,1-3.675-3.112,38.783,38.783,0,0,1-3.168-3.642,35.075,35.075,0,0,1,3.382-46.473Zm-3.3,46.394a31.784,31.784,0,0,0,6.866,6.675,32.256,32.256,0,0,0,8.411,4.51,34.262,34.262,0,0,0,9.313,2.052,33.659,33.659,0,0,0,4.769,0,30.5,30.5,0,0,0,4.735-.575,34.353,34.353,0,0,0,16.7-8.6l.169-.158h.248l17.464,2.559-.631.913-8.805-15.1-.158-.282.124-.316a34.77,34.77,0,0,0,2.447-15.187,34.354,34.354,0,0,0-4.42-14.758A35.887,35.887,0,0,0,244.08,217a34.54,34.54,0,0,0-46.812,49.709Z" transform="translate(-1553.092 -13528.923)" fill="#263238"/><path d="M219.054,263.551,204.16,248.477l5.006-4.949,8.7,8.817L235.943,224l5.942,3.777Z" transform="translate(-1551.279 -13527.167)" fill="#00aa87"/><path d="M13.625,25V7.938h6.129a8.679,8.679,0,0,1,5.01,1.207,4.016,4.016,0,0,1,1.717,3.5,4.06,4.06,0,0,1-.609,2.262,3.551,3.551,0,0,1-1.793,1.383,3.6,3.6,0,0,1,2.051,1.313,3.816,3.816,0,0,1,.715,2.344,4.518,4.518,0,0,1-1.588,3.768A7.556,7.556,0,0,1,20.551,25Zm4.113-7.254v4.09h2.7a2.564,2.564,0,0,0,1.711-.51,1.784,1.784,0,0,0,.6-1.436,1.891,1.891,0,0,0-2.121-2.145Zm0-2.7h2.145a3.054,3.054,0,0,0,1.922-.492,1.744,1.744,0,0,0,.574-1.418,1.831,1.831,0,0,0-.621-1.553,3.332,3.332,0,0,0-2-.475H17.738Zm10.688,3.492a7.484,7.484,0,0,1,.738-3.381,5.28,5.28,0,0,1,2.121-2.279,6.388,6.388,0,0,1,3.246-.8A5.83,5.83,0,0,1,39.02,13.85a6.768,6.768,0,0,1,1.641,4.8v.141a6.566,6.566,0,0,1-1.646,4.705,5.846,5.846,0,0,1-4.459,1.74,5.912,5.912,0,0,1-4.348-1.623,6.348,6.348,0,0,1-1.77-4.4Zm3.949.246a4.718,4.718,0,0,0,.551,2.578,1.835,1.835,0,0,0,1.629.82q2.109,0,2.156-3.246v-.4q0-3.41-2.18-3.41-1.98,0-2.145,2.941ZM46.566,25H42.605V7h3.961Zm8.566.234a6.518,6.518,0,0,1-4.723-1.74,6.009,6.009,0,0,1-1.8-4.529v-.328a7.787,7.787,0,0,1,.721-3.434,5.274,5.274,0,0,1,2.1-2.3,6.35,6.35,0,0,1,3.281-.814,5.489,5.489,0,0,1,4.219,1.658,6.516,6.516,0,0,1,1.547,4.623V19.9H52.625a2.846,2.846,0,0,0,.926,1.676,2.755,2.755,0,0,0,1.852.609,3.549,3.549,0,0,0,2.93-1.312l1.8,2.133a5.045,5.045,0,0,1-2.092,1.623A7.069,7.069,0,0,1,55.133,25.234Zm-.445-10.1q-1.734,0-2.062,2.3h3.984v-.3a1.956,1.956,0,0,0-.48-1.471A1.912,1.912,0,0,0,54.688,15.133ZM66.664,9.168V12.32H68.75v2.742H66.664v5.8a1.481,1.481,0,0,0,.258,1,1.383,1.383,0,0,0,1.02.281,5.793,5.793,0,0,0,.984-.07v2.824a7.288,7.288,0,0,1-2.227.34,4.137,4.137,0,0,1-3.012-.961,3.939,3.939,0,0,1-.973-2.918V15.063H61.1V12.32h1.617V9.168ZM74.469,25H70.508V12.32h3.961Zm-4.2-15.949a1.763,1.763,0,0,1,.609-1.383,2.591,2.591,0,0,1,3.164,0,1.763,1.763,0,0,1,.609,1.383,1.763,1.763,0,0,1-.609,1.383,2.591,2.591,0,0,1-3.164,0A1.763,1.763,0,0,1,70.273,9.051Zm10.254,3.27.129,1.488a4.3,4.3,0,0,1,3.621-1.723,3.618,3.618,0,0,1,2.959,1.184,5.635,5.635,0,0,1,1.014,3.563V25H84.289V17a2.14,2.14,0,0,0-.387-1.412,1.789,1.789,0,0,0-1.406-.451,1.883,1.883,0,0,0-1.723.914V25H76.824V12.32ZM96.57,25.234a6.518,6.518,0,0,1-4.723-1.74,6.009,6.009,0,0,1-1.8-4.529v-.328a7.787,7.787,0,0,1,.721-3.434,5.274,5.274,0,0,1,2.1-2.3,6.35,6.35,0,0,1,3.281-.814,5.489,5.489,0,0,1,4.219,1.658,6.516,6.516,0,0,1,1.547,4.623V19.9H94.063a2.846,2.846,0,0,0,.926,1.676,2.755,2.755,0,0,0,1.852.609,3.549,3.549,0,0,0,2.93-1.312l1.8,2.133a5.045,5.045,0,0,1-2.092,1.623A7.069,7.069,0,0,1,96.57,25.234Zm-.445-10.1q-1.734,0-2.062,2.3h3.984v-.3a1.956,1.956,0,0,0-.48-1.471A1.912,1.912,0,0,0,96.125,15.133Zm14.016,6.3a.912.912,0,0,0-.527-.809,8.021,8.021,0,0,0-2-.633,9.138,9.138,0,0,1-2.437-.861,4.083,4.083,0,0,1-1.465-1.295,3.092,3.092,0,0,1-.5-1.746,3.5,3.5,0,0,1,1.441-2.877,5.938,5.938,0,0,1,3.773-1.131,6.579,6.579,0,0,1,4.031,1.137,3.555,3.555,0,0,1,1.523,2.988h-3.961q0-1.523-1.605-1.523a1.591,1.591,0,0,0-1.043.346,1.07,1.07,0,0,0-.422.861.982.982,0,0,0,.516.855,4.872,4.872,0,0,0,1.646.539,14.228,14.228,0,0,1,1.986.5q2.859.984,2.859,3.527a3.321,3.321,0,0,1-1.541,2.824,6.758,6.758,0,0,1-3.99,1.09,6.9,6.9,0,0,1-2.906-.586,4.86,4.86,0,0,1-1.992-1.594,3.609,3.609,0,0,1-.715-2.121H106.5a1.526,1.526,0,0,0,.586,1.283,2.41,2.41,0,0,0,1.441.4,1.9,1.9,0,0,0,1.213-.328A1.05,1.05,0,0,0,110.141,21.438ZM125.938,25h-3.961V12.32h3.961Zm-4.2-15.949a1.763,1.763,0,0,1,.609-1.383,2.591,2.591,0,0,1,3.164,0,1.763,1.763,0,0,1,.609,1.383,1.763,1.763,0,0,1-.609,1.383,2.591,2.591,0,0,1-3.164,0A1.763,1.763,0,0,1,121.742,9.051ZM132,12.32l.129,1.488a4.3,4.3,0,0,1,3.621-1.723,3.618,3.618,0,0,1,2.959,1.184,5.635,5.635,0,0,1,1.014,3.563V25h-3.961V17a2.14,2.14,0,0,0-.387-1.412,1.789,1.789,0,0,0-1.406-.451,1.883,1.883,0,0,0-1.723.914V25h-3.949V12.32ZM146.5,9.168V12.32h2.086v2.742H146.5v5.8a1.481,1.481,0,0,0,.258,1,1.383,1.383,0,0,0,1.02.281,5.793,5.793,0,0,0,.984-.07v2.824a7.288,7.288,0,0,1-2.227.34,4.137,4.137,0,0,1-3.012-.961,3.939,3.939,0,0,1-.973-2.918V15.063h-1.617V12.32h1.617V9.168Zm9.773,16.066a6.518,6.518,0,0,1-4.723-1.74,6.009,6.009,0,0,1-1.8-4.529v-.328a7.787,7.787,0,0,1,.721-3.434,5.274,5.274,0,0,1,2.1-2.3,6.35,6.35,0,0,1,3.281-.814,5.489,5.489,0,0,1,4.219,1.658,6.516,6.516,0,0,1,1.547,4.623V19.9H153.77a2.846,2.846,0,0,0,.926,1.676,2.755,2.755,0,0,0,1.852.609,3.549,3.549,0,0,0,2.93-1.312l1.8,2.133a5.045,5.045,0,0,1-2.092,1.623A7.069,7.069,0,0,1,156.277,25.234Zm-.445-10.1q-1.734,0-2.062,2.3h3.984v-.3a1.956,1.956,0,0,0-.48-1.471A1.912,1.912,0,0,0,155.832,15.133Zm15.047.762-1.3-.094a2.336,2.336,0,0,0-2.391,1.172V25h-3.949V12.32h3.7l.129,1.629a3.058,3.058,0,0,1,2.777-1.863,3.851,3.851,0,0,1,1.1.141Zm5.051-3.574.129,1.488a4.3,4.3,0,0,1,3.621-1.723,3.618,3.618,0,0,1,2.959,1.184,5.635,5.635,0,0,1,1.014,3.563V25h-3.961V17a2.14,2.14,0,0,0-.387-1.412,1.789,1.789,0,0,0-1.406-.451,1.883,1.883,0,0,0-1.723.914V25h-3.949V12.32Zm9.41,6.223a7.484,7.484,0,0,1,.738-3.381,5.28,5.28,0,0,1,2.121-2.279,6.388,6.388,0,0,1,3.246-.8,5.83,5.83,0,0,1,4.488,1.764,6.768,6.768,0,0,1,1.641,4.8v.141a6.566,6.566,0,0,1-1.646,4.705,5.846,5.846,0,0,1-4.459,1.74,5.912,5.912,0,0,1-4.348-1.623,6.348,6.348,0,0,1-1.77-4.4Zm3.949.246a4.718,4.718,0,0,0,.551,2.578,1.835,1.835,0,0,0,1.629.82q2.109,0,2.156-3.246v-.4q0-3.41-2.18-3.41-1.98,0-2.145,2.941Zm16.664,2.648a.912.912,0,0,0-.527-.809,8.021,8.021,0,0,0-2-.633,9.138,9.138,0,0,1-2.437-.861,4.083,4.083,0,0,1-1.465-1.295,3.092,3.092,0,0,1-.5-1.746,3.5,3.5,0,0,1,1.441-2.877,5.938,5.938,0,0,1,3.773-1.131,6.579,6.579,0,0,1,4.031,1.137,3.555,3.555,0,0,1,1.523,2.988h-3.961q0-1.523-1.605-1.523a1.591,1.591,0,0,0-1.043.346,1.07,1.07,0,0,0-.422.861.982.982,0,0,0,.516.855,4.872,4.872,0,0,0,1.646.539,14.228,14.228,0,0,1,1.986.5q2.859.984,2.859,3.527a3.321,3.321,0,0,1-1.541,2.824,6.758,6.758,0,0,1-3.99,1.09,6.9,6.9,0,0,1-2.906-.586,4.86,4.86,0,0,1-1.992-1.594,3.609,3.609,0,0,1-.715-2.121h3.691a1.526,1.526,0,0,0,.586,1.283,2.41,2.41,0,0,0,1.441.4,1.9,1.9,0,0,0,1.213-.328A1.05,1.05,0,0,0,205.953,21.438Z" transform="translate(-1593.5 -13299.705)" fill="#fff"/><path d="M60.215,19.223a6.231,6.231,0,0,1-.961,3.146,5.8,5.8,0,0,1-2.467,2.115,8.4,8.4,0,0,1-3.627.75,6.7,6.7,0,0,1-5.3-2.191,9.048,9.048,0,0,1-1.934-6.187v-.844a10.328,10.328,0,0,1,.873-4.389,6.615,6.615,0,0,1,2.514-2.906,7.013,7.013,0,0,1,3.8-1.025,7.354,7.354,0,0,1,4.992,1.635,6.459,6.459,0,0,1,2.145,4.506h-4.1a3.056,3.056,0,0,0-.785-2.238,3.229,3.229,0,0,0-2.25-.68,2.457,2.457,0,0,0-2.25,1.148,7.381,7.381,0,0,0-.75,3.668v1.207a8.167,8.167,0,0,0,.686,3.9,2.509,2.509,0,0,0,2.361,1.172,3.159,3.159,0,0,0,2.168-.668,2.835,2.835,0,0,0,.8-2.121ZM65.84,13.68a4.334,4.334,0,0,1,6.4-.352A5.582,5.582,0,0,1,73.328,17v8H69.367V17.09a2.232,2.232,0,0,0-.41-1.482,1.762,1.762,0,0,0-1.395-.475,1.9,1.9,0,0,0-1.723.773V25H61.891V7H65.84ZM82.668,25a4.459,4.459,0,0,1-.375-1.137,3.672,3.672,0,0,1-3.047,1.371A4.5,4.5,0,0,1,76.2,24.15a3.45,3.45,0,0,1-1.254-2.725,3.546,3.546,0,0,1,1.523-3.117,7.761,7.761,0,0,1,4.43-1.055h1.219v-.668q0-1.746-1.512-1.746A1.233,1.233,0,0,0,79.2,16.223H75.25a3.546,3.546,0,0,1,1.564-2.988,6.569,6.569,0,0,1,3.99-1.148,5.764,5.764,0,0,1,3.832,1.184,4.115,4.115,0,0,1,1.441,3.246v5.613a5.748,5.748,0,0,0,.539,2.672V25ZM80.2,22.422a2.2,2.2,0,0,0,1.225-.316,1.983,1.983,0,0,0,.7-.715V19.363H80.969q-2.062,0-2.062,1.852a1.131,1.131,0,0,0,.363.873A1.315,1.315,0,0,0,80.2,22.422ZM92.863,9.168V12.32h2.086v2.742H92.863v5.8a1.481,1.481,0,0,0,.258,1,1.383,1.383,0,0,0,1.02.281,5.793,5.793,0,0,0,.984-.07v2.824a7.288,7.288,0,0,1-2.227.34,4.137,4.137,0,0,1-3.012-.961,3.939,3.939,0,0,1-.973-2.918V15.063H87.3V12.32h1.617V9.168Zm10.277,12.27a.912.912,0,0,0-.527-.809,8.021,8.021,0,0,0-2-.633,9.138,9.138,0,0,1-2.437-.861,4.083,4.083,0,0,1-1.465-1.295,3.092,3.092,0,0,1-.5-1.746,3.5,3.5,0,0,1,1.441-2.877,5.938,5.938,0,0,1,3.773-1.131,6.579,6.579,0,0,1,4.031,1.137,3.555,3.555,0,0,1,1.523,2.988h-3.961q0-1.523-1.605-1.523a1.591,1.591,0,0,0-1.043.346,1.07,1.07,0,0,0-.422.861.982.982,0,0,0,.516.855,4.872,4.872,0,0,0,1.646.539,14.228,14.228,0,0,1,1.986.5q2.859.984,2.859,3.527a3.321,3.321,0,0,1-1.541,2.824,6.758,6.758,0,0,1-3.99,1.09,6.9,6.9,0,0,1-2.906-.586,4.86,4.86,0,0,1-1.992-1.594,3.609,3.609,0,0,1-.715-2.121H99.5a1.526,1.526,0,0,0,.586,1.283,2.41,2.41,0,0,0,1.441.4,1.9,1.9,0,0,0,1.213-.328A1.05,1.05,0,0,0,103.141,21.438Zm16.992.75a1.756,1.756,0,0,0,1.289-.451,1.654,1.654,0,0,0,.445-1.26h3.7a4.384,4.384,0,0,1-1.494,3.422,5.558,5.558,0,0,1-3.85,1.336,5.627,5.627,0,0,1-4.359-1.734,6.834,6.834,0,0,1-1.594-4.8v-.164a7.723,7.723,0,0,1,.709-3.393,5.162,5.162,0,0,1,2.045-2.262,6.1,6.1,0,0,1,3.164-.791,5.488,5.488,0,0,1,3.926,1.371,4.863,4.863,0,0,1,1.453,3.715h-3.7a2.168,2.168,0,0,0-.48-1.512,1.658,1.658,0,0,0-1.289-.527q-1.535,0-1.793,1.957a13.809,13.809,0,0,0-.082,1.711,5.424,5.424,0,0,0,.457,2.648A1.582,1.582,0,0,0,120.133,22.188Zm6.609-3.645a7.484,7.484,0,0,1,.738-3.381,5.28,5.28,0,0,1,2.121-2.279,6.388,6.388,0,0,1,3.246-.8,5.83,5.83,0,0,1,4.488,1.764,6.768,6.768,0,0,1,1.641,4.8v.141a6.566,6.566,0,0,1-1.646,4.705,5.846,5.846,0,0,1-4.459,1.74,5.912,5.912,0,0,1-4.348-1.623,6.348,6.348,0,0,1-1.77-4.4Zm3.949.246a4.718,4.718,0,0,0,.551,2.578,1.835,1.835,0,0,0,1.629.82q2.109,0,2.156-3.246v-.4q0-3.41-2.18-3.41-1.98,0-2.145,2.941Zm17.7-2.895-1.3-.094a2.336,2.336,0,0,0-2.391,1.172V25h-3.949V12.32h3.7l.129,1.629a3.058,3.058,0,0,1,2.777-1.863,3.851,3.851,0,0,1,1.1.141Zm13.2,2.859a7.646,7.646,0,0,1-1.33,4.717,4.264,4.264,0,0,1-3.592,1.764,3.655,3.655,0,0,1-2.871-1.277v5.918H149.84V12.32h3.691l.117,1.172a3.656,3.656,0,0,1,2.988-1.406,4.3,4.3,0,0,1,3.645,1.729,7.741,7.741,0,0,1,1.3,4.752Zm-3.949-.246q0-3.375-1.969-3.375a1.859,1.859,0,0,0-1.875,1.008v4.992a1.919,1.919,0,0,0,1.9,1.055q1.887,0,1.945-3.258Zm5.191.035a7.484,7.484,0,0,1,.738-3.381,5.28,5.28,0,0,1,2.121-2.279,6.388,6.388,0,0,1,3.246-.8,5.83,5.83,0,0,1,4.488,1.764,6.768,6.768,0,0,1,1.641,4.8v.141a6.566,6.566,0,0,1-1.646,4.705,5.846,5.846,0,0,1-4.459,1.74,5.912,5.912,0,0,1-4.348-1.623,6.348,6.348,0,0,1-1.77-4.4Zm3.949.246a4.718,4.718,0,0,0,.551,2.578,1.835,1.835,0,0,0,1.629.82q2.109,0,2.156-3.246v-.4q0-3.41-2.18-3.41-1.98,0-2.145,2.941Zm17.7-2.895-1.3-.094a2.336,2.336,0,0,0-2.391,1.172V25h-3.949V12.32h3.7l.129,1.629a3.058,3.058,0,0,1,2.777-1.863,3.851,3.851,0,0,1,1.1.141ZM192.684,25a4.459,4.459,0,0,1-.375-1.137,3.672,3.672,0,0,1-3.047,1.371,4.5,4.5,0,0,1-3.047-1.084,3.45,3.45,0,0,1-1.254-2.725,3.546,3.546,0,0,1,1.523-3.117,7.761,7.761,0,0,1,4.43-1.055h1.219v-.668q0-1.746-1.512-1.746a1.233,1.233,0,0,0-1.406,1.383h-3.949a3.546,3.546,0,0,1,1.564-2.988,6.569,6.569,0,0,1,3.99-1.148,5.764,5.764,0,0,1,3.832,1.184,4.115,4.115,0,0,1,1.441,3.246v5.613a5.748,5.748,0,0,0,.539,2.672V25Zm-2.473-2.578a2.2,2.2,0,0,0,1.225-.316,1.983,1.983,0,0,0,.7-.715V19.363h-1.148q-2.062,0-2.062,1.852a1.131,1.131,0,0,0,.363.873A1.315,1.315,0,0,0,190.211,22.422ZM202.879,9.168V12.32h2.086v2.742h-2.086v5.8a1.481,1.481,0,0,0,.258,1,1.383,1.383,0,0,0,1.02.281,5.793,5.793,0,0,0,.984-.07v2.824a7.288,7.288,0,0,1-2.227.34,4.137,4.137,0,0,1-3.012-.961,3.939,3.939,0,0,1-.973-2.918V15.063h-1.617V12.32h1.617V9.168ZM210.684,25h-3.961V12.32h3.961Zm-4.2-15.949a1.763,1.763,0,0,1,.609-1.383,2.591,2.591,0,0,1,3.164,0,1.763,1.763,0,0,1,.609,1.383,1.763,1.763,0,0,1-.609,1.383,2.591,2.591,0,0,1-3.164,0A1.763,1.763,0,0,1,206.488,9.051ZM218.172,20.3l2-7.98h4.16L220.2,25h-4.031l-4.137-12.68H216.2Zm6.668-1.758a7.484,7.484,0,0,1,.738-3.381,5.28,5.28,0,0,1,2.121-2.279,6.388,6.388,0,0,1,3.246-.8,5.83,5.83,0,0,1,4.488,1.764,6.768,6.768,0,0,1,1.641,4.8v.141a6.566,6.566,0,0,1-1.646,4.705,5.846,5.846,0,0,1-4.459,1.74,5.912,5.912,0,0,1-4.348-1.623,6.348,6.348,0,0,1-1.77-4.4Zm3.949.246a4.718,4.718,0,0,0,.551,2.578,1.835,1.835,0,0,0,1.629.82q2.109,0,2.156-3.246v-.4q0-3.41-2.18-3.41-1.98,0-2.145,2.941Zm16.664,2.648a.912.912,0,0,0-.527-.809,8.021,8.021,0,0,0-2-.633,9.138,9.138,0,0,1-2.437-.861,4.083,4.083,0,0,1-1.465-1.295,3.092,3.092,0,0,1-.5-1.746,3.5,3.5,0,0,1,1.441-2.877,5.938,5.938,0,0,1,3.773-1.131,6.579,6.579,0,0,1,4.031,1.137,3.555,3.555,0,0,1,1.523,2.988h-3.961q0-1.523-1.605-1.523a1.591,1.591,0,0,0-1.043.346,1.07,1.07,0,0,0-.422.861.982.982,0,0,0,.516.855,4.872,4.872,0,0,0,1.646.539,14.228,14.228,0,0,1,1.986.5q2.859.984,2.859,3.527a3.321,3.321,0,0,1-1.541,2.824,6.758,6.758,0,0,1-3.99,1.09,6.9,6.9,0,0,1-2.906-.586,4.86,4.86,0,0,1-1.992-1.594,3.609,3.609,0,0,1-.715-2.121h3.691a1.526,1.526,0,0,0,.586,1.283,2.41,2.41,0,0,0,1.441.4,1.9,1.9,0,0,0,1.213-.328A1.05,1.05,0,0,0,245.453,21.438Z" transform="translate(-1548.945 -13095.705)" fill="#fff"/><path d="M63.074,19.223a6.231,6.231,0,0,1-.961,3.146,5.8,5.8,0,0,1-2.467,2.115,8.4,8.4,0,0,1-3.627.75,6.7,6.7,0,0,1-5.3-2.191,9.048,9.048,0,0,1-1.934-6.187v-.844a10.328,10.328,0,0,1,.873-4.389,6.615,6.615,0,0,1,2.514-2.906,7.013,7.013,0,0,1,3.8-1.025,7.354,7.354,0,0,1,4.992,1.635,6.459,6.459,0,0,1,2.145,4.506h-4.1a3.056,3.056,0,0,0-.785-2.238,3.229,3.229,0,0,0-2.25-.68,2.457,2.457,0,0,0-2.25,1.148,7.381,7.381,0,0,0-.75,3.668v1.207a8.167,8.167,0,0,0,.686,3.9,2.509,2.509,0,0,0,2.361,1.172,3.159,3.159,0,0,0,2.168-.668,2.835,2.835,0,0,0,.8-2.121Zm1.266-.68a7.484,7.484,0,0,1,.738-3.381A5.28,5.28,0,0,1,67.2,12.883a6.388,6.388,0,0,1,3.246-.8,5.83,5.83,0,0,1,4.488,1.764,6.768,6.768,0,0,1,1.641,4.8v.141a6.566,6.566,0,0,1-1.646,4.705,5.846,5.846,0,0,1-4.459,1.74,5.912,5.912,0,0,1-4.348-1.623,6.348,6.348,0,0,1-1.77-4.4Zm3.949.246a4.718,4.718,0,0,0,.551,2.578,1.835,1.835,0,0,0,1.629.82q2.109,0,2.156-3.246v-.4q0-3.41-2.18-3.41-1.98,0-2.145,2.941Zm17.7-2.895-1.3-.094a2.336,2.336,0,0,0-2.391,1.172V25H78.344V12.32h3.7l.129,1.629a3.058,3.058,0,0,1,2.777-1.863,3.851,3.851,0,0,1,1.1.141Zm9.094,0-1.3-.094a2.336,2.336,0,0,0-2.391,1.172V25H87.438V12.32h3.7l.129,1.629a3.058,3.058,0,0,1,2.777-1.863,3.851,3.851,0,0,1,1.1.141Zm7.559,9.34a6.518,6.518,0,0,1-4.723-1.74,6.009,6.009,0,0,1-1.8-4.529v-.328A7.787,7.787,0,0,1,96.83,15.2a5.274,5.274,0,0,1,2.1-2.3,6.35,6.35,0,0,1,3.281-.814,5.489,5.489,0,0,1,4.219,1.658,6.516,6.516,0,0,1,1.547,4.623V19.9h-7.852a2.846,2.846,0,0,0,.926,1.676,2.755,2.755,0,0,0,1.852.609,3.549,3.549,0,0,0,2.93-1.312l1.8,2.133a5.045,5.045,0,0,1-2.092,1.623A7.069,7.069,0,0,1,102.637,25.234Zm-.445-10.1q-1.734,0-2.062,2.3h3.984v-.3a1.956,1.956,0,0,0-.48-1.471A1.912,1.912,0,0,0,102.191,15.133Zm6.879,3.41a7.484,7.484,0,0,1,.738-3.381,5.28,5.28,0,0,1,2.121-2.279,6.388,6.388,0,0,1,3.246-.8,5.83,5.83,0,0,1,4.488,1.764,6.768,6.768,0,0,1,1.641,4.8v.141a6.566,6.566,0,0,1-1.646,4.705,5.846,5.846,0,0,1-4.459,1.74,5.912,5.912,0,0,1-4.348-1.623,6.348,6.348,0,0,1-1.77-4.4Zm3.949.246a4.718,4.718,0,0,0,.551,2.578,1.835,1.835,0,0,0,1.629.82q2.109,0,2.156-3.246v-.4q0-3.41-2.18-3.41-1.98,0-2.145,2.941Zm22.137,6.445a6.518,6.518,0,0,1-4.723-1.74,6.009,6.009,0,0,1-1.8-4.529v-.328a7.787,7.787,0,0,1,.721-3.434,5.274,5.274,0,0,1,2.1-2.3,6.35,6.35,0,0,1,3.281-.814,5.489,5.489,0,0,1,4.219,1.658,6.516,6.516,0,0,1,1.547,4.623V19.9h-7.852a2.846,2.846,0,0,0,.926,1.676,2.755,2.755,0,0,0,1.852.609,3.549,3.549,0,0,0,2.93-1.312l1.8,2.133a5.045,5.045,0,0,1-2.092,1.623A7.069,7.069,0,0,1,135.156,25.234Zm-.445-10.1q-1.734,0-2.062,2.3h3.984v-.3a1.956,1.956,0,0,0-.48-1.471A1.912,1.912,0,0,0,134.711,15.133ZM146.254,25h-3.961V7h3.961Zm8.566.234a6.518,6.518,0,0,1-4.723-1.74,6.009,6.009,0,0,1-1.8-4.529v-.328a7.787,7.787,0,0,1,.721-3.434,5.274,5.274,0,0,1,2.1-2.3,6.35,6.35,0,0,1,3.281-.814,5.489,5.489,0,0,1,4.219,1.658,6.516,6.516,0,0,1,1.547,4.623V19.9h-7.852a2.846,2.846,0,0,0,.926,1.676,2.755,2.755,0,0,0,1.852.609,3.549,3.549,0,0,0,2.93-1.312l1.8,2.133a5.045,5.045,0,0,1-2.092,1.623A7.069,7.069,0,0,1,154.82,25.234Zm-.445-10.1q-1.734,0-2.062,2.3H156.3v-.3a1.956,1.956,0,0,0-.48-1.471A1.912,1.912,0,0,0,154.375,15.133Zm12.738,7.055a1.756,1.756,0,0,0,1.289-.451,1.654,1.654,0,0,0,.445-1.26h3.7a4.384,4.384,0,0,1-1.494,3.422,5.558,5.558,0,0,1-3.85,1.336,5.627,5.627,0,0,1-4.359-1.734,6.834,6.834,0,0,1-1.594-4.8v-.164a7.723,7.723,0,0,1,.709-3.393,5.162,5.162,0,0,1,2.045-2.262,6.1,6.1,0,0,1,3.164-.791,5.488,5.488,0,0,1,3.926,1.371,4.863,4.863,0,0,1,1.453,3.715h-3.7a2.168,2.168,0,0,0-.48-1.512,1.658,1.658,0,0,0-1.289-.527q-1.535,0-1.793,1.957A13.809,13.809,0,0,0,165.2,18.8a5.424,5.424,0,0,0,.457,2.648A1.582,1.582,0,0,0,167.113,22.188ZM178.82,9.168V12.32h2.086v2.742H178.82v5.8a1.481,1.481,0,0,0,.258,1,1.383,1.383,0,0,0,1.02.281,5.793,5.793,0,0,0,.984-.07v2.824a7.288,7.288,0,0,1-2.227.34,4.137,4.137,0,0,1-3.012-.961,3.939,3.939,0,0,1-.973-2.918V15.063h-1.617V12.32h1.617V9.168Zm11.309,6.727-1.3-.094a2.336,2.336,0,0,0-2.391,1.172V25h-3.949V12.32h3.7l.129,1.629a3.058,3.058,0,0,1,2.777-1.863,3.851,3.851,0,0,1,1.1.141Zm.926,2.648a7.484,7.484,0,0,1,.738-3.381,5.28,5.28,0,0,1,2.121-2.279,6.388,6.388,0,0,1,3.246-.8,5.83,5.83,0,0,1,4.488,1.764,6.768,6.768,0,0,1,1.641,4.8v.141a6.566,6.566,0,0,1-1.646,4.705,5.846,5.846,0,0,1-4.459,1.74,5.912,5.912,0,0,1-4.348-1.623,6.348,6.348,0,0,1-1.77-4.4Zm3.949.246a4.718,4.718,0,0,0,.551,2.578,1.835,1.835,0,0,0,1.629.82q2.109,0,2.156-3.246v-.4q0-3.41-2.18-3.41-1.98,0-2.145,2.941ZM197.7,7h4.172l-3.258,3.68h-3.223Zm10.957,5.32.129,1.488a4.3,4.3,0,0,1,3.621-1.723,3.618,3.618,0,0,1,2.959,1.184,5.635,5.635,0,0,1,1.014,3.563V25h-3.961V17a2.14,2.14,0,0,0-.387-1.412,1.789,1.789,0,0,0-1.406-.451,1.883,1.883,0,0,0-1.723.914V25h-3.949V12.32ZM222.73,25H218.77V12.32h3.961Zm-4.2-15.949a1.763,1.763,0,0,1,.609-1.383,2.591,2.591,0,0,1,3.164,0,1.763,1.763,0,0,1,.609,1.383,1.763,1.763,0,0,1-.609,1.383,2.591,2.591,0,0,1-3.164,0A1.763,1.763,0,0,1,218.535,9.051Zm11.988,13.137a1.756,1.756,0,0,0,1.289-.451,1.654,1.654,0,0,0,.445-1.26h3.7a4.384,4.384,0,0,1-1.494,3.422,5.558,5.558,0,0,1-3.85,1.336,5.627,5.627,0,0,1-4.359-1.734,6.834,6.834,0,0,1-1.594-4.8v-.164a7.723,7.723,0,0,1,.709-3.393,5.162,5.162,0,0,1,2.045-2.262,6.1,6.1,0,0,1,3.164-.791,5.488,5.488,0,0,1,3.926,1.371,4.863,4.863,0,0,1,1.453,3.715h-3.7a2.168,2.168,0,0,0-.48-1.512,1.658,1.658,0,0,0-1.289-.527q-1.535,0-1.793,1.957a13.809,13.809,0,0,0-.082,1.711,5.424,5.424,0,0,0,.457,2.648A1.582,1.582,0,0,0,230.523,22.188Zm6.609-3.645a7.484,7.484,0,0,1,.738-3.381,5.28,5.28,0,0,1,2.121-2.279,6.388,6.388,0,0,1,3.246-.8,5.83,5.83,0,0,1,4.488,1.764,6.768,6.768,0,0,1,1.641,4.8v.141a6.566,6.566,0,0,1-1.646,4.705,5.846,5.846,0,0,1-4.459,1.74,5.912,5.912,0,0,1-4.348-1.623,6.348,6.348,0,0,1-1.77-4.4Zm3.949.246a4.718,4.718,0,0,0,.551,2.578,1.835,1.835,0,0,0,1.629.82q2.109,0,2.156-3.246v-.4q0-3.41-2.18-3.41-1.98,0-2.145,2.941Z" transform="translate(-1499.578 -13002.705)" fill="#fff"/><path d="M76.152,7.938l3.809,11.871,3.8-11.871h5.414V25H85.047V21.016l.4-8.156L81.32,25H78.6L74.465,12.848l.4,8.168V25H70.75V7.938ZM98.746,25a4.459,4.459,0,0,1-.375-1.137,3.672,3.672,0,0,1-3.047,1.371,4.5,4.5,0,0,1-3.047-1.084,3.45,3.45,0,0,1-1.254-2.725,3.546,3.546,0,0,1,1.523-3.117,7.761,7.761,0,0,1,4.43-1.055H98.2v-.668q0-1.746-1.512-1.746a1.233,1.233,0,0,0-1.406,1.383H91.328a3.546,3.546,0,0,1,1.564-2.988,6.569,6.569,0,0,1,3.99-1.148,5.764,5.764,0,0,1,3.832,1.184,4.115,4.115,0,0,1,1.441,3.246v5.613A5.748,5.748,0,0,0,102.7,24.8V25Zm-2.473-2.578a2.2,2.2,0,0,0,1.225-.316,1.983,1.983,0,0,0,.7-.715V19.363H97.047q-2.062,0-2.062,1.852a1.131,1.131,0,0,0,.363.873A1.315,1.315,0,0,0,96.273,22.422Zm11.7-10.1.129,1.488a4.3,4.3,0,0,1,3.621-1.723,3.618,3.618,0,0,1,2.959,1.184,5.635,5.635,0,0,1,1.014,3.563V25H111.73V17a2.14,2.14,0,0,0-.387-1.412,1.789,1.789,0,0,0-1.406-.451,1.883,1.883,0,0,0-1.723.914V25h-3.949V12.32ZM125.43,23.629a4.072,4.072,0,0,1-3.387,1.605,3.993,3.993,0,0,1-3.158-1.213,5.1,5.1,0,0,1-1.072-3.486V12.32h3.949v8.238a1.419,1.419,0,0,0,1.582,1.629,2.064,2.064,0,0,0,1.934-.973V12.32h3.973V25h-3.7ZM138.555,25a4.459,4.459,0,0,1-.375-1.137,3.672,3.672,0,0,1-3.047,1.371,4.5,4.5,0,0,1-3.047-1.084,3.45,3.45,0,0,1-1.254-2.725,3.546,3.546,0,0,1,1.523-3.117,7.761,7.761,0,0,1,4.43-1.055H138v-.668q0-1.746-1.512-1.746a1.233,1.233,0,0,0-1.406,1.383h-3.949a3.546,3.546,0,0,1,1.564-2.988,6.569,6.569,0,0,1,3.99-1.148,5.764,5.764,0,0,1,3.832,1.184,4.115,4.115,0,0,1,1.441,3.246v5.613A5.748,5.748,0,0,0,142.5,24.8V25Zm-2.473-2.578a2.2,2.2,0,0,0,1.225-.316,1.983,1.983,0,0,0,.7-.715V19.363h-1.148q-2.062,0-2.062,1.852a1.131,1.131,0,0,0,.363.873A1.315,1.315,0,0,0,136.082,22.422ZM148.316,25h-3.961V7h3.961Zm8.566.234a6.518,6.518,0,0,1-4.723-1.74,6.009,6.009,0,0,1-1.8-4.529v-.328a7.787,7.787,0,0,1,.721-3.434,5.274,5.274,0,0,1,2.1-2.3,6.35,6.35,0,0,1,3.281-.814,5.489,5.489,0,0,1,4.219,1.658,6.516,6.516,0,0,1,1.547,4.623V19.9h-7.852a2.846,2.846,0,0,0,.926,1.676,2.755,2.755,0,0,0,1.852.609,3.549,3.549,0,0,0,2.93-1.312l1.8,2.133a5.045,5.045,0,0,1-2.092,1.623A7.069,7.069,0,0,1,156.883,25.234Zm-.445-10.1q-1.734,0-2.062,2.3h3.984v-.3a1.956,1.956,0,0,0-.48-1.471A1.912,1.912,0,0,0,156.438,15.133Zm14.016,6.3a.912.912,0,0,0-.527-.809,8.021,8.021,0,0,0-2-.633,9.138,9.138,0,0,1-2.437-.861,4.083,4.083,0,0,1-1.465-1.295,3.092,3.092,0,0,1-.5-1.746,3.5,3.5,0,0,1,1.441-2.877,5.938,5.938,0,0,1,3.773-1.131,6.579,6.579,0,0,1,4.031,1.137,3.555,3.555,0,0,1,1.523,2.988h-3.961q0-1.523-1.605-1.523a1.591,1.591,0,0,0-1.043.346,1.07,1.07,0,0,0-.422.861.982.982,0,0,0,.516.855,4.872,4.872,0,0,0,1.646.539,14.228,14.228,0,0,1,1.986.5q2.859.984,2.859,3.527a3.321,3.321,0,0,1-1.541,2.824,6.758,6.758,0,0,1-3.99,1.09,6.9,6.9,0,0,1-2.906-.586,4.86,4.86,0,0,1-1.992-1.594,3.609,3.609,0,0,1-.715-2.121h3.691a1.526,1.526,0,0,0,.586,1.283,2.41,2.41,0,0,0,1.441.4,1.9,1.9,0,0,0,1.213-.328A1.05,1.05,0,0,0,170.453,21.438Z" transform="translate(-1524.156 -13201.705)" fill="#fff"/><g transform="translate(-1411.76 -13560)" opacity="0.49"><g transform="translate(0)"><path d="M121.478,57.856l3.826,2.208a4.952,4.952,0,0,1-.035-.5v-1.11c0-1.975,1.385-2.775,3.1-1.788a6.041,6.041,0,0,1,1.846,1.753c.28-2.483,2.226-3.406,4.592-2.045a10.241,10.241,0,0,1,4.627,8.021v1.659a4.358,4.358,0,0,1-.391,1.922l3.178,1.834a3.8,3.8,0,0,1,1.718,3.026c0,1.092-.771,1.536-1.718.987l-20.739-11.97a3.791,3.791,0,0,1-1.718-2.974C119.76,57.751,120.525,57.307,121.478,57.856Z" transform="translate(-119.76 -40.191)" fill="#1d7e96"/><path d="M72.243,36.645l2.109.812V32.784c0-3.692,2.921-4.574,6.134-2.728h0A12.769,12.769,0,0,1,86.27,40.068v.666a3.108,3.108,0,0,1,2.681.415h0a9.207,9.207,0,0,1,4.159,7.209v.3l2.921,1.7a6.07,6.07,0,0,1,2.74,4.749c0,1.753-1.227,2.454-2.74,1.577L72.22,42.943a6.058,6.058,0,0,1-2.74-4.749C69.5,36.452,70.73,35.745,72.243,36.645Z" transform="translate(-45.225 -29.122)" fill="#1d7e96"/></g></g><g transform="translate(-1566.849 -13462.753)"><path d="M261.731,290.332l-69.915,40.361a7.536,7.536,0,0,1-7.3.134L43.759,249.574a7.123,7.123,0,0,1,0-12.823l69.658-40.2a8.874,8.874,0,0,1,8.027,0l140.287,80.992a7.1,7.1,0,0,1,0,12.794Z" transform="translate(-39.74 -195.588)" fill="#37474f"/><path d="M43.543,358.725l69.915-40.361a7.1,7.1,0,0,0,0-12.794L39.74,263v96.724a7.413,7.413,0,0,0,3.8-1Z" transform="translate(108.532 -223.619)" fill="#263238"/><path d="M192.452,323.5a7.869,7.869,0,0,1-7.08,0L46.043,243.06c-3-1.753-3-4.562,0-6.292l69.67-40.221a8.874,8.874,0,0,1,8.027,0l140.287,80.992c2.208,1.279,2.208,3.365,0,4.638Z" transform="translate(-42.041 -195.588)" fill="#455a64"/><path d="M194.94,320.7a8.406,8.406,0,0,1-7.629,0L67.429,251.478c-2.109-1.215-2.109-3.19,0-4.4l65.528-37.832a8.442,8.442,0,0,1,7.629,0L260.48,278.456c2.1,1.215,2.1,3.2,0,4.411Z" transform="translate(-51.294 -200.886)" fill="#37474f"/><path d="M351.387,208.35a7.723,7.723,0,0,0-3.587.9l-65.528,37.832c-2.109,1.215-2.109,3.19,0,4.4l12.981,7.483,56.135-35.846Z" transform="translate(-266.136 -200.894)" fill="#263238"/><path d="M141.008,214.141a8.441,8.441,0,0,0-7.629,0l-65.54,37.832a3.972,3.972,0,0,0-1,.8,3.85,3.85,0,0,0,.952.742l119.893,69.22a8.406,8.406,0,0,0,7.629,0l65.54-37.832a3.9,3.9,0,0,0,.993-.794,3.827,3.827,0,0,0-.946-.748Z" transform="translate(-51.669 -202.924)" fill="#fafafa"/><path d="M340.067,238.4l11.614-6.706c.7-.4.73-1.028.082-1.4a2.693,2.693,0,0,0-2.436.041l-11.6,6.689c-.7.4-.73,1.028-.076,1.408a2.7,2.7,0,0,0,2.413-.029Z" transform="translate(-299.981 -209.903)" fill="#263238"/><path d="M325.859,223.515a.719.719,0,0,0,0-1.361,2.611,2.611,0,0,0-2.337,0,.719.719,0,0,0,0,1.361A2.611,2.611,0,0,0,325.859,223.515Z" transform="translate(-265.834 -206.519)" fill="#263238"/><path d="M317.8,218.835a.719.719,0,0,0,0-1.361,2.611,2.611,0,0,0-2.337,0,.719.719,0,0,0,0,1.361A2.611,2.611,0,0,0,317.8,218.835Z" transform="translate(-253.066 -204.573)" fill="#263238"/><path d="M382.279,256.085a.719.719,0,0,0,0-1.361,2.611,2.611,0,0,0-2.337,0,.719.719,0,0,0,0,1.361,2.611,2.611,0,0,0,2.337,0Z" transform="translate(-355.214 -220.062)" fill="#263238"/><path d="M374.219,251.425a.719.719,0,0,0,0-1.361,2.611,2.611,0,0,0-2.337,0,.719.719,0,0,0,0,1.361,2.611,2.611,0,0,0,2.337,0Z" transform="translate(-342.445 -218.125)" fill="#263238"/><g transform="translate(107.806 83.857)"><path d="M214.487,357.417v.24a1.4,1.4,0,0,1-.631,1.1l-13.641,7.875a1.437,1.437,0,0,1-1.274,0l-22.59-13.027a1.414,1.414,0,0,1-.631-1.1v-.251a1.4,1.4,0,0,1,.631-1.1l13.641-7.875a1.437,1.437,0,0,1,1.274,0l22.59,13.039A1.4,1.4,0,0,1,214.487,357.417Z" transform="translate(-175.72 -340.793)" fill="#78aad2"/><path d="M214.487,357.417v.24a1.4,1.4,0,0,1-.631,1.1l-13.641,7.875a1.437,1.437,0,0,1-1.274,0l-22.59-13.027a1.414,1.414,0,0,1-.631-1.1v-.251a1.4,1.4,0,0,1,.631-1.1l13.641-7.875a1.437,1.437,0,0,1,1.274,0l22.59,13.039A1.4,1.4,0,0,1,214.487,357.417Z" transform="translate(-175.72 -340.793)" fill="#78aad2"/><path d="M201.881,351.149l13.641-7.875a1.437,1.437,0,0,1,1.274,0l8.307,4.8V366.77h0a1.332,1.332,0,0,1-.637-.152l-22.585-13.01a1.414,1.414,0,0,1-.631-1.1v-.251A1.4,1.4,0,0,1,201.881,351.149Z" transform="translate(-201.25 -340.793)" fill="#fff" opacity="0.3"/><path d="M201.881,351.149l13.641-7.875a1.437,1.437,0,0,1,1.274,0l8.307,4.8V366.77h0a1.332,1.332,0,0,1-.637-.152l-22.585-13.01a1.414,1.414,0,0,1-.631-1.1v-.251A1.4,1.4,0,0,1,201.881,351.149Z" transform="translate(-201.25 -340.793)" opacity="0.15"/><path d="M175.72,351.6,190,359.837a1.4,1.4,0,0,1,.631,1.1v.24a1.4,1.4,0,0,1-.631,1.1l-13.641,7.875a1.314,1.314,0,0,1-.637.152h0Z" transform="translate(-151.862 -344.317)" fill="#fff" opacity="0.3"/><path d="M175.72,351.6,190,359.837a1.4,1.4,0,0,1,.631,1.1v.24a1.4,1.4,0,0,1-.631,1.1l-13.641,7.875a1.314,1.314,0,0,1-.637.152h0Z" transform="translate(-151.862 -344.317)" opacity="0.2"/><path d="M202.665,363.679l11.456-6.59a.391.391,0,0,0,0-.736l-22.585-13.039a1.437,1.437,0,0,0-1.274,0l-13.647,7.852a.391.391,0,0,0,0,.736l3.75,2.161,1.309.759L199.2,364.941a1.4,1.4,0,0,0,1.274,0l1.11-.643Z" transform="translate(-175.985 -340.81)" fill="#78aad2"/><path d="M202.665,363.679l11.456-6.59a.391.391,0,0,0,0-.736l-22.585-13.039a1.437,1.437,0,0,0-1.274,0l-13.647,7.852a.391.391,0,0,0,0,.736l3.75,2.161,1.309.759L199.2,364.941a1.4,1.4,0,0,0,1.274,0l1.11-.643Z" transform="translate(-175.985 -340.81)" fill="#fff" opacity="0.3"/><path d="M192.02,352.666l-15.65-1.525,15.5.876-1.864-8.763a1.414,1.414,0,0,1,.7-.146l2.921,11.83,20.5,1.694a.438.438,0,0,1-.257.4l-16.556-.958,2.278,8.985-2.921-9.026h0l-2.827-.164a1.5,1.5,0,0,1-.929-.391h0a1.548,1.548,0,0,1-.473-.818Z" transform="translate(-175.739 -340.786)" opacity="0.15"/><path d="M194.925,356.251l-15.609-1.291-.584-2.232-.31-1.244-2.062-8.354a1.349,1.349,0,0,1,.584.146l11.292,6.52,11.322,6.52a.467.467,0,0,1,.257.339l-3.131-.257Z" transform="translate(-161.422 -340.795)" fill="#fff" opacity="0.3"/><path d="M216.533,339.75a5.707,5.707,0,0,0-5.164,0c-1.425.824-1.425,2.156,0,2.979a5.707,5.707,0,0,0,5.164,0C217.959,341.906,217.959,340.574,216.533,339.75Z" transform="translate(-199.037 -339.133)" fill="#f28f8f"/><path d="M216.959,342.478a.245.245,0,0,0,.105-.035.082.082,0,0,0,.029-.076l-.216-.935v-.088a.146.146,0,0,0-.076-.082l-.526-.3a.222.222,0,0,0-.111-.029.227.227,0,0,0-.117.029l-2.769,1.595a.07.07,0,0,0,0,.134l.584.327a.246.246,0,0,0,.117,0,.234.234,0,0,0,.117,0l1.869-1.081.123.514c0,.029.029.047.064.064a.211.211,0,0,0,.123,0Z" transform="translate(-200.239 -339.88)" fill="#fafafa"/></g><g transform="translate(41.875 48.661)"><path d="M287.505,320.751l15.341-8.856c.35-.2.35-.532,0-.73l-55.685-32.13a1.408,1.408,0,0,0-1.262,0L230.553,287.9c-.35.2-.35.526,0,.73l55.685,32.13A1.384,1.384,0,0,0,287.505,320.751Z" transform="translate(-230.29 -278.884)" fill="#78aad2"/><path d="M243.461,331.948a.3.3,0,0,0,.158.041h.123l3.19-.362-1.887,1.092a.076.076,0,0,0,0,.14l.374.216a.2.2,0,0,0,.123,0,.211.211,0,0,0,.123,0l2.962-1.706c.035,0,.053-.047.053-.076a.088.088,0,0,0-.053-.07l-.321-.187a.316.316,0,0,0-.158-.041h-.129l-3.19.362,1.893-1.092a.076.076,0,0,0,0-.14l-.374-.216a.268.268,0,0,0-.123-.029.24.24,0,0,0-.123.029l-2.962,1.712a.07.07,0,1,0,0,.14Z" transform="translate(-183.325 -300.089)" fill="#fafafa"/><path d="M253.582,330.085a1.548,1.548,0,0,0,.4-.321.666.666,0,0,0,.169-.356.584.584,0,0,0-.093-.362.97.97,0,0,0-.368-.321,2,2,0,0,0-.555-.216,2.728,2.728,0,0,0-.613-.058,2.921,2.921,0,0,0-.584.082,2.114,2.114,0,0,0-.526.216l-.2.117a.076.076,0,0,0,0,.14l1.531.888a.738.738,0,0,1-.234.082,1.168,1.168,0,0,1-.251,0,1.921,1.921,0,0,1-.251-.053,1.108,1.108,0,0,1-.222-.1.887.887,0,0,1-.21-.152.292.292,0,0,1-.076-.134.187.187,0,0,0-.035-.076.257.257,0,0,0-.07-.058l-.368-.21a.268.268,0,0,0-.123-.029.193.193,0,0,0-.123.029.216.216,0,0,0-.094.134.38.38,0,0,0,0,.228.73.73,0,0,0,.164.286,1.437,1.437,0,0,0,.38.3,2.284,2.284,0,0,0,.555.216,2.664,2.664,0,0,0,.613.058,2.746,2.746,0,0,0,.584-.1A2.693,2.693,0,0,0,253.582,330.085Zm-.438-1.046a.666.666,0,0,1,.187.152.292.292,0,0,1,.058.152.228.228,0,0,1-.041.134.3.3,0,0,1-.1.111L252.215,329a1.224,1.224,0,0,1,.175-.064.884.884,0,0,1,.222-.035,1.276,1.276,0,0,1,.251.029,1.364,1.364,0,0,1,.28.105Z" transform="translate(-193.242 -299.494)" fill="#fafafa"/><path d="M255.15,325.557l.894-1a.14.14,0,0,0,.035-.064.082.082,0,0,0-.053-.07l-.345-.2a.28.28,0,0,0-.129-.029.269.269,0,0,0-.123.029h0l-1.425,1.618a.2.2,0,0,0-.035.07.094.094,0,0,0,.053.076l.351.2a.21.21,0,0,0,.129.029h.123l1.665-.45-.777.964a.2.2,0,0,0-.035.07.082.082,0,0,0,.053.07l.345.2a.216.216,0,0,0,.128.029.416.416,0,0,0,.123,0l2.8-.818h.035a.07.07,0,0,0,0-.14l-.345-.2a.216.216,0,0,0-.129-.029h-.111l-1.723.514.87-1.011a.082.082,0,0,0,0-.064.07.07,0,0,0-.047-.07l-.351-.2a.257.257,0,0,0-.123,0,.351.351,0,0,0-.117,0Z" transform="translate(-200.05 -297.723)" fill="#fafafa"/><path d="M266.092,322.832a1.56,1.56,0,0,0,.4-.327.649.649,0,0,0,.169-.356.5.5,0,0,0-.088-.356,1.081,1.081,0,0,0-.368-.327,2.109,2.109,0,0,0-.584-.216,3.06,3.06,0,0,0-.584-.058,2.629,2.629,0,0,0-.584.088,1.9,1.9,0,0,0-.526.21l-.2.117q-.053.035-.053.07c0,.029,0,.053.053.076l1.531.882a.626.626,0,0,1-.228.082,1.208,1.208,0,0,1-.251,0,1.006,1.006,0,0,1-.257-.053.851.851,0,0,1-.222-.1.748.748,0,0,1-.21-.152.333.333,0,0,1-.076-.129.222.222,0,0,0-.029-.082.169.169,0,0,0-.076-.053l-.368-.216a.275.275,0,0,0-.245,0,.28.28,0,0,0-.094.14.379.379,0,0,0,0,.228.981.981,0,0,0,.164.286,1.472,1.472,0,0,0,.386.3,2,2,0,0,0,.555.216,2.339,2.339,0,0,0,.584.058,2.488,2.488,0,0,0,.619-.1A2.372,2.372,0,0,0,266.092,322.832Zm-.438-1.046a.514.514,0,0,1,.187.152.239.239,0,0,1,.058.152.222.222,0,0,1-.035.134.585.585,0,0,1-.1.105l-1.04-.584a1.081,1.081,0,0,1,.181-.064.841.841,0,0,1,.216-.029.76.76,0,0,1,.251.029.818.818,0,0,1,.28.123Z" transform="translate(-213.065 -296.476)" fill="#fafafa"/><path d="M272.111,318.631a.391.391,0,0,0-.064-.275.683.683,0,0,0-.251-.228,1.642,1.642,0,0,0-.584-.21,2.05,2.05,0,0,0-.584,0,.449.449,0,0,0,0-.175.519.519,0,0,0-.064-.181.661.661,0,0,0-.129-.164,1.122,1.122,0,0,0-.181-.134,1.671,1.671,0,0,0-.52-.2,1.916,1.916,0,0,0-.514-.029,2.037,2.037,0,0,0-.5.111,2.879,2.879,0,0,0-.45.21l-1.238.713a.082.082,0,0,0,0,.146l.35.2a.268.268,0,0,0,.123.029.281.281,0,0,0,.129-.029l1.209-.7a1.232,1.232,0,0,1,.555-.181.906.906,0,0,1,.456.123.321.321,0,0,1,.193.251c0,.093-.082.2-.275.321l-1.233.713a.07.07,0,1,0,0,.14l.351.2a.24.24,0,0,0,.123.029.269.269,0,0,0,.123-.029l1.209-.7a1.122,1.122,0,0,1,.555-.181.789.789,0,0,1,.456.123.321.321,0,0,1,.2.257c0,.1-.093.21-.3.327l-1.209.7a.1.1,0,0,0-.047.076.087.087,0,0,0,.047.07l.351.2a.274.274,0,0,0,.245,0l2.138-1.233a.07.07,0,1,0,0-.14l-.351-.2a.239.239,0,0,0-.123-.029.269.269,0,0,0-.123.029Z" transform="translate(-221.468 -294.746)" fill="#fafafa"/><path d="M278.564,315.676a.5.5,0,0,0,.123-.169.374.374,0,0,0,0-.228.584.584,0,0,0-.134-.263,1.2,1.2,0,0,0-.351-.275,2.535,2.535,0,0,0-.485-.21,2.437,2.437,0,0,0-.5-.082,1.681,1.681,0,0,0-.508.058,1.95,1.95,0,0,0-.491.193l-1.349.777a.1.1,0,0,0-.047.076.082.082,0,0,0,.047.07l.351.2a.21.21,0,0,0,.123.029.193.193,0,0,0,.123-.029l.152-.088a.391.391,0,0,0,.053.292.935.935,0,0,0,.368.321,1.752,1.752,0,0,0,.4.175,1.7,1.7,0,0,0,.409.064,2.123,2.123,0,0,0,.391-.035,1.286,1.286,0,0,0,.345-.134c.21-.123.3-.263.269-.415a.888.888,0,0,0-.356-.491l-.619-.5a.584.584,0,0,1,.391-.082,1.04,1.04,0,0,1,.386.128.474.474,0,0,1,.146.123.327.327,0,0,1,.035.123.293.293,0,0,0,0,.076.18.18,0,0,0,.064.047l.426.251a.2.2,0,0,0,.105,0A.117.117,0,0,0,278.564,315.676Zm-2.056.3a.906.906,0,0,1-.234-.187.345.345,0,0,1-.088-.187.263.263,0,0,1,.041-.164.409.409,0,0,1,.146-.134l.047-.029.514.426a.456.456,0,0,1,.175.21.134.134,0,0,1-.082.146.357.357,0,0,1-.24,0A.956.956,0,0,1,276.508,315.98Z" transform="translate(-231.899 -293.672)" fill="#fafafa"/><path d="M280.413,311.979a.274.274,0,0,0-.245,0l-.356.2a.088.088,0,0,0-.053.07c0,.029,0,.053.053.076l.391.228a.269.269,0,0,0,.123.029.281.281,0,0,0,.128-.029l.356-.21a.076.076,0,0,0,0-.14Zm-3.231,1.753c-.035,0-.053.047-.053.076s0,.047.053.07l.351.2a.251.251,0,0,0,.123.029.21.21,0,0,0,.123-.029l2.138-1.233a.082.082,0,0,0,.047-.07.07.07,0,0,0-.047-.07l-.351-.2a.269.269,0,0,0-.123-.029.24.24,0,0,0-.123.029Z" transform="translate(-235.402 -292.634)" fill="#fafafa"/><path d="M279.317,312.556a.076.076,0,0,0,0,.14l.345.2a.268.268,0,0,0,.123.029.28.28,0,0,0,.128-.029l3.009-1.753a.1.1,0,0,0,.047-.076.088.088,0,0,0-.047-.07l-.35-.2a.211.211,0,0,0-.123,0,.223.223,0,0,0-.129,0Z" transform="translate(-238.763 -292.153)" fill="#fafafa"/><path d="M301.11,318.773l-45.438-26.23a2.027,2.027,0,0,0-1.823-.111c-.45.257-.362.73.193,1.052L299.48,319.72a2.045,2.045,0,0,0,1.828.111C301.758,319.568,301.665,319.1,301.11,318.773Z" transform="translate(-242.37 -284.449)" fill="#fafafa"/><path d="M306.577,321.932,261.138,295.7a2.033,2.033,0,0,0-1.823-.117c-.456.263-.362.73.193,1.057l45.438,26.23a2.045,2.045,0,0,0,1.829.117C307.219,322.726,307.132,322.253,306.577,321.932Z" transform="translate(-251.026 -285.761)" fill="#fafafa"/></g></g><g transform="translate(-1559.594 -13540.644)"><g transform="translate(0 0)"><path d="M210.543,316.5l23.73-13.7-106.3-61.375L103.76,254.855Z" transform="translate(-52.919 -136.759)" fill="#e0e0e0"/><g transform="translate(56.999 11.42)"><path d="M240.436,182.182l-101.1-58.372-4.043,2.337a4.23,4.23,0,0,0-1.9,3.295v74.577a4.218,4.218,0,0,0,1.9,3.295l97.29,56.175a4.23,4.23,0,0,0,3.8,0l2.144-1.238a4.23,4.23,0,0,0,1.9-3.295Z" transform="translate(-133.39 -99.271)" fill="#78aad2"/><path d="M240.436,182.182l-101.1-58.372-4.043,2.337a4.23,4.23,0,0,0-1.9,3.295v74.577a4.218,4.218,0,0,0,1.9,3.295l97.29,56.175a4.23,4.23,0,0,0,3.8,0l2.144-1.238a4.23,4.23,0,0,0,1.9-3.295Z" transform="translate(-133.39 -99.271)" opacity="0.2"/><path d="M133.951,99.8l-.415-.222,1.571-.917h0a3.03,3.03,0,0,1,.415-.2l44.492-16.48a3.073,3.073,0,0,1,3.417,1.087L233.2,155.743a8.623,8.623,0,0,1,1.285,4.148v4.831l-1.542.894L133.39,106.35v-4.825A3.248,3.248,0,0,1,133.951,99.8Z" transform="translate(-127.443 -81.811)" fill="#78aad2"/><path d="M134,83.925a2.7,2.7,0,0,1,.514.549l49.773,72.679a7.594,7.594,0,0,1,.923,2.08l1.548-.894a9.049,9.049,0,0,0-.4-1.1.244.244,0,0,0,0-.035c-.07-.152-.14-.292-.216-.438a.392.392,0,0,0-.035-.07,4.341,4.341,0,0,0-.263-.438L136.056,83.609a2.53,2.53,0,0,0-.245-.3c-.088-.082-.175-.169-.269-.245Z" transform="translate(-80.068 -82.326)" opacity="0.1"/><path d="M221.67,99.555a2.383,2.383,0,0,1,.426-.2l44.5-16.492a3.055,3.055,0,0,1,2.921.543l1.519-.9a3.084,3.084,0,0,0-2.921-.543L223.639,98.451a2.484,2.484,0,0,0-.415.2Z" transform="translate(-215.559 -81.804)" fill="#fff" opacity="0.35"/><path d="M135.4,208.8a3.947,3.947,0,0,0-.263-.438,3.95,3.95,0,0,1,.263.438Z" transform="translate(-29.379 -134.428)" fill="#78aad2"/><path d="M221.483,83.255a2.613,2.613,0,0,0-.263-.245A2.613,2.613,0,0,1,221.483,83.255Z" transform="translate(-165.746 -82.306)" fill="#78aad2"/><path d="M134.409,211.134a9.538,9.538,0,0,0-.409-1.1,9.539,9.539,0,0,1,.409,1.1Z" transform="translate(-27.719 -135.122)" fill="#78aad2"/><path d="M134.92,209.688c-.064-.152-.14-.3-.21-.438C134.751,209.379,134.856,209.525,134.92,209.688Z" transform="translate(-28.645 -134.798)" fill="#78aad2"/><path d="M134.69,209.973v0Z" transform="translate(-28.403 -135.083)" opacity="0.2"/><path d="M133.99,211.92Z" transform="translate(-27.294 -135.908)" opacity="0.2"/><path d="M221.67,83.01Z" transform="translate(-166.196 -82.306)" opacity="0.2"/><path d="M135.111,209.18a.439.439,0,0,0-.041-.07.44.44,0,0,1,.041.07Z" transform="translate(-29.046 -134.74)" opacity="0.2"/><path d="M221.041,83.728a2,2,0,0,0-.251-.3A2,2,0,0,1,221.041,83.728Z" transform="translate(-165.053 -82.48)" opacity="0.2"/><path d="M186.024,84.6,235.8,157.275a8.664,8.664,0,0,1,1.3,4.154v4.825L136,107.882v-4.825A3.505,3.505,0,0,1,138.132,100L182.606,83.51A3.055,3.055,0,0,1,186.024,84.6Z" transform="translate(-131.578 -82.449)" fill="#78aad2"/><path d="M136,115.87a3.266,3.266,0,0,1,.543-1.7l100.194,58h0a7.513,7.513,0,0,1,.38,2.074v4.825L136.018,120.7Z" transform="translate(-131.595 -95.262)" opacity="0.05"/></g><g transform="translate(65.715 8.619)"><path d="M148.786,79.925a1.168,1.168,0,0,1,.473-1.057l3.09-1.753a1.168,1.168,0,0,1,1.168.117l82.955,47.9a3.634,3.634,0,0,1,1.642,2.845v99.312a1.168,1.168,0,0,1-.479,1.063l-3.079,1.753a1.168,1.168,0,0,1-1.168-.111l-82.954-47.874a3.639,3.639,0,0,1-1.647-2.886Z" transform="translate(-148.78 -77.011)" fill="#78aad2"/><path d="M148.786,79.925a1.168,1.168,0,0,1,.473-1.057l3.09-1.753a1.168,1.168,0,0,1,1.168.117l82.955,47.9a3.634,3.634,0,0,1,1.642,2.845v99.312a1.168,1.168,0,0,1-.479,1.063l-3.079,1.753a1.168,1.168,0,0,1-1.168-.111l-82.954-47.874a3.639,3.639,0,0,1-1.647-2.886Z" transform="translate(-148.78 -77.011)" fill="#fff" opacity="0.95"/><path d="M238.7,231.2,155.742,183.33a3.639,3.639,0,0,1-1.612-2.851V81.168c0-1.046.736-1.466,1.642-.946l82.925,47.9a3.639,3.639,0,0,1,1.642,2.845v99.312C240.338,231.3,239.6,231.725,238.7,231.2Z" transform="translate(-154.124 -78.253)" fill="#78aad2"/><path d="M238.7,231.2,155.742,183.33a3.639,3.639,0,0,1-1.612-2.851V81.168c0-1.046.736-1.466,1.642-.946l82.925,47.9a3.639,3.639,0,0,1,1.642,2.845v99.312C240.338,231.3,239.6,231.725,238.7,231.2Z" transform="translate(-154.124 -78.253)" fill="#fff" opacity="0.8"/><path d="M149.333,264.1a1.233,1.233,0,0,1-.386,1c.555-.315,2.7-1.566,2.979-1.717a1.133,1.133,0,0,0,.485-1.057V163.022a3.283,3.283,0,0,0-.485-1.612l-3.079,1.753a3.342,3.342,0,0,1,.485,1.624Z" transform="translate(-63.119 -112.105)" fill="#78aad2"/><path d="M149.333,264.1a1.233,1.233,0,0,1-.386,1c.555-.315,2.7-1.566,2.979-1.717a1.133,1.133,0,0,0,.485-1.057V163.022a3.283,3.283,0,0,0-.485-1.612l-3.079,1.753a3.342,3.342,0,0,1,.485,1.624Z" transform="translate(-63.119 -112.105)" fill="#fff" opacity="0.7"/><path d="M149.333,264.1a1.233,1.233,0,0,1-.386,1c.555-.315,2.7-1.566,2.979-1.717a1.133,1.133,0,0,0,.485-1.057V163.022a3.283,3.283,0,0,0-.485-1.612l-3.079,1.753a3.342,3.342,0,0,1,.485,1.624Z" transform="translate(-63.119 -112.105)" opacity="0.05"/></g><g transform="translate(77.825)"><path d="M243.34,207.5c.362,9.242-.257,29.04-.257,29.04s-9.8,2.956-16.451,1.858-20.9-11.193-20.9-11.193l2.372-21.422Z" transform="translate(-199.496 -121.935)" fill="#37474f"/><path d="M251.731,240.785l-1.589-15.1a20.211,20.211,0,0,1-8.272-8.874c5.678,7.437,11.6,6.233,11.6,6.233v18.53C252.905,241.34,252.321,241.071,251.731,240.785Z" transform="translate(-230.625 -126.522)" fill="#263238"/><path d="M206.4,146.157c-1.589-8.044-2.308-18.729,4.673-20.692,1.823-.508,6.461-.152,6.461-.152l7.542.374c4.2.532,10.089,1.367,11.631,1.753,4.054,1,5.258,7.594,7.075,22.281,1.133,9.183,2.1,16.357,2.1,25.3-7.408,6.642-30.57,4.025-35.84-.3C209.865,164.583,209.28,160.826,206.4,146.157Z" transform="translate(-201.698 -88.426)" fill="#8dd52c"/><path d="M242.15,120.589c.07,1.466-1.618,3.943-4.206,5.684s-4.814,2.448-5.094,3.172c1.227.228,2.337.835,3.248,2.921.87,2.01.865,2.074,3.85,0s5.655-6.841,5.643-8.43-2.337-4.674-3.505-4.4Z" transform="translate(-217.474 -86.067)" fill="#37474f"/><path d="M259.744,130.7a10.272,10.272,0,0,1-1.811-4.393l-.38-3.768a2.01,2.01,0,0,0-1.034.672c-.321.491-1.91,3.774-1.858,5.6a14.016,14.016,0,0,0,1.1,5.357c.619,1.046,1.034-.794,1.443-1.513A3.119,3.119,0,0,1,259.744,130.7Z" transform="translate(-244.368 -87.323)" fill="#37474f"/><path d="M254,140.11a71.108,71.108,0,0,0,.467,10.141,10.714,10.714,0,0,1-3.943-.105s1.011,1.244,4.714.672A106.844,106.844,0,0,1,254,140.11Z" transform="translate(-237.44 -94.629)" fill="#37474f"/><path d="M229.04,80.514a10.515,10.515,0,0,1,20.966-.795l4.773-3.394a3.727,3.727,0,0,1,3.073,1.127c1.309,1.379.5,5.614-1.209,9.75,0,0-1.723,7.542-2.389,8.763a3.429,3.429,0,0,1-2,1.566l.164-4.592-19.085-1.373,1.887-1.344A10.515,10.515,0,0,1,229.04,80.514Z" transform="translate(-228.158 -65.609)" fill="#263238"/><path d="M248.516,88.306c.584.368,1.168-.905,2.249-1.56.935-.584,3.032-1.536,4.411.783,1.49,2.494-1.215,5.941-3.108,6.654-2.8,1.052-3.8-1.168-3.8-1.168l.584,11.684c-3.838,6.975-15.142,6.555-11.292.713l-.462-4.5a21.231,21.231,0,0,1-4.487.164c-2.436-.415-3.949-2.337-4.673-5.024-1.128-4.27-1.531-7.711-.4-16.053,1.244-9.148,11.906-9.084,17.607-5.38S248.516,88.306,248.516,88.306Z" transform="translate(-223.992 -66.42)" fill="#ffa8a7"/><path d="M230.364,67.282a3.937,3.937,0,0,1,2.576-.3,3.12,3.12,0,0,1,1.869-3.137,3.61,3.61,0,0,1,3.949.532,1.859,1.859,0,0,1,1.531-2.086,5.036,5.036,0,0,1,2.81.467c1.338.508,2.658,1.081,4.019,1.536,2.4.8,4.954,1.256,7.121,2.559a4.3,4.3,0,0,1,1.355,1.168,3.733,3.733,0,0,1,.584,2.378,4.761,4.761,0,0,1-.117.818,2.149,2.149,0,0,1,.584-.444,2.021,2.021,0,0,1,2.769.964l-3.61,1.869c.088.73.181,1.46.251,2.191.2,1.922.584,4.171.134,6.087a1.4,1.4,0,0,1-.234.643,11.415,11.415,0,0,0-1.881,1.829c-.28.339-.619.888-1.069,1.022a1.087,1.087,0,0,1-1.25-.584,1.992,1.992,0,0,1-.041-.853l.351-3.564a2.039,2.039,0,0,0-.058-.941,2.693,2.693,0,0,0-.87-.929,4.089,4.089,0,0,1-1.42-2.851,4.247,4.247,0,0,0-.093-1.022c-.076-.251-.275-.643-.584-.643-.555,0-3.581.654-4.341.759-3.961.543-8.214.648-11.684-1.3-1.361-.754-3.651-2.337-3.891-4.008a2.243,2.243,0,0,1,1.238-2.167Z" transform="translate(-229.12 -62.256)" fill="#263238"/><path d="M241.31,118.02s5.474-1.022,7.4-2.01a6.251,6.251,0,0,0,2.676-2.57,8.535,8.535,0,0,1-1.542,3.055c-1.42,1.753-8.383,2.974-8.383,2.974Z" transform="translate(-228.207 -83.539)" fill="#f28f8f"/><path d="M254.63,97.252a1.028,1.028,0,1,0,1.04-1.052,1.04,1.04,0,0,0-1.04,1.052Z" transform="translate(-241.294 -76.37)" fill="#263238"/><path d="M250.405,90.926l2.407,1.168a1.408,1.408,0,0,0-.643-1.834,1.309,1.309,0,0,0-1.764.666Z" transform="translate(-235.076 -73.848)" fill="#263238"/><path d="M258.908,109l-4.341,1.554a2.272,2.272,0,0,0,2.921,1.478,2.413,2.413,0,0,0,1.42-3.032Z" transform="translate(-243.609 -81.693)" fill="#b16668"/><path d="M254.66,112.89a2.267,2.267,0,0,1,2.535-1.934,2.175,2.175,0,0,1,.28.064,2.372,2.372,0,0,1-1.5,1.817,2.2,2.2,0,0,1-1.314.053Z" transform="translate(-242.1 -82.498)" fill="#f28f8f"/><path d="M270.372,91.485l2.337-1.209a1.268,1.268,0,0,0-1.753-.549A1.332,1.332,0,0,0,270.372,91.485Z" transform="translate(-266.435 -73.612)" fill="#263238"/><path d="M268.708,96.97a1.04,1.04,0,0,0,1,1.075,1.052,1.052,0,0,0,1.046-1.052,1.028,1.028,0,1,0-2.051,0Z" transform="translate(-263.591 -76.24)" fill="#263238"/><path d="M267.383,96.65l-.2,6.631-3.908-.911Z" transform="translate(-257.037 -76.557)" fill="#f28f8f"/></g><g transform="translate(56.999 36.853)"><path d="M142.21,252.287a.789.789,0,0,0,.105.152l42.132-13.36a7.261,7.261,0,0,1,9.1,2.8l45.041,66.942,1.665.964h0a1.344,1.344,0,0,0,1.285.14l-46.32-69a7.279,7.279,0,0,0-9.107-2.81Z" transform="translate(-139.645 -171.979)" fill="#78aad2"/><path d="M142.3,255.556l-.105-.093,41,60.463,1.671.964h0a1.379,1.379,0,0,0,1.291.146L143.907,254.58Z" transform="translate(-84.244 -179.08)" fill="#fff" opacity="0.4"/><path d="M221.5,252.292a1.022,1.022,0,0,0,.105.152l42.132-13.366a7.256,7.256,0,0,1,9.107,2.8l1.665-.97a7.273,7.273,0,0,0-9.1-2.792Z" transform="translate(-218.935 -171.978)" fill="#fff" opacity="0.4"/><path d="M145.31,129.6h0c.093-.543.38-.7.754-.438a2.226,2.226,0,0,1,.485.5l.21.292,41.577,63.209,6.2,8.646a3.54,3.54,0,0,0,3.423,1.279l5.357-1.274,40.893-15.055a2.15,2.15,0,0,1,.835-.035,1.912,1.912,0,0,1,.31.1l-1.542-.888L204.6,200.309l-5.164,1.846a3.505,3.505,0,0,1-3.418-1.285l-6.21-8.64-41.775-63.5a1.753,1.753,0,0,0-.473-.432l3.616-2.086-1.519-.87-2.5,1.443A4.358,4.358,0,0,0,145.31,129.6Z" transform="translate(-145.275 -125.34)" fill="#78aad2"/><path d="M217.26,240.835l6.21,8.652a3.54,3.54,0,0,0,3.418,1.279l5.357-1.274-.105-.093-.257-.409-3.505.835a3.505,3.505,0,0,1-3.417-1.279L218.808,240Z" transform="translate(-174.194 -173.017)" fill="#fff" opacity="0.4"/><path d="M242.1,126.777l2.5-1.437,1.513.87L242.5,128.3h0a1.753,1.753,0,0,1,.473.432l41.781,63.5.058.082h0l-1.548.841-41.571-63.2-.216-.3a1.962,1.962,0,0,0-.485-.5c-.368-.257-.66-.111-.748.438h0A4.329,4.329,0,0,1,242.1,126.777Z" transform="translate(-240.197 -125.34)" opacity="0.1"/><path d="M133.39,228.883l8.921-5.153V300.5a4.23,4.23,0,0,1-1.9,3.295l-2.144,1.238a4.23,4.23,0,0,1-3.8,0l-1.069-.619Z" transform="translate(-35.264 -166.252)" fill="#78aad2"/><path d="M133.39,228.883l8.921-5.153V300.5a4.23,4.23,0,0,1-1.9,3.295l-2.144,1.238a4.23,4.23,0,0,1-3.8,0l-1.069-.619Z" transform="translate(-35.264 -166.252)" opacity="0.15"/><path d="M143.6,132.707v74.577a3.862,3.862,0,0,0,.584,1.922,4.165,4.165,0,0,0,1.116,1.256l.076.035.117.082,97.3,56.17h0a1.361,1.361,0,0,0,1.3.152,1.168,1.168,0,0,0,.584-.911,2.1,2.1,0,0,0,0-.339V191.073a1.653,1.653,0,0,0-2.138-1.682l-40.893,15.055-5.357,1.274a3.54,3.54,0,0,1-3.423-1.279l-6.2-8.646-41.577-63.209-.21-.292C144.171,131.31,143.6,131.5,143.6,132.707Z" transform="translate(-143.598 -127.969)" fill="#78aad2"/><path d="M244.8,256.226a1.014,1.014,0,0,1-.123-.076l-.07-.047a4.089,4.089,0,0,1-1.116-1.244,3.914,3.914,0,0,1-.584-1.893l43.06-11.526-28.835,21.9Z" transform="translate(-242.904 -173.616)" fill="#78aad2"/><path d="M244.8,256.226a1.014,1.014,0,0,1-.123-.076l-.07-.047a4.089,4.089,0,0,1-1.116-1.244,3.914,3.914,0,0,1-.584-1.893l43.06-11.526-28.835,21.9Z" transform="translate(-242.904 -173.616)" opacity="0.2"/><path d="M186.585,317.439a1.3,1.3,0,0,1-.584,1.25,1.355,1.355,0,0,1-1.3-.146h0l-33.5-19.337-7.653-42.967,43.025,59.973Z" transform="translate(-85.485 -179.77)" fill="#78aad2"/><path d="M143.574,244.326l46.583,69.028a1.3,1.3,0,0,0,.584-1.25v-1.238l-45.5-67.485h0Z" transform="translate(-89.653 -174.423)" opacity="0.15"/><path d="M144.61,253.886a4.089,4.089,0,0,0,1.116,1.244l.07.047,97.419,56.246h0a1.355,1.355,0,0,0,1.3.146l-46.577-69.022a7.314,7.314,0,0,0-9.148-2.827Z" transform="translate(-144.02 -172.643)" fill="#78aad2"/><path d="M134.9,211.92l-1.548.894a7.431,7.431,0,0,1,.38,2.074v4.82l1.548-.894v-4.825A7.431,7.431,0,0,0,134.9,211.92Z" transform="translate(-28.208 -161.341)" opacity="0.15"/><path d="M136.03,226.854l1.542.888,1.566-.9,3.838-2.214-1.49-.888Z" transform="translate(-37.472 -166.256)" fill="#78aad2"/><path d="M174.919,226.883l5.521-3.143,1.49.888-3.838,2.214-1.566.9h0a1.222,1.222,0,0,0-.292-.093,2.01,2.01,0,0,0-.83.029l-3.108,1.168L136.584,242l-.584-.83Z" transform="translate(-76.407 -166.256)" opacity="0.1"/></g><g transform="translate(109.919 38.78)"><path d="M179.761,129c4.96.356,8.36,1.536,11.549,9.213,2.068,4.96,10.165,22.783,10.948,25.739.917,3.458,2.991,29.764,2.991,29.764l-4.732,1.753s1.618,5.661,2.991,8.891c1.577,3.733-6.128,2.95-8.605-.438s-4.159-7.927-2.8-9.522a22.2,22.2,0,0,1,3.75-3.47l-5.176-23.467-10.86-23.087S174.351,133.089,179.761,129Z" transform="translate(-176.815 -128.789)" fill="#ffa8a7"/><path d="M185.482,233.856a10.212,10.212,0,0,1,4.8-1.373,9.271,9.271,0,0,0-5.024,0Z" transform="translate(-166.46 -171.675)" fill="#f28f8f"/><path d="M191.442,128.64c2.781,0,7.974-.146,11.339,5.929s8.12,17.648,8.12,17.648-1.975,4.86-12.56,5.877l-8.1-17.274S188.258,132.9,191.442,128.64Z" transform="translate(-189.63 -128.639)" fill="#75b51d"/></g><g transform="translate(0 3.964)"><path d="M295.868,131.373c-4.183,3.3-10.971,8.482-14.272,10.556-2.495-3.014-7.086-9.125-8.179-10.463-1.437-1.7-5.929-4.452-5.929-4.452l-1.688,6.771s8.482,15.645,11.555,18.536c3.236,3.049,5.579,1.788,11.906-1.11,5.976-2.74,12.467-6.14,12.467-6.14-1.285-11.368-.415-17.526,5.018-19.442C303.124,126.056,299.379,128.609,295.868,131.373Z" transform="translate(-220.053 -92.572)" fill="#ffa8a7"/><path d="M261.58,139.392c2.185.584,6.7,7.01,5.877,11.1l11.508-5.69c-1.39-7.846-1.694-17.526,4.936-19.4a9.219,9.219,0,0,1,1.94-.245h0c-3.3-.327-5.456-.228-8.915,2.372S261.58,139.392,261.58,139.392Z" transform="translate(-196.683 -92.319)" fill="#75b51d"/><path d="M304.535,153.089c1.647,1.449,2.179,4.054,2.5,5.088a9.078,9.078,0,0,0-1.548-5.708Z" transform="translate(-242.991 -103.732)" fill="#f28f8f"/><path d="M341.526,113.3l-3.949-2.4s-.45,21.294-.467,21.983a2.337,2.337,0,0,1-.83,1.367l3.949,2.413a2.366,2.366,0,0,0,.83-1.367C341.07,134.571,341.526,113.3,341.526,113.3Z" transform="translate(-296.007 -86.447)" fill="#37474f"/><path d="M339.863,126.07s-1.133.269-1.566,2.027-.654,5.117.356,6.222,2.389,1.589,3.306,1.168c1.712-.742,1.168-4.218-.181-5.024-2.2-1.279-1.934-2.693-1.934-2.693Z" transform="translate(-298.479 -92.755)" fill="#ffa8a7"/><path d="M334.152,115.09,332.4,117.2l-.31,15.014,1.753,2.921L328,138.358a2.15,2.15,0,0,0,.83-1.367l.409-19.22Z" transform="translate(-283.795 -88.189)" fill="#455a64"/><path d="M334.349,149.43l-.018.917-5.871,3.231.023-.923Z" transform="translate(-284.261 -102.468)" fill="#78aad2"/><path d="M342.443,154.168l-3.943-2.4.023-.923,3.943,2.4Z" transform="translate(-298.244 -103.059)" fill="#78aad2"/><path d="M342.443,154.168l-3.943-2.4.023-.923,3.943,2.4Z" transform="translate(-298.244 -103.059)" opacity="0.1"/><path d="M325.475,97.222h0a2.6,2.6,0,0,1,2.483,1.011l.029.035a8.26,8.26,0,0,1,1.688,7.285v.041a2.608,2.608,0,0,1-1.84,2.015h0l-3.412.818-2.086-10.445Z" transform="translate(-276.252 -80.737)" fill="#ff8900"/><path d="M326.415,112.093h0l-3.412.818-.689-3.464,6.2-1.437a6.524,6.524,0,0,1-.251,2.027v.041C327.893,111.281,327.215,111.971,326.415,112.093Z" transform="translate(-274.843 -85.245)" opacity="0.05"/><path d="M326.054,97.181h0a3.1,3.1,0,0,1,2.775.993c.1.088.2.187.3.292s.222.245.327.38a6.974,6.974,0,0,1,.5.707,9.344,9.344,0,0,1,.759,1.466,11.332,11.332,0,0,1,.847,4.463,7.975,7.975,0,0,1-.321,2.121,3.326,3.326,0,0,1-2.132,2.483l3.236-.748h0a3.756,3.756,0,0,0,2.57-2.582,8.085,8.085,0,0,0,.315-2.027,11.239,11.239,0,0,0-.847-4.562,9.544,9.544,0,0,0-.754-1.46,8.036,8.036,0,0,0-.5-.707q-.158-.2-.333-.386a3.449,3.449,0,0,0-.3-.286,3.692,3.692,0,0,0-3.143-.9h-.21Z" transform="translate(-283.742 -80.404)" fill="#fddab1"/><path d="M329.308,115.289h0a3.756,3.756,0,0,0,2.57-2.582,8.085,8.085,0,0,0,.315-2.027l-3.68.759a7.976,7.976,0,0,1-.321,2.121,3.326,3.326,0,0,1-2.132,2.483Z" transform="translate(-280.704 -86.355)" opacity="0.1"/><path d="M332.66,100.239a10.36,10.36,0,0,0,2.121,9.137,3.288,3.288,0,0,0,3.09,1.279h.053a3.326,3.326,0,0,0,2.132-2.483,10.375,10.375,0,0,0-2.115-9.137,3.31,3.31,0,0,0-3.073-1.285A3.268,3.268,0,0,0,332.66,100.239Z" transform="translate(-292.556 -80.956)" fill="#78aad2"/><path d="M332.66,100.239a10.36,10.36,0,0,0,2.121,9.137,3.288,3.288,0,0,0,3.09,1.279h.053a3.326,3.326,0,0,0,2.132-2.483,10.375,10.375,0,0,0-2.115-9.137,3.31,3.31,0,0,0-3.073-1.285A3.268,3.268,0,0,0,332.66,100.239Z" transform="translate(-292.556 -80.956)" opacity="0.2"/><path d="M332.845,93.6s3.821,3.7,5.643,11.579a30.9,30.9,0,0,1,.7,4.294,21.7,21.7,0,0,1-.672,8.582,26.694,26.694,0,0,1,8.675-7.594,44.852,44.852,0,0,1,4.317-1.828h0a3.019,3.019,0,0,0,1.98-2.29,8.057,8.057,0,0,0,.292-2.792,10.351,10.351,0,0,0-.263-1.875,9.218,9.218,0,0,0-2.08-4.177,2.954,2.954,0,0,0-2.787-1.168h0a45.517,45.517,0,0,1-4.673.257C339.961,96.579,336.234,95.16,332.845,93.6Z" transform="translate(-306.271 -79.253)" fill="#ff8900"/><path d="M333.517,116.554a21.7,21.7,0,0,1-.672,8.582,26.694,26.694,0,0,1,8.675-7.594,44.852,44.852,0,0,1,4.317-1.828h0a3.019,3.019,0,0,0,1.98-2.29,8.057,8.057,0,0,0,.292-2.792C344.161,111.325,337.647,112.8,333.517,116.554Z" transform="translate(-300.604 -86.335)" opacity="0.05"/><path d="M355.977,95.873a22.047,22.047,0,0,0-.38,10.013h0a23.208,23.208,0,0,0,5.445,11.73c4.855,5.205,10.474,3.9,12.554-2.921a19.127,19.127,0,0,0,.765-5.042,26.656,26.656,0,0,0-3.125-12.934,16.485,16.485,0,0,0-.935-1.548l-.421-.584h0c-.2-.286-.409-.555-.625-.818s-.456-.543-.7-.794C363.671,87.764,358.051,89.061,355.977,95.873Z" transform="translate(-339.895 -77.664)" fill="#ffbf76"/><path d="M355.2,117.35a23.208,23.208,0,0,0,5.445,11.73c4.855,5.205,10.474,3.9,12.554-2.921a19.127,19.127,0,0,0,.765-5.042h0c-.666.759-2.483,1.577-2.857.5a17.21,17.21,0,0,1-.683,4.469,7.557,7.557,0,0,1-2.652,4.183,3.657,3.657,0,0,1-3.277.456,8.558,8.558,0,0,1-3.552-2.436,21.577,21.577,0,0,1-4.849-10.066C356.065,118.238,355.6,118.437,355.2,117.35Z" transform="translate(-339.497 -89.129)" opacity="0.1"/><path d="M360.836,97.81a21.217,21.217,0,0,0-.129,10.3,21.634,21.634,0,0,0,4.849,10.066,8.558,8.558,0,0,0,3.552,2.436,3.657,3.657,0,0,0,3.277-.456,7.464,7.464,0,0,0,2.652-4.183,17.21,17.21,0,0,0,.684-4.469v-1.823a23.805,23.805,0,0,0-.386-3.242c-.041-.222-.082-.444-.129-.66-.076-.368-.158-.736-.251-1.1a25.259,25.259,0,0,0-1.2-3.6v-.041a22.53,22.53,0,0,0-1.075-2.2c-.28-.5-.584-.981-.888-1.437l-.4-.584c-.169-.216-.339-.432-.508-.637s-.345-.4-.52-.584a8.5,8.5,0,0,0-3.552-2.436C364.177,92.412,361.957,94.124,360.836,97.81Z" transform="translate(-344.14 -79)" fill="#b26001"/><path d="M360.18,107.642l1.612,8.132c1.168-.07,3.149-.164,4.709-.088V115.1a24.766,24.766,0,0,0-.386-3.242c-.041-.222-.088-.438-.129-.66-.076-.368-.164-.736-.257-1.092a25.316,25.316,0,0,0-1.2-3.6.122.122,0,0,1,0-.041c-.076-.169-.146-.339-.222-.5A25.287,25.287,0,0,1,360.18,107.642Z" transform="translate(-334.943 -84.393)" fill="#78aad2"/><g transform="translate(25.237 21.567)" opacity="0.4"><path d="M360.18,107.642l1.612,8.132c1.168-.07,3.149-.164,4.709-.088V115.1a24.766,24.766,0,0,0-.386-3.242c-.041-.222-.088-.438-.129-.66-.076-.368-.164-.736-.257-1.092a25.316,25.316,0,0,0-1.2-3.6.122.122,0,0,1,0-.041c-.076-.169-.146-.339-.222-.5A25.287,25.287,0,0,1,360.18,107.642Z" transform="translate(-360.18 -105.96)" fill="#fff"/></g><path d="M367.726,116.87c.847.257,1.566-.269,1.91-1.42v-.035a6.543,6.543,0,0,0-1.332-5.76h0a2.541,2.541,0,0,0-1.069-.73c-.847-.257-1.56.275-1.91,1.42v.035a6.537,6.537,0,0,0,1.332,5.76h0a2.617,2.617,0,0,0,1.069.724Z" transform="translate(-341.164 -85.599)" fill="#78aad2"/><g transform="translate(23.971 23.262)" opacity="0.7"><path d="M367.726,116.87c.847.257,1.566-.269,1.91-1.42v-.035a6.543,6.543,0,0,0-1.332-5.76h0a2.541,2.541,0,0,0-1.069-.73c-.847-.257-1.56.275-1.91,1.42v.035a6.537,6.537,0,0,0,1.332,5.76h0a2.617,2.617,0,0,0,1.069.724Z" transform="translate(-365.135 -108.861)" fill="#fff"/></g><path d="M359.818,79.762a.87.87,0,0,0,1.1-.584l2.483-8.144a.882.882,0,0,0-1.682-.514l-2.483,8.144a.87.87,0,0,0,.584,1.1Z" transform="translate(-331.286 -69.423)" fill="#e0e0e0"/><path d="M341.665,88.588a.882.882,0,0,0,.859-.2l6.222-5.842a.882.882,0,1,0-1.2-1.285L341.32,87.1a.876.876,0,0,0-.041,1.244A.812.812,0,0,0,341.665,88.588Z" transform="translate(-306.328 -74.008)" fill="#e0e0e0"/><path d="M361.606,158.062a.923.923,0,0,0,.456,0,.882.882,0,0,0,.66-1.057l-1.922-8.3a.882.882,0,1,0-1.717.4l1.939,8.313a.882.882,0,0,0,.584.643Z" transform="translate(-330.528 -101.87)" fill="#e0e0e0"/><path d="M381.839,152.142a.882.882,0,0,0,1.1-.584l2.483-8.144a.882.882,0,1,0-1.682-.514l-2.483,8.144A.882.882,0,0,0,381.839,152.142Z" transform="translate(-366.212 -99.466)" fill="#e0e0e0"/><path d="M391.227,134.819a.882.882,0,0,0,.859-.2l6.222-5.842a.882.882,0,0,0-1.2-1.291l-6.227,5.813a.876.876,0,0,0-.041,1.244.905.905,0,0,0,.386.275Z" transform="translate(-384.767 -93.261)" fill="#e0e0e0"/><path d="M397.612,118.793a.917.917,0,0,0,.456,0l8.3-1.922a.888.888,0,0,0,.66-1.057.876.876,0,0,0-1.057-.66l-8.3,1.922a.882.882,0,0,0-.058,1.7Z" transform="translate(-396.993 -88.205)" fill="#e0e0e0"/><path d="M397.116,98.917l8.149,2.483a.88.88,0,0,0,.514-1.682L397.6,97.235a.882.882,0,0,0-.514,1.682Z" transform="translate(-396.076 -80.756)" fill="#e0e0e0"/><path d="M395.693,87.075a.882.882,0,0,0,.905-1.443l-5.813-6.222a.882.882,0,0,0-1.291,1.2l5.813,6.222A.876.876,0,0,0,395.693,87.075Z" transform="translate(-382.263 -73.236)" fill="#e0e0e0"/><path d="M379.7,79.112a.9.9,0,0,0,.45,0,.876.876,0,0,0,.66-1.057l-1.922-8.3a.882.882,0,1,0-1.717.4l1.922,8.3A.9.9,0,0,0,379.7,79.112Z" transform="translate(-359.184 -69.042)" fill="#e0e0e0"/><path d="M334.355,131.77c-1.677-2.126-1.753-3.464-3.049-4.51s-2.629-1.11-4.58-.549c-1.466.421-3.19.21-3.786.754-.169.117.094,1.057.783,1.4a8.141,8.141,0,0,0,3.16.315c2.255,0,.4,2.22,2.576,4.463C330.377,135.246,334.355,131.77,334.355,131.77Z" transform="translate(-281.013 -92.876)" fill="#ffa8a7"/></g></g></g><g transform="translate(-1593.5 -13554.463)"><g transform="translate(0 0)"><path d="M440.97,184.068,420.3,170.83l-9.1,2.921Z" transform="translate(-405.311 -93.583)" fill="#78aad2"/><path d="M429.064,179.623l-17.864-14.9,3.972-4.586Z" transform="translate(-393.406 -89.138)" fill="#78aad2"/><path d="M411.2,167.99v3.453l17.864,11.444Z" transform="translate(-393.406 -92.402)" fill="#78aad2"/><path d="M411.2,167.99v3.453l17.864,11.444Z" transform="translate(-393.406 -92.402)" opacity="0.25"/><path d="M449.629,163.051a.583.583,0,0,0,.38-1.028c-.356-.31-.713-.631-1.057-.958a.584.584,0,0,0-.806.841c.362.345.724.678,1.1,1A.584.584,0,0,0,449.629,163.051Z" transform="translate(-436.052 -89.467)" fill="#e0e0e0"/><path d="M339.548,109.123a.584.584,0,0,0,.438-.97c-.584-.7-1.209-1.443-1.753-2.208a.585.585,0,1,0-.941.7c.584.794,1.2,1.56,1.834,2.284A.584.584,0,0,0,339.548,109.123Zm-3.423-4.627a.584.584,0,0,0,.491-.894c-.491-.789-.97-1.618-1.414-2.459a.584.584,0,0,0-1.034.543c.461.87.952,1.723,1.46,2.535a.584.584,0,0,0,.5.275Zm-2.693-5.088a.543.543,0,0,0,.234-.053.584.584,0,0,0,.3-.771c-.374-.859-.736-1.753-1.057-2.635a.584.584,0,0,0-1.1.4c.333.917.7,1.829,1.092,2.711a.584.584,0,0,0,.532.351Zm-1.975-5.415a.525.525,0,0,0,.164,0,.584.584,0,0,0,.4-.724c-.263-.9-.5-1.829-.713-2.752a.6.6,0,0,0-1.168.257c.216.946.462,1.9.73,2.822a.584.584,0,0,0,.59.4Zm-1.268-5.62h.093a.584.584,0,0,0,.485-.672c-.146-.929-.269-1.875-.356-2.822a.587.587,0,1,0-1.168.111c.093.97.222,1.945.374,2.921A.584.584,0,0,0,330.189,88.373Zm-.543-5.737h0a.584.584,0,0,0,.584-.584V79.207a.584.584,0,1,0-1.168,0v2.921a.584.584,0,0,0,.584.52Zm.2-5.754a.584.584,0,0,0,.584-.526c.1-.946.228-1.893.391-2.816a.593.593,0,1,0-1.168-.2c-.169.946-.3,1.922-.4,2.921a.584.584,0,0,0,.52.643Zm1-5.678a.584.584,0,0,0,.584-.438c.234-.923.5-1.834.8-2.722a.584.584,0,1,0-1.1-.374c-.31.917-.584,1.858-.83,2.81a.584.584,0,0,0,.584.724Zm1.858-5.456a.584.584,0,0,0,.537-.351,27.773,27.773,0,0,1,1.233-2.547.591.591,0,0,0-1.028-.584c-.462.853-.888,1.753-1.279,2.641a.584.584,0,0,0,.31.765.532.532,0,0,0,.228.076Zm2.728-5.065a.584.584,0,0,0,.491-.263,28.2,28.2,0,0,1,1.647-2.308.584.584,0,1,0-.911-.73c-.584.754-1.168,1.554-1.753,2.372a.584.584,0,0,0,.485.905Zm3.6-4.5a.584.584,0,0,0,.421-.181c.643-.672,1.326-1.338,2.039-1.975a.587.587,0,0,0-.789-.87c-.73.66-1.437,1.349-2.1,2.039a.584.584,0,0,0,.426.987Zm4.27-3.867a.613.613,0,0,0,.362-.123c.73-.584,1.5-1.168,2.284-1.694a.584.584,0,1,0-.66-.958c-.812.584-1.6,1.168-2.337,1.753a.567.567,0,0,0,.333,1.022Zm4.732-3.283a.584.584,0,0,0,.3-.088c.8-.485,1.63-.964,2.471-1.42a.584.584,0,0,0-.549-1.028c-.865.467-1.718.952-2.53,1.455a.584.584,0,0,0,.3,1.081Zm5.071-2.74a.584.584,0,0,0,.251-.058c.853-.4,1.753-.794,2.605-1.168a.585.585,0,1,0-.45-1.081c-.894.374-1.788.777-2.658,1.168a.584.584,0,0,0,.251,1.11Zm59-1.449a.584.584,0,0,0,.193-1.139c-.911-.327-1.834-.637-2.746-.929a.584.584,0,1,0-.356,1.11c.894.286,1.805.584,2.711.923a.584.584,0,0,0,.169.035Zm-53.7-.754a.485.485,0,0,0,.2-.041c.876-.321,1.788-.631,2.7-.923a.584.584,0,1,0-.351-1.11c-.935.3-1.864.613-2.757.941a.581.581,0,0,0,.2,1.133Zm48.184-.993a.59.59,0,0,0,.164-1.168c-.917-.263-1.864-.514-2.8-.754a.584.584,0,0,0-.28,1.133c.929.234,1.858.485,2.763.742a.491.491,0,0,0,.152.023Zm-42.7-.759a.637.637,0,0,0,.152,0c.905-.245,1.834-.479,2.775-.7a.6.6,0,0,0-.257-1.168c-.958.222-1.9.456-2.822.707a.589.589,0,1,0,.152,1.168Zm37.1-.666a.587.587,0,1,0,.123-1.168c-.941-.2-1.9-.391-2.839-.584a.594.594,0,0,0-.21,1.168c.929.169,1.875.356,2.8.584Zm-31.488-.631h.111c.917-.175,1.869-.333,2.822-.467a.585.585,0,0,0-.169-1.157c-.97.14-1.934.3-2.868.473a.587.587,0,1,0,.105,1.168Zm25.821-.4a.586.586,0,0,0,.088-1.168c-.958-.14-1.928-.263-2.88-.368a.588.588,0,0,0-.129,1.168c.941.105,1.893.228,2.839.368Zm-20.108-.432h.058c.935-.1,1.893-.181,2.851-.245a.586.586,0,1,0-.082-1.168c-.976.07-1.945.152-2.892.257a.58.58,0,0,0,.064,1.157ZM389.613,40a.585.585,0,0,0,.047-1.168c-.97-.07-1.94-.129-2.921-.169a.584.584,0,1,0,0,1.168c.941.041,1.9.1,2.857.169Zm-8.64-.193h0c.835,0,1.677-.041,2.5-.041h.362a.584.584,0,1,0,0-1.168h-.368c-.835,0-1.688,0-2.535.041a.584.584,0,0,0,0,1.168Z" transform="translate(-329.062 -38.6)" fill="#e0e0e0"/><path d="M324.061,50.757a.584.584,0,0,0,.222-1.122l-1.361-.584a.586.586,0,1,0-.426,1.092l1.344.543a.619.619,0,0,0,.222.07Z" transform="translate(-236.941 -42.929)" fill="#e0e0e0"/></g><g transform="translate(190.334 47.915)"><path d="M127.307,133.788,100.44,120.62l19.372,18.425Z" transform="translate(-100.44 -120.62)" fill="#78aad2"/><path d="M82.91,120.62l29.624,9.744,7.483-5.258Z" transform="translate(-82.91 -120.62)" fill="#78aad2"/><path d="M125.344,130.364l-1.174,7.524-1.583-4.1L95.72,120.62Z" transform="translate(-95.72 -120.62)" fill="#78aad2"/><path d="M125.344,130.364l-1.174,7.524-1.583-4.1L95.72,120.62Z" transform="translate(-95.72 -120.62)" opacity="0.25"/><path d="M101.813,147.261l-4.083-2.348,2.5-1.753Z" transform="translate(-73.364 -129.992)" fill="#78aad2"/><path d="M102.94,143.16l-2.5,1.753.654.374Z" transform="translate(-76.074 -129.992)" opacity="0.25"/><path d="M47.434,222.827a.584.584,0,0,0,.2-.035c.946-.339,1.869-.689,2.752-1.034a.585.585,0,0,0-.432-1.087c-.865.339-1.753.684-2.716,1.022a.584.584,0,0,0,.2,1.133Zm5.427-2.156a.584.584,0,0,0,.234-.047c.911-.4,1.805-.818,2.67-1.238a.585.585,0,0,0-.514-1.052c-.847.415-1.753.824-2.629,1.221a.584.584,0,0,0,.24,1.116Zm5.258-2.57a.584.584,0,0,0,.28-.07c.87-.479,1.753-.976,2.553-1.484a.584.584,0,0,0-.584-.993c-.806.5-1.647.981-2.5,1.449a.584.584,0,0,0,.28,1.1Zm4.966-3.067a.584.584,0,0,0,.333-.105c.818-.584,1.612-1.168,2.372-1.753a.6.6,0,1,0-.754-.941c-.736.584-1.513,1.168-2.337,1.718a.584.584,0,0,0,.333,1.063Zm4.562-3.634a.584.584,0,0,0,.391-.152c.736-.672,1.443-1.367,2.109-2.08a.584.584,0,0,0-.847-.8c-.648.689-1.338,1.367-2.051,2.015a.584.584,0,0,0,.4,1.016Zm4-4.241a.584.584,0,0,0,.456-.222c.619-.765,1.209-1.566,1.753-2.383a.585.585,0,1,0-.97-.654c-.532.789-1.11,1.566-1.706,2.337a.555.555,0,0,0,.444.923Zm3.271-4.825a.584.584,0,0,0,.508-.3c.479-.853.935-1.753,1.349-2.641a.585.585,0,1,0-1.063-.491c-.4.87-.841,1.753-1.3,2.553a.584.584,0,0,0,.222.8.614.614,0,0,0,.263.076Zm2.419-5.287a.584.584,0,0,0,.549-.38c.339-.911.648-1.858.923-2.816a.584.584,0,1,0-1.122-.321c-.269.929-.584,1.846-.894,2.734a.58.58,0,0,0,.543.783Zm1.63-5.6a.584.584,0,0,0,.584-.462c.2-.941.391-1.916.543-2.921a.585.585,0,0,0-1.157-.181c-.146.964-.327,1.916-.526,2.839a.584.584,0,0,0,.444.7.48.48,0,0,0,.111.018Zm.911-5.766a.584.584,0,0,0,.584-.526c.1-.941.181-1.928.24-2.921a.585.585,0,0,0-1.168-.064c-.058.987-.134,1.957-.234,2.886a.584.584,0,0,0,.52.637Zm.3-5.842h0a.584.584,0,0,0,.584-.584,29.62,29.62,0,0,0-.175-2.962.584.584,0,1,0-1.163.117c.093.952.152,1.916.169,2.868a.584.584,0,0,0,.584.561Zm-.584-5.807H79.7a.584.584,0,0,0,.467-.678c-.175-.97-.4-1.939-.648-2.921a.584.584,0,0,0-1.127.3c.245.923.456,1.869.631,2.8A.584.584,0,0,0,79.593,174.029Zm-1.507-5.608a.586.586,0,0,0,.549-.783c-.327-.923-.7-1.852-1.1-2.757a.584.584,0,1,0-1.063.479c.386.87.748,1.753,1.063,2.67A.584.584,0,0,0,78.086,168.421Zm-2.372-5.334a.584.584,0,0,0,.508-.865c-.467-.865-.981-1.753-1.519-2.547a.584.584,0,0,0-.976.637c.52.8,1.016,1.63,1.472,2.471a.584.584,0,0,0,.514.275ZM72.5,158.169a.584.584,0,0,0,.462-.941c-.584-.783-1.244-1.548-1.9-2.272a.585.585,0,0,0-.865.789c.637.7,1.262,1.443,1.846,2.2A.584.584,0,0,0,72.5,158.169Zm-3.932-4.311a.584.584,0,0,0,.4-1.011c-.719-.678-1.478-1.326-2.249-1.934a.584.584,0,0,0-.724.917c.748.584,1.478,1.215,2.179,1.869a.584.584,0,0,0,.426.158Zm-4.58-3.616a.584.584,0,0,0,.333-1.1c-.818-.543-1.671-1.057-2.535-1.536a.589.589,0,1,0-.584,1.022c.835.462,1.665.964,2.454,1.49a.584.584,0,0,0,.362.123Zm-5.071-2.851a.584.584,0,0,0,.24-1.116c-.894-.4-1.817-.783-2.746-1.116a.584.584,0,0,0-.4,1.1c.9.327,1.793.689,2.664,1.081A.584.584,0,0,0,58.913,147.391Z" transform="translate(-22.588 -130.811)" fill="#e0e0e0"/></g></g></g></svg>