<svg xmlns="http://www.w3.org/2000/svg" width="468.718" height="262.186" viewBox="0 0 468.718 262.186"><g transform="translate(-860 -3102.813)"><path d="M80,0H468.718a0,0,0,0,1,0,0V116.309a80,80,0,0,1-80,80H0a0,0,0,0,1,0,0V80A80,80,0,0,1,80,0Z" transform="translate(860 3168.689)" fill="#35a3be" opacity="0.2"/><g transform="translate(888.086 2973.522)"><g transform="translate(121.847 129.29)"><rect width="181.641" height="127.591" fill="#263238"/><rect width="172.366" height="116.093" transform="translate(4.585 5.745)" fill="#fafafa"/><path d="M322.115,252.384v-8.22c0-5.372,0-13.251-.049-23.345,0-20.172-.049-49.173-.089-84.528l.17.17H149.8l.211-.211V252.343l-.195-.187,124.224.089,35.46.057h.032l-35.419.049-124.345.1h-.195V135.95h.227l172.35.049h.17v.162c-.041,35.4-.065,64.437-.089,84.633,0,10.078,0,17.949-.041,23.3v6.086C322.188,251.564,322.115,252.384,322.115,252.384Z" transform="translate(-145.164 -130.546)" fill="#263238"/><path d="M192.79,250.439H154.53l-.17-60.469h38.259Z" transform="translate(-146.067 -140.732)" fill="#ebebeb"/><rect width="19.126" height="60.46" transform="translate(27.427 49.238)" fill="#e0e0e0"/><rect width="13.51" height="11.904" transform="translate(12.667 37.334)" fill="#ebebeb"/><rect width="3.221" height="11.904" transform="translate(22.956 37.334)" fill="#e0e0e0"/><rect width="42.568" height="0.698" transform="translate(5.104 48.549)" fill="#e0e0e0"/><rect width="3.238" height="6.824" transform="translate(15.847 54.431)" fill="#fff"/><path d="M173.494,208.06c0,.073-4.284.13-9.567.13s-9.567-.057-9.567-.13,4.284-.13,9.567-.13S173.494,207.987,173.494,208.06Z" transform="translate(-146.067 -144.118)" fill="#e0e0e0"/><rect width="3.238" height="6.824" transform="translate(35.144 54.431)" fill="#f5f5f5"/><path d="M197.274,208.06c0,.073-4.284.13-9.567.13s-9.567-.057-9.567-.13,4.284-.13,9.567-.13S197.274,207.987,197.274,208.06Z" transform="translate(-150.551 -144.118)" fill="#ebebeb"/><rect width="3.238" height="6.824" transform="translate(35.144 67.991)" fill="#f5f5f5"/><path d="M197.274,224.768c0,.065-4.284.13-9.567.13s-9.567-.065-9.567-.13,4.284-.138,9.567-.138S197.274,224.695,197.274,224.768Z" transform="translate(-150.551 -147.267)" fill="#ebebeb"/><rect width="3.238" height="6.824" transform="translate(35.144 81.956)" fill="#f5f5f5"/><path d="M197.274,241.97c0,.065-4.284.13-9.567.13s-9.567-.065-9.567-.13,4.284-.13,9.567-.13S197.274,241.9,197.274,241.97Z" transform="translate(-150.551 -150.512)" fill="#ebebeb"/><rect width="3.238" height="6.824" transform="translate(35.144 95.92)" fill="#f5f5f5"/><path d="M197.274,259.19c0,.073-4.284.13-9.567.13s-9.567-.057-9.567-.13,4.284-.13,9.567-.13S197.274,259.117,197.274,259.19Z" transform="translate(-150.551 -153.759)" fill="#ebebeb"/><rect width="3.238" height="6.824" transform="translate(15.847 68.194)" fill="#fff"/><path d="M173.494,225.02c0,.073-4.284.13-9.567.13s-9.567-.057-9.567-.13,4.284-.13,9.567-.13S173.494,224.979,173.494,225.02Z" transform="translate(-146.067 -147.316)" fill="#e0e0e0"/><rect width="3.238" height="6.824" transform="translate(15.847 81.956)" fill="#fff"/><path d="M173.494,241.97c0,.073-4.284.13-9.567.13s-9.567-.057-9.567-.13,4.284-.13,9.567-.13S173.494,241.9,173.494,241.97Z" transform="translate(-146.067 -150.512)" fill="#e0e0e0"/><rect width="3.238" height="6.824" transform="translate(15.847 95.726)" fill="#fff"/><path d="M173.494,258.97c0,.073-4.284.13-9.567.13s-9.567-.057-9.567-.13,4.284-.13,9.567-.13S173.494,258.881,173.494,258.97Z" transform="translate(-146.067 -153.718)" fill="#e0e0e0"/><rect width="25.698" height="67.252" transform="translate(106.729 37.716)" fill="#ebebeb"/><rect width="12.845" height="67.252" transform="translate(119.574 37.716)" fill="#e0e0e0"/><rect width="9.072" height="7.993" transform="translate(109.658 29.723)" fill="#ebebeb"/><rect width="2.167" height="7.993" transform="translate(116.572 29.723)" fill="#e0e0e0"/><rect width="28.587" height="0.463" transform="translate(104.587 37.245)" fill="#e0e0e0"/><rect width="2.175" height="4.585" transform="translate(111.8 41.205)" fill="#fff"/><path d="M288.515,187.919c0,.049-2.873.081-6.427.081s-6.419,0-6.419-.081,2.872-.089,6.419-.089S288.515,187.871,288.515,187.919Z" transform="translate(-168.941 -140.328)" fill="#e0e0e0"/><rect width="2.175" height="4.585" transform="translate(124.759 41.205)" fill="#f5f5f5"/><path d="M304.485,187.919c0,.049-2.872.081-6.427.081s-6.419,0-6.419-.081,2.873-.089,6.419-.089S304.485,187.871,304.485,187.919Z" transform="translate(-171.952 -140.328)" fill="#ebebeb"/><rect width="2.175" height="4.585" transform="translate(124.759 50.309)" fill="#f5f5f5"/><path d="M304.485,199.139c0,.049-2.872.089-6.427.089s-6.419-.041-6.419-.089,2.873-.089,6.419-.089S304.485,199.091,304.485,199.139Z" transform="translate(-171.952 -142.444)" fill="#ebebeb"/><rect width="2.175" height="4.585" transform="translate(124.759 59.69)" fill="#f5f5f5"/><path d="M304.485,210.7c0,.049-2.872.081-6.427.081s-6.419,0-6.419-.081,2.873-.089,6.419-.089S304.485,210.651,304.485,210.7Z" transform="translate(-171.952 -144.624)" fill="#ebebeb"/><rect width="2.175" height="4.585" transform="translate(124.759 69.07)" fill="#f5f5f5"/><path d="M304.485,222.259c0,.049-2.872.081-6.427.081s-6.419,0-6.419-.081,2.873-.089,6.419-.089S304.485,222.211,304.485,222.259Z" transform="translate(-171.952 -146.803)" fill="#ebebeb"/><rect width="2.175" height="4.585" transform="translate(124.759 78.182)" fill="#f5f5f5"/><path d="M304.485,233.489c0,.041-2.872.081-6.427.081s-6.419-.041-6.419-.081,2.873-.089,6.419-.089S304.485,233.441,304.485,233.489Z" transform="translate(-171.952 -148.921)" fill="#ebebeb"/><rect width="2.175" height="4.585" transform="translate(124.759 87.327)" fill="#f5f5f5"/><rect width="2.175" height="4.585" transform="translate(124.759 96.594)" fill="#f5f5f5"/><path d="M304.485,244.759c0,.049-2.872.089-6.427.089s-6.419,0-6.419-.089,2.873-.089,6.419-.089S304.485,244.711,304.485,244.759Z" transform="translate(-171.952 -151.046)" fill="#ebebeb"/><rect width="2.175" height="4.585" transform="translate(111.8 50.447)" fill="#fff"/><path d="M288.515,199.309c0,.049-2.873.089-6.427.089s-6.419-.041-6.419-.089,2.872-.089,6.419-.089S288.515,199.261,288.515,199.309Z" transform="translate(-168.941 -142.476)" fill="#e0e0e0"/><rect width="2.175" height="4.585" transform="translate(111.8 59.69)" fill="#fff"/><path d="M288.515,210.7c0,.049-2.873.089-6.427.089s-6.419-.041-6.419-.089,2.872-.089,6.419-.089S288.515,210.651,288.515,210.7Z" transform="translate(-168.941 -144.624)" fill="#e0e0e0"/><rect width="2.175" height="4.585" transform="translate(111.8 68.932)" fill="#fff"/><path d="M288.515,222.091c0,.049-2.873.089-6.427.089s-6.419-.041-6.419-.089,2.872-.081,6.419-.081S288.515,222.042,288.515,222.091Z" transform="translate(-168.941 -146.773)" fill="#e0e0e0"/><rect width="2.175" height="4.585" transform="translate(111.8 78.182)" fill="#fff"/><path d="M288.515,233.489c0,.041-2.873.081-6.427.081s-6.419-.041-6.419-.081,2.872-.089,6.419-.089S288.515,233.441,288.515,233.489Z" transform="translate(-168.941 -148.921)" fill="#e0e0e0"/><rect width="2.175" height="4.585" transform="translate(111.8 87.425)" fill="#fff"/><path d="M288.515,244.879c0,.049-2.873.089-6.427.089s-6.419,0-6.419-.089,2.872-.089,6.419-.089S288.515,244.831,288.515,244.879Z" transform="translate(-168.941 -151.069)" fill="#e0e0e0"/><rect width="2.175" height="4.585" transform="translate(111.8 96.667)" fill="#fff"/><rect width="43.063" height="81.728" transform="translate(125.579 23.759)" fill="#e0e0e0"/><rect width="20.189" height="81.728" transform="translate(148.445 23.759)" fill="#ebebeb"/><rect width="3.871" height="9.405" transform="translate(134.602 31.451)" fill="#f5f5f5"/><rect width="3.871" height="9.405" transform="translate(134.602 68.267)" fill="#f5f5f5"/><path d="M321.766,184.154c0,.081-5.12.146-11.433.146s-11.433-.065-11.433-.146,5.112-.154,11.441-.154S321.766,184.073,321.766,184.154Z" transform="translate(-173.321 -139.606)" fill="#f5f5f5"/><rect width="3.871" height="9.405" transform="translate(134.602 49.993)" fill="#f5f5f5"/><path d="M321.766,207.016c0,.081-5.12.146-11.433.146s-11.433-.065-11.433-.146,5.112-.146,11.433-.146S321.766,206.975,321.766,207.016Z" transform="translate(-173.321 -143.918)" fill="#f5f5f5"/><rect width="3.871" height="9.405" transform="translate(152.738 31.451)" fill="#e0e0e0"/><rect width="3.871" height="9.405" transform="translate(161.136 31.451)" fill="#e0e0e0"/><rect width="3.871" height="9.405" transform="translate(152.738 49.295)" fill="#e0e0e0"/><rect width="3.871" height="9.405" transform="translate(161.136 49.295)" fill="#e0e0e0"/><rect width="3.871" height="9.405" transform="translate(152.738 67.147)" fill="#e0e0e0"/><rect width="3.871" height="9.405" transform="translate(161.136 67.147)" fill="#e0e0e0"/><rect width="49.538" height="2.045" transform="translate(122.341 21.779)" fill="#e0e0e0"/><path d="M342.348,158.856c0,.081-9.624.146-21.5.146s-21.5-.065-21.5-.146,9.624-.146,21.5-.146S342.348,158.775,342.348,158.856Z" transform="translate(-173.406 -134.837)" fill="#ebebeb"/><rect width="40.661" height="22.509" transform="translate(4.585 99.337)" fill="#455a64"/><path d="M166.41,150.76h1.031v3.627h2.24v.811h-3.246Z" transform="translate(-148.339 -133.338)" fill="#ff725e"/><path d="M170.92,150.631a.576.576,0,0,1,.625-.552.56.56,0,0,1,.617.536.625.625,0,0,1-1.242,0Zm.122,1.039h1v3.424h-1Z" transform="translate(-149.19 -133.209)" fill="#ff725e"/><path d="M176.721,152l-1.444,3.424h-1.022L172.81,152h1.031l.949,2.329.982-2.329Z" transform="translate(-149.546 -133.572)" fill="#ff725e"/><path d="M181.3,154.028h-2.6a.917.917,0,0,0,.982.682,1.168,1.168,0,0,0,.86-.325l.527.568a2,2,0,0,1-3.367-1.209A1.745,1.745,0,0,1,179.568,152a1.7,1.7,0,0,1,1.785,1.785A.644.644,0,0,0,181.3,154.028Zm-2.613-.584h1.688a.86.86,0,0,0-1.7,0Z" transform="translate(-150.47 -133.571)" fill="#ff725e"/><path d="M180.348,156.909H162.74V148.17h17.608Zm-17.04-.592h16.44v-7.563H163.324Z" transform="translate(-147.647 -132.85)" fill="#ff725e"/><rect width="18.225" height="5.875" transform="translate(21.852 110.624)" fill="#fff"/><path d="M166.3,257.56v4.666h-.884l-2.329-2.832v2.832H162V257.56h.893l2.313,2.832V257.56Z" transform="translate(-147.508 -153.476)" fill="#fff"/><path d="M172.271,261.358v.868H168.66V257.56h3.522v.868h-2.434v1.006h2.167v.811h-2.167v1.079Z" transform="translate(-148.763 -153.476)" fill="#fff"/><path d="M181.047,257.56l-1.526,4.666h-1.16l-1.031-3.157-1.055,3.157h-1.152l-1.534-4.666h1.144l1.055,3.246,1.1-3.246h1l1.071,3.3,1.079-3.3Z" transform="translate(-149.693 -153.476)" fill="#fff"/><path d="M183.07,261.744l.365-.811a2.759,2.759,0,0,0,1.542.487c.633,0,.893-.211.893-.5,0-.868-2.71-.268-2.71-2,0-.811.641-1.452,1.964-1.452a3.091,3.091,0,0,1,1.623.414l-.333.811a2.645,2.645,0,0,0-1.29-.365c-.641,0-.893.235-.893.536,0,.852,2.718.26,2.718,1.972,0,.811-.649,1.452-1.98,1.452A3.351,3.351,0,0,1,183.07,261.744Z" transform="translate(-151.481 -153.457)" fill="#fff"/><path d="M158.72,267.29h.722v2.532h1.566v.584H158.72Z" transform="translate(-146.889 -155.311)" fill="#fff"/><path d="M161.88,267.2a.4.4,0,0,1,.43-.39.389.389,0,0,1,.43.373.43.43,0,1,1-.86,0Zm.081.722h.7v2.394h-.682Z" transform="translate(-147.485 -155.22)" fill="#fff"/><path d="M165.935,268.18l-1.014,2.394h-.714L163.2,268.18h.714l.665,1.623.69-1.623Z" transform="translate(-147.734 -155.479)" fill="#fff"/><path d="M169.135,269.566h-1.818a.649.649,0,0,0,.69.479.812.812,0,0,0,.6-.235l.373.406a1.274,1.274,0,0,1-.99.389,1.25,1.25,0,0,1-1.371-1.241,1.225,1.225,0,0,1,1.282-1.233,1.193,1.193,0,0,1,1.25,1.25C169.152,269.428,169.135,269.509,169.135,269.566Zm-1.826-.406h1.185a.6.6,0,0,0-1.185,0Z" transform="translate(-148.379 -155.469)" fill="#fff"/><path d="M172.21,270.338l.235-.5a1.623,1.623,0,0,0,.811.235c.325,0,.446-.089.446-.219,0-.389-1.452,0-1.452-.949,0-.454.414-.811,1.112-.811a2.02,2.02,0,0,1,.925.211l-.235.495a1.412,1.412,0,0,0-.69-.178c-.316,0-.446.1-.446.227,0,.406,1.452,0,1.452.957,0,.446-.422.763-1.136.763a2.061,2.061,0,0,1-1.022-.227Z" transform="translate(-149.433 -155.462)" fill="#ff725e"/><path d="M176.894,270.344a.973.973,0,0,1-.568.154.811.811,0,0,1-.893-.86v-1h-.373V268.1h.373v-.584h.7v.584h.592v.536h-.592v.982a.276.276,0,0,0,.292.316.47.47,0,0,0,.284-.089Z" transform="translate(-149.97 -155.354)" fill="#ff725e"/><path d="M179.293,268.129v.641h-.154a.592.592,0,0,0-.641.673v1.128h-.7v-2.394h.665v.316A.966.966,0,0,1,179.293,268.129Z" transform="translate(-150.487 -155.469)" fill="#ff725e"/><path d="M182.415,269.566h-1.81a.633.633,0,0,0,.682.479.812.812,0,0,0,.6-.235l.373.406a1.4,1.4,0,0,1-2.361-.852,1.225,1.225,0,0,1,1.282-1.233,1.193,1.193,0,0,1,1.25,1.25,1.619,1.619,0,0,1-.016.187Zm-1.818-.406h1.177a.592.592,0,0,0-1.177,0Z" transform="translate(-150.883 -155.469)" fill="#ff725e"/><path d="M185.592,269.2v1.363h-.649v-.3a.812.812,0,0,1-.73.341c-.56,0-.893-.316-.893-.73s.3-.714,1.031-.714h.552c0-.3-.179-.479-.552-.479a1.176,1.176,0,0,0-.7.227l-.243-.487a1.834,1.834,0,0,1,1.031-.292C185.17,268.13,185.592,268.471,185.592,269.2Zm-.69.609v-.243h-.479c-.325,0-.43.114-.43.276s.146.292.4.292a.511.511,0,0,0,.511-.325Z" transform="translate(-151.528 -155.469)" fill="#ff725e"/><path d="M190.955,269.192v1.371h-.722V269.3c0-.389-.179-.568-.454-.568s-.536.2-.536.633v1.2h-.633V269.3c0-.389-.17-.568-.454-.568s-.527.2-.527.633v1.2h-.7V268.17h.665v.276a.957.957,0,0,1,.755-.317.884.884,0,0,1,.811.4,1.071,1.071,0,0,1,.868-.4.925.925,0,0,1,.925,1.063Z" transform="translate(-152.208 -155.469)" fill="#ff725e"/><path d="M168.47,271.58H156.16v-6.11h12.31Zm-11.9-.406h11.49V265.9h-11.49Z" transform="translate(-146.406 -154.968)" fill="#f5f5f5"/><rect width="131.762" height="9.177" transform="translate(45.246 112.661)" fill="#455a64"/><path d="M324.093,272.461c0,.122-24.6.211-54.943.211s-54.951-.089-54.951-.211,24.6-.211,54.951-.211S324.093,272.347,324.093,272.461Z" transform="translate(-157.35 -156.246)" fill="#fff"/><path d="M323.893,274.951c0,.114-24.6.211-54.943.211S214,275.04,214,274.951s24.595-.211,54.951-.211S323.893,274.8,323.893,274.951Z" transform="translate(-157.313 -156.716)" fill="#fff"/><path d="M305.206,177.706s-3.489,9.851-4.447,11.36a38.129,38.129,0,0,1-2.8,3.546l3.976,3.781,2.637-2.937,3.051-2.191s4.869-5.867,5.08-6.492-.876-1.834-2.434-.7-2.962,3.246-3.4,2.662.26-6.151.26-6.151,1.306-2.872.876-3.83h-1.087s0-.966-.527-.7-.519,1.047-.519,1.047A.811.811,0,0,0,305.206,177.706Z" transform="translate(-173.144 -138.1)" fill="#d69676"/><path d="M230.468,166.346a2.264,2.264,0,0,0-2.029,2.3h0l1.355,27.727c.057,3.619,5.347,5.68,9.218,5.566h0c3.919-.925,4.65-3.124,4.487-6.565-.081-1.623-.325-3.887-.316-3.854s4.942-.811,5.948-7.3a68.539,68.539,0,0,0,.049-12.764c-.252-3.871-2.824-8.618-6.678-8.2Z" transform="translate(-160.035 -135.689)" fill="#d69676"/><path d="M250.972,178.378a.839.839,0,1,1-.86-.738A.811.811,0,0,1,250.972,178.378Z" transform="translate(-163.969 -138.406)" fill="#263238"/><path d="M251.85,176.8c-.105.114-.73-.349-1.623-.349s-1.542.454-1.623.341.057-.243.341-.446a2.175,2.175,0,0,1,1.306-.406,2.134,2.134,0,0,1,1.29.414C251.8,176.589,251.9,176.8,251.85,176.8Z" transform="translate(-163.833 -138.086)" fill="#263238"/><path d="M240.343,178.5a.834.834,0,1,1-.852-.747A.811.811,0,0,1,240.343,178.5Z" transform="translate(-161.966 -138.427)" fill="#263238"/><path d="M240.96,176.8c-.1.114-.73-.349-1.623-.349s-1.542.454-1.623.341.049-.243.341-.446a2.231,2.231,0,0,1,1.306-.406,2.134,2.134,0,0,1,1.29.414C240.92,176.589,241.009,176.8,240.96,176.8Z" transform="translate(-161.78 -138.086)" fill="#263238"/><path d="M245.722,183.4a6.3,6.3,0,0,1,1.444-.268c.227,0,.446-.065.479-.227a1.16,1.16,0,0,0-.146-.674q-.325-.811-.682-1.728A29.607,29.607,0,0,1,245.3,176a29.691,29.691,0,0,1,1.883,4.39c.219.609.438,1.185.641,1.736a1.315,1.315,0,0,1,.122.893.56.56,0,0,1-.373.333,1.4,1.4,0,0,1-.381.057A6.135,6.135,0,0,1,245.722,183.4Z" transform="translate(-163.215 -138.098)" fill="#263238"/><path d="M244.609,197.568A16.391,16.391,0,0,1,236,195.28s2.353,4.536,8.8,3.919Z" transform="translate(-161.461 -141.733)" fill="#aa6550"/><path d="M244.984,187.517a2.386,2.386,0,0,0-1.7-1.128,1.022,1.022,0,0,0-1.006.56,1.623,1.623,0,0,0,.146,1.477,1.363,1.363,0,0,0,1.347.657,2.231,2.231,0,0,0,1.112-.73.754.754,0,0,0,.227-.316.511.511,0,0,0-.073-.463" transform="translate(-162.623 -140.056)" fill="#aa6550"/><path d="M242.558,185.88c.146,0,.154.957.982,1.623s1.858.576,1.866.706-.235.187-.665.2a2.434,2.434,0,0,1-1.558-.536,2.1,2.1,0,0,1-.755-1.379C242.387,186.115,242.493,185.88,242.558,185.88Z" transform="translate(-162.671 -139.961)" fill="#263238"/><path d="M241.4,174.33c-.114.235-.99,0-2.037.057s-1.923.227-2.037,0c-.057-.105.114-.316.479-.519a3.546,3.546,0,0,1,3.1,0C241.271,174.013,241.45,174.224,241.4,174.33Z" transform="translate(-161.709 -137.628)" fill="#263238"/><path d="M251.625,175.019c-.195.2-.957,0-1.874,0s-1.7.13-1.866-.081,0-.308.381-.495a3.246,3.246,0,0,1,3.019.081C251.6,174.719,251.707,174.921,251.625,175.019Z" transform="translate(-163.69 -137.741)" fill="#263238"/><path d="M238.995,156.261a1.947,1.947,0,0,0,.706-2.434c.268-.381-.049-.949-.487-1.1a2.3,2.3,0,0,0-1.379.089c.122-.219-.2-.4-.446-.438l-1.7-.276a2.67,2.67,0,0,0,1.785-1.517,4.171,4.171,0,0,0,.243-2.378.852.852,0,0,0-.308-.609,6.378,6.378,0,0,0-1.185,2,1.688,1.688,0,0,0-1.225.617.463.463,0,0,0-.7-.195c-.357-1.006-1.047-2.069-2.11-2.191.333-.471-.268-1.031-.811-1.29a3.246,3.246,0,0,0-1.185-.414,1.136,1.136,0,0,0-1.087.495.7.7,0,0,0,.4,1.006,1.066,1.066,0,0,1-1.818,1.1,4.463,4.463,0,0,0-2.345-.341,1.055,1.055,0,0,0-.576.2c-.122.1-.195.243-.325.333a1.144,1.144,0,0,1-.633.17,2.524,2.524,0,0,0-1.42.519A1.225,1.225,0,0,0,222,150.97c-1.177.381-2.345-.966-3.554-.73a2.361,2.361,0,0,0-1.517,1.452,4.106,4.106,0,0,0,1.9.276.811.811,0,0,0,.811.625.479.479,0,0,0,.276.738,4.235,4.235,0,0,0-2.272,0c-1.128.268-2.378.868-2.637,2a3.879,3.879,0,0,0,0,1.225c.073.617.389,1.42.99,1.306.373-.073.568-.471.811-.811a3.246,3.246,0,0,1,1.972-1.428c.292.284-.243.641-.479.974s-.138.763-.195,1.16a5.907,5.907,0,0,1-.811,1.623,6.055,6.055,0,0,0,0,3.846c.081.349.479.811.69.487a.966.966,0,0,0-.722.982,2.848,2.848,0,0,0,.414,1.25.674.674,0,0,0,.373.4c.268.057.487-.211.625-.438l1.16-1.907a2.88,2.88,0,0,0,0,1.315,2.434,2.434,0,0,0,1.5,1.931,3.311,3.311,0,0,0,1.728-.13" transform="translate(-157.494 -132.461)" fill="#263238"/><path d="M228.392,178.737c.252-.105,1.258.308,1.428.1.811-1.1,1.3-4.219,1.509-5.583s-.649-2.889-.519-4.26a5.339,5.339,0,0,1,1.039-3.092,3.96,3.96,0,0,1,1.672-1.071,6.443,6.443,0,0,1,5.85.811,4.869,4.869,0,0,0,2.191,1.225,4.057,4.057,0,0,0,2.3-.9,2.67,2.67,0,0,1,2.434-.487,2.321,2.321,0,0,1,.755.625,11.141,11.141,0,0,1,1.623,4.293,8.861,8.861,0,0,0-.381-4.682,11.409,11.409,0,0,0-8.861-6.565c-7.628-1.242-11.2,3-12.553,6.037a16.172,16.172,0,0,0-.641,7.344A19.012,19.012,0,0,0,228.392,178.737Z" transform="translate(-159.59 -134.878)" fill="#263238"/><path d="M226.4,166.219a21.63,21.63,0,0,0,1.185-2.045,14.411,14.411,0,0,1,1.509-2.012,8.925,8.925,0,0,1,2.337-1.907,9.1,9.1,0,0,1,2.864-.933,10.183,10.183,0,0,1,2.491-.089c1.428.13,2.288.454,2.329.341s-.17-.187-.552-.365a7.213,7.213,0,0,0-1.7-.511,9.112,9.112,0,0,0-2.662-.081,8.925,8.925,0,0,0-3.132.966,8.787,8.787,0,0,0-2.507,2.11,12,12,0,0,0-1.444,2.215A4.544,4.544,0,0,0,226.4,166.219Z" transform="translate(-159.647 -134.808)" fill="#ff725e"/><path d="M235.59,159.8a2.721,2.721,0,0,0,.463.057,10.035,10.035,0,0,1,1.233.211,9.145,9.145,0,0,1,6.264,4.974,10,10,0,0,1,.487,1.168,1.987,1.987,0,0,0,.154.43v-.114a.58.58,0,0,0-.081-.341,8.873,8.873,0,0,0-6.784-6.224,6.972,6.972,0,0,0-1.258-.162h-.463Z" transform="translate(-161.384 -135.043)" fill="#455a64"/><path d="M233.09,160.94a9.077,9.077,0,0,0,.893.487,20.774,20.774,0,0,1,2.077,1.282,19.658,19.658,0,0,1,1.915,1.526c.471.414.747.69.763.673a.95.95,0,0,0-.17-.219c-.114-.13-.292-.316-.519-.536a15.416,15.416,0,0,0-1.9-1.574,15.82,15.82,0,0,0-2.118-1.25c-.284-.138-.519-.243-.682-.308A.894.894,0,0,0,233.09,160.94Z" transform="translate(-160.912 -135.258)" fill="#455a64"/><path d="M228,165.16a1.167,1.167,0,0,0,0,.252,6.312,6.312,0,0,0,.122.69,11.878,11.878,0,0,0,.69,2.175,11.667,11.667,0,0,0,1.128,2c.17.243.316.43.422.552s.17.195.179.187a9.3,9.3,0,0,0-.511-.811,14.647,14.647,0,0,1-1.079-2.012,15.418,15.418,0,0,1-.738-2.142,7.8,7.8,0,0,0-.211-.893Z" transform="translate(-159.951 -136.054)" fill="#455a64"/><path d="M229.981,174.663s-.308-.373-.755-1.014a11.838,11.838,0,0,1-.706-1.177,13.8,13.8,0,0,1-.649-1.542,13.162,13.162,0,0,1-.4-1.623,10.186,10.186,0,0,1-.13-1.363V166.67a1.113,1.113,0,0,0-.057.341,6.612,6.612,0,0,0-.057.933,10.115,10.115,0,0,0,.106,1.388,10.663,10.663,0,0,0,.389,1.623,10.819,10.819,0,0,0,.674,1.566,10.032,10.032,0,0,0,.738,1.177,6.72,6.72,0,0,0,.6.714,1.379,1.379,0,0,0,.243.252Z" transform="translate(-159.807 -136.338)" fill="#455a64"/><path d="M212.38,164.5h.17l.5.073a5.1,5.1,0,0,0,1.85-.073,2.767,2.767,0,0,0,1.144-.592,1.915,1.915,0,0,0,.665-1.323,1.623,1.623,0,0,0-.146-.811,1.42,1.42,0,0,0-.592-.625,1.785,1.785,0,0,0-1.736,0,.811.811,0,0,0,0,1.5,1.7,1.7,0,0,0,.811.13,4.286,4.286,0,0,0,.811-.13,4.146,4.146,0,0,0,2.256-1.534,3.98,3.98,0,0,0,.8-2.2.544.544,0,0,0,0-.17,5.837,5.837,0,0,1-.105.665,4.341,4.341,0,0,1-.763,1.623,4.122,4.122,0,0,1-2.215,1.461,3.936,3.936,0,0,1-.763.122,1.55,1.55,0,0,1-.811-.122.722.722,0,0,1-.438-.592.763.763,0,0,1,.414-.641,1.7,1.7,0,0,1,1.623,0,1.339,1.339,0,0,1,.665,1.29,1.769,1.769,0,0,1-.6,1.233,2.775,2.775,0,0,1-1.1.584A5.323,5.323,0,0,1,213,164.5l-.495-.041A.43.43,0,0,0,212.38,164.5Z" transform="translate(-157.007 -134.845)" fill="#263238"/><path d="M247.359,148.66a2.985,2.985,0,0,1,.162.584,2,2,0,0,1-.446,1.542,2.207,2.207,0,0,1-2.207.665,1.4,1.4,0,0,1-1.031-.86.811.811,0,0,1,.105-.682.568.568,0,0,1,.617-.26.812.812,0,0,1,.527.471.982.982,0,0,1,0,.714,2.524,2.524,0,0,1-.876,1.112,4.406,4.406,0,0,1-2.264.884,4.544,4.544,0,0,1-1.623-.154c-.381-.105-.576-.211-.584-.195a.528.528,0,0,0,.138.081,2.921,2.921,0,0,0,.43.17,4.309,4.309,0,0,0,1.68.2,4.487,4.487,0,0,0,2.345-.884,2.613,2.613,0,0,0,.933-1.177,1.087,1.087,0,0,0,0-.811.982.982,0,0,0-.633-.568.73.73,0,0,0-.811.325.99.99,0,0,0-.122.811,1.2,1.2,0,0,0,.463.641,2.045,2.045,0,0,0,.673.316,2.329,2.329,0,0,0,2.337-.73,2.077,2.077,0,0,0,.422-1.623,1.816,1.816,0,0,0-.146-.438.527.527,0,0,0-.089-.138Z" transform="translate(-162.166 -132.942)" fill="#263238"/><path d="M229.949,181.74a1.956,1.956,0,0,0-2.864-1.623,2.663,2.663,0,0,0-1.136,2.694c.162,4.057,4.187,3.043,4.2,2.929S230.047,183.412,229.949,181.74Z" transform="translate(-159.565 -138.831)" fill="#d69676"/><path d="M229.085,184.477a1.226,1.226,0,0,1-.187.114.7.7,0,0,1-.527,0,1.753,1.753,0,0,1-.868-1.534,2.3,2.3,0,0,1,.154-1.014.811.811,0,0,1,.5-.56.365.365,0,0,1,.43.179c.057.105,0,.187.057.195s.081-.073.041-.235a.422.422,0,0,0-.17-.252.519.519,0,0,0-.389-.081,1.006,1.006,0,0,0-.714.657,2.434,2.434,0,0,0-.195,1.136,1.834,1.834,0,0,0,1.1,1.7.738.738,0,0,0,.633-.138C229.077,184.574,229.093,184.485,229.085,184.477Z" transform="translate(-159.804 -139.093)" fill="#aa6550"/><path d="M257.11,200.564s3.165,1.753,6.159,3.432c3.246,1.826,11.36,5.291,11.36,5.291L290.29,196.15l4.479,4.544S281.786,222.36,277.8,222.822s-14.728-4.787-14.728-4.787Z" transform="translate(-165.441 -141.897)" fill="#8dd52c"/><path d="M255.363,215.923c-.406-1.745-6.1-14.476-6.1-14.476l-8.309-.617s.811,12.415-13.673,0l-1.736,1.436s-9.307,7.051-10.021,8.382,9.388,24.011,9.794,27.078-3.57,16.7-2.653,18.136H255.4l.479-9.656S255.777,217.659,255.363,215.923Z" transform="translate(-157.593 -142.779)" fill="#8dd52c"/><path d="M215.916,257.543s-7.092-.446-6.987-10.159,1.761-27.07,1.915-28.125a12.172,12.172,0,0,1,3.441-6.492c1.388-.811,6.443-2.248,7.976,3.376a38.584,38.584,0,0,1,1.16,11.238l-1.452,14.979,14.687-7.3,2.572,7.725S222.667,257.543,215.916,257.543Z" transform="translate(-156.356 -144.883)" fill="#8dd52c"/><path d="M210.8,221a1.079,1.079,0,0,1,0,.284,5.779,5.779,0,0,1-.073.811c-.065.763-.154,1.858-.268,3.246-.227,2.824-.56,6.913-.884,11.961-.154,2.532-.316,5.3-.414,8.277,0,.738,0,1.493-.065,2.264V249a10.941,10.941,0,0,0,.041,1.168,11.961,11.961,0,0,0,1.071,4.658,7.571,7.571,0,0,0,3.44,3.522,5.827,5.827,0,0,0,2.434.673,8.74,8.74,0,0,0,2.564-.576,29.723,29.723,0,0,0,4.942-2.434c1.623-.966,3.189-2.02,4.763-3.14,3.846-2.743,7.425-5.631,10.719-8.5l-.057.219q-1.339-4.009-2.572-7.733l.276.114-14.468,7.108-.235.114v-.268c.406-5.526.73-10.013.957-13.145.13-1.534.219-2.735.292-3.578a7.366,7.366,0,0,1,.081-.925c.024-.227.041-.316.041-.316a1.857,1.857,0,0,1,0,.316,7.067,7.067,0,0,1-.049.933c-.041.811-.114,2.045-.195,3.578-.2,3.14-.479,7.628-.811,13.162l-.219-.154,14.419-7.181.2-.1.073.211q1.242,3.725,2.58,7.725l.049.13-.105.089c-3.3,2.889-6.881,5.786-10.743,8.544-1.574,1.12-3.173,2.183-4.8,3.148a29.966,29.966,0,0,1-5.015,2.475,9.265,9.265,0,0,1-2.694.6,6.491,6.491,0,0,1-2.637-.722,7.984,7.984,0,0,1-3.6-3.716,12.4,12.4,0,0,1-1.1-4.812,11.337,11.337,0,0,0-.041-1.185,11.219,11.219,0,0,1,0-1.168c0-.771.049-1.526.065-2.272.122-2.978.3-5.753.479-8.277.357-5.055.73-9.137,1.014-11.961.146-1.388.268-2.475.349-3.246l.105-.811A1.454,1.454,0,0,1,210.8,221Z" transform="translate(-156.311 -146.583)" fill="#263238"/><path d="M224.19,220.431a15.241,15.241,0,0,0-.333-1.81,6.849,6.849,0,0,0-6.345-5.153c-1.128-.073-1.826.114-1.842,0a3.919,3.919,0,0,1,1.85-.341,6.7,6.7,0,0,1,6.629,5.38,3.757,3.757,0,0,1,.041,1.923Z" transform="translate(-157.628 -145.097)" fill="#263238"/><path d="M257.748,208.29a3.335,3.335,0,0,0-2.321-.527,3.6,3.6,0,0,0-2.3.868,2.9,2.9,0,0,0-.763,1.939,7.125,7.125,0,0,0,.316,2.094,57.323,57.323,0,0,0,2.264,5.875l3.181-.276a38.773,38.773,0,0,0,.633-6.776C258.754,210.326,258.632,209.012,257.748,208.29Z" transform="translate(-164.546 -144.08)" fill="#263238"/><rect width="2.491" height="17.6" rx="1.246" transform="translate(91.545 80.753) rotate(-8.18)" fill="#263238"/><rect width="10.565" height="8.686" transform="translate(84.184 75.082) rotate(-7.481)" fill="#263238"/><path d="M258.3,210.486a5.169,5.169,0,0,1-2.808.941,5.283,5.283,0,0,1-2.946-.341c0-.13,1.323.089,2.9-.081S258.254,210.372,258.3,210.486Z" transform="translate(-164.582 -144.597)" fill="#455a64"/><path d="M258.433,213a4.43,4.43,0,0,1-2.726.99,4.5,4.5,0,0,1-2.856-.495c.041-.13,1.282.219,2.824.073S258.376,212.917,258.433,213Z" transform="translate(-164.638 -145.072)" fill="#455a64"/><rect width="10.581" height="8.699" transform="matrix(0.991, -0.132, 0.132, 0.991, 87.273, 74.548)" fill="#455a64"/><path d="M259.931,223.65l.357,2.8-.771.1-1.225-1.136.162,1.274-.917.114-.357-2.791.771-.105,1.225,1.136-.162-1.266Z" transform="translate(-165.455 -147.082)" fill="#fff"/><path d="M243.71,239.443l4.43-4.057,3.108-3.327s6.013-1.623,7.068-.966c.747.463.381,1.623.381,1.623s1.168-.349,1.509.43a1.477,1.477,0,0,1-.511,2.029l-2.434.868s2.434-.187,3.01.179a1.136,1.136,0,0,1,.049,1.736l-2,.811s1.834-.292,2.11.211.406,1.428-.3,1.81-3.246,1.517-3.246,1.517-5.631,2.256-6.443,2.475-4.5,1.55-4.5,1.55Z" transform="translate(-162.915 -148.456)" fill="#d69676"/><path d="M261.5,240.448a3.416,3.416,0,0,1-1.5.576,3.176,3.176,0,0,1-1.623.162c-.057-.114.641-.373,1.493-.576A3.314,3.314,0,0,1,261.5,240.448Z" transform="translate(-165.68 -150.24)" fill="#aa6550"/><path d="M261.214,233.114a3.976,3.976,0,0,1-1.793.6,3.757,3.757,0,0,1-1.891.057,5.169,5.169,0,0,1,1.81-.479A4.869,4.869,0,0,1,261.214,233.114Z" transform="translate(-165.521 -148.862)" fill="#aa6550"/><path d="M260.43,237.158c0,.114-.4.308-.966.43s-1.039.122-1.055,0,.414-.308.966-.422S260.406,237.012,260.43,237.158Z" transform="translate(-165.687 -149.612)" fill="#aa6550"/></g><g transform="translate(25.914 331.404)"><path d="M62.717,378.37H359.3c12.324,0,22.315,6.288,22.315,14.046v34.848H37.83v-33.25c.018-8.643,11.155-15.644,24.887-15.644Z" transform="translate(-28.161 -378.37)" fill="#455a64"/><rect width="359.915" height="29.468" rx="5.64" transform="translate(0.248 19.426)" fill="#455a64"/><path d="M381.5,431.659a8.814,8.814,0,0,0,2.053-.259,4.656,4.656,0,0,0,1.874-.9,1.754,1.754,0,0,0,.552-.8,3.821,3.821,0,0,0,.057-.977c0-2.8,0-6.915-.041-12.216V405.215a2.764,2.764,0,0,0-.138-1.256c-.413-.853-1.769-1.505-3.473-1.671-.876-.047-1.757-.061-2.637-.041H323.677l-292.89.033a5.558,5.558,0,0,0-4.057,1.339,1.525,1.525,0,0,0-.325.62,3.641,3.641,0,0,0,0,.665v23.951a1.774,1.774,0,0,0,.276,1.232,5.084,5.084,0,0,0,3.708,1.429h98.144l131.681.025,88.723.078,24.132.021h0l-24.132.062-88.772.037H30.3a5.56,5.56,0,0,1-4.057-1.564,1.886,1.886,0,0,1-.308-1.326V404.238a1.728,1.728,0,0,1,.357-.682,6.1,6.1,0,0,1,4.422-1.466l292.93.029h56.071c.894-.018,1.788,0,2.678.045,1.784.179,3.2.864,3.643,1.757a2.806,2.806,0,0,1,.138,1.281V428.71a3.889,3.889,0,0,1-.073.985,1.864,1.864,0,0,1-.568.821,4.713,4.713,0,0,1-1.915.9,8.365,8.365,0,0,1-1.526.226c-.2.011-.395.015-.592.012Z" transform="translate(-25.914 -382.843)" fill="#263238"/><path d="M318.316,400.427a29.489,29.489,0,0,1-.6-7.027,14.891,14.891,0,0,1,.511,3.5,14.258,14.258,0,0,1,.089,3.53Z" transform="translate(-80.933 -381.204)" fill="#263238"/><path d="M167.465,384.89a118.492,118.492,0,0,1,0,14.135,118.483,118.483,0,0,1,0-14.135Z" transform="translate(-52.56 -379.599)" fill="#263238"/><path d="M64.5,431.639c-.114,0-.211-6.326-.211-14.131s.1-14.127.211-14.127.211,6.326.211,14.127S64.615,431.639,64.5,431.639Z" transform="translate(-33.15 -383.086)" fill="#263238"/><path d="M424.421,431.639c-.114,0-.211-6.326-.211-14.131s.1-14.127.211-14.127.211,6.326.211,14.127S424.543,431.639,424.421,431.639Z" transform="translate(-101.016 -383.086)" fill="#263238"/></g><g transform="translate(54.482 220.774)"><path d="M184.46,368.214a24.077,24.077,0,0,1,5.274-4.22c2.4-1.177,16.894-3.165,16.894-3.165h24.635s15.279,3.01,17.852,6.021,7.538,12.058,7.538,12.058l-55.705,4.22Z" transform="translate(-84.377 -264.433)" fill="#263238"/><path d="M210.52,346.564a19.134,19.134,0,0,1,.511,11.936,21.8,21.8,0,0,0,12.05,2.97,55.673,55.673,0,0,0,12.326-2.053L233.679,344" transform="translate(-89.291 -261.26)" fill="#ffbe9d"/><path d="M202.672,330.181a1.558,1.558,0,0,0-1.834-.641,2.207,2.207,0,0,0-1.331,1.534,4.057,4.057,0,0,0,.089,2.085,13.177,13.177,0,0,0,1.623,3.311,3.513,3.513,0,0,0,1.469,1.542c.665.284,1.623,0,1.712-.747" transform="translate(-87.196 -258.517)" fill="#ffbe9d"/><path d="M244.633,339.249a.917.917,0,0,0,1.347.2,2.588,2.588,0,0,0,.811-1.323l1.834-5.218a4.869,4.869,0,0,0,.406-2.053,1.68,1.68,0,0,0-1.217-1.534c-.917-.17-1.68.714-2.118,1.534a13.251,13.251,0,0,0-1.42,8.22" transform="translate(-95.628 -258.489)" fill="#ffbe9d"/><path d="M212.6,297.218a18.761,18.761,0,0,0-12.172,24.035c.527-.811,1.047-1.566,1.566-2.345a25.017,25.017,0,0,0,3.441,15.71,13.381,13.381,0,0,0,5.769,5.542c2.483,1.079,5.274.982,7.96.86,2.937-.13,5.883-.276,8.82-.438a8.925,8.925,0,0,0,3.927-.811,7.879,7.879,0,0,0,2.848-3.392,31.9,31.9,0,0,0,3.66-15.206c.146.479.3.957.446,1.436a4.925,4.925,0,0,0,1.566-3.5c.065.446.138.893.211,1.339A18.988,18.988,0,0,0,217.74,294.67a10.362,10.362,0,0,0-4.869,2.808" transform="translate(-87.195 -251.804)" fill="#263238"/><path d="M208.239,327.639a8.2,8.2,0,0,1-2.223-6.159c.122,0,.243,1.469.868,3.165S208.337,327.582,208.239,327.639Z" transform="translate(-88.438 -257.013)" fill="#455a64"/><path d="M212.24,327.221a4.715,4.715,0,0,1-1.858-2,4.779,4.779,0,0,1-.852-2.6c.122,0,.471,1.128,1.217,2.386S212.346,327.132,212.24,327.221Z" transform="translate(-89.104 -257.228)" fill="#455a64"/><path d="M239.874,320.17a7.757,7.757,0,0,1-2.524,7.254,18.914,18.914,0,0,0,1.826-3.432A19.928,19.928,0,0,0,239.874,320.17Z" transform="translate(-94.35 -256.766)" fill="#455a64"/><path d="M243.284,319.8a9.494,9.494,0,0,1-1.477,6.946c-.114-.065.6-1.5,1.006-3.416S243.154,319.808,243.284,319.8Z" transform="translate(-95.188 -256.697)" fill="#455a64"/><path d="M247.3,318.51a5.891,5.891,0,0,1,.325,3.246,5.761,5.761,0,0,1-1.112,3.083c-.122-.049.487-1.379.7-3.14S247.174,318.534,247.3,318.51Z" transform="translate(-96.075 -256.453)" fill="#455a64"/><path d="M216.57,328.513a5.68,5.68,0,0,1-1.81-1.81,5.615,5.615,0,0,1-1.2-2.264,13.076,13.076,0,0,1,1.542,2.012A12.6,12.6,0,0,1,216.57,328.513Z" transform="translate(-89.864 -257.571)" fill="#455a64"/><path d="M219.584,327.725a4.106,4.106,0,0,1-1.777-1.452,4.057,4.057,0,0,1-1.087-2.012A13.531,13.531,0,0,1,218.132,326,14.028,14.028,0,0,1,219.584,327.725Z" transform="translate(-90.46 -257.538)" fill="#455a64"/><path d="M217.534,337.3c-.073.081-.763-.414-1.331-1.282s-.755-1.7-.641-1.728.454.682,1,1.5S217.632,337.211,217.534,337.3Z" transform="translate(-90.236 -259.429)" fill="#455a64"/><path d="M219.948,337.013a4.682,4.682,0,0,1-2.848-3.473c.114-.041.527.884,1.306,1.834S220.013,336.907,219.948,337.013Z" transform="translate(-90.531 -259.287)" fill="#455a64"/><path d="M233.39,335.05a13.709,13.709,0,0,1-1.98,4.219,12.983,12.983,0,0,1,1.956-4.22Z" transform="translate(-93.23 -259.572)" fill="#455a64"/><path d="M236.043,336.15a13.341,13.341,0,0,1-1.623,4.374,6.67,6.67,0,0,1,.633-2.264A6.493,6.493,0,0,1,236.043,336.15Z" transform="translate(-93.797 -259.78)" fill="#455a64"/><path d="M91.257,333.2s-11.3-1.022-16.286.99-5.518,2.645-8.114,5.607S62.8,348.366,62.3,351.733s-1.185,18.119-1.185,18.119l73.655,1.761,9.867-24.238-8.334-3.976a35.371,35.371,0,0,0-13.356-3.416l-6.2-.341Z" transform="translate(-61.12 -259.174)" fill="#ff8900"/><path d="M160.17,350.643l29.78,12.537,14.541,3.367s7.628,6.183,5.988,9.267-8.715,9.632-13.624,9.81S143.3,373.072,143.3,373.072l16.075-22.8" transform="translate(-76.616 -262.442)" fill="#ff8900"/><path d="M77.741,373.857a3.14,3.14,0,0,1-.26-.811c-.138-.544-.325-1.331-.536-2.3-.43-1.947-.966-4.65-1.5-7.644s-.974-5.68-1.242-7.692c-.138-.982-.243-1.785-.3-2.337a3.067,3.067,0,0,1,0-.868,3.7,3.7,0,0,1,.2.811c.122.633.26,1.412.43,2.321.365,2.061.811,4.723,1.363,7.66s1.006,5.6,1.379,7.66c.154.909.292,1.688.406,2.329A3.7,3.7,0,0,1,77.741,373.857Z" transform="translate(-63.524 -262.806)" fill="#263238"/><path d="M146.943,369.652a3.626,3.626,0,0,1-.438-.811,15.814,15.814,0,0,1-.86-2.313,18.022,18.022,0,0,1,2.694-15.555,15.548,15.548,0,0,1,1.623-1.883,3.546,3.546,0,0,1,.682-.6c.057.057-.876.949-2.029,2.653a18.915,18.915,0,0,0-2.653,15.3C146.44,368.468,147.016,369.62,146.943,369.652Z" transform="translate(-76.924 -262.106)" fill="#263238"/><path d="M73.4,367.533a45.234,45.234,0,0,1-6.11.5,42.89,42.89,0,0,1-6.134.089,46.331,46.331,0,0,1,6.11-.511A43.541,43.541,0,0,1,73.4,367.533Z" transform="translate(-61.128 -265.684)" fill="#fafafa"/><path d="M131.683,360.221c0,.114-12.658,0-28.271-.162s-28.263-.471-28.263-.592,12.658-.041,28.271.17S131.683,360.1,131.683,360.221Z" transform="translate(-63.765 -264.165)" fill="#fafafa"/><path d="M155.46,375.05a4.164,4.164,0,0,1,.454-.86c.316-.544.763-1.331,1.266-2.329a60.856,60.856,0,0,0,3.351-8.049,65.059,65.059,0,0,0,2.24-8.431c.219-1.1.357-1.988.446-2.613a4.546,4.546,0,0,1,.187-.958,3.8,3.8,0,0,1,0,.982c-.041.625-.138,1.534-.316,2.637a52.09,52.09,0,0,1-2.134,8.52,48.57,48.57,0,0,1-3.489,8.05,25.3,25.3,0,0,1-1.388,2.28,4.238,4.238,0,0,1-.617.771Z" transform="translate(-78.909 -262.732)" fill="#fafafa"/><path d="M171.48,380.177a3.8,3.8,0,0,1,.511-.811l.544-.974.633-1.331a60.855,60.855,0,0,0,2.783-8.114,51.341,51.341,0,0,0,1.623-8.407c0-.544.057-1.039.065-1.469a7.68,7.68,0,0,0-.041-1.112,4.708,4.708,0,0,1-.114-.949,4.583,4.583,0,0,1,.276.925c.041.308.073.69.114,1.128s0,.941,0,1.493a43.819,43.819,0,0,1-1.5,8.5,48.744,48.744,0,0,1-2.913,8.114c-.252.495-.495.933-.7,1.323l-.617.949a4.7,4.7,0,0,1-.665.738Z" transform="translate(-81.929 -263.713)" fill="#fafafa"/><path d="M136.453,378.241a3.436,3.436,0,0,1-.592.065l-1.7.089c-.738.049-1.623.081-2.7.089s-2.256.049-3.578,0c-5.315,0-12.642-.333-20.708-.933S91.783,376.359,86.5,376.01c-2.645-.17-4.788-.308-6.264-.381l-1.7-.1a4.947,4.947,0,0,1-.592-.065,2.761,2.761,0,0,1,.592,0h1.712c1.485,0,3.627.114,6.272.252,5.307.268,12.61.811,20.684,1.444s15.377.982,20.676,1.055c1.323.041,2.524,0,3.578,0h4.406A2.768,2.768,0,0,1,136.453,378.241Z" transform="translate(-64.292 -267.19)" fill="#fafafa"/><path d="M72.163,351.982c-.073.105-1.566-.933-3.578-1.874s-3.757-1.436-3.725-1.558a10.4,10.4,0,0,1,3.9,1.177A10.589,10.589,0,0,1,72.163,351.982Z" transform="translate(-61.825 -262.118)" fill="#fafafa"/><path d="M133.748,345.72a5.009,5.009,0,0,1-.617,0l-1.777-.17c-1.542-.154-3.773-.4-6.492-.722-5.5-.641-13.1-1.623-21.463-2.856s-15.912-2.507-21.365-3.489c-2.726-.495-4.934-.9-6.492-1.2l-1.753-.357a3.473,3.473,0,0,1-.6-.154,3.165,3.165,0,0,1,.617.065l1.761.284,6.492,1.071c5.461.9,12.983,2.118,21.381,3.359s15.945,2.264,21.43,2.986l6.492.852,1.769.243A2.881,2.881,0,0,1,133.748,345.72Z" transform="translate(-63.396 -259.896)" fill="#fafafa"/><path d="M152,317.736a5.68,5.68,0,0,0,4.633-1.225,11.3,11.3,0,0,0,2.986-3.9,4.123,4.123,0,0,0,.5-1.493,1.428,1.428,0,0,0-2.11-1.5,4.941,4.941,0,0,0-1.306.949c-1.81,1.623-3.676,3.384-4.56,5.68" transform="translate(-78.256 -254.747)" fill="#ffbe9d"/><path d="M128.4,336.163l8.2-15.937-15.482-6.556L107.69,330.929l17.876,5.08Z" transform="translate(-69.901 -255.541)" fill="#ffbe9d"/><path d="M140.026,269.152a19,19,0,0,0-14.07.316,28.8,28.8,0,0,0-11.3,8.715,23.114,23.114,0,0,0-5.218,10.378c-.925,5.1.592,10.289,2.085,15.255,1.055,3.505,2.329,7.3,5.412,9.283a15.653,15.653,0,0,0,5.753,1.842c5.161.925,10.7,1.81,15.417-.4,3.5-1.623,6.061-4.723,8.5-7.725,3.035-3.733,6.118-7.538,7.9-12a24.06,24.06,0,0,0,1.258-13.543,16.691,16.691,0,0,0-4.869-9.267,10.537,10.537,0,0,0-9.867-2.532" transform="translate(-70.177 -246.921)" fill="#263238"/><path d="M133.614,305.32a4.147,4.147,0,0,1-.235.649c-.178.406-.454.974-.811,1.672a33.781,33.781,0,0,1-7.8,9.478c-.609.5-1.112.893-1.477,1.144a2.524,2.524,0,0,1-.592.357,21.822,21.822,0,0,1,1.866-1.728,42.269,42.269,0,0,0,7.717-9.4C133.1,306.148,133.557,305.3,133.614,305.32Z" transform="translate(-72.731 -253.966)" fill="#455a64"/><path d="M135.939,317.2a6.255,6.255,0,0,1-1.55,1.071,24.6,24.6,0,0,1-4.155,1.858,23.878,23.878,0,0,1-4.422,1.055,6.79,6.79,0,0,1-1.883.106c0-.138,2.848-.414,6.175-1.558S135.874,317.085,135.939,317.2Z" transform="translate(-72.963 -256.205)" fill="#455a64"/><path d="M119.105,301.87a16.65,16.65,0,0,1-.219,2.3,53.558,53.558,0,0,0-.325,5.542c0,2.175.13,4.138.268,5.55a16.869,16.869,0,0,1,.195,2.3,10.184,10.184,0,0,1-.495-2.264,37.038,37.038,0,0,1-.389-5.591,35.787,35.787,0,0,1,.454-5.583,10.087,10.087,0,0,1,.511-2.264Z" transform="translate(-71.871 -253.316)" fill="#455a64"/><path d="M151.357,289.851a15,15,0,0,0,2.58-2.434,10.678,10.678,0,0,0,1.793-3.351,10.175,10.175,0,0,0,.43-4.593,10.33,10.33,0,0,0-1.728-4.284,10.963,10.963,0,0,0-2.686-2.694,14.948,14.948,0,0,0-3.157-1.574,3.418,3.418,0,0,1,.941.195,9.487,9.487,0,0,1,2.386,1.136,10.654,10.654,0,0,1,2.832,2.718A9.883,9.883,0,0,1,156.1,284.2a10.548,10.548,0,0,1-1.939,3.408,9.056,9.056,0,0,1-1.956,1.777,3.319,3.319,0,0,1-.852.471Z" transform="translate(-77.613 -247.48)" fill="#455a64"/><path d="M139.43,297.363a6.005,6.005,0,0,1,.714-.9l2.037-2.369a36.134,36.134,0,0,0,5.68-8.512,17.04,17.04,0,0,0,1.3-9.973,15.806,15.806,0,0,0-1.461-3.968,1.275,1.275,0,0,1,.187.235,5.558,5.558,0,0,1,.454.722,11.117,11.117,0,0,1,1.112,2.946,16.659,16.659,0,0,1-1.217,10.184,33.456,33.456,0,0,1-5.826,8.536c-.884.982-1.623,1.761-2.142,2.288A5.429,5.429,0,0,1,139.43,297.363Z" transform="translate(-75.886 -247.616)" fill="#455a64"/><path d="M116.579,320.186a2.434,2.434,0,0,0-2.029,1.769,1.777,1.777,0,0,0,.949,1.964c1.233.568,2.824-.414,4,.268.933.536,1.136,1.883,2.037,2.434a2,2,0,0,0,2.491-.43,2.759,2.759,0,0,0,.463-2.6,4.625,4.625,0,0,0-1.623-2.191,6.492,6.492,0,0,0-7.157-.957" transform="translate(-71.187 -256.693)" fill="#ff725e"/><path d="M119.326,345.945c1.842-2.434,3.165-5.68,2.223-8.569-.73-2.272-2.726-4.057-3.132-6.394-.341-1.956.479-4.057-.227-5.9a3.741,3.741,0,0,0-5.842-1.623h0c-3.668,2.921-7.717,5.826-11.36,8.747-1.7,1.355-3.473,2.791-4.317,4.8-1.339,3.173,0,6.767,1.274,9.948a10.257,10.257,0,0,0,.966-5.226c.811,1.834.284,3.927-.357,5.8s-1.436,3.789-1.242,5.761c.357,3.668,4.009,6.556,3.814,10.232a17.617,17.617,0,0,1-.925,3.668,4.528,4.528,0,0,0,.252,3.668,3.741,3.741,0,0,0,3.043,1.509,11.255,11.255,0,0,0,3.457-.633,5.85,5.85,0,0,1,.56-3.627,9.185,9.185,0,0,1,1.623,6.646,13.4,13.4,0,0,0,8.772-8.772,21.224,21.224,0,0,0-.146-12.707,8.415,8.415,0,0,1-.568-3.522C117.411,348.282,118.45,347.122,119.326,345.945Z" transform="translate(-67.719 -257.232)" fill="#263238"/><path d="M110.986,360.24s.162-.519.487-1.436a32.239,32.239,0,0,0,1.128-3.96,17.357,17.357,0,0,0,.26-6.045c-.316-2.264-1.29-4.633-1.761-7.3a11.361,11.361,0,0,1,0-3.952,14.477,14.477,0,0,1,1.136-3.481,48.854,48.854,0,0,1,3.083-5.331,32.458,32.458,0,0,0,2.012-3.595c.414-.885.592-1.4.625-1.388a1.258,1.258,0,0,1-.089.389c-.073.243-.195.609-.381,1.063a27.7,27.7,0,0,1-1.907,3.684,52.742,52.742,0,0,0-2.986,5.339,14.436,14.436,0,0,0-1.087,3.392,10.914,10.914,0,0,0,0,3.806c.446,2.6,1.42,4.99,1.72,7.3a17.04,17.04,0,0,1-.349,6.159,26.318,26.318,0,0,1-1.266,3.952c-.187.454-.341.811-.454,1.039S110.986,360.249,110.986,360.24Z" transform="translate(-70.511 -257.441)" fill="#455a64"/><path d="M115.55,366.932s.276-.568.714-1.623a23.068,23.068,0,0,0,1.42-4.5,22.517,22.517,0,0,0,.349-6.97,24.758,24.758,0,0,0-.811-4.057,19.669,19.669,0,0,1-.86-4.43,6.93,6.93,0,0,1,.276-2.313,11.691,11.691,0,0,1,.917-2.045,10.825,10.825,0,0,0,.811-1.907,5.121,5.121,0,0,0,.154-1.947c-.13-1.3-.544-2.507-.73-3.692a9.242,9.242,0,0,1,.081-3.327,18.3,18.3,0,0,1,1.68-4.471c.26-.5.471-.884.617-1.144a1.509,1.509,0,0,1,.243-.381,1.737,1.737,0,0,1-.17.422l-.536,1.177a19.158,19.158,0,0,0-1.534,4.455,8.861,8.861,0,0,0,0,3.246c.187,1.152.625,2.353.811,3.708a5.582,5.582,0,0,1-.154,2.094,10.548,10.548,0,0,1-.86,2,11.91,11.91,0,0,0-.884,1.972,6.7,6.7,0,0,0-.252,2.175,19.758,19.758,0,0,0,.811,4.341,23.475,23.475,0,0,1,.811,4.122,21.974,21.974,0,0,1-.438,7.076,20.935,20.935,0,0,1-1.566,4.512c-.243.5-.454.893-.609,1.144a1.932,1.932,0,0,1-.292.373Z" transform="translate(-71.383 -257.511)" fill="#455a64"/><path d="M124.142,365.486a9.656,9.656,0,0,0,.811-1.4,8.821,8.821,0,0,0,.909-4.228,8.7,8.7,0,0,0-.633-2.921,21.732,21.732,0,0,1-1.16-3.343,6.175,6.175,0,0,1,.584-3.887c.56-1.258,1.363-2.434,2.02-3.66a6.93,6.93,0,0,0,.99-3.862,8.228,8.228,0,0,0-1.339-3.505c-.641-1.039-1.331-2-1.907-2.937a10.679,10.679,0,0,1-1.274-2.824,12.066,12.066,0,0,1-.146-4.447c.065-.519.13-.925.179-1.193a1.461,1.461,0,0,1,.1-.414,1.663,1.663,0,0,1,0,.422c0,.325-.065.722-.105,1.2a12.813,12.813,0,0,0,.268,4.349,10.93,10.93,0,0,0,1.282,2.718c.584.925,1.282,1.866,1.947,2.921a8.593,8.593,0,0,1,1.42,3.676,7.3,7.3,0,0,1-1.031,4.1c-.674,1.274-1.477,2.434-2.021,3.627a5.81,5.81,0,0,0-.576,3.643,22.112,22.112,0,0,0,1.112,3.294,8.707,8.707,0,0,1-.463,7.352,7.257,7.257,0,0,1-.674,1.006C124.247,365.389,124.15,365.5,124.142,365.486Z" transform="translate(-72.761 -258.03)" fill="#263238"/><path d="M99.6,340.288a4.155,4.155,0,0,1-.1-.925c0-.6-.065-1.469,0-2.54a15.125,15.125,0,0,1,.584-3.733,8.172,8.172,0,0,1,2.5-3.911,14.453,14.453,0,0,1,4.057-2.264c1.315-.519,2.507-.949,3.473-1.388a21.2,21.2,0,0,0,2.978-1.688,3.393,3.393,0,0,1-.673.641,13.1,13.1,0,0,1-2.175,1.315c-.966.479-2.158.941-3.457,1.485a14.419,14.419,0,0,0-3.911,2.223,7.871,7.871,0,0,0-2.434,3.7,15.8,15.8,0,0,0-.657,3.635C99.633,338.957,99.674,340.288,99.6,340.288Z" transform="translate(-68.352 -257.458)" fill="#263238"/><path d="M161.949,282a2.027,2.027,0,0,1,.211.3c.122.2.308.519.511.933a18.663,18.663,0,0,1,1.379,3.651,20.432,20.432,0,0,1-4.43,18.76,25.642,25.642,0,0,1-4.333,3.838c-1.339.966-2.434,1.672-3.246,2.15a9.284,9.284,0,0,1-1.242.706,10.545,10.545,0,0,1,1.152-.811c.755-.519,1.85-1.266,3.156-2.248a27.524,27.524,0,0,0,4.219-3.862,20.521,20.521,0,0,0,3.6-5.948,20.286,20.286,0,0,0,1.42-6.808,20.911,20.911,0,0,0-.584-5.68,22.422,22.422,0,0,0-1.241-3.651C162.16,282.422,161.917,282,161.949,282Z" transform="translate(-78.03 -249.569)" fill="#263238"/><path d="M113.867,309.766c-.049,0-.243-.625-.714-1.737s-1.225-2.686-2.231-4.593a44.818,44.818,0,0,1-3.14-6.938,16,16,0,0,1-.811-4.455,14.549,14.549,0,0,1,.722-4.8,20.911,20.911,0,0,1,4.869-7.936,36.3,36.3,0,0,1,5.891-4.828c1.793-1.209,3.311-2.085,4.357-2.694l1.217-.682a2.693,2.693,0,0,1,.438-.211,1.762,1.762,0,0,1-.4.284l-1.177.755c-1.014.649-2.507,1.566-4.276,2.8a37.577,37.577,0,0,0-5.769,4.869,20.781,20.781,0,0,0-4.755,7.8,14.4,14.4,0,0,0-.706,4.666,15.693,15.693,0,0,0,.738,4.349,47.005,47.005,0,0,0,3.035,6.913,47.409,47.409,0,0,1,2.118,4.666,12.829,12.829,0,0,1,.438,1.331A2.9,2.9,0,0,1,113.867,309.766Z" transform="translate(-69.765 -247.474)" fill="#263238"/><path d="M338.139,267.636c-.122.617,4.3,33.707,8.82,34.64,2.077.422,6.118.811,6.118.811l2.337,6.605,25.244-7.546-4.487-15.417-5.039-22.939Z" transform="translate(-113.354 -246.135)" fill="#ffbe9d"/><path d="M377.735,252.441a15.691,15.691,0,0,0-11.092-7.83c-1.558-.2-3.148-.13-4.682-.446s-2.824-.949-4.244-1.379c-3.432-1.055-7.124-.811-10.695-.406a18.525,18.525,0,0,0-6.816,1.826,10.305,10.305,0,0,0-5.226,8.171,11.287,11.287,0,0,0,2.572,12.983l.422.811,1.526,5.55a1.907,1.907,0,0,0,.357.755c.308,1.542.625,3.083.933,4.617.13.641.325,1.371.925,1.623.811.39,1.785-.446,1.956-1.339a8.722,8.722,0,0,0-.268-2.694,2.28,2.28,0,0,1,.9-2.394,1.25,1.25,0,0,1,.243-.089,6.6,6.6,0,0,1,3.554,3.189,13.992,13.992,0,0,1,.852,2.183,9,9,0,0,1,.122,1.315,6.264,6.264,0,0,0,.446,3.319c.511.811,2.613,3.9,3.587,4h0a28.465,28.465,0,0,0,6.784,4.771,21.333,21.333,0,0,0,6.232,2.491,8.569,8.569,0,0,0,6.492-1.128,11.632,11.632,0,0,0,3.546-4.934,50.771,50.771,0,0,0,4.869-21.641A26.645,26.645,0,0,0,377.735,252.441Z" transform="translate(-112.564 -242.033)" fill="#263238"/><path d="M361.786,288.188a3.9,3.9,0,0,1-1.907-.462,9.064,9.064,0,0,1-3.57-3.083,17.471,17.471,0,0,1-2.061-4.236,7.449,7.449,0,0,1-.527-1.866,9.935,9.935,0,0,1,.811,1.761,22.056,22.056,0,0,0,2.134,4.1,9.737,9.737,0,0,0,3.359,3.059C361.055,288,361.8,288.115,361.786,288.188Z" transform="translate(-116.292 -248.917)" fill="#455a64"/><path d="M366.155,289.506a9.737,9.737,0,0,1-7.035-5.1A15.985,15.985,0,0,0,366.155,289.506Z" transform="translate(-117.311 -250.023)" fill="#455a64"/><path d="M385.568,277.22a15.068,15.068,0,0,1-1.5,9.08c-.122-.049.633-1.98,1.039-4.5S385.438,277.22,385.568,277.22Z" transform="translate(-122.012 -248.668)" fill="#455a64"/><path d="M387.688,278.7a9.169,9.169,0,0,1-1.331,6.832c-.114-.057.56-1.477.925-3.367S387.542,278.708,387.688,278.7Z" transform="translate(-122.444 -248.947)" fill="#455a64"/><path d="M378.051,260.047c-.073,0,.057-1.185,0-3.067a12.8,12.8,0,0,0-2.2-6.873,8.414,8.414,0,0,0-2.97-2.613,7.62,7.62,0,0,0-3.132-.811,8.771,8.771,0,0,0-2.97.511,2.33,2.33,0,0,1,.738-.4,6.159,6.159,0,0,1,2.24-.406,7.6,7.6,0,0,1,3.3.771,8.683,8.683,0,0,1,3.132,2.718,12.391,12.391,0,0,1,2.158,7.108,17.641,17.641,0,0,1-.114,2.256A3.035,3.035,0,0,1,378.051,260.047Z" transform="translate(-118.755 -242.854)" fill="#455a64"/><path d="M378.1,249.48a4.951,4.951,0,0,1-1.144-.811,14.973,14.973,0,0,0-2.759-1.85,6.727,6.727,0,0,0-3.165-.714c-.811.041-1.339.252-1.363.187a2.264,2.264,0,0,1,1.339-.479,6.037,6.037,0,0,1,3.376.625,11.578,11.578,0,0,1,2.775,2A4.609,4.609,0,0,1,378.1,249.48Z" transform="translate(-119.3 -242.739)" fill="#455a64"/><path d="M377.66,268.479a35.041,35.041,0,0,0,.519-3.562,34.9,34.9,0,0,0-.252-3.587,8.325,8.325,0,0,1-.268,7.149Z" transform="translate(-120.806 -245.672)" fill="#455a64"/><path d="M373.666,269.136c-.105-.065.308-.811.471-1.834s0-1.858.154-1.883a3.351,3.351,0,0,1-.625,3.716Z" transform="translate(-120.05 -246.443)" fill="#455a64"/><path d="M343.111,269.111a9.226,9.226,0,0,1-6.451-5.891,20.545,20.545,0,0,0,2.767,3.44,21.1,21.1,0,0,0,3.684,2.451Z" transform="translate(-113.075 -246.028)" fill="#455a64"/><path d="M346.7,270.221a14.742,14.742,0,0,1-5.615-5.5c.105-.073,1.185,1.323,2.735,2.832S346.752,270.115,346.7,270.221Z" transform="translate(-113.909 -246.31)" fill="#455a64"/><path d="M352.342,273.1a32.689,32.689,0,0,1-2.783-2.929,30.837,30.837,0,0,1-2.718-2.994,14.411,14.411,0,0,1,3.027,2.71A14.264,14.264,0,0,1,352.342,273.1Z" transform="translate(-114.995 -246.775)" fill="#455a64"/><path d="M356.078,275.575c-.114.049-.811-1.623-1.939-3.538a32.452,32.452,0,0,1-2.02-3.5,17.422,17.422,0,0,1,3.96,7.035Z" transform="translate(-115.989 -247.031)" fill="#455a64"/><path d="M341.692,256.12a4.634,4.634,0,0,1-.162-1.12,15.178,15.178,0,0,1,.073-3.083,8.374,8.374,0,0,1,6.329-7.36,13.1,13.1,0,0,1,5.6-.39,23.385,23.385,0,0,1,4.447,1.1c1.225.422,2.2.811,2.864,1.112a5.68,5.68,0,0,1,1.014.487,5.912,5.912,0,0,1-1.079-.333c-.682-.235-1.663-.592-2.9-.982a24.462,24.462,0,0,0-4.4-1,13.081,13.081,0,0,0-5.429.4,8.22,8.22,0,0,0-6.151,7,31.853,31.853,0,0,0-.211,4.163Z" transform="translate(-113.985 -242.409)" fill="#455a64"/><path d="M358.9,252.006a2.232,2.232,0,0,1,.243-1.136,5.68,5.68,0,0,1,1.68-2.231,5.8,5.8,0,0,1,2.532-1.177,2.158,2.158,0,0,1,1.152,0c0,.073-.43.105-1.087.3a6.726,6.726,0,0,0-2.329,1.217,6.492,6.492,0,0,0-1.68,2.029C359.094,251.6,358.98,252.022,358.9,252.006Z" transform="translate(-117.268 -243.042)" fill="#455a64"/><path d="M169.88,382.215l7.189-8.82,14.687-4.723,19.84-.852,21.373,5.372-5.68,15.32-15.823-5.769s-6.889,4.179-10.476,4.374-8.114,2.718-8.114,2.718l-1.063,5.437s-2.353,1.193-2.751,0a54.455,54.455,0,0,1-.811-6.362l3.546-3.96-7,5.347-3.7,5.51s-3.773.065-2.686-2.321,2.881-6.167,2.881-6.167l4.974-5.51L180.356,386l-4.114,6.548s-3.7.657-2.962-1.623a50.035,50.035,0,0,1,2.434-5.956l2.872-3.83,3.692-3.246-3.879.925S173.734,386.021,169.88,382.215Z" transform="translate(-81.628 -265.751)" fill="#ffbe9d"/><path d="M225.623,362.163,224,381.143l55.989,7.976a11.408,11.408,0,0,0,5.2-.381l50.171-20.416s3.643-24.53-12.285-30.559c-10.735-4.057-17.43,10.2-25.252,15.328a83.822,83.822,0,0,1-19.158,9.072Z" transform="translate(-91.832 -259.948)" fill="#05d6bf"/><path d="M337.15,332.863l18.079-14.257,25.244-7.546s18.663,5.964,22.956,8.4c5.583,3.246,13.17,12.366,15.563,25.82a121.24,121.24,0,0,1,1.915,20.4H352.4Z" transform="translate(-113.168 -255.049)" fill="#05d6bf"/><path d="M353.3,355.18c-.081,0-.211-1.242-.811-3.148a20.047,20.047,0,0,0-1.412-3.246,20.315,20.315,0,0,0-8.593-8.309c-1.793-.9-3.01-1.225-2.986-1.306a3.685,3.685,0,0,1,.86.195,6.4,6.4,0,0,1,.982.317,11.589,11.589,0,0,1,1.274.527,17.728,17.728,0,0,1,3.083,1.81,20.885,20.885,0,0,1,3.246,2.962,21.357,21.357,0,0,1,2.483,3.619,18.127,18.127,0,0,1,1.355,3.319,12.236,12.236,0,0,1,.333,1.331,6.488,6.488,0,0,1,.17,1.022A3.31,3.31,0,0,1,353.3,355.18Z" transform="translate(-113.611 -260.349)" fill="#263238"/><path d="M406.538,339.53a7.99,7.99,0,0,1-.422,1.25c-.292.811-.738,1.947-1.3,3.359-1.128,2.824-2.743,6.694-4.625,10.938s-3.66,8.05-4.99,10.776c-.665,1.371-1.217,2.434-1.623,3.246a8.49,8.49,0,0,1-.649,1.16,7.729,7.729,0,0,1,.5-1.225c.373-.811.876-1.947,1.485-3.246,1.258-2.767,2.994-6.589,4.869-10.825s3.53-8.114,4.731-10.881c.576-1.347,1.063-2.434,1.428-3.3a7.946,7.946,0,0,1,.592-1.25Z" transform="translate(-123.686 -260.417)" fill="#263238"/><path d="M324.324,383.624a42.566,42.566,0,0,0,.106-4.325,24.343,24.343,0,0,0-2.718-9.965,22.931,22.931,0,0,0-9.851-10.654.7.7,0,0,1,.284.1c.187.1.463.179.811.357a15.507,15.507,0,0,1,2.678,1.745,25.6,25.6,0,0,1,6.492,8.26,23.386,23.386,0,0,1,2.653,10.143,20.524,20.524,0,0,1-.17,3.189,5.764,5.764,0,0,1-.284,1.152Z" transform="translate(-108.399 -264.028)" fill="#fff"/><path d="M329.138,381.548c-.089,0,.041-1.68-.211-4.349a28.9,28.9,0,0,0-2.913-10.005,28.4,28.4,0,0,0-3.116-4.869,26.776,26.776,0,0,0-3.246-3.376c-2.045-1.745-3.522-2.556-3.473-2.629a6.164,6.164,0,0,1,1.039.552,9.96,9.96,0,0,1,1.16.747,15.71,15.71,0,0,1,1.461,1.1,25.152,25.152,0,0,1,3.392,3.351,27.417,27.417,0,0,1,3.2,4.869,26.988,26.988,0,0,1,2.791,10.216,23.049,23.049,0,0,1,.041,3.246,5.72,5.72,0,0,1-.122,1.144Z" transform="translate(-109.214 -263.583)" fill="#fff"/><g transform="translate(270.9 81.401)" opacity="0.3"><path d="M406.054,342.35c0,8.861-2.572,16.821-5.566,25.155a6.418,6.418,0,0,1-1.891,3.124,2.355,2.355,0,0,1-3.294-.268c-.673-1.039-.187-2.158.252-3.181l10.5-24.83" transform="translate(-394.97 -342.35)"/></g></g></g></g></svg>