<svg xmlns="http://www.w3.org/2000/svg" width="237.74" height="233.044" viewBox="0 0 237.74 233.044"><g transform="translate(-992 -902.929)"><g transform="translate(48.24)"><path d="M273,265.81l-15.67-31.68a116.39,116.39,0,1,0-24,34.13v.06Z" transform="translate(908.49 834)" fill="#fafafa"/><path d="M273,265.81l-39.66,2.62h-.21l.11-.19v-.06l.18.14a121.445,121.445,0,0,1-9.12,8.11c-1.66,1.4-3.5,2.68-5.33,4.06a69.341,69.341,0,0,1-5.9,3.91,115,115,0,0,1-29.08,13,117.69,117.69,0,0,1-36.9,4.49,115.711,115.711,0,0,1-40.88-9.17A116.305,116.305,0,0,1,36.05,172.28c.19-2.26.63-4.5,1-6.76s.9-4.47,1.37-6.72a116.6,116.6,0,0,1,25.49-49.57l2.41-2.65,1.2-1.33,1.27-1.26,2.52-2.52L73.93,99a114.32,114.32,0,0,1,23-16.12c2-1.14,4.12-2.08,6.2-3.09s4.23-1.81,6.33-2.71c2.16-.75,4.28-1.6,6.45-2.27s4.33-1.39,6.54-1.89a119.27,119.27,0,0,1,26.41-3.73,116.43,116.43,0,0,1,110.73,72.45,121.559,121.559,0,0,1,5.8,18.57c.31,1.54.61,3.06.91,4.57s.46,3,.7,4.52l.33,2.24c.08.74.15,1.48.23,2.22.17,1.47.28,2.93.36,4.39a115.88,115.88,0,0,1-2.33,31.75,119.266,119.266,0,0,1-3.68,13.1c-1.4,4-2.93,7.75-4.47,11.14v-.09c10.08,20.55,15.23,31,15.57,31.72-.35-.69-5.55-11.14-15.77-31.63h0c1.53-3.39,3-7.09,4.43-11.13a116.16,116.16,0,0,0,5.88-44.8c-.09-1.45-.2-2.91-.37-4.38l-.24-2.21-.33-2.23c-.24-1.48-.39-3-.71-4.5s-.6-3-.91-4.56a120.429,120.429,0,0,0-5.8-18.5,116,116,0,0,0-110.36-72.1,119,119,0,0,0-26.3,3.72c-2.19.5-4.33,1.24-6.5,1.88s-4.27,1.52-6.42,2.27c-2.1.9-4.24,1.71-6.31,2.7s-4.16,1.93-6.17,3.08a113.5,113.5,0,0,0-22.85,16l-2.61,2.39-2.51,2.51-1.26,1.26-1.2,1.32-2.4,2.64a116.658,116.658,0,0,0-25.38,49.42c-.46,2.23-1,4.45-1.36,6.69s-.77,4.47-1,6.73a116.41,116.41,0,0,0,5.91,52.07,115.2,115.2,0,0,0,26.08,42,116.88,116.88,0,0,0,37.83,26,115.51,115.51,0,0,0,40.73,9.18,117.31,117.31,0,0,0,36.78-4.44,114.8,114.8,0,0,0,29-12.88c2.08-1.24,4-2.6,5.9-3.89s3.66-2.64,5.32-4a121.513,121.513,0,0,0,9.13-8.07l.6-.57-.42.71v.06l-.1-.18Z" transform="translate(908.49 834)" fill="#263238"/></g><g transform="translate(845.252 827.097)"><path d="M218.6,208.25a6,6,0,0,1-.44-.78,10,10,0,0,1-.79-2.45,11,11,0,0,1,0-4.07,12.26,12.26,0,0,1,2.07-5,10.76,10.76,0,0,1,2.21-2.27,15.409,15.409,0,0,1,3-1.68,22.349,22.349,0,0,0,3.18-1.65,6.1,6.1,0,0,0,2.32-2.81,9.06,9.06,0,0,0,.53-3.87,24.21,24.21,0,0,0-.66-4.11,26.5,26.5,0,0,1-.68-4.35,10,10,0,0,1,.82-4.5c1.22-2.85,3.21-5.14,4.23-7.77a17.61,17.61,0,0,0,.95-8c-.45-5.2-1.88-9.81-1.88-13.84a21.529,21.529,0,0,1,.51-5.37,12.26,12.26,0,0,1,1.55-3.78,9.5,9.5,0,0,1,1.64-2,4.12,4.12,0,0,1,.7-.56,12.78,12.78,0,0,0-2.17,2.65,16.51,16.51,0,0,0-1.86,9c.05,4,1.51,8.53,2,13.81a18,18,0,0,1-1,8.24c-1.06,2.74-3.06,5-4.22,7.79a9.43,9.43,0,0,0-.78,4.27,25.348,25.348,0,0,0,.66,4.26c.62,2.76,1.1,5.69.08,8.27a6.62,6.62,0,0,1-2.52,3,21,21,0,0,1-3.26,1.67,15.38,15.38,0,0,0-2.92,1.61,10.72,10.72,0,0,0-2.15,2.16,12,12,0,0,0-2.08,4.82,11.22,11.22,0,0,0-.06,4,13.569,13.569,0,0,0,1.02,3.31Z" fill="#263238"/><path d="M318.74,208.17q-1.42-5.11-2.84-10.24c-.85-3.07-1.74-6.22-3.67-8.76-3.05-4-8.19-5.86-11.71-9.46S295.37,171,294.84,166s-.06-10.1,0-15.15c0-1.93-.06-3.86-.2-5.78a7.8,7.8,0,0,0,4.23-.12c4.2-1.36,6.24-6.12,6.94-10.48a7.85,7.85,0,0,1-4.27.2,6.51,6.51,0,0,0,2.36-5.16,22.44,22.44,0,0,1-5.77.47A7.59,7.59,0,0,1,293,127.6c-1.86-2.2-1.77-5.39-2.59-8.16a12.15,12.15,0,0,0-19-6.26l-30.95,7.19c-5.29,6-6.65,15.59-5.78,21.8s2.83,12.54,1.3,18.63c-1.21,4.78-4.52,9-4.61,14-.06,3.31,1.36,6.62.71,9.87-.86,4.28-4.94,7-7.72,10.36-4.06,4.9-5.26,12.63-1.24,17.55,3.54,4.33,9.74,5.25,15.34,5.3,12,.1,23.83-2.35,35.56-4.87,2.57,6,8.7,10.15,15.16,11.54,6.69,1.44,13.68.35,20.27-1.49,4.12-1.15,8.7-3.13,9.93-7.23C320.11,213.29,319.42,210.65,318.74,208.17Z" fill="#263238"/><path d="M319.24,203.57a3.851,3.851,0,0,1-.84-.35,5.6,5.6,0,0,1-1.91-1.76,9.68,9.68,0,0,1-1.53-3.83,19.72,19.72,0,0,1-.18-5.45,24.7,24.7,0,0,0-.17-6.5,9.72,9.72,0,0,0-4.14-5.9,75.271,75.271,0,0,0-7.24-4.07,19.44,19.44,0,0,1-3.68-2.53,11,11,0,0,1-2.73-3.73,17.37,17.37,0,0,1-.76-9c.38-2.89,1-5.62,1.11-8.25a29.749,29.749,0,0,0-2.6-13.66,31,31,0,0,0-5.12-7.93c-.77-.82-1.37-1.45-1.81-1.85a7.317,7.317,0,0,1-.64-.64,4.38,4.38,0,0,1,.71.56c.47.38,1.09,1,1.89,1.79a30.13,30.13,0,0,1,8,21.75c-.08,2.69-.71,5.44-1.08,8.29a16.88,16.88,0,0,0,.74,8.69c1.2,2.78,3.67,4.65,6.17,6a72.3,72.3,0,0,1,7.28,4.13,11.56,11.56,0,0,1,2.8,2.78,4.85,4.85,0,0,1,.5.82,5.546,5.546,0,0,1,.43.84,10.228,10.228,0,0,1,.55,1.76,24.21,24.21,0,0,1,.11,6.61,20.19,20.19,0,0,0,.1,5.38,9.82,9.82,0,0,0,1.41,3.76,5.6,5.6,0,0,0,1.8,1.78A9.3,9.3,0,0,1,319.24,203.57Z" fill="#263238"/><path d="M187.46,201l-2.67-6.45a44.781,44.781,0,0,1,.56-8.21,12.3,12.3,0,0,1,1.31-4,19.14,19.14,0,0,1,2.91-4.38c1.19-1.09.43-3.06-1-2.9s-4.81,3.1-6.82,7.91-4.33-3.06-5.23-5.9-4.09-11.54-5.18-12c-1.61-.62-2.56,1-1.6,3.81s3.26,11.5,1.73,11.9-5.88-14.17-5.88-14.17-.43-3.26-2.21-2.86c-3.21.73,2.58,15.88,3.17,17.3.4,1-1.24,1.49-1.62.4s-4-14.63-7.3-13.91c-2.52.54,4.64,12.49,3.84,15.72s-4.51-9.62-6.89-9c-.88.23-1.51.53,1.68,7.59a106.577,106.577,0,0,0,5.37,9.7h0l6.2,15.72Z" fill="#ffbe9d"/><path d="M179.27,187.49a19.531,19.531,0,0,0-1.84,1.41,8.49,8.49,0,0,0-2.51,4.8,8.251,8.251,0,0,0-.08,1.3v.48l-.41-.25a6.91,6.91,0,0,0-4.4-1c-1.17.11-1.83.43-1.86.35a3.62,3.62,0,0,1,1.81-.7,6.85,6.85,0,0,1,4.73.91l-.4.24a7.449,7.449,0,0,1,.08-1.4,8.22,8.22,0,0,1,2.78-5A4.51,4.51,0,0,1,179.27,187.49Z" fill="#eb996e"/><ellipse cx="58.99" cy="56.28" rx="58.99" ry="56.28" transform="translate(202.52 195.61)" fill="#e0e0e0"/><path d="M252,198.14c.07-8.39,0-17.22,0-17.22s-10.79-1.92-12.87-16c-2-13.47,1.38-42.45,1.38-42.45h0c15.63-6.16,33.23-3.78,44.18,8.8h0l-1.7,68.13c-.2,7.91-7.16,14-15.63,13.77h0C258.75,212.84,251.88,206.14,252,198.14Z" fill="#ffbe9d"/><path d="M243.39,144.67a1.81,1.81,0,0,0,1.72,1.85,1.74,1.74,0,0,0,1.89-1.61,1.82,1.82,0,0,0-1.73-1.85,1.73,1.73,0,0,0-1.88,1.61Z" fill="#263238"/><path d="M240.48,143.27c.22.24,1.6-.76,3.55-.73,3.66.53,3.6,1.09,3.58.78.1-.1-.12-.53-.74-1a5,5,0,0,0-2.86-.92,4.75,4.75,0,0,0-2.83.88C240.58,142.74,240.37,143.17,240.48,143.27Z" fill="#263238"/><path d="M263.31,145.25a1.8,1.8,0,0,0,1.72,1.84,1.72,1.72,0,0,0,1.88-1.61,1.8,1.8,0,0,0-1.72-1.84,1.72,1.72,0,0,0-1.88,1.61Z" fill="#263238"/><path d="M260.78,143.94c.22.24,1.6-.75,3.55-.73s3.36,1,3.57.78-.11-.53-.73-1a5,5,0,0,0-2.86-.92,4.82,4.82,0,0,0-2.83.88C260.88,143.41,260.67,143.84,260.78,143.94Z" fill="#263238"/><path d="M253.55,157.91a12.14,12.14,0,0,0-3.16-.61c-.49-.06-1-.16-1-.5a2.53,2.53,0,0,1,.35-1.47l1.51-3.77c2.1-5.36,3.63-9.78,3.42-9.86s-2.1,4.2-4.2,9.56L249,155.05a3,3,0,0,0-.28,1.95,1.26,1.26,0,0,0,.81.74,3.1,3.1,0,0,0,.85.12,12.92,12.92,0,0,0,3.17.05Z" fill="#263238"/><path d="M251.94,180.92a35.87,35.87,0,0,0,18.94-4.82s-4.69,9.63-18.79,8.15Z" fill="#eb996e"/><path d="M254.48,164.68a5.48,5.48,0,0,1-.27-1.6,1.82,1.82,0,0,1,.66-1.43c.44-.32,1-.38,1.38-.8.19-.24.25-.56.42-.81a1.65,1.65,0,0,1,1.79-.44,3.5,3.5,0,1,1-4.32,4.08" fill="#eb996e"/><path d="M259.26,159.32c-.32,0-.34,2.09-2.17,3.57S253,164.11,253,164.4c0,.13.5.42,1.45.45a5.23,5.23,0,0,0,3.41-1.14,4.59,4.59,0,0,0,1.68-3C259.63,159.83,259.41,159.31,259.26,159.32Z" fill="#263238"/><path d="M268.71,140.08c-.21.43-2-.22-4-.31s-3.7.64-3.95.24c-.11-.18.19-.62.89-1.06a5.61,5.61,0,0,1,3.12-.77,6.48,6.48,0,0,1,3,.89C268.47,139.49,268.8,139.89,268.71,140.08Z" fill="#263238"/><path d="M248.74,138.38c-.09.2-.56.18-1.22.05a22.289,22.289,0,0,0-2.38-.44c-1.71-.16-3.26.58-3.5.16-.11-.18.15-.59.76-1a4.53,4.53,0,0,1,2.87-.73,5.68,5.68,0,0,1,2.7,1C248.55,137.81,248.84,138.18,248.74,138.38Z" fill="#263238"/><path d="M292.45,183c-3.95-12.74-6.25-25.89-8.05-39.13,1.08-.76,1.57-2.42,1.7-3.86.88-9.77-3.43-20-11.45-25.68s-19.51-6.21-27.68-.78-11.66,13.27-8.05,22.39a39.53,39.53,0,0,0,13.43-14c.19.17.39.33.58.51,2.77,5.75,7.26,12.08,12.57,14.26a25.21,25.21,0,0,0,10.34,1.85,21.69,21.69,0,0,1,.44,9.26c-.66,4.74-1.95,9.59-.75,14.21.83,3.23,2.83,6.17,3,9.5.14,2.84-1.07,5.55-1.95,8.25s-1.42,5.8,0,8.28c2,3.49,6.79,4.11,10.74,3.45,2.25-.38,4.75-1.29,5.58-3.42C293.5,186.43,293,184.63,292.45,183Z" fill="#263238"/><path d="M282.43,136.15a2.351,2.351,0,0,1-.23.36,6.828,6.828,0,0,1-.79.94,11.93,11.93,0,0,1-3.74,2.54,14.42,14.42,0,0,1-6.61,1.11,17.22,17.22,0,0,1-7.77-2.61,23.82,23.82,0,0,1-6.1-5.49,35.741,35.741,0,0,1-3.63-5.63c-.89-1.68-1.51-3.09-1.92-4.07a9,9,0,0,1-.57-1.55,11.081,11.081,0,0,1,.76,1.47c.46,1,1.14,2.32,2.06,4a37.538,37.538,0,0,0,3.68,5.49,24.22,24.22,0,0,0,6,5.35,17.14,17.14,0,0,0,7.53,2.57,14.35,14.35,0,0,0,6.43-1,12.34,12.34,0,0,0,3.75-2.34A14.658,14.658,0,0,1,282.43,136.15Z" fill="#263238"/><path d="M283.61,122.3c-.09,0-.19-.9-.73-2.26a10.84,10.84,0,0,0-8.44-6.77c-1.44-.23-2.36-.13-2.37-.22a5.31,5.31,0,0,1,2.42-.15,10.28,10.28,0,0,1,8.74,7,5.22,5.22,0,0,1,.38,2.4Z" fill="#ff8900"/><path d="M286.63,137.79a1.53,1.53,0,0,1-.42.16,6.7,6.7,0,0,1-1.26.23,9.67,9.67,0,0,1-4.6-.81,13.89,13.89,0,0,1-5.44-4.27,40.471,40.471,0,0,1-4.37-7.27,39.587,39.587,0,0,0-4.32-7.17,13.61,13.61,0,0,0-5.29-4.14,9.6,9.6,0,0,0-4.45-.82c-1.09.07-1.67.28-1.68.22a1.56,1.56,0,0,1,.41-.16,5.31,5.31,0,0,1,1.25-.27,9.42,9.42,0,0,1,4.62.68,13.69,13.69,0,0,1,5.52,4.18,38.189,38.189,0,0,1,4.41,7.24,42.391,42.391,0,0,0,4.28,7.2A13.86,13.86,0,0,0,280.5,137a9.91,9.91,0,0,0,4.44.94C286,137.92,286.61,137.74,286.63,137.79Z" fill="#455a64"/><path d="M304,198.87a10.72,10.72,0,0,0,0-3.61,16.26,16.26,0,0,0-5.12-8.27c-1.52-1.44-3.34-2.84-5.24-4.44a24.14,24.14,0,0,1-5.35-5.87,20.11,20.11,0,0,1-2.61-8.37,35.31,35.31,0,0,1,.5-9.41c1-6.36,3.36-12.17,2.91-17.76a51.883,51.883,0,0,0-.89-7.8,25.169,25.169,0,0,0-2.07-6.5,30.14,30.14,0,0,0-5.5-8.2,20.261,20.261,0,0,0-2-1.79l-.57-.41a1.5,1.5,0,0,1-.19-.15,11.61,11.61,0,0,1,2.92,2.21,29.291,29.291,0,0,1,5.69,8.18,32.385,32.385,0,0,1,1.27,3.08,26.577,26.577,0,0,1,.89,3.49,51.2,51.2,0,0,1,.95,7.88,34.613,34.613,0,0,1-.1,4.3,31,31,0,0,1-.78,4.42c-.67,3-1.44,6-2,9.14a34.759,34.759,0,0,0-.51,9.27,19.711,19.711,0,0,0,2.51,8.17,24.141,24.141,0,0,0,5.21,5.79c1.88,1.6,3.7,3,5.22,4.5a16.08,16.08,0,0,1,5.06,8.51,9,9,0,0,1,.05,2.72,2.64,2.64,0,0,1-.14.69A.418.418,0,0,1,304,198.87Z" fill="#455a64"/><path d="M320.51,248.6c-.7-8.4-1.2-20.33-3.27-26.13h-.12c-.2-.94-.4-1.86-.62-2.75a31.45,31.45,0,0,0-19.24-22.1,39,39,0,0,0-13.93-2.72l-6.59,4.46c-7.81,5.59-20.71,4.55-24.8-3.65,0,0-14.1,1.64-25,7.33-3.07,1.67-7.2,6.37-11.35,12.43h0A129.779,129.779,0,0,0,208,228.12c0,.06-.06.13-.1.19l-7.1,11.89L188.17,197l-24,10.31s14.06,48.79,16.18,56.57c4.11,15.15,16.84,13.14,23.14,11.09a7.127,7.127,0,0,0,1-.47h0a6,6,0,0,0,2.21-2.08l16.54-15.61a.41.41,0,0,0,0,.27c.16.83-2.07,19.19-4.41,33.37a57.74,57.74,0,0,0,51.22,17.73c8.61-1.38,11.77-2.79,19.07-6.17a18.861,18.861,0,0,0,2.6-1.46h0s12.45-5.36,21.2-20.63C318.3,270.57,321.44,259.75,320.51,248.6Z" fill="#8dd52c"/><path d="M314.16,277.7a.75.75,0,0,1-.27-.1l-.76-.33-2.91-1.34-10.73-5-35.93-17,.34-.11c-1,1.76-2,3.63-3.06,5.53l-7.09,12.78v-.12c0-.08,0,0,.11.11a1.29,1.29,0,0,0,.2.21,6.136,6.136,0,0,0,.45.43l1,.81c.65.52,1.3,1,2,1.53,1.31,1,2.61,2,3.89,2.91,2.56,1.87,5,3.63,7.37,5.3L281.06,292l8.16,5.71,2.19,1.54.55.4.18.15-.2-.11-.59-.37-2.23-1.47-8.25-5.57c-3.5-2.4-7.7-5.29-12.41-8.59-2.35-1.65-4.83-3.41-7.4-5.27-1.28-.93-2.59-1.89-3.91-2.9-.65-.5-1.32-1-2-1.54-.33-.26-.66-.54-1-.82l-.48-.45a1.39,1.39,0,0,1-.23-.25l-.12-.15a.63.63,0,0,1-.1-.28v-.13l7.08-12.79,3.06-5.53.12-.21.22.1,35.86,17.17,10.66,5.17,2.87,1.42.74.38a1,1,0,0,1,.33.09Z" fill="#263238"/><path d="M301.78,203a25.4,25.4,0,0,0-2.45,1.18,15.651,15.651,0,0,0-5.16,5.17,23.63,23.63,0,0,0-3.35,10.31,60.918,60.918,0,0,0-.33,6.48c0,2.26,0,4.59.11,7,.22,4.78.7,9.32,1.13,13.46s.83,7.85,1.07,11,.37,5.68.4,7.44v2a3.514,3.514,0,0,1,0,.71,3.56,3.56,0,0,1-.07-.71c0-.51-.05-1.18-.09-2-.09-1.75-.26-4.28-.56-7.41s-.72-6.84-1.19-11-.95-8.68-1.17-13.48c-.12-2.41-.12-4.75-.1-7a59.518,59.518,0,0,1,.359-6.523,30.449,30.449,0,0,1,1.271-5.807,20.181,20.181,0,0,1,2.25-4.66,15.41,15.41,0,0,1,5.38-5.14,12.248,12.248,0,0,1,1.86-.82A3.8,3.8,0,0,1,301.78,203Z" fill="#263238"/><g opacity="0.4"><path d="M255,272.79,284.6,304s4.48-2.25,8.3-4.24Z"/></g><g opacity="0.4"><path d="M287,264.43c1.28-14.76.9-28.38,4-42.85-.33,15.22,1.68,29.78,3.29,45.95"/></g><g opacity="0.4"><path d="M222.14,267.91c1,1.56,4.2,2.11,5.86,1.27a8.87,8.87,0,0,0,3.62-4.14,31.382,31.382,0,0,1,2.64-4.92c5,6.2,18.42,10,20.8,8.56l3.23-5.63L235.57,245.5l-12.79,17.11Z"/></g><path d="M178.57,219.19c-.14,0-.23-.36-.19-.78s.2-.73.34-.72.23.36.19.78S178.72,219.2,178.57,219.19Z" fill="#fafafa"/><path d="M190.26,226.23c-.13.07-.4-.17-.61-.54s-.27-.74-.14-.81.4.18.61.55S190.39,226.16,190.26,226.23Z" fill="#fafafa"/><ellipse cx="0.27" cy="0.75" rx="0.27" ry="0.75" transform="translate(181.3 233.12)" fill="#fafafa"/><path d="M193.26,247.51c-.14.06-.43-.27-.82-.61s-.73-.6-.68-.74.57-.07,1,.35S193.39,247.45,193.26,247.51Z" fill="#fafafa"/><path d="M191.61,259.94c-.14-.05-.15-.34,0-.63s.33-.47.47-.42.14.34,0,.63S191.74,260,191.61,259.94Z" fill="#fafafa"/><path d="M204,263.84c-.09.11-.51-.11-.92-.48s-.67-.76-.57-.87.51.1.92.48S204.14,263.73,204,263.84Z" fill="#fafafa"/><path d="M210.64,245c-.15,0-.27-.4-.27-.9s.12-.9.27-.9.26.4.26.9S210.78,245,210.64,245Z" fill="#fafafa"/><path d="M208.69,254.4c-.11.09-.4-.06-.65-.35s-.36-.6-.25-.7.4.06.65.35S208.8,254.3,208.69,254.4Z" fill="#fafafa"/><path d="M218.88,225.33c0,.14-.49.12-1-.05s-.86-.41-.81-.55.49-.12,1,.05S218.92,225.19,218.88,225.33Z" fill="#fafafa"/><path d="M180.67,249.9c-.13-.07-.13-.3,0-.51s.32-.31.45-.23.13.3,0,.51S180.8,250,180.67,249.9Z" fill="#fafafa"/><path d="M183.53,207.62c-.06.13-.48.08-.93-.13s-.78-.47-.72-.61.47-.07.93.13S183.59,207.49,183.53,207.62Z" fill="#fafafa"/><path d="M170,211.4c-.1-.11,0-.36.19-.57s.46-.29.56-.18,0,.35-.19.56S170.14,211.5,170,211.4Z" fill="#fafafa"/><path d="M236.75,278.65c-.13.07-.41-.21-.62-.62s-.28-.8-.15-.87.41.21.62.63S236.88,278.58,236.75,278.65Z" fill="#fafafa"/><path d="M231.31,291.26c-.08.12-.42,0-.75-.24s-.53-.54-.45-.66.43,0,.76.24S231.4,291.14,231.31,291.26Z" fill="#fafafa"/><path d="M227.27,279c-.11-.1,0-.42.33-.71s.61-.44.72-.34,0,.43-.34.71S227.37,279.08,227.27,279Z" fill="#fafafa"/><path d="M247.65,297.55c-.15,0-.2-.42-.12-.87s.27-.8.42-.78.19.42.11.87S247.79,297.58,247.65,297.55Z" fill="#fafafa"/><path d="M249.89,285.26c-.09.12-.44,0-.85-.1s-.78-.2-.8-.34.41-.32.94-.17S250,285.15,249.89,285.26Z" fill="#fafafa"/><path d="M245.1,270.88c.08.12-.23.46-.68.75s-.89.42-1,.3.23-.46.68-.75S245,270.76,245.1,270.88Z" fill="#fafafa"/><path d="M263.7,294.71c-.14,0-.23-.33-.19-.71s.2-.66.34-.64.23.33.19.7S263.85,294.72,263.7,294.71Z" fill="#fafafa"/><path d="M277.77,297.71c.09.12-.08.39-.37.6s-.59.27-.68.15.08-.38.37-.59S277.69,297.6,277.77,297.71Z" fill="#fafafa"/><path d="M270.72,272.38c-.14,0-.33-.25-.41-.62s0-.7.11-.73.33.24.41.62S270.86,272.35,270.72,272.38Z" fill="#fafafa"/><path d="M280,270.13c-.14,0-.23-.3-.19-.63s.2-.59.34-.57.23.3.19.63S280.13,270.15,280,270.13Z" fill="#fafafa"/><path d="M264.43,262.11c0,.14-.47.35-1.07.12s-.83-.73-.7-.81.45.15.9.31S264.41,262,264.43,262.11Z" fill="#fafafa"/><path d="M281.5,283.44c0,.14-.26.36-.67.48s-.79.11-.83,0,.26-.36.68-.48S281.46,283.3,281.5,283.44Z" fill="#fafafa"/><path d="M296.94,280.92c-.14,0-.33-.32-.41-.78s0-.84.11-.87.33.32.41.78S297.08,280.89,296.94,280.92Z" fill="#fafafa"/><path d="M293.19,289.31c-.11.09-.4-.07-.74-.25s-.62-.35-.6-.5.43-.21.86,0S293.31,289.22,293.19,289.31Z" fill="#fafafa"/><path d="M309.51,263.66c.08.12-.18.46-.59.75s-.82.43-.9.31.18-.45.59-.74S309.42,263.54,309.51,263.66Z" fill="#fafafa"/><path d="M301.88,256.65c0,.14-.38.15-.75,0s-.64-.33-.59-.47.38-.15.75,0S301.93,256.51,301.88,256.65Z" fill="#fafafa"/><path d="M315.34,247.33c.1.1,0,.39-.27.63s-.53.36-.64.26,0-.39.27-.64S315.24,247.22,315.34,247.33Z" fill="#fafafa"/><path d="M304.72,241.07c-.13.09-.43-.15-.68-.52s-.35-.74-.23-.82.42.15.67.52S304.84,241,304.72,241.07Z" fill="#fafafa"/><path d="M316.55,232.06c.11.09.07.33-.09.54s-.39.3-.51.21-.07-.33.09-.54A.464.464,0,0,1,316.55,232.06Z" fill="#fafafa"/><path d="M295.14,229.83c-.14,0-.26-.41-.26-.9s.12-.9.26-.9.27.4.27.9S295.29,229.83,295.14,229.83Z" fill="#fafafa"/><path d="M302.48,218.89c-.09.11-.33.07-.54-.09s-.3-.4-.2-.51.33-.07.54.09S302.58,218.77,302.48,218.89Z" fill="#fafafa"/><path d="M308.93,209.3c.13-.05.41.34.62.88s.26,1,.13,1.07-.42-.34-.63-.88S308.79,209.35,308.93,209.3Z" fill="#fafafa"/><path d="M275.36,245.86c-.1-.1,0-.39.27-.64s.53-.36.63-.26,0,.39-.26.64S275.47,246,275.36,245.86Z" fill="#fafafa"/><path d="M258.28,242.56c-.11.09-.47-.17-.8-.58s-.51-.82-.4-.92.48.17.81.59S258.4,242.47,258.28,242.56Z" fill="#fafafa"/><path d="M283.91,256.67c0,.14-.37.36-.91.49s-1,.11-1,0,.38-.36.92-.49S283.88,256.53,283.91,256.67Z" fill="#fafafa"/><path d="M268.9,230.57c.14,0,.15.5,0,1s-.35,1-.49.92-.16-.5,0-1S268.75,230.54,268.9,230.57Z" fill="#fafafa"/><path d="M283,236.53c-.09.11-.44,0-.77-.33s-.52-.61-.43-.72.45,0,.78.32S283.14,236.42,283,236.53Z" fill="#fafafa"/><path d="M284.8,222.18c.14.06.15.34,0,.63s-.33.48-.47.42-.14-.34,0-.63S284.67,222.13,284.8,222.18Z" fill="#fafafa"/><path d="M274.47,221c0,.14-.27.26-.6.26s-.6-.12-.6-.26.27-.27.6-.27S274.47,220.84,274.47,221Z" fill="#fafafa"/><path d="M255.7,222.49c-.15,0-.3-.39-.33-.88s0-.91.19-.92.3.38.33.88S255.84,222.48,255.7,222.49Z" fill="#fafafa"/><path d="M288.88,207.66a.31.31,0,0,1,.08.42.27.27,0,1,1-.47-.24A.32.32,0,0,1,288.88,207.66Z" fill="#fafafa"/><path d="M288.28,200c.13-.06.34.08.47.33s.12.5,0,.57-.34-.08-.46-.33S288.15,200.06,288.28,200Z" fill="#fafafa"/><path d="M296.79,201.18c0,.15-.3.23-.63.19s-.58-.19-.56-.34.3-.23.63-.19S296.81,201,296.79,201.18Z" fill="#fafafa"/><path d="M247.91,215.01,226.3,265.32l-10.38-3.8,18.09-51.53Z" fill="#263238"/><path d="M238.24,206.31c-3.29-1.79-3.21-8.13-2.55-11.82.89-5,5.75-6.68,9.49-6.51a9.37,9.37,0,0,1,8.29,6.52,10,10,0,0,1-3,10.18,10.62,10.62,0,0,1-10.56,1.73" fill="#1d7e96"/><path d="M257.53,207.27l-6.69,21.23L219.3,215.63l9.22-18.35Z" fill="#455a64"/><g opacity="0.4"><path d="M225.95,202.39l22.91,7.33-4.07,8.48-22.54-8.43Z" fill="#fafafa"/></g><path d="M235.54,195a12.919,12.919,0,0,0,2.56,1c1.61.52,3.85,1.18,6.36,1.8s4.79,1.07,6.46,1.36a13.38,13.38,0,0,0,2.72.33,16.518,16.518,0,0,0-2.65-.68c-1.65-.37-3.92-.88-6.41-1.5s-4.75-1.22-6.38-1.65A15.679,15.679,0,0,0,235.54,195Z" fill="#fafafa"/><path d="M243.42,225.47l-12.99-5.29-.24,1.32,12.82,4.93Z" fill="#263238"/><path d="M261.16,257.8l-6.3-3.35s-6-22.3-8.47-23.86c-2-1.28-13.87-7.26-18-9.34a1.6,1.6,0,0,0-2.15.69h0a1.61,1.61,0,0,0,.63,2.14l13.62,7.74L240,233l-14-7c-1.47-.63-3.54,1.15.78,3.9l11.43,6.45-.37.72-12.66-4.46c-.64-.23-2.37-.74-2.7-.14,0,0-1.48,1.11,1.67,3.27,1.08.74,11.5,5.71,11.5,5.71l-.87.72L223,238.91a1.71,1.71,0,0,0-2,1.07h0a1.7,1.7,0,0,0,1,2.14L233.75,247l4.91,11a11.31,11.31,0,0,0,5.14,5.46l11.26,5.25Z" fill="#ffbe9d"/><path d="M228.4,221.25a1.8,1.8,0,0,0,.39.26l1.16.65,4.31,2.33,6.43,3.4,3.8,2,1,.53.5.26a1.74,1.74,0,0,1,.45.28,6.8,6.8,0,0,1,1.24,1.85,67.11,67.11,0,0,1,3.14,8.28c.84,2.6,1.55,5,2.13,6.95l1.36,4.7c.16.51.28.93.38,1.28a1.93,1.93,0,0,0,.17.44,2.271,2.271,0,0,0-.07-.46c-.08-.36-.17-.79-.29-1.3-.26-1.13-.67-2.76-1.21-4.76s-1.21-4.37-2-7a63.4,63.4,0,0,0-3.14-8.37,7,7,0,0,0-1.36-2,2.2,2.2,0,0,0-.53-.32l-.5-.27-1-.51-3.82-2-6.48-3.31L230,222l-1.21-.57a1.45,1.45,0,0,0-.39-.18Z" fill="#eb996e"/><path d="M257.53,207.27a5.59,5.59,0,0,1-1.17-.29l-3.13-1c-2.63-.85-6.25-2.06-10.25-3.42s-7.6-2.63-10.2-3.57l-3.08-1.14a5.09,5.09,0,0,1-1.11-.49,5.591,5.591,0,0,1,1.17.29l3.12,1c2.64.85,6.26,2.06,10.26,3.42s7.61,2.63,10.21,3.57l3.08,1.14A4.83,4.83,0,0,1,257.53,207.27Z" fill="#263238"/></g></g></svg>