<svg xmlns="http://www.w3.org/2000/svg" width="1030" height="652.685" viewBox="0 0 1030 652.685"><g transform="translate(-520.33 5054.176)"><path d="M20,0h990c11.046,0,20,11.573,20,25.849V626.836c0,14.276-8.954,25.849-20,25.849H20c-11.046,0-20-11.573-20-25.849V25.849C0,11.573,8.954,0,20,0Z" transform="translate(520.33 -5054.176)" fill="#fddab1" opacity="0.2"/><path d="M0,0H721.311V81.09H0Z" transform="translate(674.33 -4482.581)" fill="#0a62a5"/><path d="M670.485,393.67H80.726L14.95,413.42H736.261Z" transform="translate(659.38 -4896.001)" fill="#0082d2"/><path d="M0,0H587.578V81.09H0Z" transform="translate(741.196 -4582.381)" fill="#008cb4"/><path d="M612.162,293.87H156.136L90.36,313.62H677.938Z" transform="translate(650.836 -4896.001)" fill="#00aae1"/><path d="M0,0H456.026V81.09H0Z" transform="translate(806.972 -4682.181)" fill="#00aab4"/><path d="M554.79,194.07H230.307L164.54,213.82H620.566Z" transform="translate(642.432 -4896.001)" fill="#00d7e1"/><path d="M0,0H324.482V81.09H0Z" transform="translate(872.74 -4783.021)" fill="#00aa87"/><path d="M497.425,93.23H304.486L238.71,112.98H563.193Z" transform="translate(634.03 -4896.001)" fill="#00d2aa"/><path d="M190.151,249.01a34.872,34.872,0,0,0,58.266,22.064l17.453,2.559-8.738-15.085a34.872,34.872,0,1,0-66.982-9.538Z" transform="translate(1059.553 -4689.385)" fill="#fff" opacity="0.5"/><path d="M200.595,220.255a34.781,34.781,0,0,1,29.212-9.707,35.221,35.221,0,0,1,14.894,5.637,35.672,35.672,0,0,1,10.914,11.635,35.266,35.266,0,0,1,2.153,31.084v-.6l8.681,15.108.643,1.127-1.263-.192-17.43-2.672.406-.135a35.232,35.232,0,0,1-17.25,8.524,31.7,31.7,0,0,1-4.825.507,34.94,34.94,0,0,1-22.65-7.024,37.2,37.2,0,0,1-3.675-3.112,38.783,38.783,0,0,1-3.168-3.642,35.075,35.075,0,0,1,3.382-46.473Zm-3.3,46.394a31.784,31.784,0,0,0,6.866,6.675,32.256,32.256,0,0,0,8.411,4.51,34.262,34.262,0,0,0,9.313,2.052,33.659,33.659,0,0,0,4.769,0,30.5,30.5,0,0,0,4.735-.575,34.353,34.353,0,0,0,16.7-8.6l.169-.158h.248l17.464,2.559-.631.913-8.805-15.1-.158-.282.124-.316a34.77,34.77,0,0,0,2.447-15.187,34.354,34.354,0,0,0-4.42-14.758A35.887,35.887,0,0,0,244.08,217a34.54,34.54,0,0,0-46.812,49.709Z" transform="translate(1059.55 -4689.424)" fill="#263238"/><path d="M219.054,263.551,204.16,248.477l5.006-4.949,8.7,8.817L235.943,224l5.942,3.777Z" transform="translate(1061.362 -4687.667)" fill="#0a62a5"/><path d="M190.151,249.01a34.872,34.872,0,0,0,58.266,22.064l17.453,2.559-8.738-15.085a34.872,34.872,0,1,0-66.982-9.538Z" transform="translate(1002.03 -4782.385)" fill="#fff" opacity="0.5"/><path d="M200.595,220.255a34.781,34.781,0,0,1,29.212-9.707,35.221,35.221,0,0,1,14.894,5.637,35.672,35.672,0,0,1,10.914,11.635,35.266,35.266,0,0,1,2.153,31.084v-.6l8.681,15.108.643,1.127-1.263-.192-17.43-2.672.406-.135a35.232,35.232,0,0,1-17.25,8.524,31.7,31.7,0,0,1-4.825.507,34.94,34.94,0,0,1-22.65-7.024,37.2,37.2,0,0,1-3.675-3.112,38.783,38.783,0,0,1-3.168-3.642,35.075,35.075,0,0,1,3.382-46.473Zm-3.3,46.394a31.784,31.784,0,0,0,6.866,6.675,32.256,32.256,0,0,0,8.411,4.51,34.262,34.262,0,0,0,9.313,2.052,33.659,33.659,0,0,0,4.769,0,30.5,30.5,0,0,0,4.735-.575,34.353,34.353,0,0,0,16.7-8.6l.169-.158h.248l17.464,2.559-.631.913-8.805-15.1-.158-.282.124-.316a34.77,34.77,0,0,0,2.447-15.187,34.354,34.354,0,0,0-4.42-14.758A35.887,35.887,0,0,0,244.08,217a34.54,34.54,0,0,0-46.812,49.709Z" transform="translate(1002.027 -4782.424)" fill="#263238"/><path d="M219.054,263.551,204.16,248.477l5.006-4.949,8.7,8.817L235.943,224l5.942,3.777Z" transform="translate(1003.84 -4780.667)" fill="#008cb4"/><path d="M190.151,249.01a34.872,34.872,0,0,0,58.266,22.064l17.453,2.559-8.738-15.085a34.872,34.872,0,1,0-66.982-9.538Z" transform="translate(952.633 -4888.067)" fill="#fff" opacity="0.5"/><path d="M200.595,220.255a34.781,34.781,0,0,1,29.212-9.707,35.221,35.221,0,0,1,14.894,5.637,35.672,35.672,0,0,1,10.914,11.635,35.266,35.266,0,0,1,2.153,31.084v-.6l8.681,15.108.643,1.127-1.263-.192-17.43-2.672.406-.135a35.232,35.232,0,0,1-17.25,8.524,31.7,31.7,0,0,1-4.825.507,34.94,34.94,0,0,1-22.65-7.024,37.2,37.2,0,0,1-3.675-3.112,38.783,38.783,0,0,1-3.168-3.642,35.075,35.075,0,0,1,3.382-46.473Zm-3.3,46.394a31.784,31.784,0,0,0,6.866,6.675,32.256,32.256,0,0,0,8.411,4.51,34.262,34.262,0,0,0,9.313,2.052,33.659,33.659,0,0,0,4.769,0,30.5,30.5,0,0,0,4.735-.575,34.353,34.353,0,0,0,16.7-8.6l.169-.158h.248l17.464,2.559-.631.913-8.805-15.1-.158-.282.124-.316a34.77,34.77,0,0,0,2.447-15.187,34.354,34.354,0,0,0-4.42-14.758A35.887,35.887,0,0,0,244.08,217a34.54,34.54,0,0,0-46.812,49.709Z" transform="translate(952.66 -4888.424)" fill="#263238"/><path d="M219.054,263.551,204.16,248.477l5.006-4.949,8.7,8.817L235.943,224l5.942,3.777Z" transform="translate(954.473 -4886.667)" fill="#00aab4"/><path d="M190.151,249.01a34.872,34.872,0,0,0,58.266,22.064l17.453,2.559-8.738-15.085a34.872,34.872,0,1,0-66.982-9.538Z" transform="translate(916.241 -4986.385)" fill="#fff" opacity="0.5"/><path d="M200.595,220.255a34.781,34.781,0,0,1,29.212-9.707,35.221,35.221,0,0,1,14.894,5.637,35.672,35.672,0,0,1,10.914,11.635,35.266,35.266,0,0,1,2.153,31.084v-.6l8.681,15.108.643,1.127-1.263-.192-17.43-2.672.406-.135a35.232,35.232,0,0,1-17.25,8.524,31.7,31.7,0,0,1-4.825.507,34.94,34.94,0,0,1-22.65-7.024,37.2,37.2,0,0,1-3.675-3.112,38.783,38.783,0,0,1-3.168-3.642,35.075,35.075,0,0,1,3.382-46.473Zm-3.3,46.394a31.784,31.784,0,0,0,6.866,6.675,32.256,32.256,0,0,0,8.411,4.51,34.262,34.262,0,0,0,9.313,2.052,33.659,33.659,0,0,0,4.769,0,30.5,30.5,0,0,0,4.735-.575,34.353,34.353,0,0,0,16.7-8.6l.169-.158h.248l17.464,2.559-.631.913-8.805-15.1-.158-.282.124-.316a34.77,34.77,0,0,0,2.447-15.187,34.354,34.354,0,0,0-4.42-14.758A35.887,35.887,0,0,0,244.08,217a34.54,34.54,0,0,0-46.812,49.709Z" transform="translate(916.238 -4986.424)" fill="#263238"/><path d="M219.054,263.551,204.16,248.477l5.006-4.949,8.7,8.817L235.943,224l5.942,3.777Z" transform="translate(918.051 -4984.667)" fill="#00aa87"/><path d="M15.605,25V7.938h5.977a7.848,7.848,0,0,1,4.711,1.189A4.067,4.067,0,0,1,27.9,12.613a3.855,3.855,0,0,1-.645,2.209,3.723,3.723,0,0,1-1.793,1.4,3.6,3.6,0,0,1,2.068,1.324,3.915,3.915,0,0,1,.756,2.438,4.5,4.5,0,0,1-1.57,3.727A7.069,7.069,0,0,1,22.238,25Zm3.516-7.43v4.605h3.012a2.906,2.906,0,0,0,1.939-.592,2.029,2.029,0,0,0,.7-1.635,2.143,2.143,0,0,0-2.426-2.379Zm0-2.484h2.6q2.66-.047,2.66-2.121a1.96,1.96,0,0,0-.674-1.67,3.544,3.544,0,0,0-2.127-.51H19.121Zm11.051,3.457A7.52,7.52,0,0,1,30.9,15.18a5.319,5.319,0,0,1,2.092-2.285,6.1,6.1,0,0,1,3.17-.809,5.774,5.774,0,0,1,4.189,1.57,6.3,6.3,0,0,1,1.811,4.266l.023.867a6.627,6.627,0,0,1-1.629,4.682,5.662,5.662,0,0,1-4.371,1.764,5.69,5.69,0,0,1-4.377-1.758A6.744,6.744,0,0,1,30.172,18.7Zm3.387.246a4.727,4.727,0,0,0,.68,2.76,2.444,2.444,0,0,0,3.867.012,5.172,5.172,0,0,0,.691-3.018,4.68,4.68,0,0,0-.691-2.742,2.249,2.249,0,0,0-1.945-.973,2.212,2.212,0,0,0-1.922.967A5.259,5.259,0,0,0,33.559,18.789ZM47.844,25h-3.4V7h3.4Zm8.625.234a6.225,6.225,0,0,1-4.541-1.711,6.082,6.082,0,0,1-1.752-4.559v-.328a7.66,7.66,0,0,1,.738-3.416,5.418,5.418,0,0,1,2.092-2.32,5.871,5.871,0,0,1,3.088-.814,5.262,5.262,0,0,1,4.1,1.641,6.667,6.667,0,0,1,1.494,4.652v1.383H53.609a3.146,3.146,0,0,0,.99,1.992,2.993,2.993,0,0,0,2.092.75,3.656,3.656,0,0,0,3.059-1.418l1.664,1.863a5.084,5.084,0,0,1-2.062,1.682A6.767,6.767,0,0,1,56.469,25.234Zm-.387-10.406a2.121,2.121,0,0,0-1.635.68,3.511,3.511,0,0,0-.8,1.945h4.711v-.27a2.5,2.5,0,0,0-.609-1.74A2.189,2.189,0,0,0,56.082,14.828ZM67.66,9.2V12.32h2.168V14.8H67.66v6.328a1.511,1.511,0,0,0,.27,1.008,1.354,1.354,0,0,0,1.031.3,5.4,5.4,0,0,0,1-.082V24.93a6.972,6.972,0,0,1-2.051.3q-3.562,0-3.633-3.6V14.8H62.422V12.32h1.852V9.2ZM75.289,25h-3.4V12.32h3.4Zm-3.6-15.961a1.668,1.668,0,0,1,.51-1.254,2.2,2.2,0,0,1,2.771,0,1.658,1.658,0,0,1,.516,1.254,1.663,1.663,0,0,1-.521,1.266,2.172,2.172,0,0,1-2.754,0A1.663,1.663,0,0,1,71.691,9.039Zm9.5,3.281.105,1.465a4.427,4.427,0,0,1,3.645-1.7,3.679,3.679,0,0,1,3,1.184,5.522,5.522,0,0,1,1.008,3.539V25H85.566V16.891a2.2,2.2,0,0,0-.469-1.564,2.1,2.1,0,0,0-1.559-.486,2.33,2.33,0,0,0-2.145,1.219V25H78.008V12.32Zm16.16,12.914a6.225,6.225,0,0,1-4.541-1.711,6.082,6.082,0,0,1-1.752-4.559v-.328a7.66,7.66,0,0,1,.738-3.416,5.418,5.418,0,0,1,2.092-2.32,5.871,5.871,0,0,1,3.088-.814,5.262,5.262,0,0,1,4.1,1.641,6.667,6.667,0,0,1,1.494,4.652v1.383H94.5a3.146,3.146,0,0,0,.99,1.992,2.993,2.993,0,0,0,2.092.75,3.656,3.656,0,0,0,3.059-1.418l1.664,1.863a5.084,5.084,0,0,1-2.062,1.682A6.767,6.767,0,0,1,97.355,25.234Zm-.387-10.406a2.121,2.121,0,0,0-1.635.68,3.511,3.511,0,0,0-.8,1.945h4.711v-.27a2.5,2.5,0,0,0-.609-1.74A2.189,2.189,0,0,0,96.969,14.828ZM111.359,21.5a1.091,1.091,0,0,0-.615-.979,6.989,6.989,0,0,0-1.975-.639q-4.523-.949-4.523-3.844a3.484,3.484,0,0,1,1.4-2.818,5.649,5.649,0,0,1,3.662-1.131,6.08,6.08,0,0,1,3.861,1.137,3.582,3.582,0,0,1,1.447,2.953H111.23a1.639,1.639,0,0,0-.469-1.2A1.984,1.984,0,0,0,109.3,14.5a2.027,2.027,0,0,0-1.324.387,1.221,1.221,0,0,0-.469.984,1.044,1.044,0,0,0,.533.908,5.485,5.485,0,0,0,1.8.6,14.692,14.692,0,0,1,2.133.568q2.684.984,2.684,3.41a3.307,3.307,0,0,1-1.488,2.807,6.42,6.42,0,0,1-3.844,1.072,6.706,6.706,0,0,1-2.83-.568,4.748,4.748,0,0,1-1.939-1.559,3.621,3.621,0,0,1-.7-2.139h3.211a1.768,1.768,0,0,0,.668,1.383,2.649,2.649,0,0,0,1.664.48,2.452,2.452,0,0,0,1.471-.369A1.149,1.149,0,0,0,111.359,21.5ZM126.383,25h-3.4V12.32h3.4Zm-3.6-15.961a1.668,1.668,0,0,1,.51-1.254,2.2,2.2,0,0,1,2.771,0,1.658,1.658,0,0,1,.516,1.254,1.663,1.663,0,0,1-.521,1.266,2.172,2.172,0,0,1-2.754,0A1.663,1.663,0,0,1,122.785,9.039Zm9.5,3.281.105,1.465a4.427,4.427,0,0,1,3.645-1.7,3.679,3.679,0,0,1,3,1.184,5.522,5.522,0,0,1,1.008,3.539V25H136.66V16.891a2.2,2.2,0,0,0-.469-1.564,2.1,2.1,0,0,0-1.559-.486,2.33,2.33,0,0,0-2.145,1.219V25H129.1V12.32ZM146.668,9.2V12.32h2.168V14.8h-2.168v6.328a1.511,1.511,0,0,0,.27,1.008,1.354,1.354,0,0,0,1.031.3,5.4,5.4,0,0,0,1-.082V24.93a6.972,6.972,0,0,1-2.051.3q-3.562,0-3.633-3.6V14.8H141.43V12.32h1.852V9.2Zm9.891,16.031a6.225,6.225,0,0,1-4.541-1.711,6.082,6.082,0,0,1-1.752-4.559v-.328A7.66,7.66,0,0,1,151,15.221,5.418,5.418,0,0,1,153.1,12.9a5.871,5.871,0,0,1,3.088-.814,5.262,5.262,0,0,1,4.1,1.641,6.667,6.667,0,0,1,1.494,4.652v1.383H153.7a3.146,3.146,0,0,0,.99,1.992,2.993,2.993,0,0,0,2.092.75,3.656,3.656,0,0,0,3.059-1.418l1.664,1.863a5.084,5.084,0,0,1-2.062,1.682A6.767,6.767,0,0,1,156.559,25.234Zm-.387-10.406a2.121,2.121,0,0,0-1.635.68,3.511,3.511,0,0,0-.8,1.945h4.711v-.27a2.5,2.5,0,0,0-.609-1.74A2.189,2.189,0,0,0,156.172,14.828Zm14.648.668A9.2,9.2,0,0,0,169.6,15.4a2.481,2.481,0,0,0-2.52,1.3V25H163.7V12.32h3.2l.094,1.512a3.138,3.138,0,0,1,2.824-1.746,3.549,3.549,0,0,1,1.055.152Zm4.746-3.176.105,1.465a4.427,4.427,0,0,1,3.645-1.7,3.679,3.679,0,0,1,3,1.184,5.522,5.522,0,0,1,1.008,3.539V25h-3.387V16.891a2.2,2.2,0,0,0-.469-1.564,2.1,2.1,0,0,0-1.559-.486,2.33,2.33,0,0,0-2.145,1.219V25h-3.387V12.32Zm9.8,6.223a7.52,7.52,0,0,1,.727-3.363,5.319,5.319,0,0,1,2.092-2.285,6.1,6.1,0,0,1,3.17-.809,5.774,5.774,0,0,1,4.189,1.57,6.3,6.3,0,0,1,1.811,4.266l.023.867a6.627,6.627,0,0,1-1.629,4.682,6.313,6.313,0,0,1-8.748.006,6.744,6.744,0,0,1-1.635-4.781Zm3.387.246a4.727,4.727,0,0,0,.68,2.76,2.444,2.444,0,0,0,3.867.012,5.172,5.172,0,0,0,.691-3.018A4.68,4.68,0,0,0,193.3,15.8a2.249,2.249,0,0,0-1.945-.973,2.212,2.212,0,0,0-1.922.967A5.259,5.259,0,0,0,188.75,18.789ZM206.328,21.5a1.091,1.091,0,0,0-.615-.979,6.989,6.989,0,0,0-1.975-.639q-4.523-.949-4.523-3.844a3.484,3.484,0,0,1,1.4-2.818,5.649,5.649,0,0,1,3.662-1.131,6.08,6.08,0,0,1,3.861,1.137,3.582,3.582,0,0,1,1.447,2.953H206.2a1.639,1.639,0,0,0-.469-1.2,1.984,1.984,0,0,0-1.465-.475,2.027,2.027,0,0,0-1.324.387,1.221,1.221,0,0,0-.469.984,1.044,1.044,0,0,0,.533.908,5.485,5.485,0,0,0,1.8.6,14.692,14.692,0,0,1,2.133.568q2.684.984,2.684,3.41a3.307,3.307,0,0,1-1.488,2.807,6.42,6.42,0,0,1-3.844,1.072,6.706,6.706,0,0,1-2.83-.568,4.748,4.748,0,0,1-1.939-1.559,3.621,3.621,0,0,1-.7-2.139h3.211a1.768,1.768,0,0,0,.668,1.383,2.649,2.649,0,0,0,1.664.48,2.452,2.452,0,0,0,1.471-.369A1.149,1.149,0,0,0,206.328,21.5Z" transform="translate(875.83 -4757.206)" fill="#fff"/><path d="M61.492,19.3a6.381,6.381,0,0,1-1.207,3.135,6.562,6.562,0,0,1-2.625,2.1,7.993,7.993,0,0,1-3.492.7,5.9,5.9,0,0,1-2.941-.779A5.165,5.165,0,0,1,49.252,22.3a7.968,7.968,0,0,1-.814-3.252,15.951,15.951,0,0,1,.3-3.586A11.367,11.367,0,0,1,50.1,11.652a8.5,8.5,0,0,1,2.326-2.637A7.018,7.018,0,0,1,56.758,7.7a5.758,5.758,0,0,1,4.2,1.635,6.577,6.577,0,0,1,1.705,4.412l-3.422-.012a3.586,3.586,0,0,0-.645-2.367,2.629,2.629,0,0,0-2-.8,3.478,3.478,0,0,0-2.889,1.254,7.541,7.541,0,0,0-1.518,3.832,21.233,21.233,0,0,0-.328,3.668,3.651,3.651,0,0,0,.691,2.279,2.314,2.314,0,0,0,1.77.768,3.534,3.534,0,0,0,2.514-.744,3.937,3.937,0,0,0,1.248-2.3Zm6.27-5.578A4.419,4.419,0,0,1,71.2,12.086a3.214,3.214,0,0,1,2.771,1.354,5.321,5.321,0,0,1,.662,3.568L73.293,25h-3.3l1.348-8.027a3.886,3.886,0,0,0,.023-.844,1.327,1.327,0,0,0-1.477-1.3,2.855,2.855,0,0,0-2.344,1.148L65.945,25h-3.3L65.758,7h3.316ZM83.207,25a3.421,3.421,0,0,1-.129-1.148,4.294,4.294,0,0,1-3.234,1.383,3.891,3.891,0,0,1-2.76-1.084,3.28,3.28,0,0,1-1.025-2.619A3.791,3.791,0,0,1,77.8,18.35a7.9,7.9,0,0,1,4.447-1.107l1.547.023.164-.762a2.646,2.646,0,0,0,.035-.738,1.269,1.269,0,0,0-.416-.861,1.433,1.433,0,0,0-.943-.322,2.018,2.018,0,0,0-1.312.381,1.846,1.846,0,0,0-.691,1.166l-3.316.012a3.686,3.686,0,0,1,1.67-2.947,6.467,6.467,0,0,1,3.92-1.107,4.675,4.675,0,0,1,3.375,1.283,3.754,3.754,0,0,1,1.02,3.182l-.973,6.07-.059.75a3.618,3.618,0,0,0,.2,1.406L86.453,25Zm-2.543-2.332a3.026,3.026,0,0,0,2.5-1.242l.41-2.191-1.148-.012a3.208,3.208,0,0,0-2.637,1.113,1.938,1.938,0,0,0-.363.949,1.125,1.125,0,0,0,.264,1A1.336,1.336,0,0,0,80.664,22.668ZM95.172,9.2l-.551,3.117H96.73L96.3,14.8H94.188l-1.078,6.352a1.615,1.615,0,0,0,.094.914q.164.316.8.34.188.012,1.008-.059l-.234,2.59a5.558,5.558,0,0,1-1.9.27,2.978,2.978,0,0,1-2.426-1.02,3.684,3.684,0,0,1-.656-2.7l1.09-6.691H89.09l.434-2.484h1.793L91.855,9.2ZM103.8,21.426q.188-.937-1.3-1.359l-1.066-.27q-3.785-1.043-3.68-3.68a3.641,3.641,0,0,1,1.588-2.924,5.913,5.913,0,0,1,3.686-1.107,5.3,5.3,0,0,1,3.469,1.137,3.745,3.745,0,0,1,1.348,2.965l-3.281-.012a1.445,1.445,0,0,0-1.617-1.652,2.327,2.327,0,0,0-1.342.387,1.592,1.592,0,0,0-.7,1.043q-.176.938,1.418,1.324l.469.105a9.428,9.428,0,0,1,2.473.885A3.732,3.732,0,0,1,106.58,19.5a3.06,3.06,0,0,1,.428,1.77,3.377,3.377,0,0,1-.779,2.109,4.77,4.77,0,0,1-2.039,1.395,7.1,7.1,0,0,1-2.725.457,5.353,5.353,0,0,1-3.516-1.213,3.91,3.91,0,0,1-1.43-3.076l3.117.023a1.714,1.714,0,0,0,1.945,1.84,2.768,2.768,0,0,0,1.506-.375A1.481,1.481,0,0,0,103.8,21.426Zm17.25,1.078a2.221,2.221,0,0,0,1.523-.516,1.807,1.807,0,0,0,.609-1.371h3.176a4.344,4.344,0,0,1-.7,2.361,4.64,4.64,0,0,1-1.893,1.664,5.923,5.923,0,0,1-2.654.592,5.5,5.5,0,0,1-4.289-1.729,6.84,6.84,0,0,1-1.57-4.775v-.223a6.762,6.762,0,0,1,1.559-4.676,5.441,5.441,0,0,1,4.277-1.746,5.333,5.333,0,0,1,3.814,1.354,4.792,4.792,0,0,1,1.459,3.6H123.18a2.308,2.308,0,0,0-.609-1.6,2.27,2.27,0,0,0-3.334.246,4.986,4.986,0,0,0-.6,2.795v.352a5.049,5.049,0,0,0,.6,2.813A2.066,2.066,0,0,0,121.047,22.5Zm6.715-3.961a7.52,7.52,0,0,1,.727-3.363,5.319,5.319,0,0,1,2.092-2.285,6.1,6.1,0,0,1,3.17-.809,5.774,5.774,0,0,1,4.189,1.57,6.3,6.3,0,0,1,1.811,4.266l.023.867a6.627,6.627,0,0,1-1.629,4.682,6.313,6.313,0,0,1-8.748.006,6.744,6.744,0,0,1-1.635-4.781Zm3.387.246a4.727,4.727,0,0,0,.68,2.76,2.444,2.444,0,0,0,3.867.012,5.172,5.172,0,0,0,.691-3.018A4.68,4.68,0,0,0,135.7,15.8a2.249,2.249,0,0,0-1.945-.973,2.212,2.212,0,0,0-1.922.967A5.259,5.259,0,0,0,131.148,18.789ZM148.984,15.5a9.2,9.2,0,0,0-1.219-.094,2.481,2.481,0,0,0-2.52,1.3V25h-3.387V12.32h3.2l.094,1.512a3.138,3.138,0,0,1,2.824-1.746,3.549,3.549,0,0,1,1.055.152Zm13.043,3.281a7.6,7.6,0,0,1-1.33,4.693,4.264,4.264,0,0,1-3.592,1.764A3.95,3.95,0,0,1,154,23.9v5.977h-3.387V12.32h3.141l.117,1.242a3.98,3.98,0,0,1,3.211-1.477,4.294,4.294,0,0,1,3.645,1.734,7.811,7.811,0,0,1,1.3,4.781Zm-3.387-.246a4.99,4.99,0,0,0-.627-2.73,2.042,2.042,0,0,0-1.822-.961A2.218,2.218,0,0,0,154,16.059V21.25a2.255,2.255,0,0,0,2.215,1.254Q158.641,22.5,158.641,18.531Zm4.957.012a7.52,7.52,0,0,1,.727-3.363,5.319,5.319,0,0,1,2.092-2.285,6.1,6.1,0,0,1,3.17-.809,5.774,5.774,0,0,1,4.189,1.57,6.3,6.3,0,0,1,1.811,4.266l.023.867a6.627,6.627,0,0,1-1.629,4.682,6.313,6.313,0,0,1-8.748.006A6.744,6.744,0,0,1,163.6,18.7Zm3.387.246a4.727,4.727,0,0,0,.68,2.76,2.444,2.444,0,0,0,3.867.012,5.172,5.172,0,0,0,.691-3.018,4.68,4.68,0,0,0-.691-2.742,2.249,2.249,0,0,0-1.945-.973,2.212,2.212,0,0,0-1.922.967A5.259,5.259,0,0,0,166.984,18.789ZM184.82,15.5A9.2,9.2,0,0,0,183.6,15.4a2.481,2.481,0,0,0-2.52,1.3V25H177.7V12.32h3.2l.094,1.512a3.138,3.138,0,0,1,2.824-1.746,3.549,3.549,0,0,1,1.055.152Zm8.625,9.5a3.761,3.761,0,0,1-.34-1.137,4.1,4.1,0,0,1-3.2,1.371,4.5,4.5,0,0,1-3.088-1.078,3.467,3.467,0,0,1-1.225-2.719,3.583,3.583,0,0,1,1.494-3.094,7.373,7.373,0,0,1,4.318-1.09h1.559v-.727a2.089,2.089,0,0,0-.451-1.406,1.775,1.775,0,0,0-1.424-.527,2.018,2.018,0,0,0-1.342.41,1.393,1.393,0,0,0-.486,1.125h-3.387a3.4,3.4,0,0,1,.68-2.039,4.493,4.493,0,0,1,1.922-1.471,7,7,0,0,1,2.789-.533,5.534,5.534,0,0,1,3.721,1.178,4.12,4.12,0,0,1,1.377,3.311v5.5a6.062,6.062,0,0,0,.5,2.73V25Zm-2.8-2.355a2.917,2.917,0,0,0,1.383-.334,2.194,2.194,0,0,0,.938-.9v-2.18H191.7q-2.543,0-2.707,1.758l-.012.2a1.356,1.356,0,0,0,.445,1.043A1.73,1.73,0,0,0,190.645,22.645ZM203.02,9.2V12.32h2.168V14.8H203.02v6.328a1.511,1.511,0,0,0,.27,1.008,1.354,1.354,0,0,0,1.031.3,5.4,5.4,0,0,0,1-.082V24.93a6.972,6.972,0,0,1-2.051.3q-3.562,0-3.633-3.6V14.8h-1.852V12.32h1.852V9.2ZM210.648,25h-3.4V12.32h3.4Zm-3.6-15.961a1.668,1.668,0,0,1,.51-1.254,2.2,2.2,0,0,1,2.771,0,1.658,1.658,0,0,1,.516,1.254,1.663,1.663,0,0,1-.521,1.266,2.172,2.172,0,0,1-2.754,0A1.663,1.663,0,0,1,207.051,9.039Zm11.133,11.824,2.355-8.543h3.539L219.8,25h-3.234l-4.277-12.68h3.539Zm6.68-2.32a7.52,7.52,0,0,1,.727-3.363,5.319,5.319,0,0,1,2.092-2.285,6.1,6.1,0,0,1,3.17-.809,5.774,5.774,0,0,1,4.189,1.57,6.3,6.3,0,0,1,1.811,4.266l.023.867a6.627,6.627,0,0,1-1.629,4.682,6.313,6.313,0,0,1-8.748.006,6.744,6.744,0,0,1-1.635-4.781Zm3.387.246a4.727,4.727,0,0,0,.68,2.76,2.444,2.444,0,0,0,3.867.012,5.172,5.172,0,0,0,.691-3.018A4.68,4.68,0,0,0,232.8,15.8a2.249,2.249,0,0,0-1.945-.973,2.212,2.212,0,0,0-1.922.967A5.259,5.259,0,0,0,228.25,18.789ZM245.828,21.5a1.091,1.091,0,0,0-.615-.979,6.989,6.989,0,0,0-1.975-.639q-4.523-.949-4.523-3.844a3.484,3.484,0,0,1,1.4-2.818,5.649,5.649,0,0,1,3.662-1.131,6.08,6.08,0,0,1,3.861,1.137,3.582,3.582,0,0,1,1.447,2.953H245.7a1.639,1.639,0,0,0-.469-1.2,1.984,1.984,0,0,0-1.465-.475,2.027,2.027,0,0,0-1.324.387,1.221,1.221,0,0,0-.469.984,1.044,1.044,0,0,0,.533.908,5.485,5.485,0,0,0,1.8.6,14.692,14.692,0,0,1,2.133.568q2.684.984,2.684,3.41a3.307,3.307,0,0,1-1.488,2.807,6.42,6.42,0,0,1-3.844,1.072,6.706,6.706,0,0,1-2.83-.568,4.748,4.748,0,0,1-1.939-1.559,3.621,3.621,0,0,1-.7-2.139h3.211a1.768,1.768,0,0,0,.668,1.383,2.649,2.649,0,0,0,1.664.48,2.452,2.452,0,0,0,1.471-.369A1.149,1.149,0,0,0,245.828,21.5Z" transform="translate(920.385 -4553.206)" fill="#fff"/><path d="M64.469,19.316a6.038,6.038,0,0,1-2.033,4.336A7.141,7.141,0,0,1,57.6,25.234a6.421,6.421,0,0,1-5.162-2.209,9.058,9.058,0,0,1-1.881-6.064V15.918a10.228,10.228,0,0,1,.867-4.336A6.5,6.5,0,0,1,53.9,8.705a7.746,7.746,0,0,1,8.5.58,6.488,6.488,0,0,1,2.086,4.441H60.977a3.563,3.563,0,0,0-.92-2.4,3.407,3.407,0,0,0-2.408-.744,2.987,2.987,0,0,0-2.631,1.26,7.06,7.06,0,0,0-.9,3.908v1.289a7.556,7.556,0,0,0,.838,4.043A2.932,2.932,0,0,0,57.6,22.363a3.471,3.471,0,0,0,2.432-.744,3.361,3.361,0,0,0,.92-2.3Zm1.559-.773a7.52,7.52,0,0,1,.727-3.363,5.319,5.319,0,0,1,2.092-2.285,6.1,6.1,0,0,1,3.17-.809,5.774,5.774,0,0,1,4.189,1.57,6.3,6.3,0,0,1,1.811,4.266l.023.867a6.627,6.627,0,0,1-1.629,4.682,6.313,6.313,0,0,1-8.748.006A6.744,6.744,0,0,1,66.027,18.7Zm3.387.246a4.727,4.727,0,0,0,.68,2.76,2.444,2.444,0,0,0,3.867.012,5.172,5.172,0,0,0,.691-3.018,4.68,4.68,0,0,0-.691-2.742,2.249,2.249,0,0,0-1.945-.973,2.212,2.212,0,0,0-1.922.967A5.259,5.259,0,0,0,69.414,18.789ZM87.25,15.5a9.2,9.2,0,0,0-1.219-.094,2.481,2.481,0,0,0-2.52,1.3V25H80.125V12.32h3.2l.094,1.512a3.138,3.138,0,0,1,2.824-1.746,3.549,3.549,0,0,1,1.055.152ZM96,15.5a9.2,9.2,0,0,0-1.219-.094,2.481,2.481,0,0,0-2.52,1.3V25H88.879V12.32h3.2l.094,1.512A3.138,3.138,0,0,1,95,12.086a3.549,3.549,0,0,1,1.055.152Zm7.465,9.738a6.225,6.225,0,0,1-4.541-1.711,6.082,6.082,0,0,1-1.752-4.559v-.328a7.66,7.66,0,0,1,.738-3.416,5.418,5.418,0,0,1,2.092-2.32,5.871,5.871,0,0,1,3.088-.814,5.262,5.262,0,0,1,4.1,1.641,6.667,6.667,0,0,1,1.494,4.652v1.383h-8.074a3.146,3.146,0,0,0,.99,1.992,2.993,2.993,0,0,0,2.092.75,3.656,3.656,0,0,0,3.059-1.418l1.664,1.863a5.084,5.084,0,0,1-2.062,1.682A6.767,6.767,0,0,1,103.469,25.234Zm-.387-10.406a2.121,2.121,0,0,0-1.635.68,3.511,3.511,0,0,0-.8,1.945h4.711v-.27a2.5,2.5,0,0,0-.609-1.74A2.189,2.189,0,0,0,103.082,14.828Zm7,3.715a7.52,7.52,0,0,1,.727-3.363,5.319,5.319,0,0,1,2.092-2.285,6.1,6.1,0,0,1,3.17-.809,5.774,5.774,0,0,1,4.189,1.57,6.3,6.3,0,0,1,1.811,4.266l.023.867a6.627,6.627,0,0,1-1.629,4.682,6.313,6.313,0,0,1-8.748.006,6.744,6.744,0,0,1-1.635-4.781Zm3.387.246a4.727,4.727,0,0,0,.68,2.76,2.444,2.444,0,0,0,3.867.012,5.172,5.172,0,0,0,.691-3.018,4.68,4.68,0,0,0-.691-2.742,2.249,2.249,0,0,0-1.945-.973,2.212,2.212,0,0,0-1.922.967A5.259,5.259,0,0,0,113.465,18.789Zm22.523,6.445a6.225,6.225,0,0,1-4.541-1.711,6.082,6.082,0,0,1-1.752-4.559v-.328a7.66,7.66,0,0,1,.738-3.416,5.418,5.418,0,0,1,2.092-2.32,5.871,5.871,0,0,1,3.088-.814,5.262,5.262,0,0,1,4.1,1.641,6.667,6.667,0,0,1,1.494,4.652v1.383h-8.074a3.146,3.146,0,0,0,.99,1.992,2.993,2.993,0,0,0,2.092.75,3.656,3.656,0,0,0,3.059-1.418l1.664,1.863a5.084,5.084,0,0,1-2.062,1.682A6.767,6.767,0,0,1,135.988,25.234ZM135.6,14.828a2.121,2.121,0,0,0-1.635.68,3.511,3.511,0,0,0-.8,1.945h4.711v-.27a2.5,2.5,0,0,0-.609-1.74A2.189,2.189,0,0,0,135.6,14.828ZM146.7,25h-3.4V7h3.4Zm8.625.234a6.225,6.225,0,0,1-4.541-1.711,6.082,6.082,0,0,1-1.752-4.559v-.328a7.66,7.66,0,0,1,.738-3.416,5.418,5.418,0,0,1,2.092-2.32,5.871,5.871,0,0,1,3.088-.814,5.262,5.262,0,0,1,4.1,1.641,6.667,6.667,0,0,1,1.494,4.652v1.383h-8.074a3.146,3.146,0,0,0,.99,1.992,2.993,2.993,0,0,0,2.092.75,3.656,3.656,0,0,0,3.059-1.418l1.664,1.863a5.084,5.084,0,0,1-2.062,1.682A6.767,6.767,0,0,1,155.324,25.234Zm-.387-10.406a2.121,2.121,0,0,0-1.635.68,3.511,3.511,0,0,0-.8,1.945h4.711v-.27a2.5,2.5,0,0,0-.609-1.74A2.189,2.189,0,0,0,154.938,14.828Zm12.8,7.676a2.221,2.221,0,0,0,1.523-.516,1.807,1.807,0,0,0,.609-1.371h3.176a4.344,4.344,0,0,1-.7,2.361,4.64,4.64,0,0,1-1.893,1.664,5.923,5.923,0,0,1-2.654.592,5.5,5.5,0,0,1-4.289-1.729,6.84,6.84,0,0,1-1.57-4.775v-.223a6.762,6.762,0,0,1,1.559-4.676,5.441,5.441,0,0,1,4.277-1.746,5.333,5.333,0,0,1,3.814,1.354,4.792,4.792,0,0,1,1.459,3.6h-3.176a2.308,2.308,0,0,0-.609-1.6,2.27,2.27,0,0,0-3.334.246,4.986,4.986,0,0,0-.6,2.795v.352a5.049,5.049,0,0,0,.6,2.813A2.066,2.066,0,0,0,167.734,22.5Zm11.3-13.3V12.32H181.2V14.8h-2.168v6.328a1.511,1.511,0,0,0,.27,1.008,1.354,1.354,0,0,0,1.031.3,5.4,5.4,0,0,0,1-.082V24.93a6.972,6.972,0,0,1-2.051.3q-3.562,0-3.633-3.6V14.8h-1.852V12.32h1.852V9.2Zm11.18,6.293a9.2,9.2,0,0,0-1.219-.094,2.481,2.481,0,0,0-2.52,1.3V25h-3.387V12.32h3.2l.094,1.512a3.138,3.138,0,0,1,2.824-1.746,3.549,3.549,0,0,1,1.055.152Zm1.1,3.047a7.52,7.52,0,0,1,.727-3.363,5.319,5.319,0,0,1,2.092-2.285,6.1,6.1,0,0,1,3.17-.809,5.774,5.774,0,0,1,4.189,1.57,6.3,6.3,0,0,1,1.811,4.266l.023.867a6.627,6.627,0,0,1-1.629,4.682,6.313,6.313,0,0,1-8.748.006,6.744,6.744,0,0,1-1.635-4.781Zm3.387.246a4.727,4.727,0,0,0,.68,2.76,2.444,2.444,0,0,0,3.867.012,5.172,5.172,0,0,0,.691-3.018,4.68,4.68,0,0,0-.691-2.742,2.249,2.249,0,0,0-1.945-.973,2.212,2.212,0,0,0-1.922.967A5.259,5.259,0,0,0,194.7,18.789ZM197.969,7h3.691l-3.246,3.633H195.66Zm10.559,5.32.105,1.465a4.427,4.427,0,0,1,3.645-1.7,3.679,3.679,0,0,1,3,1.184,5.522,5.522,0,0,1,1.008,3.539V25H212.9V16.891a2.2,2.2,0,0,0-.469-1.564,2.1,2.1,0,0,0-1.559-.486,2.33,2.33,0,0,0-2.145,1.219V25H205.34V12.32ZM222.426,25h-3.4V12.32h3.4Zm-3.6-15.961a1.668,1.668,0,0,1,.51-1.254,2.2,2.2,0,0,1,2.771,0,1.658,1.658,0,0,1,.516,1.254A1.663,1.663,0,0,1,222.1,10.3a2.172,2.172,0,0,1-2.754,0A1.663,1.663,0,0,1,218.828,9.039ZM230.488,22.5a2.221,2.221,0,0,0,1.523-.516,1.807,1.807,0,0,0,.609-1.371H235.8a4.344,4.344,0,0,1-.7,2.361,4.64,4.64,0,0,1-1.893,1.664,5.923,5.923,0,0,1-2.654.592,5.5,5.5,0,0,1-4.289-1.729,6.84,6.84,0,0,1-1.57-4.775v-.223a6.762,6.762,0,0,1,1.559-4.676,5.441,5.441,0,0,1,4.277-1.746,5.333,5.333,0,0,1,3.814,1.354,4.792,4.792,0,0,1,1.459,3.6h-3.176a2.308,2.308,0,0,0-.609-1.6,2.27,2.27,0,0,0-3.334.246,4.986,4.986,0,0,0-.6,2.795v.352a5.049,5.049,0,0,0,.6,2.813A2.066,2.066,0,0,0,230.488,22.5Zm6.715-3.961a7.52,7.52,0,0,1,.727-3.363,5.319,5.319,0,0,1,2.092-2.285,6.1,6.1,0,0,1,3.17-.809,5.774,5.774,0,0,1,4.189,1.57,6.3,6.3,0,0,1,1.811,4.266l.023.867a6.627,6.627,0,0,1-1.629,4.682,6.313,6.313,0,0,1-8.748.006A6.744,6.744,0,0,1,237.2,18.7Zm3.387.246a4.727,4.727,0,0,0,.68,2.76,2.444,2.444,0,0,0,3.867.012,5.172,5.172,0,0,0,.691-3.018,4.68,4.68,0,0,0-.691-2.742,2.249,2.249,0,0,0-1.945-.973,2.212,2.212,0,0,0-1.922.967A5.259,5.259,0,0,0,240.59,18.789Z" transform="translate(969.752 -4460.206)" fill="#fff"/><path d="M75.813,7.938,80.2,20.313,84.555,7.938h4.617V25H85.645V20.336L86,12.285,81.391,25H78.977L74.383,12.3l.352,8.039V25H71.219V7.938ZM99.367,25a3.761,3.761,0,0,1-.34-1.137,4.1,4.1,0,0,1-3.2,1.371,4.5,4.5,0,0,1-3.088-1.078,3.467,3.467,0,0,1-1.225-2.719,3.583,3.583,0,0,1,1.494-3.094,7.373,7.373,0,0,1,4.318-1.09h1.559v-.727a2.089,2.089,0,0,0-.451-1.406,1.775,1.775,0,0,0-1.424-.527A2.018,2.018,0,0,0,95.67,15a1.393,1.393,0,0,0-.486,1.125H91.8a3.4,3.4,0,0,1,.68-2.039A4.493,4.493,0,0,1,94.4,12.619a7,7,0,0,1,2.789-.533,5.534,5.534,0,0,1,3.721,1.178,4.12,4.12,0,0,1,1.377,3.311v5.5a6.062,6.062,0,0,0,.5,2.73V25Zm-2.8-2.355a2.917,2.917,0,0,0,1.383-.334,2.194,2.194,0,0,0,.938-.9v-2.18H97.621q-2.543,0-2.707,1.758l-.012.2a1.356,1.356,0,0,0,.445,1.043A1.73,1.73,0,0,0,96.566,22.645ZM108,12.32l.105,1.465a4.427,4.427,0,0,1,3.645-1.7,3.679,3.679,0,0,1,3,1.184,5.522,5.522,0,0,1,1.008,3.539V25h-3.387V16.891a2.2,2.2,0,0,0-.469-1.564,2.1,2.1,0,0,0-1.559-.486,2.33,2.33,0,0,0-2.145,1.219V25h-3.387V12.32Zm17.918,11.391a4.247,4.247,0,0,1-3.469,1.523,4.005,4.005,0,0,1-3.111-1.172,5,5,0,0,1-1.1-3.434V12.32h3.387v8.191q0,1.98,1.8,1.98a2.446,2.446,0,0,0,2.367-1.2V12.32h3.4V25h-3.187ZM139.105,25a3.761,3.761,0,0,1-.34-1.137,4.1,4.1,0,0,1-3.2,1.371,4.5,4.5,0,0,1-3.088-1.078,3.467,3.467,0,0,1-1.225-2.719,3.583,3.583,0,0,1,1.494-3.094,7.373,7.373,0,0,1,4.318-1.09h1.559v-.727a2.089,2.089,0,0,0-.451-1.406,1.775,1.775,0,0,0-1.424-.527,2.018,2.018,0,0,0-1.342.41,1.393,1.393,0,0,0-.486,1.125h-3.387a3.4,3.4,0,0,1,.68-2.039,4.493,4.493,0,0,1,1.922-1.471,7,7,0,0,1,2.789-.533,5.534,5.534,0,0,1,3.721,1.178,4.12,4.12,0,0,1,1.377,3.311v5.5a6.062,6.062,0,0,0,.5,2.73V25Zm-2.8-2.355a2.917,2.917,0,0,0,1.383-.334,2.194,2.194,0,0,0,.938-.9v-2.18h-1.266q-2.543,0-2.707,1.758l-.012.2a1.356,1.356,0,0,0,.445,1.043A1.73,1.73,0,0,0,136.3,22.645ZM148.2,25h-3.4V7h3.4Zm8.625.234a6.225,6.225,0,0,1-4.541-1.711,6.082,6.082,0,0,1-1.752-4.559v-.328a7.66,7.66,0,0,1,.738-3.416,5.418,5.418,0,0,1,2.092-2.32,5.871,5.871,0,0,1,3.088-.814,5.262,5.262,0,0,1,4.1,1.641,6.667,6.667,0,0,1,1.494,4.652v1.383h-8.074a3.146,3.146,0,0,0,.99,1.992,2.993,2.993,0,0,0,2.092.75,3.656,3.656,0,0,0,3.059-1.418l1.664,1.863a5.084,5.084,0,0,1-2.062,1.682A6.767,6.767,0,0,1,156.824,25.234Zm-.387-10.406a2.121,2.121,0,0,0-1.635.68,3.511,3.511,0,0,0-.8,1.945h4.711v-.27a2.5,2.5,0,0,0-.609-1.74A2.189,2.189,0,0,0,156.438,14.828ZM170.828,21.5a1.091,1.091,0,0,0-.615-.979,6.989,6.989,0,0,0-1.975-.639q-4.523-.949-4.523-3.844a3.484,3.484,0,0,1,1.4-2.818,5.649,5.649,0,0,1,3.662-1.131,6.08,6.08,0,0,1,3.861,1.137,3.582,3.582,0,0,1,1.447,2.953H170.7a1.639,1.639,0,0,0-.469-1.2,1.984,1.984,0,0,0-1.465-.475,2.027,2.027,0,0,0-1.324.387,1.221,1.221,0,0,0-.469.984,1.044,1.044,0,0,0,.533.908,5.485,5.485,0,0,0,1.8.6,14.692,14.692,0,0,1,2.133.568q2.684.984,2.684,3.41a3.307,3.307,0,0,1-1.488,2.807,6.42,6.42,0,0,1-3.844,1.072,6.706,6.706,0,0,1-2.83-.568,4.748,4.748,0,0,1-1.939-1.559,3.621,3.621,0,0,1-.7-2.139h3.211a1.768,1.768,0,0,0,.668,1.383,2.649,2.649,0,0,0,1.664.48,2.452,2.452,0,0,0,1.471-.369A1.149,1.149,0,0,0,170.828,21.5Z" transform="translate(945.174 -4659.206)" fill="#fff"/><path d="M121.478,57.856l3.826,2.208a4.952,4.952,0,0,1-.035-.5v-1.11c0-1.975,1.385-2.775,3.1-1.788a6.041,6.041,0,0,1,1.846,1.753c.28-2.483,2.226-3.406,4.592-2.045a10.241,10.241,0,0,1,4.627,8.021v1.659a4.358,4.358,0,0,1-.391,1.922l3.178,1.834a3.8,3.8,0,0,1,1.718,3.026c0,1.092-.771,1.536-1.718.987l-20.739-11.97a3.791,3.791,0,0,1-1.718-2.974C119.76,57.751,120.525,57.307,121.478,57.856Z" transform="translate(937.81 -5057.691)" fill="#1d7e96"/><path d="M72.243,36.645l2.109.812V32.784c0-3.692,2.921-4.574,6.134-2.728h0A12.769,12.769,0,0,1,86.27,40.068v.666a3.108,3.108,0,0,1,2.681.415h0a9.207,9.207,0,0,1,4.159,7.209v.3l2.921,1.7a6.07,6.07,0,0,1,2.74,4.749c0,1.753-1.227,2.454-2.74,1.577L72.22,42.943a6.058,6.058,0,0,1-2.74-4.749C69.5,36.452,70.73,35.745,72.243,36.645Z" transform="translate(1012.346 -5046.621)" fill="#1d7e96"/><path d="M261.731,290.332l-69.915,40.361a7.536,7.536,0,0,1-7.3.134L43.759,249.574a7.123,7.123,0,0,1,0-12.823l69.658-40.2a8.874,8.874,0,0,1,8.027,0l140.287,80.992a7.1,7.1,0,0,1,0,12.794Z" transform="translate(862.74 -5115.84)" fill="#37474f"/><path d="M43.543,358.725l69.915-40.361a7.1,7.1,0,0,0,0-12.794L39.74,263v96.724a7.413,7.413,0,0,0,3.8-1Z" transform="translate(1011.013 -5143.871)" fill="#263238"/><path d="M192.452,323.5a7.869,7.869,0,0,1-7.08,0L46.043,243.06c-3-1.753-3-4.562,0-6.292l69.67-40.221a8.874,8.874,0,0,1,8.027,0l140.287,80.992c2.208,1.279,2.208,3.365,0,4.638Z" transform="translate(860.439 -5115.84)" fill="#455a64"/><path d="M194.94,320.7a8.406,8.406,0,0,1-7.629,0L67.429,251.478c-2.109-1.215-2.109-3.19,0-4.4l65.528-37.832a8.442,8.442,0,0,1,7.629,0L260.48,278.456c2.1,1.215,2.1,3.2,0,4.411Z" transform="translate(851.186 -5121.139)" fill="#37474f"/><path d="M351.387,208.35a7.723,7.723,0,0,0-3.587.9l-65.528,37.832c-2.109,1.215-2.109,3.19,0,4.4l12.981,7.483,56.135-35.846Z" transform="translate(636.344 -5121.147)" fill="#263238"/><path d="M141.008,214.141a8.441,8.441,0,0,0-7.629,0l-65.54,37.832a3.972,3.972,0,0,0-1,.8,3.85,3.85,0,0,0,.952.742l119.893,69.22a8.406,8.406,0,0,0,7.629,0l65.54-37.832a3.9,3.9,0,0,0,.993-.794,3.827,3.827,0,0,0-.946-.748Z" transform="translate(850.812 -5123.176)" fill="#fafafa"/><path d="M340.067,238.4l11.614-6.706c.7-.4.73-1.028.082-1.4a2.693,2.693,0,0,0-2.436.041l-11.6,6.689c-.7.4-.73,1.028-.076,1.408a2.7,2.7,0,0,0,2.413-.029Z" transform="translate(602.5 -5130.156)" fill="#263238"/><path d="M325.859,223.515a.719.719,0,0,0,0-1.361,2.611,2.611,0,0,0-2.337,0,.719.719,0,0,0,0,1.361A2.611,2.611,0,0,0,325.859,223.515Z" transform="translate(636.646 -5126.772)" fill="#263238"/><path d="M317.8,218.835a.719.719,0,0,0,0-1.361,2.611,2.611,0,0,0-2.337,0,.719.719,0,0,0,0,1.361A2.611,2.611,0,0,0,317.8,218.835Z" transform="translate(649.415 -5124.826)" fill="#263238"/><path d="M382.279,256.085a.719.719,0,0,0,0-1.361,2.611,2.611,0,0,0-2.337,0,.719.719,0,0,0,0,1.361,2.611,2.611,0,0,0,2.337,0Z" transform="translate(547.266 -5140.315)" fill="#263238"/><path d="M374.219,251.425a.719.719,0,0,0,0-1.361,2.611,2.611,0,0,0-2.337,0,.719.719,0,0,0,0,1.361,2.611,2.611,0,0,0,2.337,0Z" transform="translate(560.035 -5138.377)" fill="#263238"/><path d="M214.487,357.417v.24a1.4,1.4,0,0,1-.631,1.1l-13.641,7.875a1.437,1.437,0,0,1-1.274,0l-22.59-13.027a1.414,1.414,0,0,1-.631-1.1v-.251a1.4,1.4,0,0,1,.631-1.1l13.641-7.875a1.437,1.437,0,0,1,1.274,0l22.59,13.039A1.4,1.4,0,0,1,214.487,357.417Z" transform="translate(834.566 -5177.188)" fill="#78aad2"/><path d="M214.487,357.417v.24a1.4,1.4,0,0,1-.631,1.1l-13.641,7.875a1.437,1.437,0,0,1-1.274,0l-22.59-13.027a1.414,1.414,0,0,1-.631-1.1v-.251a1.4,1.4,0,0,1,.631-1.1l13.641-7.875a1.437,1.437,0,0,1,1.274,0l22.59,13.039A1.4,1.4,0,0,1,214.487,357.417Z" transform="translate(834.566 -5177.188)" fill="#78aad2"/><path d="M201.881,351.149l13.641-7.875a1.437,1.437,0,0,1,1.274,0l8.307,4.8V366.77h0a1.332,1.332,0,0,1-.637-.152l-22.585-13.01a1.414,1.414,0,0,1-.631-1.1v-.251A1.4,1.4,0,0,1,201.881,351.149Z" transform="translate(809.036 -5177.188)" fill="#fff" opacity="0.3"/><path d="M201.881,351.149l13.641-7.875a1.437,1.437,0,0,1,1.274,0l8.307,4.8V366.77h0a1.332,1.332,0,0,1-.637-.152l-22.585-13.01a1.414,1.414,0,0,1-.631-1.1v-.251A1.4,1.4,0,0,1,201.881,351.149Z" transform="translate(809.036 -5177.188)" opacity="0.15"/><path d="M175.72,351.6,190,359.837a1.4,1.4,0,0,1,.631,1.1v.24a1.4,1.4,0,0,1-.631,1.1l-13.641,7.875a1.314,1.314,0,0,1-.637.152h0Z" transform="translate(858.424 -5180.712)" fill="#fff" opacity="0.3"/><path d="M175.72,351.6,190,359.837a1.4,1.4,0,0,1,.631,1.1v.24a1.4,1.4,0,0,1-.631,1.1l-13.641,7.875a1.314,1.314,0,0,1-.637.152h0Z" transform="translate(858.424 -5180.712)" opacity="0.2"/><path d="M202.665,363.679l11.456-6.59a.391.391,0,0,0,0-.736l-22.585-13.039a1.437,1.437,0,0,0-1.274,0l-13.647,7.852a.391.391,0,0,0,0,.736l3.75,2.161,1.309.759L199.2,364.941a1.4,1.4,0,0,0,1.274,0l1.11-.643Z" transform="translate(834.301 -5177.205)" fill="#78aad2"/><path d="M202.665,363.679l11.456-6.59a.391.391,0,0,0,0-.736l-22.585-13.039a1.437,1.437,0,0,0-1.274,0l-13.647,7.852a.391.391,0,0,0,0,.736l3.75,2.161,1.309.759L199.2,364.941a1.4,1.4,0,0,0,1.274,0l1.11-.643Z" transform="translate(834.301 -5177.205)" fill="#fff" opacity="0.3"/><path d="M192.02,352.666l-15.65-1.525,15.5.876-1.864-8.763a1.414,1.414,0,0,1,.7-.146l2.921,11.83,20.5,1.694a.438.438,0,0,1-.257.4l-16.556-.958,2.278,8.985-2.921-9.026h0l-2.827-.164a1.5,1.5,0,0,1-.929-.391h0a1.548,1.548,0,0,1-.473-.818Z" transform="translate(834.547 -5177.181)" opacity="0.15"/><path d="M194.925,356.251l-15.609-1.291-.584-2.232-.31-1.244-2.062-8.354a1.349,1.349,0,0,1,.584.146l11.292,6.52,11.322,6.52a.467.467,0,0,1,.257.339l-3.131-.257Z" transform="translate(848.864 -5177.19)" fill="#fff" opacity="0.3"/><path d="M216.533,339.75a5.707,5.707,0,0,0-5.164,0c-1.425.824-1.425,2.156,0,2.979a5.707,5.707,0,0,0,5.164,0C217.959,341.906,217.959,340.574,216.533,339.75Z" transform="translate(811.249 -5175.528)" fill="#f28f8f"/><path d="M216.959,342.478a.245.245,0,0,0,.105-.035.082.082,0,0,0,.029-.076l-.216-.935v-.088a.146.146,0,0,0-.076-.082l-.526-.3a.222.222,0,0,0-.111-.029.227.227,0,0,0-.117.029l-2.769,1.595a.07.07,0,0,0,0,.134l.584.327a.246.246,0,0,0,.117,0,.234.234,0,0,0,.117,0l1.869-1.081.123.514c0,.029.029.047.064.064a.211.211,0,0,0,.123,0Z" transform="translate(810.047 -5176.275)" fill="#fafafa"/><path d="M287.505,320.751l15.341-8.856c.35-.2.35-.532,0-.73l-55.685-32.13a1.408,1.408,0,0,0-1.262,0L230.553,287.9c-.35.2-.35.526,0,.73l55.685,32.13A1.384,1.384,0,0,0,287.505,320.751Z" transform="translate(714.065 -5150.476)" fill="#78aad2"/><path d="M243.461,331.948a.3.3,0,0,0,.158.041h.123l3.19-.362-1.887,1.092a.076.076,0,0,0,0,.14l.374.216a.2.2,0,0,0,.123,0,.211.211,0,0,0,.123,0l2.962-1.706c.035,0,.053-.047.053-.076a.088.088,0,0,0-.053-.07l-.321-.187a.316.316,0,0,0-.158-.041h-.129l-3.19.362,1.893-1.092a.076.076,0,0,0,0-.14l-.374-.216a.268.268,0,0,0-.123-.029.24.24,0,0,0-.123.029l-2.962,1.712a.07.07,0,1,0,0,.14Z" transform="translate(761.029 -5171.681)" fill="#fafafa"/><path d="M253.582,330.085a1.548,1.548,0,0,0,.4-.321.666.666,0,0,0,.169-.356.584.584,0,0,0-.093-.362.97.97,0,0,0-.368-.321,2,2,0,0,0-.555-.216,2.728,2.728,0,0,0-.613-.058,2.921,2.921,0,0,0-.584.082,2.114,2.114,0,0,0-.526.216l-.2.117a.076.076,0,0,0,0,.14l1.531.888a.738.738,0,0,1-.234.082,1.168,1.168,0,0,1-.251,0,1.921,1.921,0,0,1-.251-.053,1.108,1.108,0,0,1-.222-.1.887.887,0,0,1-.21-.152.292.292,0,0,1-.076-.134.187.187,0,0,0-.035-.076.257.257,0,0,0-.07-.058l-.368-.21a.268.268,0,0,0-.123-.029.193.193,0,0,0-.123.029.216.216,0,0,0-.094.134.38.38,0,0,0,0,.228.73.73,0,0,0,.164.286,1.437,1.437,0,0,0,.38.3,2.284,2.284,0,0,0,.555.216,2.664,2.664,0,0,0,.613.058,2.746,2.746,0,0,0,.584-.1A2.693,2.693,0,0,0,253.582,330.085Zm-.438-1.046a.666.666,0,0,1,.187.152.292.292,0,0,1,.058.152.228.228,0,0,1-.041.134.3.3,0,0,1-.1.111L252.215,329a1.224,1.224,0,0,1,.175-.064.884.884,0,0,1,.222-.035,1.276,1.276,0,0,1,.251.029,1.364,1.364,0,0,1,.28.105Z" transform="translate(751.113 -5171.086)" fill="#fafafa"/><path d="M255.15,325.557l.894-1a.14.14,0,0,0,.035-.064.082.082,0,0,0-.053-.07l-.345-.2a.28.28,0,0,0-.129-.029.269.269,0,0,0-.123.029h0l-1.425,1.618a.2.2,0,0,0-.035.07.094.094,0,0,0,.053.076l.351.2a.21.21,0,0,0,.129.029h.123l1.665-.45-.777.964a.2.2,0,0,0-.035.07.082.082,0,0,0,.053.07l.345.2a.216.216,0,0,0,.128.029.416.416,0,0,0,.123,0l2.8-.818h.035a.07.07,0,0,0,0-.14l-.345-.2a.216.216,0,0,0-.129-.029h-.111l-1.723.514.87-1.011a.082.082,0,0,0,0-.064.07.07,0,0,0-.047-.07l-.351-.2a.257.257,0,0,0-.123,0,.351.351,0,0,0-.117,0Z" transform="translate(744.305 -5169.315)" fill="#fafafa"/><path d="M266.092,322.832a1.56,1.56,0,0,0,.4-.327.649.649,0,0,0,.169-.356.5.5,0,0,0-.088-.356,1.081,1.081,0,0,0-.368-.327,2.109,2.109,0,0,0-.584-.216,3.06,3.06,0,0,0-.584-.058,2.629,2.629,0,0,0-.584.088,1.9,1.9,0,0,0-.526.21l-.2.117q-.053.035-.053.07c0,.029,0,.053.053.076l1.531.882a.626.626,0,0,1-.228.082,1.208,1.208,0,0,1-.251,0,1.006,1.006,0,0,1-.257-.053.851.851,0,0,1-.222-.1.748.748,0,0,1-.21-.152.333.333,0,0,1-.076-.129.222.222,0,0,0-.029-.082.169.169,0,0,0-.076-.053l-.368-.216a.275.275,0,0,0-.245,0,.28.28,0,0,0-.094.14.379.379,0,0,0,0,.228.981.981,0,0,0,.164.286,1.472,1.472,0,0,0,.386.3,2,2,0,0,0,.555.216,2.339,2.339,0,0,0,.584.058,2.488,2.488,0,0,0,.619-.1A2.372,2.372,0,0,0,266.092,322.832Zm-.438-1.046a.514.514,0,0,1,.187.152.239.239,0,0,1,.058.152.222.222,0,0,1-.035.134.585.585,0,0,1-.1.105l-1.04-.584a1.081,1.081,0,0,1,.181-.064.841.841,0,0,1,.216-.029.76.76,0,0,1,.251.029.818.818,0,0,1,.28.123Z" transform="translate(731.29 -5168.067)" fill="#fafafa"/><path d="M272.111,318.631a.391.391,0,0,0-.064-.275.683.683,0,0,0-.251-.228,1.642,1.642,0,0,0-.584-.21,2.05,2.05,0,0,0-.584,0,.449.449,0,0,0,0-.175.519.519,0,0,0-.064-.181.661.661,0,0,0-.129-.164,1.122,1.122,0,0,0-.181-.134,1.671,1.671,0,0,0-.52-.2,1.916,1.916,0,0,0-.514-.029,2.037,2.037,0,0,0-.5.111,2.879,2.879,0,0,0-.45.21l-1.238.713a.082.082,0,0,0,0,.146l.35.2a.268.268,0,0,0,.123.029.281.281,0,0,0,.129-.029l1.209-.7a1.232,1.232,0,0,1,.555-.181.906.906,0,0,1,.456.123.321.321,0,0,1,.193.251c0,.093-.082.2-.275.321l-1.233.713a.07.07,0,1,0,0,.14l.351.2a.24.24,0,0,0,.123.029.269.269,0,0,0,.123-.029l1.209-.7a1.122,1.122,0,0,1,.555-.181.789.789,0,0,1,.456.123.321.321,0,0,1,.2.257c0,.1-.093.21-.3.327l-1.209.7a.1.1,0,0,0-.047.076.087.087,0,0,0,.047.07l.351.2a.274.274,0,0,0,.245,0l2.138-1.233a.07.07,0,1,0,0-.14l-.351-.2a.239.239,0,0,0-.123-.029.269.269,0,0,0-.123.029Z" transform="translate(722.886 -5166.338)" fill="#fafafa"/><path d="M278.564,315.676a.5.5,0,0,0,.123-.169.374.374,0,0,0,0-.228.584.584,0,0,0-.134-.263,1.2,1.2,0,0,0-.351-.275,2.535,2.535,0,0,0-.485-.21,2.437,2.437,0,0,0-.5-.082,1.681,1.681,0,0,0-.508.058,1.95,1.95,0,0,0-.491.193l-1.349.777a.1.1,0,0,0-.047.076.082.082,0,0,0,.047.07l.351.2a.21.21,0,0,0,.123.029.193.193,0,0,0,.123-.029l.152-.088a.391.391,0,0,0,.053.292.935.935,0,0,0,.368.321,1.752,1.752,0,0,0,.4.175,1.7,1.7,0,0,0,.409.064,2.123,2.123,0,0,0,.391-.035,1.286,1.286,0,0,0,.345-.134c.21-.123.3-.263.269-.415a.888.888,0,0,0-.356-.491l-.619-.5a.584.584,0,0,1,.391-.082,1.04,1.04,0,0,1,.386.128.474.474,0,0,1,.146.123.327.327,0,0,1,.035.123.293.293,0,0,0,0,.076.18.18,0,0,0,.064.047l.426.251a.2.2,0,0,0,.105,0A.117.117,0,0,0,278.564,315.676Zm-2.056.3a.906.906,0,0,1-.234-.187.345.345,0,0,1-.088-.187.263.263,0,0,1,.041-.164.409.409,0,0,1,.146-.134l.047-.029.514.426a.456.456,0,0,1,.175.21.134.134,0,0,1-.082.146.357.357,0,0,1-.24,0A.956.956,0,0,1,276.508,315.98Z" transform="translate(712.455 -5165.264)" fill="#fafafa"/><path d="M280.413,311.979a.274.274,0,0,0-.245,0l-.356.2a.088.088,0,0,0-.053.07c0,.029,0,.053.053.076l.391.228a.269.269,0,0,0,.123.029.281.281,0,0,0,.128-.029l.356-.21a.076.076,0,0,0,0-.14Zm-3.231,1.753c-.035,0-.053.047-.053.076s0,.047.053.07l.351.2a.251.251,0,0,0,.123.029.21.21,0,0,0,.123-.029l2.138-1.233a.082.082,0,0,0,.047-.07.07.07,0,0,0-.047-.07l-.351-.2a.269.269,0,0,0-.123-.029.24.24,0,0,0-.123.029Z" transform="translate(708.953 -5164.226)" fill="#fafafa"/><path d="M279.317,312.556a.076.076,0,0,0,0,.14l.345.2a.268.268,0,0,0,.123.029.28.28,0,0,0,.128-.029l3.009-1.753a.1.1,0,0,0,.047-.076.088.088,0,0,0-.047-.07l-.35-.2a.211.211,0,0,0-.123,0,.223.223,0,0,0-.129,0Z" transform="translate(705.592 -5163.745)" fill="#fafafa"/><path d="M301.11,318.773l-45.438-26.23a2.027,2.027,0,0,0-1.823-.111c-.45.257-.362.73.193,1.052L299.48,319.72a2.045,2.045,0,0,0,1.828.111C301.758,319.568,301.665,319.1,301.11,318.773Z" transform="translate(701.985 -5156.041)" fill="#fafafa"/><path d="M306.577,321.932,261.138,295.7a2.033,2.033,0,0,0-1.823-.117c-.456.263-.362.73.193,1.057l45.438,26.23a2.045,2.045,0,0,0,1.829.117C307.219,322.726,307.132,322.253,306.577,321.932Z" transform="translate(693.328 -5157.353)" fill="#fafafa"/><path d="M210.543,316.5l23.73-13.7-106.3-61.375L103.76,254.855Z" transform="translate(856.818 -5134.902)" fill="#e0e0e0"/><path d="M240.436,182.182l-101.1-58.372-4.043,2.337a4.23,4.23,0,0,0-1.9,3.295v74.577a4.218,4.218,0,0,0,1.9,3.295l97.29,56.175a4.23,4.23,0,0,0,3.8,0l2.144-1.238a4.23,4.23,0,0,0,1.9-3.295Z" transform="translate(833.345 -5085.994)" fill="#78aad2"/><path d="M240.436,182.182l-101.1-58.372-4.043,2.337a4.23,4.23,0,0,0-1.9,3.295v74.577a4.218,4.218,0,0,0,1.9,3.295l97.29,56.175a4.23,4.23,0,0,0,3.8,0l2.144-1.238a4.23,4.23,0,0,0,1.9-3.295Z" transform="translate(833.345 -5085.994)" opacity="0.2"/><path d="M133.951,99.8l-.415-.222,1.571-.917h0a3.03,3.03,0,0,1,.415-.2l44.492-16.48a3.073,3.073,0,0,1,3.417,1.087L233.2,155.743a8.623,8.623,0,0,1,1.285,4.148v4.831l-1.542.894L133.39,106.35v-4.825A3.248,3.248,0,0,1,133.951,99.8Z" transform="translate(839.292 -5068.534)" fill="#78aad2"/><path d="M134,83.925a2.7,2.7,0,0,1,.514.549l49.773,72.679a7.594,7.594,0,0,1,.923,2.08l1.548-.894a9.049,9.049,0,0,0-.4-1.1.244.244,0,0,0,0-.035c-.07-.152-.14-.292-.216-.438a.392.392,0,0,0-.035-.07,4.341,4.341,0,0,0-.263-.438L136.056,83.609a2.53,2.53,0,0,0-.245-.3c-.088-.082-.175-.169-.269-.245Z" transform="translate(886.667 -5069.049)" opacity="0.1"/><path d="M221.67,99.555a2.383,2.383,0,0,1,.426-.2l44.5-16.492a3.055,3.055,0,0,1,2.921.543l1.519-.9a3.084,3.084,0,0,0-2.921-.543L223.639,98.451a2.484,2.484,0,0,0-.415.2Z" transform="translate(751.175 -5068.527)" fill="#fff" opacity="0.35"/><path d="M135.4,208.8a3.947,3.947,0,0,0-.263-.438,3.95,3.95,0,0,1,.263.438Z" transform="translate(937.356 -5121.151)" fill="#78aad2"/><path d="M221.483,83.255a2.613,2.613,0,0,0-.263-.245A2.613,2.613,0,0,1,221.483,83.255Z" transform="translate(800.989 -5069.029)" fill="#78aad2"/><path d="M134.409,211.134a9.538,9.538,0,0,0-.409-1.1,9.539,9.539,0,0,1,.409,1.1Z" transform="translate(939.016 -5121.845)" fill="#78aad2"/><path d="M134.92,209.688c-.064-.152-.14-.3-.21-.438C134.751,209.379,134.856,209.525,134.92,209.688Z" transform="translate(938.09 -5121.521)" fill="#78aad2"/><path d="M134.69,209.973v0Z" transform="translate(938.332 -5121.806)" opacity="0.2"/><path d="M133.99,211.92Z" transform="translate(939.441 -5122.631)" opacity="0.2"/><path d="M221.67,83.01Z" transform="translate(800.539 -5069.029)" opacity="0.2"/><path d="M135.111,209.18a.439.439,0,0,0-.041-.07.44.44,0,0,1,.041.07Z" transform="translate(937.689 -5121.463)" opacity="0.2"/><path d="M221.041,83.728a2,2,0,0,0-.251-.3A2,2,0,0,1,221.041,83.728Z" transform="translate(801.682 -5069.204)" opacity="0.2"/><path d="M186.024,84.6,235.8,157.275a8.664,8.664,0,0,1,1.3,4.154v4.825L136,107.882v-4.825A3.505,3.505,0,0,1,138.132,100L182.606,83.51A3.055,3.055,0,0,1,186.024,84.6Z" transform="translate(835.157 -5069.172)" fill="#78aad2"/><path d="M136,115.87a3.266,3.266,0,0,1,.543-1.7l100.194,58h0a7.513,7.513,0,0,1,.38,2.074v4.825L136.018,120.7Z" transform="translate(835.14 -5081.985)" opacity="0.05"/><path d="M148.786,79.925a1.168,1.168,0,0,1,.473-1.057l3.09-1.753a1.168,1.168,0,0,1,1.168.117l82.955,47.9a3.634,3.634,0,0,1,1.642,2.845v99.312a1.168,1.168,0,0,1-.479,1.063l-3.079,1.753a1.168,1.168,0,0,1-1.168-.111l-82.954-47.874a3.639,3.639,0,0,1-1.647-2.886Z" transform="translate(826.671 -5066.534)" fill="#78aad2"/><path d="M148.786,79.925a1.168,1.168,0,0,1,.473-1.057l3.09-1.753a1.168,1.168,0,0,1,1.168.117l82.955,47.9a3.634,3.634,0,0,1,1.642,2.845v99.312a1.168,1.168,0,0,1-.479,1.063l-3.079,1.753a1.168,1.168,0,0,1-1.168-.111l-82.954-47.874a3.639,3.639,0,0,1-1.647-2.886Z" transform="translate(826.671 -5066.534)" fill="#fff" opacity="0.95"/><path d="M238.7,231.2,155.742,183.33a3.639,3.639,0,0,1-1.612-2.851V81.168c0-1.046.736-1.466,1.642-.946l82.925,47.9a3.639,3.639,0,0,1,1.642,2.845v99.312C240.338,231.3,239.6,231.725,238.7,231.2Z" transform="translate(821.327 -5067.776)" fill="#78aad2"/><path d="M238.7,231.2,155.742,183.33a3.639,3.639,0,0,1-1.612-2.851V81.168c0-1.046.736-1.466,1.642-.946l82.925,47.9a3.639,3.639,0,0,1,1.642,2.845v99.312C240.338,231.3,239.6,231.725,238.7,231.2Z" transform="translate(821.327 -5067.776)" fill="#fff" opacity="0.8"/><path d="M149.333,264.1a1.233,1.233,0,0,1-.386,1c.555-.315,2.7-1.566,2.979-1.717a1.133,1.133,0,0,0,.485-1.057V163.022a3.283,3.283,0,0,0-.485-1.612l-3.079,1.753a3.342,3.342,0,0,1,.485,1.624Z" transform="translate(912.332 -5101.628)" fill="#78aad2"/><path d="M149.333,264.1a1.233,1.233,0,0,1-.386,1c.555-.315,2.7-1.566,2.979-1.717a1.133,1.133,0,0,0,.485-1.057V163.022a3.283,3.283,0,0,0-.485-1.612l-3.079,1.753a3.342,3.342,0,0,1,.485,1.624Z" transform="translate(912.332 -5101.628)" fill="#fff" opacity="0.7"/><path d="M149.333,264.1a1.233,1.233,0,0,1-.386,1c.555-.315,2.7-1.566,2.979-1.717a1.133,1.133,0,0,0,.485-1.057V163.022a3.283,3.283,0,0,0-.485-1.612l-3.079,1.753a3.342,3.342,0,0,1,.485,1.624Z" transform="translate(912.332 -5101.628)" opacity="0.05"/><path d="M243.34,207.5c.362,9.242-.257,29.04-.257,29.04s-9.8,2.956-16.451,1.858-20.9-11.193-20.9-11.193l2.372-21.422Z" transform="translate(788.065 -5120.078)" fill="#37474f"/><path d="M251.731,240.785l-1.589-15.1a20.211,20.211,0,0,1-8.272-8.874c5.678,7.437,11.6,6.233,11.6,6.233v18.53C252.905,241.34,252.321,241.071,251.731,240.785Z" transform="translate(756.937 -5124.665)" fill="#263238"/><path d="M206.4,146.157c-1.589-8.044-2.308-18.729,4.673-20.692,1.823-.508,6.461-.152,6.461-.152l7.542.374c4.2.532,10.089,1.367,11.631,1.753,4.054,1,5.258,7.594,7.075,22.281,1.133,9.183,2.1,16.357,2.1,25.3-7.408,6.642-30.57,4.025-35.84-.3C209.865,164.583,209.28,160.826,206.4,146.157Z" transform="translate(785.864 -5086.569)" fill="#8dd52c"/><path d="M242.15,120.589c.07,1.466-1.618,3.943-4.206,5.684s-4.814,2.448-5.094,3.172c1.227.228,2.337.835,3.248,2.921.87,2.01.865,2.074,3.85,0s5.655-6.841,5.643-8.43-2.337-4.674-3.505-4.4Z" transform="translate(770.087 -5084.21)" fill="#37474f"/><path d="M259.744,130.7a10.272,10.272,0,0,1-1.811-4.393l-.38-3.768a2.01,2.01,0,0,0-1.034.672c-.321.491-1.91,3.774-1.858,5.6a14.016,14.016,0,0,0,1.1,5.357c.619,1.046,1.034-.794,1.443-1.513A3.119,3.119,0,0,1,259.744,130.7Z" transform="translate(743.193 -5085.466)" fill="#37474f"/><path d="M254,140.11a71.108,71.108,0,0,0,.467,10.141,10.714,10.714,0,0,1-3.943-.105s1.011,1.244,4.714.672A106.844,106.844,0,0,1,254,140.11Z" transform="translate(750.121 -5092.772)" fill="#37474f"/><path d="M229.04,80.514a10.515,10.515,0,0,1,20.966-.795l4.773-3.394a3.727,3.727,0,0,1,3.073,1.127c1.309,1.379.5,5.614-1.209,9.75,0,0-1.723,7.542-2.389,8.763a3.429,3.429,0,0,1-2,1.566l.164-4.592-19.085-1.373,1.887-1.344A10.515,10.515,0,0,1,229.04,80.514Z" transform="translate(759.403 -5063.752)" fill="#263238"/><path d="M248.516,88.306c.584.368,1.168-.905,2.249-1.56.935-.584,3.032-1.536,4.411.783,1.49,2.494-1.215,5.941-3.108,6.654-2.8,1.052-3.8-1.168-3.8-1.168l.584,11.684c-3.838,6.975-15.142,6.555-11.292.713l-.462-4.5a21.231,21.231,0,0,1-4.487.164c-2.436-.415-3.949-2.337-4.673-5.024-1.128-4.27-1.531-7.711-.4-16.053,1.244-9.148,11.906-9.084,17.607-5.38S248.516,88.306,248.516,88.306Z" transform="translate(763.569 -5064.563)" fill="#ffa8a7"/><path d="M230.364,67.282a3.937,3.937,0,0,1,2.576-.3,3.12,3.12,0,0,1,1.869-3.137,3.61,3.61,0,0,1,3.949.532,1.859,1.859,0,0,1,1.531-2.086,5.036,5.036,0,0,1,2.81.467c1.338.508,2.658,1.081,4.019,1.536,2.4.8,4.954,1.256,7.121,2.559a4.3,4.3,0,0,1,1.355,1.168,3.733,3.733,0,0,1,.584,2.378,4.761,4.761,0,0,1-.117.818,2.149,2.149,0,0,1,.584-.444,2.021,2.021,0,0,1,2.769.964l-3.61,1.869c.088.73.181,1.46.251,2.191.2,1.922.584,4.171.134,6.087a1.4,1.4,0,0,1-.234.643,11.415,11.415,0,0,0-1.881,1.829c-.28.339-.619.888-1.069,1.022a1.087,1.087,0,0,1-1.25-.584,1.992,1.992,0,0,1-.041-.853l.351-3.564a2.039,2.039,0,0,0-.058-.941,2.693,2.693,0,0,0-.87-.929,4.089,4.089,0,0,1-1.42-2.851,4.247,4.247,0,0,0-.093-1.022c-.076-.251-.275-.643-.584-.643-.555,0-3.581.654-4.341.759-3.961.543-8.214.648-11.684-1.3-1.361-.754-3.651-2.337-3.891-4.008a2.243,2.243,0,0,1,1.238-2.167Z" transform="translate(758.441 -5060.399)" fill="#263238"/><path d="M241.31,118.02s5.474-1.022,7.4-2.01a6.251,6.251,0,0,0,2.676-2.57,8.535,8.535,0,0,1-1.542,3.055c-1.42,1.753-8.383,2.974-8.383,2.974Z" transform="translate(759.354 -5081.682)" fill="#f28f8f"/><path d="M254.63,97.252a1.028,1.028,0,1,0,1.04-1.052,1.04,1.04,0,0,0-1.04,1.052Z" transform="translate(746.268 -5074.513)" fill="#263238"/><path d="M250.405,90.926l2.407,1.168a1.408,1.408,0,0,0-.643-1.834,1.309,1.309,0,0,0-1.764.666Z" transform="translate(752.485 -5071.991)" fill="#263238"/><path d="M258.908,109l-4.341,1.554a2.272,2.272,0,0,0,2.921,1.478,2.413,2.413,0,0,0,1.42-3.032Z" transform="translate(743.953 -5079.836)" fill="#b16668"/><path d="M254.66,112.89a2.267,2.267,0,0,1,2.535-1.934,2.175,2.175,0,0,1,.28.064,2.372,2.372,0,0,1-1.5,1.817,2.2,2.2,0,0,1-1.314.053Z" transform="translate(745.461 -5080.642)" fill="#f28f8f"/><path d="M270.372,91.485l2.337-1.209a1.268,1.268,0,0,0-1.753-.549A1.332,1.332,0,0,0,270.372,91.485Z" transform="translate(721.127 -5071.755)" fill="#263238"/><path d="M268.708,96.97a1.04,1.04,0,0,0,1,1.075,1.052,1.052,0,0,0,1.046-1.052,1.028,1.028,0,1,0-2.051,0Z" transform="translate(723.971 -5074.383)" fill="#263238"/><path d="M267.383,96.65l-.2,6.631-3.908-.911Z" transform="translate(730.524 -5074.701)" fill="#f28f8f"/><path d="M142.21,252.287a.789.789,0,0,0,.105.152l42.132-13.36a7.261,7.261,0,0,1,9.1,2.8l45.041,66.942,1.665.964h0a1.344,1.344,0,0,0,1.285.14l-46.32-69a7.279,7.279,0,0,0-9.107-2.81Z" transform="translate(827.089 -5133.269)" fill="#78aad2"/><path d="M142.3,255.556l-.105-.093,41,60.463,1.671.964h0a1.379,1.379,0,0,0,1.291.146L143.907,254.58Z" transform="translate(882.49 -5140.37)" fill="#fff" opacity="0.4"/><path d="M221.5,252.292a1.022,1.022,0,0,0,.105.152l42.132-13.366a7.256,7.256,0,0,1,9.107,2.8l1.665-.97a7.273,7.273,0,0,0-9.1-2.792Z" transform="translate(747.799 -5133.268)" fill="#fff" opacity="0.4"/><path d="M145.31,129.6h0c.093-.543.38-.7.754-.438a2.226,2.226,0,0,1,.485.5l.21.292,41.577,63.209,6.2,8.646a3.54,3.54,0,0,0,3.423,1.279l5.357-1.274,40.893-15.055a2.15,2.15,0,0,1,.835-.035,1.912,1.912,0,0,1,.31.1l-1.542-.888L204.6,200.309l-5.164,1.846a3.505,3.505,0,0,1-3.418-1.285l-6.21-8.64-41.775-63.5a1.753,1.753,0,0,0-.473-.432l3.616-2.086-1.519-.87-2.5,1.443A4.358,4.358,0,0,0,145.31,129.6Z" transform="translate(821.46 -5086.63)" fill="#78aad2"/><path d="M217.26,240.835l6.21,8.652a3.54,3.54,0,0,0,3.418,1.279l5.357-1.274-.105-.093-.257-.409-3.505.835a3.505,3.505,0,0,1-3.417-1.279L218.808,240Z" transform="translate(792.541 -5134.307)" fill="#fff" opacity="0.4"/><path d="M242.1,126.777l2.5-1.437,1.513.87L242.5,128.3h0a1.753,1.753,0,0,1,.473.432l41.781,63.5.058.082h0l-1.548.841-41.571-63.2-.216-.3a1.962,1.962,0,0,0-.485-.5c-.368-.257-.66-.111-.748.438h0A4.329,4.329,0,0,1,242.1,126.777Z" transform="translate(726.537 -5086.63)" opacity="0.1"/><path d="M133.39,228.883l8.921-5.153V300.5a4.23,4.23,0,0,1-1.9,3.295l-2.144,1.238a4.23,4.23,0,0,1-3.8,0l-1.069-.619Z" transform="translate(931.471 -5127.542)" fill="#78aad2"/><path d="M133.39,228.883l8.921-5.153V300.5a4.23,4.23,0,0,1-1.9,3.295l-2.144,1.238a4.23,4.23,0,0,1-3.8,0l-1.069-.619Z" transform="translate(931.471 -5127.542)" opacity="0.15"/><path d="M143.6,132.707v74.577a3.862,3.862,0,0,0,.584,1.922,4.165,4.165,0,0,0,1.116,1.256l.076.035.117.082,97.3,56.17h0a1.361,1.361,0,0,0,1.3.152,1.168,1.168,0,0,0,.584-.911,2.1,2.1,0,0,0,0-.339V191.073a1.653,1.653,0,0,0-2.138-1.682l-40.893,15.055-5.357,1.274a3.54,3.54,0,0,1-3.423-1.279l-6.2-8.646-41.577-63.209-.21-.292C144.171,131.31,143.6,131.5,143.6,132.707Z" transform="translate(823.137 -5089.259)" fill="#78aad2"/><path d="M244.8,256.226a1.014,1.014,0,0,1-.123-.076l-.07-.047a4.089,4.089,0,0,1-1.116-1.244,3.914,3.914,0,0,1-.584-1.893l43.06-11.526-28.835,21.9Z" transform="translate(723.831 -5134.906)" fill="#78aad2"/><path d="M244.8,256.226a1.014,1.014,0,0,1-.123-.076l-.07-.047a4.089,4.089,0,0,1-1.116-1.244,3.914,3.914,0,0,1-.584-1.893l43.06-11.526-28.835,21.9Z" transform="translate(723.831 -5134.906)" opacity="0.2"/><path d="M186.585,317.439a1.3,1.3,0,0,1-.584,1.25,1.355,1.355,0,0,1-1.3-.146h0l-33.5-19.337-7.653-42.967,43.025,59.973Z" transform="translate(881.249 -5141.06)" fill="#78aad2"/><path d="M143.574,244.326l46.583,69.028a1.3,1.3,0,0,0,.584-1.25v-1.238l-45.5-67.485h0Z" transform="translate(877.082 -5135.712)" opacity="0.15"/><path d="M144.61,253.886a4.089,4.089,0,0,0,1.116,1.244l.07.047,97.419,56.246h0a1.355,1.355,0,0,0,1.3.146l-46.577-69.022a7.314,7.314,0,0,0-9.148-2.827Z" transform="translate(822.715 -5133.934)" fill="#78aad2"/><path d="M134.9,211.92l-1.548.894a7.431,7.431,0,0,1,.38,2.074v4.82l1.548-.894v-4.825A7.431,7.431,0,0,0,134.9,211.92Z" transform="translate(938.527 -5122.631)" opacity="0.15"/><path d="M136.03,226.854l1.542.888,1.566-.9,3.838-2.214-1.49-.888Z" transform="translate(929.263 -5127.546)" fill="#78aad2"/><path d="M174.919,226.883l5.521-3.143,1.49.888-3.838,2.214-1.566.9h0a1.222,1.222,0,0,0-.292-.093,2.01,2.01,0,0,0-.83.029l-3.108,1.168L136.584,242l-.584-.83Z" transform="translate(890.328 -5127.546)" opacity="0.1"/><path d="M179.761,129c4.96.356,8.36,1.536,11.549,9.213,2.068,4.96,10.165,22.783,10.948,25.739.917,3.458,2.991,29.764,2.991,29.764l-4.732,1.753s1.618,5.661,2.991,8.891c1.577,3.733-6.128,2.95-8.605-.438s-4.159-7.927-2.8-9.522a22.2,22.2,0,0,1,3.75-3.47l-5.176-23.467-10.86-23.087S174.351,133.089,179.761,129Z" transform="translate(842.84 -5088.152)" fill="#ffa8a7"/><path d="M185.482,233.856a10.212,10.212,0,0,1,4.8-1.373,9.271,9.271,0,0,0-5.024,0Z" transform="translate(853.195 -5131.038)" fill="#f28f8f"/><path d="M191.442,128.64c2.781,0,7.974-.146,11.339,5.929s8.12,17.648,8.12,17.648-1.975,4.86-12.56,5.877l-8.1-17.274S188.258,132.9,191.442,128.64Z" transform="translate(830.025 -5088.002)" fill="#75b51d"/><path d="M295.868,131.373c-4.183,3.3-10.971,8.482-14.272,10.556-2.495-3.014-7.086-9.125-8.179-10.463-1.437-1.7-5.929-4.452-5.929-4.452l-1.688,6.771s8.482,15.645,11.555,18.536c3.236,3.049,5.579,1.788,11.906-1.11,5.976-2.74,12.467-6.14,12.467-6.14-1.285-11.368-.415-17.526,5.018-19.442C303.124,126.056,299.379,128.609,295.868,131.373Z" transform="translate(689.683 -5086.751)" fill="#ffa8a7"/><path d="M261.58,139.392c2.185.584,6.7,7.01,5.877,11.1l11.508-5.69c-1.39-7.846-1.694-17.526,4.936-19.4a9.219,9.219,0,0,1,1.94-.245h0c-3.3-.327-5.456-.228-8.915,2.372S261.58,139.392,261.58,139.392Z" transform="translate(713.053 -5086.498)" fill="#75b51d"/><path d="M304.535,153.089c1.647,1.449,2.179,4.054,2.5,5.088a9.078,9.078,0,0,0-1.548-5.708Z" transform="translate(666.745 -5097.911)" fill="#f28f8f"/><path d="M341.526,113.3l-3.949-2.4s-.45,21.294-.467,21.983a2.337,2.337,0,0,1-.83,1.367l3.949,2.413a2.366,2.366,0,0,0,.83-1.367C341.07,134.571,341.526,113.3,341.526,113.3Z" transform="translate(613.73 -5080.626)" fill="#37474f"/><path d="M339.863,126.07s-1.133.269-1.566,2.027-.654,5.117.356,6.222,2.389,1.589,3.306,1.168c1.712-.742,1.168-4.218-.181-5.024-2.2-1.279-1.934-2.693-1.934-2.693Z" transform="translate(611.257 -5086.934)" fill="#ffa8a7"/><path d="M334.152,115.09,332.4,117.2l-.31,15.014,1.753,2.921L328,138.358a2.15,2.15,0,0,0,.83-1.367l.409-19.22Z" transform="translate(625.941 -5082.368)" fill="#455a64"/><path d="M334.349,149.43l-.018.917-5.871,3.231.023-.923Z" transform="translate(625.475 -5096.647)" fill="#78aad2"/><path d="M342.443,154.168l-3.943-2.4.023-.923,3.943,2.4Z" transform="translate(611.492 -5097.238)" fill="#78aad2"/><path d="M342.443,154.168l-3.943-2.4.023-.923,3.943,2.4Z" transform="translate(611.492 -5097.238)" opacity="0.1"/><path d="M325.475,97.222h0a2.6,2.6,0,0,1,2.483,1.011l.029.035a8.26,8.26,0,0,1,1.688,7.285v.041a2.608,2.608,0,0,1-1.84,2.015h0l-3.412.818-2.086-10.445Z" transform="translate(633.484 -5074.916)" fill="#ff8900"/><path d="M326.415,112.093h0l-3.412.818-.689-3.464,6.2-1.437a6.524,6.524,0,0,1-.251,2.027v.041C327.893,111.281,327.215,111.971,326.415,112.093Z" transform="translate(634.893 -5079.424)" opacity="0.05"/><path d="M326.054,97.181h0a3.1,3.1,0,0,1,2.775.993c.1.088.2.187.3.292s.222.245.327.38a6.974,6.974,0,0,1,.5.707,9.344,9.344,0,0,1,.759,1.466,11.332,11.332,0,0,1,.847,4.463,7.975,7.975,0,0,1-.321,2.121,3.326,3.326,0,0,1-2.132,2.483l3.236-.748h0a3.756,3.756,0,0,0,2.57-2.582,8.085,8.085,0,0,0,.315-2.027,11.239,11.239,0,0,0-.847-4.562,9.544,9.544,0,0,0-.754-1.46,8.036,8.036,0,0,0-.5-.707q-.158-.2-.333-.386a3.449,3.449,0,0,0-.3-.286,3.692,3.692,0,0,0-3.143-.9h-.21Z" transform="translate(625.994 -5074.583)" fill="#fddab1"/><path d="M329.308,115.289h0a3.756,3.756,0,0,0,2.57-2.582,8.085,8.085,0,0,0,.315-2.027l-3.68.759a7.976,7.976,0,0,1-.321,2.121,3.326,3.326,0,0,1-2.132,2.483Z" transform="translate(629.032 -5080.535)" opacity="0.1"/><path d="M332.66,100.239a10.36,10.36,0,0,0,2.121,9.137,3.288,3.288,0,0,0,3.09,1.279h.053a3.326,3.326,0,0,0,2.132-2.483,10.375,10.375,0,0,0-2.115-9.137,3.31,3.31,0,0,0-3.073-1.285A3.268,3.268,0,0,0,332.66,100.239Z" transform="translate(617.181 -5075.135)" fill="#78aad2"/><path d="M332.66,100.239a10.36,10.36,0,0,0,2.121,9.137,3.288,3.288,0,0,0,3.09,1.279h.053a3.326,3.326,0,0,0,2.132-2.483,10.375,10.375,0,0,0-2.115-9.137,3.31,3.31,0,0,0-3.073-1.285A3.268,3.268,0,0,0,332.66,100.239Z" transform="translate(617.181 -5075.135)" opacity="0.2"/><path d="M332.845,93.6s3.821,3.7,5.643,11.579a30.9,30.9,0,0,1,.7,4.294,21.7,21.7,0,0,1-.672,8.582,26.694,26.694,0,0,1,8.675-7.594,44.852,44.852,0,0,1,4.317-1.828h0a3.019,3.019,0,0,0,1.98-2.29,8.057,8.057,0,0,0,.292-2.792,10.351,10.351,0,0,0-.263-1.875,9.218,9.218,0,0,0-2.08-4.177,2.954,2.954,0,0,0-2.787-1.168h0a45.517,45.517,0,0,1-4.673.257C339.961,96.579,336.234,95.16,332.845,93.6Z" transform="translate(603.465 -5073.433)" fill="#ff8900"/><path d="M333.517,116.554a21.7,21.7,0,0,1-.672,8.582,26.694,26.694,0,0,1,8.675-7.594,44.852,44.852,0,0,1,4.317-1.828h0a3.019,3.019,0,0,0,1.98-2.29,8.057,8.057,0,0,0,.292-2.792C344.161,111.325,337.647,112.8,333.517,116.554Z" transform="translate(609.132 -5080.514)" opacity="0.05"/><path d="M355.977,95.873a22.047,22.047,0,0,0-.38,10.013h0a23.208,23.208,0,0,0,5.445,11.73c4.855,5.205,10.474,3.9,12.554-2.921a19.127,19.127,0,0,0,.765-5.042,26.656,26.656,0,0,0-3.125-12.934,16.485,16.485,0,0,0-.935-1.548l-.421-.584h0c-.2-.286-.409-.555-.625-.818s-.456-.543-.7-.794C363.671,87.764,358.051,89.061,355.977,95.873Z" transform="translate(569.842 -5071.844)" fill="#ffbf76"/><path d="M355.2,117.35a23.208,23.208,0,0,0,5.445,11.73c4.855,5.205,10.474,3.9,12.554-2.921a19.127,19.127,0,0,0,.765-5.042h0c-.666.759-2.483,1.577-2.857.5a17.21,17.21,0,0,1-.683,4.469,7.557,7.557,0,0,1-2.652,4.183,3.657,3.657,0,0,1-3.277.456,8.558,8.558,0,0,1-3.552-2.436,21.577,21.577,0,0,1-4.849-10.066C356.065,118.238,355.6,118.437,355.2,117.35Z" transform="translate(570.239 -5083.308)" opacity="0.1"/><path d="M360.836,97.81a21.217,21.217,0,0,0-.129,10.3,21.634,21.634,0,0,0,4.849,10.066,8.558,8.558,0,0,0,3.552,2.436,3.657,3.657,0,0,0,3.277-.456,7.464,7.464,0,0,0,2.652-4.183,17.21,17.21,0,0,0,.684-4.469v-1.823a23.805,23.805,0,0,0-.386-3.242c-.041-.222-.082-.444-.129-.66-.076-.368-.158-.736-.251-1.1a25.259,25.259,0,0,0-1.2-3.6v-.041a22.53,22.53,0,0,0-1.075-2.2c-.28-.5-.584-.981-.888-1.437l-.4-.584c-.169-.216-.339-.432-.508-.637s-.345-.4-.52-.584a8.5,8.5,0,0,0-3.552-2.436C364.177,92.412,361.957,94.124,360.836,97.81Z" transform="translate(565.596 -5073.179)" fill="#b26001"/><path d="M360.18,107.642l1.612,8.132c1.168-.07,3.149-.164,4.709-.088V115.1a24.766,24.766,0,0,0-.386-3.242c-.041-.222-.088-.438-.129-.66-.076-.368-.164-.736-.257-1.092a25.316,25.316,0,0,0-1.2-3.6.122.122,0,0,1,0-.041c-.076-.169-.146-.339-.222-.5A25.287,25.287,0,0,1,360.18,107.642Z" transform="translate(574.793 -5078.572)" fill="#78aad2"/><g transform="translate(934.973 -4972.612)" opacity="0.4"><path d="M360.18,107.642l1.612,8.132c1.168-.07,3.149-.164,4.709-.088V115.1a24.766,24.766,0,0,0-.386-3.242c-.041-.222-.088-.438-.129-.66-.076-.368-.164-.736-.257-1.092a25.316,25.316,0,0,0-1.2-3.6.122.122,0,0,1,0-.041c-.076-.169-.146-.339-.222-.5A25.287,25.287,0,0,1,360.18,107.642Z" transform="translate(-360.18 -105.96)" fill="#fff"/></g><path d="M367.726,116.87c.847.257,1.566-.269,1.91-1.42v-.035a6.543,6.543,0,0,0-1.332-5.76h0a2.541,2.541,0,0,0-1.069-.73c-.847-.257-1.56.275-1.91,1.42v.035a6.537,6.537,0,0,0,1.332,5.76h0a2.617,2.617,0,0,0,1.069.724Z" transform="translate(568.572 -5079.778)" fill="#78aad2"/><g transform="translate(933.707 -4970.917)" opacity="0.7"><path d="M367.726,116.87c.847.257,1.566-.269,1.91-1.42v-.035a6.543,6.543,0,0,0-1.332-5.76h0a2.541,2.541,0,0,0-1.069-.73c-.847-.257-1.56.275-1.91,1.42v.035a6.537,6.537,0,0,0,1.332,5.76h0a2.617,2.617,0,0,0,1.069.724Z" transform="translate(-365.135 -108.861)" fill="#fff"/></g><path d="M359.818,79.762a.87.87,0,0,0,1.1-.584l2.483-8.144a.882.882,0,0,0-1.682-.514l-2.483,8.144a.87.87,0,0,0,.584,1.1Z" transform="translate(578.45 -5063.602)" fill="#e0e0e0"/><path d="M341.665,88.588a.882.882,0,0,0,.859-.2l6.222-5.842a.882.882,0,1,0-1.2-1.285L341.32,87.1a.876.876,0,0,0-.041,1.244A.812.812,0,0,0,341.665,88.588Z" transform="translate(603.408 -5068.187)" fill="#e0e0e0"/><path d="M361.606,158.062a.923.923,0,0,0,.456,0,.882.882,0,0,0,.66-1.057l-1.922-8.3a.882.882,0,1,0-1.717.4l1.939,8.313a.882.882,0,0,0,.584.643Z" transform="translate(579.208 -5096.049)" fill="#e0e0e0"/><path d="M381.839,152.142a.882.882,0,0,0,1.1-.584l2.483-8.144a.882.882,0,1,0-1.682-.514l-2.483,8.144A.882.882,0,0,0,381.839,152.142Z" transform="translate(543.524 -5093.646)" fill="#e0e0e0"/><path d="M391.227,134.819a.882.882,0,0,0,.859-.2l6.222-5.842a.882.882,0,0,0-1.2-1.291l-6.227,5.813a.876.876,0,0,0-.041,1.244.905.905,0,0,0,.386.275Z" transform="translate(524.969 -5087.44)" fill="#e0e0e0"/><path d="M397.612,118.793a.917.917,0,0,0,.456,0l8.3-1.922a.888.888,0,0,0,.66-1.057.876.876,0,0,0-1.057-.66l-8.3,1.922a.882.882,0,0,0-.058,1.7Z" transform="translate(512.743 -5082.385)" fill="#e0e0e0"/><path d="M397.116,98.917l8.149,2.483a.88.88,0,0,0,.514-1.682L397.6,97.235a.882.882,0,0,0-.514,1.682Z" transform="translate(513.66 -5074.935)" fill="#e0e0e0"/><path d="M395.693,87.075a.882.882,0,0,0,.905-1.443l-5.813-6.222a.882.882,0,0,0-1.291,1.2l5.813,6.222A.876.876,0,0,0,395.693,87.075Z" transform="translate(527.473 -5067.416)" fill="#e0e0e0"/><path d="M379.7,79.112a.9.9,0,0,0,.45,0,.876.876,0,0,0,.66-1.057l-1.922-8.3a.882.882,0,1,0-1.717.4l1.922,8.3A.9.9,0,0,0,379.7,79.112Z" transform="translate(550.552 -5063.221)" fill="#e0e0e0"/><path d="M334.355,131.77c-1.677-2.126-1.753-3.464-3.049-4.51s-2.629-1.11-4.58-.549c-1.466.421-3.19.21-3.786.754-.169.117.094,1.057.783,1.4a8.141,8.141,0,0,0,3.16.315c2.255,0,.4,2.22,2.576,4.463C330.377,135.246,334.355,131.77,334.355,131.77Z" transform="translate(628.723 -5087.055)" fill="#ffa8a7"/><path d="M440.97,184.068,420.3,170.83l-9.1,2.921Z" transform="translate(470.518 -5105.545)" fill="#78aad2"/><path d="M429.064,179.623l-17.864-14.9,3.972-4.586Z" transform="translate(482.424 -5101.1)" fill="#78aad2"/><path d="M411.2,167.99v3.453l17.864,11.444Z" transform="translate(482.424 -5104.364)" fill="#78aad2"/><path d="M411.2,167.99v3.453l17.864,11.444Z" transform="translate(482.424 -5104.364)" opacity="0.25"/><path d="M449.629,163.051a.583.583,0,0,0,.38-1.028c-.356-.31-.713-.631-1.057-.958a.584.584,0,0,0-.806.841c.362.345.724.678,1.1,1A.584.584,0,0,0,449.629,163.051Z" transform="translate(439.777 -5101.429)" fill="#e0e0e0"/><path d="M339.548,109.123a.584.584,0,0,0,.438-.97c-.584-.7-1.209-1.443-1.753-2.208a.585.585,0,1,0-.941.7c.584.794,1.2,1.56,1.834,2.284A.584.584,0,0,0,339.548,109.123Zm-3.423-4.627a.584.584,0,0,0,.491-.894c-.491-.789-.97-1.618-1.414-2.459a.584.584,0,0,0-1.034.543c.461.87.952,1.723,1.46,2.535a.584.584,0,0,0,.5.275Zm-2.693-5.088a.543.543,0,0,0,.234-.053.584.584,0,0,0,.3-.771c-.374-.859-.736-1.753-1.057-2.635a.584.584,0,0,0-1.1.4c.333.917.7,1.829,1.092,2.711a.584.584,0,0,0,.532.351Zm-1.975-5.415a.525.525,0,0,0,.164,0,.584.584,0,0,0,.4-.724c-.263-.9-.5-1.829-.713-2.752a.6.6,0,0,0-1.168.257c.216.946.462,1.9.73,2.822a.584.584,0,0,0,.59.4Zm-1.268-5.62h.093a.584.584,0,0,0,.485-.672c-.146-.929-.269-1.875-.356-2.822a.587.587,0,1,0-1.168.111c.093.97.222,1.945.374,2.921A.584.584,0,0,0,330.189,88.373Zm-.543-5.737h0a.584.584,0,0,0,.584-.584V79.207a.584.584,0,1,0-1.168,0v2.921a.584.584,0,0,0,.584.52Zm.2-5.754a.584.584,0,0,0,.584-.526c.1-.946.228-1.893.391-2.816a.593.593,0,1,0-1.168-.2c-.169.946-.3,1.922-.4,2.921a.584.584,0,0,0,.52.643Zm1-5.678a.584.584,0,0,0,.584-.438c.234-.923.5-1.834.8-2.722a.584.584,0,1,0-1.1-.374c-.31.917-.584,1.858-.83,2.81a.584.584,0,0,0,.584.724Zm1.858-5.456a.584.584,0,0,0,.537-.351,27.773,27.773,0,0,1,1.233-2.547.591.591,0,0,0-1.028-.584c-.462.853-.888,1.753-1.279,2.641a.584.584,0,0,0,.31.765.532.532,0,0,0,.228.076Zm2.728-5.065a.584.584,0,0,0,.491-.263,28.2,28.2,0,0,1,1.647-2.308.584.584,0,1,0-.911-.73c-.584.754-1.168,1.554-1.753,2.372a.584.584,0,0,0,.485.905Zm3.6-4.5a.584.584,0,0,0,.421-.181c.643-.672,1.326-1.338,2.039-1.975a.587.587,0,0,0-.789-.87c-.73.66-1.437,1.349-2.1,2.039a.584.584,0,0,0,.426.987Zm4.27-3.867a.613.613,0,0,0,.362-.123c.73-.584,1.5-1.168,2.284-1.694a.584.584,0,1,0-.66-.958c-.812.584-1.6,1.168-2.337,1.753a.567.567,0,0,0,.333,1.022Zm4.732-3.283a.584.584,0,0,0,.3-.088c.8-.485,1.63-.964,2.471-1.42a.584.584,0,0,0-.549-1.028c-.865.467-1.718.952-2.53,1.455a.584.584,0,0,0,.3,1.081Zm5.071-2.74a.584.584,0,0,0,.251-.058c.853-.4,1.753-.794,2.605-1.168a.585.585,0,1,0-.45-1.081c-.894.374-1.788.777-2.658,1.168a.584.584,0,0,0,.251,1.11Zm59-1.449a.584.584,0,0,0,.193-1.139c-.911-.327-1.834-.637-2.746-.929a.584.584,0,1,0-.356,1.11c.894.286,1.805.584,2.711.923a.584.584,0,0,0,.169.035Zm-53.7-.754a.485.485,0,0,0,.2-.041c.876-.321,1.788-.631,2.7-.923a.584.584,0,1,0-.351-1.11c-.935.3-1.864.613-2.757.941a.581.581,0,0,0,.2,1.133Zm48.184-.993a.59.59,0,0,0,.164-1.168c-.917-.263-1.864-.514-2.8-.754a.584.584,0,0,0-.28,1.133c.929.234,1.858.485,2.763.742a.491.491,0,0,0,.152.023Zm-42.7-.759a.637.637,0,0,0,.152,0c.905-.245,1.834-.479,2.775-.7a.6.6,0,0,0-.257-1.168c-.958.222-1.9.456-2.822.707a.589.589,0,1,0,.152,1.168Zm37.1-.666a.587.587,0,1,0,.123-1.168c-.941-.2-1.9-.391-2.839-.584a.594.594,0,0,0-.21,1.168c.929.169,1.875.356,2.8.584Zm-31.488-.631h.111c.917-.175,1.869-.333,2.822-.467a.585.585,0,0,0-.169-1.157c-.97.14-1.934.3-2.868.473a.587.587,0,1,0,.105,1.168Zm25.821-.4a.586.586,0,0,0,.088-1.168c-.958-.14-1.928-.263-2.88-.368a.588.588,0,0,0-.129,1.168c.941.105,1.893.228,2.839.368Zm-20.108-.432h.058c.935-.1,1.893-.181,2.851-.245a.586.586,0,1,0-.082-1.168c-.976.07-1.945.152-2.892.257a.58.58,0,0,0,.064,1.157ZM389.613,40a.585.585,0,0,0,.047-1.168c-.97-.07-1.94-.129-2.921-.169a.584.584,0,1,0,0,1.168c.941.041,1.9.1,2.857.169Zm-8.64-.193h0c.835,0,1.677-.041,2.5-.041h.362a.584.584,0,1,0,0-1.168h-.368c-.835,0-1.688,0-2.535.041a.584.584,0,0,0,0,1.168Z" transform="translate(546.768 -5050.563)" fill="#e0e0e0"/><path d="M324.061,50.757a.584.584,0,0,0,.222-1.122l-1.361-.584a.586.586,0,1,0-.426,1.092l1.344.543a.619.619,0,0,0,.222.07Z" transform="translate(638.888 -5054.891)" fill="#e0e0e0"/><path d="M127.307,133.788,100.44,120.62l19.372,18.425Z" transform="translate(965.723 -5084.667)" fill="#78aad2"/><path d="M82.91,120.62l29.624,9.744,7.483-5.258Z" transform="translate(983.253 -5084.667)" fill="#78aad2"/><path d="M125.344,130.364l-1.174,7.524-1.583-4.1L95.72,120.62Z" transform="translate(970.443 -5084.667)" fill="#78aad2"/><path d="M125.344,130.364l-1.174,7.524-1.583-4.1L95.72,120.62Z" transform="translate(970.443 -5084.667)" opacity="0.25"/><path d="M101.813,147.261l-4.083-2.348,2.5-1.753Z" transform="translate(992.8 -5094.04)" fill="#78aad2"/><path d="M102.94,143.16l-2.5,1.753.654.374Z" transform="translate(990.09 -5094.04)" opacity="0.25"/><path d="M47.434,222.827a.584.584,0,0,0,.2-.035c.946-.339,1.869-.689,2.752-1.034a.585.585,0,0,0-.432-1.087c-.865.339-1.753.684-2.716,1.022a.584.584,0,0,0,.2,1.133Zm5.427-2.156a.584.584,0,0,0,.234-.047c.911-.4,1.805-.818,2.67-1.238a.585.585,0,0,0-.514-1.052c-.847.415-1.753.824-2.629,1.221a.584.584,0,0,0,.24,1.116Zm5.258-2.57a.584.584,0,0,0,.28-.07c.87-.479,1.753-.976,2.553-1.484a.584.584,0,0,0-.584-.993c-.806.5-1.647.981-2.5,1.449a.584.584,0,0,0,.28,1.1Zm4.966-3.067a.584.584,0,0,0,.333-.105c.818-.584,1.612-1.168,2.372-1.753a.6.6,0,1,0-.754-.941c-.736.584-1.513,1.168-2.337,1.718a.584.584,0,0,0,.333,1.063Zm4.562-3.634a.584.584,0,0,0,.391-.152c.736-.672,1.443-1.367,2.109-2.08a.584.584,0,0,0-.847-.8c-.648.689-1.338,1.367-2.051,2.015a.584.584,0,0,0,.4,1.016Zm4-4.241a.584.584,0,0,0,.456-.222c.619-.765,1.209-1.566,1.753-2.383a.585.585,0,1,0-.97-.654c-.532.789-1.11,1.566-1.706,2.337a.555.555,0,0,0,.444.923Zm3.271-4.825a.584.584,0,0,0,.508-.3c.479-.853.935-1.753,1.349-2.641a.585.585,0,1,0-1.063-.491c-.4.87-.841,1.753-1.3,2.553a.584.584,0,0,0,.222.8.614.614,0,0,0,.263.076Zm2.419-5.287a.584.584,0,0,0,.549-.38c.339-.911.648-1.858.923-2.816a.584.584,0,1,0-1.122-.321c-.269.929-.584,1.846-.894,2.734a.58.58,0,0,0,.543.783Zm1.63-5.6a.584.584,0,0,0,.584-.462c.2-.941.391-1.916.543-2.921a.585.585,0,0,0-1.157-.181c-.146.964-.327,1.916-.526,2.839a.584.584,0,0,0,.444.7.48.48,0,0,0,.111.018Zm.911-5.766a.584.584,0,0,0,.584-.526c.1-.941.181-1.928.24-2.921a.585.585,0,0,0-1.168-.064c-.058.987-.134,1.957-.234,2.886a.584.584,0,0,0,.52.637Zm.3-5.842h0a.584.584,0,0,0,.584-.584,29.62,29.62,0,0,0-.175-2.962.584.584,0,1,0-1.163.117c.093.952.152,1.916.169,2.868a.584.584,0,0,0,.584.561Zm-.584-5.807H79.7a.584.584,0,0,0,.467-.678c-.175-.97-.4-1.939-.648-2.921a.584.584,0,0,0-1.127.3c.245.923.456,1.869.631,2.8A.584.584,0,0,0,79.593,174.029Zm-1.507-5.608a.586.586,0,0,0,.549-.783c-.327-.923-.7-1.852-1.1-2.757a.584.584,0,1,0-1.063.479c.386.87.748,1.753,1.063,2.67A.584.584,0,0,0,78.086,168.421Zm-2.372-5.334a.584.584,0,0,0,.508-.865c-.467-.865-.981-1.753-1.519-2.547a.584.584,0,0,0-.976.637c.52.8,1.016,1.63,1.472,2.471a.584.584,0,0,0,.514.275ZM72.5,158.169a.584.584,0,0,0,.462-.941c-.584-.783-1.244-1.548-1.9-2.272a.585.585,0,0,0-.865.789c.637.7,1.262,1.443,1.846,2.2A.584.584,0,0,0,72.5,158.169Zm-3.932-4.311a.584.584,0,0,0,.4-1.011c-.719-.678-1.478-1.326-2.249-1.934a.584.584,0,0,0-.724.917c.748.584,1.478,1.215,2.179,1.869a.584.584,0,0,0,.426.158Zm-4.58-3.616a.584.584,0,0,0,.333-1.1c-.818-.543-1.671-1.057-2.535-1.536a.589.589,0,1,0-.584,1.022c.835.462,1.665.964,2.454,1.49a.584.584,0,0,0,.362.123Zm-5.071-2.851a.584.584,0,0,0,.24-1.116c-.894-.4-1.817-.783-2.746-1.116a.584.584,0,0,0-.4,1.1c.9.327,1.793.689,2.664,1.081A.584.584,0,0,0,58.913,147.391Z" transform="translate(1043.575 -5094.859)" fill="#e0e0e0"/></g></svg>