<svg xmlns="http://www.w3.org/2000/svg" width="199.585" height="164.233" viewBox="0 0 199.585 164.233"><g transform="translate(-1120 -6715.421)"><g transform="translate(1120 6715.421)"><path d="M202.61,168.72a14.411,14.411,0,0,1,7.372,6.415c2.771,4.9,2.027,7.321,1.309,10.22s-2,8.655-2.07,8.279S202.61,168.72,202.61,168.72Z" transform="translate(-85.686 -93.472)" fill="#ffbe9d"/><rect width="199.183" height="147.927" transform="translate(0.205 15.499)" fill="#fff"/><path d="M265.263,246.75c0-1.505-.068-58.381-.18-147.961l.18.18-199.158.043h0l.222-.222V246.75l-.2-.2,199.175.2-199.175.205H65.9V98.6H265.485v.188C265.357,188.369,265.263,245.244,265.263,246.75Z" transform="translate(-65.9 -83.323)" fill="#263238"/><path d="M265.258,122.962c0,.12-44.149.222-98.6.222s-98.6-.068-98.6-.222,44.14-.222,98.6-.222S265.258,122.868,265.258,122.962Z" transform="translate(-66.211 -86.817)" fill="#e0e0e0"/><path d="M80.377,109.916A2.934,2.934,0,1,1,77.444,107a2.934,2.934,0,0,1,2.934,2.916Z" transform="translate(-67.146 -84.539)" fill="#e0e0e0"/><path d="M90.7,109.916A2.934,2.934,0,1,1,87.772,107a2.934,2.934,0,0,1,2.925,2.916Z" transform="translate(-68.64 -84.539)" fill="#e0e0e0"/><path d="M101.007,109.916A2.934,2.934,0,1,1,98.091,107,2.934,2.934,0,0,1,101.007,109.916Z" transform="translate(-70.132 -84.539)" fill="#e0e0e0"/><path d="M187.487,92.936a9.594,9.594,0,0,0-4.131-5.987c-1.018-.6-2.181-.924-3.224-1.488a39.416,39.416,0,0,1-3.472-2.523A12.359,12.359,0,0,0,158.6,87.513c-2.429-1.856-6.645-1.069-9.519,0s-5.277,4.456-5.987,7.432L156.6,98.923a36.084,36.084,0,0,0,9.2,7.578,18.671,18.671,0,0,0,11.546,2.335,12.744,12.744,0,0,0,9.5-6.492A13.282,13.282,0,0,0,187.487,92.936Z" transform="translate(-77.072 -80.738)" fill="#263238"/><path d="M201.783,140.235a8.065,8.065,0,0,0,1.711-11.118c-.761-.984-1.8-1.882-1.967-3.113a6.192,6.192,0,0,1,.325-2.249,13.317,13.317,0,0,0-4.884-13.547c-.077-2.763-1.625-8.6-5.132-10.836l-15.942,2.249q1.086,25.171-.145,50.35c-.128,2.566-.222,5.337,1.189,7.492,1.993,3.062,6.149,3.695,9.793,3.789a29.08,29.08,0,0,0,10.34-1.214,12.734,12.734,0,0,0,7.7-6.645C206.9,150.472,204.708,144.742,201.783,140.235Z" transform="translate(-81.789 -83.435)" fill="#263238"/><path d="M149.319,105.728l-.479-3.566,21.014-6.56c6.543-1.463,14.471,4.353,15.66,10.956,1.309,7.33,2.626,16.336,2.386,21.946-.488,11.29-8.818,13.684-8.818,13.684l.855,6.688a12.367,12.367,0,0,1-10.7,13.83h0a12.359,12.359,0,0,1-13.821-10.648Z" transform="translate(-77.904 -82.856)" fill="#ffbe9d"/><path d="M189.522,117.957a1.428,1.428,0,0,1-1.206,1.591,1.368,1.368,0,0,1-1.608-1.112,1.428,1.428,0,0,1,1.206-1.591,1.351,1.351,0,0,1,1.608,1.112Z" transform="translate(-83.383 -85.96)" fill="#263238"/><path d="M188.652,114.063c-.154.205-1.326-.47-2.857-.291s-2.566,1.078-2.745.907.051-.428.5-.855a3.917,3.917,0,0,1,2.172-.958,3.78,3.78,0,0,1,2.3.462C188.532,113.652,188.729,113.969,188.652,114.063Z" transform="translate(-82.846 -85.384)" fill="#263238"/><path d="M172.855,120.229a1.428,1.428,0,0,1-1.206,1.591A1.377,1.377,0,0,1,170,120.725a1.428,1.428,0,0,1,1.206-1.591,1.36,1.36,0,0,1,1.651,1.095Z" transform="translate(-80.965 -86.29)" fill="#263238"/><path d="M171.11,116.407c-.154.205-1.326-.462-2.857-.282s-2.566,1.069-2.745.855,0-.428.5-.855a3.891,3.891,0,0,1,2.172-.949,3.78,3.78,0,0,1,2.3.453C170.991,116,171.187,116.313,171.11,116.407Z" transform="translate(-80.307 -85.718)" fill="#263238"/><path d="M179.712,127a10.264,10.264,0,0,1,2.438-.736c.385-.086.744-.205.778-.479a2.027,2.027,0,0,0-.393-1.129c-.47-.907-.975-1.847-1.5-2.839-2.087-4.054-3.652-7.4-3.49-7.484s1.993,3.13,4.088,7.184l1.445,2.865a2.249,2.249,0,0,1,.385,1.505,1.009,1.009,0,0,1-.582.65,2.83,2.83,0,0,1-.65.171A10.306,10.306,0,0,1,179.712,127Z" transform="translate(-82.057 -85.6)" fill="#263238"/><path d="M181.547,149.754a29.558,29.558,0,0,1-15.677-2.224s4.636,7.33,15.985,4.995Z" transform="translate(-80.369 -90.405)" fill="#eb996e"/><path d="M179.068,133.394a2.78,2.78,0,0,0-2.566-.736,2.566,2.566,0,0,0-1.634,1.129,1.616,1.616,0,0,0,.086,1.839,1.864,1.864,0,0,0,2.07.282,6.09,6.09,0,0,0,1.822-1.394,1.839,1.839,0,0,0,.385-.5.513.513,0,0,0-.068-.564" transform="translate(-81.635 -88.243)" fill="#eb996e"/><path d="M174.968,131c.248,0,.445,1.616,2,2.634s3.3.624,3.344.855c0,.1-.359.368-1.1.479a4.276,4.276,0,0,1-2.78-.624,3.6,3.6,0,0,1-1.565-2.224C174.686,131.419,174.823,131,174.968,131Z" transform="translate(-81.658 -88.013)" fill="#263238"/><path d="M170.556,109.42c-.1.436-1.651.411-3.421.855s-3.164,1.086-3.421.736c-.128-.163.086-.582.624-1.052a5.841,5.841,0,0,1,2.48-1.206,5.919,5.919,0,0,1,2.754,0C170.231,108.941,170.6,109.214,170.556,109.42Z" transform="translate(-80.051 -84.769)" fill="#263238"/><path d="M187.484,108.949c-.231.376-1.326.137-2.566.265s-2.309.5-2.566.162c-.128-.162,0-.53.436-.907a3.763,3.763,0,0,1,4.182-.351C187.39,108.419,187.578,108.8,187.484,108.949Z" transform="translate(-82.747 -84.632)" fill="#263238"/><path d="M151.5,94.159c-2.181.71-4.644,6.654-4,8.861a6.765,6.765,0,0,0,4.909,4.362,12.735,12.735,0,0,0,6.782-.436c3.1-.949,6.38-3.088,6.594-6.32a12.624,12.624,0,0,0,11.871,3.259c4.157-1.069,7.236-7.432,8.4-11.563Z" transform="translate(-77.694 -82.414)" fill="#263238"/><path d="M175.16,119.393a11.559,11.559,0,0,0-.282-1.514,6.312,6.312,0,0,0-2.292-3.361,6.106,6.106,0,1,0-.043,9.742,6.26,6.26,0,0,0,2.292-3.353c.257-.958.231-1.514.282-1.514a1.223,1.223,0,0,1,0,.4,4.807,4.807,0,0,1-.137,1.155,6.355,6.355,0,0,1-4.978,4.8,6.5,6.5,0,0,1-3.421-.257,6.346,6.346,0,0,1-3.028-2.258,6.472,6.472,0,0,1,6.432-10.2,6.355,6.355,0,0,1,4.978,4.8,4.807,4.807,0,0,1,.137,1.155,1.224,1.224,0,0,1,.06.411Z" transform="translate(-79.849 -85.394)" fill="#455a64"/><path d="M193.576,116.074a11.851,11.851,0,0,0-.282-1.514A6.209,6.209,0,0,0,191,111.207a6.124,6.124,0,0,0-5.782-.855,5.987,5.987,0,0,0-2.814,2.121,6.089,6.089,0,0,0,2.839,9.314,6.175,6.175,0,0,0,8.074-4.2c.257-.949.231-1.514.282-1.514a1.223,1.223,0,0,1,0,.4,4.807,4.807,0,0,1-.137,1.155,6.355,6.355,0,0,1-4.978,4.8,6.472,6.472,0,0,1-6.432-10.2,6.363,6.363,0,0,1,3.028-2.249,6.509,6.509,0,0,1,3.421-.265,6.355,6.355,0,0,1,4.978,4.8,4.806,4.806,0,0,1,.137,1.155,1.224,1.224,0,0,1-.043.411Z" transform="translate(-82.528 -84.914)" fill="#455a64"/><path d="M176.235,116.111c-.051,0-.06-.3.145-.71a2.326,2.326,0,0,1,3.122-.975c.4.222.564.47.522.5s-.265-.094-.65-.214a2.515,2.515,0,0,0-1.5,0,2.566,2.566,0,0,0-1.232.855C176.406,115.889,176.3,116.128,176.235,116.111Z" transform="translate(-81.864 -85.576)" fill="#455a64"/><path d="M161.546,122.223a8.082,8.082,0,0,1-2.42,1.043,7.834,7.834,0,0,1-2.566.624,15.694,15.694,0,0,1,4.986-1.711Z" transform="translate(-79.021 -86.736)" fill="#455a64"/><path d="M286.33,143.539a1.967,1.967,0,0,0,1.086-2.617l-6.842,2.053a26.668,26.668,0,0,0,5.482-2.985c1.856-1.522.932-2.839.932-2.839l-7.039,2.711-3.986,2.343L266,157.42s7.791,3.806,9.168,2.711c2.42-1.933,3.746-6.243,4.276-8.433a29.318,29.318,0,0,0,4.884-1.711,4.567,4.567,0,0,0,1.463-1.651l-5.422,1.035c.787-.231,5.816-1.95,6.209-2.566.7-1.086.265-1.565.265-1.565L280,146.3l.7-.513S284.559,144.223,286.33,143.539Z" transform="translate(-94.861 -88.903)" fill="#ffbe9d"/><path d="M249.223,163.05l-22.93,21c-2.848-.659-37.76-21.527-37.76-21.527L183,189.375s35.733,16.43,45.569,14.437c1.608-.325,4.276-.53,5.9-2.66,7.868-10.109,24.555-35.126,24.555-35.126Z" transform="translate(-82.848 -92.575)" fill="#ffbe9d"/><path d="M276.022,158.675l-4.139-1.993,2.985-5.422,2.343-4.952,3.635-6.748-5.534,2.087a4.319,4.319,0,0,0-1.711,1.274L264.493,155.5l-4,4.105,3.857,10.494,4.584-7.15,2.677-.624C274.328,161.7,276.022,158.675,276.022,158.675Z" transform="translate(-94.063 -89.251)" fill="#ffbe9d"/><path d="M270.562,151.559a34.332,34.332,0,0,1,5.936-2.326,5.132,5.132,0,0,1,2.053-.265,1.864,1.864,0,0,1,1.557,1.214,1.941,1.941,0,0,1-.949,2,7.459,7.459,0,0,1-2.232.787,3.866,3.866,0,0,0-2.061,1.086,6.474,6.474,0,0,0-.855,2.036,7.142,7.142,0,0,1-5.268,4.524" transform="translate(-95.257 -90.611)" fill="#ffbe9d"/><path d="M268.71,160.534s.359-.111.992-.359a7.372,7.372,0,0,0,2.386-1.557,7.092,7.092,0,0,0,1.206-1.548,9.47,9.47,0,0,0,.855-2.1,3.42,3.42,0,0,1,.616-1.155,2.994,2.994,0,0,1,1.129-.787c.855-.376,1.788-.462,2.609-.8a2.566,2.566,0,0,0,1.052-.736,1.634,1.634,0,0,0,.411-1.095,1.616,1.616,0,0,0-1.6-1.334,6.235,6.235,0,0,0-2.189.376c-.693.2-1.334.4-1.907.607-1.155.4-2.07.778-2.7,1.043a7.266,7.266,0,0,1-.992.393,4.276,4.276,0,0,1,.924-.539c.616-.308,1.522-.727,2.668-1.172.582-.222,1.215-.445,1.907-.659a6.594,6.594,0,0,1,2.326-.428,2.5,2.5,0,0,1,1.257.453,1.711,1.711,0,0,1,.7,1.24,2.429,2.429,0,0,1-1.711,2.215c-.915.376-1.839.462-2.617.8a2.857,2.857,0,0,0-.992.684,3.14,3.14,0,0,0-.556,1.026,10.04,10.04,0,0,1-.855,2.147,6.987,6.987,0,0,1-1.3,1.582,6.9,6.9,0,0,1-2.523,1.5,5.689,5.689,0,0,1-.778.2C268.8,160.543,268.71,160.551,268.71,160.534Z" transform="translate(-95.253 -90.571)" fill="#eb996e"/><path d="M176.526,250.87h-47.04A120.251,120.251,0,0,0,118,268.7l66.985.274C186.319,266.821,176.526,250.87,176.526,250.87Z" transform="translate(-73.44 -105.362)" fill="#263238"/><path d="M191.457,194.688c-1.591-21.04-6.842-34.262-6.842-34.262l-8.142-2.506h0c-1.232,5.38-10,7.159-14.984,4.807l-5.277-2.763c-16.943-2.566-16.07-1.138-19.988,1.214-3.421,2.044-3.088,17.311-3.088,17.311s-8.441,39.77-7.98,46.142,5.371,12.829,5.371,12.829h47.04c4.738,0,6.09-10.7,5.756-14.582S191.979,201.607,191.457,194.688Z" transform="translate(-74.474 -91.909)" fill="#ff8900"/><path d="M150.5,215.62a3.472,3.472,0,0,0,.787.667,14.386,14.386,0,0,0,2.429,1.42,14.839,14.839,0,0,0,4.011,1.206,14.035,14.035,0,0,0,5.132-.222,16.917,16.917,0,0,0,7.98-4.636,18.163,18.163,0,0,0,1.83-2.13,3.336,3.336,0,0,0,.547-.855c-.068-.051-.924,1.146-2.626,2.754a17.61,17.61,0,0,1-7.843,4.4,14.283,14.283,0,0,1-8.886-.855A36.337,36.337,0,0,1,150.5,215.62Z" transform="translate(-78.144 -99.601)" fill="#263238"/><g transform="translate(72.561 112.273)" opacity="0.3"><path d="M172.472,212.275a13.684,13.684,0,0,1-4.832,9.237,11.349,11.349,0,0,1-10.058,2.189,9.733,9.733,0,0,1-6.842-7.466,28.959,28.959,0,0,0,7.5,2.617,14.728,14.728,0,0,0,14.48-6.842l-.385.4" transform="translate(-150.74 -212.01)"/></g><path d="M113.42,194.086,137.1,205.2s9.656-21.382,10.486-24.281,3.421-7.543.77-13.633-9.827-8.322-13.8-5.73C125.7,167.359,113.42,194.086,113.42,194.086Z" transform="translate(-72.778 -92.282)" fill="#ff8900"/><path d="M199.655,195.267c1.112,0,13.8,6.645,13.8,6.645l7.236-23.948c-10.8-7.2-19.671-15.395-25.975-17.105l3.318,19.791Z" transform="translate(-84.544 -92.334)" fill="#ff8900"/><path d="M113.42,198.22a2.206,2.206,0,0,1,.47.171l1.309.556,4.79,2.121,15.72,7.167,1.916.855-.3.111c2.737-5.636,5.132-10.674,6.842-14.309l1.984-4.276c.214-.47.385-.855.53-1.163a1.547,1.547,0,0,1,.214-.393,2.274,2.274,0,0,1-.137.428c-.094.274-.248.676-.453,1.2-.419,1.035-1.043,2.523-1.856,4.362-1.625,3.669-3.968,8.741-6.7,14.377l-.094.205-.205-.094-1.916-.855-15.669-7.3-4.721-2.249-1.274-.641A1.779,1.779,0,0,1,113.42,198.22Z" transform="translate(-72.778 -96.416)" fill="#263238"/><path d="M197.784,178.1a12.419,12.419,0,0,1,.488,1.471c.316,1.026.736,2.395,1.249,4.045,1.026,3.421,2.566,8.2,2.566,13.684a28.968,28.968,0,0,1-1.266,7.62c-.659,2.284-1.42,4.276-2.07,5.987s-1.214,2.993-1.6,3.917a9.727,9.727,0,0,1-.641,1.42,1.411,1.411,0,0,1,.1-.393c.1-.3.222-.659.376-1.086.368-1.009.855-2.343,1.463-3.968s1.343-3.678,1.976-5.987a29.6,29.6,0,0,0,1.214-7.509,51.806,51.806,0,0,0-2.455-13.642c-.479-1.711-.855-3.113-1.1-4.08-.128-.488-.214-.855-.265-1.12a1.121,1.121,0,0,1-.034-.359Z" transform="translate(-84.803 -94.829)" fill="#263238"/><path d="M166.915,160.432a15.643,15.643,0,0,0-4.678-9.186c-1.232-1.232-2.7-2.463-2.942-4.182-.308-2.232,1.625-4.276,1.309-6.551-.385-2.788-3.874-3.994-5.132-6.517-1.711-3.421,1.24-7.791-.556-11.118-1.078-2.01-3.661-3.088-4.174-5.3-.342-1.437,2.395-3.524,3.036-6.637,1.428-7,2.155-12.419-4.644-16.5L145.174,89c-4.447,2.172-8.185,7.056-8.262,12.162-.043,2.42,1.2,4.841.145,7.013-1.463,3.028-4.884,4.9-5.918,8.108-1.471,4.584,2.566,9.716.855,14.2-1.052,2.643-3.806,4.157-5.542,6.406a9.793,9.793,0,0,0,.624,12.265,12.342,12.342,0,0,0-4.644,13.8c.71,2.078,2.309,4.131,4.5,4.276,3.139.171,4.926-3.421,7.227-5.525a9.784,9.784,0,0,1,13.214.351c2.412,2.5,3.421,6.269,6.2,8.313a8.276,8.276,0,0,0,9.767-.513A10.8,10.8,0,0,0,166.915,160.432Z" transform="translate(-73.998 -81.934)" fill="#263238"/><path d="M133.662,209.54c-4.49,7.372-7.62,11.615-7.62,11.615l40.2,24.495-4.7,10.879-52.171-21.476s-5.132-5.294-3.327-11.187l8.313-22.955Z" transform="translate(-71.654 -98.131)" fill="#ffbe9d"/><path d="M118.05,228.3a36.059,36.059,0,0,1,4.815-2.5,42.843,42.843,0,0,1,5.286-1.249,13.086,13.086,0,0,0-10.1,3.746Z" transform="translate(-73.448 -101.548)" fill="#eb996e"/><path d="M206.921,260.668l-10.032-4.8-19.577-1.557-1.6-1.1L171,264.1s5.132,2.455,7.826,2.668l16.455-.5,8.6.855Z" transform="translate(-81.111 -105.7)" fill="#ffbe9d"/><path d="M262.541,216.75l-56.448.453c-1.83,0-3.584.855-3.857,2.694l-6.166,41.13H166.991a1.711,1.711,0,0,0,0,3.421h92.865l6.346-43.413a3.7,3.7,0,0,0-3.661-4.285Z" transform="translate(-80.283 -100.423)" fill="#e0e0e0"/><path d="M262.509,216.749a2.916,2.916,0,0,1,.855.077,3.746,3.746,0,0,1,2.155,1.437,3.61,3.61,0,0,1,.693,1.8,10.21,10.21,0,0,1-.205,2.326c-.24,1.659-.5,3.575-.813,5.722-1.24,8.63-3.036,21.057-5.234,36.34v.145h-.154l-90.077.051h-2.412a2.292,2.292,0,0,1-1.274-.239,1.924,1.924,0,0,1,0-3.361,2.31,2.31,0,0,1,1.274-.24h28.728l-.214.188c2.215-14.736,4.276-28.48,6.141-40.8a3.19,3.19,0,0,1,1.052-2.147,4.148,4.148,0,0,1,2.155-.958,18.67,18.67,0,0,1,2.275-.077h2.215l8.5-.06,15.1-.094,21.5-.111h5.747l-5.747.086-21.5.239-15.1.145-8.5.086h-2.215a17.2,17.2,0,0,0-2.215.086,3.84,3.84,0,0,0-1.967.855,2.805,2.805,0,0,0-.924,1.924c-1.839,12.333-3.891,26.077-6.09,40.813v.188H167.317a1.984,1.984,0,0,0-1.052.18,1.471,1.471,0,0,0,0,2.566,1.95,1.95,0,0,0,1.061.188h2.429l90.077.051-.171.154c2.258-15.275,4.105-27.694,5.38-36.315.325-2.147.616-4.063.855-5.722a11.226,11.226,0,0,0,.231-2.284,3.7,3.7,0,0,0-2.762-3.1A5.569,5.569,0,0,0,262.509,216.749Z" transform="translate(-80.251 -100.422)" fill="#263238"/><ellipse cx="3.532" cy="3.532" rx="3.532" ry="3.532" transform="translate(148.107 136.109)" fill="#fff"/><path d="M204,264.074c.086,0,1.882-10.46,4.011-23.392s3.806-23.426,3.729-23.443-1.882,10.46-4.011,23.4S203.888,264.074,204,264.074Z" transform="translate(-85.886 -100.494)" fill="#263238"/></g></g></svg>