<svg xmlns="http://www.w3.org/2000/svg" xmlns:xlink="http://www.w3.org/1999/xlink" width="70" height="70" viewBox="0 0 70 70"><defs><clipPath id="a"><rect width="70" height="70" transform="translate(133.823)" fill="none"/></clipPath></defs><g transform="translate(2797.125 15934)"><g transform="translate(-2930.948 -15934)" opacity="0"><g clip-path="url(#a)"><rect width="70" height="70" transform="translate(133.823 0)" fill="#fff"/></g></g><path d="M183.023,39.795V33.159a4.152,4.152,0,0,0-.979-8.187.976.976,0,0,0-.978.976v2.243h-3.244V17.016c0-3.864-3.5-7.007-7.8-7.007h-2.407c-4.3,0-7.8,3.143-7.8,7.007V28.162l-3.25.032V25.951a.977.977,0,0,0-.976-.979h0a4.151,4.151,0,0,0-.973,8.189v6.634c0,8.862,5.918,16.074,13.223,16.178v3.878a7.748,7.748,0,0,0-6.762,7.672.979.979,0,0,0,.977.979h13.528a.977.977,0,0,0,.978-.977v0a7.747,7.747,0,0,0-6.762-7.672V55.973c7.306-.1,13.224-7.317,13.224-16.178m0-12.636a2.2,2.2,0,0,1,0,3.943V27.158ZM164.259,12.892v2.614a.979.979,0,0,0,1.957,0V12.119a6.646,6.646,0,0,1,1.406-.153h.223v4.257a.979.979,0,0,0,1.958,0V11.966h.224a6.646,6.646,0,0,1,1.406.153v3.387a.979.979,0,0,0,1.958,0V12.892a4.887,4.887,0,0,1,2.48,4.123v2.4h-3.555a.979.979,0,1,0,0,1.957h3.55v4.575h-3.548a.979.979,0,1,0,0,1.957h3.548v4.574h-3.548a.979.979,0,1,0,0,1.957h3.548v4.579h-3.548a.978.978,0,1,0,0,1.957h3.548v.761c0,2.785-2.624,5.049-5.841,5.049h-2.407c-3.221,0-5.84-2.264-5.84-5.049v-.764h3.458a.979.979,0,0,0,0-1.957h-3.458V34.44h3.458a.978.978,0,0,0,0-1.957h-3.458V27.909h3.458a.979.979,0,0,0,0-1.957h-3.458V21.377h3.458a.979.979,0,0,0,0-1.957h-3.46v-2.4a4.887,4.887,0,0,1,2.483-4.124M154.614,31.1a2.2,2.2,0,0,1,0-3.941Zm1.964,8.694V30.151l3.243-.037V41.736c0,3.864,3.5,7.007,7.8,7.007h2.4c4.3,0,7.8-3.143,7.8-7.007V30.149h3.244v9.646c0,7.847-5.125,14.231-11.425,14.231H168c-6.3,0-11.424-6.386-11.424-14.231Zm17.943,26.751h-11.4a5.782,5.782,0,0,1,11.4,0Z" transform="translate(-2930.948 -15934)" fill="#b26001"/><path d="M152.925,13.31a.979.979,0,0,0-1.2-1.551c-.013.01-.026.02-.038.031a23.823,23.823,0,0,0,0,36.989.979.979,0,0,0,1.234-1.519,21.869,21.869,0,0,1,0-33.951Z" transform="translate(-2930.948 -15934)" fill="#b26001"/><path d="M150.579,58.943a.979.979,0,0,0,.961-1.705,30.927,30.927,0,0,1,0-53.9.979.979,0,1,0-.946-1.714l-.015.009a32.889,32.889,0,0,0,0,57.314" transform="translate(-2930.948 -15934)" fill="#b26001"/><path d="M185.338,49a.975.975,0,0,0,.617-.219,23.83,23.83,0,0,0,0-36.99.979.979,0,1,0-1.256,1.5l.021.018a21.867,21.867,0,0,1,0,33.951A.978.978,0,0,0,185.338,49Z" transform="translate(-2930.948 -15934)" fill="#b26001"/><path d="M185.732,2a.977.977,0,0,0,.372,1.331l0,0a30.927,30.927,0,0,1,0,53.9.979.979,0,1,0,.961,1.705,32.889,32.889,0,0,0,0-57.314.978.978,0,0,0-1.333.366l0,.006" transform="translate(-2930.948 -15934)" fill="#b26001"/></g></svg>