<svg xmlns="http://www.w3.org/2000/svg" width="349.5" height="238.001" viewBox="0 0 349.5 238.001"><g transform="translate(-895.5 -1926.497)"><path d="M80,0H349.5a0,0,0,0,1,0,0V78.5a80,80,0,0,1-80,80H0a0,0,0,0,1,0,0V80A80,80,0,0,1,80,0Z" transform="translate(895.5 2005.998)" fill="#2df0da"/><g transform="translate(922.331 1942.209)"><rect width="291.037" height="192.46" rx="14.57" transform="translate(9.55)" fill="#455a64"/><path d="M122.225,419.44H437.537v5.7A11.139,11.139,0,0,1,426.4,436.28H133.339A11.139,11.139,0,0,1,122.2,425.141v-5.7Z" transform="translate(-122.2 -239.415)" fill="#455a64"/><path d="M324.15,416.56l3.911,6.227H383.12l3.63-6.227Z" transform="translate(-197.769 -238.337)" fill="#263238"/><path d="M425.994,416.448c0,.106-64.6.188-144.254.188s-144.279-.081-144.279-.188,64.583-.188,144.279-.188S425.994,416.341,425.994,416.448Z" transform="translate(-127.91 -238.225)" fill="#263238"/><rect width="273.227" height="162.071" rx="3.27" transform="translate(17.886 11.064)" fill="#ebebeb"/><path d="M423.537,319H150.31L150.6,168.81H423.537Z" transform="translate(-132.719 -145.63)" fill="#fff"/><path d="M183.978,158.165A2.184,2.184,0,1,1,181.794,156,2.184,2.184,0,0,1,183.978,158.165Z" transform="translate(-143.683 -140.837)" fill="#263238"/><path d="M162.848,158.165A2.184,2.184,0,1,1,160.683,156a2.184,2.184,0,0,1,2.165,2.165Z" transform="translate(-135.776 -140.837)" fill="#263238"/><path d="M172.988,158.154a2.178,2.178,0,1,1-.638-1.546A2.184,2.184,0,0,1,172.988,158.154Z" transform="translate(-139.57 -140.826)" fill="#263238"/><rect width="273.521" height="14.506" transform="translate(17.591 158.867)" fill="#263238"/><path d="M165.457,398.38v.463h-2.178v-.363l1.17-1.114a.817.817,0,0,0,.338-.626c0-.269-.188-.426-.551-.426a.826.826,0,0,0-.688.307l-.388-.294a1.377,1.377,0,0,1,1.126-.488c.626,0,1.058.319,1.058.845a1.176,1.176,0,0,1-.494.932l-.788.751Z" transform="translate(-137.527 -230.582)" fill="#fff"/><path d="M167.3,397.35a.35.35,0,1,1,.344.35.338.338,0,0,1-.344-.35Zm0,1.608a.35.35,0,1,1,.159.342A.35.35,0,0,1,167.3,398.959Z" transform="translate(-139.074 -231.018)" fill="#fff"/><path d="M169.9,395.913v2.954h-.544v-2.5h-.626V395.9Z" transform="translate(-139.611 -230.606)" fill="#fff"/><path d="M174.148,398.234h-.526v.67h-.532v-.67H171.47v-.357L172.928,396h.588l-1.377,1.821h.97v-.595h.513v.595h.526Z" transform="translate(-140.637 -230.643)" fill="#fff"/><rect width="224.189" height="1.02" transform="translate(38.337 166.408)" fill="#fff"/><rect width="70.059" height="2.729" transform="translate(38.168 165.313)" fill="#ff8900"/><path d="M294.681,396.461a3.411,3.411,0,1,1-3.411-3.411A3.411,3.411,0,0,1,294.681,396.461Z" transform="translate(-184.189 -229.539)" fill="#ff8900"/><path d="M549.322,397.211a.983.983,0,0,1-1.076.97c-.807,0-1.252-.519-1.252-1.471a1.4,1.4,0,0,1,1.452-1.571,1.5,1.5,0,0,1,.776.194l-.206.413a.977.977,0,0,0-.557-.144c-.557,0-.907.344-.907,1.014h0a1,1,0,0,1,.789-.307.92.92,0,0,1,.983.9Zm-.532,0c0-.307-.232-.5-.588-.5a.538.538,0,0,0-.626.507c0,.275.219.494.626.494a.507.507,0,0,0,.588-.476Z" transform="translate(-281.152 -230.321)" fill="#fff"/><path d="M551.148,396.592a.35.35,0,1,1,.159.342A.35.35,0,0,1,551.148,396.592Zm0,1.608a.35.35,0,1,1,.159.342.35.35,0,0,1-.159-.342Z" transform="translate(-282.709 -230.716)" fill="#fff"/><path d="M552.82,396.641c0-.97.532-1.521,1.252-1.521s1.252.551,1.252,1.521-.532,1.521-1.252,1.521S552.82,397.611,552.82,396.641Zm1.915,0c0-.713-.275-1.039-.682-1.039s-.682.325-.682,1.039.282,1.045.682,1.045S554.735,397.354,554.735,396.641Z" transform="translate(-283.336 -230.314)" fill="#fff"/><path d="M557.35,396.641c0-.97.532-1.521,1.252-1.521s1.251.551,1.251,1.521-.532,1.521-1.251,1.521S557.35,397.611,557.35,396.641Zm1.921,0c0-.713-.282-1.039-.688-1.039s-.676.325-.676,1.039.275,1.045.676,1.045S559.271,397.354,559.271,396.641Z" transform="translate(-285.031 -230.314)" fill="#fff"/><path d="M568.316,395.5H567.29V392.55h2.948v1.02h-1.921Z" transform="translate(-288.75 -229.352)" fill="#fff"/><path d="M570.237,401.641H567.29V398.7h1.02v1.921h1.927Z" transform="translate(-288.75 -231.654)" fill="#fff"/><path d="M577.741,401.638H574.8v-1.02h1.915V398.69h1.026Z" transform="translate(-291.56 -231.65)" fill="#fff"/><path d="M577.738,395.491h-1.02V393.57H574.79v-1.02h2.948Z" transform="translate(-291.557 -229.352)" fill="#fff"/><path d="M195.746,183.08H179.638l-8.048,13.949,8.048,13.943h16.108l8.048-13.943Z" transform="translate(-140.681 -150.97)" fill="#ebebeb"/><path d="M184.954,200.48a14.215,14.215,0,0,1-1.965-2.541,4.862,4.862,0,0,1-.67-3.091,17.167,17.167,0,0,0,.407-1.834c.063-.864-.3-1.765,0-2.572.476-1.252,2.172-1.458,3.2-2.328.8-.682,1.2-1.784,2.078-2.353a3.911,3.911,0,0,1,2.672-.363,9.858,9.858,0,0,0,2.735.238,18.431,18.431,0,0,0,1.877-.507,2.572,2.572,0,0,1,1.877.131,1.252,1.252,0,0,1,.513,1.671,2.08,2.08,0,0,1,2.685,1.458,3.129,3.129,0,0,1-1.183,3.085,6.884,6.884,0,0,1-3.192,1.3,13.257,13.257,0,0,1-9.525-1.483" transform="translate(-144.684 -151.692)" fill="#263238"/><path d="M201.182,205.439c-.106-2-.663-6.089-1.214-9.788a7.722,7.722,0,0,0-8.135-6.571h-.4c-4.281.538-6.214,4.474-5.557,8.761l1.252,15.364h10.451s-.25-2.7-.25-2.722S201.407,209.569,201.182,205.439Z" transform="translate(-145.98 -153.209)" fill="#ffbe9d"/><path d="M200.958,222.51a9.681,9.681,0,0,1-5.488-1.17s1.477,2.885,5.57,2.24Z" transform="translate(-149.617 -165.287)" fill="#eb996e"/><path d="M205.651,204.955a.582.582,0,0,1-.526.626.557.557,0,0,1-.626-.488.588.588,0,0,1,.526-.626.557.557,0,0,1,.626.488Z" transform="translate(-152.995 -158.971)" fill="#263238"/><path d="M205.861,202.582c-.069.081-.538-.219-1.177-.175s-1.076.394-1.151.319,0-.175.225-.338a1.64,1.64,0,0,1,.914-.35,1.539,1.539,0,0,1,.939.238C205.817,202.413,205.892,202.545,205.861,202.582Z" transform="translate(-152.624 -158.062)" fill="#263238"/><path d="M196.071,205.642a.626.626,0,0,1-.526.626.569.569,0,0,1-.626-.494.626.626,0,0,1,.526-.626.57.57,0,0,1,.626.494Z" transform="translate(-149.411 -159.226)" fill="#263238"/><path d="M195.9,203.438c-.069.081-.538-.219-1.177-.175s-1.076.388-1.151.319,0-.175.225-.338a1.627,1.627,0,0,1,1.877-.119C195.857,203.263,195.932,203.4,195.9,203.438Z" transform="translate(-148.897 -158.38)" fill="#263238"/><path d="M201.1,207.868a4.148,4.148,0,0,1,1.02-.257c.163,0,.313-.069.332-.181a.826.826,0,0,0-.138-.469l-.563-1.2a21.687,21.687,0,0,1-1.3-3.129,21.085,21.085,0,0,1,1.546,3.048c.188.419.369.826.544,1.208a1,1,0,0,1,.125.626.426.426,0,0,1-.25.257,1.251,1.251,0,0,1-.275.056A4.105,4.105,0,0,1,201.1,207.868Z" transform="translate(-151.484 -158.285)" fill="#263238"/><path d="M195.564,199.53c-.05.175-.688.138-1.427.282s-1.327.382-1.439.232.05-.238.282-.426a2.422,2.422,0,0,1,1.045-.444,2.347,2.347,0,0,1,1.133.056C195.439,199.324,195.589,199.449,195.564,199.53Z" transform="translate(-148.566 -156.976)" fill="#263238"/><path d="M205.386,199.636c-.106.15-.551.031-1.076.056s-.964.163-1.076,0,0-.219.194-.369a1.47,1.47,0,0,1,.857-.294,1.521,1.521,0,0,1,.876.232C205.355,199.417,205.43,199.561,205.386,199.636Z" transform="translate(-152.505 -156.937)" fill="#263238"/><path d="M185.224,207.964c-.075,0-2.9-.626-2.616,2.172s3.336,1.877,3.329,1.815S185.224,207.964,185.224,207.964Z" transform="translate(-144.797 -160.259)" fill="#ffbe9d"/><path d="M185.112,211.545a.881.881,0,0,1-.119.081.494.494,0,0,1-.369.044,1.214,1.214,0,0,1-.67-1.033,1.565,1.565,0,0,1,.069-.713.563.563,0,0,1,.332-.419.257.257,0,0,1,.3.106c.05.075.038.138.05.138s.056-.05,0-.169a.319.319,0,0,0-.125-.163.357.357,0,0,0-.282-.044.707.707,0,0,0-.469.488,1.678,1.678,0,0,0-.088.8,1.252,1.252,0,0,0,.832,1.145.538.538,0,0,0,.444-.119C185.149,211.638,185.149,211.545,185.112,211.545Z" transform="translate(-145.223 -160.804)" fill="#eb996e"/><path d="M199.478,191.366c-.194,1.12-2.472,2.153-4.381,2.1-1.74-.05-2.6-.914-3.861-1.527a2.113,2.113,0,0,0-1.877-.213c-.876.144-1.333,1.177-1.821,1.921.939,2.046.557,4.424.156,6.64a1.1,1.1,0,0,1-.282.67.9.9,0,0,1-1.145-.169,3.517,3.517,0,0,1-.889-1.79,11.7,11.7,0,0,1-.275-4.587,7.9,7.9,0,0,1,1.877-4.137,7.51,7.51,0,0,1,5.125-2.334,9.23,9.23,0,0,1,5.463,1.546,5.5,5.5,0,0,1,1.877,1.877" transform="translate(-145.697 -152.785)" fill="#263238"/><path d="M200.81,212.882l-1.439-.67a.482.482,0,0,0-.263-.063.394.394,0,0,0-.244.169,1.327,1.327,0,0,0-.163,1.464,1.12,1.12,0,0,0,1.352.494,1.533,1.533,0,0,0,.795-1.352Z" transform="translate(-150.771 -161.847)" fill="#eb996e"/><path d="M199.939,214.236a.977.977,0,0,1-.845.075,1.339,1.339,0,0,1-.745-.626,1.371,1.371,0,0,1-.094-1.177,1.372,1.372,0,0,1,.595-.707.4.4,0,0,1,.376,0c.332.181.551.338.77.476.419.282.67.476.626.513s-.313-.081-.763-.313l-.77-.4h-.113a1.184,1.184,0,0,0-.175.144,1.089,1.089,0,0,0-.263.413,1.127,1.127,0,0,0,.05.914,1.17,1.17,0,0,0,.563.532A3.438,3.438,0,0,0,199.939,214.236Z" transform="translate(-150.626 -161.7)" fill="#263238"/><path d="M196.661,203.52a2.445,2.445,0,0,0-.15-.7,2.941,2.941,0,0,0-1.083-1.546,2.8,2.8,0,1,0,0,4.5,2.941,2.941,0,0,0,1.083-1.546c.125-.444.119-.707.15-.707s0,.069,0,.194a2.2,2.2,0,0,1-.056.544,2.9,2.9,0,0,1-1.058,1.7,3.079,3.079,0,1,1,0-4.862,2.9,2.9,0,0,1,1.058,1.7,2.17,2.17,0,0,1,.056.544C196.68,203.457,196.674,203.52,196.661,203.52Z" transform="translate(-147.792 -157.467)" fill="#263238"/><path d="M207.983,203.126a5.381,5.381,0,0,0-.15-.682,2.847,2.847,0,0,0-1.051-1.5,2.729,2.729,0,1,0,0,4.381,2.848,2.848,0,0,0,1.051-1.5c.125-.432.119-.688.15-.688s0,.063,0,.188a2.368,2.368,0,0,1-.05.532A2.854,2.854,0,0,1,206.9,205.5a3,3,0,1,1,0-4.744,2.866,2.866,0,0,1,1.033,1.658,2.309,2.309,0,0,1,.05.532C208,203.064,208,203.126,207.983,203.126Z" transform="translate(-152.086 -157.349)" fill="#263238"/><path d="M201.493,203.628c-.063.056-.344-.125-.72-.113s-.626.194-.713.138.175-.451.707-.463S201.575,203.578,201.493,203.628Z" transform="translate(-151.329 -158.495)" fill="#263238"/><path d="M189.592,204.7c.056.069-.494.569-1.22,1.114a4.2,4.2,0,0,1-1.414.851c-.056-.069.494-.57,1.22-1.114A4.137,4.137,0,0,1,189.592,204.7Z" transform="translate(-146.43 -159.06)" fill="#263238"/><path d="M264.662,205.043c0,.088-7.241.163-16.171.163s-16.171-.075-16.171-.163,7.241-.163,16.171-.163S264.662,204.955,264.662,205.043Z" transform="translate(-163.406 -159.127)" fill="#263238"/><path d="M249.822,210.449c0,.088-3.842.163-8.586.163s-8.586-.075-8.586-.163,3.842-.169,8.586-.169S249.822,210.355,249.822,210.449Z" transform="translate(-163.53 -161.148)" fill="#263238"/></g><g transform="translate(997.046 1932.771)"><path d="M434.214,245.09a24.644,24.644,0,0,1,11.615,15.019c3.023,10.814,12.266,38.975,12.266,38.975s5.282,6.214,5.845,10.814-.563,15.733-2.265,17.81a4.775,4.775,0,0,1-4.118,1.733l-22.235-2.109-8.761-58.625Z" transform="translate(-310.804 -164.736)" fill="#ff8900"/><path d="M309.433,238.768s-15.9,5.006-19.863,9.324l13.017,60.553-.232,19.112h75.4c0-.945.676-63.444.676-63.444l4.525-24.525-26.778-4.712-5.282-4.155-29.807,1.514-4.531,4.525Z" transform="translate(-259.543 -159.434)" fill="#ff8900"/><g transform="translate(42.919 130.666)" opacity="0.3"><path d="M323.206,326.69c-.232-.513-.569-1.07-1.12-1.183-.907-.188-1.514.882-1.821,1.759a79.831,79.831,0,0,1-9.9,19.331l-.194,9.3c4.381-3.7,8.724-7.66,11.527-12.673S325.546,331.922,323.206,326.69Z" transform="translate(-310.17 -325.485)"/></g><path d="M271.616,258.36s-5.238,7.14-7.409,11.8-20.2,43.806-21.277,47.855-3.88,16.778,4.349,19.732h16.941l17-34.376.87-39.9Z" transform="translate(-241.589 -169.702)" fill="#ff8900"/><path d="M267.119,343.9a7.494,7.494,0,0,0-1.158-.776,13.14,13.14,0,0,0-3.555-1.289,17.118,17.118,0,0,0-2.591-.363,10.326,10.326,0,0,0-3,.213,11.058,11.058,0,0,0-5.7,3.58,15.544,15.544,0,0,0-3.229,6,29.946,29.946,0,0,0-1.014,5.538c-.163,1.6-.219,2.91-.275,3.8,0,.426-.05.77-.063,1.039a1.315,1.315,0,0,1-.05.363,2.729,2.729,0,0,1,0-.363c0-.275,0-.626,0-1.039,0-.907.038-2.209.169-3.824a28.889,28.889,0,0,1,.957-5.632,15.57,15.57,0,0,1,3.273-6.133,11.264,11.264,0,0,1,5.883-3.655,10.23,10.23,0,0,1,3.054-.169,16.467,16.467,0,0,1,2.622.407,12.359,12.359,0,0,1,3.567,1.4,6.261,6.261,0,0,1,.845.626A1.779,1.779,0,0,1,267.119,343.9Z" transform="translate(-243.419 -200.68)" fill="#263238"/><path d="M266.63,334.529a2.2,2.2,0,0,1,.569-.088,10.117,10.117,0,0,1,1.571,0,13.077,13.077,0,0,1,2.309.344,13.768,13.768,0,0,1,5.138,2.453,12.8,12.8,0,0,1,1.721,1.577,10.112,10.112,0,0,1,.97,1.252,2.141,2.141,0,0,1,.288.5c-.05.038-.513-.626-1.427-1.577a15.362,15.362,0,0,0-1.733-1.5,15.641,15.641,0,0,0-2.4-1.439,16.491,16.491,0,0,0-2.628-.964,15.024,15.024,0,0,0-2.253-.4C267.45,334.523,266.63,334.592,266.63,334.529Z" transform="translate(-250.959 -198.16)" fill="#263238"/><path d="M279.423,331.2a3.5,3.5,0,0,1-.782-.056c-.5-.063-1.22-.138-2.122-.206a36.245,36.245,0,0,0-13.849,1.658c-.857.275-1.546.519-2.015.7a3.938,3.938,0,0,1-.745.244,3.132,3.132,0,0,1,.695-.363c.457-.219,1.139-.494,1.99-.8a31.965,31.965,0,0,1,13.949-1.665c.895.094,1.621.2,2.115.307A4.115,4.115,0,0,1,279.423,331.2Z" transform="translate(-248.444 -196.711)" fill="#263238"/><path d="M354.9,264.074a.889.889,0,0,1-.175-.206l-.463-.626-1.7-2.353c-1.458-2.065-3.5-4.944-5.9-8.323l.263-.038c-.914,2.678-1.921,5.632-2.979,8.761l-.069.194-.175-.113-.35-.225a18.038,18.038,0,0,1-3.686-3.129,21.936,21.936,0,0,1-2.635-3.642,30.7,30.7,0,0,1-2.9-6.99,48.8,48.8,0,0,1-1.1-5.006c-.1-.563-.175-1.02-.238-1.364a2.162,2.162,0,0,0-.081-.344.3.3,0,0,0-.037-.119,9.523,9.523,0,0,1,.482,1.809,49.419,49.419,0,0,0,1.2,4.944,30.913,30.913,0,0,0,2.935,6.921,22.347,22.347,0,0,0,2.61,3.58,17.75,17.75,0,0,0,3.617,3.054l.344.225-.238.088c1.07-3.129,2.084-6.064,3.01-8.761l.094-.275.169.238c2.353,3.411,4.381,6.314,5.8,8.392.682,1.014,1.251,1.821,1.633,2.409l.419.626A1.477,1.477,0,0,1,354.9,264.074Z" transform="translate(-275.674 -163.037)" fill="#263238"/><g transform="translate(98.685 129.943)" opacity="0.3"><path d="M399.437,324.33a34.307,34.307,0,0,0,4.381,20.314c3.5,6.1,8.649,11.534,15.051,14.45.207-6.214-.094-13.536.113-19.75Z" transform="translate(-399.281 -324.33)"/></g><path d="M397.532,302.4s-2.741.757-.688,6.371,2.741,5.269,4.112,10.513,2.966,10.013,5.357,13,11.3,9.012,11.3,9.012l7.985-7.51s-1.314-5.632-1-9.425,1.114-13.142,1-14.763-1.827-5.476-1.827-5.476v-2.653l-4.105-12.629s-2.284-1.026-3.079,2.622l-1.37-3.874s-2.165-.344-2.735,4.105a44.77,44.77,0,0,0,.457,10.607l-1.145,7.754-1.708,5.25-1.483.225s-2.234-.626-3.454-4.812S400.611,301.489,397.532,302.4Z" transform="translate(-299.399 -180.64)" fill="#ffbe9d"/><path d="M433.682,333.485a1.621,1.621,0,0,0-.038-.282,7.942,7.942,0,0,1-.056-.839c-.044-.764-.1-1.821-.169-3.129-.125-2.722-.294-6.515-.494-10.939l.031.094a1.608,1.608,0,0,0-1.615-.426,2.371,2.371,0,0,0-1.477,1.089,10.582,10.582,0,0,0-.958,3.993c-.432,3.2-.845,6.258-1.22,9.018-.188,1.389-.388,2.7-.657,3.924a24.8,24.8,0,0,1-1,3.329,26.864,26.864,0,0,0-.857,2.71,8.43,8.43,0,0,0-.257,2.1,6.671,6.671,0,0,0,.313,1.79,2.777,2.777,0,0,1-.188-.438,4.711,4.711,0,0,1-.25-1.345,7.978,7.978,0,0,1,.207-2.159,24.41,24.41,0,0,1,.82-2.741,25.539,25.539,0,0,0,.939-3.31c.257-1.208.451-2.5.626-3.905.363-2.779.77-5.82,1.2-9.024.1-.707.175-1.414.3-2.115a5.577,5.577,0,0,1,.7-2.009,2.691,2.691,0,0,1,1.683-1.214,1.877,1.877,0,0,1,1.921.526l.031.044v.05c.156,4.424.288,8.217.382,10.945,0,1.32.056,2.378.081,3.129v.839A1.412,1.412,0,0,1,433.682,333.485Z" transform="translate(-310.141 -191.859)" fill="#eb996e"/><path d="M431.016,313.515a3.128,3.128,0,0,1-.338-.713,19.018,19.018,0,0,1-.67-2.04,21.042,21.042,0,0,1-.569-3.129,9.1,9.1,0,0,1-.038-1.878,4.085,4.085,0,0,1,.688-1.952,2.8,2.8,0,0,1,1.464-1.1l.119-.031.063.106c1.158,2.04,2.165,3.842,2.866,5.138l.82,1.533a2.44,2.44,0,0,1,.263.576,2.843,2.843,0,0,1-.363-.519l-.9-1.483c-.751-1.252-1.8-3.048-2.96-5.082l.181.075a2.5,2.5,0,0,0-1.283.976,3.755,3.755,0,0,0-.626,1.8,9.024,9.024,0,0,0,0,1.84,23.518,23.518,0,0,0,.494,3.129c.2.876.419,1.577.563,2.059A3.672,3.672,0,0,1,431.016,313.515Z" transform="translate(-311.855 -186.282)" fill="#eb996e"/><path d="M428.733,310.6a2.931,2.931,0,0,1-.075-.732c0-.538-.05-1.2-.081-1.984-.05-1.677-.106-3.993-.138-6.552a56.672,56.672,0,0,1,.1-6.565,10.322,10.322,0,0,1,.426-1.953,2.275,2.275,0,0,1,.294-.676,18.316,18.316,0,0,0-.494,2.653c-.156,1.658,0,3.974,0,6.533s.05,4.875.044,6.552v1.99A3.36,3.36,0,0,1,428.733,310.6Z" transform="translate(-311.488 -182.342)" fill="#eb996e"/><path d="M418.148,347.523c-.044-.038.457-.626,1.07-1.7a14.236,14.236,0,0,0,.932-1.946,16.054,16.054,0,0,0,.713-2.541,15.776,15.776,0,0,0,.219-2.628,14.573,14.573,0,0,0-.188-2.146c-.207-1.22-.469-1.946-.413-1.965a1.877,1.877,0,0,1,.225.494,9.022,9.022,0,0,1,.413,1.427,12.2,12.2,0,0,1,.263,2.184,12.923,12.923,0,0,1-.957,5.288,12.222,12.222,0,0,1-1.008,1.952,8.966,8.966,0,0,1-.882,1.189C418.3,347.4,418.167,347.535,418.148,347.523Z" transform="translate(-307.655 -198.23)" fill="#eb996e"/><path d="M436.782,349l6.928,2.4s6.621-3.423,11.183,0,8.524,12.441,7.272,16.089c0,0-3.129,3.893-5.545,4.462s-11.709-1.69-15.583-2.5-10.557-5.157-10.557-5.157Z" transform="translate(-312.271 -203.619)" fill="#ffbe9d"/><path d="M441.685,355.92a2.773,2.773,0,0,1-.075-.626c0-.469-.056-1.026-.094-1.677-.075-1.414-.169-3.367-.2-5.532s.031-4.124.156-5.538c.063-.707.144-1.252.213-1.671a2.083,2.083,0,0,1,.144-.626c.05,0-.056.876-.125,2.29s-.094,3.361-.063,5.52.075,4.024.1,5.526v1.677A2.057,2.057,0,0,1,441.685,355.92Z" transform="translate(-316.322 -200.345)" fill="#eb996e"/><path d="M467.149,349.428a22.073,22.073,0,0,0-2.3-2.078,12.685,12.685,0,0,0-14.043-.77,22.62,22.62,0,0,0-2.5,1.809,3.706,3.706,0,0,1,.57-.626,11.479,11.479,0,0,1,1.834-1.389,12.46,12.46,0,0,1,14.306.795,10.987,10.987,0,0,1,1.665,1.583A3.526,3.526,0,0,1,467.149,349.428Z" transform="translate(-318.939 -201.931)" fill="#263238"/><path d="M465,341.582a13.833,13.833,0,0,0-2.885-1.59,12.729,12.729,0,0,0-7.8-.232,18.224,18.224,0,0,0-4.036,1.677,19.148,19.148,0,0,0-2.922,2.065c-.776.663-1.37,1.252-1.777,1.646a5.007,5.007,0,0,1-.657.626,4.314,4.314,0,0,1,.563-.7,21.632,21.632,0,0,1,1.721-1.733,17.979,17.979,0,0,1,2.923-2.147,17.331,17.331,0,0,1,4.1-1.733,12.466,12.466,0,0,1,7.973.332,9.246,9.246,0,0,1,2.134,1.2c.232.169.388.332.507.432A.687.687,0,0,1,465,341.582Z" transform="translate(-317.674 -199.862)" fill="#263238"/><path d="M464.266,334.491c0,.063-1.252-.307-3.242-.576a25.436,25.436,0,0,0-3.548-.225,27.86,27.86,0,0,0-4.337.388,28.4,28.4,0,0,0-4.212,1.114,25,25,0,0,0-3.26,1.427c-1.8.939-2.81,1.7-2.847,1.646a4.44,4.44,0,0,1,.695-.551,7.954,7.954,0,0,1,.857-.588c.344-.219.732-.476,1.183-.713a24.031,24.031,0,0,1,3.273-1.5,25.778,25.778,0,0,1,4.255-1.151,26.327,26.327,0,0,1,4.381-.369,23.448,23.448,0,0,1,3.586.294c.507.063.957.181,1.352.263a9.7,9.7,0,0,1,1.014.263A5.167,5.167,0,0,1,464.266,334.491Z" transform="translate(-316.888 -197.778)" fill="#263238"/><path d="M382.088,237.23a5.753,5.753,0,0,1,.476,1.84,17.709,17.709,0,0,1-.263,5.376,30.811,30.811,0,0,1-.895,3.755,28.517,28.517,0,0,1-1.815,4.162c-1.5,2.879-3.373,6.014-5.551,9.387l-.25.394v-7.416l.244.119-5.876,4.687.05-.075a61.48,61.48,0,0,0-2.553,14.049,163.393,163.393,0,0,0,.244,21.509c.357,6.608.513,12.572.72,17.579s.375,9.049.526,11.846c.088,1.389.15,2.466.194,3.217,0,.357.044.626.056.839a1.529,1.529,0,0,1,0,.288,1.4,1.4,0,0,0-.044-.282c-.044-.188-.05-.482-.088-.839-.069-.732-.156-1.815-.25-3.217-.188-2.791-.407-6.84-.626-11.846s-.488-10.958-.788-17.573-.845-13.905-.269-21.547a61.194,61.194,0,0,1,2.622-14.124v-.044h.038l5.858-4.7.244-.2v7.259l-.257-.081c4.3-6.665,7.8-12.46,8.336-17.147a18.378,18.378,0,0,0,.338-5.332,9.565,9.565,0,0,0-.257-1.389A4.973,4.973,0,0,1,382.088,237.23Z" transform="translate(-287.797 -161.795)" fill="#263238"/><path d="M373.216,366.22h-.2a1.759,1.759,0,1,0,.225,0Z" transform="translate(-290.152 -210.063)" fill="#fff"/><path d="M373.22,327.68h-.2a1.752,1.752,0,1,0,.225,0Z" transform="translate(-290.156 -195.641)" fill="#fff"/><path d="M372.945,291.093a1.765,1.765,0,0,0,.232-3.523h-.232a1.765,1.765,0,1,0,0,3.53Z" transform="translate(-290.081 -180.632)" fill="#fff"/><path d="M325.881,163.863a45.366,45.366,0,0,1-6-7.741,14.568,14.568,0,0,1-2.028-9.387c.313-1.877,1.114-3.692,1.252-5.632.175-2.628-.926-5.376,0-7.835,1.452-3.855,6.64-4.449,9.781-7.109,2.447-2.071,3.636-5.432,6.327-7.172,2.353-1.527,5.376-1.489,8.135-1.1s5.563,1.1,8.342.72a53.5,53.5,0,0,0,5.776-1.546,7.767,7.767,0,0,1,5.826.4c1.721,1.026,2.7,3.448,1.565,5.094,3.217-1.483,7.3,1.026,8.185,4.456s-.882,7.14-3.611,9.387-6.258,3.317-9.731,3.974c-9.85,1.877-20.545.807-29.037-4.525" transform="translate(-270.071 -116.69)" fill="#263238"/><path d="M364.467,201.6c-.482-3.755-.876-6.84-.9-7.228,0,0,12.466-2.8,11.778-15.407-.332-6.1-2.034-18.586-3.711-29.87A23.505,23.505,0,0,0,346.8,129.068l-1.252.075C332.5,130.789,326.6,142.792,328.6,155.8l7.047,43.6s3,9.644,9.431,11.315l8.136,11.59,1.339-5.006,6.045-5.269a23.815,23.815,0,0,0,2.985-4.437A9.737,9.737,0,0,0,364.467,201.6Z" transform="translate(-274.006 -121.301)" fill="#ffbe9d"/><path d="M374.7,231.033a29.375,29.375,0,0,1-16.734-3.573s4.493,8.805,16.984,6.834Z" transform="translate(-285.138 -158.139)" fill="#eb996e"/><path d="M388.979,177.5a1.809,1.809,0,0,1-1.615,1.934,1.721,1.721,0,0,1-1.959-1.5,1.8,1.8,0,0,1,1.621-1.946,1.721,1.721,0,0,1,1.953,1.514Z" transform="translate(-295.402 -138.873)" fill="#263238"/><path d="M389.674,170.288c-.207.25-1.64-.67-3.573-.532s-3.267,1.2-3.517.983c-.106-.094.094-.532.682-1.026a4.925,4.925,0,0,1,2.791-1.07,4.719,4.719,0,0,1,2.866.72C389.549,169.763,389.774,170.176,389.674,170.288Z" transform="translate(-294.338 -136.125)" fill="#263238"/><path d="M359.76,179.6a1.8,1.8,0,0,1-1.615,1.927,1.715,1.715,0,0,1-1.959-1.5A1.809,1.809,0,0,1,357.8,178.1a1.727,1.727,0,0,1,1.965,1.5Z" transform="translate(-284.469 -139.662)" fill="#263238"/><path d="M359.313,172.891c-.213.25-1.64-.67-3.573-.532s-3.292,1.2-3.517.97c-.113-.094.088-.532.676-1.026a4.962,4.962,0,0,1,2.8-1.07,4.713,4.713,0,0,1,2.86.72C359.181,172.365,359.413,172.778,359.313,172.891Z" transform="translate(-282.976 -137.095)" fill="#263238"/><path d="M375.15,186.47a12.992,12.992,0,0,1,3.129-.782c.488-.081.951-.213,1.014-.551a2.534,2.534,0,0,0-.432-1.446l-1.715-3.667c-2.384-5.219-4.149-9.531-3.936-9.625s2.315,4.061,4.706,9.287l1.652,3.692a2.879,2.879,0,0,1,.388,1.921,1.252,1.252,0,0,1-.763.776,3.367,3.367,0,0,1-.832.175A13,13,0,0,1,375.15,186.47Z" transform="translate(-290.834 -136.787)" fill="#263238"/><path d="M358.288,160.987c-.156.544-2.1.419-4.381.845s-4.049,1.17-4.381.72c-.15-.219.138-.732.845-1.3a7.754,7.754,0,0,1,6.652-1.189C357.906,160.349,358.357,160.737,358.288,160.987Z" transform="translate(-281.964 -132.813)" fill="#263238"/><path d="M388.235,161.332c-.307.463-1.671.1-3.279.181s-2.941.494-3.285.056c-.15-.213.038-.67.626-1.126a4.769,4.769,0,0,1,5.288-.188C388.16,160.669,388.373,161.082,388.235,161.332Z" transform="translate(-293.988 -132.726)" fill="#263238"/><path d="M326.717,186.523c-.219-.075-8.824-1.978-7.973,6.615s10.151,5.789,10.151,5.545S326.717,186.523,326.717,186.523Z" transform="translate(-270.438 -142.735)" fill="#ffbe9d"/><path d="M326.406,197.608c-.044,0-.138.119-.382.257a1.489,1.489,0,0,1-1.114.138c-.945-.244-1.877-1.608-2.046-3.129a5.006,5.006,0,0,1,.206-2.184,1.746,1.746,0,0,1,1.014-1.252.77.77,0,0,1,.926.325c.138.232.1.407.144.413s.169-.156.069-.507a.976.976,0,0,0-.394-.507,1.164,1.164,0,0,0-.876-.175,2.115,2.115,0,0,0-1.427,1.489,5.076,5.076,0,0,0-.282,2.447c.225,1.727,1.252,3.26,2.547,3.492a1.608,1.608,0,0,0,1.352-.363C326.412,197.814,326.456,197.62,326.406,197.608Z" transform="translate(-271.753 -144.483)" fill="#eb996e"/><path d="M370.2,136.075c-.588,3.423-7.51,6.558-13.28,6.389-5.3-.156-7.923-2.785-11.771-4.656-2.441-1.183-2.441-1.183-5.751-.626-2.672.432-4.062,3.592-5.564,5.845,2.86,6.258,1.7,13.492.488,20.251a3.417,3.417,0,0,1-.87,2.053c-.964.851-2.5.344-3.479-.526a10.646,10.646,0,0,1-2.71-5.463,35.346,35.346,0,0,1-.851-13.974,24.219,24.219,0,0,1,5.807-12.641A22.942,22.942,0,0,1,347.86,125.6a28.161,28.161,0,0,1,16.659,4.731,16.768,16.768,0,0,1,5.695,5.739" transform="translate(-273.201 -120.017)" fill="#263238"/><path d="M374.238,201.66l-4.381-2.04a1.445,1.445,0,0,0-.795-.2,1.252,1.252,0,0,0-.757.513,4.061,4.061,0,0,0-.488,4.475,3.429,3.429,0,0,0,4.112,1.514c1.552-.626,2.3-2.447,2.428-4.124Z" transform="translate(-288.652 -147.646)" fill="#eb996e"/><path d="M371.763,205.921c0,.038-.207.163-.626.257a3.793,3.793,0,0,1-1.877-.138,3.911,3.911,0,0,1-2.172-1.809,4.024,4.024,0,0,1-.269-3.454,4.186,4.186,0,0,1,1.014-1.533,4.022,4.022,0,0,1,.713-.538,1.127,1.127,0,0,1,.507-.156,1.164,1.164,0,0,1,.507.094,7.779,7.779,0,0,1,.682.388l.594.369,1.07.663a9.909,9.909,0,0,1,2.034,1.452,9.511,9.511,0,0,1-2.266-1.051l-1.108-.626-.626-.344c-.213-.106-.438-.25-.626-.325a.463.463,0,0,0-.482.05,3.408,3.408,0,0,0-.576.457,3.755,3.755,0,0,0-.851,1.3,3.53,3.53,0,0,0,.188,2.935,3.617,3.617,0,0,0,1.809,1.665,4.412,4.412,0,0,0,1.7.319C371.513,205.915,371.745,205.878,371.763,205.921Z" transform="translate(-288.349 -147.321)" fill="#263238"/><path d="M361.839,173.315a15.3,15.3,0,0,0-.344-2.178,8.874,8.874,0,0,0-11.634-6.114,8.436,8.436,0,0,0-2.234,1.208,8.137,8.137,0,0,0-1.877,1.877,8.762,8.762,0,0,0,0,10.42,8.137,8.137,0,0,0,1.877,1.877,8.435,8.435,0,0,0,2.234,1.208A8.9,8.9,0,0,0,361.5,175.5a15.448,15.448,0,0,0,.344-2.172.481.481,0,0,1,0,.144c0,.113,0,.257,0,.426a3.643,3.643,0,0,1-.05.695,7.007,7.007,0,0,1-.169.939,8.592,8.592,0,0,1-.97,2.422,9.055,9.055,0,0,1-10.9,3.943,8.6,8.6,0,0,1-2.309-1.252,8.484,8.484,0,0,1-1.94-1.934,9.074,9.074,0,0,1,0-10.8,8.339,8.339,0,0,1,1.934-1.934,8.606,8.606,0,0,1,2.309-1.252,9.061,9.061,0,0,1,10.9,3.943,8.593,8.593,0,0,1,.97,2.422,7,7,0,0,1,.169.939,3.648,3.648,0,0,1,.05.695v.426A.545.545,0,0,1,361.839,173.315Z" transform="translate(-279.808 -134.465)" fill="#263238"/><path d="M396.361,172.111a15.467,15.467,0,0,0-.332-2.121,8.718,8.718,0,0,0-3.192-4.737,8.48,8.48,0,0,0-3.63-1.6,8.63,8.63,0,0,0-4.518.382,8.41,8.41,0,0,0-2.172,1.17,8.242,8.242,0,0,0-1.815,1.827,8.567,8.567,0,0,0,0,10.151,8.085,8.085,0,0,0,1.815,1.821,8.25,8.25,0,0,0,2.172,1.177,8.692,8.692,0,0,0,4.518.382,8.48,8.48,0,0,0,3.63-1.6,8.717,8.717,0,0,0,3.192-4.737,15.465,15.465,0,0,0,.332-2.121,3.456,3.456,0,0,1,0,.557,4.1,4.1,0,0,1-.05.682,6.768,6.768,0,0,1-.163.914,8.818,8.818,0,0,1-6.884,6.571,8.88,8.88,0,1,1,0-17.447,8.818,8.818,0,0,1,6.884,6.571,6.772,6.772,0,0,1,.163.914,4.094,4.094,0,0,1,.05.682,3.456,3.456,0,0,1,0,.557Z" transform="translate(-292.902 -134.106)" fill="#263238"/><path d="M376.372,173.665c-.038.031-.244-.138-.626-.319a3.549,3.549,0,0,0-1.577-.344,3.423,3.423,0,0,0-1.558.4c-.375.194-.576.375-.626.338s.113-.275.488-.538a3.066,3.066,0,0,1,3.367-.056A1.447,1.447,0,0,1,376.372,173.665Z" transform="translate(-290.379 -137.637)" fill="#263238"/><path d="M340.045,176.73a39.56,39.56,0,0,1-3.917,3.129,40.054,40.054,0,0,1-4.118,2.872,37.719,37.719,0,0,1,3.924-3.129A38.887,38.887,0,0,1,340.045,176.73Z" transform="translate(-275.424 -139.156)" fill="#263238"/><g transform="translate(57.067 78.301)" opacity="0.3"><path d="M332.917,241.81c-.87,8.492,2.359,17.46,9.174,22.6a2.044,2.044,0,0,0,1.834.576,2,2,0,0,0,.951-.976A16.6,16.6,0,0,0,346.9,253.1c-1.076,2.841-2,5.632-3.092,8.6C337.886,258.093,334.168,250.434,332.917,241.81Z" transform="translate(-332.778 -241.81)"/></g><path d="M369.87,260.658l5.006-1.827.826,8.455s5.394-9.831,7.629-14.312,1.083-12.4,1.083-12.4.795,6.884-4.606,15.689l-4.08,6.633v-6.946Z" transform="translate(-289.591 -163.045)" opacity="0.3"/><g transform="translate(4.548 139.519)" opacity="0.3"><path d="M266.469,340.7a13.341,13.341,0,0,0-7.241-.907,13.937,13.937,0,0,0-7.209,2.728,7.981,7.981,0,0,0-3.129,6.8l.25.031c1.746-4.719,5.213-8.135,9.687-8.567a14.567,14.567,0,0,1,11.89,4.856C270.386,343.186,268.672,341.74,266.469,340.7Z" transform="translate(-248.856 -339.633)"/></g><g transform="translate(130.037 141.859)" opacity="0.3"><path d="M467.879,346.894a11.433,11.433,0,0,0-6.458-3.323,14.481,14.481,0,0,0-12.041,3.486l.951-.776a15.2,15.2,0,0,1,8.023-2.178A11.584,11.584,0,0,1,466,347.157a20.2,20.2,0,0,1,4.068,6.533A8.18,8.18,0,0,0,467.879,346.894Z" transform="translate(-449.38 -343.372)"/></g><path d="M427.45,276.088a3.408,3.408,0,0,1,.225-.682c.194-.494.432-1.1.707-1.821.626-1.533,1.439-3.648,2.315-6.008s1.633-4.506,2.178-6.058l.626-1.846a3.268,3.268,0,0,1,.275-.663,2.6,2.6,0,0,1-.156.7c-.119.451-.307,1.089-.551,1.877-.488,1.577-1.214,3.755-2.09,6.1s-1.746,4.475-2.409,5.983c-.325.757-.626,1.364-.807,1.784A2.875,2.875,0,0,1,427.45,276.088Z" transform="translate(-311.137 -169.945)" fill="#263238"/><path d="M299.737,279.287c-.088,0-.77-2.96-1.521-6.652s-1.289-6.665-1.22-6.715.763,2.96,1.514,6.652S299.825,279.268,299.737,279.287Z" transform="translate(-262.32 -172.53)" fill="#263238"/><path d="M298.12,322.4c.2.1-2.29-19.5-2.29-19.5s1.571-14.875,2.453-15.564v-5.251s2.434-1.471,3.085.907c0,0,2.159-1.877,2.5,2.585s.457,9.018.457,9.018l4.8,12,.789.4s1.033-9.387,1.633-10.789,1.014-4.75,3.285-4.243,2.466,2.384,2.059,5.451-.92,6.258-.726,8.223,1.089,6.339.814,9.806a19.556,19.556,0,0,1-4.168,9.688c-1.99,2.566-5.8,7.879-7.866,9.475C304.278,335.168,298.12,322.4,298.12,322.4Z" transform="translate(-261.885 -178.41)" fill="#ffbe9d"/><path d="M302.034,310a3.741,3.741,0,0,1,0-.839c.037-.626.094-1.364.156-2.278.144-1.921.369-4.575.626-7.51.138-1.458.269-2.847.388-4.124a7.344,7.344,0,0,0,0-1.771,2.5,2.5,0,0,0-.626-1.352,2.679,2.679,0,0,0-1.959-.857,5.555,5.555,0,0,0-.82.1.762.762,0,0,1,.2-.1,2.116,2.116,0,0,1,.626-.131,2.754,2.754,0,0,1,2.134.832,2.678,2.678,0,0,1,.695,1.471,7.168,7.168,0,0,1,0,1.834c-.113,1.252-.238,2.672-.363,4.13-.269,2.929-.532,5.576-.738,7.51l-.257,2.272A4.767,4.767,0,0,1,302.034,310Z" transform="translate(-263.371 -181.965)" fill="#eb996e"/><path d="M305.847,308.469a6.806,6.806,0,0,0-.851,1.546,25.931,25.931,0,0,0-.795,4.23c-.263,1.677-.513,3.192-.713,4.287a9.39,9.39,0,0,1-.388,1.759,10.447,10.447,0,0,1,.163-1.8c.138-1.1.357-2.622.626-4.3a19.637,19.637,0,0,1,.908-4.262,4.1,4.1,0,0,1,.682-1.133C305.685,308.551,305.835,308.457,305.847,308.469Z" transform="translate(-264.606 -188.452)" fill="#eb996e"/><path d="M304.67,283.39a2.185,2.185,0,0,1,.169.626c.088.4.194.983.313,1.708.238,1.446.5,3.454.67,5.689s.2,4.262.175,5.726c0,.732-.031,1.327-.063,1.733a2.189,2.189,0,0,1-.075.626,20.928,20.928,0,0,1-.094-2.366c-.031-1.464-.106-3.479-.269-5.7s-.388-4.23-.569-5.682a19.971,19.971,0,0,1-.257-2.359Z" transform="translate(-265.193 -179.068)" fill="#eb996e"/><path d="M325.079,312.226a1.727,1.727,0,0,1-1.615.138c-.92-.275-1.345-.982-1.252-1.014a8.576,8.576,0,0,0,1.358.7,9.141,9.141,0,0,0,1.508.175Z" transform="translate(-271.753 -189.53)" fill="#eb996e"/><path d="M282.214,342.87,269.535,348.2h-7.56s-7.472,2.334-8.624,9.343-1.314,10.607,1.971,11.477,12.566.964,17.166-.563,16.653-11.264,16.653-11.264l1.158-7.034Z" transform="translate(-245.71 -201.325)" fill="#ffbe9d"/><path d="M302.389,348.365a3.351,3.351,0,0,1-.363-.332,8.062,8.062,0,0,1-.82-1.051,14.246,14.246,0,0,1-1.771-4.011,23.776,23.776,0,0,1-.782-4.306,8.134,8.134,0,0,1-.05-1.815,12.216,12.216,0,0,1,.275,1.784,31.883,31.883,0,0,0,.87,4.249,16.829,16.829,0,0,0,1.652,3.98C301.97,347.808,302.433,348.321,302.389,348.365Z" transform="translate(-262.912 -199.072)" fill="#eb996e"/><path d="M310.078,348.412a13.217,13.217,0,0,0,.72-2.716,8.761,8.761,0,0,0-1.7-6.371c-.77-1.076-1.64-2.015-2.372-2.929a13.871,13.871,0,0,1-1.715-2.591,6.842,6.842,0,0,1-.626-2,2.545,2.545,0,0,1,0-.763,8.95,8.95,0,0,0,.864,2.66,14.588,14.588,0,0,0,1.746,2.5c.732.889,1.608,1.827,2.4,2.929a9.113,9.113,0,0,1,1.583,3.473,8.831,8.831,0,0,1,.081,3.129,8.224,8.224,0,0,1-.576,2.015c-.1.225-.194.394-.257.507S310.084,348.419,310.078,348.412Z" transform="translate(-265.075 -196.898)" fill="#eb996e"/><path d="M278.723,303.178a63.547,63.547,0,0,1-3.091-5.632,62.053,62.053,0,0,1-2.8-5.776,63.6,63.6,0,0,1,3.092,5.632A62.813,62.813,0,0,1,278.723,303.178Z" transform="translate(-253.277 -182.204)" fill="#fff"/><path d="M315,267.979a38.89,38.89,0,0,1,1.909-4.694,40.312,40.312,0,0,1,2.209-4.556,40.183,40.183,0,0,1-1.909,4.694A39.671,39.671,0,0,1,315,267.979Z" transform="translate(-269.059 -169.84)" fill="#fff"/><path d="M343.841,293.22A28.931,28.931,0,0,1,340.962,290a29.246,29.246,0,0,1-2.622-3.423,27.864,27.864,0,0,1,2.873,3.217A28.93,28.93,0,0,1,343.841,293.22Z" transform="translate(-277.792 -180.262)" fill="#fff"/><path d="M339.74,325.969a24.966,24.966,0,0,1,2.165-3.267,23.906,23.906,0,0,1,2.434-3.073,24.483,24.483,0,0,1-2.165,3.267,22.859,22.859,0,0,1-2.434,3.073Z" transform="translate(-278.316 -192.629)" fill="#fff"/><path d="M327.487,370.325a6.214,6.214,0,0,1-.732-1.252c-.413-.8-.945-1.921-1.483-3.179s-.97-2.428-1.252-3.273a6.321,6.321,0,0,1-.4-1.4,6.481,6.481,0,0,1,.626,1.32l1.345,3.223c.519,1.2.983,2.278,1.389,3.21A6.48,6.48,0,0,1,327.487,370.325Z" transform="translate(-272.284 -208.191)" fill="#fff"/><path d="M353.483,355.338a23.244,23.244,0,0,1-3.8-.569,22.622,22.622,0,0,1-3.755-.889,45.349,45.349,0,0,1,7.51,1.458Z" transform="translate(-280.633 -205.445)" fill="#fff"/><path d="M380,308.393a45.585,45.585,0,0,1,3.617-4.143,46.924,46.924,0,0,1,3.867-3.93,47.1,47.1,0,0,1-3.623,4.149A47.951,47.951,0,0,1,380,308.393Z" transform="translate(-293.382 -185.403)" fill="#fff"/><path d="M396.745,364.173c-.069.063-2.09-2.284-4.518-5.226s-4.337-5.382-4.268-5.438,2.09,2.284,4.518,5.225S396.8,364.117,396.745,364.173Z" transform="translate(-296.359 -205.306)" fill="#fff"/><path d="M260.829,346.12c.044.088-1.8,1.026-3.817,2.572s-3.417,3.073-3.492,3a4.457,4.457,0,0,1,.851-1.064,19.252,19.252,0,0,1,2.441-2.2,19.533,19.533,0,0,1,2.766-1.765,4.712,4.712,0,0,1,1.252-.551Z" transform="translate(-246.053 -202.541)" fill="#fff"/><path d="M271.517,324a13.334,13.334,0,0,1-1.471,2.5,13.141,13.141,0,0,1-1.746,2.328,13.487,13.487,0,0,1,1.471-2.5A12.955,12.955,0,0,1,271.517,324Z" transform="translate(-251.584 -194.264)" fill="#fff"/><path d="M291.241,342.521a8.267,8.267,0,0,1-1.214-5.351c.094,0,.125,1.252.469,2.71S291.329,342.477,291.241,342.521Z" transform="translate(-259.694 -199.192)" fill="#fff"/><path d="M291.839,276.791a9.612,9.612,0,0,1-2.409.507,9.265,9.265,0,0,1-2.459.181,9.7,9.7,0,0,1,2.416-.507,9.537,9.537,0,0,1,2.453-.181Z" transform="translate(-258.57 -176.593)" fill="#fff"/><path d="M306.071,252.07a19.182,19.182,0,0,1-4.381,2.428,9.581,9.581,0,0,1,2.109-1.358,9.924,9.924,0,0,1,2.272-1.07Z" transform="translate(-264.078 -167.348)" fill="#fff"/><path d="M345.168,258.931a22.773,22.773,0,0,1-2.416-2.9,22.535,22.535,0,0,1-2.153-3.1A43.614,43.614,0,0,1,345.168,258.931Z" transform="translate(-278.638 -167.67)" fill="#fff"/><path d="M395.406,283.742a15.326,15.326,0,0,1-3.786-6.083c.094-.038.764,1.421,1.815,3.091S395.481,283.68,395.406,283.742Z" transform="translate(-297.73 -176.923)" fill="#fff"/><path d="M414.949,293.64a36.475,36.475,0,0,1-2.879,6.339,19.361,19.361,0,0,1,1.3-3.236A18.38,18.38,0,0,1,414.949,293.64Z" transform="translate(-305.382 -182.903)" fill="#fff"/><path d="M415.7,263.347a33.62,33.62,0,0,1-3.167-3.542,34.661,34.661,0,0,1-2.91-3.755A69.38,69.38,0,0,1,415.7,263.347Z" transform="translate(-304.465 -168.837)" fill="#fff"/><path d="M390.1,243.017a14.714,14.714,0,0,1-.282-3.029,14.255,14.255,0,0,1,.044-3.048,14.709,14.709,0,0,1,.282,3.029,13.765,13.765,0,0,1-.044,3.048Z" transform="translate(-297.034 -161.687)" fill="#fff"/><path d="M409.353,245.34a24.043,24.043,0,0,1-3.867.682,23.694,23.694,0,0,1-3.9.357,24.043,24.043,0,0,1,3.867-.682A23.655,23.655,0,0,1,409.353,245.34Z" transform="translate(-301.457 -164.83)" fill="#fff"/><path d="M448.626,267.325a39.421,39.421,0,0,1-2.328-4.431,38.719,38.719,0,0,1-2.028-4.575,72.731,72.731,0,0,1,4.356,9.005Z" transform="translate(-317.431 -169.687)" fill="#fff"/><path d="M445,292.139a40.685,40.685,0,0,1,1.414-7.059,20.311,20.311,0,0,1-.544,3.561A19.736,19.736,0,0,1,445,292.139Z" transform="translate(-317.704 -179.7)" fill="#fff"/><path d="M460.193,309.185a39.537,39.537,0,0,1-1.877-4.806,40.052,40.052,0,0,1-1.546-4.919,76.869,76.869,0,0,1,3.423,9.725Z" transform="translate(-322.108 -185.081)" fill="#fff"/><path d="M456.342,324.018a8.673,8.673,0,0,1-3.16-1.133,8.382,8.382,0,0,1-2.672-2.027c.063-.075,1.214.876,2.829,1.74S456.374,323.924,456.342,324.018Z" transform="translate(-319.766 -193.087)" fill="#fff"/><path d="M480.836,348.151a17.863,17.863,0,0,1-1.946-4.381A17.871,17.871,0,0,1,480.836,348.151Z" transform="translate(-330.386 -201.662)" fill="#fff"/><path d="M350.81,382.112a12.471,12.471,0,0,1-.488-2.772,12.655,12.655,0,0,1-.163-2.81,11.75,11.75,0,0,1,.519,2.8A12.225,12.225,0,0,1,350.81,382.112Z" transform="translate(-282.208 -213.92)" fill="#fff"/><path d="M419.14,380.531a11.67,11.67,0,0,1,.407-2.71,11.833,11.833,0,0,1,.732-2.641,11.46,11.46,0,0,1-.413,2.71A11.641,11.641,0,0,1,419.14,380.531Z" transform="translate(-308.027 -213.415)" fill="#fff"/></g><g transform="translate(1116.287 1926.497)"><path d="M432.16,155.978l5.532-9.662a25.946,25.946,0,1,1,6.214,6.884h0Z" transform="translate(-432.141 -106.679)" fill="#fafafa"/><path d="M432.149,155.962l11.746-2.678h.119l-.075-.1h0l-.113.106a26.736,26.736,0,0,0,5.332,3.217,25.946,25.946,0,0,0,7.109,2.028,23.26,23.26,0,0,0,4.105.207c.707-.038,1.421-.056,2.147-.113l2.19-.332a26.143,26.143,0,0,0,20.583-20.414,26.549,26.549,0,0,0-.307-11.534,25.613,25.613,0,0,0-5.557-10.639l-1.07-1.22c-.35-.394-.764-.713-1.139-1.076a10.172,10.172,0,0,0-1.176-1.026l-1.252-.926a10.436,10.436,0,0,0-1.289-.851l-1.314-.8-1.377-.67a13.072,13.072,0,0,0-1.389-.626A26.572,26.572,0,0,0,457.8,106.73a25.533,25.533,0,0,0-10.639,3.129,26.284,26.284,0,0,0-12.322,15.163,27.912,27.912,0,0,0-1.126,8.43,25.661,25.661,0,0,0,1.252,7.278,26.468,26.468,0,0,0,2.6,5.582v-.081c-3.467,6.214-5.163,9.249-5.432,9.725.275-.469,2.015-3.486,5.563-9.65v-.075a26.056,26.056,0,0,1-2.516-5.563,25.612,25.612,0,0,1-1.252-7.228,28.014,28.014,0,0,1,1.145-8.348,26.1,26.1,0,0,1,12.21-14.957,25.226,25.226,0,0,1,10.545-3.129,26.2,26.2,0,0,1,11.477,1.771,12.723,12.723,0,0,1,1.371.626l1.364.663,1.314.814a10.883,10.883,0,0,1,1.252.839l1.252.92c.419.3.77.676,1.158,1.014a12.046,12.046,0,0,1,1.126,1.064l1.045,1.145a25.39,25.39,0,0,1,5.495,10.532,26.083,26.083,0,0,1,.307,11.39,25.5,25.5,0,0,1-4.318,9.907,25.9,25.9,0,0,1-16.008,10.32l-2.165.338c-.72.056-1.427.081-2.128.119a23.471,23.471,0,0,1-4.068-.188,25.86,25.86,0,0,1-7.072-1.965,26.5,26.5,0,0,1-5.313-3.167l-.482-.369.369.482h0l.044-.125Z" transform="translate(-432.13 -106.664)" fill="#263238"/><path d="M487.4,145.034a2.5,2.5,0,1,0,.733-1.8A2.5,2.5,0,0,0,487.4,145.034Z" transform="translate(-452.812 -120.073)" fill="#263238"/><path d="M471.21,145.035a2.5,2.5,0,1,0,.722-1.79A2.5,2.5,0,0,0,471.21,145.035Z" transform="translate(-446.753 -120.073)" fill="#263238"/><path d="M454.867,143.768a2.5,2.5,0,1,0,1.533-1.189A2.5,2.5,0,0,0,454.867,143.768Z" transform="translate(-440.517 -120.071)" fill="#263238"/></g></g></svg>