<svg xmlns="http://www.w3.org/2000/svg" width="302.205" height="184.524" viewBox="0 0 302.205 184.524"><g transform="translate(-2125.454 9065.394)"><path d="M80,0H302.2a0,0,0,0,1,0,0V78.5a80,80,0,0,1-80,80H0a0,0,0,0,1,0,0V80A80,80,0,0,1,80,0Z" transform="translate(2125.454 -9039.369)" fill="#2df0da"/><g transform="translate(2125.744 -9105.501)"><g transform="translate(25.477 40.108)"><path d="M380.33,357.9a60.076,60.076,0,0,1,2.231-11.275,123.047,123.047,0,0,1,4.867-13.179l1.454-3.395c.477-1.113.954-2.213,1.486-3.268a61.069,61.069,0,0,1,3.4-5.849c1.172-1.818,2.35-3.49,3.463-5.049s2.186-2.99,3.218-4.254a48.174,48.174,0,0,1,5.294-5.6c.673-.613,1.213-1.068,1.581-1.363l.423-.341a.685.685,0,0,1,.15-.109,1.114,1.114,0,0,1-.132.127l-.4.364c-.359.318-.909.782-1.554,1.4a51.466,51.466,0,0,0-5.222,5.64c-1.018,1.268-2.077,2.7-3.181,4.263s-2.272,3.24-3.436,5.054a61.874,61.874,0,0,0-3.377,5.844c-.527,1.045-1,2.141-1.477,3.258l-1.45,3.39a125.545,125.545,0,0,0-4.876,13.179,61.115,61.115,0,0,0-2.272,11.225" transform="translate(-223.302 -184.193)" fill="#e0e0e0"/><path d="M400.18,335.757a2.7,2.7,0,0,1-.136-.582c-.073-.377-.154-.909-.254-1.609-.191-1.363-.4-3.254-.609-5.335s-.454-3.967-.659-5.322c-.1-.682-.2-1.227-.264-1.6a2.843,2.843,0,0,1-.077-.6,2.635,2.635,0,0,1,.173.573c.1.373.214.909.341,1.6.259,1.363.518,3.236.736,5.326s.4,3.917.536,5.34c.068.641.127,1.182.177,1.618A3.423,3.423,0,0,1,400.18,335.757Z" transform="translate(-233.04 -193.189)" fill="#e0e0e0"/><path d="M420.163,346.559a3.939,3.939,0,0,1-.7.086c-.454.036-1.1.091-1.909.186-1.613.173-3.827.491-6.258.95s-4.613.973-6.181,1.391c-.782.2-1.413.382-1.85.5a3.334,3.334,0,0,1-.686.168,3.931,3.931,0,0,1,.654-.264c.454-.15,1.054-.359,1.818-.582,1.559-.454,3.74-1,6.181-1.468a61.687,61.687,0,0,1,6.285-.877c.809-.073,1.468-.1,1.922-.109A3.526,3.526,0,0,1,420.163,346.559Z" transform="translate(-235.44 -207.276)" fill="#e0e0e0"/><path d="M375.109,369.859a1.405,1.405,0,0,1-.118-.214l-.3-.636c-.259-.554-.609-1.363-1.036-2.372-.845-2.013-1.931-4.835-3.086-7.962s-2.213-5.953-3.018-7.985l-.945-2.4c-.1-.264-.191-.477-.259-.654a.877.877,0,0,1-.073-.236.822.822,0,0,1,.118.214l.3.636c.255.554.609,1.363,1.032,2.372.85,2.018,1.936,4.835,3.09,7.962s2.209,5.958,3.018,7.985l.959,2.4c.1.264.186.482.259.659a.935.935,0,0,1,.059.232Z" transform="translate(-215.631 -207.749)" fill="#e0e0e0"/><path d="M409.088,380.25a.863.863,0,0,1-.232.1l-.677.227-2.5.813c-2.113.682-5.022,1.663-8.23,2.749s-6.131,2.041-8.257,2.686c-1.068.318-1.927.573-2.527.732l-.7.182a.764.764,0,0,1-.245.045.963.963,0,0,1,.232-.1l.677-.227,2.5-.809c2.113-.686,5-1.668,8.23-2.754s6.131-2.04,8.257-2.681c1.068-.323,1.931-.573,2.531-.736l.691-.182a.968.968,0,0,1,.245-.045Z" transform="translate(-226.242 -225.67)" fill="#e0e0e0"/><path d="M455.428,327.965a1.821,1.821,0,0,1-.182-.268l-.454-.732c-.382-.627-.909-1.509-1.545-2.568l.141.036-3.595,2.1c0,.032.082-.309.041-.164h0v.032l.036.059.068.127.145.245.277.482.536.936.977,1.713-.141-.036c1.073-.6,1.977-1.1,2.622-1.454l.759-.4a1.507,1.507,0,0,1,.291-.141,2.123,2.123,0,0,1-.232.159l-.713.454c-.618.382-1.522.932-2.622,1.577l-.091.05-.05-.086c-.309-.527-.645-1.1-1-1.7l-.545-.932-.277-.482-.145-.245-.068-.127-.036-.059v-.032h0c-.036.145.055-.2.045-.159l3.636-2.077.086-.05.05.086c.632,1.109,1.141,2.041,1.486,2.677.159.3.291.536.4.741A1.15,1.15,0,0,1,455.428,327.965Z" transform="translate(-261.103 -195.104)" fill="#e0e0e0"/><path d="M383.48,289.107a46.385,46.385,0,0,1,3.3-3.467,47.651,47.651,0,0,1,3.468-3.3c.045.045-1.432,1.6-3.3,3.468S383.525,289.152,383.48,289.107Z" transform="translate(-225.02 -172.256)" fill="#e0e0e0"/><path d="M390.247,289.106a47.656,47.656,0,0,1-3.467-3.3,46.391,46.391,0,0,1-3.3-3.467c.045-.045,1.6,1.432,3.468,3.3A47.553,47.553,0,0,1,390.247,289.106Z" transform="translate(-225.02 -172.255)" fill="#e0e0e0"/><path d="M247.28,208.347a47.557,47.557,0,0,1,3.3-3.467,46.39,46.39,0,0,1,3.467-3.3c.045.045-1.432,1.6-3.3,3.467A47.55,47.55,0,0,1,247.28,208.347Z" transform="translate(-150.717 -128.198)" fill="#e0e0e0"/><path d="M254.047,208.347c-.045.045-1.6-1.432-3.468-3.3a47.449,47.449,0,0,1-3.3-3.467,47.449,47.449,0,0,1,3.467,3.3C252.606,206.77,254.092,208.3,254.047,208.347Z" transform="translate(-150.717 -128.198)" fill="#e0e0e0"/><path d="M226.025,76.32a36.248,36.248,0,0,1-.454-4.09,35.786,35.786,0,0,1-.241-4.09,35.582,35.582,0,0,1,.477,4.09,35.111,35.111,0,0,1,.218,4.09Z" transform="translate(-138.743 -55.401)" fill="#e0e0e0"/><path d="M225.28,76.329a35.9,35.9,0,0,1-4.09.454,37.155,37.155,0,0,1-4.09.241,34.412,34.412,0,0,1,4.09-.477A35.093,35.093,0,0,1,225.28,76.329Z" transform="translate(-134.253 -59.868)" fill="#e0e0e0"/><path d="M130.447,176.757a.753.753,0,0,1-.086-.127l-.223-.364-.823-1.363-2.849-4.826.141.036-6.726,3.917c0,.036.082-.3.041-.159h0v.027l.036.059.064.114.136.232.264.454.518.909,1,1.745,1.818,3.181-.141-.041,4.881-2.759,1.4-.773.373-.2.141-.068a4.547,4.547,0,0,1-.454.291l-1.363.8-4.885,2.881-.091.055-.05-.091-1.845-3.181-1.009-1.741-.518-.909-.268-.454-.132-.232-.064-.114L119.69,174v-.027h0c-.036.141.055-.2.045-.164l6.771-3.872.086-.05.05.086,2.795,4.963.759,1.363q.136.221.25.454Z" transform="translate(-81.106 -110.91)" fill="#e0e0e0"/><path d="M466.451,279.578a2.776,2.776,0,0,0-.2-.4,1.854,1.854,0,0,0-.909-.754,1.759,1.759,0,0,0-1.645.2,1.727,1.727,0,1,0,2.345,2.49,1.817,1.817,0,0,0,.409-1.091c0-.286-.032-.454,0-.454a.836.836,0,0,1,.1.454,1.818,1.818,0,0,1-.368,1.191,1.9,1.9,0,0,1-1.682.75,1.931,1.931,0,0,1-.909-3.522,1.909,1.909,0,0,1,1.818-.168,1.818,1.818,0,0,1,.909.863A.831.831,0,0,1,466.451,279.578Z" transform="translate(-268.263 -169.953)" fill="#e0e0e0"/><path d="M279.54,41.568c-.023,0-.064-.155-.209-.4a1.818,1.818,0,0,0-.909-.754,1.763,1.763,0,0,0-1.645.2,1.727,1.727,0,1,0,2.345,2.49,1.818,1.818,0,0,0,.409-1.091c0-.286-.032-.454,0-.454a.958.958,0,0,1,.1.454,1.818,1.818,0,0,1-.373,1.191,1.9,1.9,0,0,1-1.681.75,1.931,1.931,0,0,1-.909-3.522,1.909,1.909,0,0,1,1.818-.168,1.818,1.818,0,0,1,.909.863.954.954,0,0,1,.141.441Z" transform="translate(-166.29 -40.108)" fill="#e0e0e0"/><path d="M93.559,156.01a3.253,3.253,0,0,0-.209-.4,1.818,1.818,0,0,0-.909-.754,1.759,1.759,0,0,0-1.645.2,1.722,1.722,0,0,0,.813,3.127,1.759,1.759,0,0,0,1.532-.636,1.859,1.859,0,0,0,.409-1.091c0-.282-.036-.454,0-.454a.959.959,0,0,1,.1.454,1.818,1.818,0,0,1-.368,1.2,1.9,1.9,0,0,1-1.668.736,1.924,1.924,0,1,1,.909-3.69,1.854,1.854,0,0,1,.909.863A.968.968,0,0,1,93.559,156.01Z" transform="translate(-64.837 -102.538)" fill="#e0e0e0"/><path d="M444.367,138.175c-.027,0-.1-.332-.4-.863a3.854,3.854,0,0,0-3.636-1.936,3.8,3.8,0,0,0-1.877.673,3.5,3.5,0,0,0-.8.741,3.722,3.722,0,0,0-.568.977,3.763,3.763,0,0,0,1.127,4.317,3.6,3.6,0,0,0,.973.577,3.69,3.69,0,0,0,1.054.259,3.813,3.813,0,0,0,1.968-.336,3.731,3.731,0,0,0,1.363-1.082,3.872,3.872,0,0,0,.845-2.377c0-.614-.1-.945-.073-.95a1.451,1.451,0,0,1,.073.241,3.454,3.454,0,0,1,.1.709,3.926,3.926,0,0,1-2.231,3.636,3.967,3.967,0,0,1-2.072.373,3.777,3.777,0,0,1-1.118-.264,3.636,3.636,0,0,1-1.036-.609,3.972,3.972,0,0,1-1.2-4.581,3.657,3.657,0,0,1,.609-1.032,3.713,3.713,0,0,1,.845-.782,3.945,3.945,0,0,1,3.795-.373,3.881,3.881,0,0,1,1.918,1.772,3.108,3.108,0,0,1,.264.664A1.62,1.62,0,0,1,444.367,138.175Z" transform="translate(-253.986 -91.97)" fill="#e0e0e0"/><path d="M422.743,260.814a4.246,4.246,0,0,1-.236-.418l-.677-1.25c-.577-1.077-1.413-2.627-2.359-4.449l-.091-.177h.2l3.368.209,3.495.232h.191l-.1.159c-1.1,1.7-2.059,3.131-2.727,4.126l-.777,1.154a3.939,3.939,0,0,1-.277.386s.1-.173.273-.454.454-.718.75-1.213c.636-1.032,1.522-2.463,2.577-4.117l.086.173-3.495-.218-3.372-.223.109-.164c.909,1.777,1.654,3.313,2.2,4.422.264.532.477.968.641,1.3A4.436,4.436,0,0,1,422.743,260.814Z" transform="translate(-244.605 -157.079)" fill="#e0e0e0"/><path d="M352.991,71.984s-.082-.136-.241-.423l-.691-1.245c-.577-1.077-1.413-2.631-2.359-4.454l-.091-.173h.2l3.372.214,3.495.232h.191l-.1.159c-1.1,1.691-2.063,3.127-2.727,4.122l-.777,1.159a3.931,3.931,0,0,1-.277.386s.1-.173.273-.454L354,70.294c.641-1.032,1.522-2.459,2.581-4.09l.086.173-3.495-.218-3.372-.227.109-.159c.909,1.772,1.654,3.308,2.2,4.417q.391.8.641,1.309A4.611,4.611,0,0,1,352.991,71.984Z" transform="translate(-206.543 -54.064)" fill="#e0e0e0"/><path d="M236.1,295.472a3.6,3.6,0,0,1,.254-.409l.782-1.182c.668-1.018,1.636-2.49,2.8-4.195l.091-.136.091.136,2.168,3.181,1.686,2.518.123.177h-.214c-2.272,0-4.258-.041-5.631-.064l-1.6-.032h-.55c.014,0,.227,0,.614-.023l1.636-.027c1.391-.023,3.308-.059,5.531-.064l-.1.177-1.7-2.513c-.763-1.132-1.491-2.218-2.154-3.213h.182c-1.141,1.645-2.131,3.036-2.849,4.04l-.845,1.182C236.222,295.313,236.108,295.467,236.1,295.472Z" transform="translate(-144.617 -176.19)" fill="#e0e0e0"/></g><g transform="translate(81.411 122.92)"><path d="M295.563,297.41h0a28.454,28.454,0,0,1,28.453,28.444v32.993H267.11V325.854a28.453,28.453,0,0,1,28.453-28.444Z" transform="translate(-217.47 -263.29)" fill="#455a64"/><path d="M163.924,397.4l-2.863,2.027-3.181,7.639a1.293,1.293,0,0,0,1.532-.036,51.227,51.227,0,0,0,3.222-5.058V404.6a2.109,2.109,0,0,0,1.868,2.081l4.717,1.472,5.79-1.65.5-6.89Z" transform="translate(-157.88 -317.839)" fill="#ffbe9d"/><path d="M279.676,256.211c-1.418-.409-2.113-2.031-2.24-3.5a23.627,23.627,0,0,0-.286-4.4,15.61,15.61,0,0,1-.963-2.981c-.082-1.127.454-2.213.491-3.34.041-1.577-.909-3.04-.909-4.617-.032-2.181.359-5.785,2.54-5.663s5.676,3.945,5.4,6.108" transform="translate(-222.192 -227.444)" fill="#263238"/><path d="M303.287,244.081l-.045,2.181-.454,32.612a6.992,6.992,0,0,1-7.4,6.671h0a7.39,7.39,0,0,1-7.43-7.08c0-4.017-.1-8.244-.1-8.244s-5.172-.859-6.244-7.608c-.532-3.354-.364-8.857-.082-13.356a7.13,7.13,0,0,1,7.862-6.644Z" transform="translate(-225.193 -233.374)" fill="#ffbe9d"/><path d="M284.93,264.774a.873.873,0,0,0,.836.877.827.827,0,0,0,.909-.782.859.859,0,0,0-.85-.873.827.827,0,0,0-.9.777Z" transform="translate(-227.191 -245.06)" fill="#263238"/><path d="M284.5,262.511c.1.114.763-.373,1.7-.368s1.613.454,1.713.354-.059-.254-.359-.454a2.4,2.4,0,0,0-1.363-.423,2.272,2.272,0,0,0-1.363.454C284.548,262.247,284.448,262.461,284.5,262.511Z" transform="translate(-226.951 -243.765)" fill="#263238"/><path d="M305.45,264.772a.863.863,0,0,0,.832.877.836.836,0,0,0,.909-.782.863.863,0,0,0-.836-.873.823.823,0,0,0-.9.777Z" transform="translate(-238.386 -245.058)" fill="#263238"/><path d="M304.645,262.931c.109.114.763-.368,1.7-.368s1.613.454,1.718.354-.059-.255-.359-.454a2.422,2.422,0,0,0-1.363-.423,2.3,2.3,0,0,0-1.363.454C304.69,262.658,304.595,262.863,304.645,262.931Z" transform="translate(-237.94 -243.994)" fill="#263238"/><path d="M294.4,269.842a6.565,6.565,0,0,0-1.513-.273c-.241-.023-.454-.073-.5-.232a1.227,1.227,0,0,1,.159-.7l.7-1.818a30.855,30.855,0,0,0,1.577-4.735,31.356,31.356,0,0,0-1.954,4.6c-.236.636-.454,1.241-.677,1.818a1.409,1.409,0,0,0-.123.909.6.6,0,0,0,.391.345,1.577,1.577,0,0,0,.4.059A5.968,5.968,0,0,0,294.4,269.842Z" transform="translate(-231.07 -244.015)" fill="#263238"/><path d="M295.81,300.519a17.155,17.155,0,0,0,9.039-2.409s-2.2,4.635-8.948,4Z" transform="translate(-233.127 -263.672)" fill="#eb996e"/><path d="M297.978,283.34a1.682,1.682,0,0,1,1.5-.623,1.532,1.532,0,0,1,1.059.568.968.968,0,0,1,.073,1.109,1.118,1.118,0,0,1-1.218.309,3.545,3.545,0,0,1-1.191-.709,1.036,1.036,0,0,1-.268-.277.309.309,0,0,1,0-.345" transform="translate(-234.258 -255.268)" fill="#eb996e"/><path d="M299.7,280.58c-.155,0-.155,1-1.018,1.718s-1.945.609-1.95.75c0,.064.236.2.691.209a2.527,2.527,0,0,0,1.631-.568,2.182,2.182,0,0,0,.786-1.441C299.879,280.825,299.766,280.575,299.7,280.58Z" transform="translate(-233.629 -254.108)" fill="#263238"/><path d="M304.125,255.1c.1.255,1.023.136,2.118.268s1.977.427,2.118.2c.068-.109-.086-.345-.454-.591a3.7,3.7,0,0,0-3.227-.354C304.289,254.778,304.089,254.978,304.125,255.1Z" transform="translate(-237.661 -239.826)" fill="#263238"/><path d="M285.241,256.513c.164.214.8,0,1.577,0s1.427.141,1.577-.077c.064-.109-.036-.323-.323-.523a2.2,2.2,0,0,0-1.282-.345,2.177,2.177,0,0,0-1.259.427C285.259,256.19,285.168,256.408,285.241,256.513Z" transform="translate(-227.348 -240.462)" fill="#263238"/><path d="M335.19,232.172c1.4-3.813,7.249-9.544,11.743-7,4.922,2.8,3.181,4.745,4.958,6.035.423.3,2.422-.359,2.7.086.732,1.177.109,2.7-.514,3.936a2.121,2.121,0,0,0,.454-.118.823.823,0,0,1,1.123.8,7.676,7.676,0,0,1-1.522,4.176,2.431,2.431,0,0,0,.941.032.582.582,0,0,1,.641.768,4.626,4.626,0,0,1-3.386,2.881,6.893,6.893,0,0,1-5.39-1.445,16.105,16.105,0,0,1-3.722-4.349,9.149,9.149,0,0,0-2.1-2.568,2.812,2.812,0,0,0-3.118-.291" transform="translate(-254.61 -223.537)" fill="#263238"/><path d="M338.637,243.045v-.177a1.508,1.508,0,0,0-.114-.454,7.294,7.294,0,0,0-.732-1.363,8.555,8.555,0,0,0-.959-1.245c-.273-.291-.477-.454-.454-.454a1.318,1.318,0,0,1,.573.35,6.2,6.2,0,0,1,1.041,1.236,5.258,5.258,0,0,1,.691,1.463,1.236,1.236,0,0,1,.05.5C338.7,242.995,338.646,243.054,338.637,243.045Z" transform="translate(-255.258 -231.615)" fill="#ff725e"/><path d="M352.849,256.475a1.058,1.058,0,0,1-.164.123,2.812,2.812,0,0,1-.518.277,4.277,4.277,0,0,1-2.127.282,4.467,4.467,0,0,1-2.818-1.445,4.577,4.577,0,0,1-.909-1.681,8.965,8.965,0,0,1-.332-2,28.578,28.578,0,0,0-.277-3.849,5.454,5.454,0,0,0-.559-1.559,3.563,3.563,0,0,0-.945-1.068,2.927,2.927,0,0,0-1.936-.654,4.545,4.545,0,0,0-.754.159.686.686,0,0,1,.177-.1,2.173,2.173,0,0,1,.568-.155,2.977,2.977,0,0,1,2.045.614,3.7,3.7,0,0,1,1.013,1.109,5.522,5.522,0,0,1,.6,1.609,26.549,26.549,0,0,1,.3,3.881,9,9,0,0,0,.318,1.954,4.216,4.216,0,0,0,5.59,2.822C352.6,256.616,352.835,256.452,352.849,256.475Z" transform="translate(-258.058 -234.584)" fill="#263238"/><path d="M354.995,225.875a1.117,1.117,0,0,1,.132.254,2.582,2.582,0,0,1,.173.809,2.926,2.926,0,0,1-.214,1.291,2.727,2.727,0,0,1-1.113,1.332,2.927,2.927,0,0,1-2.068.332,2.818,2.818,0,0,1-1.941-1.4,7.963,7.963,0,0,1-.782-2.54,5.656,5.656,0,0,0-.954-2.568,2.213,2.213,0,0,0-1.136-.718,2.973,2.973,0,0,0-1.327-.023,7.112,7.112,0,0,0-2.372,1.013,21.455,21.455,0,0,0-3.527,2.695,23.232,23.232,0,0,0-2.04,2.2l-.509.641a1.014,1.014,0,0,1-.186.218,1.424,1.424,0,0,1,.15-.245c.1-.159.264-.382.454-.668a19.364,19.364,0,0,1,2-2.272,20.488,20.488,0,0,1,3.522-2.759A7.33,7.33,0,0,1,345.7,222.4a3.136,3.136,0,0,1,1.436.023,2.477,2.477,0,0,1,1.3.8,5.79,5.79,0,0,1,1,2.677,7.847,7.847,0,0,0,.741,2.477,2.627,2.627,0,0,0,1.791,1.322,2.79,2.79,0,0,0,1.945-.286,2.622,2.622,0,0,0,1.077-1.236,2.963,2.963,0,0,0,.245-1.236A3.527,3.527,0,0,0,354.995,225.875Z" transform="translate(-255.669 -222.331)" fill="#263238"/><path d="M337.76,226.6a1.863,1.863,0,0,1,.5.75,3.776,3.776,0,0,1-.709,4.122,1.891,1.891,0,0,1-.718.545c-.023-.032.255-.236.6-.654a4.036,4.036,0,0,0,.677-3.949C337.919,226.9,337.724,226.618,337.76,226.6Z" transform="translate(-255.504 -224.66)" fill="#263238"/><path d="M305.291,233.514a8.53,8.53,0,0,0-6.131-5.194,7.935,7.935,0,0,0-4.94.668,7.821,7.821,0,0,1-1.532-1.3,13.4,13.4,0,0,0-5.772-3.431,9.566,9.566,0,0,0-6.626.514,7.471,7.471,0,0,0-4.09,5.113,6.153,6.153,0,0,0,2.2,6.044,5.235,5.235,0,0,0,6.294-.045,2.066,2.066,0,0,0,1.736,2.1,3.686,3.686,0,0,0,2.8-.818A21.19,21.19,0,0,0,291.4,235.1c.268-.259.545-.509.827-.75a8.144,8.144,0,0,0,5.681,4.545,3.456,3.456,0,0,0-.391,3.29,11.484,11.484,0,0,1,.823,3.345,15.184,15.184,0,0,1-.618,2.84,6.2,6.2,0,0,0,.55,3.936c.232.454.518,1.118.777,1.568.454.809.454.809,1.127,1.013,1.391.432,3.79-4.617,4.408-6.621.518-1.672.718-4.672,1.322-6.312C306.968,239,306.309,236.113,305.291,233.514Z" transform="translate(-222.362 -223.184)" fill="#263238"/><path d="M326.239,250.369a.645.645,0,0,1-.1.15,1.39,1.39,0,0,1-.382.332,1.927,1.927,0,0,1-1.818.068,1.645,1.645,0,0,1-.509-.391,2.431,2.431,0,0,1-.354-.582,7.149,7.149,0,0,0-.618-1.291,1.927,1.927,0,0,0-1.309-.7,12.977,12.977,0,0,0-1.709-.073,7.475,7.475,0,0,1-1.736-.241,7.942,7.942,0,0,1-1.518-.6,7.526,7.526,0,0,1-2.159-1.7,6.476,6.476,0,0,1-1.027-1.541,3.945,3.945,0,0,1-.2-.454.577.577,0,0,1-.05-.173,9.773,9.773,0,0,0,1.4,2.059,7.725,7.725,0,0,0,2.136,1.618,8.375,8.375,0,0,0,1.477.568,7.468,7.468,0,0,0,1.682.227,12.271,12.271,0,0,1,1.741.082,2.14,2.14,0,0,1,1.445.8,6.845,6.845,0,0,1,.623,1.363,2.359,2.359,0,0,0,.318.545,1.581,1.581,0,0,0,.454.364,1.881,1.881,0,0,0,1.709,0A2.672,2.672,0,0,0,326.239,250.369Z" transform="translate(-242.374 -233.705)" fill="#455a64"/><path d="M330.8,260.585a1.315,1.315,0,0,1-.286.277,2.985,2.985,0,0,1-.963.482,3.126,3.126,0,0,1-1.6.055,3.308,3.308,0,0,1-1.7-.986,8.114,8.114,0,0,1-1.027-1.659,4.186,4.186,0,0,0-.909-1.241,2.159,2.159,0,0,0-.882-.5,3.245,3.245,0,0,1-.382-.077.841.841,0,0,1,.4,0,2,2,0,0,1,.973.454,4.231,4.231,0,0,1,.986,1.263,8.263,8.263,0,0,0,1.009,1.6,3.181,3.181,0,0,0,1.577.936,3.118,3.118,0,0,0,1.509,0,5,5,0,0,0,1.3-.6Z" transform="translate(-247.982 -241.194)" fill="#455a64"/><path d="M357.36,238.183a.659.659,0,0,1-.064.254,1.918,1.918,0,0,1-.409.65,2.5,2.5,0,0,1-1.027.65,2.727,2.727,0,0,1-1.6.064,4.961,4.961,0,0,1-3-2.781,26.583,26.583,0,0,0-2.168-4.545,4.576,4.576,0,0,0-1.991-1.554,5.362,5.362,0,0,0-2.345-.341,6.1,6.1,0,0,0-3.636,1.618,8.693,8.693,0,0,0-1.727,2.15c-.327.568-.454.909-.486.909a.836.836,0,0,1,.086-.255,7.147,7.147,0,0,1,.323-.686A8.234,8.234,0,0,1,341,232.088a6.221,6.221,0,0,1,3.749-1.713,5.5,5.5,0,0,1,2.45.345,4.7,4.7,0,0,1,2.09,1.627c1.091,1.5,1.472,3.218,2.177,4.581a5.086,5.086,0,0,0,2.849,2.727,2.609,2.609,0,0,0,1.522-.027,2.3,2.3,0,0,0,1.541-1.427Z" transform="translate(-256.634 -226.708)" fill="#455a64"/><path d="M357.269,243.914a1.972,1.972,0,0,1-.164.2,5.231,5.231,0,0,1-.559.482,4.436,4.436,0,0,1-1.018.568,3.313,3.313,0,0,1-1.531.232,5.072,5.072,0,0,1-3.349-2.1,7.643,7.643,0,0,1-1.063-2.127c-.273-.773-.486-1.591-.777-2.4a7,7,0,0,0-1.177-2.172,3.717,3.717,0,0,0-1.886-1.222,5.335,5.335,0,0,0-3.79.482,10.383,10.383,0,0,0-2.168,1.536l-.541.491a1.113,1.113,0,0,1-.2.168.908.908,0,0,1,.164-.2c.109-.127.277-.3.509-.527a9.458,9.458,0,0,1,2.154-1.613,5.454,5.454,0,0,1,3.927-.545,3.927,3.927,0,0,1,2,1.282,7.234,7.234,0,0,1,1.222,2.24c.3.823.509,1.641.773,2.409a7.7,7.7,0,0,0,1.018,2.068A4.958,4.958,0,0,0,354,245.223a3.218,3.218,0,0,0,1.468-.186,4.6,4.6,0,0,0,1.009-.523C357.015,244.16,357.256,243.9,357.269,243.914Z" transform="translate(-256.716 -229.249)" fill="#455a64"/><path d="M226.524,355.919l.768,1.918-1.513,17.492h38.606l-1.722-5.231,4.8.245c7.4.373,13.452-6.24,12.011-13.511-.045-.218-.091-.454-.15-.654-2.395-9.357-5.653-21.937-6.785-25.649a18.037,18.037,0,0,0-6.053-9.057h-.064c-5.776-4.713-13.634-5.131-13.634-5.131l-2.895,1.945a10.089,10.089,0,0,1-9.784.8,4.381,4.381,0,0,1-2.386-2.749h0a33.987,33.987,0,0,0-9.866,2.572,14.452,14.452,0,0,0-7.63,8.521l-10.084,29.54-17.169-2.322L189.3,364.676l17.4,4.145A14.2,14.2,0,0,0,223.225,362l3.3-6.067m32.112,2.363h0s1.65-6.326,2.654-9.73l2.436,9.544Z" transform="translate(-175.021 -273.617)" fill="#ff8900"/><path d="M321.246,378.282h-3.054l-8.5.032-29.59.041H280v-.114c.15-3.608.314-7.394.477-11.3v-.109h.109l10.993-.345,21.628-.65-.1.141c-.809-2.949-1.468-5.822-2.1-8.562s-1.2-5.367-1.763-7.839q-.4-1.854-.786-3.6a26,26,0,0,1-.618-3.395,17.411,17.411,0,0,1,0-3.181,14.819,14.819,0,0,1,.527-2.877,8.866,8.866,0,0,1,2.572-4.2,6.475,6.475,0,0,1,3.322-1.545,5.38,5.38,0,0,1,2.3.127,4.325,4.325,0,0,1,.559.2c.123.05.182.082.182.082a5.508,5.508,0,0,0-3.022-.345A6.444,6.444,0,0,0,311,332.4a8.775,8.775,0,0,0-2.513,4.154,14.937,14.937,0,0,0-.509,2.854,17.148,17.148,0,0,0,0,3.181,25.54,25.54,0,0,0,.627,3.372c.259,1.159.523,2.359.8,3.595.559,2.472,1.154,5.09,1.777,7.83s1.3,5.613,2.118,8.553l.036.136H313.2l-21.6.663-11,.345.114-.114c-.168,3.908-.332,7.694-.486,11.3l-.114-.118,29.59.045,8.5.032h2.854A1.693,1.693,0,0,1,321.246,378.282Z" transform="translate(-224.502 -281.456)" fill="#263238"/><path d="M270.932,346.85a1.077,1.077,0,0,1,.023.282v.813a13.312,13.312,0,0,1-.523,2.94,41.971,41.971,0,0,1-1.509,4.158,28.512,28.512,0,0,0-1.663,5.117,15.421,15.421,0,0,0-.027,5.344,30.179,30.179,0,0,0,1.045,4.272c.382,1.2.723,2.154.959,2.818l.264.763a1.105,1.105,0,0,1,.077.273,1.154,1.154,0,0,1-.123-.255c-.077-.2-.182-.454-.3-.75-.264-.654-.627-1.6-1.032-2.8a28.125,28.125,0,0,1-1.1-4.29,15.3,15.3,0,0,1,0-5.422,27.975,27.975,0,0,1,1.677-5.154c.636-1.536,1.2-2.922,1.55-4.122a14.584,14.584,0,0,0,.6-2.9C270.914,347.241,270.909,346.85,270.932,346.85Z" transform="translate(-217.288 -290.262)" fill="#263238"/><path d="M353.07,408.136a1.9,1.9,0,0,1,.809-.1,4.767,4.767,0,0,1,1.913.454,3.554,3.554,0,0,1,1.522,1.25,1.436,1.436,0,0,1,.3.759c-.041,0-.136-.282-.432-.663a3.912,3.912,0,0,0-1.486-1.132,5.752,5.752,0,0,0-1.818-.486,5.9,5.9,0,0,1-.8-.077Z" transform="translate(-264.365 -323.635)" fill="#263238"/><path d="M345.59,320.1a4.726,4.726,0,0,1,.723.273c.232.1.514.209.836.354l1.077.527c.4.2.823.454,1.282.7s.909.564,1.418.882a22.355,22.355,0,0,1,2.977,2.418,15.238,15.238,0,0,1,3.754,5.817A9.9,9.9,0,0,1,358,332.22a8.432,8.432,0,0,1,.191.909,5.65,5.65,0,0,1,.1.768,4.422,4.422,0,0,1-.191-.75c-.041-.245-.132-.532-.227-.873s-.223-.714-.373-1.132a15.905,15.905,0,0,0-3.763-5.7,23.081,23.081,0,0,0-2.936-2.4c-.486-.318-.95-.632-1.4-.909s-.863-.514-1.259-.718l-1.059-.554-.814-.391A5.331,5.331,0,0,1,345.59,320.1Z" transform="translate(-260.284 -275.668)" fill="#263238"/><g transform="translate(80.024 63.474)" opacity="0.3"><path d="M337.746,362s-3.836,16.938-3.777,18.6a9.3,9.3,0,0,0,.4,2.572l3.181.027.027-.314,2.681-9.584Z" transform="translate(-333.969 -362)"/></g><path d="M291.653,359.978a11.21,11.21,0,0,0-1.05.663,5.908,5.908,0,0,0-1.968,2.677,5.662,5.662,0,0,0-.314,2.272,5.536,5.536,0,0,0,.763,2.513,5.654,5.654,0,0,0,2.045,2.045,5.312,5.312,0,0,0,1.422.591,5.53,5.53,0,0,0,1.577.182,5.83,5.83,0,0,0,1.568-.254,6.234,6.234,0,0,0,1.4-.659,5.726,5.726,0,0,0,2.154-6.958,5.871,5.871,0,0,0-2.1-2.577,10.561,10.561,0,0,0-1.082-.614,2.27,2.27,0,0,1,.309.109,5.4,5.4,0,0,1,.827.427,5.831,5.831,0,0,1,2.677,4.926,5.981,5.981,0,0,1-.645,2.645,5.908,5.908,0,0,1-2.009,2.24,6.559,6.559,0,0,1-1.45.7,6.159,6.159,0,0,1-1.636.264,5.854,5.854,0,0,1-3.586-10.6,5.366,5.366,0,0,1,.8-.454A2.594,2.594,0,0,1,291.653,359.978Z" transform="translate(-228.929 -297.359)" fill="#fff"/><path d="M300.889,357.84a73.706,73.706,0,0,1,0,8.344,73.706,73.706,0,0,1,0-8.344Z" transform="translate(-235.825 -296.257)" fill="#fff"/><path d="M250.456,403.144l-2.5-1.013s-2.9-4.926-3.5-4.69-.682,1.741.5,4.008l-3.286-.741s-6.817,3.636-6.494,4.049a1.622,1.622,0,0,0,2.45.554c1.486-.863,3.431-1.9,3.431-1.9l3.84.868-4.84.909-4.349,4.422a2.245,2.245,0,0,0,2.8-.223l12.043,1.9h5.1l.273-6.74Z" transform="translate(-200.043 -317.856)" fill="#ffbe9d"/><path d="M242.52,420.337c.055.027.255-.336.659-.827a3.572,3.572,0,0,1,.827-.718,3.635,3.635,0,0,1,1.268-.4,17.935,17.935,0,0,0,3.536-.809,17.4,17.4,0,0,0-3.6.454,3.459,3.459,0,0,0-1.386.486,3.258,3.258,0,0,0-.85.845,2.117,2.117,0,0,0-.45.973Z" transform="translate(-204.055 -328.833)" fill="#eb996e"/><path d="M246.618,423.213c.045,0,.068-.25.4-.341s.877-.173,1.436-.264a11.7,11.7,0,0,0,2.081-.332,4.083,4.083,0,0,0-2.136-.036,6.089,6.089,0,0,0-1.482.391.6.6,0,0,0-.341.391C246.55,423.154,246.6,423.218,246.618,423.213Z" transform="translate(-206.262 -331.336)" fill="#eb996e"/><path d="M258.211,406.985a8.59,8.59,0,0,1-1.2-.341c-.736-.227-1.759-.514-2.9-.8l-2.922-.736a6.266,6.266,0,0,1-1.2-.368,7.049,7.049,0,0,1,1.236.209c.754.154,1.818.377,2.94.668a29.37,29.37,0,0,1,2.895.868A5.4,5.4,0,0,1,258.211,406.985Z" transform="translate(-208.13 -321.843)" fill="#eb996e"/></g><g transform="translate(38.374 57.328)"><path d="M352.3,122.647a3.669,3.669,0,0,1-.027-.491q0-.509-.027-1.363c0-1.172-.027-2.795-.05-4.731l.1.1h-6.571c0,.027.227-.223.118-.118h0v6.558l-.1-.1,4.735.05,1.363.027a1.776,1.776,0,0,1,.5.023,2.778,2.778,0,0,1-.454.027h-1.322l-4.8.055h-.1v-6.662h0c-.1.109.145-.145.118-.118h6.676v.1c0,1.963-.041,3.608-.05,4.8q0,.818-.027,1.322A4.364,4.364,0,0,1,352.3,122.647Z" transform="translate(-217.271 -98.679)" fill="#263238"/><path d="M352.454,116.43c.045.045-1.386,1.545-3.181,3.349a45.5,45.5,0,0,1-3.363,3.181,45.19,45.19,0,0,1,3.181-3.349A43.475,43.475,0,0,1,352.454,116.43Z" transform="translate(-217.422 -98.965)" fill="#263238"/><path d="M352.382,122.892a41.817,41.817,0,0,1-3.29-3.145,43.833,43.833,0,0,1-3.122-3.318,44.485,44.485,0,0,1,3.29,3.149A45.52,45.52,0,0,1,352.382,122.892Z" transform="translate(-217.454 -98.965)" fill="#263238"/><path d="M445.93,203.837a2.055,2.055,0,0,1,.35-.4c.277-.273.618-.618,1.018-1.018.868-.854,2.081-2.022,3.427-3.3l.032-.027v.173c-1.363-1.259-2.577-2.4-3.449-3.24l-1.023-1a2,2,0,0,1-.354-.391,2.524,2.524,0,0,1,.414.323l1.077.945c.909.8,2.141,1.931,3.5,3.181l.091.086-.091.086-.032.032c-1.363,1.277-2.577,2.427-3.472,3.249l-1.073.968a2.355,2.355,0,0,1-.414.336Z" transform="translate(-271.987 -141.627)" fill="#263238"/><path d="M416.771,194.63a2.054,2.054,0,0,1-.35.4l-1.023,1.018c-.868.854-2.077,2.022-3.422,3.3l-.032.027v-.173c1.363,1.259,2.572,2.4,3.449,3.24l1.023,1a2,2,0,0,1,.354.391,2.231,2.231,0,0,1-.414-.323c-.3-.254-.654-.573-1.077-.945-.909-.8-2.14-1.931-3.5-3.181l-.091-.086.091-.086.032-.032c1.363-1.277,2.577-2.427,3.472-3.249l1.073-.968a2.668,2.668,0,0,1,.414-.336Z" transform="translate(-253.308 -141.627)" fill="#263238"/><path d="M428.787,203.25c-.059,0,1.041-3.1,2.454-6.876s2.618-6.817,2.681-6.794-1.041,3.1-2.459,6.876S428.846,203.273,428.787,203.25Z" transform="translate(-262.634 -138.872)" fill="#263238"/><path d="M431.128,200.795v-2c0-1.3,0-3.181-.027-5.608,0-4.831-.032-11.73-.05-20.051l.1.1-34.084.023h0l.118-.118v27.658l-.109-.109,24.609.055,6.976.027h.059l-6.953.027-24.677.055h-.1V173h34.307v.1c0,8.344-.036,15.27-.05,20.114,0,2.4,0,4.29-.027,5.585v1.463A1.5,1.5,0,0,1,431.128,200.795Z" transform="translate(-245.283 -129.827)" fill="#263238"/><path d="M431.461,182.188c0,.064-7.694.118-17.178.118s-17.183-.055-17.183-.118,7.689-.118,17.183-.118S431.461,182.12,431.461,182.188Z" transform="translate(-245.348 -134.775)" fill="#263238"/><path d="M402.159,177.334a.454.454,0,1,1-.454-.454A.454.454,0,0,1,402.159,177.334Z" transform="translate(-247.612 -131.943)" fill="#263238"/><path d="M405.839,177.334a.454.454,0,1,1-.454-.454A.454.454,0,0,1,405.839,177.334Z" transform="translate(-249.62 -131.943)" fill="#263238"/><path d="M409.519,177.334a.454.454,0,1,1-.454-.454A.454.454,0,0,1,409.519,177.334Z" transform="translate(-251.627 -131.943)" fill="#263238"/><rect width="26.927" height="19.196" transform="translate(89.601 1.504)" fill="#455a64"/><path d="M287.469,87.438c0,.064-6.081.118-13.575.118s-13.575-.055-13.575-.118,6.076-.118,13.575-.118S287.469,87.37,287.469,87.438Z" transform="translate(-170.729 -83.084)" fill="#fff"/><path d="M264.3,84.107a.368.368,0,1,1-.364-.318A.345.345,0,0,1,264.3,84.107Z" transform="translate(-172.5 -81.158)" fill="#fff"/><path d="M267.21,84.107a.368.368,0,1,1-.364-.318A.345.345,0,0,1,267.21,84.107Z" transform="translate(-174.088 -81.158)" fill="#fff"/><ellipse cx="0.364" cy="0.318" rx="0.364" ry="0.318" transform="translate(93.718 2.631)" fill="#fff"/><path d="M277.17,102.194c0,1.154-.836,1.85-2.213,1.85H273.5v1.709h-.573V100.34h2.027C276.334,100.34,277.17,101.035,277.17,102.194Zm-.573,0c0-.863-.573-1.363-1.654-1.363H273.5v2.7h1.441C276.025,103.539,276.6,103.044,276.6,102.194Z" transform="translate(-177.608 -90.187)" fill="#fff"/><path d="M289.513,100.34v5.413h-.564v-2.5h-3.39v2.5H285V100.34h.573v2.413h3.39V100.34Z" transform="translate(-184.193 -90.187)" fill="#fff"/><path d="M303.036,102.194c0,1.154-.832,1.85-2.209,1.85h-1.454v1.709H298.8V100.34h2.027C302.2,100.34,303.036,101.035,303.036,102.194Zm-.568,0c0-.863-.573-1.363-1.654-1.363h-1.441v2.7h1.441C301.895,103.539,302.467,103.044,302.467,102.194Z" transform="translate(-191.721 -90.187)" fill="#fff"/><path d="M200,163.653l.354-.391a2.1,2.1,0,0,0,1.781,1.013c1.068,0,1.6-.609,1.6-1.9v-5.154h-2.963V156.7h3.549v5.667c0,1.618-.75,2.422-2.181,2.422A2.513,2.513,0,0,1,200,163.653Z" transform="translate(-137.821 -120.934)" fill="#ff725e"/><path d="M213.2,166.407l.264-.454a3.477,3.477,0,0,0,2.154.723c1.263,0,1.768-.454,1.768-1.123,0-1.745-3.967-.454-3.967-2.813,0-.909.754-1.641,2.272-1.641a3.668,3.668,0,0,1,2.054.586l-.264.454a3.081,3.081,0,0,0-1.818-.541c-1.168,0-1.686.482-1.686,1.127,0,1.818,3.972.527,3.972,2.809,0,.977-.841,1.641-2.368,1.641A3.745,3.745,0,0,1,213.2,166.407Z" transform="translate(-145.023 -123.334)" fill="#ff725e"/><path d="M210.067,160.405V159c0-.909,0-2.25-.027-3.936,0-3.386-.027-8.2-.05-14l.1.1H189.244c-.027.027.223-.223.118-.114h0v19.342l-.1-.1,15.065.05,4.258.027h.018l-4.231.027-15.133.05h-.1V141.073h0l.118-.123h20.946v.1c0,5.822-.036,10.662-.05,14.061,0,1.677,0,3-.027,3.913v1.023A1.007,1.007,0,0,1,210.067,160.405Z" transform="translate(-131.891 -112.342)" fill="#ff725e"/><path d="M210.114,147.373c0,.064-4.658.118-10.407.118s-10.407-.055-10.407-.118,4.658-.123,10.407-.123S210.114,147.3,210.114,147.373Z" transform="translate(-131.984 -115.779)" fill="#ff725e"/><ellipse cx="0.364" cy="0.323" rx="0.364" ry="0.323" transform="translate(58.816 29.858)" fill="#ff725e"/><path d="M196.25,144.022a.368.368,0,1,1-.364-.323.345.345,0,0,1,.364.323Z" transform="translate(-135.375 -113.842)" fill="#ff725e"/><path d="M199.18,144.022a.368.368,0,1,1-.364-.323.345.345,0,0,1,.364.323Z" transform="translate(-136.974 -113.842)" fill="#ff725e"/><path d="M402.469,97.48a3.358,3.358,0,0,1,3.486-3.413,3.2,3.2,0,0,1,2.39.932l-.3.318a2.808,2.808,0,0,0-2.063-.8,2.959,2.959,0,1,0,0,5.908,2.813,2.813,0,0,0,2.063-.8l.3.318a3.213,3.213,0,0,1-2.39.941,3.358,3.358,0,0,1-3.486-3.4Z" transform="translate(-248.277 -86.764)" fill="#ff725e"/><path d="M417.43,99.978l.223-.364a3.208,3.208,0,0,0,2.218.845c1.363,0,1.941-.586,1.941-1.318,0-2.018-4.195-.8-4.195-3.286,0-.95.727-1.786,2.381-1.786a3.636,3.636,0,0,1,2.027.6l-.186.4A3.327,3.327,0,0,0,420,94.493c-1.309,0-1.9.6-1.9,1.363,0,2.018,4.2.827,4.2,3.268,0,.95-.759,1.777-2.422,1.777a3.454,3.454,0,0,1-2.45-.923Z" transform="translate(-256.439 -86.767)" fill="#ff725e"/><path d="M430.3,99.978l.223-.364a3.181,3.181,0,0,0,2.218.845c1.363,0,1.941-.586,1.941-1.318,0-2.018-4.2-.8-4.2-3.286,0-.95.732-1.786,2.386-1.786a3.636,3.636,0,0,1,2.022.6l-.182.4a3.327,3.327,0,0,0-1.818-.577c-1.309,0-1.9.6-1.9,1.363,0,2.018,4.2.827,4.2,3.268,0,.95-.759,1.777-2.422,1.777a3.454,3.454,0,0,1-2.472-.923Z" transform="translate(-263.46 -86.767)" fill="#ff725e"/><path d="M417.566,97.455V96.074c0-.909,0-2.213-.027-3.89,0-3.358-.027-8.18-.05-14.088l.1.1-29.944.023h0l.118-.118V97.437l-.109-.109,21.541.055,6.176.027h2.077a.935.935,0,0,1,.15,0h-2.177l-6.153.027-21.614.055h-.109V78h.118l29.944.027h.1v.091c-.023,5.908-.041,10.757-.05,14.129v4.876A1.587,1.587,0,0,0,417.566,97.455Z" transform="translate(-240.133 -78)" fill="#ff725e"/><path d="M417.6,84.428c0,.064-6.708.118-15,.118s-15-.055-15-.118,6.708-.118,15-.118S417.6,84.36,417.6,84.428Z" transform="translate(-240.171 -81.442)" fill="#ff725e"/><path d="M391.71,81.072a.368.368,0,1,1-.364-.323A.345.345,0,0,1,391.71,81.072Z" transform="translate(-242.007 -79.5)" fill="#ff725e"/><path d="M394.64,81.072a.368.368,0,1,1-.364-.323.345.345,0,0,1,.364.323Z" transform="translate(-243.606 -79.5)" fill="#ff725e"/><path d="M397.57,81.072a.368.368,0,1,1-.364-.323A.345.345,0,0,1,397.57,81.072Z" transform="translate(-245.204 -79.5)" fill="#ff725e"/><rect width="37.602" height="26.804" transform="translate(101.216 29.476)" fill="#35a3be"/><path d="M307.951,170.24v5.344h-1.232V173.4H304.3v2.181H303.07V170.24H304.3v2.1h2.418v-2.1Z" transform="translate(-194.051 -128.321)" fill="#fff"/><path d="M316.954,171.244h-1.7v-1h4.64v1h-1.7v4.34h-1.232Z" transform="translate(-200.695 -128.321)" fill="#fff"/><path d="M326.92,170.24h1.232v4.317h2.668v1.027h-3.9Z" transform="translate(-207.062 -128.321)" fill="#fff"/><path d="M341.854,175.584V172.4l-1.568,2.627h-.559l-1.559-2.559v3.113H337V170.24h1.018l2,3.308,1.959-3.308h1.009v5.322Z" transform="translate(-212.561 -128.321)" fill="#fff"/><path d="M323.785,151.468c0,.064-8.489.118-18.96.118s-18.955-.055-18.955-.118,8.485-.118,18.955-.118S323.785,151.4,323.785,151.468Z" transform="translate(-184.667 -118.016)" fill="#fff"/><path d="M291.441,146.753a.509.509,0,1,1-.509-.454.482.482,0,0,1,.509.454Z" transform="translate(-187.153 -115.26)" fill="#fff"/><path d="M295.5,146.753a.509.509,0,1,1-.509-.454.482.482,0,0,1,.509.454Z" transform="translate(-189.368 -115.26)" fill="#fff"/><path d="M299.561,146.753a.509.509,0,1,1-.509-.454.482.482,0,0,1,.509.454Z" transform="translate(-191.583 -115.26)" fill="#fff"/><path d="M93.673,237.279a.364.364,0,0,1,0-.091v-1.222c0-.859,0-2.1-.027-3.663,0-3.149-.032-7.63-.055-13l.1.1H75.722c-.027.023.223-.223.118-.114h0v17.965l-.1-.1,13,.055,3.663.027h.027l-3.636.027-13.061.055h-.1V219.31h0c-.109.1.141-.15.118-.123H93.819v.1c0,5.394-.036,9.9-.05,13.061,0,1.559,0,2.79-.027,3.636v1.2A.455.455,0,0,1,93.673,237.279Z" transform="translate(-69.955 -155.023)" fill="#263238"/><path d="M93.848,219.84c.045.045-3.931,4.09-8.88,9.021s-9.012,8.9-9.048,8.857,3.927-4.09,8.88-9.026S93.8,219.794,93.848,219.84Z" transform="translate(-70.13 -155.38)" fill="#263238"/><path d="M93.692,237.522c-.045.045-4.008-3.877-8.848-8.757s-8.73-8.88-8.685-8.926,4.008,3.876,8.853,8.757S93.738,237.472,93.692,237.522Z" transform="translate(-70.261 -155.38)" fill="#263238"/><path d="M159.528,229.908c0,.064-7.144.118-15.951.118s-15.947-.055-15.947-.118,7.14-.118,15.947-.118S159.528,229.845,159.528,229.908Z" transform="translate(-98.34 -160.808)" fill="#263238"/><path d="M159.528,236.218c0,.064-7.144.118-15.951.118s-15.947-.055-15.947-.118,7.14-.118,15.947-.118S159.528,236.15,159.528,236.218Z" transform="translate(-98.34 -164.251)" fill="#263238"/><path d="M159.528,242.518c0,.068-7.144.118-15.951.118s-15.947-.05-15.947-.118,7.14-.118,15.947-.118S159.528,242.455,159.528,242.518Z" transform="translate(-98.34 -167.687)" fill="#263238"/><path d="M159.528,248.858c0,.064-7.144.118-15.951.118s-15.947-.055-15.947-.118,7.14-.118,15.947-.118S159.528,248.776,159.528,248.858Z" transform="translate(-98.34 -171.146)" fill="#263238"/><path d="M141.781,223.6c0,.068-3.286.123-7.33.123s-7.33-.055-7.33-.123,3.281-.118,7.33-.118S141.781,223.535,141.781,223.6Z" transform="translate(-98.062 -157.366)" fill="#263238"/><path d="M63.262,207.51H83.576l51.944.091h.114v28.69h-6.608l.118-.118v6.176l-.2-.2-5.908-5.908.082.032-59.856-.045H63.18v-.077c0-8.926.036-16.092.045-21.032v.045c0,4.931.027,12.079.045,20.987l-.082-.082,59.87-.036h.05l.032.032,5.908,5.908-.2.086v-6.026h6.612l-.118.118V207.71l.114.114-51.867-.2-15-.073h-5.04Z" transform="translate(-63.18 -148.653)" fill="#263238"/></g><g transform="translate(17.71 155.491)"><rect width="39.447" height="9.898" transform="translate(165.449 53.099)" fill="#455a64"/><rect width="24.041" height="3.436" transform="translate(175.197 56.33)" fill="#263238"/><path d="M391.935,419.868a1.918,1.918,0,1,1-.563-1.358A1.922,1.922,0,0,1,391.935,419.868Z" transform="translate(-219.769 -361.62)" fill="#263238"/><rect width="31.507" height="5.353" transform="translate(169.608 47.704)" fill="#263238"/><rect width="39.447" height="9.898" transform="translate(169.608 37.811)" fill="#75b51d"/><path d="M417.35,384.666a2.554,2.554,0,0,1,4.422-1.577l-.686.636a1.509,1.509,0,0,0-1.168-.541,1.484,1.484,0,1,0,1.168,2.418l.686.636a2.545,2.545,0,0,1-4.422-1.572Z" transform="translate(-235.731 -342.156)" fill="#fff"/><path d="M435.638,386.111h-1.154v1.127h-.859v-1.127H432.48V385.3h1.145V384.18h.854V385.3h1.154Z" transform="translate(-243.985 -343.197)" fill="#fff"/><path d="M444.464,386.111H443.31v1.127h-.854v-1.127H441.31V385.3h1.145V384.18h.854V385.3h1.154Z" transform="translate(-248.802 -343.197)" fill="#fff"/><path d="M403.678,386.81c-.064,0-.118-2.154-.118-4.813s.055-4.817.118-4.817.118,2.159.118,4.817A43.59,43.59,0,0,1,403.678,386.81Z" transform="translate(-228.208 -339.378)" fill="#fafafa"/><path d="M399.858,386.81c-.064,0-.118-2.154-.118-4.813s.055-4.817.118-4.817a98.159,98.159,0,0,1,0,9.63Z" transform="translate(-226.124 -339.378)" fill="#fafafa"/><path d="M463.739,386.81a98.172,98.172,0,0,1,0-9.63c.064,0,.118,2.159.118,4.817S463.785,386.81,463.739,386.81Z" transform="translate(-260.966 -339.378)" fill="#fafafa"/><path d="M459.978,386.81c-.064,0-.118-2.154-.118-4.813s.055-4.817.118-4.817.118,2.159.118,4.817S460.042,386.81,459.978,386.81Z" transform="translate(-258.922 -339.378)" fill="#fafafa"/><path d="M419.6,403.441a1.032,1.032,0,0,1,1.082-1.063.909.909,0,0,1,.823.414l-.209.145a.714.714,0,0,0-.614-.314.818.818,0,0,0,0,1.636.718.718,0,0,0,.614-.3l.209.141a.909.909,0,0,1-.823.418,1.036,1.036,0,0,1-1.082-1.073Z" transform="translate(-236.958 -353.124)" fill="#ebebeb"/><path d="M424.37,404.256l.132-.227a1.236,1.236,0,0,0,.745.236c.4,0,.564-.136.564-.341,0-.55-1.363-.118-1.363-.95,0-.341.3-.6.832-.6a1.364,1.364,0,0,1,.741.2l-.123.227a1.082,1.082,0,0,0-.618-.182c-.382,0-.545.15-.545.35,0,.568,1.363.136,1.363.945,0,.364-.318.6-.863.6A1.432,1.432,0,0,1,424.37,404.256Z" transform="translate(-239.561 -353.125)" fill="#ebebeb"/><path d="M428.67,404.256l.132-.227a1.222,1.222,0,0,0,.745.236c.4,0,.564-.136.564-.341,0-.55-1.363-.118-1.363-.95,0-.341.3-.6.832-.6a1.364,1.364,0,0,1,.741.2l-.123.227a1.081,1.081,0,0,0-.618-.182c-.382,0-.545.15-.545.35,0,.568,1.363.136,1.363.945,0,.364-.318.6-.863.6A1.432,1.432,0,0,1,428.67,404.256Z" transform="translate(-241.907 -353.125)" fill="#ebebeb"/><circle cx="0.954" cy="0.954" r="0.954" transform="translate(173.289 49.427)" fill="#ebebeb"/><circle cx="0.954" cy="0.954" r="0.954" transform="translate(197.207 49.427)" fill="#ebebeb"/><rect width="77.176" height="52.585" rx="12" transform="translate(6.335)" fill="#263238"/><path d="M83.052,381.615,78.78,405.806H98.831l3.631-24.686Z" transform="translate(-51.026 -341.528)" fill="#455a64"/><rect width="77.176" height="52.585" rx="12" transform="translate(3.272)" fill="#455a64"/><path d="M126.69,394.113,128.6,381.12l.532,12.993Z" transform="translate(-77.163 -341.528)" fill="#263238"/><path d="M85.526,379.25c.064,0-.423,3.231-1.086,7.189s-1.25,7.162-1.318,7.153.423-3.231,1.086-7.189S85.463,379.241,85.526,379.25Z" transform="translate(-53.392 -340.508)" fill="#263238"/><path d="M109.313,344.811a2.527,2.527,0,1,1-.74-1.791A2.531,2.531,0,0,1,109.313,344.811Z" transform="translate(-64.921 -320.339)" fill="#fafafa"/><path d="M106.77,347.341a2.54,2.54,0,1,1,2.54-2.54A2.54,2.54,0,0,1,106.77,347.341Zm0-5.058a2.518,2.518,0,1,0,2.518,2.518,2.518,2.518,0,0,0-2.518-2.518Z" transform="translate(-64.91 -320.328)" fill="#263238"/><rect width="43.905" height="3.095" transform="translate(65.696 59.902)" fill="#455a64"/><path d="M134.959,423.19h2.2a3.527,3.527,0,0,1,3.527,3.527v.759H131.46v-.759a3.527,3.527,0,0,1,3.5-3.527Z" transform="translate(-79.766 -364.479)" fill="#455a64"/><path d="M140.734,430.339a42.427,42.427,0,0,1-4.445.118,42.5,42.5,0,0,1-4.449-.118,41.04,41.04,0,0,1,4.449-.118,41,41,0,0,1,4.445.118Z" transform="translate(-79.973 -368.306)" fill="#263238"/><path d="M141.556,423.11a5.581,5.581,0,0,1,.077,1.631,5.83,5.83,0,0,1-.164,1.622,5.68,5.68,0,0,1-.073-1.627,5.88,5.88,0,0,1,.159-1.627Z" transform="translate(-85.171 -364.435)" fill="#263238"/><rect width="211.136" height="6.144" transform="translate(0 62.997)" fill="#263238"/></g></g></g></svg>