<svg xmlns="http://www.w3.org/2000/svg" width="302.205" height="176.788" viewBox="0 0 302.205 176.788"><g transform="translate(-2125.454 9545.8)"><path d="M80,0H302.2a0,0,0,0,1,0,0V78.5a80,80,0,0,1-80,80H0a0,0,0,0,1,0,0V80A80,80,0,0,1,80,0Z" transform="translate(2125.454 -9527.512)" fill="#2df0da"/><g transform="translate(2142.62 -9589.02)"><g transform="translate(28.307 43.22)"><rect width="86.285" height="77.198" transform="translate(0.233 0.233)" fill="#fafafa"/><path d="M125.958,120.647s0-.495-.021-1.431,0-2.333,0-4.138c0-3.622-.029-8.921-.054-15.671-.021-13.487-.058-32.76-.1-55.954l.2.2-86.306.033h0l.229-.229c0,28.085,0,54.511-.025,77.194l-.2-.2,62.409.1,17.6.054,4.662.025h.05l-4.621.025-17.559.054-62.542.146h-.2v-.2c0-22.683,0-49.109-.029-77.194V43.22h.233l86.277.033h.2v.2c-.042,23.244-.075,42.563-.1,56.079,0,6.729-.037,12.015-.05,15.629,0,1.784,0,3.157-.021,4.1S125.958,120.647,125.958,120.647Z" transform="translate(-39.44 -43.22)" fill="#e0e0e0"/><path d="M91.057,76.433c0,.125-4.542.229-10.144.229s-10.144-.1-10.144-.229,4.542-.233,10.144-.233S91.057,76.3,91.057,76.433Z" transform="translate(-57.74 -62.484)" fill="#e0e0e0"/><path d="M129.19,90.369c0,.129-12.477.233-27.865.233s-27.865-.1-27.865-.233,12.477-.229,27.865-.229S129.19,90.244,129.19,90.369Z" transform="translate(-59.311 -70.626)" fill="#e0e0e0"/><rect width="3.635" height="3.635" transform="translate(13.18 29.562)" fill="#e0e0e0"/><rect width="3.635" height="3.635" transform="translate(22.126 29.562)" fill="#e0e0e0"/><rect width="3.635" height="3.635" transform="translate(31.242 29.395)" fill="#e0e0e0"/><rect width="3.635" height="3.635" transform="translate(40.026 29.562)" fill="#e0e0e0"/><rect width="3.635" height="3.635" transform="translate(48.971 29.562)" fill="#e0e0e0"/><rect width="3.635" height="3.635" transform="translate(57.922 29.562)" fill="#e0e0e0"/><rect width="3.635" height="3.635" transform="translate(66.867 29.562)" fill="#ebebeb"/><rect width="3.635" height="3.635" transform="translate(13.18 37.289)" fill="#ebebeb"/><rect width="3.635" height="3.635" transform="translate(22.126 37.289)" fill="#e0e0e0"/><rect width="3.635" height="3.635" transform="translate(31.076 37.289)" fill="#ebebeb"/><rect width="3.635" height="3.635" transform="translate(40.026 37.289)" fill="#e0e0e0"/><rect width="3.635" height="3.635" transform="translate(48.971 37.289)" fill="#e0e0e0"/><rect width="3.635" height="3.635" transform="translate(58.088 37.127)" fill="#e0e0e0"/><rect width="3.635" height="3.635" transform="translate(66.867 37.289)" fill="#e0e0e0"/><rect width="3.635" height="3.635" transform="translate(13.18 45.02)" fill="#e0e0e0"/><rect width="3.635" height="3.635" transform="translate(22.292 44.854)" fill="#e0e0e0"/><rect width="3.635" height="3.635" transform="translate(31.076 45.02)" fill="#e0e0e0"/><rect width="3.635" height="3.635" transform="translate(40.026 45.02)" fill="#ebebeb"/><rect width="3.635" height="3.635" transform="translate(48.971 45.02)" fill="#e0e0e0"/><rect width="3.635" height="3.635" transform="translate(57.922 45.02)" fill="#e0e0e0"/><rect width="3.635" height="3.635" transform="translate(66.867 45.02)" fill="#e0e0e0"/><rect width="3.635" height="3.635" transform="translate(13.18 52.748)" fill="#e0e0e0"/><rect width="3.635" height="3.635" transform="translate(22.126 52.748)" fill="#e0e0e0"/><rect width="3.635" height="3.635" transform="translate(31.076 52.748)" fill="#e0e0e0"/><rect width="3.635" height="3.635" transform="translate(40.188 52.581)" fill="#e0e0e0"/><rect width="3.635" height="3.635" transform="translate(48.971 52.748)" fill="#e0e0e0"/><rect width="3.635" height="3.635" transform="translate(57.922 52.748)" fill="#ebebeb"/><rect width="3.635" height="3.635" transform="translate(66.867 52.748)" fill="#e0e0e0"/><rect width="3.635" height="3.635" transform="translate(13.18 60.475)" fill="#e0e0e0"/><rect width="3.635" height="3.635" transform="translate(22.126 60.475)" fill="#ebebeb"/><rect width="3.635" height="3.635" transform="translate(31.076 60.475)" fill="#e0e0e0"/><rect width="3.635" height="3.635" transform="translate(40.026 60.475)" fill="#e0e0e0"/><rect width="3.635" height="3.635" transform="translate(48.971 60.475)" fill="#e0e0e0"/><rect width="3.635" height="3.635" transform="translate(58.088 60.309)" fill="#e0e0e0"/><rect width="3.635" height="3.635" transform="translate(66.867 60.475)" fill="#e0e0e0"/><path d="M403.54,410.843a1.4,1.4,0,0,1-.137.212l-.441.586-1.722,2.2-.079.1-.075-.1-4.23-5.852h.241l-4.159,5.9-.133.187-.146-.175-4.941-5.881H388l-.27.341c-1.535,1.921-3.015,3.785-4.421,5.54l-.146.187-.137-.191c-1.5-2.125-2.911-4.109-4.159-5.9h.241l-5.132,5.852-.091.1-.071-.121c-.678-1.135-1.214-2.042-1.605-2.7l-.416-.719a1.119,1.119,0,0,1-.125-.258,1.277,1.277,0,0,1,.175.229c.116.183.27.416.453.695l1.689,2.649h-.162l5.053-5.926.129-.146.112.158,4.209,5.872h-.283l4.408-5.548.27-.341.141-.175.146.171,4.924,5.893h-.274l4.209-5.868.121-.171.121.171,4.159,5.918h-.154l1.792-2.15.482-.557a1.251,1.251,0,0,1,.15-.183Z" transform="translate(-233.498 -256.068)" fill="#f5f5f5"/><path d="M404.127,396.663c0,.1-7.407.183-16.548.183s-16.548-.083-16.548-.183,7.411-.183,16.548-.183S404.127,396.559,404.127,396.663Z" transform="translate(-233.124 -249.561)" fill="#f5f5f5"/><path d="M403.686,456.9c0,.1-8.052.183-17.983.183S367.72,457,367.72,456.9s8.052-.187,17.983-.187S403.686,456.793,403.686,456.9Z" transform="translate(-231.19 -284.742)" fill="#f5f5f5"/></g><g transform="translate(36.419 72.761)"><path d="M124.244,247.14l-3.327,1.784-7.365,5.669S91,257.587,90.133,258.236s-12.061,5.976-13.6,13.126S71.9,325.137,71.9,325.137l4.092,13.774,82.143.129,19.264-.275s7.4-17.289,7.4-22.042-2.163-40.5-2.163-40.5l-23.1-16.291Z" transform="translate(-66.513 -191.872)" fill="#ff8900"/><path d="M161.786,264.25a.989.989,0,0,1-.112.191c-.1.141-.216.316-.362.528-.324.449-.765,1.123-1.277,1.967-.25.416-.532.89-.794,1.41s-.545,1.073-.832,1.664a33.775,33.775,0,0,0-1.493,3.984,53.933,53.933,0,0,0-1.6,7.561c-.141.957-.254,1.743-.337,2.325-.037.254-.067.462-.091.632a.758.758,0,0,1-.05.216.881.881,0,0,1,0-.22c0-.171.033-.383.054-.64.05-.553.141-1.352.266-2.333a48.369,48.369,0,0,1,1.564-7.607,32.273,32.273,0,0,1,1.518-4c.283-.6.557-1.16.832-1.664s.561-.982.832-1.406c.536-.832.994-1.5,1.339-1.938l.4-.5A.986.986,0,0,1,161.786,264.25Z" transform="translate(-114.954 -201.866)" fill="#263238"/><g transform="translate(40.123 74.941)" opacity="0.3"><path d="M162.64,295.595c-.137-.441-.312-.936-.74-1.106-.333-.137-.2.079-.532.22-3.119,1.285-4.625,4.159-5.947,7.42l.075-.079a1.3,1.3,0,0,0,.512,1.51,2.461,2.461,0,0,0,2.329-.187,10.66,10.66,0,0,1,2.175-1.094c1.705-.441,3.406.728,4.612,2.017s2.287,2.82,3.934,3.456A37.933,37.933,0,0,1,162.64,295.595Z" transform="translate(-155.42 -294.445)"/></g><path d="M154.83,299.337a20.046,20.046,0,0,1,1.323-2.645,19.829,19.829,0,0,1,1.98-2.845,11.5,11.5,0,0,1,1.555-1.518,5.174,5.174,0,0,1,2.2-1.052h.062l.025.062c.52,1.36,1.069,2.845,1.705,4.408A34.57,34.57,0,0,0,166,300.564a23.29,23.29,0,0,0,3.577,4.625,29.319,29.319,0,0,0,4.9,3.884c.6.354,1.185.732,1.788,1.065l1.8.961h-.108l3-2.079,1.456-1c.482-.329.952-.657,1.4-1.007a36.746,36.746,0,0,0,4.658-4.379h0a17.53,17.53,0,0,0,4.28-4.675,16,16,0,0,0,1.926-4.479,16.5,16.5,0,0,0,.491-3.1c.025-.366,0-.645.029-.832a.7.7,0,0,0,0-.283v1.115a15.305,15.305,0,0,1-.441,3.128,15.97,15.97,0,0,1-1.9,4.533,17.626,17.626,0,0,1-4.263,4.729h0a36.854,36.854,0,0,1-4.675,4.421c-.449.354-.919.686-1.4,1.015l-1.456,1.006-3,2.079-.05.037-.058-.029-1.809-.965c-.607-.333-1.194-.711-1.8-1.069a29.02,29.02,0,0,1-4.937-3.918,23.386,23.386,0,0,1-3.6-4.671,34.592,34.592,0,0,1-2.3-4.866c-.632-1.572-1.173-3.061-1.684-4.421l.087.05a5.053,5.053,0,0,0-2.134,1.011,11.493,11.493,0,0,0-1.547,1.485,20.632,20.632,0,0,0-2,2.807c-.487.832-.832,1.472-1.052,1.917l-.254.512A.72.72,0,0,1,154.83,299.337Z" transform="translate(-114.953 -216.475)" fill="#263238"/><path d="M243.025,288.87a41.286,41.286,0,0,1-.3,6.342,48.523,48.523,0,0,1-1.268,6.808,57.7,57.7,0,0,1-2.753,8.06l-.158.374-.05-.416c-.029-.241-.05-.5-.091-.769a22.2,22.2,0,0,0-1.036-4.383c-.237-.69-.507-1.356-.8-2-.146-.32-.3-.632-.458-.94a5.688,5.688,0,0,0-.507-.865,1.7,1.7,0,0,0-.732-.6.832.832,0,0,0-.832.158,6.1,6.1,0,0,0-.632.674l-.6.686-2.2,2.5-3.2,3.622-.853,1-.233.25-.083.079a.627.627,0,0,1,.067-.1l.216-.262.832-1.006,3.144-3.668,2.179-2.529c.2-.229.416-.457.6-.695a6.4,6.4,0,0,1,.657-.7,1.015,1.015,0,0,1,1-.191,1.88,1.88,0,0,1,.807.661,5.9,5.9,0,0,1,.532.894c.158.308.316.624.462.944.3.645.57,1.318.832,2.013a22.63,22.63,0,0,1,1.048,4.433c.042.266.062.532.091.778L238.5,310a59.3,59.3,0,0,0,2.762-8.027,50.742,50.742,0,0,0,1.31-6.775c.241-1.946.341-3.531.383-4.625.029-.549.029-.973.042-1.248v-.329A.214.214,0,0,1,243.025,288.87Z" transform="translate(-156.664 -216.247)" fill="#263238"/><path d="M185.228,261.24s0,.033-.062.083l-.2.225c-.183.191-.416.495-.728.89a16.515,16.515,0,0,0-2,3.743,23.95,23.95,0,0,0-1.493,6.08,24.379,24.379,0,0,0,.333,7.644,20.279,20.279,0,0,0,1.164,3.8,19.835,19.835,0,0,0,1.734,3.265,21.081,21.081,0,0,0,4.159,4.666c.67.591,1.352,1.031,1.921,1.456a13.821,13.821,0,0,0,1.551.961l1.011.557.262.15a.361.361,0,0,1,.087.058.214.214,0,0,1-.1-.037l-.27-.133-1.036-.52c-.441-.237-.961-.57-1.576-.936a13.736,13.736,0,0,1-1.951-1.439,20.845,20.845,0,0,1-4.234-4.675,19.884,19.884,0,0,1-1.734-3.327,20.435,20.435,0,0,1-1.181-3.83,24.193,24.193,0,0,1-.316-7.715,23.706,23.706,0,0,1,1.547-6.114,15.8,15.8,0,0,1,2.079-3.718,8.734,8.734,0,0,1,.769-.869l.212-.212Z" transform="translate(-129.892 -200.108)" fill="#263238"/><path d="M101.7,326.98a.656.656,0,0,1,.083.116l.22.387h-.062c-.3-1.4-1.1-5.681-2.021-10.751-.549-3.119-1.048-5.943-1.418-8.027-.166-1.006-.3-1.83-.416-2.437-.037-.27-.071-.487-.1-.665a.89.89,0,0,1-.021-.233,1.148,1.148,0,0,1,.062.229c.037.171.083.391.137.657.121.6.279,1.422.474,2.425.387,2.079.907,4.9,1.485,8.014.915,5.066,1.664,9.366,1.872,10.776l.033.212-.1-.191-.2-.416a.607.607,0,0,1-.042-.1Z" transform="translate(-81.739 -225.885)" fill="#263238"/><path d="M98.23,341.923c-.054.025-1.1-2.079-2.341-4.7s-2.2-4.774-2.142-4.8,1.1,2.079,2.341,4.7S98.284,341.9,98.23,341.923Z" transform="translate(-79.272 -241.685)" fill="#263238"/><g transform="translate(18.53 96.717)" opacity="0.3"><path d="M103.5,396.051c2.608,1.31,8.655-1,10.851-3.884s2.832-6.633,3.327-10.227q1.077-8.122,1.539-16.307a24.787,24.787,0,0,0,15.617,4.716c3.527-.162,7.548-1.564,8.642-4.92s-1.248-6.742-3.66-9.266a56.881,56.881,0,0,0-7.486-6.571,12.762,12.762,0,0,0-5.86-2.749,8.7,8.7,0,0,0-6.488,2.246,15.452,15.452,0,0,0-3.934,5.793c-2.782,6.634-2.633,14.057-3.2,21.211s-1.327,14.594-7.677,19.26" transform="translate(-103.5 -346.802)"/></g><path d="M103.91,412.693a1.057,1.057,0,0,1,.179-.083l.524-.229a9.522,9.522,0,0,0,1.78-1.223,24.8,24.8,0,0,0,4.8-5.989v.033c.378-2.849.832-6.176,1.293-9.711.765-5.606,1.439-10.68,1.984-14.348.337-1.809.607-3.277.8-4.317.1-.495.171-.886.229-1.173l.062-.3a.416.416,0,0,1,.029-.1.287.287,0,0,1,0,.1,3.085,3.085,0,0,1-.046.308l-.187,1.181c-.179,1.04-.416,2.5-.736,4.325-.491,3.689-1.169,8.734-1.917,14.352-.482,3.535-.936,6.858-1.323,9.707v.021h0a24.267,24.267,0,0,1-4.9,5.985,8.861,8.861,0,0,1-1.826,1.189c-.233.1-.416.158-.541.2A.61.61,0,0,1,103.91,412.693Z" transform="translate(-85.21 -266.702)" fill="#263238"/><path d="M198.706,394.145a.543.543,0,0,1-.042-.129c-.025-.1-.054-.229-.091-.391-.075-.345-.212-.832-.32-1.506a37.742,37.742,0,0,1-.574-5.648,54.646,54.646,0,0,1,.449-8.393c.383-3.144,1.019-6.567,1.759-10.144s1.6-6.95,2.325-10.023a47.637,47.637,0,0,0,1.335-8.268,30.08,30.08,0,0,0-.208-5.64c-.071-.665-.183-1.173-.233-1.522l-.058-.4a.572.572,0,0,1,0-.137.536.536,0,0,1,.033.133c.021.1.05.229.083.391.058.345.187.832.27,1.518a28.883,28.883,0,0,1,.279,5.66,46.729,46.729,0,0,1-1.293,8.318c-.715,3.082-1.6,6.442-2.308,10.023s-1.381,6.987-1.776,10.123a55.891,55.891,0,0,0-.5,8.355,40.039,40.039,0,0,0,.5,5.627c.1.661.22,1.164.279,1.514.029.162.054.3.071.4S198.706,394.145,198.706,394.145Z" transform="translate(-139.972 -247.251)" fill="#263238"/><path d="M217,347.26c-.05-.033.665-1.177,1.464-2.637s1.377-2.678,1.435-2.653a3.181,3.181,0,0,1-.3.832c-.216.5-.545,1.185-.944,1.921s-.8,1.377-1.11,1.83a3.251,3.251,0,0,1-.545.707Z" transform="translate(-151.263 -247.262)" fill="#263238"/><g transform="translate(66.832 83.714)" opacity="0.3"><path d="M219.881,330.1a69.615,69.615,0,0,1,7.024-7.116,4.958,4.958,0,0,1,2.333-1.364,3.462,3.462,0,0,1,2.978,1.2,10.272,10.272,0,0,1,1.7,2.861c1.09-2.678-.042-5.7-1.165-8.364-.366-.869-1-1.9-1.93-1.759a2.155,2.155,0,0,0-1.2.857,129.876,129.876,0,0,0-9.981,13.2" transform="translate(-219.64 -315.538)"/></g><g transform="translate(96.201 77.144)" opacity="0.3"><path d="M297.7,301.058l.154-1.318c-1.585.15-3.531.337-4.8,1.3-1.476,1.127-2.079,3.044-2.554,4.833-1.131,4.067,2.079,25.008,1.913,29.229,1.4-.595,2.391-9.566,2.641-11.088.615-3.664-.628-5.951-.25-6.975a9.958,9.958,0,0,0,.4-3.219,32.031,32.031,0,0,1,2.5-12.764" transform="translate(-290.258 -299.74)"/></g><path d="M230.119,125.5c-2.013-2.5-1.352-6.484.952-8.734s5.823-2.874,8.971-2.341a14.756,14.756,0,0,1,10.693,8.089c1.081,2.267,1.664,4.945,3.647,6.484,1.738,1.356,4.134,1.472,6.114,2.445a9.987,9.987,0,0,1,4.991,6.97,21.169,21.169,0,0,1-.37,8.8c-.561,2.653-1.31,5.523-.171,7.981s3.706,3.71,5.407,5.731a9.526,9.526,0,0,1-1.493,13.246c-1.268.952-2.874,1.664-3.481,3.144-.553,1.339-.083,2.857-.112,4.3a6.448,6.448,0,0,1-7.781,5.823c-1.813-.5-3.485-1.838-5.353-1.585s-3.09,1.967-4.575,3.078a8.056,8.056,0,0,1-10.131-.761c-1.09-1.085-1.967-2.562-3.456-2.957s-3.048.457-4.575.25c-1.992-.27-3.3-2.25-3.893-4.159s-.744-4.009-1.738-5.756c-1.31-2.312-3.805-3.6-5.885-5.219a20.379,20.379,0,0,1-1.747-30.735" transform="translate(-147.155 -114.251)" fill="#263238"/><path d="M184.888,261.27a19.164,19.164,0,0,0-4.067,16.985c1.485,5.868,6.392,14.448,12.061,16.578,3.676-2.7,8.4-6.459,11.828-9.462,2.217-1.942,3.394-4.783,4.492-7.519.632-1.58,1.277-3.286.882-4.941a7.149,7.149,0,0,0-1.988-3.136,25.423,25.423,0,0,0-22.017-7.345" transform="translate(-129.818 -200.126)" fill="#ef9d78"/><path d="M207.064,151.775h0a10.09,10.09,0,0,1,11.541-5.315l14.186,3.618c7.091,2.283,12.643,13.259,8.463,22.874-3.3,7.59-6.683,17.127-10.073,22.367-6.821,10.53-16.145,8.122-16.145,8.122L210,214.67,189.43,195.377Z" transform="translate(-135.163 -132.881)" fill="#ef9d78"/><path d="M289.312,217.723c.266-.1.965,1.248,2.5,1.967s3.044.516,3.119.786c.042.125-.3.374-.969.491a4.329,4.329,0,0,1-2.608-.416,4.159,4.159,0,0,1-1.88-1.8C289.179,218.18,289.183,217.764,289.312,217.723Z" transform="translate(-193.455 -174.686)" fill="#263238"/><path d="M250.649,200.138c.3-.058.99,1.418,2.645,2.445s3.327,1.056,3.4,1.343c.037.133-.358.329-1.1.337a5.536,5.536,0,0,1-2.857-.861,5.2,5.2,0,0,1-1.967-2.167C250.475,200.583,250.5,200.158,250.649,200.138Z" transform="translate(-170.859 -164.417)" fill="#263238"/><path d="M267.169,219.116a11.278,11.278,0,0,1,2.741.67c.416.133.832.225,1.019-.021a2.527,2.527,0,0,0,.258-1.3c.054-1.131.112-2.317.166-3.564.283-5.053.67-9.15.873-9.129s.146,4.122-.133,9.179q-.117,1.867-.225,3.56a2.564,2.564,0,0,1-.487,1.664,1.1,1.1,0,0,1-.919.291,2.97,2.97,0,0,1-.719-.2A11.289,11.289,0,0,1,267.169,219.116Z" transform="translate(-180.57 -167.708)" fill="#263238"/><path d="M231.678,268.6A32.8,32.8,0,0,1,217.92,257.63s.312,9.632,12.5,13.791Z" transform="translate(-151.804 -198)" fill="#d37a57"/><path d="M253.864,187.11c.258-.416,1.884.15,3.9.329s3.714-.021,3.889.441c.075.22-.291.591-1.023.894a6.808,6.808,0,0,1-5.935-.586C254.035,187.742,253.748,187.31,253.864,187.11Z" transform="translate(-172.784 -156.721)" fill="#263238"/><path d="M297.022,198.32c.524,0,1.173,1.293,2.3,2.529s2.283,2.079,2.208,2.6c-.05.237-.487.341-1.177.137a5.407,5.407,0,0,1-2.35-1.605,5.312,5.312,0,0,1-1.277-2.529C296.614,198.748,296.776,198.337,297.022,198.32Z" transform="translate(-197.813 -163.356)" fill="#263238"/><path d="M251.713,241.346s.965-.5.516-2.358-2.8-3.531-4.3-2c0,0-1.506.112-.915,1.851s4.026,4.192,4.666,2.795" transform="translate(-168.719 -185.592)" fill="#d37a57"/><path d="M251.138,243.554c-.275-.05.141-1.859-1.106-3.5s-3.219-1.892-3.173-2.15c0-.121.512-.25,1.331-.083a4.6,4.6,0,0,1,2.67,1.693,4.018,4.018,0,0,1,.811,2.911C251.567,243.192,251.259,243.591,251.138,243.554Z" transform="translate(-168.707 -186.381)" fill="#263238"/><path d="M173.447,145.47a8.875,8.875,0,0,0-3.41,7.266c.062,1.555.441,3.39-.7,4.446s-3,.495-4.575.5a5.9,5.9,0,0,0-5.644,5.057,7.639,7.639,0,0,1-.482,2.911c-.482.869-1.568,1.285-2.45,1.822a7.336,7.336,0,0,0,.245,12.693,9.438,9.438,0,0,1,2.953,1.809c.832,1.027.882,2.5,1.3,3.743a6.164,6.164,0,0,0,11.678.083" transform="translate(-113.678 -132.486)" fill="#263238"/><path d="M256.452,133.769a8.78,8.78,0,0,0,7.033,11.537c1.971.287,4.325.037,5.6,1.572,1.339,1.614.545,4.184,1.605,6,1.51,2.583,4.092,4.646,6.538,6.376,1.892,1.335-.27,5.049.553,7.212s4.213,7.1,6.525,7.187c.507-1.934,3.385-10.431,3.435-12.427a8.851,8.851,0,0,0-1.639-5.648,32.592,32.592,0,0,1-2.154-2.47c-1.268-2-.832-4.575-1.248-6.916a9.607,9.607,0,0,0-5.407-6.97c-2.308-1.056-5.016-1.173-7.149-2.549-1.576-1.019-2.7-2.645-4.338-3.568-3.182-1.8-7.166-.416-10.456,1.164" transform="translate(-173.667 -124.765)" fill="#263238"/><path d="M196.811,154.861a1.435,1.435,0,0,0-.358,2.749c3.772,2.3,7.012-5.49,6.875-8.081a26.309,26.309,0,0,0,5.556-2.911c1.693-1.277,4.221-5.481,4.675-7.619,1.443.586,8.418.64,7.81.22-1.377-.952-4.159-2.994-4.529-4.575a9.833,9.833,0,0,0-6.53-7.4,8.118,8.118,0,0,0-8.979,3.743,11.653,11.653,0,0,0-11.574,2.911,13.525,13.525,0,0,0-3.689,12.036,6.678,6.678,0,0,1,.245,3.36c-.441,1.356-1.8,2.079-2.89,2.969-2.957,2.4-4.23,6.654-3.868,10.468s1.019,5.348,2.911,6.733c3.706,2.7-4,9.615,2.911,11.953" transform="translate(-129.36 -121.694)" fill="#263238"/><path d="M293.821,181.109c0-.025.245-.171.649-.549a5.822,5.822,0,0,0,1.393-1.955,5.939,5.939,0,0,0,.387-3.71,7.658,7.658,0,0,0-2.882-4.009,20.291,20.291,0,0,1-4.612-4.238,9.75,9.75,0,0,1-1.135-7.07c.424-2.5,1.472-4.991,2.146-7.615a14.414,14.414,0,0,0,.512-4.059,8.018,8.018,0,0,0-1.09-3.963,7.349,7.349,0,0,0-3.094-2.682,14.394,14.394,0,0,0-3.909-1.189,28.185,28.185,0,0,1-3.993-.765,4.991,4.991,0,0,1-3.107-2.45,14.7,14.7,0,0,1-1-3.593,7.2,7.2,0,0,0-1.348-3.053,8.339,8.339,0,0,0-5.12-3.036,8.759,8.759,0,0,0-4.932.591,11.229,11.229,0,0,0-3.194,2.079,17.086,17.086,0,0,0-2.113,2.516,1,1,0,0,1,.091-.2,6.216,6.216,0,0,1,.32-.553,10.629,10.629,0,0,1,1.551-1.917,11.229,11.229,0,0,1,3.223-2.2,9.063,9.063,0,0,1,5.12-.695,8.7,8.7,0,0,1,5.386,3.152,7.669,7.669,0,0,1,1.456,3.227,14.329,14.329,0,0,0,.977,3.469,4.5,4.5,0,0,0,2.82,2.179,27.451,27.451,0,0,0,3.922.736,14.972,14.972,0,0,1,4.063,1.248,7.9,7.9,0,0,1,3.327,2.882,8.551,8.551,0,0,1,1.165,4.234,14.847,14.847,0,0,1-.532,4.209c-.7,2.674-1.759,5.115-2.171,7.565a9.272,9.272,0,0,0,1.015,6.725c1.231,1.809,3.053,2.936,4.488,4.192a8.145,8.145,0,0,1,2.911,4.238,6.105,6.105,0,0,1-.495,3.864,5.594,5.594,0,0,1-1.51,1.951A2.866,2.866,0,0,1,293.821,181.109Z" transform="translate(-174.853 -121.512)" fill="#455a64"/><path d="M312.788,197.17c.046.021-.2.595-.457,1.684a12.331,12.331,0,0,0-.146,4.687,11.646,11.646,0,0,0,.94,3.09,15.434,15.434,0,0,0,2.038,3.119,9.185,9.185,0,0,1,1.11,1.784,4.392,4.392,0,0,1,.391,2.2,14.957,14.957,0,0,1-1.447,4.321,5.507,5.507,0,0,0-.383,4.159,10.342,10.342,0,0,0,2.47,3.194,12.773,12.773,0,0,1,2.445,2.969,4.621,4.621,0,0,1,.416,3.348,5.552,5.552,0,0,1-2.978,3.706,4.334,4.334,0,0,1-1.268.354,1.588,1.588,0,0,1-.457,0,8.472,8.472,0,0,0,1.634-.541,5.456,5.456,0,0,0,2.691-3.606,4.3,4.3,0,0,0-.416-3.048,12.373,12.373,0,0,0-2.4-2.82,10.254,10.254,0,0,1-2.616-3.365,4.6,4.6,0,0,1-.279-2.3,8.967,8.967,0,0,1,.657-2.25,14.762,14.762,0,0,0,1.418-4.159,5.472,5.472,0,0,0-1.372-3.652,15.389,15.389,0,0,1-2.046-3.236,11.936,11.936,0,0,1-.586-8.014,8.2,8.2,0,0,1,.445-1.248,1.393,1.393,0,0,1,.191-.378Z" transform="translate(-206.592 -162.684)" fill="#455a64"/><path d="M160.939,175.274a1.57,1.57,0,0,1-.237-.175,4.62,4.62,0,0,1-.607-.611,6.542,6.542,0,0,1-1.381-2.957,6.355,6.355,0,0,1,1.019-4.937,6.862,6.862,0,0,1,5.852-2.866l-.229.308a10.539,10.539,0,0,1-.7-4.329,5.552,5.552,0,0,1,2.225-4.159,4.159,4.159,0,0,1,2.433-.832,6.126,6.126,0,0,1,2.516.711,9.752,9.752,0,0,0,2.317.9,2.5,2.5,0,0,0,2.2-.653,4.866,4.866,0,0,0,1.364-3.273c.1-1.223-.021-2.466.108-3.71a10.4,10.4,0,0,1,3.061-6.3,9.915,9.915,0,0,1,5.631-2.732,10.206,10.206,0,0,1,5.286.661l-.233.1a5.456,5.456,0,0,1,2.861-2.628,5.972,5.972,0,0,1,2.882-.416,5.037,5.037,0,0,1,1.751.507,2.47,2.47,0,0,1,.528.349,6.309,6.309,0,0,0-2.3-.657,5.91,5.91,0,0,0-2.753.495,5.157,5.157,0,0,0-2.641,2.516l-.075.154-.162-.062a9.982,9.982,0,0,0-5.086-.57,9.566,9.566,0,0,0-5.344,2.653,9.919,9.919,0,0,0-2.882,6c-.121,1.177,0,2.416-.1,3.706a5.382,5.382,0,0,1-1.535,3.627,3.065,3.065,0,0,1-2.658.79,10.194,10.194,0,0,1-2.466-.944,5.6,5.6,0,0,0-2.287-.67,3.656,3.656,0,0,0-2.125.724,5.032,5.032,0,0,0-2.038,3.793,10.193,10.193,0,0,0,.636,4.134l.116.324h-.345a6.48,6.48,0,0,0-5.519,2.624,6.1,6.1,0,0,0-1.061,4.675,6.654,6.654,0,0,0,1.248,2.911C160.652,174.991,160.96,175.249,160.939,175.274Z" transform="translate(-117.144 -127.734)" fill="#455a64"/><path d="M218.118,143.395a4.463,4.463,0,0,0-1.876.728,7.249,7.249,0,0,0-2.254,4.883l-.021.2h-.2a7.461,7.461,0,0,0-6.122,2.558,5.769,5.769,0,0,0-.986,1.664,11.33,11.33,0,0,0-.416,2.013,15.8,15.8,0,0,1-.416,2.175,3.647,3.647,0,0,1-1.31,1.967,9.536,9.536,0,0,1-4.575,1.5,12.988,12.988,0,0,0-4.159,1.077,9.636,9.636,0,0,0-4.812,5.186,10.069,10.069,0,0,0-.57,4.849c.15,1.165.416,1.78.345,1.8a1.555,1.555,0,0,1-.2-.437,8.613,8.613,0,0,1-.349-1.327,9.79,9.79,0,0,1,.416-5.016,9.923,9.923,0,0,1,4.953-5.531,13.338,13.338,0,0,1,4.3-1.152,9.034,9.034,0,0,0,4.3-1.4c1.189-.832,1.318-2.412,1.547-3.8a11.939,11.939,0,0,1,.462-2.109,6.413,6.413,0,0,1,1.09-1.809,7.848,7.848,0,0,1,6.55-2.633l-.22.183c.333-2.408,1.348-4.271,2.529-5.028a3.2,3.2,0,0,1,1.46-.545A1.814,1.814,0,0,1,218.118,143.395Z" transform="translate(-135.52 -131.26)" fill="#455a64"/><path d="M211.571,189.51a3.576,3.576,0,0,0-3.015-5.24c-1.435,0-2.974.782-4.255,3.236-3.414,6.546,3.864,8.626,3.972,8.443C208.339,195.836,210.182,192.234,211.571,189.51Z" transform="translate(-143.317 -155.149)" fill="#ef9d78"/><path d="M210.391,195.557c0-.037-.154.021-.416,0a1.281,1.281,0,0,1-.861-.416,3.212,3.212,0,0,1,0-3.211,4.159,4.159,0,0,1,1.169-1.468,1.485,1.485,0,0,1,1.314-.416.657.657,0,0,1,.512.665c0,.229-.116.337-.091.366s.2-.037.287-.333a.832.832,0,0,0-.012-.545.961.961,0,0,0-.545-.495,1.805,1.805,0,0,0-1.722.391,4.417,4.417,0,0,0-1.347,1.618c-.645,1.343-.611,2.911.191,3.7a1.389,1.389,0,0,0,1.131.37C210.3,195.707,210.408,195.582,210.391,195.557Z" transform="translate(-146.142 -158.281)" fill="#d37a57"/><path d="M190.079,390.327A4.986,4.986,0,0,0,188,388.592l-1.248-3.057a3.327,3.327,0,0,0,0-2.4c-.495-1.323-4.134-9-4.051-9.254l-.94-.054s3.352,8.131,3.681,8.547.832,2.832,0,3.161-2.583-.561-3.327-1.306-3.111-6.338-3.523-7.486a4.482,4.482,0,0,1,.32-2.766l.661-1.568h-.882a30.483,30.483,0,0,0-.911,3.219c-.329,1.572,3.39,8.43,3.968,9.175s2.562,1.323,3.635,2.079.911,3.061.911,3.061a5.731,5.731,0,0,0-.994,2.724c-.083,1.489,3.223,8.513,5.452,9.981s4.878.416,5.124.5.832-1.16.832-1.16S190.657,391.4,190.079,390.327Zm3.044,12.273a4.658,4.658,0,0,1-3.069-1.776c-.27-.358-3.165-5.407-3.539-6.33a4.647,4.647,0,0,1,.037-3.5c.345-1.393,2.5-.578,2.5-.578s6.33,10.938,6.184,11.271A2.189,2.189,0,0,1,193.124,402.6Z" transform="translate(-128.346 -265.043)" fill="#263238"/><path d="M222.084,425.007S240.512,418,241.373,417.2a66.709,66.709,0,0,0,3.972-5.361s1.522.262,1.323.661-3.111,4.966-6.238,6.288-19.189,7.378-19.189,7.378Z" transform="translate(-153.743 -288.075)" fill="#263238"/><path d="M68.971,304.55l-7.59,43.777s-2.795,8.518-2.4,10.4,1.809,9.9,6.068,12.427,12.693.878,14.423-.832,5.14-4.9,5.54-6.363,3.2-23.706,3.2-23.706l1.11-6.238s-4.126,1.331-6.654-.416-5.856-9.183-5.856-9.183l-3.706,5.694Z" transform="translate(-58.946 -225.406)" fill="#ff8900"/><path d="M81.18,352.21a1.2,1.2,0,0,1-.141.245l-.453.686c-.391.591-.957,1.451-1.634,2.524-1.364,2.146-3.186,5.145-5.178,8.476s-3.785,6.347-5.128,8.513c-.665,1.081-1.214,1.951-1.6,2.549-.187.279-.341.507-.453.682a1.844,1.844,0,0,1-.171.229,1.115,1.115,0,0,1,.133-.254l.416-.7,1.547-2.583,5.07-8.547c1.992-3.327,3.839-6.322,5.236-8.447.7-1.065,1.281-1.913,1.7-2.5l.482-.661a1.562,1.562,0,0,1,.179-.216Z" transform="translate(-63.312 -253.244)" fill="#263238"/><path d="M108.443,374.784a1.157,1.157,0,0,1-.158.179c-.112.112-.262.291-.487.487a8.456,8.456,0,0,1-2.1,1.418,6.6,6.6,0,0,1-1.664.528,6.279,6.279,0,0,1-2.021.05,8.229,8.229,0,0,1-2.154-.582,11.83,11.83,0,0,1-2.079-1.16,11.138,11.138,0,0,1-1.759-1.622,11.42,11.42,0,0,1-2.529-5.373,10.875,10.875,0,0,1-.171-2.525,6.135,6.135,0,0,1,.062-.686,1.457,1.457,0,0,1,.042-.237,9.145,9.145,0,0,1,0,.927,12.149,12.149,0,0,0,.237,2.5,11.866,11.866,0,0,0,1.281,3.473,12.062,12.062,0,0,0,1.248,1.788,11.309,11.309,0,0,0,1.73,1.589,11.729,11.729,0,0,0,2.046,1.14,8.206,8.206,0,0,0,2.079.582,6.329,6.329,0,0,0,1.946-.042,6.794,6.794,0,0,0,1.664-.491,8.917,8.917,0,0,0,2.1-1.343C108.194,375,108.431,374.767,108.443,374.784Z" transform="translate(-79.017 -260.867)" fill="#263238"/><path d="M101.91,337.157l5.681-3.652s15.139-6.151,16.677-6.5,3.327-1.065,4.159,0,9.462,7.332,9.462,7.332,5.086,9.566,5.086,10.884,1.418,2.965,0,3.435l-1.435.478s-.474,2.321-2.25,2.579a5.038,5.038,0,0,1-2.366,0s-.116,2.321-1.535,2.179-3.785-2.179-3.785-2.179-1.065,1.206-1.892,1.206-3.431-1.772-3.431-1.772l-5.032-4.379-4.433-1.535-2.391,1.51s-5.115.437-5.885,0S101.91,337.157,101.91,337.157Z" transform="translate(-84.042 -238.191)" fill="#ef9d78"/><path d="M155.366,369.41a4.223,4.223,0,0,1-.262-.674c-.075-.216-.171-.482-.3-.786s-.254-.653-.437-1.023-.362-.786-.595-1.206-.495-.873-.774-1.343a23.661,23.661,0,0,0-2.109-2.841,24.5,24.5,0,0,0-2.541-2.462,15.312,15.312,0,0,0-1.248-.94c-.416-.27-.769-.532-1.119-.749s-.678-.416-.961-.566-.532-.3-.74-.416a4.813,4.813,0,0,1-.632-.345,4.028,4.028,0,0,1,.67.27,8.008,8.008,0,0,1,.761.366c.291.154.628.32.982.541s.744.449,1.144.736.832.595,1.248.932a20.828,20.828,0,0,1,4.7,5.353c.279.474.549.919.761,1.364s.416.832.578,1.248.3.736.416,1.044a7.99,7.99,0,0,1,.262.8A4.6,4.6,0,0,1,155.366,369.41Z" transform="translate(-108.422 -255.493)" fill="#d37a57"/><path d="M169.713,363.032a1.741,1.741,0,0,1-.129-.183c-.079-.125-.2-.3-.324-.549a15.529,15.529,0,0,1-.923-2.154c-.329-.932-.649-2.079-1.023-3.327a17.467,17.467,0,0,0-1.6-3.889,10.227,10.227,0,0,0-2.845-3.053c-1.048-.761-2.059-1.377-2.828-2.009a7.178,7.178,0,0,1-1.605-1.705,4.158,4.158,0,0,1-.3-.566.773.773,0,0,1-.079-.208c.021,0,.137.275.449.728a7.614,7.614,0,0,0,1.63,1.63c.774.607,1.784,1.206,2.849,1.971a10.147,10.147,0,0,1,2.911,3.1,17.109,17.109,0,0,1,1.605,3.943c.366,1.248.67,2.387.977,3.327a18.714,18.714,0,0,0,.832,2.163A7.9,7.9,0,0,1,169.713,363.032Z" transform="translate(-116.839 -249.261)" fill="#d37a57"/><path d="M180.166,357.414a.785.785,0,0,1-.067-.2c-.037-.162-.083-.358-.141-.6s-.129-.578-.233-.94-.2-.786-.366-1.248-.308-.944-.52-1.464-.445-1.069-.7-1.643a25.786,25.786,0,0,0-4.575-6.733c-.441-.449-.853-.886-1.273-1.248s-.8-.719-1.173-1.023-.711-.557-1.011-.79-.566-.416-.786-.566l-.507-.349c-.112-.083-.171-.129-.166-.137a.959.959,0,0,1,.191.1l.528.32c.229.137.5.312.811.536s.67.462,1.04.769.782.624,1.194,1.011.832.8,1.293,1.248a27.339,27.339,0,0,1,2.6,3.2,26.882,26.882,0,0,1,2.021,3.585c.254.582.5,1.131.686,1.664s.362,1.023.5,1.485.241.878.337,1.248a9.678,9.678,0,0,1,.2.952c.042.241.075.445.1.607A.745.745,0,0,1,180.166,357.414Z" transform="translate(-123.025 -246.387)" fill="#d37a57"/><path d="M138.513,342.379c0,.033-.3.079-.732.27a3.506,3.506,0,0,0-2.125,2.8c-.062.474-.025.774-.058.778a1.514,1.514,0,0,1-.092-.79,3.3,3.3,0,0,1,2.221-2.936A1.576,1.576,0,0,1,138.513,342.379Z" transform="translate(-103.655 -247.498)" fill="#d37a57"/><path d="M149.2,332.75c.033.058-.7.52-1.422,1.293s-1.156,1.522-1.214,1.493a5.265,5.265,0,0,1,2.637-2.787Z" transform="translate(-110.122 -241.878)" fill="#d37a57"/><path d="M294.412,198.06c-.719.3-.865,1.16-.853,1.938,0,.973.258,1.131,1.052,2.762a70.935,70.935,0,0,1,2.857,7.723s-1.277,12.768-.416,15.767a5.074,5.074,0,0,0,3.327,3.4l-1.165,9.861h13.928s-.495-9.566-.794-12.477c-.316-3.078-.108-21.689-.108-21.689l-1.368-9.936-3.223-5.581a2.516,2.516,0,0,0-.952,3.057,37.259,37.259,0,0,1,1.206,5.964l-8.064-12.136s-1.585.378-1.664,3.327a2.869,2.869,0,0,0-.832,4.005c1.63,2.77,3.385,11.088,2.77,11.088l-4.991-7.349Z" transform="translate(-195.985 -156.575)" fill="#ef9d78"/><path d="M299.028,239.356a5.144,5.144,0,0,1,.062-.653c.062-.433.121-1.077.212-1.909.191-1.684.474-4.159.832-7.307l.037.058a5.27,5.27,0,0,1-1.772-.982,4.8,4.8,0,0,1-1.331-1.759,6.764,6.764,0,0,1-.491-2.325q-.071-1.248-.058-2.537c.037-3.485.308-7.386.7-11.62v.033c-.653-2.055-1.377-4.221-2.283-6.417-.229-.549-.47-1.094-.744-1.634a13.2,13.2,0,0,1-.8-1.664,3.522,3.522,0,0,1-.1-.952,3.328,3.328,0,0,1,.141-.957,1.422,1.422,0,0,1,.582-.8,2.84,2.84,0,0,1,.445-.208l.441-.183.075-.029.046.067,5.215,7.648-.191.042a8.081,8.081,0,0,0-.025-1.926,16.555,16.555,0,0,0-.333-1.946,30.187,30.187,0,0,0-1.165-3.864c-.457-1.285-1.036-2.533-1.6-3.818a3.418,3.418,0,0,1-.225-2.117,3.124,3.124,0,0,1,1.189-1.8l-.046.079a7.713,7.713,0,0,1,.441-1.876,3.863,3.863,0,0,1,.491-.886,1.759,1.759,0,0,1,.832-.645l.067-.021.046.067.1.141,7.969,12-.2.071a42.811,42.811,0,0,0-.853-4.754c-.1-.387-.2-.765-.329-1.135a3.239,3.239,0,0,1-.2-1.2,2.6,2.6,0,0,1,1.177-2.034l.087-.058.054.1,3.223,5.581h0q.711,5.215,1.36,9.94h0c-.058,5.149-.087,9.861-.079,14.028,0,2.079,0,4.034.062,5.823.025.9.075,1.755.158,2.579s.121,1.609.17,2.354c.2,2.978.312,5.315.4,6.908.037.794.067,1.4.083,1.817s.021.624.021.624-.021-.212-.046-.624-.067-1.023-.112-1.813c-.1-1.593-.237-3.93-.445-6.908-.054-.744-.108-1.526-.179-2.35s-.146-1.684-.171-2.583c-.058-1.8-.075-3.743-.087-5.823-.021-4.159,0-8.879.05-14.028h0q-.653-4.716-1.377-9.936v.033l-3.231-5.573.141.037a2.42,2.42,0,0,0-1.077,1.863,3.189,3.189,0,0,0,.191,1.123q.2.566.337,1.148a43.669,43.669,0,0,1,.861,4.783l.058.453-.254-.383-7.973-11.994-.092-.141.112.046a1.584,1.584,0,0,0-.707.566,3.522,3.522,0,0,0-.457.832,7.53,7.53,0,0,0-.416,1.822v.046l-.042.033a2.911,2.911,0,0,0-1.1,1.664,3.244,3.244,0,0,0,.216,1.988c.553,1.268,1.14,2.533,1.6,3.822a30.446,30.446,0,0,1,1.173,3.893,16.818,16.818,0,0,1,.345,2.021,8.316,8.316,0,0,1,.025,1.984l-.037.266-.154-.225c-1.8-2.653-3.556-5.232-5.211-7.665l.121.033c-.287.129-.616.237-.861.374a1.214,1.214,0,0,0-.5.7,3.113,3.113,0,0,0-.133.9,3.325,3.325,0,0,0,.091.894,13.428,13.428,0,0,0,.782,1.664c.274.545.52,1.1.749,1.664.907,2.208,1.626,4.375,2.275,6.438v.033c-.416,4.23-.682,8.127-.732,11.608q0,1.3.05,2.524a6.571,6.571,0,0,0,.47,2.283,4.991,4.991,0,0,0,3.015,2.687h.046v.042c-.387,3.157-.686,5.619-.89,7.3l-.237,1.909C299.066,239.135,299.028,239.356,299.028,239.356Z" transform="translate(-195.831 -156.423)" fill="#d37a57"/><path d="M311.752,210.869a4.11,4.11,0,0,1-.15-.686c-.079-.445-.212-1.085-.391-1.876a31.465,31.465,0,0,0-2.059-5.947,40.376,40.376,0,0,0-3.14-5.473c-.449-.67-.832-1.206-1.085-1.576a5.265,5.265,0,0,1-.387-.591,4.106,4.106,0,0,1,.453.541c.283.354.678.878,1.148,1.539a35.159,35.159,0,0,1,3.207,5.469,28.363,28.363,0,0,1,2.013,6.006c.158.794.274,1.443.324,1.9a3.938,3.938,0,0,1,.067.7Z" transform="translate(-202.399 -161.253)" fill="#d37a57"/><path d="M329.681,219.914a13.2,13.2,0,0,1-1.019-2.163,12.747,12.747,0,0,1-.832-2.242,28.765,28.765,0,0,1,1.851,4.4Z" transform="translate(-216.003 -173.397)" fill="#d37a57"/><path d="M291.367,301.445h0c-2.445,21.577-5.627,44.542-9.287,68.4h28.351c5.332-11.8,2.079-22.1.649-36.778l-4.675-33.326Z" transform="translate(-189.28 -222.596)" fill="#ff8900"/><path d="M282.075,392.594a.685.685,0,0,1,0-.137l.05-.416c.054-.37.125-.9.216-1.568.2-1.377.487-3.327.832-5.773.715-4.883,1.705-11.6,2.795-19.031s1.976-14.174,2.57-19.06c.3-2.445.532-4.421.686-5.789.079-.674.141-1.2.187-1.576l.05-.416a.733.733,0,0,1,.029-.137v.137l-.033.416c-.033.374-.083.907-.146,1.58-.129,1.368-.333,3.352-.62,5.8-.553,4.891-1.435,11.645-2.5,19.077s-2.1,14.14-2.861,19.023c-.378,2.421-.69,4.384-.907,5.76-.108.665-.2,1.189-.254,1.564-.029.166-.054.3-.071.416A.77.77,0,0,1,282.075,392.594Z" transform="translate(-189.275 -245.347)" fill="#263238"/></g><g transform="translate(79.133 159.574)"><path d="M316.236,383.283H235.39l10.431-56.74a4.242,4.242,0,0,1,4.159-3.473h72.657a4.242,4.242,0,0,1,4.159,5.036Z" transform="translate(-204.722 -323.036)" fill="#455a64"/><path d="M192.318,462.143H161.65l.125-.091a16.636,16.636,0,0,1,9.457-3.327l21.926-.645Z" transform="translate(-161.65 -401.896)" fill="#455a64"/><path d="M258.926,323.1c0,.021-.225-.042-.653-.046a4.064,4.064,0,0,0-1.8.449,5.5,5.5,0,0,0-2.154,1.959A10.4,10.4,0,0,0,253,329.127c-.262,1.435-.495,3.028-.782,4.729s-.6,3.514-.961,5.407c-.7,3.814-1.539,8-2.445,12.377-1.826,8.763-3.518,16.686-4.621,22.458-.557,2.878-.986,5.211-1.277,6.825-.146.79-.258,1.41-.337,1.855-.042.2-.071.358-.1.482a.891.891,0,0,1-.042.162v-.166c0-.112.042-.287.067-.487.071-.449.162-1.073.283-1.867.254-1.618.653-3.959,1.181-6.846,1.052-5.768,2.712-13.7,4.537-22.458.907-4.379,1.747-8.555,2.466-12.365.366-1.9.686-3.714.99-5.407s.541-3.281.832-4.729a10.422,10.422,0,0,1,1.389-3.718,5.573,5.573,0,0,1,2.246-1.975,3.9,3.9,0,0,1,1.847-.416A2.308,2.308,0,0,1,258.926,323.1Z" transform="translate(-208.84 -322.987)" fill="#263238"/><path d="M353.2,386.9a3.909,3.909,0,1,1-3.909-3.909A3.909,3.909,0,0,1,353.2,386.9Z" transform="translate(-268.968 -358.035)" fill="#f5f5f5"/></g><g transform="translate(20.38 219.775)"><path d="M210.543,467.848c0,.058-42.575.108-95.077.108s-95.086-.046-95.086-.108,42.563-.108,95.086-.108S210.543,467.79,210.543,467.848Z" transform="translate(-20.38 -467.74)" fill="#263238"/></g><g transform="translate(72.873 58.933)"><path d="M193.778,89.671,192.4,76.682l-6.626,1.495L180.06,68.09l3.559,13.636,6.72-1.542Z" transform="translate(-174.773 -68.09)" fill="#1d7e96"/><path d="M186.145,108.637l-6.156-6.337-2.9,3.564-7.247-2.985,7.583,5.773,2.933-3.626Z" transform="translate(-169.84 -84.604)" fill="#1d7e96"/><path d="M330,113.259l5.6-10.18,4.919,3.5,8.147-6.311-7.6,9.963-4.987-3.569Z" transform="translate(-247.151 -83.624)" fill="#1d7e96"/><path d="M349.85,134.307l5.788-2.467.926,3.135,5.582.036-6.57,1.7-.931-3.186Z" transform="translate(-256.733 -98.863)" fill="#1d7e96"/></g><g transform="translate(111.685 47.075)"><path d="M253.358,55.676s.187-.121.561-.345a15.207,15.207,0,0,1,1.734-.869,16.819,16.819,0,0,1,7.357-1.343,12.305,12.305,0,0,1,1.268.1,8,8,0,0,1,1.323.241,5.407,5.407,0,0,1,1.31.532,2.911,2.911,0,0,1,1.069,1.027,2.238,2.238,0,0,1,.258,1.522,3.025,3.025,0,0,1-.769,1.427,7.07,7.07,0,0,1-2.911,1.768,18.2,18.2,0,0,1-7.515,1.077,18.445,18.445,0,0,1-8.193-2.5l-.058-.037.037-.058a11.341,11.341,0,0,1,4.317-3.968,15.151,15.151,0,0,1,6.018-1.722,23.115,23.115,0,0,1,6.609.537c1.115.237,2.229.532,3.327.878a18.877,18.877,0,0,1,3.327,1.248,6.413,6.413,0,0,1,2.666,2.441,4.434,4.434,0,0,1,.578,1.768,3.743,3.743,0,0,1-.308,1.855,5.789,5.789,0,0,1-2.7,2.612,15.037,15.037,0,0,1-3.643,1.277,38.054,38.054,0,0,1-16.029.416c-.345-.058-.682-.141-1.027-.212s-.682-.15-1.023-.237a13.835,13.835,0,0,1-2.025-.62,6.866,6.866,0,0,1-1.851-1.085,3.173,3.173,0,0,1-1.119-1.851,2.936,2.936,0,0,1,.466-2.125,5.856,5.856,0,0,1,1.551-1.551,11.745,11.745,0,0,1,1.921-1.073c.324-.166.665-.312,1-.453s.678-.287,1.027-.416a26.122,26.122,0,0,1,8.775-1.664,26.547,26.547,0,0,1,4.55.316c.378.058.757.121,1.135.208s.753.15,1.123.254a13.03,13.03,0,0,1,2.208.715,7.379,7.379,0,0,1,2,1.227,3.9,3.9,0,0,1,1.248,1.992l.062.3.025.3a4.178,4.178,0,0,1,0,.6,3.676,3.676,0,0,1-.349,1.148,5.685,5.685,0,0,1-1.506,1.847,10.4,10.4,0,0,1-2,1.31c-.354.187-.72.345-1.086.5s-.732.312-1.106.453a32.693,32.693,0,0,1-4.583,1.393,33.534,33.534,0,0,1-9.661.8A11.275,11.275,0,0,1,248,66.393a5.174,5.174,0,0,1-1.859-1.664,3.988,3.988,0,0,1-.6-2.429,4.429,4.429,0,0,1,.653-1.946,7.137,7.137,0,0,1,1.339-1.551A12.286,12.286,0,0,1,251,56.724a24.363,24.363,0,0,1,7.761-1.872,24.668,24.668,0,0,1,3.959.029c.657.058,1.31.141,1.959.254a10.638,10.638,0,0,1,1.917.478,6.733,6.733,0,0,1,1.763.882A3.543,3.543,0,0,1,269.627,58a2.732,2.732,0,0,1,.062,1.963,3.855,3.855,0,0,1-1.1,1.618,8.034,8.034,0,0,1-3.514,1.551c-1.227.3-2.466.586-3.7.857a53.921,53.921,0,0,1-7.39,1.185,26.617,26.617,0,0,1-7.328-.349,17.883,17.883,0,0,1-6.629-2.707l-.108-.071.1-.087a23.153,23.153,0,0,1,11.965-5.407,22.8,22.8,0,0,1,12.406,1.551,6.1,6.1,0,0,1,1.3.832,3.015,3.015,0,0,1,.9,1.248,2.159,2.159,0,0,1-.075,1.539,3.115,3.115,0,0,1-.982,1.169,9.149,9.149,0,0,1-2.695,1.248,18.909,18.909,0,0,1-2.841.674,18.457,18.457,0,0,1-5.681,0,2.8,2.8,0,0,1-1.314-.47,1.381,1.381,0,0,1-.478-1.31,2.387,2.387,0,0,1,.74-1.185,4.875,4.875,0,0,1,1.123-.786,19.643,19.643,0,0,1,10.106-1.6,9.15,9.15,0,0,1,2.4.553,4.359,4.359,0,0,1,1.942,1.418,3.223,3.223,0,0,1,.649,2.25,3.073,3.073,0,0,1-1.164,1.951,11.688,11.688,0,0,1-1.855,1.206,17.771,17.771,0,0,1-1.971.932,18.823,18.823,0,0,1-3.993,1.1,18.457,18.457,0,0,1-7.486-.324h-.079l.046-.062a8.992,8.992,0,0,1,4.159-3.107,8.846,8.846,0,0,1,4.542-.449,4.646,4.646,0,0,1,1.921.724,2.545,2.545,0,0,1,.678.69,2.08,2.08,0,0,1,.308.878,2.5,2.5,0,0,1-.458,1.639,4.575,4.575,0,0,1-1.073,1.11,9.109,9.109,0,0,1-2.3,1.115,12.49,12.49,0,0,0-1.672.744,4.728,4.728,0,0,0-.907.653c-.091.083-.154.154-.2.2l-.067.067a3.693,3.693,0,0,1,.258-.279,4.607,4.607,0,0,1,.9-.665,12.1,12.1,0,0,1,1.664-.765,9.378,9.378,0,0,0,2.283-1.123,4.446,4.446,0,0,0,1.052-1.1,2.4,2.4,0,0,0,.441-1.593,1.931,1.931,0,0,0-.3-.832,2.359,2.359,0,0,0-.661-.67,4.533,4.533,0,0,0-1.888-.7,8.763,8.763,0,0,0-4.5.453,8.913,8.913,0,0,0-4.109,3.082l-.029-.083a18.4,18.4,0,0,0,7.436.308,18.935,18.935,0,0,0,3.993-1.106,18.346,18.346,0,0,0,1.946-.915,11.5,11.5,0,0,0,1.842-1.206,2.961,2.961,0,0,0,1.115-1.863,3.094,3.094,0,0,0-.641-2.138,4.2,4.2,0,0,0-1.867-1.377,8.8,8.8,0,0,0-2.358-.557A19.427,19.427,0,0,0,254.447,61.2a4.6,4.6,0,0,0-1.081.757,2.242,2.242,0,0,0-.678,1.1,1.206,1.206,0,0,0,.416,1.148,2.641,2.641,0,0,0,1.248.495,18.342,18.342,0,0,0,5.623,0,19.131,19.131,0,0,0,2.816-.674,8.909,8.909,0,0,0,2.641-1.248,2.94,2.94,0,0,0,.923-1.1,1.971,1.971,0,0,0,.067-1.406,2.757,2.757,0,0,0-.832-1.177,5.726,5.726,0,0,0-1.248-.832,22.637,22.637,0,0,0-12.327-1.555,22.957,22.957,0,0,0-11.857,5.407V61.96a17.767,17.767,0,0,0,6.559,2.67,26.355,26.355,0,0,0,7.27.349,53.831,53.831,0,0,0,7.361-1.2c1.248-.27,2.462-.561,3.693-.857a7.615,7.615,0,0,0,3.423-1.5,3.639,3.639,0,0,0,1.019-1.543,2.558,2.558,0,0,0-.062-1.817,3.327,3.327,0,0,0-1.2-1.414,6.654,6.654,0,0,0-1.709-.853,10.285,10.285,0,0,0-1.884-.453c-.64-.112-1.289-.2-1.938-.254a24.793,24.793,0,0,0-3.93-.025,24.147,24.147,0,0,0-7.686,1.855,12.007,12.007,0,0,0-3.41,2.046,5.267,5.267,0,0,0-1.938,3.356,3.768,3.768,0,0,0,.566,2.292,4.991,4.991,0,0,0,1.78,1.593,11.084,11.084,0,0,0,4.662,1.223,33.426,33.426,0,0,0,9.6-.79,33.012,33.012,0,0,0,4.575-1.4q.553-.212,1.1-.449c.366-.154.724-.312,1.073-.495a10.353,10.353,0,0,0,1.955-1.281,5.528,5.528,0,0,0,1.451-1.776,3.541,3.541,0,0,0,.329-1.081,3.684,3.684,0,0,0,0-.566l-.025-.283-.058-.279a3.681,3.681,0,0,0-1.173-1.884,7.215,7.215,0,0,0-1.942-1.189,12.891,12.891,0,0,0-2.175-.707c-.37-.1-.744-.175-1.119-.254s-.744-.146-1.123-.2a26.156,26.156,0,0,0-13.221,1.331,10.689,10.689,0,0,0-1.019.416c-.337.158-.67.283-.994.449a11.646,11.646,0,0,0-1.892,1.056,5.618,5.618,0,0,0-1.5,1.493,2.745,2.745,0,0,0-.441,1.984,3,3,0,0,0,1.052,1.734,6.6,6.6,0,0,0,1.8,1.052,13.232,13.232,0,0,0,2,.611c.337.087.674.171,1.015.237s.678.154,1.019.212a37.888,37.888,0,0,0,15.95-.416,14.734,14.734,0,0,0,3.6-1.248,5.613,5.613,0,0,0,2.628-2.524,3.58,3.58,0,0,0,.291-1.763,4.25,4.25,0,0,0-.566-1.722,6.3,6.3,0,0,0-2.6-2.375,19.13,19.13,0,0,0-3.277-1.248c-1.11-.345-2.221-.64-3.327-.878a22.983,22.983,0,0,0-6.567-.541,14.973,14.973,0,0,0-5.956,1.713,11.192,11.192,0,0,0-4.271,3.909l-.025-.1a18.4,18.4,0,0,0,15.6,1.456,6.991,6.991,0,0,0,2.89-1.743,2.987,2.987,0,0,0,.753-1.377,2.134,2.134,0,0,0-.245-1.46,2.8,2.8,0,0,0-1.036-1,5.232,5.232,0,0,0-1.289-.528,8.142,8.142,0,0,0-1.31-.245c-.416-.058-.832-.087-1.248-.108a16.935,16.935,0,0,0-7.341,1.318,16.679,16.679,0,0,0-1.738.832C253.553,55.568,253.358,55.676,253.358,55.676Z" transform="translate(-239.92 -52.49)" fill="#263238"/></g></g></g></svg>