<svg xmlns="http://www.w3.org/2000/svg" width="361.884" height="186.744" viewBox="0 0 361.884 186.744"><g transform="translate(-2065.775 10289.93)"><path d="M80,0H302.2a0,0,0,0,1,0,0V78.5a80,80,0,0,1-80,80H0a0,0,0,0,1,0,0V80A80,80,0,0,1,80,0Z" transform="translate(2125.454 -10261.686)" fill="#2df0da"/><g transform="translate(2035.285 -10356.063)"><g transform="translate(30.49 66.133)"><path d="M677.18,143.72s-.026.079-.09.227-.158.38-.274.66l-1.087,2.506c-.95,2.179-2.343,5.324-4.078,9.2-3.472,7.756-8.357,18.424-13.792,30.19s-10.362,22.434-13.876,30.174l-4.152,9.164-1.129,2.49c-.132.274-.232.491-.3.644a2.351,2.351,0,0,1-.111.216,1.876,1.876,0,0,1,.084-.227c.069-.158.158-.375.274-.654.253-.586.623-1.43,1.087-2.511.95-2.179,2.343-5.318,4.078-9.2,3.472-7.756,8.357-18.424,13.792-30.195s10.346-22.428,13.86-30.163c1.752-3.857,3.166-6.985,4.152-9.159l1.134-2.49c.127-.28.227-.491.3-.649A1.335,1.335,0,0,1,677.18,143.72Z" transform="translate(-317.612 -102.785)" fill="#e0e0e0"/><path d="M678.27,175.77a2.186,2.186,0,0,1,.216.528c.127.332.29.823.491,1.43.391,1.219.892,2.907,1.409,4.785l1.3,4.812c.158.575.29,1.055.4,1.456a2.019,2.019,0,0,1,.121.528,2.185,2.185,0,0,1-.216-.528c-.127-.332-.29-.823-.485-1.435-.38-1.219-.86-2.918-1.377-4.8l-1.335-4.8-.406-1.451a2.379,2.379,0,0,1-.121-.528Z" transform="translate(-336.498 -117.925)" fill="#e0e0e0"/><path d="M687.09,197.121c0-.069,3.419-1.256,7.687-2.638s7.75-2.474,7.772-2.406-3.419,1.256-7.687,2.638S687.111,197.19,687.09,197.121Z" transform="translate(-340.665 -125.627)" fill="#e0e0e0"/><path d="M669.72,234.23a2.8,2.8,0,0,1,.57-.047l1.541-.053c1.3-.047,3.1-.116,5.076-.269s3.767-.332,5.065-.48l1.53-.174a2.222,2.222,0,0,1,.57-.032,2.638,2.638,0,0,1-.528.132c-.359.069-.881.158-1.525.253-1.287.2-3.081.417-5.065.565s-3.788.19-5.1.185c-.649,0-1.177,0-1.541-.026a2.189,2.189,0,0,1-.6-.053Z" transform="translate(-332.459 -145.04)" fill="#e0e0e0"/><path d="M656.6,213.54a2.141,2.141,0,0,1,.317.417c.19.274.464.681.791,1.187.66,1.008,1.551,2.411,2.522,3.968s1.841,2.976,2.459,4.01c.311.528.554.939.718,1.235a1.968,1.968,0,0,1,.237.47,1.813,1.813,0,0,1-.322-.417c-.19-.28-.459-.681-.791-1.187-.654-1.008-1.546-2.411-2.522-3.973s-1.841-2.976-2.459-4.01c-.306-.528-.528-.939-.718-1.229A2.175,2.175,0,0,1,656.6,213.54Z" transform="translate(-326.262 -135.767)" fill="#e0e0e0"/><path d="M637.5,241.2a3.126,3.126,0,0,1,.406.528l1.018,1.52c.844,1.287,2,3.076,3.271,5.06s2.4,3.793,3.208,5.107l.95,1.583a3.785,3.785,0,0,1,.317.591,3.2,3.2,0,0,1-.406-.528l-1.013-1.52c-.849-1.293-2.01-3.081-3.276-5.065s-2.4-3.793-3.208-5.107c-.38-.623-.7-1.15-.944-1.583A3.165,3.165,0,0,1,637.5,241.2Z" transform="translate(-317.239 -148.834)" fill="#e0e0e0"/><path d="M654.65,266.056a3.387,3.387,0,0,1,.712-.084l1.952-.137c1.646-.116,3.925-.285,6.431-.528s4.748-.528,6.41-.754l1.936-.259a4,4,0,0,1,.718-.063,3.569,3.569,0,0,1-.7.164c-.454.09-1.113.206-1.926.338-1.636.269-3.9.586-6.41.839s-4.8.4-6.447.464c-.828.032-1.493.053-1.957.053A4.218,4.218,0,0,1,654.65,266.056Z" transform="translate(-325.34 -159.713)" fill="#e0e0e0"/><path d="M80.243,149.651c12.309-8.215,15.3-23.742,15.053-37.771-.047-2.343.253-4.8-.844-6.859s-3.693-3.514-5.841-2.559c-1.767.791-2.569,2.8-3.577,4.458a13.839,13.839,0,0,1-5.64,5.155c-1.52.749-3.393,1.192-4.87.359-2.026-1.14-2.226-3.931-2.174-6.257l.285-13a21.443,21.443,0,0,0-.607-6.922,7.244,7.244,0,0,0-4.516-4.944c-2.232-.654-5.023.58-5.535,2.849a21.145,21.145,0,0,0-.111,2.9,2.4,2.4,0,0,1-1.488,2.279,2.873,2.873,0,0,1-2.569-1.1,31.141,31.141,0,0,1-5.492-8.442A43.372,43.372,0,0,0,47.2,71.064c-2.163-2.591-5.192-4.669-8.563-4.912s-7,1.767-7.914,5.023.981,6.621,3.05,9.307a52.307,52.307,0,0,0,10.8,10.431,4.271,4.271,0,0,1,1.8,1.968c.485,1.583-1.024,3.076-2.585,3.567-1.767.528-3.693.343-5.508.528s-3.846.955-4.569,2.638c-1,2.364.976,4.886,2.933,6.548a45.216,45.216,0,0,0,13.19,7.793,15.253,15.253,0,0,1,4.917,2.453c1.377,1.224,2.195,3.324,1.324,4.949s-3.05,2.11-4.859,1.762-3.419-1.356-5.139-2.026c-3.224-1.256-7.386-1.1-9.523,1.636a7.279,7.279,0,0,0-.9,6.495,16.994,16.994,0,0,0,3.482,5.8A45.377,45.377,0,0,0,58.29,148.743c7.471,2.691,14.419,3.482,21.927.9" transform="translate(-30.49 -66.133)" fill="#ebebeb"/><path d="M82.62,151.572c-1.979-7.1-7.386-23.795-10.631-31.656l-2.411-5.8c-.8-1.9-1.583-3.788-2.474-5.587A104.433,104.433,0,0,0,61.4,98.5c-1.973-3.113-3.957-5.994-5.8-8.679s-3.693-5.139-5.424-7.318a83.023,83.023,0,0,0-8.969-9.66C40.063,71.788,39.15,71,38.522,70.469l-.749-.644c-.164-.132-.253-.2-.253-.2s.074.079.227.222l.7.623c.607.528,1.509,1.351,2.638,2.422a88.108,88.108,0,0,1,8.864,9.713c1.72,2.184,3.5,4.653,5.376,7.334s3.836,5.572,5.8,8.679a104.713,104.713,0,0,1,5.661,10.024c.881,1.794,1.667,3.693,2.464,5.577s1.583,3.846,2.411,5.8c3.224,7.851,8.647,24.534,10.642,31.609" transform="translate(-33.811 -67.785)" fill="#e0e0e0"/><path d="M93.38,120.416a5.277,5.277,0,0,0,.232-.992c.127-.644.285-1.583.464-2.733.364-2.311.76-5.519,1.187-9.059s.876-6.732,1.287-9.033c.2-1.15.375-2.079.528-2.717a6.056,6.056,0,0,0,.164-1,5.329,5.329,0,0,0-.3.971c-.174.633-.385,1.583-.617,2.707-.512,2.29-.987,5.492-1.414,9.048s-.8,6.685-1.082,9.07c-.142,1.108-.264,2.031-.359,2.744A5.92,5.92,0,0,0,93.38,120.416Z" transform="translate(-60.199 -79.713)" fill="#e0e0e0"/><path d="M36.12,131.825a1.124,1.124,0,0,0,.311.053l.9.09c.781.079,1.9.185,3.287.359,2.77.327,6.585.923,10.763,1.762s7.914,1.783,10.6,2.538c1.345.369,2.427.7,3.166.918l.865.253a1.055,1.055,0,0,0,.306.069,1.055,1.055,0,0,0-.285-.132c-.232-.09-.528-.2-.844-.317-.733-.264-1.81-.633-3.166-1.055-2.675-.818-6.421-1.794-10.6-2.638s-7.977-1.377-10.779-1.646c-1.388-.142-2.522-.211-3.3-.243h-.9A1.27,1.27,0,0,0,36.12,131.825Z" transform="translate(-33.15 -97.163)" fill="#e0e0e0"/><path d="M117.42,172.641a2.111,2.111,0,0,0,.206-.364l.528-1.055c.454-.939,1.055-2.311,1.836-4.015,1.509-3.4,3.445-8.173,5.519-13.459s3.968-10.088,5.408-13.517l1.731-4.052c.19-.454.348-.818.47-1.1a2.238,2.238,0,0,0,.142-.4,1.5,1.5,0,0,0-.206.364l-.528,1.055c-.454.939-1.082,2.311-1.831,4.01-1.509,3.408-3.451,8.178-5.519,13.464s-3.973,10.067-5.424,13.5l-1.731,4.052-.464,1.1a1.794,1.794,0,0,0-.137.417Z" transform="translate(-71.555 -98.514)" fill="#e0e0e0"/><path d="M41.49,181.22a2.111,2.111,0,0,0,.4.158l1.166.4,4.295,1.44c3.625,1.213,8.611,2.949,14.113,4.88s10.51,3.63,14.156,4.785c1.82.575,3.3,1.029,4.326,1.324l1.187.332a2.054,2.054,0,0,0,.422.095,2.253,2.253,0,0,0-.4-.164l-1.166-.4-4.295-1.43c-3.625-1.214-8.611-2.949-14.113-4.88s-10.5-3.635-14.15-4.785c-1.826-.575-3.3-1.029-4.332-1.324l-1.182-.338a2.209,2.209,0,0,0-.422-.095Z" transform="translate(-35.686 -120.499)" fill="#e0e0e0"/><path d="M544.495,89.817c0,.074-11.08.137-24.8.137s-24.8-.063-24.8-.137,11.08-.137,24.8-.137S544.495,89.738,544.495,89.817Z" transform="translate(-249.875 -77.256)" fill="#e0e0e0"/><path d="M544.495,99.557c0,.074-11.08.137-24.8.137s-24.8-.063-24.8-.137,11.08-.137,24.8-.137S544.495,99.478,544.495,99.557Z" transform="translate(-249.875 -81.857)" fill="#e0e0e0"/><path d="M263.794,394.677c0,.079-11.871.137-26.512.137s-26.512-.058-26.512-.137,11.866-.137,26.512-.137S263.794,394.6,263.794,394.677Z" transform="translate(-115.654 -221.271)" fill="#e0e0e0"/><path d="M263.794,407.927c0,.074-11.871.137-26.512.137s-26.512-.063-26.512-.137,11.866-.137,26.512-.137S263.794,407.853,263.794,407.927Z" transform="translate(-115.654 -227.53)" fill="#e0e0e0"/></g><g transform="translate(215.793 116.971)"><rect width="133.046" height="115.904" rx="38.79" transform="translate(14.243 20.001)" fill="#ccfff9"/><path d="M660.4,276.98h19.928L659.95,297.361Z" transform="translate(-513.147 -216.575)" fill="#ccfff9"/><path d="M392.761,283.7l-8.352-9.5c-2.258-2.258-3.034-3.345-2.58-3.741.6-.528.343-.354,5.033,3.166,0,0-6.648-5.081-4.342-5.112a9.226,9.226,0,0,1,2.744,1.446c-1.646-1.4-2.11-2.343-1.789-2.791.528-.781,4.6,2.042,6.474,3.4a44.811,44.811,0,0,1-4.959-4.047c-.707-.95.723-.871,1.884-.475,1.3.443,8.5,4.121,10.637,5.07a1.377,1.377,0,0,0,1.984-.67c.786-3.3,3.166-5.45,4.073-5.73s1.609.881.96,1.725a12.589,12.589,0,0,0-1.4,3.155,8.162,8.162,0,0,0-.427,2.707c0,1.055.074,1.968.142,2.733l7.634,10.473L397.7,292.891Z" transform="translate(-381.705 -210.759)" fill="#b78876"/><path d="M391.36,279.973a15.157,15.157,0,0,1-3.313-2.279,15.473,15.473,0,0,1-2.981-2.7,15.424,15.424,0,0,1,3.313,2.279A15.675,15.675,0,0,1,391.36,279.973Z" transform="translate(-383.29 -215.632)" fill="#aa6550"/><path d="M393.76,276.888a34.979,34.979,0,0,1-7.033-4.9,17.67,17.67,0,0,1,3.667,2.227A17.374,17.374,0,0,1,393.76,276.888Z" transform="translate(-384.076 -214.214)" fill="#aa6550"/><path d="M396.284,273.838a30.845,30.845,0,0,1-6.716-4.548,30.845,30.845,0,0,1,6.716,4.548Z" transform="translate(-385.418 -212.936)" fill="#aa6550"/><path d="M413.45,287l30.432,38.589-6.97,16.224s-8.347-1.847-10.879-5.36-23.373-42.208-23.373-42.208Z" transform="translate(-391.604 -221.308)" fill="#b78876"/><path d="M563.342,184.68c2.19,1.9,2.184,5.244,1.931,8.13s-.448,6.173,1.551,8.273c1.651,1.731,4.643,2.485,5.023,4.843a2.717,2.717,0,0,1-4.49,2.464,4.7,4.7,0,0,1-1.414,5.318c-1.615,1.129-4.321.433-4.822-1.472a2.39,2.39,0,1,1-4.69.855" transform="translate(-464.244 -172.972)" fill="#263238"/><path d="M501.889,198.613a2.887,2.887,0,0,1-5.329-2.221c.5-1.1,1.688-1.889,1.8-3.092.137-1.451-1.345-2.49-2.638-3.123s-2.854-1.456-3-2.912,1.119-2.5,2.168-3.435,2.11-2.4,1.44-3.646c-.332-.644-1.024-1.008-1.472-1.583a3.14,3.14,0,0,1,.791-4.221,5.868,5.868,0,0,1,4.574-.839,41.566,41.566,0,0,1,4.58,1.393,19.1,19.1,0,0,0,15.216-1.994" transform="translate(-434.147 -167.427)" fill="#263238"/><path d="M515.44,231.343a10.594,10.594,0,0,0,12.446-8.125l7.487-34.326a15.232,15.232,0,0,0-11.75-18.413l-.781-.116A15.332,15.332,0,0,0,505.669,182.1c-1.667,7.244-3.414,15.269-3.941,19.21-1.092,8.162,6.859,10.621,6.859,10.621l-1.43,6.859a10.594,10.594,0,0,0,8.273,12.536Z" transform="translate(-438.354 -166.131)" fill="#b78876"/><path d="M512.058,202.2a1.182,1.182,0,0,0,.95,1.34,1.124,1.124,0,0,0,1.351-.871,1.171,1.171,0,0,0-.944-1.34,1.129,1.129,0,0,0-1.356.871Z" transform="translate(-443.276 -180.822)" fill="#263238"/><path d="M511.49,199.97c.121.174,1.1-.354,2.353-.164s2.073.944,2.232.813c.079-.058-.032-.353-.385-.7a3.229,3.229,0,0,0-1.762-.839,3.108,3.108,0,0,0-1.9.317C511.6,199.638,511.432,199.891,511.49,199.97Z" transform="translate(-443.01 -179.758)" fill="#263238"/><path d="M535.247,205.994a1.177,1.177,0,0,0,.95,1.34,1.124,1.124,0,0,0,1.351-.876,1.171,1.171,0,0,0-.95-1.335,1.118,1.118,0,0,0-1.351.871Z" transform="translate(-454.231 -182.616)" fill="#263238"/><path d="M534.749,203.83c.121.169,1.1-.353,2.348-.164s2.079.944,2.237.813c.074-.058-.032-.353-.39-.7a3.229,3.229,0,0,0-1.762-.839,3.108,3.108,0,0,0-1.9.317C534.876,203.482,534.686,203.751,534.749,203.83Z" transform="translate(-453.997 -181.581)" fill="#263238"/><path d="M520.835,211.735a8.408,8.408,0,0,0-1.979-.665c-.317-.079-.607-.19-.628-.417a1.656,1.656,0,0,1,.348-.913q.628-1.092,1.3-2.3a45.233,45.233,0,0,0,3.055-6.057,44.713,44.713,0,0,0-3.535,5.8l-1.266,2.311a1.9,1.9,0,0,0-.348,1.235.813.813,0,0,0,.459.528,2.248,2.248,0,0,0,.528.153A8.41,8.41,0,0,0,520.835,211.735Z" transform="translate(-445.987 -180.865)" fill="#263238"/><path d="M535.5,194.7c.074.359,1.351.38,2.791.77s2.569.966,2.812.691c.106-.132-.053-.485-.48-.881a5.023,5.023,0,0,0-4.268-1.113C535.762,194.308,535.472,194.561,535.5,194.7Z" transform="translate(-454.356 -177.409)" fill="#263238"/><path d="M513.363,193.154c.179.317,1.055.148,2.11.285s1.889.475,2.11.206c.111-.132,0-.438-.327-.765a3.1,3.1,0,0,0-3.429-.39C513.447,192.727,513.283,193,513.363,193.154Z" transform="translate(-443.89 -176.498)" fill="#263238"/><path d="M551.31,182.522l.037.042a6.468,6.468,0,0,1,1.773,4.5v.164c0,2.374-.427,4.748-.422,7.1a10.686,10.686,0,0,0,1.942,6.7c.607.765,1.789,1.4,2.48.712a2,2,0,0,0,.448-1.024c1.256-5.545,3.514-10.294,4.363-16.161a5,5,0,0,0-1.461-4.326c-1.1-1.055-2.464-2.195-3.925-1.746s-3.6,2.744-4.817,3.693" transform="translate(-461.826 -169.992)" fill="#263238"/><path d="M558.028,211.794c.148-.042,5.841-.839,4.843,4.706s-6.331,3.4-6.331,3.239S558.028,211.794,558.028,211.794Z" transform="translate(-464.296 -185.751)" fill="#b78876"/><path d="M560.452,219.738a1.734,1.734,0,0,0,.232.185.986.986,0,0,0,.723.148,2.427,2.427,0,0,0,1.488-1.947,3.25,3.25,0,0,0,0-1.43,1.14,1.14,0,0,0-.6-.871.5.5,0,0,0-.617.164c-.1.137-.084.259-.116.259s-.1-.111,0-.332a.612.612,0,0,1,.28-.306.744.744,0,0,1,.559-.047,1.388,1.388,0,0,1,.855,1.055,3.33,3.33,0,0,1,.058,1.583,2.553,2.553,0,0,1-1.836,2.142,1.055,1.055,0,0,1-.86-.306C560.437,219.87,560.431,219.744,560.452,219.738Z" transform="translate(-466.14 -187.544)" fill="#aa6550"/><path d="M532.275,172.078c1.7-2.031-1.583-5.777-4.221-7.049s-6.437-.459-9.307.047c-1.81.322-3.646.871-5.45.528a12.283,12.283,0,0,1-3.4-1.419,9.2,9.2,0,0,0-3.45-1.208,3.4,3.4,0,0,0-3.2,1.43,2.129,2.129,0,0,0,.992,3.05,2.765,2.765,0,1,0-1.472,4.959c-.7-.718-2.063.1-2.11,1.1a2.922,2.922,0,0,0,1.583,2.385,10.527,10.527,0,0,0,7.445.976c2.522-.454,4.938-1.393,7.45-1.91s6.727-1.5,9-.3c1.667.876,2.585,3.166,3.646,2.854a3.445,3.445,0,0,0,2.11-2.248,10.024,10.024,0,0,0,.354-3.166" transform="translate(-437.493 -162.708)" fill="#263238"/><path d="M572.609,207.328a.854.854,0,0,0,.29-.127,1.651,1.651,0,0,0,.6-.686,2.422,2.422,0,0,0,.179-1.435,2.881,2.881,0,0,0-.992-1.625,7.228,7.228,0,0,0-2-1.166,12.983,12.983,0,0,1-2.337-1.129,4.664,4.664,0,0,1-1.694-2.2,7.714,7.714,0,0,1-.491-3c.053-2.11.638-4.089.781-5.951a7.868,7.868,0,0,0-.886-4.817,4.469,4.469,0,0,0-2.638-1.979,3.082,3.082,0,0,0-.9-.09,1.165,1.165,0,0,0-.311.047,4.6,4.6,0,0,1,1.187.148,4.453,4.453,0,0,1,2.49,1.979,7.59,7.59,0,0,1,.8,4.69c-.185,1.82-.749,3.8-.812,5.967a7.915,7.915,0,0,0,.528,3.1,4.917,4.917,0,0,0,1.81,2.316,13.322,13.322,0,0,0,2.39,1.129,7.228,7.228,0,0,1,1.957,1.1,2.77,2.77,0,0,1,.971,1.509,2.29,2.29,0,0,1-.127,1.356A1.815,1.815,0,0,1,572.609,207.328Z" transform="translate(-466.975 -172.237)" fill="#455a64"/><path d="M503.564,170.878a.954.954,0,0,0-.243-.132,2.047,2.047,0,0,0-.306-.121,2.64,2.64,0,0,0-.448-.111,3.34,3.34,0,0,0-2.8.855h0a4.474,4.474,0,0,0-.992,3.3,5.5,5.5,0,0,0,2.036,3.762,8.51,8.51,0,0,0,4.611,1.852,18.8,18.8,0,0,0,5.477-.332,24.755,24.755,0,0,0,8.072-3.123,24.571,24.571,0,0,1,3.334-1.725,8.863,8.863,0,0,1,3.166-.649,9.45,9.45,0,0,1,4.548,1.055,15.827,15.827,0,0,1,1.472.934,6.467,6.467,0,0,0-1.419-1.055,9.307,9.307,0,0,0-4.606-1.177,9.085,9.085,0,0,0-3.25.628,24.89,24.89,0,0,0-3.371,1.725,24.914,24.914,0,0,1-8,3.065,18.682,18.682,0,0,1-5.4.343,8.31,8.31,0,0,1-4.479-1.773,5.3,5.3,0,0,1-1.984-3.593,4.3,4.3,0,0,1,.907-3.166h0a3.276,3.276,0,0,1,2.67-.881A5.7,5.7,0,0,1,503.564,170.878Z" transform="translate(-436.999 -166.261)" fill="#455a64"/><path d="M513.717,162.49a3.165,3.165,0,0,0,.2,1.245,5.234,5.234,0,0,0,2.184,2.638,6.548,6.548,0,0,0,2.211.918,9.381,9.381,0,0,0,2.744.142,36.536,36.536,0,0,0,6.089-1.356,12.31,12.31,0,0,1,6.089-.348,7.914,7.914,0,0,1,4.136,2.686,8.226,8.226,0,0,1,1.583,2.976c.211.776.237,1.229.274,1.224a2.511,2.511,0,0,0,0-.327,6.553,6.553,0,0,0-.153-.923,7.955,7.955,0,0,0-1.535-3.076,8.067,8.067,0,0,0-4.221-2.812,12.3,12.3,0,0,0-6.22.327,37.933,37.933,0,0,1-6.041,1.372,9.3,9.3,0,0,1-2.675-.111,6.568,6.568,0,0,1-2.153-.855,5.276,5.276,0,0,1-2.184-2.5,7.5,7.5,0,0,1-.322-1.219Z" transform="translate(-444.065 -162.49)" fill="#455a64"/><path d="M518.688,228.144a6,6,0,0,0,.427,1.583,1.936,1.936,0,0,0,1.187,1.055,1.731,1.731,0,0,0,1.583-.48,2.8,2.8,0,0,0,.744-1.551c.084-.528,0-1.187-.528-1.356a1.351,1.351,0,0,0-.649,0l-2.923.528" transform="translate(-446.34 -193.132)" fill="#aa6550"/><path d="M518.817,230.23a4.115,4.115,0,0,0,1.456.274,2.068,2.068,0,0,0,1.361-.623,2.195,2.195,0,0,0,.586-1.7,1.918,1.918,0,0,0-.106-.464c-.069-.142-.047-.132-.169-.148a1.841,1.841,0,0,0-.47.026l-.491.037c-.633.047-1.2.084-1.683.111a5.023,5.023,0,0,1-1.583-.032,5.366,5.366,0,0,1,1.535-.317c.475-.069,1.055-.137,1.672-.211l.485-.053a4.746,4.746,0,0,1,.528-.047.66.66,0,0,1,.385.137.77.77,0,0,1,.216.322,2.289,2.289,0,0,1,.137.591,2.59,2.59,0,0,1-.754,2.073,2.358,2.358,0,0,1-1.673.649,2.184,2.184,0,0,1-1.15-.322C518.923,230.383,518.8,230.251,518.817,230.23Z" transform="translate(-445.958 -193.002)" fill="#263238"/><path d="M514.363,249.3a18.717,18.717,0,0,0,10.494.528s-3.9,3.276-11.027,2.021Z" transform="translate(-444.12 -203.499)" fill="#aa6550"/><path d="M510.875,386.521a6.115,6.115,0,0,1-.728-.559c-.227-.185-.528-.411-.849-.654s-.712-.528-1.161-.818-.913-.607-1.456-.907-1.119-.617-1.736-.934a27.076,27.076,0,0,0-8.61-2.575c-.691-.074-1.345-.158-1.963-.174s-1.192-.042-1.715-.037-1,.032-1.419.047-.776.047-1.055.079a5.552,5.552,0,0,1-.913.063,6.94,6.94,0,0,1,.9-.169,10.54,10.54,0,0,1,1.055-.127c.417-.032.892-.09,1.425-.09s1.108-.032,1.731,0,1.287.084,1.984.148a28.857,28.857,0,0,1,4.464.918,27.956,27.956,0,0,1,4.221,1.683c.617.327,1.213.628,1.736.966s1.018.638,1.451.944.813.6,1.145.855.607.5.823.7A5.563,5.563,0,0,1,510.875,386.521Z" transform="translate(-432.518 -265.077)" fill="#fafafa"/><path d="M440.6,311.431l4.326-18.746c1.657-7.049,3.619-13.823,6.917-14.625v2.179L450.429,333.8s-8.816,10.024-20.049,4.464c-3.514-1.746-9.924-14.013-9.924-14.013s-14.915-26.612-14.293-27.821,9.734-12.953,10.663-13.538Z" transform="translate(-393.25 -217.085)" fill="#ff8900"/><path d="M524.236,266.976c8.6,1.646,18.281,6.664,22.74,19.521,1.625,4.7,13.464,39.312,13.464,39.312l-20.191-.422-3.261-7.128,1.583,11.581,1.367,16.514-50.988.86.359-24.882.491-49.489s.57-.749,9.365-5.6C504.62,264.233,524.236,266.976,524.236,266.976Z" transform="translate(-432.367 -211.309)" fill="#ff8900"/><g transform="translate(96.934 88.769)" opacity="0.2"><path d="M565.451,330.74c.839,10.447,1.8,13.676,2.638,24.122a9.276,9.276,0,0,0,.528,2.9,3.166,3.166,0,0,0,2.11,1.926c1.488.3,3.419,1.377,3.836-.079l-1.409-10.061a19.842,19.842,0,0,0-1.393-4.247c-3.129-6.949-4.284-7.355-6.331-14.562" transform="translate(-565.43 -330.74)"/></g><path d="M508.3,267.432l.169-1.087,1.63-10.425a1.214,1.214,0,0,1,1.3-1.024l20.075,1.678a2.306,2.306,0,0,1,2.11,2.469l-.448,6.057-6.268,8.178-9.027,1.409" transform="translate(-441.508 -206.14)" fill="#ff8900"/><path d="M489.067,315.81c.079,0,.137,8.167.137,18.239s-.058,18.239-.137,18.239-.137-8.167-.137-18.239S488.993,315.81,489.067,315.81Z" transform="translate(-432.358 -234.918)" fill="#263238"/><path d="M572.862,338.326s0-.037-.063-.116a2.113,2.113,0,0,1-.169-.359l-.612-1.388-2.2-5.123-7.17-16.941c-1.393-3.313-2.717-6.468-3.92-9.344a17.6,17.6,0,0,1-1.3-4.221,23.275,23.275,0,0,1-.348-3.852,15.534,15.534,0,0,1,.8-5.513l.164-.438.185-.369a3.237,3.237,0,0,1,.317-.559l.222-.327a.923.923,0,0,1,.084-.106,10.841,10.841,0,0,0-.871,1.836,15.954,15.954,0,0,0-.707,5.477,20.133,20.133,0,0,0,1.683,7.993l3.941,9.333,7.1,16.973,2.11,5.155.565,1.409.142.369A.64.64,0,0,1,572.862,338.326Z" transform="translate(-464.547 -222.569)" fill="#263238"/><path d="M527.1,271.49a6.607,6.607,0,0,1-.586.528,9.067,9.067,0,0,1-1.926,1.124,14.457,14.457,0,0,1-3.387.95,42.006,42.006,0,0,1-4.643.459c-1.731.074-3.619.042-5.645.079a26.127,26.127,0,0,0-6.384.781,11.766,11.766,0,0,0-6,3.54,8.288,8.288,0,0,0-1.667,3.292,7.048,7.048,0,0,0,.063,3.772,5.989,5.989,0,0,0,.881,1.688,4.448,4.448,0,0,0,1.425,1.2,3.1,3.1,0,0,0,1.762.369,2.411,2.411,0,0,0,1.551-.791,4.221,4.221,0,0,0,.781-3.34,5.482,5.482,0,0,0-.528-1.646,8.047,8.047,0,0,0-.934-1.419,9.94,9.94,0,0,0-5.413-3.2,11.5,11.5,0,0,0-5.535.063,15.173,15.173,0,0,0-4.221,1.81,20.179,20.179,0,0,0-2.807,2.11c-.723.633-1.235,1.182-1.583,1.541l-.39.422a.972.972,0,0,1-.142.137,17.185,17.185,0,0,1,2.058-2.179,19,19,0,0,1,2.8-2.142,15.148,15.148,0,0,1,4.274-1.868,11.607,11.607,0,0,1,5.635-.095,10.135,10.135,0,0,1,5.556,3.266,8.273,8.273,0,0,1,.96,1.425,5.708,5.708,0,0,1,.528,1.725,5.539,5.539,0,0,1-.032,1.841,3.656,3.656,0,0,1-.807,1.715,2.675,2.675,0,0,1-1.72.881,3.34,3.34,0,0,1-1.921-.4,4.749,4.749,0,0,1-1.514-1.277,6.253,6.253,0,0,1-.929-1.773,7.281,7.281,0,0,1-.063-3.92,8.441,8.441,0,0,1,1.725-3.4,12.071,12.071,0,0,1,6.141-3.614,26.227,26.227,0,0,1,6.453-.749c2.031-.032,3.92,0,5.64-.047a42.252,42.252,0,0,0,4.627-.417,14.962,14.962,0,0,0,3.377-.9,9.639,9.639,0,0,0,1.931-1.055c.211-.142.354-.274.459-.348A1.1,1.1,0,0,1,527.1,271.49Z" transform="translate(-428.975 -213.981)" fill="#fafafa"/><path d="M581.944,312.063a1.018,1.018,0,0,1-.227.037c-.148,0-.364.037-.649.047a20.9,20.9,0,0,1-2.39-.058c-1.008-.074-2.2-.227-3.519-.412s-2.765-.38-4.295-.459a16.558,16.558,0,0,0-4.268.322,10.764,10.764,0,0,0-3.261,1.24,9.386,9.386,0,0,0-2.406,2.11.749.749,0,0,1,.116-.2,3.807,3.807,0,0,1,.38-.528,7.271,7.271,0,0,1,1.81-1.583,10.6,10.6,0,0,1,3.3-1.319,16.191,16.191,0,0,1,4.342-.348c1.546.079,3,.29,4.316.485s2.5.369,3.5.464,1.815.137,2.374.142a7.138,7.138,0,0,1,.876.053Z" transform="translate(-466.37 -232.595)" fill="#fafafa"/><path d="M535.476,344.835a10.631,10.631,0,0,0-3.028-.259,16.431,16.431,0,0,0-3.519.628c-1.345.364-2.849.9-4.537,1.419a18.678,18.678,0,0,1-5.688.987,16.293,16.293,0,0,1-6.479-1.345,16.119,16.119,0,0,1-5.909-4.295,12.29,12.29,0,0,1-2.11-3.282,7.5,7.5,0,0,1-.607-3.962,5.767,5.767,0,0,1,1.873-3.53,4.11,4.11,0,0,1,1.778-.907,4.163,4.163,0,0,1,3.656.987,3.165,3.165,0,0,1,.95,1.641,3.2,3.2,0,0,1-.142,1.852,4.453,4.453,0,0,1-.987,1.514,7.866,7.866,0,0,1-2.9,1.841,8.847,8.847,0,0,1-1.583.438c-.264.047-.528.106-.786.142l-.786.095a17.132,17.132,0,0,1-5.756-.406,17.94,17.94,0,0,1-4.448-1.709,16.42,16.42,0,0,1-2.96-2.047l-.528-.459-.433-.438a7.318,7.318,0,0,1-.654-.707l-.38-.454a1.092,1.092,0,0,1-.116-.158,1.308,1.308,0,0,1,.142.142l.4.433a7.853,7.853,0,0,0,.67.686l.438.427.528.448a16.659,16.659,0,0,0,2.96,1.989,17.938,17.938,0,0,0,4.416,1.657,16.951,16.951,0,0,0,5.693.369l.77-.095c.258-.042.528-.1.781-.148a8.541,8.541,0,0,0,1.546-.433,7.657,7.657,0,0,0,2.8-1.789,4.221,4.221,0,0,0,.929-1.43,3.023,3.023,0,0,0,.132-1.7,3.3,3.3,0,0,0-2.464-2.364,3.693,3.693,0,0,0-3.487.8,5.45,5.45,0,0,0-1.778,3.361,7.318,7.318,0,0,0,.58,3.815A12.252,12.252,0,0,0,506.5,341.8a15.9,15.9,0,0,0,5.8,4.221,16.182,16.182,0,0,0,6.379,1.351,18.55,18.55,0,0,0,5.635-.95c1.683-.528,3.166-1.024,4.553-1.377a16.314,16.314,0,0,1,3.551-.586,10.53,10.53,0,0,1,1.314,0c.375.058.7.084.95.142l.575.142A.853.853,0,0,1,535.476,344.835Z" transform="translate(-432.58 -241.715)" fill="#fafafa"/><path d="M481.783,340.675c-.047,0-.29-.528-.8-1.414a13.77,13.77,0,0,0-5.63-5.25c-.9-.454-1.488-.654-1.472-.7a1.583,1.583,0,0,1,.433.1,8.592,8.592,0,0,1,1.124.422,12.331,12.331,0,0,1,3.292,2.2,12.135,12.135,0,0,1,2.422,3.134,9.193,9.193,0,0,1,.528,1.087A1.639,1.639,0,0,1,481.783,340.675Z" transform="translate(-425.248 -243.185)" fill="#fafafa"/><path d="M446.218,360.035a.752.752,0,0,1-.084-.132c-.047-.09-.127-.232-.216-.4-.19-.348-.464-.871-.8-1.546a36.162,36.162,0,0,1-2.416-5.946,19.215,19.215,0,0,1-.755-4.374,13.646,13.646,0,0,1,.1-2.48,14.8,14.8,0,0,1,.623-2.559,11.153,11.153,0,0,1,3.1-4.685,7.582,7.582,0,0,1,5.63-1.979,4.179,4.179,0,0,1,2.775,1.351,3.409,3.409,0,0,1,.786,2.886,2.564,2.564,0,0,1-.749,1.3,3.055,3.055,0,0,1-1.287.7,3.8,3.8,0,0,1-2.759-.332,6.3,6.3,0,0,1-2.01-1.715,9.245,9.245,0,0,1-1.271-2.147,9.5,9.5,0,0,1-.691-4.369,8.969,8.969,0,0,1,1.055-3.509,9.159,9.159,0,0,1,1.657-2.216,8.612,8.612,0,0,1,1.356-1.1c.164-.111.3-.179.39-.232l.137-.069s-.169.121-.5.348a9.6,9.6,0,0,0-1.314,1.129,9.385,9.385,0,0,0-1.583,2.211,8.864,8.864,0,0,0-.987,3.451,9.264,9.264,0,0,0,.717,4.274,9.116,9.116,0,0,0,1.245,2.084,6.1,6.1,0,0,0,1.942,1.641,3.535,3.535,0,0,0,2.575.306,2.48,2.48,0,0,0,1.841-1.815,3.166,3.166,0,0,0-.728-2.638,3.9,3.9,0,0,0-2.6-1.256,7.318,7.318,0,0,0-5.424,1.9,10.99,10.99,0,0,0-3.034,4.569,14.282,14.282,0,0,0-.628,2.506,13.667,13.667,0,0,0-.111,2.438,19.336,19.336,0,0,0,.717,4.332,38.578,38.578,0,0,0,2.321,5.951l.754,1.583c.079.169.142.306.2.412S446.218,360.035,446.218,360.035Z" transform="translate(-410.153 -239.963)" fill="#fafafa"/><path d="M427.473,301.79a1.262,1.262,0,0,1,.047.216,6.434,6.434,0,0,1,.079.644,13.489,13.489,0,0,1,0,2.369,15.058,15.058,0,0,1-8.5,12.362,13.568,13.568,0,0,1-2.211.849c-.264.084-.48.121-.623.158s-.222.042-.222.032a6.761,6.761,0,0,1,.813-.29,16.642,16.642,0,0,0,2.158-.923A15.443,15.443,0,0,0,427.41,305a17.178,17.178,0,0,0,.09-2.343A6.691,6.691,0,0,1,427.473,301.79Z" transform="translate(-397.925 -228.295)" fill="#fafafa"/><path d="M597.006,345.148a7.713,7.713,0,0,0-2.037,1.857c-.528.681-1.055,1.583-1.651,2.532a19.521,19.521,0,0,1-2.253,2.981,19,19,0,0,1-5.408,4.068,15.857,15.857,0,0,1-1.889.807,4.135,4.135,0,0,1-.728.211,4.039,4.039,0,0,1,.686-.311c.443-.2,1.087-.47,1.841-.881a20.312,20.312,0,0,0,5.276-4.078,20.053,20.053,0,0,0,2.242-2.928,27.543,27.543,0,0,1,1.715-2.522,6.666,6.666,0,0,1,1.514-1.4,3.3,3.3,0,0,1,.491-.269C596.942,345.164,597.006,345.137,597.006,345.148Z" transform="translate(-476.815 -248.776)" fill="#fafafa"/><path d="M534.15,268.439a.839.839,0,0,1-.243.063l-.7.127c-.612.1-1.5.232-2.591.38-2.195.3-5.234.644-8.605.892a42.766,42.766,0,0,1-4.748.169,13.465,13.465,0,0,1-3.846-.659,8.542,8.542,0,0,1-2.348-1.187,5.773,5.773,0,0,1-.559-.448c-.116-.116-.174-.174-.169-.185s.274.211.786.528a9.419,9.419,0,0,0,2.348,1.087,13.67,13.67,0,0,0,3.8.591,46.97,46.97,0,0,0,4.748-.19c3.361-.248,6.4-.559,8.595-.807l2.6-.3A6.675,6.675,0,0,1,534.15,268.439Z" transform="translate(-442.471 -212.138)" fill="#263238"/><path d="M575.882,385.121A14.177,14.177,0,0,1,562.106,402l-39.966-.443,1.055-12.942,34.22-5.139" transform="translate(-448.046 -266.885)" fill="#b78876"/><path d="M506.632,391.325a37.005,37.005,0,0,1-4.559-1.931,14.9,14.9,0,0,0-7.017-1.361l-9.529.485a4.522,4.522,0,0,0,1.583,2.11c1,.528,6.975.7,6.975.7l-.306.311a6.859,6.859,0,0,1-4.748,2.079h-.913a8.854,8.854,0,0,1-1.989-.39l-2.348-.95c-.712-.317-1.461-.269-1.773.448s-.074,1.541,1.868,2.517c1.082.528,5.1,1.936,5.1,1.936a9.462,9.462,0,0,0,.237,1.7c.174.586,1.752,1.171,1.752,1.171a21.02,21.02,0,0,0,1.4,2.511,14.343,14.343,0,0,0,3.139,1.087,13.554,13.554,0,0,0,7.508-.058l3.63-1.087V391.52" transform="translate(-429.034 -269.026)" fill="#b78876"/><path d="M499.776,406.86a10.8,10.8,0,0,1-4.806-1.266c0-.063,1.055.338,2.39.681S499.782,406.781,499.776,406.86Z" transform="translate(-435.211 -277.328)" fill="#aa6550"/><path d="M501.163,411.591a2.438,2.438,0,0,1-1.34-.1,2.475,2.475,0,0,1-1.2-.591,7.962,7.962,0,0,1,1.266.364A8.585,8.585,0,0,1,501.163,411.591Z" transform="translate(-436.935 -279.838)" fill="#aa6550"/><path d="M501.1,392.66a4.051,4.051,0,0,1-.733.786,11.745,11.745,0,0,1-2.079,1.583,8.19,8.19,0,0,1-2.432.939,3.51,3.51,0,0,1-1.055.116,13.894,13.894,0,0,0,3.387-1.261,16.19,16.19,0,0,0,2.084-1.493A6,6,0,0,1,501.1,392.66Z" transform="translate(-435.13 -271.221)" fill="#aa6550"/><path d="M529.751,381.807l-.971,14.636h37.645a14.06,14.06,0,0,0,7.255-2.01h0a14.076,14.076,0,0,0,6.563-14.773,43.306,43.306,0,0,0-2.427-8.12l-18.93,3.118.607,2.353Z" transform="translate(-451.182 -261.244)" fill="#ff8900"/><path d="M569.6,379.575a3.073,3.073,0,0,1-.38.084l-1.1.2-4.068.675-13.38,2.11-13.4,2.052-4.063.591-1.108.148a3.425,3.425,0,0,1-.39.032,1.865,1.865,0,0,1,.385-.09l1.1-.2,4.052-.681,13.38-2.11,13.422-2.068,4.063-.591,1.108-.148A1.793,1.793,0,0,1,569.6,379.575Z" transform="translate(-452.567 -265.037)" fill="#263238"/><path d="M560.093,404.4c-.069,0,.227-1.055.264-2.78a12.026,12.026,0,0,0-.058-1.4,13.209,13.209,0,0,0-.232-1.583,14.739,14.739,0,0,0-1.224-3.472,15.885,15.885,0,0,0-2.058-3.06l-.528-.617c-.179-.2-.375-.375-.554-.554-.354-.364-.728-.654-1.055-.934-1.345-1.055-2.3-1.583-2.269-1.63a4.077,4.077,0,0,1,.67.343,7.085,7.085,0,0,1,.76.459c.28.2.628.4.96.681a12.142,12.142,0,0,1,1.087.918c.185.179.391.348.575.528l.575.623a15.477,15.477,0,0,1,2.11,3.1,14.615,14.615,0,0,1,1.224,3.545,11.828,11.828,0,0,1,.211,1.63,10.043,10.043,0,0,1,0,1.425,9.266,9.266,0,0,1-.106,1.177,5.846,5.846,0,0,1-.153.871A4.438,4.438,0,0,1,560.093,404.4Z" transform="translate(-462.33 -269.195)" fill="#fafafa"/><path d="M598.7,400.925a7.912,7.912,0,0,1-1.746-.206,9.04,9.04,0,0,1-1.952-.691,7.751,7.751,0,0,1-2.2-1.636,7.007,7.007,0,0,1-1.62-2.9,7.8,7.8,0,0,1-.28-1.847,7.179,7.179,0,0,1,.158-1.968,5.8,5.8,0,0,1,.781-1.936,4.38,4.38,0,0,1,1.583-1.509,3.926,3.926,0,0,1,2.211-.528,2.95,2.95,0,0,1,2.063,1.055,2.892,2.892,0,0,1,.7,2.221,2.638,2.638,0,0,1-1.3,1.857,6.183,6.183,0,0,1-4.158.57,8.679,8.679,0,0,1-7.339-8.315,6.236,6.236,0,0,1,.148-1.752,14.679,14.679,0,0,0-.042,1.746,8.969,8.969,0,0,0,1.5,4.442,8.611,8.611,0,0,0,5.761,3.656,5.957,5.957,0,0,0,3.978-.528A2.374,2.374,0,0,0,598.121,391a2.754,2.754,0,0,0-2.517-2.981,3.645,3.645,0,0,0-2.052.47,4.748,4.748,0,0,0-2.242,3.261,6.921,6.921,0,0,0-.164,1.91,7.578,7.578,0,0,0,.259,1.789,6.779,6.779,0,0,0,1.541,2.833,7.7,7.7,0,0,0,2.11,1.63,9.271,9.271,0,0,0,1.91.723C598.073,400.878,598.707,400.888,598.7,400.925Z" transform="translate(-478.02 -266.819)" fill="#fafafa"/></g><g transform="translate(51.753 85.347)"><path d="M206.184,114.47H111.906a20.777,20.777,0,0,0-20.777,20.777v33.6H70.79l20.339,20.339v22.84A20.777,20.777,0,0,0,111.906,232.8h94.278a20.777,20.777,0,0,0,20.777-20.777V135.247A20.777,20.777,0,0,0,206.184,114.47Z" transform="translate(-70.79 -108.182)" fill="#a3edff"/><path d="M249.149,119.731c-.6,1.546.427,3.229,1.583,4.421s2.538,2.321,2.9,3.936c.3,1.356-.2,2.765-.079,4.147a19.716,19.716,0,0,0,1.319,4.036,13.235,13.235,0,0,1-.232,7.6,13.965,13.965,0,0,1-2.828,5.6,7.46,7.46,0,0,1-5.529,2.638,2.184,2.184,0,0,1-1.636-.591,2.638,2.638,0,0,1-.47-1.451,141.464,141.464,0,0,1,0-31.973" transform="translate(-152.27 -109.892)" fill="#263238"/><path d="M242.45,185.386a8.49,8.49,0,0,1,8.468,8.774,9.791,9.791,0,0,1,7.022,10.943,36.36,36.36,0,0,0-1.087,4.6c-.106,1.72.528,3.393.839,5.081a16.007,16.007,0,0,1-.918,9.159c-.723,1.746-2.073,3.551-3.962,3.6a3.9,3.9,0,0,1-3.166-1.862,9.818,9.818,0,0,1-1.277-3.6c-.818-4.126-1.055-8.363-2.195-12.409s-3.356-8.035-7.012-10.088c-2.021-1.14-4.448-1.678-6.057-3.35a6.579,6.579,0,0,1-1.187-6.806,8.674,8.674,0,0,1,5.171-4.828" transform="translate(-146.685 -141.311)" fill="#263238"/><path d="M191.5,116.173c-.053-1.963,1.757-3.477,3.582-4.221s3.857-.992,5.482-2.11c1.446-.971,2.411-2.485,3.63-3.693a12.077,12.077,0,0,1,20.313,5.54c.7,2.791.222,6.094-1.979,7.951-2.554,2.153-6.331,1.673-9.618,1s-6.98-1.33-9.713.6c-1.646,1.155-2.6,3.044-3.6,4.791s-2.269,3.524-4.173,4.184-4.5-.48-4.569-2.49" transform="translate(-127.506 -102.551)" fill="#263238"/><path d="M204.117,125.105a3.282,3.282,0,0,0-2.928,3.334h0l1.957,44.319c.084,5.234,7.735,8.173,13.338,8.041h0c5.661-.132,5.841-2.907,5.914-7.888.116-8.315.106-11.438.111-11.391s7.149-1.2,8.611-10.552c.723-4.638.475-12.246.069-18.466-.364-5.6-4.089-12.457-9.666-11.855Z" transform="translate(-132.39 -111.082)" fill="#ffbe9d"/><path d="M252.865,153.341a1.2,1.2,0,0,1-1.15,1.208,1.14,1.14,0,0,1-1.235-1.055,1.192,1.192,0,0,1,1.15-1.208,1.14,1.14,0,0,1,1.235,1.055Z" transform="translate(-155.675 -126.044)" fill="#263238"/><path d="M250.7,149.551c-.148.158-1.055-.528-2.343-.528s-2.232.654-2.374.5c-.069-.069.084-.353.5-.654a3.266,3.266,0,0,1,1.894-.586,3.166,3.166,0,0,1,1.868.6C250.639,149.187,250.777,149.483,250.7,149.551Z" transform="translate(-153.544 -124.153)" fill="#263238"/><path d="M229.415,153.341a1.2,1.2,0,0,1-1.15,1.208,1.14,1.14,0,0,1-1.235-1.055,1.192,1.192,0,0,1,1.15-1.208,1.14,1.14,0,0,1,1.235,1.055Z" transform="translate(-144.597 -126.044)" fill="#263238"/><path d="M226.767,150.057c-.148.158-1.055-.528-2.343-.528s-2.232.654-2.369.5c-.069-.069.079-.353.491-.654a3.282,3.282,0,0,1,1.894-.591,3.166,3.166,0,0,1,1.868.6C226.677,149.7,226.815,149.988,226.767,150.057Z" transform="translate(-142.24 -124.39)" fill="#263238"/><path d="M239.308,159.676a8.66,8.66,0,0,1,2.11-.38c.327-.037.638-.106.7-.327a1.725,1.725,0,0,0-.222-.976l-.981-2.5a42.579,42.579,0,0,1-2.195-6.542,42.942,42.942,0,0,1,2.717,6.331l.939,2.517a1.936,1.936,0,0,1,.174,1.287.834.834,0,0,1-.528.485,2.058,2.058,0,0,1-.528.074A8.361,8.361,0,0,1,239.308,159.676Z" transform="translate(-150.111 -124.469)" fill="#263238"/><path d="M230.4,195.2a23.742,23.742,0,0,1-12.5-3.308s3.044,6.405,12.383,5.508Z" transform="translate(-140.284 -144.755)" fill="#eb996e"/><path d="M235.37,174.377a2.316,2.316,0,0,0-2.11-.855,2.111,2.111,0,0,0-1.461.786,1.34,1.34,0,0,0-.095,1.535,1.546,1.546,0,0,0,1.688.422,4.822,4.822,0,0,0,1.641-.987,1.4,1.4,0,0,0,.369-.38.427.427,0,0,0,0-.48" transform="translate(-146.712 -136.069)" fill="#eb996e"/><path d="M232.484,171c.211,0,.216,1.388,1.414,2.374s2.685.834,2.7,1.055c0,.09-.332.274-.96.29a3.477,3.477,0,0,1-2.253-.776,3.034,3.034,0,0,1-1.092-1.994C232.231,171.332,232.389,171,232.484,171Z" transform="translate(-147.075 -134.886)" fill="#263238"/><path d="M226.738,146.049c-.127.354-1.414.19-2.923.375s-2.733.6-2.933.285c-.09-.148.121-.48.612-.818a5.128,5.128,0,0,1,4.464-.528C226.533,145.611,226.812,145.886,226.738,146.049Z" transform="translate(-141.683 -122.64)" fill="#263238"/><path d="M250.073,142.462c-.227.29-1.113,0-2.184,0s-1.968.2-2.174-.106c-.095-.148.047-.438.443-.718a3.166,3.166,0,0,1,3.509.1C250.073,142.018,250.183,142.319,250.073,142.462Z" transform="translate(-153.41 -120.788)" fill="#263238"/><path d="M194.323,154.058a8.278,8.278,0,0,0,9.856-9.133c-.29-2.3-1.525-4.622-.728-6.8,1.055-2.865,5.07-3.746,6.136-6.611.617-1.662.063-3.609.765-5.239.66-1.53,2.274-2.411,3.846-2.981a16.091,16.091,0,0,0,4.569-1.984c1.319-1.024,2.137-2.955,1.287-4.395a88.374,88.374,0,0,0-20.387,4.954,7.9,7.9,0,0,0-4.026,2.606c-.95,1.435-.9,3.282-.823,5,.39,8.378-.886,16.224-.5,24.6" transform="translate(-129.111 -109.339)" fill="#263238"/><path d="M188.259,147.973a.528.528,0,0,1-.153-.047,1.936,1.936,0,0,1-.427-.211,3.1,3.1,0,0,1-1.161-1.372,4.6,4.6,0,0,1-.306-2.833,9.016,9.016,0,0,1,1.694-3.392,24.865,24.865,0,0,0,2.564-3.767,5.8,5.8,0,0,0,.617-2.406,8,8,0,0,0-.528-2.6,7.883,7.883,0,0,1-.554-2.817,6.331,6.331,0,0,1,3.034-5.1,7.26,7.26,0,0,1,3.076-.876,12.943,12.943,0,0,0,3.076-.528,4.015,4.015,0,0,0,2.163-1.947,14.919,14.919,0,0,0,1.024-2.754,14.905,14.905,0,0,1,1.055-2.638,9.977,9.977,0,0,1,3.5-3.931,7.566,7.566,0,0,1,4.427-1.15,5.693,5.693,0,0,1,3.487,1.43,5.508,5.508,0,0,1,1.556,2.4,4.437,4.437,0,0,1,.216,1.794,2.708,2.708,0,0,1-.105.623,5.4,5.4,0,0,0,.053-.628,4.669,4.669,0,0,0-.264-1.757,5.477,5.477,0,0,0-4.954-3.662,7.387,7.387,0,0,0-4.295,1.15,9.75,9.75,0,0,0-3.4,3.852,14.531,14.531,0,0,0-1.024,2.638,15.038,15.038,0,0,1-1.055,2.8,4.8,4.8,0,0,1-.944,1.245,4,4,0,0,1-1.361.828,12.984,12.984,0,0,1-3.166.559,6.964,6.964,0,0,0-2.965.839,6.057,6.057,0,0,0-2.907,4.865,7.745,7.745,0,0,0,.528,2.733,8.077,8.077,0,0,1,.554,2.68,6.057,6.057,0,0,1-.654,2.5,25.5,25.5,0,0,1-2.612,3.783,8.843,8.843,0,0,0-1.7,3.308,4.474,4.474,0,0,0,.248,2.754,3.166,3.166,0,0,0,1.1,1.377C188.048,147.9,188.264,147.952,188.259,147.973Z" transform="translate(-125.268 -105.881)" fill="#455a64"/><path d="M241.57,105.22a.865.865,0,0,1,.364.111,3.724,3.724,0,0,1,.881.528,4.522,4.522,0,0,1,.923,6.178,4.009,4.009,0,0,1-.686.765c-.19.158-.306.227-.317.211a13.12,13.12,0,0,0,.839-1.055,4.553,4.553,0,0,0-.881-5.925,12.01,12.01,0,0,0-1.124-.813Z" transform="translate(-151.466 -103.812)" fill="#455a64"/><path d="M266.479,211.307a7.85,7.85,0,0,0,.269-.992,4.569,4.569,0,0,0-.459-2.686,6.231,6.231,0,0,0-2.944-2.744,12.258,12.258,0,0,0-2.3-.818c-.823-.211-1.694-.385-2.564-.67a5.8,5.8,0,0,1-2.358-1.287,3.936,3.936,0,0,1-1.113-2.237c-.142-.786-.19-1.53-.364-2.195A4.305,4.305,0,0,0,253.8,196a4.849,4.849,0,0,0-2.258-1.535c-.628-.19-1-.19-1-.222a1.362,1.362,0,0,1,.269,0,4.391,4.391,0,0,1,.765.121,4.785,4.785,0,0,1,2.374,1.514,4.458,4.458,0,0,1,.923,1.746c.19.691.248,1.446.4,2.205a3.651,3.651,0,0,0,1.055,2.11,5.614,5.614,0,0,0,2.253,1.219c.849.274,1.72.454,2.548.67a11.788,11.788,0,0,1,2.321.834,6.331,6.331,0,0,1,3.007,2.886,4.548,4.548,0,0,1,.39,2.791,3.3,3.3,0,0,1-.237.733,1.278,1.278,0,0,1-.127.232Z" transform="translate(-155.703 -145.863)" fill="#455a64"/><path d="M193.143,158.712c-4.748-1.266-8.811-5.893-10.468-10.5s-1.657-9.634-1.229-14.509c.306-3.53.929-7.265,3.271-9.924,3.535-4.01,7.386-6.057,12.7-5.888" transform="translate(-122.95 -109.793)" fill="#263238"/><path d="M220.96,206.75l-4.405-1.108a2.506,2.506,0,0,0,.876-3.071,4.036,4.036,0,0,0-3.366-2.5l-20.081-2.269a1.583,1.583,0,0,0-1.683.992q-1.335,3.4-.09,5.593h-.095l-3.873.77-6.563,57.9,42.989-2.01Z" transform="translate(-123.174 -147.543)" fill="#f5f5f5"/><path d="M225.6,212.169a4.541,4.541,0,0,1-.807.158c-.528.084-1.282.174-2.221.269a51.9,51.9,0,0,1-14.715-.733c-.929-.185-1.673-.353-2.184-.491a4.291,4.291,0,0,1-.786-.232,4.614,4.614,0,0,1,.807.132c.528.1,1.272.243,2.2.4a60.917,60.917,0,0,0,14.662.728c.939-.063,1.7-.132,2.226-.185a5.22,5.22,0,0,1,.818-.047Z" transform="translate(-134.138 -153.848)" fill="#263238"/><path d="M207.32,226.189a15.785,15.785,0,0,1,1.5-2.5,15.606,15.606,0,0,1,1.736-2.348,15.594,15.594,0,0,1-1.509,2.5A15.383,15.383,0,0,1,207.32,226.189Z" transform="translate(-135.286 -158.667)" fill="#e0e0e0"/><path d="M230.354,228.375a30.227,30.227,0,0,1-3.6-4.485,15.346,15.346,0,0,1,1.91,2.158A14.873,14.873,0,0,1,230.354,228.375Z" transform="translate(-144.465 -159.871)" fill="#e0e0e0"/><path d="M220.464,241.139a16.245,16.245,0,0,1-.649-2.881,15.2,15.2,0,0,1-.375-2.928,31.312,31.312,0,0,1,1.024,5.809Z" transform="translate(-141.012 -165.275)" fill="#e0e0e0"/><path d="M236.886,247.2a23.214,23.214,0,0,1-2.438,2.6,22.758,22.758,0,0,1-2.638,2.4,23.171,23.171,0,0,1,2.438-2.6,24,24,0,0,1,2.638-2.4Z" transform="translate(-146.855 -170.883)" fill="#e0e0e0"/><path d="M210.444,261.558a12.235,12.235,0,0,1-4.574-4.849c.074-.047.881,1.219,2.153,2.554S210.5,261.489,210.444,261.558Z" transform="translate(-134.601 -175.374)" fill="#e0e0e0"/><path d="M218.65,280.34c0,.079-1.2.464-2.6,1.208s-2.411,1.525-2.464,1.456a7.676,7.676,0,0,1,2.337-1.7,7.512,7.512,0,0,1,2.722-.96Z" transform="translate(-138.248 -186.538)" fill="#e0e0e0"/><path d="M232.87,275.162a5.186,5.186,0,0,1-.839-.9c-.485-.58-1.134-1.409-1.81-2.353s-1.245-1.826-1.641-2.48a5.244,5.244,0,0,1-.58-1.087,6.062,6.062,0,0,1,.744.981l1.7,2.427,1.736,2.4a5.8,5.8,0,0,1,.686,1.018Z" transform="translate(-145.055 -180.869)" fill="#e0e0e0"/><path d="M232.9,293.59a15.081,15.081,0,0,1-3.166.739,15.3,15.3,0,0,1-3.245.322,25.545,25.545,0,0,1,3.2-.591,27.317,27.317,0,0,1,3.208-.47Z" transform="translate(-144.342 -192.797)" fill="#e0e0e0"/><path d="M215.555,205.857c-.037,0,.216-.317.433-.876a4.653,4.653,0,0,0,.232-2.29,9.339,9.339,0,0,0-.681-2.253,4.258,4.258,0,0,1-.359-.929,3.124,3.124,0,0,1,.528.849,7.313,7.313,0,0,1,.776,2.29,4.289,4.289,0,0,1-.322,2.411,1.7,1.7,0,0,1-.607.8Z" transform="translate(-138.999 -148.354)" fill="#e0e0e0"/><path d="M231.1,203.32a4.807,4.807,0,0,1,.849,3.63c-.079,0-.09-.839-.327-1.836S231.046,203.362,231.1,203.32Z" transform="translate(-146.519 -150.154)" fill="#e0e0e0"/><path d="M298.622,229.972l20-35.123,2.411-6.094s6.236-13.4,6.669-14.773c.5-1.583,1.382-1.709,1.952-1.488.886.354,1.171,1.673.781,3.039-.137.47-2.559,7.835-2.559,7.835a17.689,17.689,0,0,1,2.068-1.535c1.535-1.055,4.347-1,6.954-.074s3.25,1.419,2.939,2.443a1.361,1.361,0,0,1-.839.828,2.638,2.638,0,0,1-1.926.042c-4.189-1.425-6.046.464-6.046.464l-.311.8s3.166-1.008,4.938.417a2.638,2.638,0,0,1,.654.76,3.466,3.466,0,0,1,1.282,5.835,1.44,1.44,0,0,1-1.583.4,1.767,1.767,0,0,1-.6-.691,3.047,3.047,0,0,0-.29-.4l-1.192,2.11s-2.939,4.59-3.994,6.738l-13.771,36.684a9.708,9.708,0,0,1-12.662,5.619h0a9.713,9.713,0,0,1-4.875-13.839Z" transform="translate(-177.816 -135.553)" fill="#ffbe9d"/><path d="M340.27,208.2a2.01,2.01,0,0,0,2.316-.4c.633-.549,1.055-1.3,1.667-1.9,1.778-1.778,4.748-1.947,6.453-3.809.237-.259.448-.654.243-.939s-.586-.232-.9-.169l-8.183,1.62" transform="translate(-198.091 -149.028)" fill="#ffbe9d"/><path d="M341.881,202.431a3.508,3.508,0,0,1,.865-.264c.565-.142,1.388-.327,2.4-.528l3.567-.754,1.055-.216a1.667,1.667,0,0,1,1.25.042.707.707,0,0,1,.264.744,1.4,1.4,0,0,1-.317.6,5.392,5.392,0,0,1-.923.813A31.823,31.823,0,0,1,346,204.827a6.043,6.043,0,0,0-1.551,1.055c-.422.406-.754.871-1.1,1.266a2.944,2.944,0,0,1-2.168,1.219c-.628,0-.886-.311-.865-.317a2.453,2.453,0,0,0,.855.132,2.855,2.855,0,0,0,1.921-1.25,16.975,16.975,0,0,1,1.082-1.33,6.379,6.379,0,0,1,1.63-1.171,33.225,33.225,0,0,0,3.973-1.952,5.349,5.349,0,0,0,.834-.733c.232-.259.311-.57.148-.66a1.665,1.665,0,0,0-.892.026l-1.055.2-3.588.66c-1.024.179-1.852.317-2.427.4a2.913,2.913,0,0,1-.907.063Z" transform="translate(-198.109 -148.854)" fill="#eb996e"/><path d="M360.362,196.453a3.4,3.4,0,0,1,.939-1.266,2.638,2.638,0,0,1,1.583-.528,6.818,6.818,0,0,1,2.11.348,10.726,10.726,0,0,0,2.142.485,3.451,3.451,0,0,0,1.794-.274,1.366,1.366,0,0,0,.765-.96.855.855,0,0,0,0-.448c-.032,0-.032.158-.111.422a1.282,1.282,0,0,1-.739.791,3.514,3.514,0,0,1-1.683.19,11.606,11.606,0,0,1-2.079-.528,6.743,6.743,0,0,0-2.184-.338,2.786,2.786,0,0,0-1.7.633,2.416,2.416,0,0,0-.712,1C360.352,196.29,360.341,196.448,360.362,196.453Z" transform="translate(-207.579 -145.662)" fill="#eb996e"/><path d="M357.481,177.33a8.966,8.966,0,0,0-.5,1.461c-.311,1.013-.681,2.216-1.092,3.546s-.818,2.522-1.145,3.53a8.406,8.406,0,0,0-.438,1.477,7.5,7.5,0,0,0,.644-1.4c.348-.886.791-2.11,1.235-3.509s.786-2.638,1.008-3.582a7.351,7.351,0,0,0,.285-1.52Z" transform="translate(-204.724 -137.877)" fill="#eb996e"/><path d="M362.51,202.518a1.7,1.7,0,0,0,.485,0,1.43,1.43,0,0,1,1.15.306.776.776,0,0,1,.185.739,3.98,3.98,0,0,1-.375.929,1.731,1.731,0,0,0-.2,1.214,1.482,1.482,0,0,0,.939.944,1.667,1.667,0,0,0,1.314-.132,2.052,2.052,0,0,0,.871-.849,6.79,6.79,0,0,0,.58-1.9,3.889,3.889,0,0,0,0-1.335.865.865,0,0,0-.185-.454c-.026,0,.042.169.069.47a4.657,4.657,0,0,1-.111,1.282,7.334,7.334,0,0,1-.612,1.8,1.651,1.651,0,0,1-1.836.828,1.171,1.171,0,0,1-.749-.739,1.456,1.456,0,0,1,.164-1.008,4.363,4.363,0,0,0,.369-1.008,1,1,0,0,0-.29-.934,1.5,1.5,0,0,0-1.319-.274A1.456,1.456,0,0,0,362.51,202.518Z" transform="translate(-208.597 -149.521)" fill="#eb996e"/><path d="M368.969,205.876a.727.727,0,0,0-.09.433,1.335,1.335,0,0,0,.612,1.029,1.783,1.783,0,0,0,1.778,0,2.907,2.907,0,0,0,1.34-1.709,3.514,3.514,0,0,0,0-2.174,3.356,3.356,0,0,0-.976-1.477,3.166,3.166,0,0,0-1.018-.612.965.965,0,0,0-.427-.095,5.708,5.708,0,0,1,1.3.865,3.308,3.308,0,0,1,.834,3.4,2.717,2.717,0,0,1-1.187,1.556,1.583,1.583,0,0,1-1.525.042,1.282,1.282,0,0,1-.612-.86A3.9,3.9,0,0,1,368.969,205.876Z" transform="translate(-211.606 -149.186)" fill="#eb996e"/><path d="M354.016,212.476a1.261,1.261,0,0,0-.707-.216,2.9,2.9,0,0,0-1.836.438l.227.153a8.5,8.5,0,0,0,.148-1.055,6.639,6.639,0,0,0-.528-3.567,16.457,16.457,0,0,1,.227,3.54,9.338,9.338,0,0,1-.132,1.008l-.063.343.29-.2a3.05,3.05,0,0,1,1.662-.5A7.137,7.137,0,0,0,354.016,212.476Z" transform="translate(-203.311 -152.473)" fill="#eb996e"/><path d="M364.3,192.559c-.084,0,.032.633.591,1.119s1.187.528,1.187.438-.5-.243-.981-.67S364.382,192.527,364.3,192.559Z" transform="translate(-209.43 -145.07)" fill="#eb996e"/><path d="M246,278.135l20.919.206-3.509-15.179,1.177,2.865a14.409,14.409,0,0,0,13.333,8.943h0c6.616,0,11.19-4.923,13.987-10.916,6.542-14.013,12.847-36.579,12.847-36.579L292,216.268c-9.233,17.464-17.907,32.627-17.907,32.627s-2.506-7.613-4.442-14.409-1.921-10.362-4.891-13.749c-4.574-5.213-11.08-6.505-17.137-8.067l-.227,28.2-1.4,37.27" transform="translate(-153.558 -154.571)" fill="#8dd52c"/><path d="M173.676,256.313l38.093,7.386,1.852,14.636H155.215a11.5,11.5,0,0,1-11.607-12.409c.839-10.668,1.752-23.806,2.448-29.361a37.85,37.85,0,0,1,4.311-12.662c2.949-5.55,12.779-12.663,21.394-13.032l1.63,36.283" transform="translate(-105.172 -153.721)" fill="#8dd52c"/><path d="M183.158,265.207a1.487,1.487,0,0,1,0-.348q0-.388,0-1v-3.693c0-3.1-.058-7.386-.3-12.1-.121-2.364-.274-4.611-.438-6.648a27.271,27.271,0,0,0-.765-5.36,7.677,7.677,0,0,0-1.678-3.166A11.967,11.967,0,0,0,179,232a4.084,4.084,0,0,1,1.082.807,7.439,7.439,0,0,1,1.789,3.2,26.464,26.464,0,0,1,.823,5.413c.179,2.042.338,4.289.459,6.653.243,4.748.269,9.017.216,12.135-.032,1.551-.074,2.807-.111,3.693l-.058,1a1.319,1.319,0,0,1-.042.306Z" transform="translate(-121.908 -163.702)" fill="#263238"/><path d="M231.489,304.469a5.8,5.8,0,0,0-1.388-1.124,8.771,8.771,0,0,0-1.947-.776c-.786-.227-1.709-.4-2.728-.607-4.073-.834-9.692-1.989-15.918-3.166s-11.892-2.11-15.992-2.765l-4.859-.776-1.319-.222a2.864,2.864,0,0,1-.459-.095,2.726,2.726,0,0,1,.464.042l1.33.169c1.15.153,2.817.385,4.87.691,4.11.612,9.782,1.52,16.013,2.685s11.85,2.348,15.907,3.224c1.018.222,1.942.412,2.733.654a8.406,8.406,0,0,1,1.957.834,4.22,4.22,0,0,1,1.055.844,2.108,2.108,0,0,1,.222.269A.483.483,0,0,1,231.489,304.469Z" transform="translate(-125.63 -193.435)" fill="#263238"/><path d="M178.5,294.94c0,.047-.7.211-1.789.654a15.869,15.869,0,0,0-1.847.908,16.52,16.52,0,0,0-2.052,1.446,16.142,16.142,0,0,0-1.752,1.773,14.9,14.9,0,0,0-1.213,1.657c-.623,1-.907,1.673-.955,1.651a1.98,1.98,0,0,1,.164-.491,10.738,10.738,0,0,1,.623-1.261,13.99,13.99,0,0,1,1.187-1.72,13.586,13.586,0,0,1,3.9-3.276,12.567,12.567,0,0,1,1.894-.871,9.761,9.761,0,0,1,1.351-.4A1.757,1.757,0,0,1,178.5,294.94Z" transform="translate(-117.132 -193.435)" fill="#263238"/><path d="M277.408,279.738a2.267,2.267,0,0,1-.079-.364c-.042-.264-.1-.612-.169-1.055-.148-.913-.343-2.232-.565-3.867-.443-3.266-.981-7.793-1.435-12.8s-.723-9.56-.871-12.858c-.074-1.646-.116-2.981-.137-3.9v-1.055a1.98,1.98,0,0,1,0-.369,1.582,1.582,0,0,1,.042.369l.069,1.055c.058.95.132,2.274.227,3.894.2,3.292.5,7.835.95,12.842s.96,9.534,1.356,12.8c.2,1.614.359,2.928.475,3.878.047.438.09.786.121,1.055a1.5,1.5,0,0,1,.016.38Z" transform="translate(-166.853 -169.116)" fill="#263238"/><path d="M301.66,291.531a3.8,3.8,0,0,1-.306-.348,10.121,10.121,0,0,1-.7-1.055,13.9,13.9,0,0,1-1.873-8,8.889,8.889,0,0,1,.169-1.25,1.758,1.758,0,0,1,.116-.448c.048,0-.053.654-.09,1.709a15.734,15.734,0,0,0,1.847,7.914C301.317,290.966,301.7,291.5,301.66,291.531Z" transform="translate(-178.475 -186.581)" fill="#263238"/><path d="M169.82,253.4a.913.913,0,0,1-.2.042,4.921,4.921,0,0,1-.575.058,8.711,8.711,0,0,1-2.11-.169,15.033,15.033,0,0,1-3-.939c-1.092-.454-2.253-1.055-3.466-1.641a26.074,26.074,0,0,0-3.519-1.456,11.94,11.94,0,0,0-3.028-.6,9.823,9.823,0,0,0-2.833.322.644.644,0,0,1,.185-.084,3.691,3.691,0,0,1,.528-.185,7.239,7.239,0,0,1,2.11-.243,11.507,11.507,0,0,1,3.1.528,24.091,24.091,0,0,1,3.556,1.467c1.219.6,2.369,1.192,3.445,1.651a16.129,16.129,0,0,0,2.944.981A13.122,13.122,0,0,0,169.82,253.4Z" transform="translate(-108.723 -171.498)" fill="#fafafa"/><path d="M193.388,255.35a18.819,18.819,0,0,1-3.1.665,17.731,17.731,0,0,1-3.166.4,18.822,18.822,0,0,1,3.1-.665,17.689,17.689,0,0,1,3.166-.4Z" transform="translate(-125.744 -174.733)" fill="#fafafa"/><path d="M167.717,276.81a4.03,4.03,0,0,1-.765.332c-.5.2-1.235.459-2.147.754a55.358,55.358,0,0,1-7.292,1.8c-1.446.253-2.833.438-4.1.565a16.634,16.634,0,0,1-3.387.09,5.8,5.8,0,0,1-2.195-.628,3.477,3.477,0,0,1-.528-.338.823.823,0,0,1-.164-.148,7,7,0,0,0,.733.39,6.052,6.052,0,0,0,2.168.528,17.447,17.447,0,0,0,3.34-.148c1.261-.142,2.638-.332,4.078-.586a67.086,67.086,0,0,0,7.281-1.715c.918-.274,1.657-.528,2.168-.67A5.678,5.678,0,0,1,167.717,276.81Z" transform="translate(-106.857 -184.87)" fill="#fafafa"/><path d="M193.521,281.973a30.225,30.225,0,0,1-5.751.095,30.211,30.211,0,0,1,5.751-.095Z" transform="translate(-126.051 -187.252)" fill="#fafafa"/><path d="M147.21,312.094a1.056,1.056,0,0,1,.058-.285c.053-.211.127-.47.211-.791l.158-.57c.069-.206.158-.422.243-.66a16.03,16.03,0,0,1,.654-1.583l.427-.9c.153-.317.348-.623.528-.95a23.289,23.289,0,0,1,1.3-2.01A24.043,24.043,0,0,1,159,297.194a23.035,23.035,0,0,1,2.174-1.008c.354-.132.681-.285,1.013-.39l.955-.3a14.987,14.987,0,0,1,1.667-.427c.248-.053.475-.111.686-.148l.591-.079.813-.1a.971.971,0,0,1,.285,0,1.155,1.155,0,0,1-.28.069l-.8.153-.58.1-.681.169a16.392,16.392,0,0,0-1.641.464l-.939.317c-.327.111-.654.264-1,.4a23.536,23.536,0,0,0-2.142,1.018,26.876,26.876,0,0,0-4.458,3.092,27.163,27.163,0,0,0-3.693,3.983c-.475.686-.944,1.33-1.3,1.979-.185.322-.38.623-.528.934l-.443.886a15.821,15.821,0,0,0-.686,1.583c-.09.232-.185.448-.259.649l-.185.559-.259.776A1.12,1.12,0,0,1,147.21,312.094Z" transform="translate(-106.89 -193.336)" fill="#fafafa"/><path d="M190.1,296.92a9.5,9.5,0,0,0-2.163,2.722,13.117,13.117,0,0,0-1.214,3.582,37.167,37.167,0,0,0-.528,4.638,33.306,33.306,0,0,1-.528,4.669,12.916,12.916,0,0,1-1.324,3.614,7.952,7.952,0,0,1-1.583,2.031,4.469,4.469,0,0,1-.554.438c-.132.09-.206.137-.211.127a9.265,9.265,0,0,0,2.205-2.691,13.148,13.148,0,0,0,1.245-3.567,34.337,34.337,0,0,0,.528-4.638,34.253,34.253,0,0,1,.528-4.675,12.874,12.874,0,0,1,1.287-3.619,8.178,8.178,0,0,1,1.583-2.058,5.278,5.278,0,0,1,.528-.443A.945.945,0,0,1,190.1,296.92Z" transform="translate(-123.325 -194.37)" fill="#fafafa"/><path d="M214.4,320.737c-.074,0,0-4.548.2-10.151s.4-10.146.47-10.146,0,4.548-.2,10.156S214.479,320.742,214.4,320.737Z" transform="translate(-138.62 -196.033)" fill="#fafafa"/><path d="M240.715,322.247a3.482,3.482,0,0,1-.232-.659,8,8,0,0,1-.216-.791c-.069-.311-.164-.665-.222-1.055a18.747,18.747,0,0,1-.28-2.817,19.791,19.791,0,0,1,1.055-6.832,19,19,0,0,1,1.113-2.606c.174-.364.369-.67.528-.944a7,7,0,0,1,.443-.691,3.131,3.131,0,0,1,.417-.559c.047.026-.528.844-1.219,2.285a20.921,20.921,0,0,0-2.11,9.344,21.7,21.7,0,0,0,.216,2.791C240.473,321.282,240.768,322.231,240.715,322.247Z" transform="translate(-150.611 -198.324)" fill="#fafafa"/><path d="M181.521,224.9c0,.042-.834-.322-2.205-.765a25.046,25.046,0,0,0-11.08-.981c-1.425.2-2.3.417-2.306.369a2.364,2.364,0,0,1,.6-.2,15.3,15.3,0,0,1,1.678-.364,22.434,22.434,0,0,1,11.175.987,17.1,17.1,0,0,1,1.583.649A2.581,2.581,0,0,1,181.521,224.9Z" transform="translate(-115.734 -159.293)" fill="#fafafa"/><path d="M262.528,268.561a14.36,14.36,0,0,1-1.957-.032c-1.208-.047-2.875-.111-4.717-.153s-3.509-.069-4.717-.079a14.664,14.664,0,0,1-1.957-.069,2.367,2.367,0,0,1,.528-.063c.338,0,.828-.047,1.435-.063,1.208-.037,2.875-.047,4.722,0s3.514.142,4.748.243c.6.047,1.087.09,1.425.132a2.333,2.333,0,0,1,.491.084Z" transform="translate(-155.061 -180.742)" fill="#fafafa"/><path d="M285.939,265.21c0,.047-.659.274-1.688.781a16.514,16.514,0,0,0-6.6,5.878c-.623.966-.923,1.609-.966,1.583a1.514,1.514,0,0,1,.169-.475,10.756,10.756,0,0,1,.633-1.219,14.653,14.653,0,0,1,2.881-3.487,14.916,14.916,0,0,1,3.793-2.464,11.211,11.211,0,0,1,1.282-.485A1.931,1.931,0,0,1,285.939,265.21Z" transform="translate(-168.056 -179.391)" fill="#fafafa"/><path d="M268.39,233.069a7.856,7.856,0,0,0-2.68.375,18.012,18.012,0,0,0-2.707,1.2,21.938,21.938,0,0,1-3.345,1.5,13.628,13.628,0,0,1-6.611.427,11.865,11.865,0,0,1-1.947-.528,3.5,3.5,0,0,1-.681-.3,27.083,27.083,0,0,0,2.638.633,14.171,14.171,0,0,0,6.495-.5,23.861,23.861,0,0,0,3.319-1.467,16.7,16.7,0,0,1,2.759-1.161,6.215,6.215,0,0,1,2-.29,3.764,3.764,0,0,1,.528.053C268.327,233.043,268.4,233.059,268.39,233.069Z" transform="translate(-155.646 -164.16)" fill="#fafafa"/><path d="M264.548,299.728a2.752,2.752,0,0,1-.612.29c-.2.084-.448.185-.744.28s-.628.222-1,.317a20.572,20.572,0,0,1-2.691.559,21.84,21.84,0,0,1-3.356.174,22.571,22.571,0,0,1-3.34-.375,20.108,20.108,0,0,1-2.638-.723c-.375-.116-.7-.259-.981-.375s-.528-.227-.728-.322a3.167,3.167,0,0,1-.6-.327c0-.048.892.375,2.369.839a22.014,22.014,0,0,0,2.638.654,21.747,21.747,0,0,0,6.616.2,22.157,22.157,0,0,0,2.67-.5C263.641,300.045,264.532,299.68,264.548,299.728Z" transform="translate(-154.437 -195.458)" fill="#fafafa"/><path d="M298.214,307.809a1.078,1.078,0,0,1-.206-.169,6.96,6.96,0,0,1-.528-.528,12.561,12.561,0,0,1-1.667-2.237,18.228,18.228,0,0,1-2.353-8.837,35.567,35.567,0,0,1,1.2-9.112c.285-1.14.528-2.058.723-2.685.09-.29.164-.528.222-.723s.084-.253.095-.248a.88.88,0,0,1-.042.259c-.042.2-.1.443-.169.739-.158.681-.375,1.583-.638,2.707a38.153,38.153,0,0,0-1.1,9.054,18.682,18.682,0,0,0,2.221,8.732,14.056,14.056,0,0,0,1.583,2.263C297.966,307.529,298.23,307.788,298.214,307.809Z" transform="translate(-175.978 -187.922)" fill="#fafafa"/><path d="M321.72,286.911a10.41,10.41,0,0,0-2.791-1.583,22.469,22.469,0,0,0-3.377-.881,37.454,37.454,0,0,1-4.221-.966,17.326,17.326,0,0,1-6.685-4.02,15.933,15.933,0,0,1-1.583-1.778c-.174-.222-.29-.406-.375-.528s-.121-.19-.111-.2a6.662,6.662,0,0,1,.57.654,18.342,18.342,0,0,0,1.63,1.7,17.9,17.9,0,0,0,6.632,3.9,40.535,40.535,0,0,0,4.173.981,21.627,21.627,0,0,1,3.4.944,8.079,8.079,0,0,1,2.079,1.161,4.173,4.173,0,0,1,.485.427C321.678,286.847,321.73,286.905,321.72,286.911Z" transform="translate(-180.285 -184.941)" fill="#fafafa"/><path d="M335.089,255.9a3.945,3.945,0,0,1-.565-.491c-.174-.164-.385-.364-.649-.586s-.528-.485-.886-.739a24.207,24.207,0,0,0-2.448-1.736,24.57,24.57,0,0,0-6.732-2.881,25.351,25.351,0,0,0-2.949-.575c-.422-.069-.807-.095-1.145-.127s-.633-.058-.871-.069a4.267,4.267,0,0,1-.744-.069,3.593,3.593,0,0,1,.744-.037,14.091,14.091,0,0,1,2.042.084,22.871,22.871,0,0,1,2.981.528,25.609,25.609,0,0,1,3.524,1.182,25.044,25.044,0,0,1,3.282,1.731,22.69,22.69,0,0,1,2.443,1.8,10.094,10.094,0,0,1,.865.781,8.438,8.438,0,0,1,.617.623,3.544,3.544,0,0,1,.491.58Z" transform="translate(-187.618 -171.534)" fill="#fafafa"/><path d="M256.257,216.544a3.936,3.936,0,0,1-1,.48,18.16,18.16,0,0,1-2.559.791,18.387,18.387,0,0,1-2.638.422,3.692,3.692,0,0,1-1.108,0c0-.084,1.673-.222,3.693-.7S256.226,216.464,256.257,216.544Z" transform="translate(-154.952 -156.397)" fill="#fafafa"/><path d="M282.232,336.538a1.467,1.467,0,0,1-1.614,1.862h0a1.461,1.461,0,0,1-1.2-1.055l-.448-1.657h.069a1.535,1.535,0,0,1-1.715,1.81h0c-.691,0-1.287-1.008-1.488-1.541h0a2.87,2.87,0,0,1-2.68-1.287l-3.1-4.833-5.735-4.194,3.472-12.393,12.341,7.988c.485.38.559.528,1.33,1.25l7.967,7.328a2.941,2.941,0,0,1-2.923,0c-1.256-.5-6.753-4.221-6.753-4.221l2.48,10.9" transform="translate(-162.213 -202.085)" fill="#ffbe9d"/><path d="M278.259,338.07a2.528,2.528,0,0,1,.364.216l.412.285a2.491,2.491,0,0,1,.528.443,2.3,2.3,0,0,1,.422.712c.095.28.2.565.3.865l.675,1.984c.47,1.414.881,2.691,1.166,3.625a8.916,8.916,0,0,1,.406,1.525,9.022,9.022,0,0,1-.591-1.467c-.332-.918-.776-2.184-1.245-3.593-.227-.7-.448-1.372-.654-1.989-.095-.306-.185-.6-.274-.871a2.241,2.241,0,0,0-.354-.67,2.738,2.738,0,0,0-.454-.443l-.38-.322C278.354,338.191,278.249,338.086,278.259,338.07Z" transform="translate(-168.797 -213.809)" fill="#eb996e"/><path d="M287.578,345.351a2.364,2.364,0,0,1-.174-.528l-.4-1.414c-.338-1.192-.786-2.844-1.361-4.643a16.658,16.658,0,0,0-1.9-4.395,3.815,3.815,0,0,0-1.008-1.008c-.29-.179-.475-.232-.47-.264a.353.353,0,0,1,.142.026,1.887,1.887,0,0,1,.38.142,3.468,3.468,0,0,1,1.113.987,15.338,15.338,0,0,1,2,4.427c.58,1.789,1,3.472,1.287,4.68.142.6.248,1.092.317,1.435a1.855,1.855,0,0,1,.069.554Z" transform="translate(-170.692 -211.462)" fill="#eb996e"/><path d="M293.859,345.308a2.351,2.351,0,0,1-.216-.554c-.132-.422-.3-.934-.491-1.541-.4-1.3-.934-3.108-1.509-5.1s-1.055-3.746-1.451-5.118a2.459,2.459,0,0,0-.844-1.287,3.208,3.208,0,0,0-.528-.274.338.338,0,0,1,.158,0,1.3,1.3,0,0,1,.417.174,2.48,2.48,0,0,1,.965,1.314c.433,1.3.944,3.108,1.53,5.1s1.082,3.815,1.435,5.128c.158.612.3,1.134.4,1.583A2.824,2.824,0,0,1,293.859,345.308Z" transform="translate(-173.786 -210.669)" fill="#eb996e"/></g><g transform="translate(211.432 95.287)"><path d="M440.47,139.237a1.847,1.847,0,1,0,1.847-1.847A1.847,1.847,0,0,0,440.47,139.237Z" transform="translate(-413.054 -117.648)" fill="#455a64"/><circle cx="1.847" cy="1.847" r="1.847" transform="translate(20.025 19.742)" fill="#455a64"/><path d="M412.268,138.312a1.841,1.841,0,1,0,1.121-.862A1.847,1.847,0,0,0,412.268,138.312Z" transform="translate(-399.614 -117.647)" fill="#455a64"/><path d="M410.261,99.987a2.466,2.466,0,0,0-.369,0l-1.1.032a6.3,6.3,0,0,0-.812.037l-.966.137-1.129.164-1.266.311a20.4,20.4,0,0,0-6.115,2.638,21.632,21.632,0,0,0-9.919,16.229,23,23,0,0,0-.058,2.96c.037.5.026,1.008.1,1.509s.153,1.013.227,1.525a21.708,21.708,0,0,0,2.058,6.02,23.158,23.158,0,0,0,3.931,5.413,22.686,22.686,0,0,0,5.666,4.068,20.577,20.577,0,0,0,6.906,2.11,14.207,14.207,0,0,0,1.841.153,16.833,16.833,0,0,0,1.862.037,22.342,22.342,0,0,0,3.725-.47,21.838,21.838,0,0,0,7.423-3.129l-.222.026,7.561,3.034.448.179-.127-.464-2.227-8.083-.037.2a21.669,21.669,0,0,0,4.036-9.233,19.753,19.753,0,0,0,.3-4.748,16.047,16.047,0,0,0-.216-2.274q-.084-.559-.174-1.108c-.063-.364-.174-.718-.264-1.055a21.632,21.632,0,0,0-8.442-12.3,20.72,20.72,0,0,0-5.018-2.638l-1.134-.406-1.055-.274-.981-.243c-.317-.058-.623-.09-.907-.137-.57-.069-1.055-.169-1.514-.19l-1.108-.037H410.5a1.583,1.583,0,0,0-.232,0,.681.681,0,0,0,.232.032l.675.058,1.1.074c.438.032.934.142,1.5.227a21.516,21.516,0,0,1,17.189,15.976c.079.348.19.7.253,1.055s.106.718.164,1.087a15.463,15.463,0,0,1,.2,2.232,19.519,19.519,0,0,1-.306,4.638,21.373,21.373,0,0,1-4,9.022l-.069.09.032.111q1.055,3.915,2.205,8.088l.322-.285-7.561-3.044-.116-.047-.111.069a21.215,21.215,0,0,1-10.9,3.514,17.41,17.41,0,0,1-1.82-.032,13.564,13.564,0,0,1-1.8-.153,20.16,20.16,0,0,1-6.753-2.063,22.419,22.419,0,0,1-5.55-3.973,22.75,22.75,0,0,1-3.862-5.276,21.421,21.421,0,0,1-2-5.9c-.079-.528-.158-1-.232-1.493s-.063-.992-.1-1.483a22.125,22.125,0,0,1,.042-2.9,21.363,21.363,0,0,1,9.66-16.034,20.577,20.577,0,0,1,6.02-2.712l1.245-.332,1.118-.185.96-.158c.3-.032.565-.042.8-.058l1.092-.079A1.725,1.725,0,0,0,410.261,99.987Z" transform="translate(-388.506 -99.972)" fill="#455a64"/></g></g></g></svg>