<svg xmlns="http://www.w3.org/2000/svg" xmlns:xlink="http://www.w3.org/1999/xlink" width="820" height="402.039" viewBox="0 0 820 402.039"><defs><clipPath id="a"><rect width="820" height="402" rx="20" fill="#edffd5" opacity="0.5"/></clipPath><clipPath id="b"><ellipse cx="311.732" cy="311.732" rx="311.732" ry="311.732" transform="translate(0 1.804) rotate(-0.166)" fill="none"/></clipPath></defs><g transform="translate(-3057.311 16180)"><path d="M15.922,0H804.078A15.922,15.922,0,0,1,820,15.922V386.117a15.922,15.922,0,0,1-15.922,15.922H15.922A15.922,15.922,0,0,1,0,386.117V15.922A15.922,15.922,0,0,1,15.922,0Z" transform="translate(3057.311 -16180)" fill="#edffd5" opacity="0.5"/><g transform="translate(3057.311 -16180)" opacity="0.499" clip-path="url(#a)"><g transform="translate(-332.338 -321.944)" clip-path="url(#b)" style="isolation:isolate"><g transform="translate(-228.66 -176.788)" style="isolation:isolate"><line x1="592.457" y2="592.461" transform="translate(490.129 490.127)" fill="none" stroke="#a9f73f" stroke-miterlimit="10" stroke-width="2"/><line x1="592.457" y2="592.461" transform="translate(484.078 484.076)" fill="none" stroke="#a9f73f" stroke-miterlimit="10" stroke-width="2"/><line x1="592.457" y2="592.461" transform="translate(478.027 478.025)" fill="none" stroke="#a9f73f" stroke-miterlimit="10" stroke-width="2"/><line x1="592.457" y2="592.461" transform="translate(471.976 471.974)" fill="none" stroke="#a9f73f" stroke-miterlimit="10" stroke-width="2"/><line x1="592.457" y2="592.461" transform="translate(465.925 465.923)" fill="none" stroke="#a9f73f" stroke-miterlimit="10" stroke-width="2"/><line x1="592.457" y2="592.461" transform="translate(459.874 459.872)" fill="none" stroke="#a9f73f" stroke-miterlimit="10" stroke-width="2"/><line x1="592.457" y2="592.461" transform="translate(453.823 453.821)" fill="none" stroke="#a9f73f" stroke-miterlimit="10" stroke-width="2"/><line x1="592.457" y2="592.46" transform="translate(447.772 447.77)" fill="none" stroke="#a9f73f" stroke-miterlimit="10" stroke-width="2"/><line x1="592.457" y2="592.46" transform="translate(441.721 441.719)" fill="none" stroke="#a9f73f" stroke-miterlimit="10" stroke-width="2"/><line x1="592.457" y2="592.46" transform="translate(435.67 435.668)" fill="none" stroke="#a9f73f" stroke-miterlimit="10" stroke-width="2"/><line x1="592.457" y2="592.46" transform="translate(429.619 429.617)" fill="none" stroke="#a9f73f" stroke-miterlimit="10" stroke-width="2"/><line x1="592.457" y2="592.46" transform="translate(423.568 423.567)" fill="none" stroke="#a9f73f" stroke-miterlimit="10" stroke-width="2"/><line x1="592.457" y2="592.46" transform="translate(417.518 417.516)" fill="none" stroke="#a9f73f" stroke-miterlimit="10" stroke-width="2"/><line x1="592.457" y2="592.46" transform="translate(411.466 411.465)" fill="none" stroke="#a9f73f" stroke-miterlimit="10" stroke-width="2"/><line x1="592.457" y2="592.46" transform="translate(405.416 405.414)" fill="none" stroke="#a9f73f" stroke-miterlimit="10" stroke-width="2"/><line x1="592.457" y2="592.46" transform="translate(399.365 399.363)" fill="none" stroke="#a9f73f" stroke-miterlimit="10" stroke-width="2"/><line x1="592.457" y2="592.46" transform="translate(393.314 393.312)" fill="none" stroke="#a9f73f" stroke-miterlimit="10" stroke-width="2"/><line x1="592.457" y2="592.46" transform="translate(387.263 387.261)" fill="none" stroke="#a9f73f" stroke-miterlimit="10" stroke-width="2"/><line x1="592.457" y2="592.46" transform="translate(381.212 381.21)" fill="none" stroke="#a9f73f" stroke-miterlimit="10" stroke-width="2"/><line x1="592.457" y2="592.46" transform="translate(375.161 375.159)" fill="none" stroke="#a9f73f" stroke-miterlimit="10" stroke-width="2"/><line x1="592.457" y2="592.46" transform="translate(369.11 369.108)" fill="none" stroke="#a9f73f" stroke-miterlimit="10" stroke-width="2"/><line x1="592.457" y2="592.46" transform="translate(363.059 363.057)" fill="none" stroke="#a9f73f" stroke-miterlimit="10" stroke-width="2"/><line x1="592.457" y2="592.46" transform="translate(357.008 357.006)" fill="none" stroke="#a9f73f" stroke-miterlimit="10" stroke-width="2"/><line x1="592.457" y2="592.46" transform="translate(350.957 350.955)" fill="none" stroke="#a9f73f" stroke-miterlimit="10" stroke-width="2"/><line x1="592.457" y2="592.46" transform="translate(344.906 344.904)" fill="none" stroke="#a9f73f" stroke-miterlimit="10" stroke-width="2"/><line x1="592.457" y2="592.46" transform="translate(338.855 338.853)" fill="none" stroke="#a9f73f" stroke-miterlimit="10" stroke-width="2"/><line x1="592.457" y2="592.46" transform="translate(332.804 332.802)" fill="none" stroke="#a9f73f" stroke-miterlimit="10" stroke-width="2"/><line x1="592.457" y2="592.46" transform="translate(326.753 326.751)" fill="none" stroke="#a9f73f" stroke-miterlimit="10" stroke-width="2"/><line x1="592.457" y2="592.459" transform="translate(320.702 320.7)" fill="none" stroke="#a9f73f" stroke-miterlimit="10" stroke-width="2"/><line x1="592.457" y2="592.459" transform="translate(314.651 314.649)" fill="none" stroke="#a9f73f" stroke-miterlimit="10" stroke-width="2"/><line x1="592.457" y2="592.459" transform="translate(308.6 308.598)" fill="none" stroke="#a9f73f" stroke-miterlimit="10" stroke-width="2"/><line x1="592.457" y2="592.459" transform="translate(302.549 302.547)" fill="none" stroke="#a9f73f" stroke-miterlimit="10" stroke-width="2"/><line x1="592.457" y2="592.459" transform="translate(296.498 296.497)" fill="none" stroke="#a9f73f" stroke-miterlimit="10" stroke-width="2"/><line x1="592.456" y2="592.459" transform="translate(290.447 290.446)" fill="none" stroke="#a9f73f" stroke-miterlimit="10" stroke-width="2"/><line x1="592.456" y2="592.459" transform="translate(284.396 284.395)" fill="none" stroke="#a9f73f" stroke-miterlimit="10" stroke-width="2"/><line x1="592.456" y2="592.459" transform="translate(278.345 278.344)" fill="none" stroke="#a9f73f" stroke-miterlimit="10" stroke-width="2"/><line x1="592.456" y2="592.459" transform="translate(272.294 272.293)" fill="none" stroke="#a9f73f" stroke-miterlimit="10" stroke-width="2"/><line x1="592.456" y2="592.459" transform="translate(266.243 266.242)" fill="none" stroke="#a9f73f" stroke-miterlimit="10" stroke-width="2"/><line x1="592.456" y2="592.459" transform="translate(260.192 260.191)" fill="none" stroke="#a9f73f" stroke-miterlimit="10" stroke-width="2"/><line x1="592.456" y2="592.459" transform="translate(254.141 254.14)" fill="none" stroke="#a9f73f" stroke-miterlimit="10" stroke-width="2"/><line x1="592.456" y2="592.459" transform="translate(248.09 248.089)" fill="none" stroke="#a9f73f" stroke-miterlimit="10" stroke-width="2"/><line x1="592.456" y2="592.459" transform="translate(242.039 242.038)" fill="none" stroke="#a9f73f" stroke-miterlimit="10" stroke-width="2"/><line x1="592.456" y2="592.459" transform="translate(235.988 235.987)" fill="none" stroke="#a9f73f" stroke-miterlimit="10" stroke-width="2"/><line x1="592.456" y2="592.459" transform="translate(229.937 229.936)" fill="none" stroke="#a9f73f" stroke-miterlimit="10" stroke-width="2"/><line x1="592.456" y2="592.459" transform="translate(223.886 223.885)" fill="none" stroke="#a9f73f" stroke-miterlimit="10" stroke-width="2"/><line x1="592.456" y2="592.459" transform="translate(217.835 217.834)" fill="none" stroke="#a9f73f" stroke-miterlimit="10" stroke-width="2"/><line x1="592.456" y2="592.459" transform="translate(211.784 211.783)" fill="none" stroke="#a9f73f" stroke-miterlimit="10" stroke-width="2"/><line x1="592.456" y2="592.459" transform="translate(205.733 205.732)" fill="none" stroke="#a9f73f" stroke-miterlimit="10" stroke-width="2"/><line x1="592.456" y2="592.459" transform="translate(199.682 199.681)" fill="none" stroke="#a9f73f" stroke-miterlimit="10" stroke-width="2"/><line x1="592.456" y2="592.458" transform="translate(193.631 193.63)" fill="none" stroke="#a9f73f" stroke-miterlimit="10" stroke-width="2"/><line x1="592.456" y2="592.458" transform="translate(187.58 187.579)" fill="none" stroke="#a9f73f" stroke-miterlimit="10" stroke-width="2"/><line x1="592.456" y2="592.458" transform="translate(181.529 181.529)" fill="none" stroke="#a9f73f" stroke-miterlimit="10" stroke-width="2"/><line x1="592.456" y2="592.458" transform="translate(175.478 175.477)" fill="none" stroke="#a9f73f" stroke-miterlimit="10" stroke-width="2"/><line x1="592.456" y2="592.458" transform="translate(169.427 169.427)" fill="none" stroke="#a9f73f" stroke-miterlimit="10" stroke-width="2"/><line x1="592.456" y2="592.458" transform="translate(163.376 163.376)" fill="none" stroke="#a9f73f" stroke-miterlimit="10" stroke-width="2"/><line x1="592.456" y2="592.458" transform="translate(157.325 157.325)" fill="none" stroke="#a9f73f" stroke-miterlimit="10" stroke-width="2"/><line x1="592.456" y2="592.458" transform="translate(151.274 151.274)" fill="none" stroke="#a9f73f" stroke-miterlimit="10" stroke-width="2"/><line x1="592.456" y2="592.458" transform="translate(145.223 145.223)" fill="none" stroke="#a9f73f" stroke-miterlimit="10" stroke-width="2"/><line x1="592.456" y2="592.458" transform="translate(139.172 139.172)" fill="none" stroke="#a9f73f" stroke-miterlimit="10" stroke-width="2"/><line x1="592.456" y2="592.458" transform="translate(133.122 133.121)" fill="none" stroke="#a9f73f" stroke-miterlimit="10" stroke-width="2"/><line x1="592.456" y2="592.458" transform="translate(127.071 127.07)" fill="none" stroke="#a9f73f" stroke-miterlimit="10" stroke-width="2"/><line x1="592.456" y2="592.458" transform="translate(121.02 121.019)" fill="none" stroke="#a9f73f" stroke-miterlimit="10" stroke-width="2"/><line x1="592.456" y2="592.458" transform="translate(114.969 114.968)" fill="none" stroke="#a9f73f" stroke-miterlimit="10" stroke-width="2"/><line x1="592.456" y2="592.458" transform="translate(108.918 108.917)" fill="none" stroke="#a9f73f" stroke-miterlimit="10" stroke-width="2"/><line x1="592.456" y2="592.458" transform="translate(102.867 102.866)" fill="none" stroke="#a9f73f" stroke-miterlimit="10" stroke-width="2"/><line x1="592.456" y2="592.458" transform="translate(96.816 96.815)" fill="none" stroke="#a9f73f" stroke-miterlimit="10" stroke-width="2"/><line x1="592.456" y2="592.458" transform="translate(90.765 90.764)" fill="none" stroke="#a9f73f" stroke-miterlimit="10" stroke-width="2"/><line x1="592.456" y2="592.458" transform="translate(84.714 84.713)" fill="none" stroke="#a9f73f" stroke-miterlimit="10" stroke-width="2"/><line x1="592.456" y2="592.458" transform="translate(78.663 78.662)" fill="none" stroke="#a9f73f" stroke-miterlimit="10" stroke-width="2"/><line x1="592.456" y2="592.458" transform="translate(72.612 72.611)" fill="none" stroke="#a9f73f" stroke-miterlimit="10" stroke-width="2"/><line x1="592.456" y2="592.457" transform="translate(66.561 66.56)" fill="none" stroke="#a9f73f" stroke-miterlimit="10" stroke-width="2"/><line x1="592.456" y2="592.457" transform="translate(60.51 60.509)" fill="none" stroke="#a9f73f" stroke-miterlimit="10" stroke-width="2"/><line x1="592.456" y2="592.457" transform="translate(54.459 54.459)" fill="none" stroke="#a9f73f" stroke-miterlimit="10" stroke-width="2"/><line x1="592.456" y2="592.457" transform="translate(48.408 48.408)" fill="none" stroke="#a9f73f" stroke-miterlimit="10" stroke-width="2"/><line x1="592.456" y2="592.457" transform="translate(42.357 42.357)" fill="none" stroke="#a9f73f" stroke-miterlimit="10" stroke-width="2"/><line x1="592.456" y2="592.457" transform="translate(36.306 36.306)" fill="none" stroke="#a9f73f" stroke-miterlimit="10" stroke-width="2"/><line x1="592.456" y2="592.457" transform="translate(30.255 30.255)" fill="none" stroke="#a9f73f" stroke-miterlimit="10" stroke-width="2"/><line x1="592.456" y2="592.457" transform="translate(24.204 24.204)" fill="none" stroke="#a9f73f" stroke-miterlimit="10" stroke-width="2"/><line x1="592.456" y2="592.457" transform="translate(18.153 18.153)" fill="none" stroke="#a9f73f" stroke-miterlimit="10" stroke-width="2"/><line x1="592.456" y2="592.457" transform="translate(12.102 12.102)" fill="none" stroke="#a9f73f" stroke-miterlimit="10" stroke-width="2"/><line x1="592.456" y2="592.457" transform="translate(6.051 6.051)" fill="none" stroke="#a9f73f" stroke-miterlimit="10" stroke-width="2"/><line x1="592.456" y2="592.457" fill="none" stroke="#a9f73f" stroke-miterlimit="10" stroke-width="2"/></g></g><path d="M-508.833,153.273a93.82,93.82,0,0,1-108.9-75.785,93.821,93.821,0,0,1,75.788-108.9,93.814,93.814,0,0,1,108.9,75.785A93.816,93.816,0,0,1-508.833,153.273ZM-539.249-16.358a78.517,78.517,0,0,0-63.427,91.143,78.517,78.517,0,0,0,91.143,63.427,78.52,78.52,0,0,0,63.427-91.143A78.522,78.522,0,0,0-539.249-16.358Z" transform="translate(1323.469 325.309)" fill="#a9f73f" opacity="0.498"/><g transform="translate(776.818 -9.312)"><path d="M-846.96,212.484a1.606,1.606,0,0,1,1.607,1.607,1.607,1.607,0,0,1-1.607,1.607,1.606,1.606,0,0,1-1.605-1.607A1.605,1.605,0,0,1-846.96,212.484Z" transform="translate(848.565 -212.484)" fill="#a9f73f" fill-rule="evenodd"/><path d="M-840.4,212.484a1.605,1.605,0,0,1,1.605,1.607A1.606,1.606,0,0,1-840.4,215.7a1.607,1.607,0,0,1-1.607-1.607A1.606,1.606,0,0,1-840.4,212.484Z" transform="translate(852.817 -212.484)" fill="#a9f73f" fill-rule="evenodd"/><path d="M-833.838,212.484a1.605,1.605,0,0,1,1.605,1.607,1.606,1.606,0,0,1-1.605,1.607,1.607,1.607,0,0,1-1.607-1.607A1.606,1.606,0,0,1-833.838,212.484Z" transform="translate(857.068 -212.484)" fill="#a9f73f" fill-rule="evenodd"/><path d="M-827.278,212.484a1.607,1.607,0,0,1,1.607,1.607,1.608,1.608,0,0,1-1.607,1.607,1.607,1.607,0,0,1-1.607-1.607A1.606,1.606,0,0,1-827.278,212.484Z" transform="translate(861.32 -212.484)" fill="#a9f73f" fill-rule="evenodd"/><path d="M-820.718,212.484a1.607,1.607,0,0,1,1.607,1.607,1.608,1.608,0,0,1-1.607,1.607,1.608,1.608,0,0,1-1.607-1.607A1.607,1.607,0,0,1-820.718,212.484Z" transform="translate(865.571 -212.484)" fill="#a9f73f" fill-rule="evenodd"/><path d="M-814.158,212.484a1.607,1.607,0,0,1,1.607,1.607,1.608,1.608,0,0,1-1.607,1.607,1.608,1.608,0,0,1-1.607-1.607A1.607,1.607,0,0,1-814.158,212.484Z" transform="translate(869.823 -212.484)" fill="#a9f73f" fill-rule="evenodd"/><path d="M-846.96,218.931a1.606,1.606,0,0,1,1.607,1.607,1.607,1.607,0,0,1-1.607,1.607,1.606,1.606,0,0,1-1.605-1.607A1.605,1.605,0,0,1-846.96,218.931Z" transform="translate(848.565 -208.306)" fill="#a9f73f" fill-rule="evenodd"/><path d="M-840.4,218.931a1.605,1.605,0,0,1,1.605,1.607,1.606,1.606,0,0,1-1.605,1.607,1.607,1.607,0,0,1-1.607-1.607A1.606,1.606,0,0,1-840.4,218.931Z" transform="translate(852.817 -208.306)" fill="#a9f73f" fill-rule="evenodd"/><path d="M-833.838,218.931a1.605,1.605,0,0,1,1.605,1.607,1.606,1.606,0,0,1-1.605,1.607,1.607,1.607,0,0,1-1.607-1.607A1.606,1.606,0,0,1-833.838,218.931Z" transform="translate(857.068 -208.306)" fill="#a9f73f" fill-rule="evenodd"/><path d="M-827.278,218.931a1.607,1.607,0,0,1,1.607,1.607,1.608,1.608,0,0,1-1.607,1.607,1.607,1.607,0,0,1-1.607-1.607A1.606,1.606,0,0,1-827.278,218.931Z" transform="translate(861.32 -208.306)" fill="#a9f73f" fill-rule="evenodd"/><path d="M-820.718,218.931a1.607,1.607,0,0,1,1.607,1.607,1.608,1.608,0,0,1-1.607,1.607,1.608,1.608,0,0,1-1.607-1.607A1.607,1.607,0,0,1-820.718,218.931Z" transform="translate(865.571 -208.306)" fill="#a9f73f" fill-rule="evenodd"/><path d="M-814.158,218.931a1.607,1.607,0,0,1,1.607,1.607,1.608,1.608,0,0,1-1.607,1.607,1.608,1.608,0,0,1-1.607-1.607A1.607,1.607,0,0,1-814.158,218.931Z" transform="translate(869.823 -208.306)" fill="#a9f73f" fill-rule="evenodd"/><path d="M-846.96,225.378a1.606,1.606,0,0,1,1.607,1.607,1.605,1.605,0,0,1-1.607,1.605,1.605,1.605,0,0,1-1.605-1.605A1.605,1.605,0,0,1-846.96,225.378Z" transform="translate(848.565 -204.127)" fill="#a9f73f" fill-rule="evenodd"/><path d="M-840.4,225.378a1.605,1.605,0,0,1,1.605,1.607,1.605,1.605,0,0,1-1.605,1.605,1.605,1.605,0,0,1-1.607-1.605A1.606,1.606,0,0,1-840.4,225.378Z" transform="translate(852.817 -204.127)" fill="#a9f73f" fill-rule="evenodd"/><path d="M-833.838,225.378a1.605,1.605,0,0,1,1.605,1.607,1.6,1.6,0,0,1-1.605,1.605,1.606,1.606,0,0,1-1.607-1.605A1.606,1.606,0,0,1-833.838,225.378Z" transform="translate(857.068 -204.127)" fill="#a9f73f" fill-rule="evenodd"/><path d="M-827.278,225.378a1.607,1.607,0,0,1,1.607,1.607,1.606,1.606,0,0,1-1.607,1.605,1.605,1.605,0,0,1-1.607-1.605A1.606,1.606,0,0,1-827.278,225.378Z" transform="translate(861.32 -204.127)" fill="#a9f73f" fill-rule="evenodd"/><path d="M-820.718,225.378a1.607,1.607,0,0,1,1.607,1.607,1.606,1.606,0,0,1-1.607,1.605,1.607,1.607,0,0,1-1.607-1.605A1.607,1.607,0,0,1-820.718,225.378Z" transform="translate(865.571 -204.127)" fill="#a9f73f" fill-rule="evenodd"/><path d="M-814.158,225.378a1.607,1.607,0,0,1,1.607,1.607,1.606,1.606,0,0,1-1.607,1.605,1.606,1.606,0,0,1-1.607-1.605A1.607,1.607,0,0,1-814.158,225.378Z" transform="translate(869.823 -204.127)" fill="#a9f73f" fill-rule="evenodd"/><path d="M-846.96,231.825a1.605,1.605,0,0,1,1.607,1.605,1.606,1.606,0,0,1-1.607,1.607,1.605,1.605,0,0,1-1.605-1.607A1.605,1.605,0,0,1-846.96,231.825Z" transform="translate(848.565 -199.949)" fill="#a9f73f" fill-rule="evenodd"/><path d="M-840.4,231.825a1.605,1.605,0,0,1,1.605,1.605,1.605,1.605,0,0,1-1.605,1.607,1.606,1.606,0,0,1-1.607-1.607A1.605,1.605,0,0,1-840.4,231.825Z" transform="translate(852.817 -199.949)" fill="#a9f73f" fill-rule="evenodd"/><path d="M-833.838,231.825a1.6,1.6,0,0,1,1.605,1.605,1.605,1.605,0,0,1-1.605,1.607,1.606,1.606,0,0,1-1.607-1.607A1.606,1.606,0,0,1-833.838,231.825Z" transform="translate(857.068 -199.949)" fill="#a9f73f" fill-rule="evenodd"/><path d="M-827.278,231.825a1.606,1.606,0,0,1,1.607,1.605,1.607,1.607,0,0,1-1.607,1.607,1.606,1.606,0,0,1-1.607-1.607A1.605,1.605,0,0,1-827.278,231.825Z" transform="translate(861.32 -199.949)" fill="#a9f73f" fill-rule="evenodd"/><path d="M-820.718,231.825a1.606,1.606,0,0,1,1.607,1.605,1.607,1.607,0,0,1-1.607,1.607,1.607,1.607,0,0,1-1.607-1.607A1.607,1.607,0,0,1-820.718,231.825Z" transform="translate(865.571 -199.949)" fill="#a9f73f" fill-rule="evenodd"/><path d="M-814.158,231.825a1.606,1.606,0,0,1,1.607,1.605,1.607,1.607,0,0,1-1.607,1.607,1.607,1.607,0,0,1-1.607-1.607A1.607,1.607,0,0,1-814.158,231.825Z" transform="translate(869.823 -199.949)" fill="#a9f73f" fill-rule="evenodd"/><path d="M-846.96,238.272a1.606,1.606,0,0,1,1.607,1.607,1.605,1.605,0,0,1-1.607,1.605,1.605,1.605,0,0,1-1.605-1.605A1.605,1.605,0,0,1-846.96,238.272Z" transform="translate(848.565 -195.771)" fill="#a9f73f" fill-rule="evenodd"/><path d="M-840.4,238.272a1.605,1.605,0,0,1,1.605,1.607,1.605,1.605,0,0,1-1.605,1.605,1.605,1.605,0,0,1-1.607-1.605A1.606,1.606,0,0,1-840.4,238.272Z" transform="translate(852.817 -195.771)" fill="#a9f73f" fill-rule="evenodd"/><path d="M-833.838,238.272a1.605,1.605,0,0,1,1.605,1.607,1.6,1.6,0,0,1-1.605,1.605,1.606,1.606,0,0,1-1.607-1.605A1.606,1.606,0,0,1-833.838,238.272Z" transform="translate(857.068 -195.771)" fill="#a9f73f" fill-rule="evenodd"/><path d="M-827.278,238.272a1.607,1.607,0,0,1,1.607,1.607,1.606,1.606,0,0,1-1.607,1.605,1.605,1.605,0,0,1-1.607-1.605A1.606,1.606,0,0,1-827.278,238.272Z" transform="translate(861.32 -195.771)" fill="#a9f73f" fill-rule="evenodd"/><path d="M-820.718,238.272a1.607,1.607,0,0,1,1.607,1.607,1.606,1.606,0,0,1-1.607,1.605,1.607,1.607,0,0,1-1.607-1.605A1.607,1.607,0,0,1-820.718,238.272Z" transform="translate(865.571 -195.771)" fill="#a9f73f" fill-rule="evenodd"/><path d="M-814.158,238.272a1.607,1.607,0,0,1,1.607,1.607,1.606,1.606,0,0,1-1.607,1.605,1.607,1.607,0,0,1-1.607-1.605A1.607,1.607,0,0,1-814.158,238.272Z" transform="translate(869.823 -195.771)" fill="#a9f73f" fill-rule="evenodd"/><path d="M-846.96,244.719a1.605,1.605,0,0,1,1.607,1.605,1.606,1.606,0,0,1-1.607,1.607,1.605,1.605,0,0,1-1.605-1.607A1.605,1.605,0,0,1-846.96,244.719Z" transform="translate(848.565 -191.593)" fill="#a9f73f" fill-rule="evenodd"/><path d="M-840.4,244.719a1.605,1.605,0,0,1,1.605,1.605,1.605,1.605,0,0,1-1.605,1.607,1.606,1.606,0,0,1-1.607-1.607A1.605,1.605,0,0,1-840.4,244.719Z" transform="translate(852.817 -191.593)" fill="#a9f73f" fill-rule="evenodd"/><path d="M-833.838,244.719a1.6,1.6,0,0,1,1.605,1.605,1.605,1.605,0,0,1-1.605,1.607,1.606,1.606,0,0,1-1.607-1.607A1.606,1.606,0,0,1-833.838,244.719Z" transform="translate(857.068 -191.593)" fill="#a9f73f" fill-rule="evenodd"/><path d="M-827.278,244.719a1.606,1.606,0,0,1,1.607,1.605,1.607,1.607,0,0,1-1.607,1.607,1.606,1.606,0,0,1-1.607-1.607A1.605,1.605,0,0,1-827.278,244.719Z" transform="translate(861.32 -191.593)" fill="#a9f73f" fill-rule="evenodd"/><path d="M-820.718,244.719a1.606,1.606,0,0,1,1.607,1.605,1.607,1.607,0,0,1-1.607,1.607,1.607,1.607,0,0,1-1.607-1.607A1.607,1.607,0,0,1-820.718,244.719Z" transform="translate(865.571 -191.593)" fill="#a9f73f" fill-rule="evenodd"/><path d="M-814.158,244.719a1.606,1.606,0,0,1,1.607,1.605,1.607,1.607,0,0,1-1.607,1.607,1.607,1.607,0,0,1-1.607-1.607A1.606,1.606,0,0,1-814.158,244.719Z" transform="translate(869.823 -191.593)" fill="#a9f73f" fill-rule="evenodd"/><path d="M-846.96,251.165a1.607,1.607,0,0,1,1.607,1.607,1.606,1.606,0,0,1-1.607,1.607,1.605,1.605,0,0,1-1.605-1.607A1.606,1.606,0,0,1-846.96,251.165Z" transform="translate(848.565 -187.415)" fill="#a9f73f" fill-rule="evenodd"/><path d="M-840.4,251.165a1.606,1.606,0,0,1,1.605,1.607,1.605,1.605,0,0,1-1.605,1.607,1.606,1.606,0,0,1-1.607-1.607A1.607,1.607,0,0,1-840.4,251.165Z" transform="translate(852.817 -187.415)" fill="#a9f73f" fill-rule="evenodd"/><path d="M-833.838,251.165a1.606,1.606,0,0,1,1.605,1.607,1.605,1.605,0,0,1-1.605,1.607,1.606,1.606,0,0,1-1.607-1.607A1.607,1.607,0,0,1-833.838,251.165Z" transform="translate(857.068 -187.415)" fill="#a9f73f" fill-rule="evenodd"/><path d="M-827.278,251.165a1.608,1.608,0,0,1,1.607,1.607,1.607,1.607,0,0,1-1.607,1.607,1.606,1.606,0,0,1-1.607-1.607A1.607,1.607,0,0,1-827.278,251.165Z" transform="translate(861.32 -187.415)" fill="#a9f73f" fill-rule="evenodd"/><path d="M-820.718,251.165a1.608,1.608,0,0,1,1.607,1.607,1.607,1.607,0,0,1-1.607,1.607,1.607,1.607,0,0,1-1.607-1.607A1.608,1.608,0,0,1-820.718,251.165Z" transform="translate(865.571 -187.415)" fill="#a9f73f" fill-rule="evenodd"/><path d="M-814.158,251.165a1.608,1.608,0,0,1,1.607,1.607,1.607,1.607,0,0,1-1.607,1.607,1.607,1.607,0,0,1-1.607-1.607A1.608,1.608,0,0,1-814.158,251.165Z" transform="translate(869.823 -187.415)" fill="#a9f73f" fill-rule="evenodd"/><path d="M-846.96,257.612a1.607,1.607,0,0,1,1.607,1.607,1.606,1.606,0,0,1-1.607,1.607,1.605,1.605,0,0,1-1.605-1.607A1.606,1.606,0,0,1-846.96,257.612Z" transform="translate(848.565 -183.237)" fill="#a9f73f" fill-rule="evenodd"/><path d="M-840.4,257.612a1.606,1.606,0,0,1,1.605,1.607,1.605,1.605,0,0,1-1.605,1.607,1.606,1.606,0,0,1-1.607-1.607A1.607,1.607,0,0,1-840.4,257.612Z" transform="translate(852.817 -183.237)" fill="#a9f73f" fill-rule="evenodd"/><path d="M-833.838,257.612a1.606,1.606,0,0,1,1.605,1.607,1.605,1.605,0,0,1-1.605,1.607,1.606,1.606,0,0,1-1.607-1.607A1.607,1.607,0,0,1-833.838,257.612Z" transform="translate(857.068 -183.237)" fill="#a9f73f" fill-rule="evenodd"/><path d="M-827.278,257.612a1.608,1.608,0,0,1,1.607,1.607,1.607,1.607,0,0,1-1.607,1.607,1.606,1.606,0,0,1-1.607-1.607A1.607,1.607,0,0,1-827.278,257.612Z" transform="translate(861.32 -183.237)" fill="#a9f73f" fill-rule="evenodd"/><path d="M-820.718,257.612a1.608,1.608,0,0,1,1.607,1.607,1.607,1.607,0,0,1-1.607,1.607,1.607,1.607,0,0,1-1.607-1.607A1.608,1.608,0,0,1-820.718,257.612Z" transform="translate(865.571 -183.237)" fill="#a9f73f" fill-rule="evenodd"/><path d="M-814.158,257.612a1.608,1.608,0,0,1,1.607,1.607,1.607,1.607,0,0,1-1.607,1.607,1.607,1.607,0,0,1-1.607-1.607A1.608,1.608,0,0,1-814.158,257.612Z" transform="translate(869.823 -183.237)" fill="#a9f73f" fill-rule="evenodd"/><path d="M-846.96,264.059a1.607,1.607,0,0,1,1.607,1.607,1.606,1.606,0,0,1-1.607,1.607,1.605,1.605,0,0,1-1.605-1.607A1.606,1.606,0,0,1-846.96,264.059Z" transform="translate(848.565 -179.059)" fill="#a9f73f" fill-rule="evenodd"/><path d="M-840.4,264.059a1.606,1.606,0,0,1,1.605,1.607,1.605,1.605,0,0,1-1.605,1.607,1.606,1.606,0,0,1-1.607-1.607A1.607,1.607,0,0,1-840.4,264.059Z" transform="translate(852.817 -179.059)" fill="#a9f73f" fill-rule="evenodd"/><path d="M-833.838,264.059a1.606,1.606,0,0,1,1.605,1.607,1.605,1.605,0,0,1-1.605,1.607,1.606,1.606,0,0,1-1.607-1.607A1.607,1.607,0,0,1-833.838,264.059Z" transform="translate(857.068 -179.059)" fill="#a9f73f" fill-rule="evenodd"/><path d="M-827.278,264.059a1.608,1.608,0,0,1,1.607,1.607,1.607,1.607,0,0,1-1.607,1.607,1.606,1.606,0,0,1-1.607-1.607A1.607,1.607,0,0,1-827.278,264.059Z" transform="translate(861.32 -179.059)" fill="#a9f73f" fill-rule="evenodd"/><path d="M-820.718,264.059a1.608,1.608,0,0,1,1.607,1.607,1.607,1.607,0,0,1-1.607,1.607,1.607,1.607,0,0,1-1.607-1.607A1.608,1.608,0,0,1-820.718,264.059Z" transform="translate(865.571 -179.059)" fill="#a9f73f" fill-rule="evenodd"/><path d="M-814.158,264.059a1.608,1.608,0,0,1,1.607,1.607,1.607,1.607,0,0,1-1.607,1.607,1.607,1.607,0,0,1-1.607-1.607A1.608,1.608,0,0,1-814.158,264.059Z" transform="translate(869.823 -179.059)" fill="#a9f73f" fill-rule="evenodd"/><path d="M-846.96,270.506a1.607,1.607,0,0,1,1.607,1.607,1.606,1.606,0,0,1-1.607,1.607,1.605,1.605,0,0,1-1.605-1.607A1.606,1.606,0,0,1-846.96,270.506Z" transform="translate(848.565 -174.88)" fill="#a9f73f" fill-rule="evenodd"/><path d="M-840.4,270.506a1.606,1.606,0,0,1,1.605,1.607,1.605,1.605,0,0,1-1.605,1.607,1.606,1.606,0,0,1-1.607-1.607A1.607,1.607,0,0,1-840.4,270.506Z" transform="translate(852.817 -174.88)" fill="#a9f73f" fill-rule="evenodd"/><path d="M-833.838,270.506a1.606,1.606,0,0,1,1.605,1.607,1.605,1.605,0,0,1-1.605,1.607,1.606,1.606,0,0,1-1.607-1.607A1.607,1.607,0,0,1-833.838,270.506Z" transform="translate(857.068 -174.88)" fill="#a9f73f" fill-rule="evenodd"/><path d="M-827.278,270.506a1.608,1.608,0,0,1,1.607,1.607,1.607,1.607,0,0,1-1.607,1.607,1.606,1.606,0,0,1-1.607-1.607A1.607,1.607,0,0,1-827.278,270.506Z" transform="translate(861.32 -174.88)" fill="#a9f73f" fill-rule="evenodd"/><path d="M-820.718,270.506a1.608,1.608,0,0,1,1.607,1.607,1.607,1.607,0,0,1-1.607,1.607,1.607,1.607,0,0,1-1.607-1.607A1.608,1.608,0,0,1-820.718,270.506Z" transform="translate(865.571 -174.88)" fill="#a9f73f" fill-rule="evenodd"/><path d="M-814.158,270.506a1.608,1.608,0,0,1,1.607,1.607,1.607,1.607,0,0,1-1.607,1.607,1.607,1.607,0,0,1-1.607-1.607A1.608,1.608,0,0,1-814.158,270.506Z" transform="translate(869.823 -174.88)" fill="#a9f73f" fill-rule="evenodd"/><path d="M-846.96,276.953a1.607,1.607,0,0,1,1.607,1.607,1.606,1.606,0,0,1-1.607,1.607,1.605,1.605,0,0,1-1.605-1.607A1.606,1.606,0,0,1-846.96,276.953Z" transform="translate(848.565 -170.702)" fill="#a9f73f" fill-rule="evenodd"/><path d="M-840.4,276.953a1.606,1.606,0,0,1,1.605,1.607,1.605,1.605,0,0,1-1.605,1.607,1.606,1.606,0,0,1-1.607-1.607A1.607,1.607,0,0,1-840.4,276.953Z" transform="translate(852.817 -170.702)" fill="#a9f73f" fill-rule="evenodd"/><path d="M-833.838,276.953a1.606,1.606,0,0,1,1.605,1.607,1.605,1.605,0,0,1-1.605,1.607,1.606,1.606,0,0,1-1.607-1.607A1.607,1.607,0,0,1-833.838,276.953Z" transform="translate(857.068 -170.702)" fill="#a9f73f" fill-rule="evenodd"/><path d="M-827.278,276.953a1.608,1.608,0,0,1,1.607,1.607,1.607,1.607,0,0,1-1.607,1.607,1.606,1.606,0,0,1-1.607-1.607A1.607,1.607,0,0,1-827.278,276.953Z" transform="translate(861.32 -170.702)" fill="#a9f73f" fill-rule="evenodd"/><path d="M-820.718,276.953a1.608,1.608,0,0,1,1.607,1.607,1.607,1.607,0,0,1-1.607,1.607,1.607,1.607,0,0,1-1.607-1.607A1.608,1.608,0,0,1-820.718,276.953Z" transform="translate(865.571 -170.702)" fill="#a9f73f" fill-rule="evenodd"/><path d="M-814.158,276.953a1.608,1.608,0,0,1,1.607,1.607,1.607,1.607,0,0,1-1.607,1.607,1.607,1.607,0,0,1-1.607-1.607A1.608,1.608,0,0,1-814.158,276.953Z" transform="translate(869.823 -170.702)" fill="#a9f73f" fill-rule="evenodd"/><path d="M-846.96,283.4a1.607,1.607,0,0,1,1.607,1.607,1.606,1.606,0,0,1-1.607,1.607,1.605,1.605,0,0,1-1.605-1.607A1.606,1.606,0,0,1-846.96,283.4Z" transform="translate(848.565 -166.524)" fill="#a9f73f" fill-rule="evenodd"/><path d="M-840.4,283.4a1.606,1.606,0,0,1,1.605,1.607,1.605,1.605,0,0,1-1.605,1.607,1.606,1.606,0,0,1-1.607-1.607A1.607,1.607,0,0,1-840.4,283.4Z" transform="translate(852.817 -166.524)" fill="#a9f73f" fill-rule="evenodd"/><path d="M-833.838,283.4a1.606,1.606,0,0,1,1.605,1.607,1.605,1.605,0,0,1-1.605,1.607,1.606,1.606,0,0,1-1.607-1.607A1.607,1.607,0,0,1-833.838,283.4Z" transform="translate(857.068 -166.524)" fill="#a9f73f" fill-rule="evenodd"/><path d="M-827.278,283.4a1.608,1.608,0,0,1,1.607,1.607,1.607,1.607,0,0,1-1.607,1.607,1.606,1.606,0,0,1-1.607-1.607A1.607,1.607,0,0,1-827.278,283.4Z" transform="translate(861.32 -166.524)" fill="#a9f73f" fill-rule="evenodd"/><path d="M-820.718,283.4a1.608,1.608,0,0,1,1.607,1.607,1.607,1.607,0,0,1-1.607,1.607,1.607,1.607,0,0,1-1.607-1.607A1.608,1.608,0,0,1-820.718,283.4Z" transform="translate(865.571 -166.524)" fill="#a9f73f" fill-rule="evenodd"/><path d="M-814.158,283.4a1.608,1.608,0,0,1,1.607,1.607,1.607,1.607,0,0,1-1.607,1.607,1.607,1.607,0,0,1-1.607-1.607A1.608,1.608,0,0,1-814.158,283.4Z" transform="translate(869.823 -166.524)" fill="#a9f73f" fill-rule="evenodd"/><path d="M-846.96,289.847a1.607,1.607,0,0,1,1.607,1.607,1.607,1.607,0,0,1-1.607,1.607,1.606,1.606,0,0,1-1.605-1.607A1.606,1.606,0,0,1-846.96,289.847Z" transform="translate(848.565 -162.346)" fill="#a9f73f" fill-rule="evenodd"/><path d="M-840.4,289.847a1.606,1.606,0,0,1,1.605,1.607,1.606,1.606,0,0,1-1.605,1.607,1.607,1.607,0,0,1-1.607-1.607A1.607,1.607,0,0,1-840.4,289.847Z" transform="translate(852.817 -162.346)" fill="#a9f73f" fill-rule="evenodd"/><path d="M-833.838,289.847a1.606,1.606,0,0,1,1.605,1.607,1.606,1.606,0,0,1-1.605,1.607,1.607,1.607,0,0,1-1.607-1.607A1.607,1.607,0,0,1-833.838,289.847Z" transform="translate(857.068 -162.346)" fill="#a9f73f" fill-rule="evenodd"/><path d="M-827.278,289.847a1.608,1.608,0,0,1,1.607,1.607,1.608,1.608,0,0,1-1.607,1.607,1.607,1.607,0,0,1-1.607-1.607A1.607,1.607,0,0,1-827.278,289.847Z" transform="translate(861.32 -162.346)" fill="#a9f73f" fill-rule="evenodd"/><path d="M-820.718,289.847a1.608,1.608,0,0,1,1.607,1.607,1.608,1.608,0,0,1-1.607,1.607,1.608,1.608,0,0,1-1.607-1.607A1.608,1.608,0,0,1-820.718,289.847Z" transform="translate(865.571 -162.346)" fill="#a9f73f" fill-rule="evenodd"/><path d="M-814.158,289.847a1.608,1.608,0,0,1,1.607,1.607,1.608,1.608,0,0,1-1.607,1.607,1.608,1.608,0,0,1-1.607-1.607A1.608,1.608,0,0,1-814.158,289.847Z" transform="translate(869.823 -162.346)" fill="#a9f73f" fill-rule="evenodd"/><path d="M-846.96,296.294a1.606,1.606,0,0,1,1.607,1.607,1.607,1.607,0,0,1-1.607,1.607,1.606,1.606,0,0,1-1.605-1.607A1.605,1.605,0,0,1-846.96,296.294Z" transform="translate(848.565 -158.167)" fill="#a9f73f" fill-rule="evenodd"/><path d="M-840.4,296.294a1.605,1.605,0,0,1,1.605,1.607,1.606,1.606,0,0,1-1.605,1.607,1.607,1.607,0,0,1-1.607-1.607A1.606,1.606,0,0,1-840.4,296.294Z" transform="translate(852.817 -158.167)" fill="#a9f73f" fill-rule="evenodd"/><path d="M-833.838,296.294a1.605,1.605,0,0,1,1.605,1.607,1.606,1.606,0,0,1-1.605,1.607,1.607,1.607,0,0,1-1.607-1.607A1.606,1.606,0,0,1-833.838,296.294Z" transform="translate(857.068 -158.167)" fill="#a9f73f" fill-rule="evenodd"/><path d="M-827.278,296.294a1.607,1.607,0,0,1,1.607,1.607,1.608,1.608,0,0,1-1.607,1.607,1.607,1.607,0,0,1-1.607-1.607A1.606,1.606,0,0,1-827.278,296.294Z" transform="translate(861.32 -158.167)" fill="#a9f73f" fill-rule="evenodd"/><path d="M-820.718,296.294a1.607,1.607,0,0,1,1.607,1.607,1.608,1.608,0,0,1-1.607,1.607,1.608,1.608,0,0,1-1.607-1.607A1.607,1.607,0,0,1-820.718,296.294Z" transform="translate(865.571 -158.167)" fill="#a9f73f" fill-rule="evenodd"/><path d="M-814.158,296.294a1.607,1.607,0,0,1,1.607,1.607,1.608,1.608,0,0,1-1.607,1.607,1.608,1.608,0,0,1-1.607-1.607A1.607,1.607,0,0,1-814.158,296.294Z" transform="translate(869.823 -158.167)" fill="#a9f73f" fill-rule="evenodd"/><path d="M-846.96,302.741a1.606,1.606,0,0,1,1.607,1.607,1.607,1.607,0,0,1-1.607,1.607,1.606,1.606,0,0,1-1.605-1.607A1.605,1.605,0,0,1-846.96,302.741Z" transform="translate(848.565 -153.989)" fill="#a9f73f" fill-rule="evenodd"/><path d="M-840.4,302.741a1.605,1.605,0,0,1,1.605,1.607,1.606,1.606,0,0,1-1.605,1.607,1.607,1.607,0,0,1-1.607-1.607A1.606,1.606,0,0,1-840.4,302.741Z" transform="translate(852.817 -153.989)" fill="#a9f73f" fill-rule="evenodd"/><path d="M-833.838,302.741a1.605,1.605,0,0,1,1.605,1.607,1.606,1.606,0,0,1-1.605,1.607,1.607,1.607,0,0,1-1.607-1.607A1.606,1.606,0,0,1-833.838,302.741Z" transform="translate(857.068 -153.989)" fill="#a9f73f" fill-rule="evenodd"/><path d="M-827.278,302.741a1.607,1.607,0,0,1,1.607,1.607,1.608,1.608,0,0,1-1.607,1.607,1.607,1.607,0,0,1-1.607-1.607A1.606,1.606,0,0,1-827.278,302.741Z" transform="translate(861.32 -153.989)" fill="#a9f73f" fill-rule="evenodd"/><path d="M-820.718,302.741a1.607,1.607,0,0,1,1.607,1.607,1.608,1.608,0,0,1-1.607,1.607,1.608,1.608,0,0,1-1.607-1.607A1.607,1.607,0,0,1-820.718,302.741Z" transform="translate(865.571 -153.989)" fill="#a9f73f" fill-rule="evenodd"/><path d="M-814.158,302.741a1.607,1.607,0,0,1,1.607,1.607,1.608,1.608,0,0,1-1.607,1.607,1.608,1.608,0,0,1-1.607-1.607A1.607,1.607,0,0,1-814.158,302.741Z" transform="translate(869.823 -153.989)" fill="#a9f73f" fill-rule="evenodd"/><path d="M-846.96,309.188a1.606,1.606,0,0,1,1.607,1.607,1.607,1.607,0,0,1-1.607,1.607,1.606,1.606,0,0,1-1.605-1.607A1.605,1.605,0,0,1-846.96,309.188Z" transform="translate(848.565 -149.811)" fill="#a9f73f" fill-rule="evenodd"/><path d="M-840.4,309.188a1.605,1.605,0,0,1,1.605,1.607A1.607,1.607,0,0,1-840.4,312.4a1.607,1.607,0,0,1-1.607-1.607A1.606,1.606,0,0,1-840.4,309.188Z" transform="translate(852.817 -149.811)" fill="#a9f73f" fill-rule="evenodd"/><path d="M-833.838,309.188a1.605,1.605,0,0,1,1.605,1.607,1.606,1.606,0,0,1-1.605,1.607,1.607,1.607,0,0,1-1.607-1.607A1.606,1.606,0,0,1-833.838,309.188Z" transform="translate(857.068 -149.811)" fill="#a9f73f" fill-rule="evenodd"/><path d="M-827.278,309.188a1.607,1.607,0,0,1,1.607,1.607,1.608,1.608,0,0,1-1.607,1.607,1.607,1.607,0,0,1-1.607-1.607A1.606,1.606,0,0,1-827.278,309.188Z" transform="translate(861.32 -149.811)" fill="#a9f73f" fill-rule="evenodd"/><path d="M-820.718,309.188a1.607,1.607,0,0,1,1.607,1.607,1.608,1.608,0,0,1-1.607,1.607,1.608,1.608,0,0,1-1.607-1.607A1.607,1.607,0,0,1-820.718,309.188Z" transform="translate(865.571 -149.811)" fill="#a9f73f" fill-rule="evenodd"/><path d="M-814.158,309.188a1.607,1.607,0,0,1,1.607,1.607,1.608,1.608,0,0,1-1.607,1.607,1.608,1.608,0,0,1-1.607-1.607A1.607,1.607,0,0,1-814.158,309.188Z" transform="translate(869.823 -149.811)" fill="#a9f73f" fill-rule="evenodd"/><path d="M-846.96,315.635a1.606,1.606,0,0,1,1.607,1.607,1.607,1.607,0,0,1-1.607,1.607,1.606,1.606,0,0,1-1.605-1.607A1.605,1.605,0,0,1-846.96,315.635Z" transform="translate(848.565 -145.632)" fill="#a9f73f" fill-rule="evenodd"/><path d="M-840.4,315.635a1.605,1.605,0,0,1,1.605,1.607,1.606,1.606,0,0,1-1.605,1.607,1.607,1.607,0,0,1-1.607-1.607A1.606,1.606,0,0,1-840.4,315.635Z" transform="translate(852.817 -145.632)" fill="#a9f73f" fill-rule="evenodd"/><path d="M-833.838,315.635a1.605,1.605,0,0,1,1.605,1.607,1.606,1.606,0,0,1-1.605,1.607,1.607,1.607,0,0,1-1.607-1.607A1.606,1.606,0,0,1-833.838,315.635Z" transform="translate(857.068 -145.632)" fill="#a9f73f" fill-rule="evenodd"/><path d="M-827.278,315.635a1.607,1.607,0,0,1,1.607,1.607,1.608,1.608,0,0,1-1.607,1.607,1.607,1.607,0,0,1-1.607-1.607A1.606,1.606,0,0,1-827.278,315.635Z" transform="translate(861.32 -145.632)" fill="#a9f73f" fill-rule="evenodd"/><path d="M-820.718,315.635a1.607,1.607,0,0,1,1.607,1.607,1.608,1.608,0,0,1-1.607,1.607,1.608,1.608,0,0,1-1.607-1.607A1.607,1.607,0,0,1-820.718,315.635Z" transform="translate(865.571 -145.632)" fill="#a9f73f" fill-rule="evenodd"/><path d="M-814.158,315.635a1.607,1.607,0,0,1,1.607,1.607,1.608,1.608,0,0,1-1.607,1.607,1.608,1.608,0,0,1-1.607-1.607A1.607,1.607,0,0,1-814.158,315.635Z" transform="translate(869.823 -145.632)" fill="#a9f73f" fill-rule="evenodd"/><path d="M-846.96,322.082a1.606,1.606,0,0,1,1.607,1.607,1.607,1.607,0,0,1-1.607,1.607,1.606,1.606,0,0,1-1.605-1.607A1.605,1.605,0,0,1-846.96,322.082Z" transform="translate(848.565 -141.454)" fill="#a9f73f" fill-rule="evenodd"/><path d="M-840.4,322.082a1.605,1.605,0,0,1,1.605,1.607A1.606,1.606,0,0,1-840.4,325.3a1.607,1.607,0,0,1-1.607-1.607A1.606,1.606,0,0,1-840.4,322.082Z" transform="translate(852.817 -141.454)" fill="#a9f73f" fill-rule="evenodd"/><path d="M-833.838,322.082a1.605,1.605,0,0,1,1.605,1.607,1.606,1.606,0,0,1-1.605,1.607,1.607,1.607,0,0,1-1.607-1.607A1.606,1.606,0,0,1-833.838,322.082Z" transform="translate(857.068 -141.454)" fill="#a9f73f" fill-rule="evenodd"/><path d="M-827.278,322.082a1.607,1.607,0,0,1,1.607,1.607,1.608,1.608,0,0,1-1.607,1.607,1.607,1.607,0,0,1-1.607-1.607A1.606,1.606,0,0,1-827.278,322.082Z" transform="translate(861.32 -141.454)" fill="#a9f73f" fill-rule="evenodd"/><path d="M-820.718,322.082a1.607,1.607,0,0,1,1.607,1.607,1.608,1.608,0,0,1-1.607,1.607,1.608,1.608,0,0,1-1.607-1.607A1.607,1.607,0,0,1-820.718,322.082Z" transform="translate(865.571 -141.454)" fill="#a9f73f" fill-rule="evenodd"/><path d="M-814.158,322.082a1.607,1.607,0,0,1,1.607,1.607,1.608,1.608,0,0,1-1.607,1.607,1.608,1.608,0,0,1-1.607-1.607A1.607,1.607,0,0,1-814.158,322.082Z" transform="translate(869.823 -141.454)" fill="#a9f73f" fill-rule="evenodd"/></g><g transform="translate(183.842 362.855) rotate(90)"><path d="M1.605,0A1.607,1.607,0,1,1,0,1.607,1.606,1.606,0,0,1,1.605,0Z" fill="#a9f73f" fill-rule="evenodd"/><path d="M1.607,0A1.607,1.607,0,1,1,0,1.607,1.605,1.605,0,0,1,1.607,0Z" transform="translate(10.812)" fill="#a9f73f" fill-rule="evenodd"/><path d="M1.607,0A1.607,1.607,0,1,1,0,1.607,1.605,1.605,0,0,1,1.607,0Z" transform="translate(21.623)" fill="#a9f73f" fill-rule="evenodd"/><path d="M1.607,0A1.607,1.607,0,1,1,0,1.607,1.607,1.607,0,0,1,1.607,0Z" transform="translate(32.435)" fill="#a9f73f" fill-rule="evenodd"/><path d="M1.607,0A1.607,1.607,0,1,1,0,1.607,1.607,1.607,0,0,1,1.607,0Z" transform="translate(43.246)" fill="#a9f73f" fill-rule="evenodd"/><path d="M1.607,0A1.607,1.607,0,1,1,0,1.607,1.607,1.607,0,0,1,1.607,0Z" transform="translate(54.057)" fill="#a9f73f" fill-rule="evenodd"/><path d="M1.605,0A1.607,1.607,0,1,1,0,1.607,1.606,1.606,0,0,1,1.605,0Z" transform="translate(0 10.625)" fill="#a9f73f" fill-rule="evenodd"/><path d="M1.607,0A1.607,1.607,0,1,1,0,1.607,1.605,1.605,0,0,1,1.607,0Z" transform="translate(10.812 10.625)" fill="#a9f73f" fill-rule="evenodd"/><path d="M1.607,0A1.607,1.607,0,1,1,0,1.607,1.605,1.605,0,0,1,1.607,0Z" transform="translate(21.623 10.625)" fill="#a9f73f" fill-rule="evenodd"/><path d="M1.607,0A1.607,1.607,0,1,1,0,1.607,1.607,1.607,0,0,1,1.607,0Z" transform="translate(32.435 10.625)" fill="#a9f73f" fill-rule="evenodd"/><path d="M1.607,0A1.607,1.607,0,1,1,0,1.607,1.607,1.607,0,0,1,1.607,0Z" transform="translate(43.246 10.625)" fill="#a9f73f" fill-rule="evenodd"/><path d="M1.607,0A1.607,1.607,0,1,1,0,1.607,1.607,1.607,0,0,1,1.607,0Z" transform="translate(54.057 10.625)" fill="#a9f73f" fill-rule="evenodd"/><path d="M1.605,0A1.606,1.606,0,1,1,0,1.607,1.606,1.606,0,0,1,1.605,0Z" transform="translate(0 21.251)" fill="#a9f73f" fill-rule="evenodd"/><path d="M1.607,0A1.606,1.606,0,1,1,0,1.607,1.605,1.605,0,0,1,1.607,0Z" transform="translate(10.812 21.251)" fill="#a9f73f" fill-rule="evenodd"/><path d="M1.607,0A1.606,1.606,0,1,1,0,1.607,1.605,1.605,0,0,1,1.607,0Z" transform="translate(21.623 21.251)" fill="#a9f73f" fill-rule="evenodd"/><path d="M1.607,0A1.606,1.606,0,1,1,0,1.607,1.607,1.607,0,0,1,1.607,0Z" transform="translate(32.435 21.251)" fill="#a9f73f" fill-rule="evenodd"/><path d="M1.607,0A1.606,1.606,0,1,1,0,1.607,1.607,1.607,0,0,1,1.607,0Z" transform="translate(43.246 21.251)" fill="#a9f73f" fill-rule="evenodd"/><path d="M1.607,0A1.606,1.606,0,1,1,0,1.607,1.607,1.607,0,0,1,1.607,0Z" transform="translate(54.057 21.251)" fill="#a9f73f" fill-rule="evenodd"/><path d="M1.605,0A1.606,1.606,0,1,1,0,1.605,1.605,1.605,0,0,1,1.605,0Z" transform="translate(0 31.876)" fill="#a9f73f" fill-rule="evenodd"/><path d="M1.607,0A1.606,1.606,0,1,1,0,1.605,1.605,1.605,0,0,1,1.607,0Z" transform="translate(10.812 31.876)" fill="#a9f73f" fill-rule="evenodd"/><path d="M1.607,0A1.606,1.606,0,1,1,0,1.605,1.6,1.6,0,0,1,1.607,0Z" transform="translate(21.623 31.876)" fill="#a9f73f" fill-rule="evenodd"/><path d="M1.607,0A1.606,1.606,0,1,1,0,1.605,1.606,1.606,0,0,1,1.607,0Z" transform="translate(32.435 31.876)" fill="#a9f73f" fill-rule="evenodd"/><path d="M1.607,0A1.606,1.606,0,1,1,0,1.605,1.606,1.606,0,0,1,1.607,0Z" transform="translate(43.246 31.876)" fill="#a9f73f" fill-rule="evenodd"/><path d="M1.607,0A1.606,1.606,0,1,1,0,1.605,1.606,1.606,0,0,1,1.607,0Z" transform="translate(54.057 31.876)" fill="#a9f73f" fill-rule="evenodd"/><path d="M1.605,0A1.606,1.606,0,1,1,0,1.607,1.606,1.606,0,0,1,1.605,0Z" transform="translate(0 42.501)" fill="#a9f73f" fill-rule="evenodd"/><path d="M1.607,0A1.606,1.606,0,1,1,0,1.607,1.605,1.605,0,0,1,1.607,0Z" transform="translate(10.812 42.501)" fill="#a9f73f" fill-rule="evenodd"/><path d="M1.607,0A1.606,1.606,0,1,1,0,1.607,1.605,1.605,0,0,1,1.607,0Z" transform="translate(21.623 42.501)" fill="#a9f73f" fill-rule="evenodd"/><path d="M1.607,0A1.606,1.606,0,1,1,0,1.607,1.607,1.607,0,0,1,1.607,0Z" transform="translate(32.435 42.501)" fill="#a9f73f" fill-rule="evenodd"/><path d="M1.607,0A1.606,1.606,0,1,1,0,1.607,1.607,1.607,0,0,1,1.607,0Z" transform="translate(43.246 42.501)" fill="#a9f73f" fill-rule="evenodd"/><path d="M1.607,0A1.606,1.606,0,1,1,0,1.607,1.607,1.607,0,0,1,1.607,0Z" transform="translate(54.057 42.501)" fill="#a9f73f" fill-rule="evenodd"/><path d="M1.605,0A1.606,1.606,0,1,1,0,1.605,1.605,1.605,0,0,1,1.605,0Z" transform="translate(0 53.126)" fill="#a9f73f" fill-rule="evenodd"/><path d="M1.607,0A1.606,1.606,0,1,1,0,1.605,1.605,1.605,0,0,1,1.607,0Z" transform="translate(10.812 53.126)" fill="#a9f73f" fill-rule="evenodd"/><path d="M1.607,0A1.606,1.606,0,1,1,0,1.605,1.6,1.6,0,0,1,1.607,0Z" transform="translate(21.623 53.126)" fill="#a9f73f" fill-rule="evenodd"/><path d="M1.607,0A1.606,1.606,0,1,1,0,1.605,1.606,1.606,0,0,1,1.607,0Z" transform="translate(32.435 53.126)" fill="#a9f73f" fill-rule="evenodd"/><path d="M1.607,0A1.606,1.606,0,1,1,0,1.605,1.606,1.606,0,0,1,1.607,0Z" transform="translate(43.246 53.126)" fill="#a9f73f" fill-rule="evenodd"/><path d="M1.607,0A1.606,1.606,0,1,1,0,1.605,1.606,1.606,0,0,1,1.607,0Z" transform="translate(54.057 53.126)" fill="#a9f73f" fill-rule="evenodd"/><path d="M1.605,0A1.607,1.607,0,1,1,0,1.607,1.607,1.607,0,0,1,1.605,0Z" transform="translate(0 63.75)" fill="#a9f73f" fill-rule="evenodd"/><path d="M1.607,0A1.607,1.607,0,1,1,0,1.607,1.606,1.606,0,0,1,1.607,0Z" transform="translate(10.812 63.75)" fill="#a9f73f" fill-rule="evenodd"/><path d="M1.607,0A1.607,1.607,0,1,1,0,1.607,1.606,1.606,0,0,1,1.607,0Z" transform="translate(21.623 63.75)" fill="#a9f73f" fill-rule="evenodd"/><path d="M1.607,0A1.607,1.607,0,1,1,0,1.607,1.608,1.608,0,0,1,1.607,0Z" transform="translate(32.435 63.75)" fill="#a9f73f" fill-rule="evenodd"/><path d="M1.607,0A1.607,1.607,0,1,1,0,1.607,1.608,1.608,0,0,1,1.607,0Z" transform="translate(43.246 63.75)" fill="#a9f73f" fill-rule="evenodd"/><path d="M1.607,0A1.607,1.607,0,1,1,0,1.607,1.608,1.608,0,0,1,1.607,0Z" transform="translate(54.057 63.75)" fill="#a9f73f" fill-rule="evenodd"/><path d="M1.605,0A1.607,1.607,0,1,1,0,1.607,1.607,1.607,0,0,1,1.605,0Z" transform="translate(0 74.375)" fill="#a9f73f" fill-rule="evenodd"/><path d="M1.607,0A1.607,1.607,0,1,1,0,1.607,1.606,1.606,0,0,1,1.607,0Z" transform="translate(10.812 74.375)" fill="#a9f73f" fill-rule="evenodd"/><path d="M1.607,0A1.607,1.607,0,1,1,0,1.607,1.606,1.606,0,0,1,1.607,0Z" transform="translate(21.623 74.375)" fill="#a9f73f" fill-rule="evenodd"/><path d="M1.607,0A1.607,1.607,0,1,1,0,1.607,1.608,1.608,0,0,1,1.607,0Z" transform="translate(32.435 74.375)" fill="#a9f73f" fill-rule="evenodd"/><path d="M1.607,0A1.607,1.607,0,1,1,0,1.607,1.608,1.608,0,0,1,1.607,0Z" transform="translate(43.246 74.375)" fill="#a9f73f" fill-rule="evenodd"/><path d="M1.607,0A1.607,1.607,0,1,1,0,1.607,1.608,1.608,0,0,1,1.607,0Z" transform="translate(54.057 74.375)" fill="#a9f73f" fill-rule="evenodd"/><path d="M1.605,0A1.607,1.607,0,1,1,0,1.607,1.607,1.607,0,0,1,1.605,0Z" transform="translate(0 85)" fill="#a9f73f" fill-rule="evenodd"/><path d="M1.607,0A1.607,1.607,0,1,1,0,1.607,1.606,1.606,0,0,1,1.607,0Z" transform="translate(10.812 85)" fill="#a9f73f" fill-rule="evenodd"/><path d="M1.607,0A1.607,1.607,0,1,1,0,1.607,1.606,1.606,0,0,1,1.607,0Z" transform="translate(21.623 85)" fill="#a9f73f" fill-rule="evenodd"/><path d="M1.607,0A1.607,1.607,0,1,1,0,1.607,1.608,1.608,0,0,1,1.607,0Z" transform="translate(32.435 85)" fill="#a9f73f" fill-rule="evenodd"/><path d="M1.607,0A1.607,1.607,0,1,1,0,1.607,1.608,1.608,0,0,1,1.607,0Z" transform="translate(43.246 85)" fill="#a9f73f" fill-rule="evenodd"/><path d="M1.607,0A1.607,1.607,0,1,1,0,1.607,1.608,1.608,0,0,1,1.607,0Z" transform="translate(54.057 85)" fill="#a9f73f" fill-rule="evenodd"/><path d="M1.605,0A1.607,1.607,0,1,1,0,1.607,1.607,1.607,0,0,1,1.605,0Z" transform="translate(0 95.626)" fill="#a9f73f" fill-rule="evenodd"/><path d="M1.607,0A1.607,1.607,0,1,1,0,1.607,1.606,1.606,0,0,1,1.607,0Z" transform="translate(10.812 95.626)" fill="#a9f73f" fill-rule="evenodd"/><path d="M1.607,0A1.607,1.607,0,1,1,0,1.607,1.606,1.606,0,0,1,1.607,0Z" transform="translate(21.623 95.626)" fill="#a9f73f" fill-rule="evenodd"/><path d="M1.607,0A1.607,1.607,0,1,1,0,1.607,1.608,1.608,0,0,1,1.607,0Z" transform="translate(32.435 95.626)" fill="#a9f73f" fill-rule="evenodd"/><path d="M1.607,0A1.607,1.607,0,1,1,0,1.607,1.608,1.608,0,0,1,1.607,0Z" transform="translate(43.246 95.626)" fill="#a9f73f" fill-rule="evenodd"/><path d="M1.607,0A1.607,1.607,0,1,1,0,1.607,1.608,1.608,0,0,1,1.607,0Z" transform="translate(54.057 95.626)" fill="#a9f73f" fill-rule="evenodd"/><path d="M1.605,0A1.607,1.607,0,1,1,0,1.607,1.607,1.607,0,0,1,1.605,0Z" transform="translate(0 106.251)" fill="#a9f73f" fill-rule="evenodd"/><path d="M1.607,0A1.607,1.607,0,1,1,0,1.607,1.606,1.606,0,0,1,1.607,0Z" transform="translate(10.812 106.251)" fill="#a9f73f" fill-rule="evenodd"/><path d="M1.607,0A1.607,1.607,0,1,1,0,1.607,1.606,1.606,0,0,1,1.607,0Z" transform="translate(21.623 106.251)" fill="#a9f73f" fill-rule="evenodd"/><path d="M1.607,0A1.607,1.607,0,1,1,0,1.607,1.608,1.608,0,0,1,1.607,0Z" transform="translate(32.435 106.251)" fill="#a9f73f" fill-rule="evenodd"/><path d="M1.607,0A1.607,1.607,0,1,1,0,1.607,1.608,1.608,0,0,1,1.607,0Z" transform="translate(43.246 106.251)" fill="#a9f73f" fill-rule="evenodd"/><path d="M1.607,0A1.607,1.607,0,1,1,0,1.607,1.608,1.608,0,0,1,1.607,0Z" transform="translate(54.057 106.251)" fill="#a9f73f" fill-rule="evenodd"/><path d="M1.605,0A1.607,1.607,0,1,1,0,1.607,1.607,1.607,0,0,1,1.605,0Z" transform="translate(0 116.876)" fill="#a9f73f" fill-rule="evenodd"/><path d="M1.607,0A1.607,1.607,0,1,1,0,1.607,1.606,1.606,0,0,1,1.607,0Z" transform="translate(10.812 116.876)" fill="#a9f73f" fill-rule="evenodd"/><path d="M1.607,0A1.607,1.607,0,1,1,0,1.607,1.606,1.606,0,0,1,1.607,0Z" transform="translate(21.623 116.876)" fill="#a9f73f" fill-rule="evenodd"/><path d="M1.607,0A1.607,1.607,0,1,1,0,1.607,1.608,1.608,0,0,1,1.607,0Z" transform="translate(32.435 116.876)" fill="#a9f73f" fill-rule="evenodd"/><path d="M1.607,0A1.607,1.607,0,1,1,0,1.607,1.608,1.608,0,0,1,1.607,0Z" transform="translate(43.246 116.876)" fill="#a9f73f" fill-rule="evenodd"/><path d="M1.607,0A1.607,1.607,0,1,1,0,1.607,1.608,1.608,0,0,1,1.607,0Z" transform="translate(54.057 116.876)" fill="#a9f73f" fill-rule="evenodd"/><path d="M1.605,0A1.607,1.607,0,1,1,0,1.607,1.607,1.607,0,0,1,1.605,0Z" transform="translate(0 127.501)" fill="#a9f73f" fill-rule="evenodd"/><path d="M1.607,0A1.607,1.607,0,1,1,0,1.607,1.606,1.606,0,0,1,1.607,0Z" transform="translate(10.812 127.501)" fill="#a9f73f" fill-rule="evenodd"/><path d="M1.607,0A1.607,1.607,0,1,1,0,1.607,1.606,1.606,0,0,1,1.607,0Z" transform="translate(21.623 127.501)" fill="#a9f73f" fill-rule="evenodd"/><path d="M1.607,0A1.607,1.607,0,1,1,0,1.607,1.608,1.608,0,0,1,1.607,0Z" transform="translate(32.435 127.501)" fill="#a9f73f" fill-rule="evenodd"/><path d="M1.607,0A1.607,1.607,0,1,1,0,1.607,1.608,1.608,0,0,1,1.607,0Z" transform="translate(43.246 127.501)" fill="#a9f73f" fill-rule="evenodd"/><path d="M1.607,0A1.607,1.607,0,1,1,0,1.607,1.608,1.608,0,0,1,1.607,0Z" transform="translate(54.057 127.501)" fill="#a9f73f" fill-rule="evenodd"/><path d="M1.605,0A1.607,1.607,0,1,1,0,1.607,1.606,1.606,0,0,1,1.605,0Z" transform="translate(0 138.127)" fill="#a9f73f" fill-rule="evenodd"/><path d="M1.607,0A1.607,1.607,0,1,1,0,1.607,1.605,1.605,0,0,1,1.607,0Z" transform="translate(10.812 138.127)" fill="#a9f73f" fill-rule="evenodd"/><path d="M1.607,0A1.607,1.607,0,1,1,0,1.607,1.605,1.605,0,0,1,1.607,0Z" transform="translate(21.623 138.127)" fill="#a9f73f" fill-rule="evenodd"/><path d="M1.607,0A1.607,1.607,0,1,1,0,1.607,1.607,1.607,0,0,1,1.607,0Z" transform="translate(32.435 138.127)" fill="#a9f73f" fill-rule="evenodd"/><path d="M1.607,0A1.607,1.607,0,1,1,0,1.607,1.607,1.607,0,0,1,1.607,0Z" transform="translate(43.246 138.127)" fill="#a9f73f" fill-rule="evenodd"/><path d="M1.607,0A1.607,1.607,0,1,1,0,1.607,1.607,1.607,0,0,1,1.607,0Z" transform="translate(54.057 138.127)" fill="#a9f73f" fill-rule="evenodd"/><path d="M1.605,0A1.607,1.607,0,1,1,0,1.607,1.606,1.606,0,0,1,1.605,0Z" transform="translate(0 148.752)" fill="#a9f73f" fill-rule="evenodd"/><path d="M1.607,0A1.607,1.607,0,1,1,0,1.607,1.605,1.605,0,0,1,1.607,0Z" transform="translate(10.812 148.752)" fill="#a9f73f" fill-rule="evenodd"/><path d="M1.607,0A1.607,1.607,0,1,1,0,1.607,1.605,1.605,0,0,1,1.607,0Z" transform="translate(21.623 148.752)" fill="#a9f73f" fill-rule="evenodd"/><path d="M1.607,0A1.607,1.607,0,1,1,0,1.607,1.607,1.607,0,0,1,1.607,0Z" transform="translate(32.435 148.752)" fill="#a9f73f" fill-rule="evenodd"/><path d="M1.607,0A1.607,1.607,0,1,1,0,1.607,1.607,1.607,0,0,1,1.607,0Z" transform="translate(43.246 148.752)" fill="#a9f73f" fill-rule="evenodd"/><path d="M1.607,0A1.607,1.607,0,1,1,0,1.607,1.607,1.607,0,0,1,1.607,0Z" transform="translate(54.057 148.752)" fill="#a9f73f" fill-rule="evenodd"/><path d="M1.605,0A1.607,1.607,0,1,1,0,1.607,1.606,1.606,0,0,1,1.605,0Z" transform="translate(0 159.377)" fill="#a9f73f" fill-rule="evenodd"/><path d="M1.607,0A1.607,1.607,0,1,1,0,1.607,1.605,1.605,0,0,1,1.607,0Z" transform="translate(10.812 159.377)" fill="#a9f73f" fill-rule="evenodd"/><path d="M1.607,0A1.607,1.607,0,1,1,0,1.607,1.605,1.605,0,0,1,1.607,0Z" transform="translate(21.623 159.377)" fill="#a9f73f" fill-rule="evenodd"/><path d="M1.607,0A1.607,1.607,0,1,1,0,1.607,1.607,1.607,0,0,1,1.607,0Z" transform="translate(32.435 159.377)" fill="#a9f73f" fill-rule="evenodd"/><path d="M1.607,0A1.607,1.607,0,1,1,0,1.607,1.607,1.607,0,0,1,1.607,0Z" transform="translate(43.246 159.377)" fill="#a9f73f" fill-rule="evenodd"/><path d="M1.607,0A1.607,1.607,0,1,1,0,1.607,1.607,1.607,0,0,1,1.607,0Z" transform="translate(54.057 159.377)" fill="#a9f73f" fill-rule="evenodd"/><path d="M1.605,0A1.607,1.607,0,1,1,0,1.607,1.606,1.606,0,0,1,1.605,0Z" transform="translate(0 170.003)" fill="#a9f73f" fill-rule="evenodd"/><path d="M1.607,0A1.607,1.607,0,1,1,0,1.607,1.605,1.605,0,0,1,1.607,0Z" transform="translate(10.812 170.003)" fill="#a9f73f" fill-rule="evenodd"/><path d="M1.607,0A1.607,1.607,0,1,1,0,1.607,1.605,1.605,0,0,1,1.607,0Z" transform="translate(21.623 170.003)" fill="#a9f73f" fill-rule="evenodd"/><path d="M1.607,0A1.607,1.607,0,1,1,0,1.607,1.607,1.607,0,0,1,1.607,0Z" transform="translate(32.435 170.003)" fill="#a9f73f" fill-rule="evenodd"/><path d="M1.607,0A1.607,1.607,0,1,1,0,1.607,1.607,1.607,0,0,1,1.607,0Z" transform="translate(43.246 170.003)" fill="#a9f73f" fill-rule="evenodd"/><path d="M1.607,0A1.607,1.607,0,1,1,0,1.607,1.607,1.607,0,0,1,1.607,0Z" transform="translate(54.057 170.003)" fill="#a9f73f" fill-rule="evenodd"/><path d="M1.605,0A1.607,1.607,0,1,1,0,1.607,1.606,1.606,0,0,1,1.605,0Z" transform="translate(0 180.628)" fill="#a9f73f" fill-rule="evenodd"/><path d="M1.607,0A1.607,1.607,0,1,1,0,1.607,1.605,1.605,0,0,1,1.607,0Z" transform="translate(10.812 180.628)" fill="#a9f73f" fill-rule="evenodd"/><path d="M1.607,0A1.607,1.607,0,1,1,0,1.607,1.605,1.605,0,0,1,1.607,0Z" transform="translate(21.623 180.628)" fill="#a9f73f" fill-rule="evenodd"/><path d="M1.607,0A1.607,1.607,0,1,1,0,1.607,1.607,1.607,0,0,1,1.607,0Z" transform="translate(32.435 180.628)" fill="#a9f73f" fill-rule="evenodd"/><path d="M1.607,0A1.607,1.607,0,1,1,0,1.607,1.607,1.607,0,0,1,1.607,0Z" transform="translate(43.246 180.628)" fill="#a9f73f" fill-rule="evenodd"/><path d="M1.607,0A1.607,1.607,0,1,1,0,1.607,1.607,1.607,0,0,1,1.607,0Z" transform="translate(54.057 180.628)" fill="#a9f73f" fill-rule="evenodd"/></g></g><rect width="257.375" height="257.375" rx="25" transform="translate(3467.311 -16160.972) rotate(45)" fill="#fddab1" opacity="0.35"/><path d="M43.512,0H249.387l.307,63.2A27.144,27.144,0,0,1,222.55,90.349H16.676l-.307-63.2A27.144,27.144,0,0,1,43.512,0Z" transform="translate(3493.442 -16114.5)" fill="#fff" stroke="#35a3be" stroke-width="2"/><path d="M43.512,0H249.387l.307,63.2A27.144,27.144,0,0,1,222.55,90.349H16.676l-.307-63.2A27.144,27.144,0,0,1,43.512,0Z" transform="translate(3493.442 -15946.5)" fill="#fff" stroke="#35a3be" stroke-width="2"/><path d="M1.816,25.527h0a6.2,6.2,0,0,1,0-8.77L16.757,1.816a6.2,6.2,0,0,1,8.77,0h0a6.2,6.2,0,0,1,0,8.77L10.586,25.527A6.2,6.2,0,0,1,1.816,25.527Z" transform="translate(3512.616 -16120.69) rotate(8)" fill="#ff8900"/><path d="M1.816,25.527h0a6.2,6.2,0,0,1,0-8.77L16.757,1.816a6.2,6.2,0,0,1,8.77,0h0a6.2,6.2,0,0,1,0,8.77L10.586,25.527A6.2,6.2,0,0,1,1.816,25.527Z" transform="translate(3512.616 -15953.158) rotate(8)" fill="#ff8900"/><path d="M1.816,25.527h0a6.2,6.2,0,0,1,0-8.77L16.757,1.816a6.2,6.2,0,0,1,8.77,0h0a6.2,6.2,0,0,1,0,8.77L10.586,25.527A6.2,6.2,0,0,1,1.816,25.527Z" transform="translate(3721.616 -16050.509) rotate(8)" fill="#ff8900"/><path d="M1.816,25.527h0a6.2,6.2,0,0,1,0-8.77L16.757,1.816a6.2,6.2,0,0,1,8.77,0h0a6.2,6.2,0,0,1,0,8.77L10.586,25.527A6.2,6.2,0,0,1,1.816,25.527Z" transform="translate(3721.616 -15882.977) rotate(8)" fill="#ff8900"/><path d="M31.893,19H29.256V6.2h2.637Zm4.614-9.51.079,1.1a3.32,3.32,0,0,1,2.733-1.274,2.759,2.759,0,0,1,2.25.888,4.142,4.142,0,0,1,.756,2.654V19h-2.54V12.918a1.648,1.648,0,0,0-.352-1.173,1.574,1.574,0,0,0-1.169-.365,1.747,1.747,0,0,0-1.608.914V19h-2.54V9.49Zm11.7,7.638a1.666,1.666,0,0,0,1.143-.387,1.355,1.355,0,0,0,.457-1.028h2.382a3.258,3.258,0,0,1-.527,1.771,3.48,3.48,0,0,1-1.419,1.248,4.442,4.442,0,0,1-1.991.444,4.129,4.129,0,0,1-3.217-1.3A5.13,5.13,0,0,1,43.855,14.3v-.167a5.071,5.071,0,0,1,1.169-3.507,4.08,4.08,0,0,1,3.208-1.31,4,4,0,0,1,2.861,1.015,3.594,3.594,0,0,1,1.094,2.7H49.8a1.731,1.731,0,0,0-.457-1.2,1.7,1.7,0,0,0-2.5.185,3.739,3.739,0,0,0-.453,2.1v.264a3.786,3.786,0,0,0,.448,2.109A1.55,1.55,0,0,0,48.205,17.128Zm11.127.905a3.185,3.185,0,0,1-2.6,1.143A3,3,0,0,1,54.4,18.3a3.752,3.752,0,0,1-.822-2.575V9.49h2.54v6.144q0,1.485,1.354,1.485a1.835,1.835,0,0,0,1.775-.9V9.49h2.549V19H59.4Zm12.946-3.7A5.758,5.758,0,0,1,71.3,17.9a3.231,3.231,0,0,1-2.725,1.279,2.969,2.969,0,0,1-2.47-1.187L65.994,19H63.709V5.5h2.54v4.843a2.893,2.893,0,0,1,2.312-1.028,3.258,3.258,0,0,1,2.729,1.279,5.767,5.767,0,0,1,.989,3.6Zm-2.54-.185a3.783,3.783,0,0,0-.457-2.1,1.545,1.545,0,0,0-1.362-.664,1.676,1.676,0,0,0-1.67.993v3.753a1.7,1.7,0,0,0,1.688,1,1.568,1.568,0,0,0,1.617-1.213A6.257,6.257,0,0,0,69.738,14.148ZM79.354,19a2.821,2.821,0,0,1-.255-.853,3.073,3.073,0,0,1-2.4,1.028,3.376,3.376,0,0,1-2.316-.809,2.6,2.6,0,0,1-.918-2.039,2.687,2.687,0,0,1,1.121-2.32,5.529,5.529,0,0,1,3.239-.817h1.169v-.545a1.567,1.567,0,0,0-.338-1.055,1.331,1.331,0,0,0-1.068-.4,1.513,1.513,0,0,0-1.006.308,1.045,1.045,0,0,0-.365.844h-2.54a2.551,2.551,0,0,1,.51-1.529,3.37,3.37,0,0,1,1.441-1.1,5.253,5.253,0,0,1,2.092-.4,4.15,4.15,0,0,1,2.791.883,3.09,3.09,0,0,1,1.033,2.483V16.8a4.546,4.546,0,0,0,.378,2.048V19Zm-2.1-1.767a2.188,2.188,0,0,0,1.037-.25,1.645,1.645,0,0,0,.7-.672V14.676h-.949q-1.907,0-2.03,1.318l-.009.149a1.017,1.017,0,0,0,.334.782A1.3,1.3,0,0,0,77.253,17.233Zm10.2-.105a1.666,1.666,0,0,0,1.143-.387,1.355,1.355,0,0,0,.457-1.028H91.43a3.258,3.258,0,0,1-.527,1.771,3.48,3.48,0,0,1-1.419,1.248,4.442,4.442,0,0,1-1.991.444,4.129,4.129,0,0,1-3.217-1.3A5.13,5.13,0,0,1,83.1,14.3v-.167a5.071,5.071,0,0,1,1.169-3.507,4.08,4.08,0,0,1,3.208-1.31,4,4,0,0,1,2.861,1.015,3.594,3.594,0,0,1,1.094,2.7H89.048a1.731,1.731,0,0,0-.457-1.2,1.7,1.7,0,0,0-2.5.185,3.739,3.739,0,0,0-.453,2.1v.264a3.786,3.786,0,0,0,.448,2.109A1.55,1.55,0,0,0,87.448,17.128ZM95.561,19H93.012V9.49h2.549Zm-2.7-11.971a1.251,1.251,0,0,1,.382-.94,1.648,1.648,0,0,1,2.079,0,1.244,1.244,0,0,1,.387.94,1.247,1.247,0,0,1-.391.949,1.629,1.629,0,0,1-2.065,0A1.247,1.247,0,0,1,92.862,7.029Zm4.395,7.128a5.64,5.64,0,0,1,.545-2.522,3.989,3.989,0,0,1,1.569-1.714,4.577,4.577,0,0,1,2.377-.606,4.33,4.33,0,0,1,3.142,1.178,4.727,4.727,0,0,1,1.358,3.2l.018.65a4.97,4.97,0,0,1-1.222,3.511,4.735,4.735,0,0,1-6.561,0,5.058,5.058,0,0,1-1.226-3.586Zm2.54.185a3.545,3.545,0,0,0,.51,2.07,1.833,1.833,0,0,0,2.9.009,3.879,3.879,0,0,0,.519-2.263,3.51,3.51,0,0,0-.519-2.057,1.686,1.686,0,0,0-1.459-.729,1.659,1.659,0,0,0-1.441.725A3.944,3.944,0,0,0,99.8,14.342ZM102.249,5.5h2.769l-2.435,2.725h-2.065Zm7.919,3.99.079,1.1a3.32,3.32,0,0,1,2.733-1.274,2.759,2.759,0,0,1,2.25.888,4.142,4.142,0,0,1,.756,2.654V19h-2.54V12.918a1.648,1.648,0,0,0-.352-1.173,1.574,1.574,0,0,0-1.169-.365,1.747,1.747,0,0,0-1.608.914V19h-2.54V9.49Z" transform="translate(3553.311 -16081)" fill="#12263f"/><path d="M46.916,15.827l2.9-9.624h2.936L48.3,19H45.544L41.106,6.2h2.927Zm11.25,3.349a4.668,4.668,0,0,1-3.406-1.283,4.561,4.561,0,0,1-1.314-3.419v-.246A5.745,5.745,0,0,1,54,11.666a4.064,4.064,0,0,1,1.569-1.74,4.4,4.4,0,0,1,2.316-.611,3.947,3.947,0,0,1,3.072,1.23,5,5,0,0,1,1.121,3.489v1.037H56.021a2.36,2.36,0,0,0,.743,1.494,2.245,2.245,0,0,0,1.569.563,2.742,2.742,0,0,0,2.294-1.063l1.248,1.4a3.813,3.813,0,0,1-1.547,1.261A5.075,5.075,0,0,1,58.166,19.176Zm-.29-7.8a1.591,1.591,0,0,0-1.226.51,2.634,2.634,0,0,0-.6,1.459h3.533v-.2a1.878,1.878,0,0,0-.457-1.305A1.642,1.642,0,0,0,57.876,11.371Zm10.986.5a6.9,6.9,0,0,0-.914-.07,1.86,1.86,0,0,0-1.89.976V19h-2.54V9.49h2.4l.07,1.134a2.354,2.354,0,0,1,2.118-1.31,2.662,2.662,0,0,1,.791.114ZM72.764,19H70.215V9.49h2.549Zm-2.7-11.971a1.251,1.251,0,0,1,.382-.94,1.648,1.648,0,0,1,2.079,0,1.244,1.244,0,0,1,.387.94,1.247,1.247,0,0,1-.391.949,1.629,1.629,0,0,1-2.065,0A1.247,1.247,0,0,1,70.066,7.029ZM75.471,19V11.354H74.056V9.49h1.415V9.051a3.566,3.566,0,0,1,1.1-2.764,4.438,4.438,0,0,1,3.063-.971,10.16,10.16,0,0,1,2.883.519l-.369,2.1a11.247,11.247,0,0,0-1.336-.33A6.564,6.564,0,0,0,79.8,7.53Q78.02,7.53,78.02,9.1V9.49h1.872v1.863H78.02V19Zm8.235,0H81.158V9.49h2.549Zm6.056-1.872a1.666,1.666,0,0,0,1.143-.387,1.355,1.355,0,0,0,.457-1.028h2.382a3.258,3.258,0,0,1-.527,1.771A3.48,3.48,0,0,1,91.8,18.732a4.442,4.442,0,0,1-1.991.444,4.129,4.129,0,0,1-3.217-1.3A5.13,5.13,0,0,1,85.412,14.3v-.167a5.071,5.071,0,0,1,1.169-3.507,4.08,4.08,0,0,1,3.208-1.31,4,4,0,0,1,2.861,1.015,3.594,3.594,0,0,1,1.094,2.7H91.362a1.731,1.731,0,0,0-.457-1.2,1.7,1.7,0,0,0-2.5.185,3.739,3.739,0,0,0-.453,2.1v.264a3.786,3.786,0,0,0,.448,2.109A1.55,1.55,0,0,0,89.762,17.128ZM100.7,19a2.821,2.821,0,0,1-.255-.853,3.073,3.073,0,0,1-2.4,1.028,3.376,3.376,0,0,1-2.316-.809,2.6,2.6,0,0,1-.918-2.039,2.687,2.687,0,0,1,1.121-2.32,5.529,5.529,0,0,1,3.239-.817h1.169v-.545a1.567,1.567,0,0,0-.338-1.055,1.331,1.331,0,0,0-1.068-.4,1.513,1.513,0,0,0-1.006.308,1.045,1.045,0,0,0-.365.844h-2.54a2.551,2.551,0,0,1,.51-1.529,3.37,3.37,0,0,1,1.441-1.1,5.253,5.253,0,0,1,2.092-.4,4.15,4.15,0,0,1,2.791.883,3.09,3.09,0,0,1,1.033,2.483V16.8a4.546,4.546,0,0,0,.378,2.048V19Zm-2.1-1.767a2.188,2.188,0,0,0,1.037-.25,1.645,1.645,0,0,0,.7-.672V14.676H99.4q-1.907,0-2.03,1.318l-.009.149a1.017,1.017,0,0,0,.334.782A1.3,1.3,0,0,0,98.6,17.233Zm10.2-.105a1.666,1.666,0,0,0,1.143-.387,1.355,1.355,0,0,0,.457-1.028h2.382a3.258,3.258,0,0,1-.527,1.771,3.48,3.48,0,0,1-1.419,1.248,4.442,4.442,0,0,1-1.991.444,4.129,4.129,0,0,1-3.217-1.3,5.13,5.13,0,0,1-1.178-3.582v-.167a5.071,5.071,0,0,1,1.169-3.507,4.08,4.08,0,0,1,3.208-1.31,4,4,0,0,1,2.861,1.015,3.594,3.594,0,0,1,1.094,2.7H110.4a1.731,1.731,0,0,0-.457-1.2,1.7,1.7,0,0,0-2.5.185,3.739,3.739,0,0,0-.453,2.1v.264a3.786,3.786,0,0,0,.448,2.109A1.55,1.55,0,0,0,108.8,17.128ZM116.912,19h-2.549V9.49h2.549Zm-2.7-11.971a1.251,1.251,0,0,1,.382-.94,1.648,1.648,0,0,1,2.079,0,1.244,1.244,0,0,1,.387.94,1.247,1.247,0,0,1-.391.949,1.629,1.629,0,0,1-2.065,0A1.247,1.247,0,0,1,114.213,7.029Zm4.395,7.128a5.64,5.64,0,0,1,.545-2.522,3.989,3.989,0,0,1,1.569-1.714,4.577,4.577,0,0,1,2.377-.606,4.33,4.33,0,0,1,3.142,1.178,4.727,4.727,0,0,1,1.358,3.2l.018.65a4.97,4.97,0,0,1-1.222,3.511,4.735,4.735,0,0,1-6.561,0,5.058,5.058,0,0,1-1.226-3.586Zm2.54.185a3.545,3.545,0,0,0,.51,2.07,1.833,1.833,0,0,0,2.9.009,3.879,3.879,0,0,0,.519-2.263,3.51,3.51,0,0,0-.519-2.057,1.686,1.686,0,0,0-1.459-.729,1.659,1.659,0,0,0-1.441.725A3.944,3.944,0,0,0,121.148,14.342ZM123.6,5.5h2.769l-2.435,2.725h-2.065Zm7.919,3.99.079,1.1a3.32,3.32,0,0,1,2.733-1.274,2.759,2.759,0,0,1,2.25.888,4.142,4.142,0,0,1,.756,2.654V19H134.8V12.918a1.648,1.648,0,0,0-.352-1.173,1.574,1.574,0,0,0-1.169-.365,1.747,1.747,0,0,0-1.608.914V19h-2.54V9.49Z" transform="translate(3536.311 -15913)" fill="#12263f"/><path d="M43.512,0H249.387l.307,63.2A27.144,27.144,0,0,1,222.55,90.349H16.676l-.307-63.2A27.144,27.144,0,0,1,43.512,0Z" transform="translate(3172.442 -16112.5)" fill="#fff" stroke="#35a3be" stroke-width="2"/><path d="M43.512,0H249.387l.307,63.2A27.144,27.144,0,0,1,222.55,90.349H16.676l-.307-63.2A27.144,27.144,0,0,1,43.512,0Z" transform="translate(3172.442 -15946.5)" fill="#fff" stroke="#35a3be" stroke-width="2"/><path d="M39.982,14.491V19H37.345V6.2h4.992a5.776,5.776,0,0,1,2.536.527,3.886,3.886,0,0,1,1.683,1.5,4.178,4.178,0,0,1,.589,2.21,3.674,3.674,0,0,1-1.288,2.966,5.363,5.363,0,0,1-3.564,1.085Zm0-2.136h2.355a2.316,2.316,0,0,0,1.6-.492,1.79,1.79,0,0,0,.549-1.406,2.111,2.111,0,0,0-.554-1.521,2.068,2.068,0,0,0-1.529-.6H39.982Zm14.15-.483a6.9,6.9,0,0,0-.914-.07,1.86,1.86,0,0,0-1.89.976V19h-2.54V9.49h2.4l.07,1.134a2.354,2.354,0,0,1,2.118-1.31,2.662,2.662,0,0,1,.791.114Zm5.6,7.3a4.668,4.668,0,0,1-3.406-1.283,4.561,4.561,0,0,1-1.314-3.419v-.246a5.745,5.745,0,0,1,.554-2.562,4.064,4.064,0,0,1,1.569-1.74,4.4,4.4,0,0,1,2.316-.611,3.947,3.947,0,0,1,3.072,1.23,5,5,0,0,1,1.121,3.489v1.037H57.586a2.36,2.36,0,0,0,.743,1.494,2.245,2.245,0,0,0,1.569.563,2.742,2.742,0,0,0,2.294-1.063l1.248,1.4a3.813,3.813,0,0,1-1.547,1.261A5.075,5.075,0,0,1,59.731,19.176Zm-.29-7.8a1.591,1.591,0,0,0-1.226.51,2.634,2.634,0,0,0-.6,1.459h3.533v-.2a1.878,1.878,0,0,0-.457-1.305A1.642,1.642,0,0,0,59.441,11.371Zm14.2,2.962a5.7,5.7,0,0,1-1,3.52,3.2,3.2,0,0,1-2.694,1.323,2.963,2.963,0,0,1-2.329-1v4.482h-2.54V9.49h2.355l.088.932a2.985,2.985,0,0,1,2.408-1.107,3.22,3.22,0,0,1,2.733,1.3,5.858,5.858,0,0,1,.976,3.586Zm-2.54-.185a3.743,3.743,0,0,0-.47-2.048,1.532,1.532,0,0,0-1.367-.721,1.663,1.663,0,0,0-1.644.914v3.894a1.692,1.692,0,0,0,1.661.94Q71.1,17.128,71.1,14.148ZM80.728,19a2.821,2.821,0,0,1-.255-.853,3.073,3.073,0,0,1-2.4,1.028,3.376,3.376,0,0,1-2.316-.809,2.6,2.6,0,0,1-.918-2.039,2.687,2.687,0,0,1,1.121-2.32A5.529,5.529,0,0,1,79.2,13.19h1.169v-.545a1.567,1.567,0,0,0-.338-1.055,1.331,1.331,0,0,0-1.068-.4,1.513,1.513,0,0,0-1.006.308,1.045,1.045,0,0,0-.365.844H75.05a2.551,2.551,0,0,1,.51-1.529A3.37,3.37,0,0,1,77,9.714a5.253,5.253,0,0,1,2.092-.4,4.15,4.15,0,0,1,2.791.883,3.09,3.09,0,0,1,1.033,2.483V16.8a4.546,4.546,0,0,0,.378,2.048V19Zm-2.1-1.767a2.188,2.188,0,0,0,1.037-.25,1.645,1.645,0,0,0,.7-.672V14.676h-.949q-1.907,0-2.03,1.318l-.009.149a1.017,1.017,0,0,0,.334.782A1.3,1.3,0,0,0,78.628,17.233Zm11.584-5.361a6.9,6.9,0,0,0-.914-.07,1.86,1.86,0,0,0-1.89.976V19h-2.54V9.49h2.4l.07,1.134a2.354,2.354,0,0,1,2.118-1.31,2.662,2.662,0,0,1,.791.114ZM96.68,19a2.821,2.821,0,0,1-.255-.853,3.073,3.073,0,0,1-2.4,1.028,3.376,3.376,0,0,1-2.316-.809,2.6,2.6,0,0,1-.918-2.039,2.687,2.687,0,0,1,1.121-2.32,5.529,5.529,0,0,1,3.239-.817H96.32v-.545a1.567,1.567,0,0,0-.338-1.055,1.331,1.331,0,0,0-1.068-.4,1.513,1.513,0,0,0-1.006.308,1.045,1.045,0,0,0-.365.844H91a2.551,2.551,0,0,1,.51-1.529,3.37,3.37,0,0,1,1.441-1.1,5.253,5.253,0,0,1,2.092-.4,4.15,4.15,0,0,1,2.791.883,3.09,3.09,0,0,1,1.033,2.483V16.8a4.546,4.546,0,0,0,.378,2.048V19Zm-2.1-1.767a2.188,2.188,0,0,0,1.037-.25,1.645,1.645,0,0,0,.7-.672V14.676h-.949q-1.907,0-2.03,1.318l-.009.149a1.017,1.017,0,0,0,.334.782A1.3,1.3,0,0,0,94.58,17.233Zm10.2-.105a1.666,1.666,0,0,0,1.143-.387,1.355,1.355,0,0,0,.457-1.028h2.382a3.258,3.258,0,0,1-.527,1.771,3.48,3.48,0,0,1-1.419,1.248,4.442,4.442,0,0,1-1.991.444,4.129,4.129,0,0,1-3.217-1.3,5.13,5.13,0,0,1-1.178-3.582v-.167a5.071,5.071,0,0,1,1.169-3.507,4.08,4.08,0,0,1,3.208-1.31,4,4,0,0,1,2.861,1.015,3.594,3.594,0,0,1,1.094,2.7h-2.382a1.731,1.731,0,0,0-.457-1.2,1.7,1.7,0,0,0-2.5.185,3.739,3.739,0,0,0-.453,2.1v.264a3.786,3.786,0,0,0,.448,2.109A1.55,1.55,0,0,0,104.775,17.128ZM112.887,19h-2.549V9.49h2.549Zm-2.7-11.971a1.251,1.251,0,0,1,.382-.94,1.648,1.648,0,0,1,2.079,0,1.244,1.244,0,0,1,.387.94,1.247,1.247,0,0,1-.391.949,1.629,1.629,0,0,1-2.065,0A1.247,1.247,0,0,1,110.189,7.029Zm4.395,7.128a5.64,5.64,0,0,1,.545-2.522A3.989,3.989,0,0,1,116.7,9.921a4.577,4.577,0,0,1,2.377-.606,4.33,4.33,0,0,1,3.142,1.178,4.727,4.727,0,0,1,1.358,3.2l.018.65a4.97,4.97,0,0,1-1.222,3.511,4.735,4.735,0,0,1-6.561,0,5.058,5.058,0,0,1-1.226-3.586Zm2.54.185a3.545,3.545,0,0,0,.51,2.07,1.833,1.833,0,0,0,2.9.009,3.879,3.879,0,0,0,.519-2.263,3.51,3.51,0,0,0-.519-2.057,1.686,1.686,0,0,0-1.459-.729,1.659,1.659,0,0,0-1.441.725A3.944,3.944,0,0,0,117.124,14.342ZM119.576,5.5h2.769L119.91,8.225h-2.065Zm7.919,3.99.079,1.1a3.32,3.32,0,0,1,2.733-1.274,2.759,2.759,0,0,1,2.25.888,4.142,4.142,0,0,1,.756,2.654V19h-2.54V12.918a1.648,1.648,0,0,0-.352-1.173,1.574,1.574,0,0,0-1.169-.365,1.747,1.747,0,0,0-1.608.914V19H125.1V9.49Zm11.83,4.667a5.64,5.64,0,0,1,.545-2.522,3.989,3.989,0,0,1,1.569-1.714,4.577,4.577,0,0,1,2.377-.606,4.33,4.33,0,0,1,3.142,1.178,4.727,4.727,0,0,1,1.358,3.2l.018.65a4.97,4.97,0,0,1-1.222,3.511,4.735,4.735,0,0,1-6.561,0,5.058,5.058,0,0,1-1.226-3.586Zm2.54.185a3.545,3.545,0,0,0,.51,2.07,1.833,1.833,0,0,0,2.9.009,3.879,3.879,0,0,0,.519-2.263,3.51,3.51,0,0,0-.519-2.057,1.686,1.686,0,0,0-1.459-.729,1.659,1.659,0,0,0-1.441.725A3.944,3.944,0,0,0,141.865,14.342ZM42.153,39H39.6V29.49h2.549Zm-2.7-11.971a1.251,1.251,0,0,1,.382-.94,1.648,1.648,0,0,1,2.079,0,1.342,1.342,0,0,1,0,1.89,1.629,1.629,0,0,1-2.065,0A1.247,1.247,0,0,1,39.455,27.029Zm7.128,2.461.079,1.1A3.32,3.32,0,0,1,49.4,29.314a2.759,2.759,0,0,1,2.25.888,4.142,4.142,0,0,1,.756,2.654V39h-2.54V32.918a1.648,1.648,0,0,0-.352-1.173,1.574,1.574,0,0,0-1.169-.365,1.747,1.747,0,0,0-1.608.914V39h-2.54V29.49Zm11.3,6.407,1.767-6.407h2.654L59.1,39H56.672l-3.208-9.51h2.654ZM67.8,39.176a4.668,4.668,0,0,1-3.406-1.283,4.561,4.561,0,0,1-1.314-3.419v-.246a5.745,5.745,0,0,1,.554-2.562,4.064,4.064,0,0,1,1.569-1.74,4.4,4.4,0,0,1,2.316-.611,3.947,3.947,0,0,1,3.072,1.23,5,5,0,0,1,1.121,3.489v1.037H65.655a2.36,2.36,0,0,0,.743,1.494,2.245,2.245,0,0,0,1.569.563,2.742,2.742,0,0,0,2.294-1.063l1.248,1.4a3.813,3.813,0,0,1-1.547,1.261A5.075,5.075,0,0,1,67.8,39.176Zm-.29-7.8a1.591,1.591,0,0,0-1.226.51,2.634,2.634,0,0,0-.6,1.459h3.533v-.2a1.878,1.878,0,0,0-.457-1.305A1.642,1.642,0,0,0,67.509,31.371Zm10.793,5a.818.818,0,0,0-.461-.734,5.241,5.241,0,0,0-1.481-.479q-3.393-.712-3.393-2.883a2.613,2.613,0,0,1,1.05-2.114,4.237,4.237,0,0,1,2.747-.848,4.56,4.56,0,0,1,2.9.853,2.687,2.687,0,0,1,1.085,2.215h-2.54a1.229,1.229,0,0,0-.352-.9,1.488,1.488,0,0,0-1.1-.356,1.52,1.52,0,0,0-.993.29.916.916,0,0,0-.352.738.783.783,0,0,0,.4.681,4.114,4.114,0,0,0,1.349.448,11.019,11.019,0,0,1,1.6.426,2.628,2.628,0,0,1,2.013,2.558,2.481,2.481,0,0,1-1.116,2.1,4.815,4.815,0,0,1-2.883.8,5.029,5.029,0,0,1-2.123-.426A3.561,3.561,0,0,1,73.2,37.581a2.716,2.716,0,0,1-.527-1.6h2.408a1.326,1.326,0,0,0,.5,1.037,1.987,1.987,0,0,0,1.248.36,1.839,1.839,0,0,0,1.1-.277A.861.861,0,0,0,78.3,36.372Zm7.146-9.22V29.49h1.626v1.863H85.448V36.1a1.133,1.133,0,0,0,.2.756,1.015,1.015,0,0,0,.773.229,4.051,4.051,0,0,0,.747-.062v1.925a5.229,5.229,0,0,1-1.538.229,2.425,2.425,0,0,1-2.725-2.7V31.354H81.519V29.49h1.389V27.152ZM91.169,39H88.621V29.49h2.549Zm-2.7-11.971a1.251,1.251,0,0,1,.382-.94,1.648,1.648,0,0,1,2.079,0,1.342,1.342,0,0,1,0,1.89,1.629,1.629,0,0,1-2.065,0A1.247,1.247,0,0,1,88.471,27.029Zm4.421,7.146a5.573,5.573,0,0,1,1.042-3.524,3.375,3.375,0,0,1,2.808-1.336,2.96,2.96,0,0,1,2.435,1.072l.105-.9h2.3v9.193a4.064,4.064,0,0,1-.567,2.171,3.641,3.641,0,0,1-1.6,1.406,5.608,5.608,0,0,1-2.408.483,5.215,5.215,0,0,1-2.039-.417,3.619,3.619,0,0,1-1.5-1.077L94.6,39.7a2.975,2.975,0,0,0,2.3,1.063,2.178,2.178,0,0,0,1.573-.541,2.027,2.027,0,0,0,.563-1.534v-.51a2.938,2.938,0,0,1-2.312.993,3.366,3.366,0,0,1-2.773-1.34,5.572,5.572,0,0,1-1.059-3.555Zm2.54.185a3.461,3.461,0,0,0,.519,2.026,1.65,1.65,0,0,0,1.424.734,1.764,1.764,0,0,0,1.661-.87v-4a1.76,1.76,0,0,0-1.644-.87,1.661,1.661,0,0,0-1.437.747A3.9,3.9,0,0,0,95.432,34.359ZM109.046,39a2.821,2.821,0,0,1-.255-.853,3.073,3.073,0,0,1-2.4,1.028,3.376,3.376,0,0,1-2.316-.809,2.6,2.6,0,0,1-.918-2.039,2.687,2.687,0,0,1,1.121-2.32,5.529,5.529,0,0,1,3.239-.817h1.169v-.545a1.567,1.567,0,0,0-.338-1.055,1.331,1.331,0,0,0-1.068-.4,1.513,1.513,0,0,0-1.006.308,1.045,1.045,0,0,0-.365.844h-2.54a2.551,2.551,0,0,1,.51-1.529,3.37,3.37,0,0,1,1.441-1.1,5.253,5.253,0,0,1,2.092-.4,4.15,4.15,0,0,1,2.791.883,3.09,3.09,0,0,1,1.033,2.483V36.8a4.546,4.546,0,0,0,.378,2.048V39Zm-2.1-1.767a2.188,2.188,0,0,0,1.037-.25,1.645,1.645,0,0,0,.7-.672V34.676h-.949q-1.907,0-2.03,1.318l-.009.149a1.017,1.017,0,0,0,.334.782A1.3,1.3,0,0,0,106.946,37.233Zm10.2-.105a1.666,1.666,0,0,0,1.143-.387,1.355,1.355,0,0,0,.457-1.028h2.382a3.258,3.258,0,0,1-.527,1.771,3.48,3.48,0,0,1-1.419,1.248,4.442,4.442,0,0,1-1.991.444,4.129,4.129,0,0,1-3.217-1.3,5.13,5.13,0,0,1-1.178-3.582v-.167a5.071,5.071,0,0,1,1.169-3.507,4.08,4.08,0,0,1,3.208-1.31,4,4,0,0,1,2.861,1.015,3.594,3.594,0,0,1,1.094,2.7h-2.382a1.731,1.731,0,0,0-.457-1.2,1.7,1.7,0,0,0-2.5.185,3.739,3.739,0,0,0-.453,2.1v.264a3.786,3.786,0,0,0,.448,2.109A1.55,1.55,0,0,0,117.141,37.128ZM125.253,39H122.7V29.49h2.549Zm-2.7-11.971a1.251,1.251,0,0,1,.382-.94,1.648,1.648,0,0,1,2.079,0,1.342,1.342,0,0,1,0,1.89,1.629,1.629,0,0,1-2.065,0A1.247,1.247,0,0,1,122.555,27.029Zm4.395,7.128a5.64,5.64,0,0,1,.545-2.522,3.989,3.989,0,0,1,1.569-1.714,4.577,4.577,0,0,1,2.377-.606,4.33,4.33,0,0,1,3.142,1.178,4.727,4.727,0,0,1,1.358,3.2l.018.65a4.97,4.97,0,0,1-1.222,3.511,4.735,4.735,0,0,1-6.561,0,5.058,5.058,0,0,1-1.226-3.586Zm2.54.185a3.545,3.545,0,0,0,.51,2.07,1.833,1.833,0,0,0,2.9.009,3.879,3.879,0,0,0,.519-2.263A3.51,3.51,0,0,0,132.9,32.1a1.686,1.686,0,0,0-1.459-.729A1.659,1.659,0,0,0,130,32.1,3.944,3.944,0,0,0,129.49,34.342Zm2.452-8.842h2.769l-2.435,2.725h-2.065Zm7.919,3.99.079,1.1a3.32,3.32,0,0,1,2.733-1.274,2.759,2.759,0,0,1,2.25.888,4.142,4.142,0,0,1,.756,2.654V39h-2.54V32.918a1.648,1.648,0,0,0-.352-1.173,1.574,1.574,0,0,0-1.169-.365,1.747,1.747,0,0,0-1.608.914V39h-2.54V29.49Z" transform="translate(3212.311 -16089)" fill="#12263f"/><path d="M49.211,19H46.574V6.2h2.637Zm4.957,0H51.619V5.5h2.549Zm7.787-.967a3.185,3.185,0,0,1-2.6,1.143A3,3,0,0,1,57.02,18.3a3.752,3.752,0,0,1-.822-2.575V9.49h2.54v6.144q0,1.485,1.354,1.485a1.835,1.835,0,0,0,1.775-.9V9.49h2.549V19H62.025ZM68.713,9.49l.079,1.063a3.342,3.342,0,0,1,2.733-1.239,2.536,2.536,0,0,1,2.522,1.45A3.265,3.265,0,0,1,76.9,9.314a2.836,2.836,0,0,1,2.3.9,4.141,4.141,0,0,1,.756,2.711V19H77.415V12.936a1.811,1.811,0,0,0-.316-1.182,1.4,1.4,0,0,0-1.116-.374A1.585,1.585,0,0,0,74.4,12.47L74.409,19h-2.54V12.944a1.789,1.789,0,0,0-.325-1.2,1.416,1.416,0,0,0-1.107-.369,1.646,1.646,0,0,0-1.564.9V19h-2.54V9.49ZM84.6,19H82.046V9.49H84.6ZM81.9,7.029a1.251,1.251,0,0,1,.382-.94,1.648,1.648,0,0,1,2.079,0,1.244,1.244,0,0,1,.387.94,1.247,1.247,0,0,1-.391.949,1.629,1.629,0,0,1-2.065,0A1.247,1.247,0,0,1,81.9,7.029ZM89.025,9.49l.079,1.1a3.32,3.32,0,0,1,2.733-1.274,2.759,2.759,0,0,1,2.25.888,4.142,4.142,0,0,1,.756,2.654V19H92.3V12.918a1.648,1.648,0,0,0-.352-1.173,1.574,1.574,0,0,0-1.169-.365,1.747,1.747,0,0,0-1.608.914V19h-2.54V9.49ZM102.279,19a2.821,2.821,0,0,1-.255-.853,3.073,3.073,0,0,1-2.4,1.028,3.376,3.376,0,0,1-2.316-.809,2.6,2.6,0,0,1-.918-2.039,2.687,2.687,0,0,1,1.121-2.32,5.529,5.529,0,0,1,3.239-.817h1.169v-.545a1.567,1.567,0,0,0-.338-1.055,1.331,1.331,0,0,0-1.068-.4,1.513,1.513,0,0,0-1.006.308,1.045,1.045,0,0,0-.365.844H96.6a2.551,2.551,0,0,1,.51-1.529,3.37,3.37,0,0,1,1.441-1.1,5.253,5.253,0,0,1,2.092-.4,4.15,4.15,0,0,1,2.791.883,3.09,3.09,0,0,1,1.033,2.483V16.8a4.546,4.546,0,0,0,.378,2.048V19Zm-2.1-1.767a2.188,2.188,0,0,0,1.037-.25,1.645,1.645,0,0,0,.7-.672V14.676h-.949q-1.907,0-2.03,1.318l-.009.149a1.017,1.017,0,0,0,.334.782A1.3,1.3,0,0,0,100.178,17.233Zm10.2-.105a1.666,1.666,0,0,0,1.143-.387,1.355,1.355,0,0,0,.457-1.028h2.382a3.258,3.258,0,0,1-.527,1.771,3.48,3.48,0,0,1-1.419,1.248,4.442,4.442,0,0,1-1.991.444,4.129,4.129,0,0,1-3.217-1.3,5.13,5.13,0,0,1-1.178-3.582v-.167a5.071,5.071,0,0,1,1.169-3.507,4.08,4.08,0,0,1,3.208-1.31,4,4,0,0,1,2.861,1.015,3.594,3.594,0,0,1,1.094,2.7h-2.382a1.731,1.731,0,0,0-.457-1.2,1.7,1.7,0,0,0-2.5.185,3.739,3.739,0,0,0-.453,2.1v.264a3.786,3.786,0,0,0,.448,2.109A1.55,1.55,0,0,0,110.374,17.128ZM118.486,19h-2.549V9.49h2.549Zm-2.7-11.971a1.251,1.251,0,0,1,.382-.94,1.648,1.648,0,0,1,2.079,0,1.244,1.244,0,0,1,.387.94,1.247,1.247,0,0,1-.391.949,1.629,1.629,0,0,1-2.065,0A1.247,1.247,0,0,1,115.788,7.029Zm4.395,7.128a5.64,5.64,0,0,1,.545-2.522A3.989,3.989,0,0,1,122.3,9.921a4.577,4.577,0,0,1,2.377-.606,4.33,4.33,0,0,1,3.142,1.178,4.727,4.727,0,0,1,1.358,3.2l.018.65a4.97,4.97,0,0,1-1.222,3.511,4.735,4.735,0,0,1-6.561,0,5.058,5.058,0,0,1-1.226-3.586Zm2.54.185a3.545,3.545,0,0,0,.51,2.07,1.833,1.833,0,0,0,2.9.009,3.879,3.879,0,0,0,.519-2.263,3.51,3.51,0,0,0-.519-2.057,1.686,1.686,0,0,0-1.459-.729,1.659,1.659,0,0,0-1.441.725A3.944,3.944,0,0,0,122.722,14.342ZM125.174,5.5h2.769l-2.435,2.725h-2.065Zm7.919,3.99.079,1.1a3.32,3.32,0,0,1,2.733-1.274,2.759,2.759,0,0,1,2.25.888,4.142,4.142,0,0,1,.756,2.654V19h-2.54V12.918a1.648,1.648,0,0,0-.352-1.173,1.574,1.574,0,0,0-1.169-.365,1.747,1.747,0,0,0-1.608.914V19H130.7V9.49Z" transform="translate(3212.311 -15913)" fill="#12263f"/><path d="M1.816,25.527h0a6.2,6.2,0,0,1,0-8.77L16.757,1.816a6.2,6.2,0,0,1,8.77,0h0a6.2,6.2,0,0,1,0,8.77L10.586,25.527A6.2,6.2,0,0,1,1.816,25.527Z" transform="translate(3398.734 -16049.509) rotate(8)" fill="#a9f73f"/><path d="M1.816,25.527h0a6.2,6.2,0,0,1,0-8.77L16.757,1.816a6.2,6.2,0,0,1,8.77,0h0a6.2,6.2,0,0,1,0,8.77L10.586,25.527A6.2,6.2,0,0,1,1.816,25.527Z" transform="translate(3398.734 -15882.977) rotate(8)" fill="#a9f73f"/></g></svg>