<svg xmlns="http://www.w3.org/2000/svg" width="295" height="206.121" viewBox="0 0 295 206.121"><defs><style>.a{fill:#2df0da;}.b,.c{fill:#1d7e96;}.b,.i{opacity:0.4;}.ab,.d,.e,.f,.i,.j{fill:#fff;}.d{opacity:0.5;}.e{opacity:0.7;}.f{opacity:0.85;}.ad,.g,.z{opacity:0.3;}.h{opacity:0.15;}.j{opacity:0.8;}.k{fill:#455a64;}.l{fill:#37474f;}.m{fill:#263238;}.n{fill:#f0f0f0;}.o{fill:#fafafa;}.p{fill:#ebebeb;}.q{fill:#e0e0e0;}.r{fill:#75b51d;}.s{fill:#f5f5f5;}.t{fill:#8dd52c;}.u{fill:#74ddf7;}.v{opacity:0.1;}.ac,.w{opacity:0.2;}.x{fill:#ffa8a7;}.y,.z{fill:#ff8900;}.aa{fill:#b26001;}.ae{fill:#f28f8f;}</style></defs><g transform="translate(6010.64 9138.234)"><path class="a" d="M80,0H295a0,0,0,0,1,0,0V120a80,80,0,0,1-80,80H0a0,0,0,0,1,0,0V80A80,80,0,0,1,80,0Z" transform="translate(-6010.64 -9132.113)"/><g transform="translate(-6019.57 -9193.765)"><g transform="translate(21.899 158.021)"><ellipse class="b" cx="25.546" cy="14.75" rx="25.546" ry="14.75" transform="translate(188.834 66.133)"/><path class="b" d="M29.762,297.831l74.676,43.116a5.917,5.917,0,0,0,5.335,0l97.432-56.114c1.472-.85,1.472-2.225,0-3.07L132.182,238.59a5.9,5.9,0,0,0-5.335,0l-97.09,56.166C28.279,295.612,28.279,296.981,29.762,297.831Z" transform="translate(-28.649 -237.953)"/></g><g transform="translate(24.913 70.051)"><g transform="translate(0 0)"><path class="c" d="M41.73,294.334a5.1,5.1,0,0,0,2.379,3.943l66.528,38.408a5.233,5.233,0,0,0,4.748,0l91.036-52.554a4.462,4.462,0,0,0,0-7.886l-66.534-38.414a5.233,5.233,0,0,0-4.748,0L44.1,290.391A5.136,5.136,0,0,0,41.73,294.334Z" transform="translate(-37.279 -149.686)"/><path class="d" d="M113.01,372.209v5.135a4.885,4.885,0,0,1-2.374-.571L44.1,338.372a4.445,4.445,0,0,1-.24-7.732c-1.061.759-.981,1.877.24,2.585l66.534,38.414A4.822,4.822,0,0,0,113.01,372.209Z" transform="translate(-37.278 -189.781)"/><path class="c" d="M36.155,224.576a5.09,5.09,0,0,1-2.225-4.029v-79.4a5.244,5.244,0,0,1,2.374-4.114l91.03-52.559a4.462,4.462,0,0,1,6.847,3.943v79.4a5.244,5.244,0,0,1-2.374,4.114L40.755,224.49A5.09,5.09,0,0,1,36.155,224.576Z" transform="translate(-33.93 -83.785)"/><path class="d" d="M40.475,266.04a5.073,5.073,0,0,1-4.32-.063,5.09,5.09,0,0,1-2.225-4.023v-79.4a4.793,4.793,0,0,1,.7-2.334l4.451,2.568h0a4.856,4.856,0,0,0-.7,2.334v79.424C38.381,265.932,39.3,266.56,40.475,266.04Z" transform="translate(-33.93 -125.193)"/><path class="e" d="M41.73,145.939v79.412c0,1.512,1.067,2.128,2.374,1.369l91.036-52.559a5.244,5.244,0,0,0,2.374-4.114V90.635c0-1.512-1.061-2.128-2.374-1.369L44.1,141.825A5.25,5.25,0,0,0,41.73,145.939Z" transform="translate(-37.279 -85.999)"/><path class="c" d="M45.153,293.13l66.534,38.414a5.233,5.233,0,0,0,4.748,0l91.036-52.559c1.312-.753,1.312-1.986,0-2.739l-66.534-38.414a5.233,5.233,0,0,0-4.748,0L45.153,290.391C43.846,291.15,43.846,292.377,45.153,293.13Z" transform="translate(-38.328 -149.686)"/><path class="f" d="M45.153,293.13l66.534,38.414a5.233,5.233,0,0,0,4.748,0l91.036-52.559c1.312-.753,1.312-1.986,0-2.739l-66.534-38.414a5.233,5.233,0,0,0-4.748,0L45.153,290.391C43.846,291.15,43.846,292.377,45.153,293.13Z" transform="translate(-38.328 -149.686)"/><path class="c" d="M47.061,151.072l87.8-50.659c.782-.456,1.421-.086,1.421.822v68.731a3.15,3.15,0,0,1-1.421,2.465l-87.8,50.659c-.787.456-1.421.086-1.421-.822V153.537A3.144,3.144,0,0,1,47.061,151.072Z" transform="translate(-38.958 -90.841)"/><path class="g" d="M47.061,151.072l87.8-50.659c.782-.456,1.421-.086,1.421.822v68.731a3.15,3.15,0,0,1-1.421,2.465l-87.8,50.659c-.787.456-1.421.086-1.421-.822V153.537A3.144,3.144,0,0,1,47.061,151.072Z" transform="translate(-38.958 -90.841)"/><path class="c" d="M156.623,171.666a3.036,3.036,0,0,0,.611-1.712V101.235c0-.907-.639-1.278-1.421-.822L94.5,135.791Z" transform="translate(-59.938 -90.841)"/><path class="h" d="M156.623,171.666a3.036,3.036,0,0,0,.611-1.712V101.235c0-.907-.639-1.278-1.421-.822L94.5,135.791Z" transform="translate(-59.938 -90.841)"/><path class="c" d="M47.061,151.464a3.144,3.144,0,0,0-1.421,2.465v68.1l87.2-50.334a3.144,3.144,0,0,0,1.427-2.465v-68.1Z" transform="translate(-38.958 -91.233)"/><path class="c" d="M59.043,294.646l84.5-48.782a2.6,2.6,0,0,1,2.374,0l4.325,2.494a.725.725,0,0,1,0,1.369L65.725,298.5a2.619,2.619,0,0,1-2.374,0l-4.308-2.471a.725.725,0,0,1,0-1.387Z" transform="translate(-44.493 -153.257)"/><path class="i" d="M59.043,294.646l84.5-48.782a2.6,2.6,0,0,1,2.374,0l4.325,2.494a.725.725,0,0,1,0,1.369L65.725,298.5a2.619,2.619,0,0,1-2.374,0l-4.308-2.471a.725.725,0,0,1,0-1.387Z" transform="translate(-44.493 -153.257)"/><path class="c" d="M78.633,305.915l84.451-48.788a2.636,2.636,0,0,1,2.374,0l26.585,15.35a.725.725,0,0,1,0,1.369L107.66,322.554a2.648,2.648,0,0,1-2.379,0l-26.648-15.27a.725.725,0,0,1,0-1.369Z" transform="translate(-52.916 -158.095)"/><path class="i" d="M78.633,305.915l84.451-48.788a2.636,2.636,0,0,1,2.374,0l26.585,15.35a.725.725,0,0,1,0,1.369L107.66,322.554a2.648,2.648,0,0,1-2.379,0l-26.648-15.27a.725.725,0,0,1,0-1.369Z" transform="translate(-52.916 -158.095)"/><path class="c" d="M156.082,280.631l2.648-1.529c.108-.063.1-.171,0-.245l-3.059-1.763a.479.479,0,0,0-.422,0l-2.648,1.529a.135.135,0,0,0,0,.245l3.059,1.763a.462.462,0,0,0,.422,0Zm-5.221-6.071-2.648,1.529c-.108.063-.1.171,0,.245l3.058,1.763a.479.479,0,0,0,.422,0l2.648-1.529c.114-.063.1-.177,0-.245l-3.058-1.763A.479.479,0,0,0,150.861,274.56ZM142.3,279.5l-4.474,2.585c-.114.063-.108.177,0,.245l3.059,1.763a.479.479,0,0,0,.422,0l4.479-2.585a.133.133,0,0,0,0-.245L142.73,279.5a.462.462,0,0,0-.417,0Zm4.679-2.7-2.642,1.529c-.114.063-.108.177,0,.245l3.064,1.763a.462.462,0,0,0,.422,0l2.642-1.529c.114-.063.108-.171,0-.245l-3.064-1.763a.48.48,0,0,0-.411,0Zm-10.374,6-2.648,1.524a.132.132,0,0,0,0,.245l3.059,1.769a.479.479,0,0,0,.422,0l2.642-1.529c.114-.063.108-.171,0-.24l-3.059-1.769a.462.462,0,0,0-.405,0Zm-3.869,2.231-2.648,1.529a.13.13,0,0,0,0,.24l3.059,1.769a.462.462,0,0,0,.422,0l2.648-1.524a.135.135,0,0,0,0-.245l-3.059-1.769a.462.462,0,0,0-.411,0Zm12.034,7.184,2.642-1.529c.114-.063.108-.177,0-.245l-3.058-1.763a.462.462,0,0,0-.422,0l-2.648,1.529c-.114.063-.108.171,0,.245l3.059,1.763a.479.479,0,0,0,.439,0Zm-3.857,2.231,2.648-1.529c.108-.063.1-.171,0-.245L140.5,290.9a.479.479,0,0,0-.422,0l-2.653,1.518a.135.135,0,0,0,0,.245l3.059,1.763A.479.479,0,0,0,140.915,294.435Zm-3.869,2.231,2.648-1.529c.114-.063.108-.171,0-.24l-3.059-1.769a.462.462,0,0,0-.422,0l-2.642,1.524a.132.132,0,0,0,0,.245l3.064,1.769A.468.468,0,0,0,137.046,296.666Zm-3.863,2.231,2.648-1.524a.135.135,0,0,0,0-.245l-3.058-1.769a.462.462,0,0,0-.422,0l-2.648,1.529c-.114.063-.1.171,0,.24l3.058,1.769A.462.462,0,0,0,133.183,298.9Zm19.03-16.034,2.648-1.529c.114-.063.108-.171,0-.24l-3.058-1.769a.462.462,0,0,0-.422,0l-2.642,1.524a.132.132,0,0,0,0,.245l3.058,1.769A.479.479,0,0,0,152.213,282.863Zm-3.566,7.1,5.906-3.424c.108-.063.1-.171,0-.245l-7.418-4.285a.479.479,0,0,0-.422,0l-3.053,1.763c-.114.063-.1.177,0,.245l3.932,2.282c.12.068.126.177,0,.24l-2.442,1.415c-.114.063-.108.171,0,.24l3.058,1.769A.462.462,0,0,0,148.647,289.967Zm-19.777-2.716-2.642,1.529c-.114.063-.108.171,0,.24l3.058,1.769a.479.479,0,0,0,.422,0l2.648-1.529a.132.132,0,0,0,0-.245l-3.059-1.763A.462.462,0,0,0,128.869,287.251Zm-3.863,2.231-2.636,1.529c-.114.063-.108.171,0,.245l3.058,1.763a.479.479,0,0,0,.422,0l2.642-1.529c.114-.063.108-.171,0-.245l-3.047-1.752a.479.479,0,0,0-.428-.011ZM105.68,314.515a.462.462,0,0,0,.422,0l2.648-1.529c.114-.063.108-.171,0-.245l-3.064-1.758a.479.479,0,0,0-.422,0l-2.642,1.524a.132.132,0,0,0,0,.245Zm-11.618-7.173-2.625,1.529c-.114.063-.108.171,0,.245L94.5,310.88a.479.479,0,0,0,.422,0l2.642-1.529c.114-.063.108-.177,0-.245L94.5,307.342a.468.468,0,0,0-.434,0Zm6.22,5.238a.479.479,0,0,0,.422,0l2.648-1.529c.114-.063.1-.177,0-.245l-3.058-1.763a.48.48,0,0,0-.422,0l-2.648,1.529c-.108.063-.1.171,0,.245Zm12.217,3.292,2.648-1.529a.13.13,0,0,0,0-.24l-3.058-1.769a.462.462,0,0,0-.422,0l-2.642,1.5a.135.135,0,0,0,0,.245l3.058,1.769a.462.462,0,0,0,.439.023Zm-4.291,2.225a.462.462,0,0,0,.422,0l2.648-1.523c.114-.068.1-.177,0-.245l-3.058-1.769a.479.479,0,0,0-.422,0l-2.636,1.558c-.114.063-.108.171,0,.24ZM97.936,305.111l-2.642,1.529c-.114.063-.108.171,0,.24l3.059,1.769a.462.462,0,0,0,.422,0l2.648-1.524c.114-.068.1-.177,0-.245l-3.058-1.769a.479.479,0,0,0-.417,0Zm19.332-11.161-2.642,1.524a.132.132,0,0,0,0,.245l3.058,1.769a.462.462,0,0,0,.422,0l2.648-1.523a.132.132,0,0,0,0-.245L117.7,293.95a.462.462,0,0,0-.417,0Zm-15.464,8.93L99.2,304.4c-.114.068-.1.177,0,.245l3.058,1.769a.462.462,0,0,0,.422,0l2.648-1.529a.13.13,0,0,0,0-.24l-3.058-1.769a.462.462,0,0,0-.451,0Zm19.332-11.161-2.648,1.524a.135.135,0,0,0,0,.245l3.058,1.763a.462.462,0,0,0,.422,0l2.648-1.529a.13.13,0,0,0,0-.24l-3.058-1.769a.462.462,0,0,0-.411.006Zm-7.732,4.462-2.648,1.529c-.114.063-.1.171,0,.24l3.058,1.769a.462.462,0,0,0,.422,0l2.648-1.518a.132.132,0,0,0,0-.245l-3.058-1.763a.462.462,0,0,0-.411-.011Zm-3.857,2.248-2.648,1.529c-.108.063-.1.171,0,.245l3.058,1.763a.48.48,0,0,0,.422,0l2.648-1.529a.135.135,0,0,0,0-.245l-3.058-1.763A.479.479,0,0,0,109.548,298.429Zm-3.869,2.231-2.642,1.529a.132.132,0,0,0,0,.245L106.1,304.2a.462.462,0,0,0,.422,0l2.642-1.529c.114-.063.108-.171,0-.245L106.1,300.66a.479.479,0,0,0-.422-.017Zm19.766,2.7,2.642-1.529c.114-.063.108-.171,0-.245l-3.064-1.763a.468.468,0,0,0-.417,0l-2.648,1.529c-.114.063-.108.171,0,.245l3.064,1.763a.479.479,0,0,0,.422,0Zm33.957-33.74-2.648,1.529a.135.135,0,0,0,0,.245l3.059,1.763a.462.462,0,0,0,.422,0l2.648-1.529c.114-.063.1-.171,0-.245l-3.058-1.763a.479.479,0,0,0-.417,0Zm-4.679,2.7-2.648,1.529c-.114.063-.1.171,0,.24l3.059,1.769a.462.462,0,0,0,.422,0l2.642-1.524a.132.132,0,0,0,0-.245l-3.059-1.769a.479.479,0,0,0-.411,0Zm8.559-4.936-2.648,1.529c-.114.063-.1.171,0,.245l3.058,1.763a.479.479,0,0,0,.422,0l2.642-1.529a.132.132,0,0,0,0-.245l-3.081-1.752a.462.462,0,0,0-.4-.011Zm-20.017,20.639,2.648-1.529c.114-.063.1-.171,0-.24l-3.059-1.769a.462.462,0,0,0-.422,0l-2.648,1.524a.135.135,0,0,0,0,.245l3.058,1.769a.479.479,0,0,0,.417,0Zm24.3-22.865a.479.479,0,0,0-.422,0L164.5,266.7c-.114.063-.108.171,0,.24l3.058,1.769a.462.462,0,0,0,.422,0l2.648-1.524a.132.132,0,0,0,0-.245Zm-38.231,35.949,2.648-1.524c.114-.068.1-.177,0-.245l-3.116-1.752a.462.462,0,0,0-.422,0l-2.648,1.529a.13.13,0,0,0,0,.24l3.059,1.769a.462.462,0,0,0,.456-.006Zm47.418-27.39L179.4,272.2c.114-.063.1-.171,0-.245l-3.059-1.763a.479.479,0,0,0-.422,0l-2.648,1.529c-.108.063-.1.171,0,.245l3.058,1.763a.479.479,0,0,0,.4.029Zm-8.234-.291,2.642-1.529c.114-.063.108-.171,0-.245L168.1,269.9a.479.479,0,0,0-.422,0l-2.648,1.529c-.114.063-.108.171,0,.245l3.058,1.763a.479.479,0,0,0,.405.029Zm3.424-5.769a.462.462,0,0,0-.422,0l-2.642,1.529c-.114.063-.108.171,0,.24l3.059,1.769a.479.479,0,0,0,.422,0l2.648-1.529a.132.132,0,0,0,0-.245Zm.816-.474,7.418,4.291a.462.462,0,0,0,.422,0l2.642-1.524a.132.132,0,0,0,0-.245l-7.418-4.291a.48.48,0,0,0-.422,0l-2.648,1.529c-.131.091-.126.2-.006.268Zm-8.981,4.987-2.648,1.524a.135.135,0,0,0,0,.245l3.058,1.763a.462.462,0,0,0,.422,0l2.648-1.529a.13.13,0,0,0,0-.24l-3.059-1.769a.462.462,0,0,0-.422.006Zm-29.1,16.8-2.648,1.529c-.114.063-.1.171,0,.24l3.059,1.769a.479.479,0,0,0,.422,0l2.648-1.529a.135.135,0,0,0,0-.245L135.1,288.98a.462.462,0,0,0-.422-.029ZM172.447,276a.462.462,0,0,0,.422,0l2.642-1.529c.114-.063.108-.171,0-.24l-3.064-1.769a.468.468,0,0,0-.417,0l-2.648,1.5a.132.132,0,0,0,0,.245ZM138.57,286.72l-2.642,1.529c-.114.063-.108.171,0,.24l3.058,1.769a.462.462,0,0,0,.422,0l2.642-1.524a.132.132,0,0,0,0-.245l-3.064-1.769A.479.479,0,0,0,138.57,286.72Zm-28.982,25.564a.48.48,0,0,0,.422,0l2.648-1.529a.135.135,0,0,0,0-.245l-3.058-1.763a.479.479,0,0,0-.422,0l-2.648,1.529c-.108.063-.1.171,0,.245Zm-5.826-5.472-2.648,1.529c-.114.063-.1.171,0,.24l3.058,1.769a.462.462,0,0,0,.422,0l2.642-1.524a.132.132,0,0,0,0-.245l-3.058-1.769a.479.479,0,0,0-.417,0Zm10.106,3.247,2.642-1.524a.132.132,0,0,0,0-.245l-3.058-1.763a.462.462,0,0,0-.422,0l-2.648,1.529c-.114.063-.108.171,0,.24l3.058,1.769a.462.462,0,0,0,.411-.006Zm3.863-2.231,2.648-1.524c.114-.068.1-.177,0-.245l-3.058-1.769a.462.462,0,0,0-.422,0l-2.642,1.524a.132.132,0,0,0,0,.245l3.058,1.769a.462.462,0,0,0,.4,0ZM121.6,305.6l2.648-1.529a.13.13,0,0,0,0-.24l-3.058-1.769a.462.462,0,0,0-.422,0l-2.682,1.506c-.114.068-.1.177,0,.245l3.058,1.763a.462.462,0,0,0,.439.023Zm-13.974-1.016-2.642,1.524a.132.132,0,0,0,0,.245l3.058,1.769a.462.462,0,0,0,.422,0l2.648-1.524a.132.132,0,0,0,0-.245l-3.058-1.769a.462.462,0,0,0-.445,0Zm3.869-2.231-2.648,1.524a.135.135,0,0,0,0,.245l3.058,1.763a.462.462,0,0,0,.422,0l2.648-1.529a.13.13,0,0,0,0-.24l-3.058-1.769a.462.462,0,0,0-.439.006Zm15.469-8.93-2.659,1.524a.132.132,0,0,0,0,.245l3.058,1.763a.462.462,0,0,0,.422,0l2.642-1.529c.114-.063.108-.171,0-.24l-3.058-1.769a.462.462,0,0,0-.422.006Zm-3.869,2.231-2.648,1.529a.13.13,0,0,0,0,.24l3.058,1.769a.462.462,0,0,0,.422,0l2.648-1.524a.135.135,0,0,0,0-.245l-3.058-1.769a.462.462,0,0,0-.439,0Zm7.732-4.468-2.659,1.541c-.114.063-.108.177,0,.245l3.058,1.763a.462.462,0,0,0,.422,0L134.3,293.2c.114-.063.1-.171,0-.245l-3.059-1.763a.479.479,0,0,0-.428-.011Zm-15.481,8.959L112.7,301.67c-.114.063-.108.171,0,.245l3.058,1.763a.479.479,0,0,0,.422,0l2.642-1.529c.114-.063.108-.171,0-.245l-3.076-1.763A.479.479,0,0,0,115.346,300.141Zm3.863-2.231-2.642,1.529c-.114.063-.108.171,0,.24l3.058,1.769a.48.48,0,0,0,.422,0l2.648-1.529a.132.132,0,0,0,0-.245l-3.058-1.763a.462.462,0,0,0-.428-.051Zm-2.819,15.76,2.642-1.529c.114-.063.108-.171,0-.24l-3.064-1.769a.462.462,0,0,0-.422,0l-2.653,1.489a.132.132,0,0,0,0,.245l3.064,1.763a.462.462,0,0,0,.434.011ZM93.7,311.388l-3.059-1.8a.479.479,0,0,0-.422,0l-2.648,1.529a.135.135,0,0,0,0,.245l3.07,1.752a.462.462,0,0,0,.422,0l2.648-1.529c.114-.029.108-.16-.011-.234Zm5.8,1.712-3.064-1.769a.48.48,0,0,0-.422,0l-4.068,2.351c-.114.068-.1.177,0,.245L95,315.69a.462.462,0,0,0,.422,0l4.068-2.351c.131-.108.126-.217.006-.285ZM89,307.964,85.942,306.2a.462.462,0,0,0-.422,0l-3.253,1.877a.132.132,0,0,0,0,.245l3.059,1.769a.462.462,0,0,0,.422,0l3.258-1.877a.151.151,0,0,0-.006-.28Zm2.5-1.444a.462.462,0,0,0,.422,0l2.648-1.529a.13.13,0,0,0,0-.24l-3.076-1.758a.462.462,0,0,0-.422,0l-2.648,1.524c-.114.068-.1.177,0,.245Zm13.4,8.456-3.058-1.769a.462.462,0,0,0-.422,0l-5.09,2.933c-.114.068-.1.177,0,.245l3.058,1.769a.462.462,0,0,0,.422,0l5.084-2.939C105.006,315.165,105,315.057,104.9,314.977Zm2.539,3.578-3.058-1.763a.479.479,0,0,0-.422,0l-3.258,1.883c-.114.063-.108.171,0,.24l3.058,1.769a.462.462,0,0,0,.422,0l3.253-1.877c.108-.057.1-.171-.017-.24Zm12.827-28.668a.48.48,0,0,0,.422,0l2.648-1.529c.114-.063.1-.171,0-.24l-3.058-1.769a.462.462,0,0,0-.422,0l-2.642,1.524a.132.132,0,0,0,0,.245Zm-7.732,4.462a.479.479,0,0,0,.422,0l2.648-1.529a.135.135,0,0,0,0-.245l-3.058-1.763a.462.462,0,0,0-.422,0l-2.659,1.541c-.108.063-.1.171,0,.245Zm-17.118,9.9a.479.479,0,0,0,.422,0l2.642-1.529c.114-.063.108-.171,0-.245l-3.127-1.763a.479.479,0,0,0-.422,0l-2.642,1.541c-.114.063-.108.171,0,.245Zm20.964-12.1a.462.462,0,0,0,.422,0l2.642-1.524a.132.132,0,0,0,0-.245l-3.064-1.769a.468.468,0,0,0-.417,0l-2.648,1.529c-.114.063-.108.171,0,.24Zm-7.738,4.462a.48.48,0,0,0,.422,0l2.648-1.529c.114-.063.1-.171,0-.245l-3.058-1.763a.479.479,0,0,0-.422,0l-2.642,1.529c-.114.063-.108.177,0,.245Zm.9,22.254a.462.462,0,0,0-.422,0l-4.068,2.351c-.114.063-.108.171,0,.245l3.064,1.763a.48.48,0,0,0,.422,0l4.068-2.351c.114-.068.1-.177,0-.245ZM103.1,299.81a.462.462,0,0,0,.422,0l2.642-1.524a.132.132,0,0,0,0-.245l-3.058-1.769a.462.462,0,0,0-.422,0l-2.648,1.529c-.114.063-.1.171,0,.24Zm-3.869,2.231a.479.479,0,0,0,.422,0l2.648-1.529c.114-.068.1-.177,0-.245L99.243,298.5a.462.462,0,0,0-.422,0l-2.648,1.529a.13.13,0,0,0,0,.24ZM181.178,277.5a.479.479,0,0,0-.422,0l-6.511,3.76c-.114.063-.108.171,0,.245l3.058,1.763a.479.479,0,0,0,.422,0l6.511-3.76a.132.132,0,0,0,0-.245Zm-8.559,4.936a.462.462,0,0,0-.422,0l-2.642,1.524a.132.132,0,0,0,0,.245l3.059,1.769a.462.462,0,0,0,.422,0l2.648-1.529c.114-.063.108-.171,0-.24Zm-52.365,28.97,2.648-1.529c.114-.063.1-.171,0-.245l-3.058-1.763a.479.479,0,0,0-.422,0l-2.648,1.529c-.108.063-.1.171,0,.245l3.058,1.763A.479.479,0,0,0,120.253,311.41ZM164.9,286.874a.462.462,0,0,0-.422,0l-2.648,1.529c-.108.063-.1.171,0,.245l3.059,1.763a.479.479,0,0,0,.422,0l2.648-1.529a.135.135,0,0,0,0-.245Zm20.148-11.635a.462.462,0,0,0-.422,0l-2.648,1.524a.135.135,0,0,0,0,.245l3.058,1.769a.479.479,0,0,0,.422,0l2.648-1.529a.13.13,0,0,0,0-.24Zm6.927-.462-7.418-4.291a.479.479,0,0,0-.422,0l-2.648,1.529c-.114.063-.108.171,0,.245l7.418,4.285a.462.462,0,0,0,.422,0l2.642-1.529c.131-.04.126-.148.006-.217ZM150.45,295.216a.462.462,0,0,0-.422,0l-3.258,1.883c-.114.063-.1.171,0,.24l3.058,1.769a.462.462,0,0,0,.422,0l3.258-1.877a.135.135,0,0,0,0-.245Zm9.769-5.643a.462.462,0,0,0-.422,0l-4.074,2.351a.13.13,0,0,0,0,.24l3.059,1.769a.462.462,0,0,0,.422,0l4.068-2.345a.132.132,0,0,0,0-.245ZM141.5,300.415a.462.462,0,0,0-.422,0l-21.78,12.554a.135.135,0,0,0,0,.245l3.058,1.769a.462.462,0,0,0,.422,0l21.775-12.554c.114-.063.108-.177,0-.245Zm-23,13.278a.462.462,0,0,0-.422,0l-3.252,1.877a.132.132,0,0,0,0,.245l3.058,1.769a.462.462,0,0,0,.422,0l3.258-1.877a.132.132,0,0,0,0-.245Zm27.492-15.869a.462.462,0,0,0-.422,0l-3.253,1.883c-.114.063-.108.171,0,.24l3.059,1.769a.462.462,0,0,0,.422,0l3.258-1.877c.114-.063.1-.177,0-.245Zm-31.954,18.448a.462.462,0,0,0-.422,0l-3.258,1.877a.133.133,0,0,0,0,.245l3.058,1.769a.462.462,0,0,0,.422,0l3.252-1.877a.132.132,0,0,0,0-.245Zm40.9-23.618a.462.462,0,0,0-.422,0l-3.253,1.883c-.114.063-.108.171,0,.24l3.064,1.769a.462.462,0,0,0,.422,0L158,294.669c.114-.063.108-.177,0-.245Zm13.843-7.989a.479.479,0,0,0-.422,0l-2.648,1.529c-.114.063-.1.171,0,.24l3.058,1.769a.462.462,0,0,0,.422,0l2.642-1.523a.132.132,0,0,0,0-.245Zm8.468-6.151,2.648-1.529c.114-.063.108-.171,0-.24l-3.058-1.769a.462.462,0,0,0-.422,0l-2.642,1.524a.132.132,0,0,0,0,.245l3.064,1.769a.451.451,0,0,0,.4-.006Zm-17.284-.108,2.642-1.529c.114-.063.108-.177,0-.245l-3.058-1.763a.462.462,0,0,0-.422,0l-2.648,1.529c-.114.063-.108.171,0,.245l3.059,1.763a.479.479,0,0,0,.417-.006Zm-8.765,15.15,7.738-4.468a.13.13,0,0,0,0-.24l-3.059-1.769a.462.462,0,0,0-.422,0L147.7,291.53c-.114.063-.108.177,0,.245l3.058,1.763a.462.462,0,0,0,.428.011Zm21.752-12.816a.462.462,0,0,0,.422,0l2.642-1.524a.132.132,0,0,0,0-.245l-3.059-1.769a.479.479,0,0,0-.422,0l-2.648,1.529c-.114.063-.1.171,0,.24ZM169,278.223l2.665-1.535a.13.13,0,0,0,0-.24l-3.058-1.769a.462.462,0,0,0-.422,0l-2.682,1.5a.135.135,0,0,0,0,.245l3.058,1.769a.462.462,0,0,0,.439.029Zm-21.683,17.564,2.642-1.529c.114-.063.108-.171,0-.24l-3.058-1.769a.462.462,0,0,0-.422,0l-2.648,1.523a.132.132,0,0,0,0,.245l3.058,1.769a.479.479,0,0,0,.434-.006ZM164.4,285.676a.462.462,0,0,0,.422,0l2.648-1.523a.135.135,0,0,0,0-.245l-3.059-1.769a.462.462,0,0,0-.422,0l-2.648,1.524c-.114.068-.1.177,0,.245Zm-36.417,21.273,2.648-1.524a.132.132,0,0,0,0-.245l-3.064-1.769a.462.462,0,0,0-.422,0L124.5,304.94c-.114.063-.108.171,0,.24l3.064,1.769a.451.451,0,0,0,.422-.006Zm3.869-2.231,2.648-1.529a.13.13,0,0,0,0-.24l-3.058-1.769a.462.462,0,0,0-.422,0l-2.648,1.523a.135.135,0,0,0,0,.245l3.058,1.763a.462.462,0,0,0,.428-.006Zm-7.732,4.462,2.642-1.524a.132.132,0,0,0,0-.245l-3.058-1.763a.462.462,0,0,0-.422,0l-2.648,1.529c-.114.063-.1.171,0,.24l3.058,1.769a.462.462,0,0,0,.434-.011Zm15.464-8.924,2.648-1.529a.132.132,0,0,0,0-.245l-3.087-1.763a.462.462,0,0,0-.422,0l-2.642,1.529c-.114.063-.108.171,0,.24l3.059,1.769a.479.479,0,0,0,.451-.006Zm-3.863,2.225,2.642-1.529c.114-.063.108-.171,0-.245l-3.059-1.763a.479.479,0,0,0-.422,0l-2.648,1.529c-.114.063-.108.177,0,.245l3.058,1.763a.479.479,0,0,0,.428,0Zm7.732-4.468,2.648-1.524a.135.135,0,0,0,0-.245l-3.058-1.769a.462.462,0,0,0-.422,0L139.968,296a.13.13,0,0,0,0,.24l3.059,1.769a.462.462,0,0,0,.428,0Zm17.689-33.021a.479.479,0,0,0,.422,0l2.648-1.529c.114-.063.1-.171,0-.24l-.816-.474a.462.462,0,0,0-.422,0l-2.642,1.529c-.114.063-.108.171,0,.24Zm-19.024,12.28a.462.462,0,0,0,.422,0l2.648-1.524a.135.135,0,0,0,0-.245l-3.059-1.769a.462.462,0,0,0-.422,0l-2.648,1.524a.135.135,0,0,0,0,.245Zm7.732-4.468a.479.479,0,0,0,.422,0l2.648-1.529c.114-.063.1-.171,0-.245l-3.058-1.763a.48.48,0,0,0-.422,0l-2.642,1.529c-.114.063-.108.177,0,.245Zm-12.417,7.19a.462.462,0,0,0,.422,0l2.642-1.529c.114-.063.108-.171,0-.24l-3.064-1.769a.451.451,0,0,0-.417,0l-2.648,1.524a.132.132,0,0,0,0,.245Zm8.559-4.959a.462.462,0,0,0,.422,0l2.642-1.529c.114-.063.108-.171,0-.24l-3.059-1.769a.462.462,0,0,0-.422,0l-2.648,1.524a.132.132,0,0,0,0,.245Zm-16.325,9.427a.462.462,0,0,0,.422,0l2.648-1.524a.133.133,0,0,0,0-.245l-3.059-1.769a.479.479,0,0,0-.422,0l-2.665,1.529c-.114.063-.108.171,0,.24Zm3.869-2.231a.462.462,0,0,0,.422,0L136.6,280.7a.13.13,0,0,0,0-.24l-3.058-1.769a.462.462,0,0,0-.422,0l-2.648,1.524a.135.135,0,0,0,0,.245Zm19.874-12.776a.479.479,0,0,0,.422,0l2.648-1.529a.135.135,0,0,0,0-.245l-.816-.468a.479.479,0,0,0-.422,0l-2.653,1.546c-.114.063-.108.171,0,.245Zm11.6-6.7a.462.462,0,0,0,.422,0l2.642-1.529c.114-.063.108-.171,0-.245l-.816-.468a.462.462,0,0,0-.422,0l-2.642,1.524a.132.132,0,0,0,0,.245Zm6.431,3.72a.479.479,0,0,0,.422,0l2.648-1.529a.13.13,0,0,0,0-.24l-3.059-1.769a.462.462,0,0,0-.422,0l-2.648,1.524a.135.135,0,0,0,0,.245Zm9.666,9.809,2.648-1.529a.13.13,0,0,0,0-.24l-3.058-1.769a.48.48,0,0,0-.422,0l-2.648,1.529a.135.135,0,0,0,0,.245l3.059,1.763a.462.462,0,0,0,.422-.006Zm-23.823-9.056a.462.462,0,0,0,.422,0l2.642-1.524a.132.132,0,0,0,0-.245l-.816-.468a.462.462,0,0,0-.422,0l-2.648,1.529a.13.13,0,0,0,0,.24ZM125.8,286.7a.479.479,0,0,0,.422,0l2.642-1.529c.114-.063.108-.177,0-.245l-3.058-1.763a.462.462,0,0,0-.422,0l-2.648,1.529c-.114.063-.108.171,0,.245Z" transform="translate(-54.649 -159.647)"/><path class="j" d="M156.082,280.631l2.648-1.529c.108-.063.1-.171,0-.245l-3.059-1.763a.479.479,0,0,0-.422,0l-2.648,1.529a.135.135,0,0,0,0,.245l3.059,1.763a.462.462,0,0,0,.422,0Zm-5.221-6.071-2.648,1.529c-.108.063-.1.171,0,.245l3.058,1.763a.479.479,0,0,0,.422,0l2.648-1.529c.114-.063.1-.177,0-.245l-3.058-1.763A.479.479,0,0,0,150.861,274.56ZM142.3,279.5l-4.474,2.585c-.114.063-.108.177,0,.245l3.059,1.763a.479.479,0,0,0,.422,0l4.479-2.585a.133.133,0,0,0,0-.245L142.73,279.5a.462.462,0,0,0-.417,0Zm4.679-2.7-2.642,1.529c-.114.063-.108.177,0,.245l3.064,1.763a.462.462,0,0,0,.422,0l2.642-1.529c.114-.063.108-.171,0-.245l-3.064-1.763a.48.48,0,0,0-.411,0Zm-10.374,6-2.648,1.524a.132.132,0,0,0,0,.245l3.059,1.769a.479.479,0,0,0,.422,0l2.642-1.529c.114-.063.108-.171,0-.24l-3.059-1.769a.462.462,0,0,0-.405,0Zm-3.869,2.231-2.648,1.529a.13.13,0,0,0,0,.24l3.059,1.769a.462.462,0,0,0,.422,0l2.648-1.524a.135.135,0,0,0,0-.245l-3.059-1.769a.462.462,0,0,0-.411,0Zm12.034,7.184,2.642-1.529c.114-.063.108-.177,0-.245l-3.058-1.763a.462.462,0,0,0-.422,0l-2.648,1.529c-.114.063-.108.171,0,.245l3.059,1.763a.479.479,0,0,0,.439,0Zm-3.857,2.231,2.648-1.529c.108-.063.1-.171,0-.245L140.5,290.9a.479.479,0,0,0-.422,0l-2.653,1.518a.135.135,0,0,0,0,.245l3.059,1.763A.479.479,0,0,0,140.915,294.435Zm-3.869,2.231,2.648-1.529c.114-.063.108-.171,0-.24l-3.059-1.769a.462.462,0,0,0-.422,0l-2.642,1.524a.132.132,0,0,0,0,.245l3.064,1.769A.468.468,0,0,0,137.046,296.666Zm-3.863,2.231,2.648-1.524a.135.135,0,0,0,0-.245l-3.058-1.769a.462.462,0,0,0-.422,0l-2.648,1.529c-.114.063-.1.171,0,.24l3.058,1.769A.462.462,0,0,0,133.183,298.9Zm19.03-16.034,2.648-1.529c.114-.063.108-.171,0-.24l-3.058-1.769a.462.462,0,0,0-.422,0l-2.642,1.524a.132.132,0,0,0,0,.245l3.058,1.769A.479.479,0,0,0,152.213,282.863Zm-3.566,7.1,5.906-3.424c.108-.063.1-.171,0-.245l-7.418-4.285a.479.479,0,0,0-.422,0l-3.053,1.763c-.114.063-.1.177,0,.245l3.932,2.282c.12.068.126.177,0,.24l-2.442,1.415c-.114.063-.108.171,0,.24l3.058,1.769A.462.462,0,0,0,148.647,289.967Zm-19.777-2.716-2.642,1.529c-.114.063-.108.171,0,.24l3.058,1.769a.479.479,0,0,0,.422,0l2.648-1.529a.132.132,0,0,0,0-.245l-3.059-1.763A.462.462,0,0,0,128.869,287.251Zm-3.863,2.231-2.636,1.529c-.114.063-.108.171,0,.245l3.058,1.763a.479.479,0,0,0,.422,0l2.642-1.529c.114-.063.108-.171,0-.245l-3.047-1.752a.479.479,0,0,0-.428-.011ZM105.68,314.515a.462.462,0,0,0,.422,0l2.648-1.529c.114-.063.108-.171,0-.245l-3.064-1.758a.479.479,0,0,0-.422,0l-2.642,1.524a.132.132,0,0,0,0,.245Zm-11.618-7.173-2.625,1.529c-.114.063-.108.171,0,.245L94.5,310.88a.479.479,0,0,0,.422,0l2.642-1.529c.114-.063.108-.177,0-.245L94.5,307.342a.468.468,0,0,0-.434,0Zm6.22,5.238a.479.479,0,0,0,.422,0l2.648-1.529c.114-.063.1-.177,0-.245l-3.058-1.763a.48.48,0,0,0-.422,0l-2.648,1.529c-.108.063-.1.171,0,.245Zm12.217,3.292,2.648-1.529a.13.13,0,0,0,0-.24l-3.058-1.769a.462.462,0,0,0-.422,0l-2.642,1.5a.135.135,0,0,0,0,.245l3.058,1.769a.462.462,0,0,0,.439.023Zm-4.291,2.225a.462.462,0,0,0,.422,0l2.648-1.523c.114-.068.1-.177,0-.245l-3.058-1.769a.479.479,0,0,0-.422,0l-2.636,1.558c-.114.063-.108.171,0,.24ZM97.936,305.111l-2.642,1.529c-.114.063-.108.171,0,.24l3.059,1.769a.462.462,0,0,0,.422,0l2.648-1.524c.114-.068.1-.177,0-.245l-3.058-1.769a.479.479,0,0,0-.417,0Zm19.332-11.161-2.642,1.524a.132.132,0,0,0,0,.245l3.058,1.769a.462.462,0,0,0,.422,0l2.648-1.523a.132.132,0,0,0,0-.245L117.7,293.95a.462.462,0,0,0-.417,0Zm-15.464,8.93L99.2,304.4c-.114.068-.1.177,0,.245l3.058,1.769a.462.462,0,0,0,.422,0l2.648-1.529a.13.13,0,0,0,0-.24l-3.058-1.769a.462.462,0,0,0-.451,0Zm19.332-11.161-2.648,1.524a.135.135,0,0,0,0,.245l3.058,1.763a.462.462,0,0,0,.422,0l2.648-1.529a.13.13,0,0,0,0-.24l-3.058-1.769a.462.462,0,0,0-.411.006Zm-7.732,4.462-2.648,1.529c-.114.063-.1.171,0,.24l3.058,1.769a.462.462,0,0,0,.422,0l2.648-1.518a.132.132,0,0,0,0-.245l-3.058-1.763a.462.462,0,0,0-.411-.011Zm-3.857,2.248-2.648,1.529c-.108.063-.1.171,0,.245l3.058,1.763a.48.48,0,0,0,.422,0l2.648-1.529a.135.135,0,0,0,0-.245l-3.058-1.763A.479.479,0,0,0,109.548,298.429Zm-3.869,2.231-2.642,1.529a.132.132,0,0,0,0,.245L106.1,304.2a.462.462,0,0,0,.422,0l2.642-1.529c.114-.063.108-.171,0-.245L106.1,300.66a.479.479,0,0,0-.422-.017Zm19.766,2.7,2.642-1.529c.114-.063.108-.171,0-.245l-3.064-1.763a.468.468,0,0,0-.417,0l-2.648,1.529c-.114.063-.108.171,0,.245l3.064,1.763a.479.479,0,0,0,.422,0Zm33.957-33.74-2.648,1.529a.135.135,0,0,0,0,.245l3.059,1.763a.462.462,0,0,0,.422,0l2.648-1.529c.114-.063.1-.171,0-.245l-3.058-1.763a.479.479,0,0,0-.417,0Zm-4.679,2.7-2.648,1.529c-.114.063-.1.171,0,.24l3.059,1.769a.462.462,0,0,0,.422,0l2.642-1.524a.132.132,0,0,0,0-.245l-3.059-1.769a.479.479,0,0,0-.411,0Zm8.559-4.936-2.648,1.529c-.114.063-.1.171,0,.245l3.058,1.763a.479.479,0,0,0,.422,0l2.642-1.529a.132.132,0,0,0,0-.245l-3.081-1.752a.462.462,0,0,0-.4-.011Zm-20.017,20.639,2.648-1.529c.114-.063.1-.171,0-.24l-3.059-1.769a.462.462,0,0,0-.422,0l-2.648,1.524a.135.135,0,0,0,0,.245l3.058,1.769a.479.479,0,0,0,.417,0Zm24.3-22.865a.479.479,0,0,0-.422,0L164.5,266.7c-.114.063-.108.171,0,.24l3.058,1.769a.462.462,0,0,0,.422,0l2.648-1.524a.132.132,0,0,0,0-.245Zm-38.231,35.949,2.648-1.524c.114-.068.1-.177,0-.245l-3.116-1.752a.462.462,0,0,0-.422,0l-2.648,1.529a.13.13,0,0,0,0,.24l3.059,1.769a.462.462,0,0,0,.456-.006Zm47.418-27.39L179.4,272.2c.114-.063.1-.171,0-.245l-3.059-1.763a.479.479,0,0,0-.422,0l-2.648,1.529c-.108.063-.1.171,0,.245l3.058,1.763a.479.479,0,0,0,.4.029Zm-8.234-.291,2.642-1.529c.114-.063.108-.171,0-.245L168.1,269.9a.479.479,0,0,0-.422,0l-2.648,1.529c-.114.063-.108.171,0,.245l3.058,1.763a.479.479,0,0,0,.405.029Zm3.424-5.769a.462.462,0,0,0-.422,0l-2.642,1.529c-.114.063-.108.171,0,.24l3.059,1.769a.479.479,0,0,0,.422,0l2.648-1.529a.132.132,0,0,0,0-.245Zm.816-.474,7.418,4.291a.462.462,0,0,0,.422,0l2.642-1.524a.132.132,0,0,0,0-.245l-7.418-4.291a.48.48,0,0,0-.422,0l-2.648,1.529c-.131.091-.126.2-.006.268Zm-8.981,4.987-2.648,1.524a.135.135,0,0,0,0,.245l3.058,1.763a.462.462,0,0,0,.422,0l2.648-1.529a.13.13,0,0,0,0-.24l-3.059-1.769a.462.462,0,0,0-.422.006Zm-29.1,16.8-2.648,1.529c-.114.063-.1.171,0,.24l3.059,1.769a.479.479,0,0,0,.422,0l2.648-1.529a.135.135,0,0,0,0-.245L135.1,288.98a.462.462,0,0,0-.422-.029ZM172.447,276a.462.462,0,0,0,.422,0l2.642-1.529c.114-.063.108-.171,0-.24l-3.064-1.769a.468.468,0,0,0-.417,0l-2.648,1.5a.132.132,0,0,0,0,.245ZM138.57,286.72l-2.642,1.529c-.114.063-.108.171,0,.24l3.058,1.769a.462.462,0,0,0,.422,0l2.642-1.524a.132.132,0,0,0,0-.245l-3.064-1.769A.479.479,0,0,0,138.57,286.72Zm-28.982,25.564a.48.48,0,0,0,.422,0l2.648-1.529a.135.135,0,0,0,0-.245l-3.058-1.763a.479.479,0,0,0-.422,0l-2.648,1.529c-.108.063-.1.171,0,.245Zm-5.826-5.472-2.648,1.529c-.114.063-.1.171,0,.24l3.058,1.769a.462.462,0,0,0,.422,0l2.642-1.524a.132.132,0,0,0,0-.245l-3.058-1.769a.479.479,0,0,0-.417,0Zm10.106,3.247,2.642-1.524a.132.132,0,0,0,0-.245l-3.058-1.763a.462.462,0,0,0-.422,0l-2.648,1.529c-.114.063-.108.171,0,.24l3.058,1.769a.462.462,0,0,0,.411-.006Zm3.863-2.231,2.648-1.524c.114-.068.1-.177,0-.245l-3.058-1.769a.462.462,0,0,0-.422,0l-2.642,1.524a.132.132,0,0,0,0,.245l3.058,1.769a.462.462,0,0,0,.4,0ZM121.6,305.6l2.648-1.529a.13.13,0,0,0,0-.24l-3.058-1.769a.462.462,0,0,0-.422,0l-2.682,1.506c-.114.068-.1.177,0,.245l3.058,1.763a.462.462,0,0,0,.439.023Zm-13.974-1.016-2.642,1.524a.132.132,0,0,0,0,.245l3.058,1.769a.462.462,0,0,0,.422,0l2.648-1.524a.132.132,0,0,0,0-.245l-3.058-1.769a.462.462,0,0,0-.445,0Zm3.869-2.231-2.648,1.524a.135.135,0,0,0,0,.245l3.058,1.763a.462.462,0,0,0,.422,0l2.648-1.529a.13.13,0,0,0,0-.24l-3.058-1.769a.462.462,0,0,0-.439.006Zm15.469-8.93-2.659,1.524a.132.132,0,0,0,0,.245l3.058,1.763a.462.462,0,0,0,.422,0l2.642-1.529c.114-.063.108-.171,0-.24l-3.058-1.769a.462.462,0,0,0-.422.006Zm-3.869,2.231-2.648,1.529a.13.13,0,0,0,0,.24l3.058,1.769a.462.462,0,0,0,.422,0l2.648-1.524a.135.135,0,0,0,0-.245l-3.058-1.769a.462.462,0,0,0-.439,0Zm7.732-4.468-2.659,1.541c-.114.063-.108.177,0,.245l3.058,1.763a.462.462,0,0,0,.422,0L134.3,293.2c.114-.063.1-.171,0-.245l-3.059-1.763a.479.479,0,0,0-.428-.011Zm-15.481,8.959L112.7,301.67c-.114.063-.108.171,0,.245l3.058,1.763a.479.479,0,0,0,.422,0l2.642-1.529c.114-.063.108-.171,0-.245l-3.076-1.763A.479.479,0,0,0,115.346,300.141Zm3.863-2.231-2.642,1.529c-.114.063-.108.171,0,.24l3.058,1.769a.48.48,0,0,0,.422,0l2.648-1.529a.132.132,0,0,0,0-.245l-3.058-1.763a.462.462,0,0,0-.428-.051Zm-2.819,15.76,2.642-1.529c.114-.063.108-.171,0-.24l-3.064-1.769a.462.462,0,0,0-.422,0l-2.653,1.489a.132.132,0,0,0,0,.245l3.064,1.763a.462.462,0,0,0,.434.011ZM93.7,311.388l-3.059-1.8a.479.479,0,0,0-.422,0l-2.648,1.529a.135.135,0,0,0,0,.245l3.07,1.752a.462.462,0,0,0,.422,0l2.648-1.529c.114-.029.108-.16-.011-.234Zm5.8,1.712-3.064-1.769a.48.48,0,0,0-.422,0l-4.068,2.351c-.114.068-.1.177,0,.245L95,315.69a.462.462,0,0,0,.422,0l4.068-2.351c.131-.108.126-.217.006-.285ZM89,307.964,85.942,306.2a.462.462,0,0,0-.422,0l-3.253,1.877a.132.132,0,0,0,0,.245l3.059,1.769a.462.462,0,0,0,.422,0l3.258-1.877a.151.151,0,0,0-.006-.28Zm2.5-1.444a.462.462,0,0,0,.422,0l2.648-1.529a.13.13,0,0,0,0-.24l-3.076-1.758a.462.462,0,0,0-.422,0l-2.648,1.524c-.114.068-.1.177,0,.245Zm13.4,8.456-3.058-1.769a.462.462,0,0,0-.422,0l-5.09,2.933c-.114.068-.1.177,0,.245l3.058,1.769a.462.462,0,0,0,.422,0l5.084-2.939C105.006,315.165,105,315.057,104.9,314.977Zm2.539,3.578-3.058-1.763a.479.479,0,0,0-.422,0l-3.258,1.883c-.114.063-.108.171,0,.24l3.058,1.769a.462.462,0,0,0,.422,0l3.253-1.877c.108-.057.1-.171-.017-.24Zm12.827-28.668a.48.48,0,0,0,.422,0l2.648-1.529c.114-.063.1-.171,0-.24l-3.058-1.769a.462.462,0,0,0-.422,0l-2.642,1.524a.132.132,0,0,0,0,.245Zm-7.732,4.462a.479.479,0,0,0,.422,0l2.648-1.529a.135.135,0,0,0,0-.245l-3.058-1.763a.462.462,0,0,0-.422,0l-2.659,1.541c-.108.063-.1.171,0,.245Zm-17.118,9.9a.479.479,0,0,0,.422,0l2.642-1.529c.114-.063.108-.171,0-.245l-3.127-1.763a.479.479,0,0,0-.422,0l-2.642,1.541c-.114.063-.108.171,0,.245Zm20.964-12.1a.462.462,0,0,0,.422,0l2.642-1.524a.132.132,0,0,0,0-.245l-3.064-1.769a.468.468,0,0,0-.417,0l-2.648,1.529c-.114.063-.108.171,0,.24Zm-7.738,4.462a.48.48,0,0,0,.422,0l2.648-1.529c.114-.063.1-.171,0-.245l-3.058-1.763a.479.479,0,0,0-.422,0l-2.642,1.529c-.114.063-.108.177,0,.245Zm.9,22.254a.462.462,0,0,0-.422,0l-4.068,2.351c-.114.063-.108.171,0,.245l3.064,1.763a.48.48,0,0,0,.422,0l4.068-2.351c.114-.068.1-.177,0-.245ZM103.1,299.81a.462.462,0,0,0,.422,0l2.642-1.524a.132.132,0,0,0,0-.245l-3.058-1.769a.462.462,0,0,0-.422,0l-2.648,1.529c-.114.063-.1.171,0,.24Zm-3.869,2.231a.479.479,0,0,0,.422,0l2.648-1.529c.114-.068.1-.177,0-.245L99.243,298.5a.462.462,0,0,0-.422,0l-2.648,1.529a.13.13,0,0,0,0,.24ZM181.178,277.5a.479.479,0,0,0-.422,0l-6.511,3.76c-.114.063-.108.171,0,.245l3.058,1.763a.479.479,0,0,0,.422,0l6.511-3.76a.132.132,0,0,0,0-.245Zm-8.559,4.936a.462.462,0,0,0-.422,0l-2.642,1.524a.132.132,0,0,0,0,.245l3.059,1.769a.462.462,0,0,0,.422,0l2.648-1.529c.114-.063.108-.171,0-.24Zm-52.365,28.97,2.648-1.529c.114-.063.1-.171,0-.245l-3.058-1.763a.479.479,0,0,0-.422,0l-2.648,1.529c-.108.063-.1.171,0,.245l3.058,1.763A.479.479,0,0,0,120.253,311.41ZM164.9,286.874a.462.462,0,0,0-.422,0l-2.648,1.529c-.108.063-.1.171,0,.245l3.059,1.763a.479.479,0,0,0,.422,0l2.648-1.529a.135.135,0,0,0,0-.245Zm20.148-11.635a.462.462,0,0,0-.422,0l-2.648,1.524a.135.135,0,0,0,0,.245l3.058,1.769a.479.479,0,0,0,.422,0l2.648-1.529a.13.13,0,0,0,0-.24Zm6.927-.462-7.418-4.291a.479.479,0,0,0-.422,0l-2.648,1.529c-.114.063-.108.171,0,.245l7.418,4.285a.462.462,0,0,0,.422,0l2.642-1.529c.131-.04.126-.148.006-.217ZM150.45,295.216a.462.462,0,0,0-.422,0l-3.258,1.883c-.114.063-.1.171,0,.24l3.058,1.769a.462.462,0,0,0,.422,0l3.258-1.877a.135.135,0,0,0,0-.245Zm9.769-5.643a.462.462,0,0,0-.422,0l-4.074,2.351a.13.13,0,0,0,0,.24l3.059,1.769a.462.462,0,0,0,.422,0l4.068-2.345a.132.132,0,0,0,0-.245ZM141.5,300.415a.462.462,0,0,0-.422,0l-21.78,12.554a.135.135,0,0,0,0,.245l3.058,1.769a.462.462,0,0,0,.422,0l21.775-12.554c.114-.063.108-.177,0-.245Zm-23,13.278a.462.462,0,0,0-.422,0l-3.252,1.877a.132.132,0,0,0,0,.245l3.058,1.769a.462.462,0,0,0,.422,0l3.258-1.877a.132.132,0,0,0,0-.245Zm27.492-15.869a.462.462,0,0,0-.422,0l-3.253,1.883c-.114.063-.108.171,0,.24l3.059,1.769a.462.462,0,0,0,.422,0l3.258-1.877c.114-.063.1-.177,0-.245Zm-31.954,18.448a.462.462,0,0,0-.422,0l-3.258,1.877a.133.133,0,0,0,0,.245l3.058,1.769a.462.462,0,0,0,.422,0l3.252-1.877a.132.132,0,0,0,0-.245Zm40.9-23.618a.462.462,0,0,0-.422,0l-3.253,1.883c-.114.063-.108.171,0,.24l3.064,1.769a.462.462,0,0,0,.422,0L158,294.669c.114-.063.108-.177,0-.245Zm13.843-7.989a.479.479,0,0,0-.422,0l-2.648,1.529c-.114.063-.1.171,0,.24l3.058,1.769a.462.462,0,0,0,.422,0l2.642-1.523a.132.132,0,0,0,0-.245Zm8.468-6.151,2.648-1.529c.114-.063.108-.171,0-.24l-3.058-1.769a.462.462,0,0,0-.422,0l-2.642,1.524a.132.132,0,0,0,0,.245l3.064,1.769a.451.451,0,0,0,.4-.006Zm-17.284-.108,2.642-1.529c.114-.063.108-.177,0-.245l-3.058-1.763a.462.462,0,0,0-.422,0l-2.648,1.529c-.114.063-.108.171,0,.245l3.059,1.763a.479.479,0,0,0,.417-.006Zm-8.765,15.15,7.738-4.468a.13.13,0,0,0,0-.24l-3.059-1.769a.462.462,0,0,0-.422,0L147.7,291.53c-.114.063-.108.177,0,.245l3.058,1.763a.462.462,0,0,0,.428.011Zm21.752-12.816a.462.462,0,0,0,.422,0l2.642-1.524a.132.132,0,0,0,0-.245l-3.059-1.769a.479.479,0,0,0-.422,0l-2.648,1.529c-.114.063-.1.171,0,.24ZM169,278.223l2.665-1.535a.13.13,0,0,0,0-.24l-3.058-1.769a.462.462,0,0,0-.422,0l-2.682,1.5a.135.135,0,0,0,0,.245l3.058,1.769a.462.462,0,0,0,.439.029Zm-21.683,17.564,2.642-1.529c.114-.063.108-.171,0-.24l-3.058-1.769a.462.462,0,0,0-.422,0l-2.648,1.523a.132.132,0,0,0,0,.245l3.058,1.769a.479.479,0,0,0,.434-.006ZM164.4,285.676a.462.462,0,0,0,.422,0l2.648-1.523a.135.135,0,0,0,0-.245l-3.059-1.769a.462.462,0,0,0-.422,0l-2.648,1.524c-.114.068-.1.177,0,.245Zm-36.417,21.273,2.648-1.524a.132.132,0,0,0,0-.245l-3.064-1.769a.462.462,0,0,0-.422,0L124.5,304.94c-.114.063-.108.171,0,.24l3.064,1.769a.451.451,0,0,0,.422-.006Zm3.869-2.231,2.648-1.529a.13.13,0,0,0,0-.24l-3.058-1.769a.462.462,0,0,0-.422,0l-2.648,1.523a.135.135,0,0,0,0,.245l3.058,1.763a.462.462,0,0,0,.428-.006Zm-7.732,4.462,2.642-1.524a.132.132,0,0,0,0-.245l-3.058-1.763a.462.462,0,0,0-.422,0l-2.648,1.529c-.114.063-.1.171,0,.24l3.058,1.769a.462.462,0,0,0,.434-.011Zm15.464-8.924,2.648-1.529a.132.132,0,0,0,0-.245l-3.087-1.763a.462.462,0,0,0-.422,0l-2.642,1.529c-.114.063-.108.171,0,.24l3.059,1.769a.479.479,0,0,0,.451-.006Zm-3.863,2.225,2.642-1.529c.114-.063.108-.171,0-.245l-3.059-1.763a.479.479,0,0,0-.422,0l-2.648,1.529c-.114.063-.108.177,0,.245l3.058,1.763a.479.479,0,0,0,.428,0Zm7.732-4.468,2.648-1.524a.135.135,0,0,0,0-.245l-3.058-1.769a.462.462,0,0,0-.422,0L139.968,296a.13.13,0,0,0,0,.24l3.059,1.769a.462.462,0,0,0,.428,0Zm17.689-33.021a.479.479,0,0,0,.422,0l2.648-1.529c.114-.063.1-.171,0-.24l-.816-.474a.462.462,0,0,0-.422,0l-2.642,1.529c-.114.063-.108.171,0,.24Zm-19.024,12.28a.462.462,0,0,0,.422,0l2.648-1.524a.135.135,0,0,0,0-.245l-3.059-1.769a.462.462,0,0,0-.422,0l-2.648,1.524a.135.135,0,0,0,0,.245Zm7.732-4.468a.479.479,0,0,0,.422,0l2.648-1.529c.114-.063.1-.171,0-.245l-3.058-1.763a.48.48,0,0,0-.422,0l-2.642,1.529c-.114.063-.108.177,0,.245Zm-12.417,7.19a.462.462,0,0,0,.422,0l2.642-1.529c.114-.063.108-.171,0-.24l-3.064-1.769a.451.451,0,0,0-.417,0l-2.648,1.524a.132.132,0,0,0,0,.245Zm8.559-4.959a.462.462,0,0,0,.422,0l2.642-1.529c.114-.063.108-.171,0-.24l-3.059-1.769a.462.462,0,0,0-.422,0l-2.648,1.524a.132.132,0,0,0,0,.245Zm-16.325,9.427a.462.462,0,0,0,.422,0l2.648-1.524a.133.133,0,0,0,0-.245l-3.059-1.769a.479.479,0,0,0-.422,0l-2.665,1.529c-.114.063-.108.171,0,.24Zm3.869-2.231a.462.462,0,0,0,.422,0L136.6,280.7a.13.13,0,0,0,0-.24l-3.058-1.769a.462.462,0,0,0-.422,0l-2.648,1.524a.135.135,0,0,0,0,.245Zm19.874-12.776a.479.479,0,0,0,.422,0l2.648-1.529a.135.135,0,0,0,0-.245l-.816-.468a.479.479,0,0,0-.422,0l-2.653,1.546c-.114.063-.108.171,0,.245Zm11.6-6.7a.462.462,0,0,0,.422,0l2.642-1.529c.114-.063.108-.171,0-.245l-.816-.468a.462.462,0,0,0-.422,0l-2.642,1.524a.132.132,0,0,0,0,.245Zm6.431,3.72a.479.479,0,0,0,.422,0l2.648-1.529a.13.13,0,0,0,0-.24l-3.059-1.769a.462.462,0,0,0-.422,0l-2.648,1.524a.135.135,0,0,0,0,.245Zm9.666,9.809,2.648-1.529a.13.13,0,0,0,0-.24l-3.058-1.769a.48.48,0,0,0-.422,0l-2.648,1.529a.135.135,0,0,0,0,.245l3.059,1.763a.462.462,0,0,0,.422-.006Zm-23.823-9.056a.462.462,0,0,0,.422,0l2.642-1.524a.132.132,0,0,0,0-.245l-.816-.468a.462.462,0,0,0-.422,0l-2.648,1.529a.13.13,0,0,0,0,.24ZM125.8,286.7a.479.479,0,0,0,.422,0l2.642-1.529c.114-.063.108-.177,0-.245l-3.058-1.763a.462.462,0,0,0-.422,0l-2.648,1.529c-.114.063-.108.171,0,.245Z" transform="translate(-54.649 -159.647)"/><path class="c" d="M188.226,335.508l26.106-15.076a3.144,3.144,0,0,1,2.853,0l14.967,8.645a.867.867,0,0,1,0,1.643L206.046,345.8a3.178,3.178,0,0,1-2.853,0l-14.967-8.639A.871.871,0,0,1,188.226,335.508Z" transform="translate(-99.929 -185.251)"/><path class="i" d="M188.226,335.508l26.106-15.076a3.144,3.144,0,0,1,2.853,0l14.967,8.645a.867.867,0,0,1,0,1.643L206.046,345.8a3.178,3.178,0,0,1-2.853,0l-14.967-8.639A.871.871,0,0,1,188.226,335.508Z" transform="translate(-99.929 -185.251)"/><path class="c" d="M37.663,330.4a3.86,3.86,0,0,0,.73.314,3.511,3.511,0,0,1-.73-.308,1.512,1.512,0,0,1-.223-.148,2.13,2.13,0,0,0,.223.143Z" transform="translate(-35.437 -189.618)"/><path class="f" d="M134.687,88.046c-.171-1.233-1.141-1.678-2.351-.987L41.3,139.618a4.856,4.856,0,0,0-1.649,1.763L35.2,138.82a4.89,4.89,0,0,1,1.678-1.775l91.007-52.559a4.439,4.439,0,0,1,6.8,3.561Z" transform="translate(-34.475 -83.793)"/><path class="c" d="M45.11,330.9h.04Z" transform="translate(-38.731 -189.893)"/><path class="e" d="M262.433,309.643a5.09,5.09,0,0,1-2.374,3.943L169.024,366.14a4.787,4.787,0,0,1-2.374.571v-5.136a4.856,4.856,0,0,0,2.374-.571l91.036-52.554c1.221-.713,1.307-1.826.24-2.591a5.136,5.136,0,0,1,2.134,3.783Z" transform="translate(-90.918 -179.141)"/></g></g><g transform="translate(42.539 55.531)"><path class="k" d="M208.342,209.7,194.859,139.62a1.524,1.524,0,0,0-.822-1.141l-1.872-1.1a3.914,3.914,0,0,0-1.5-.713,1.2,1.2,0,0,0-.314.034l-.108.04a3.207,3.207,0,0,0-.468.223l-84.913,49.01a2.693,2.693,0,0,0-.571.485c-.1.108-.188.223-.274.337a2.259,2.259,0,0,0-.194.331,3.1,3.1,0,0,0-.359,1.98l13.489,70.077a4.736,4.736,0,0,0,1.82,2.9,3.606,3.606,0,0,0,3.03-.108c-.034,0,.12-.057.228-.12l84.913-49.027A3.161,3.161,0,0,0,208.342,209.7Z" transform="translate(-81.398 -91.973)"/><path class="l" d="M121.908,262.107l-13.489-70.083a3.173,3.173,0,0,1,1.461-3.116l84.913-49.027a1.409,1.409,0,0,1,2.225,1.016L210.5,210.98a3.161,3.161,0,0,1-1.427,3.127l-84.93,49.016a1.409,1.409,0,0,1-2.237-1.016Z" transform="translate(-83.528 -93.238)"/><path class="m" d="M121.753,299.948a3.606,3.606,0,0,1-3.03.108,4.736,4.736,0,0,1-1.82-2.9L103.413,227.08a3.1,3.1,0,0,1,.359-1.98l2.853,1.649a3.076,3.076,0,0,0-.359,1.974l13.489,70.089a1.392,1.392,0,0,0,2,1.135Z" transform="translate(-81.376 -129.944)"/><path class="k" d="M192.463,137.367l1.889,1.1h0a1.478,1.478,0,0,0-1.421.126l-84.885,49.044a2.893,2.893,0,0,0-1.073,1.141l-2.853-1.649c.057-.108.126-.223.194-.331a2.837,2.837,0,0,1,.274-.337,2.693,2.693,0,0,1,.571-.485l84.913-49.021a3.206,3.206,0,0,1,.468-.223l.108-.04a1.2,1.2,0,0,1,.314-.034,3.915,3.915,0,0,1,1.5.708Z" transform="translate(-81.695 -91.969)"/><path class="c" d="M127.6,286.623a2.6,2.6,0,0,1-2.18.08,3.423,3.423,0,0,1-1.312-2.083l-9.7-50.42a2.248,2.248,0,0,1,.257-1.421l2.06,1.187a2.208,2.208,0,0,0-.262,1.421l9.7,50.42a1,1,0,0,0,1.438.816Z" transform="translate(-86.103 -133.241)"/><path class="d" d="M127.6,286.623a2.6,2.6,0,0,1-2.18.08,3.423,3.423,0,0,1-1.312-2.083l-9.7-50.42a2.248,2.248,0,0,1,.257-1.421l2.06,1.187a2.208,2.208,0,0,0-.262,1.421l9.7,50.42a1,1,0,0,0,1.438.816Z" transform="translate(-86.103 -133.241)"/><path class="c" d="M127.683,251.206l-9.7-50.42a2.282,2.282,0,0,1,1.027-2.248L198.9,152.387a1.016,1.016,0,0,1,1.6.736l9.7,50.414a2.282,2.282,0,0,1-1.033,2.248L129.3,251.942a1.01,1.01,0,0,1-1.615-.736Z" transform="translate(-87.637 -98.64)"/><path class="e" d="M127.683,251.206l-9.7-50.42a2.282,2.282,0,0,1,1.027-2.248L198.9,152.387a1.016,1.016,0,0,1,1.6.736l9.7,50.414a2.282,2.282,0,0,1-1.033,2.248L129.3,251.942a1.01,1.01,0,0,1-1.615-.736Z" transform="translate(-87.637 -98.64)"/><path class="c" d="M197.294,150.64l1.358.793h0a1.073,1.073,0,0,0-1.021.091L117.745,197.67a2.026,2.026,0,0,0-.765.827l-2.06-1.187c.046-.08.091-.16.143-.24a2.02,2.02,0,0,1,.2-.24,1.911,1.911,0,0,1,.428-.348l79.886-46.151a2.957,2.957,0,0,1,.331-.16.189.189,0,0,1,.08,0,.627.627,0,0,1,.223,0,2.762,2.762,0,0,1,1.084.468Z" transform="translate(-86.332 -97.767)"/><path class="f" d="M197.294,150.64l1.358.793h0a1.073,1.073,0,0,0-1.021.091L117.745,197.67a2.026,2.026,0,0,0-.765.827l-2.06-1.187c.046-.08.091-.16.143-.24a2.02,2.02,0,0,1,.2-.24,1.911,1.911,0,0,1,.428-.348l79.886-46.151a2.957,2.957,0,0,1,.331-.16.189.189,0,0,1,.08,0,.627.627,0,0,1,.223,0,2.762,2.762,0,0,1,1.084.468Z" transform="translate(-86.332 -97.767)"/><g transform="translate(90.231)"><path class="n" d="M223.914,158.745a2.2,2.2,0,0,1-.964-1.74V86.722a2.283,2.283,0,0,1,1.027-1.78l45.449-26.305a1.929,1.929,0,0,1,2.956,1.712v70.265a2.282,2.282,0,0,1-1.027,1.78L225.906,158.7a2.208,2.208,0,0,1-1.991.046Z" transform="translate(-222.95 -58.339)"/><path class="o" d="M227.357,159.671l45.449-26.305a2.282,2.282,0,0,0,1.027-1.78V61.3c0-.656-.462-.924-1.027-.571L227.357,87.037a2.283,2.283,0,0,0-1.027,1.775v70.265C226.33,159.734,226.786,160,227.357,159.671Z" transform="translate(-224.401 -59.299)"/><path class="p" d="M273.263,61.075a.36.36,0,0,1,.046.217v70.271a1.712,1.712,0,0,1-.765,1.324l-45.449,26.305a.57.57,0,0,1-.2.08.376.376,0,0,1-.046-.217V88.767a1.74,1.74,0,0,1,.77-1.324l45.444-26.305a.457.457,0,0,1,.2-.068h0m0-.519a.913.913,0,0,0-.456.143L227.357,87a2.282,2.282,0,0,0-1.027,1.775v70.294c0,.462.228.73.571.73a.964.964,0,0,0,.462-.137l45.449-26.305a2.282,2.282,0,0,0,1.027-1.78V61.292c0-.468-.234-.736-.571-.736Z" transform="translate(-224.401 -59.288)"/><path class="q" d="M225.772,179.373a1.917,1.917,0,0,1-2.813-1.775V107.316a2.14,2.14,0,0,1,.3-1.016l1.929,1.141a2.066,2.066,0,0,0-.3,1.01v70.26C224.882,179.31,225.264,179.584,225.772,179.373Z" transform="translate(-222.953 -78.933)"/><path class="q" d="M266.912,88.693l16.029-9.387c.5-.291.9-.057.9.525v.388a2.014,2.014,0,0,1-.9,1.569l-16.029,9.387c-.5.285-.9.051-.9-.525v-.388a2.014,2.014,0,0,1,.9-1.569Z" transform="translate(-241.439 -67.288)"/><path class="q" d="M266.912,99.422l16.029-9.387c.5-.291.9-.057.9.519v.359a2,2,0,0,1-.9,1.569l-16.029,9.387c-.5.291-.9.057-.9-.519v-.365a2,2,0,0,1,.9-1.563Z" transform="translate(-241.439 -71.895)"/><path class="q" d="M266.912,110.145l16.029-9.387c.5-.285.9-.051.9.525v.359a2.014,2.014,0,0,1-.9,1.569L266.912,112.6c-.5.285-.9.051-.9-.525v-.359a2.014,2.014,0,0,1,.9-1.569Z" transform="translate(-241.439 -76.501)"/><path class="q" d="M237.242,141.336,270.2,122.209c.5-.285.9-.051.9.525v.359a2.014,2.014,0,0,1-.9,1.569l-32.959,19.127c-.5.285-.9.051-.9-.525V142.9a2.014,2.014,0,0,1,.9-1.569Z" transform="translate(-228.699 -85.711)"/><path class="q" d="M237.242,130.607,270.2,111.486c.5-.291.9-.057.9.519v.365a2,2,0,0,1-.9,1.563l-32.959,19.127c-.5.291-.9.057-.9-.525v-.359A2.014,2.014,0,0,1,237.242,130.607Z" transform="translate(-228.699 -81.106)"/><path class="q" d="M237.242,152.137,270.2,133.016c.5-.291.9-.057.9.519v.365a2,2,0,0,1-.9,1.564l-32.959,19.127c-.5.291-.9.057-.9-.525v-.359A2.014,2.014,0,0,1,237.242,152.137Z" transform="translate(-228.699 -90.35)"/><path class="q" d="M237.242,162.867,270.2,143.746c.5-.291.9-.057.9.519v.359a2.014,2.014,0,0,1-.9,1.569l-32.959,19.127c-.5.285-.9.051-.9-.525v-.359a2.014,2.014,0,0,1,.9-1.569Z" transform="translate(-228.699 -94.958)"/><path class="q" d="M237.242,173.6,270.2,154.469c.5-.285.9-.051.9.525v.359a2.014,2.014,0,0,1-.9,1.569l-32.959,19.121c-.5.291-.9.057-.9-.519v-.365A2,2,0,0,1,237.242,173.6Z" transform="translate(-228.699 -99.563)"/><path class="q" d="M237.242,184.317,270.2,165.2c.5-.291.9-.057.9.519v.365a2,2,0,0,1-.9,1.563l-32.959,19.127c-.5.285-.9.051-.9-.525v-.359A2.014,2.014,0,0,1,237.242,184.317Z" transform="translate(-228.699 -104.168)"/><path class="q" d="M237.242,195.041,270.2,175.909c.5-.285.9-.051.9.525v.359a2.014,2.014,0,0,1-.9,1.569l-32.959,19.121c-.5.291-.9.057-.9-.519V196.6A2,2,0,0,1,237.242,195.041Z" transform="translate(-228.699 -108.769)"/><path class="c" d="M236.76,106.216l13.307-7.686V113.9l-13.307,7.68Z" transform="translate(-228.88 -75.596)"/><path class="o" d="M240.26,110.615v4.611l.417-.251v-1.409a2.933,2.933,0,0,1,1.415-2.231l1.969-1.141v6.847a2.939,2.939,0,0,1-1.238,2.351l-1.233.713v.491l6.653-3.84v-.491l-1.238.713c-.685.394-1.238,0-1.238-.924v-6.847l1.969-1.141c.787-.456,1.421-.188,1.421.571v1.409l.417-.234V105.2Z" transform="translate(-230.383 -78.46)"/></g><path class="q" d="M113.092,157v40.514a1.5,1.5,0,0,1-.673,1.141L72.128,221.97c-.365.211-.668.04-.668-.388v-2.117l39.487-22.825V157.462l1.472-.85C112.79,156.4,113.092,156.572,113.092,157Z" transform="translate(-67.671 -100.497)"/><path class="c" d="M110.947,158.17v39.2L71.46,220.19V181.759a1.307,1.307,0,0,1,.2-.656,1.284,1.284,0,0,1,.468-.5Z" transform="translate(-67.671 -101.205)"/><path class="j" d="M110.947,158.17v39.2L71.46,220.19V181.759a1.307,1.307,0,0,1,.2-.656,1.284,1.284,0,0,1,.468-.5Z" transform="translate(-67.671 -101.205)"/><path class="r" d="M100.261,186.291a.741.741,0,0,0-.131-.1h0l-2.5-1.444h0a.85.85,0,0,0-1.141.28l-8.9,21.929-5.923-3.92a.97.97,0,0,0-.126-.086h-.029l-2.471-1.427h0a.85.85,0,0,0-1.141.251L69.26,219.221V230.81l2.511,1.449,38.8-22.391a1.444,1.444,0,0,0,.719-1.25v-11Z" transform="translate(-66.726 -112.567)"/><path class="h" d="M100.261,186.291a.741.741,0,0,0-.131-.1h0l-2.5-1.444h0a.85.85,0,0,0-1.141.28l-8.9,21.929-5.923-3.92a.97.97,0,0,0-.126-.086h-.029l-2.471-1.427h0a.85.85,0,0,0-1.141.251L69.26,219.221V230.81l2.511,1.449,38.8-22.391a1.444,1.444,0,0,0,.719-1.25v-11Z" transform="translate(-67.086 -112.567)"/><path class="r" d="M73.66,233.33V221.741l8.616-17.466a.85.85,0,0,1,1.261-.171l8.268,5.438,9.05-22.031a.845.845,0,0,1,1.3-.148l11,11.332v11a1.444,1.444,0,0,1-.719,1.25Z" transform="translate(-68.616 -113.638)"/><path class="h" d="M103.5,225.942l-2.608,6.345,1.655-6.967Z" transform="translate(-80.308 -130.038)"/><path class="n" d="M111.861,151.593a.331.331,0,0,0,0-.08,1.5,1.5,0,0,0-.645-.97L110,149.881a1.5,1.5,0,0,0-1.341,0L65.493,174.794a1.4,1.4,0,0,0-.479.5,1.375,1.375,0,0,0-.194.656v50.7a1.472,1.472,0,0,0,.673,1.141l1.141.679a1.5,1.5,0,0,0,1.187.068h.046a.469.469,0,0,0,.108-.051l43.178-24.936a1.489,1.489,0,0,0,.668-1.141V151.7a.691.691,0,0,0,.04-.1Zm-1.621,43.024a1.5,1.5,0,0,1-.673,1.141L69.276,219.051c-.365.211-.668.04-.668-.388V178.149a1.478,1.478,0,0,1,.668-1.141l40.291-23.275c.371-.217.673-.046.673.382Z" transform="translate(-64.82 -97.578)"/><path class="q" d="M67.9,247.807a1.524,1.524,0,0,1-1.187-.068l-1.141-.679a1.461,1.461,0,0,1-.673-1.141V195.2a1.324,1.324,0,0,1,.2-.656l2.511,1.449a1.4,1.4,0,0,0-.194.662v50.7C67.388,247.716,67.61,247.9,67.9,247.807Z" transform="translate(-64.854 -116.822)"/><path class="s" d="M113.772,152.723a.387.387,0,0,1,0-.086c-.086-.28-.348-.371-.65-.188L69.943,177.385a1.369,1.369,0,0,0-.474.5,1.347,1.347,0,0,0-.2.662v50.7c0,.365.228.571.519.462h.046l.108-.051,43.178-24.936a1.489,1.489,0,0,0,.668-1.141v-50.75A.692.692,0,0,0,113.772,152.723Zm-1.621,43.024a1.5,1.5,0,0,1-.673,1.141L71.187,220.181c-.365.211-.668.04-.668-.388V179.279a1.307,1.307,0,0,1,.2-.656,1.284,1.284,0,0,1,.468-.5l38.8-22.431,1.472-.85c.371-.211.673-.04.673.388Z" transform="translate(-66.731 -98.708)"/><path class="r" d="M94.848,196.1l.976-1.655-2-1.141h0a1.912,1.912,0,0,0-1.912.188,5.974,5.974,0,0,0-2.7,4.685,1.917,1.917,0,0,0,.776,1.712h0l1.957,1.158.93-1.581A6.328,6.328,0,0,0,94.848,196.1Z" transform="translate(-75.287 -116.215)"/><path class="t" d="M95.365,195.45c1.5-.867,2.7-.165,2.7,1.558a5.974,5.974,0,0,1-2.7,4.685c-1.5.862-2.7.165-2.7-1.558A5.969,5.969,0,0,1,95.365,195.45Z" transform="translate(-76.774 -117.053)"/><path class="l" d="M223.644,152.275l.034,64.885a4.194,4.194,0,0,1-1.906,3.3L136.306,269.77c-1.044.6-1.906,0-1.906-.845V190.6a3.886,3.886,0,0,1,.571-1.872,4.08,4.08,0,0,1,1.341-1.421l23.4-13.518a1.712,1.712,0,0,1,1.712-.074h.051a1.786,1.786,0,0,1,.793,1.056l1.581,6.488.251.7a1.666,1.666,0,0,0,2.539,1.01l55.093-31.783a1.415,1.415,0,0,1,1.25-.183l.074.04h.046A1.358,1.358,0,0,1,223.644,152.275Z" transform="translate(-94.697 -98.095)"/><path class="k" d="M159.7,189.47a1.712,1.712,0,0,0-1.712.08l-23.4,13.512a4,4,0,0,0-1.341,1.427l-2.853-1.666a3.84,3.84,0,0,1,1.341-1.421l23.4-13.512a1.712,1.712,0,0,1,1.712-.046h0Z" transform="translate(-92.979 -113.858)"/><path class="k" d="M245.153,149.712a1.421,1.421,0,0,0-1.244.183l-55.093,31.783a1.66,1.66,0,0,1-2.539-1.01l-.257-.7,55.036-31.738a1.666,1.666,0,0,1,.873-.234.993.993,0,0,1,.491.126h0Z" transform="translate(-116.862 -96.838)"/><path class="t" d="M200.186,246.678a1.312,1.312,0,0,0,1.746-.622l3.72-7.88v13.946a1.312,1.312,0,0,0,2.625,0V235.414l3.994,3.846a1.312,1.312,0,1,0,1.82-1.889l-6.22-5.986a1.3,1.3,0,0,0-1.141-.342,1.318,1.318,0,0,0-.947.73l-6.22,13.158a1.307,1.307,0,0,0,.622,1.746Z" transform="translate(-122.622 -132.486)"/><path class="t" d="M213.853,251.26a1.312,1.312,0,0,0-1.312,1.312v7.909l-15.235,8.8v-6.4a1.312,1.312,0,1,0-2.625,0v8.668a1.312,1.312,0,0,0,.656,1.141,1.357,1.357,0,0,0,.656.171,1.341,1.341,0,0,0,.656-.171l17.86-10.311a1.312,1.312,0,0,0,.656-1.141v-8.668A1.312,1.312,0,0,0,213.853,251.26Z" transform="translate(-120.58 -141.176)"/><path class="m" d="M132.939,297.153a.252.252,0,0,1-.086,0l-2.944-1.712a1.375,1.375,0,0,1-.514-1.21v-78.1a3.88,3.88,0,0,1,.571-1.872l2.853,1.66h0a3.817,3.817,0,0,0-.571,1.872V296.12a1.107,1.107,0,0,0,.69,1.033Z" transform="translate(-92.545 -125.289)"/></g><g transform="translate(166.591 109.124)"><path class="u" d="M282.22,177.219a1.757,1.757,0,0,1,.793-1.375l40.514-23.4a1.752,1.752,0,0,1,1.581,0l.9.519a1.746,1.746,0,0,1,.787,1.369V185.39a1.752,1.752,0,0,1-.787,1.369l-40.514,23.4a1.712,1.712,0,0,1-1.586,0l-.89-.514a1.746,1.746,0,0,1-.793-1.369Z" transform="translate(-282.22 -152.26)"/><path class="i" d="M282.62,176.438l2.248,1.3,41.866-24.171a1.712,1.712,0,0,0-.571-.571l-.9-.514a1.752,1.752,0,0,0-1.581,0l-40.514,23.4a1.66,1.66,0,0,0-.553.565Z" transform="translate(-282.392 -152.273)"/><path class="v" d="M282.22,195.4v31.041a1.746,1.746,0,0,0,.793,1.369l.89.514a1.508,1.508,0,0,0,.217.1,2.719,2.719,0,0,0,.325.074,2.093,2.093,0,0,0,.628,0l.154-.046a.251.251,0,0,0,.091-.034.474.474,0,0,1-.377,0,.571.571,0,0,1-.245-.525V196.818a.69.69,0,0,1,.417-.673l-.417-.24-2.248-1.3A1.712,1.712,0,0,0,282.22,195.4Z" transform="translate(-282.22 -170.444)"/><path class="w" d="M286.56,178.627l18.762,7.007a3.053,3.053,0,0,0,3.623-1.187l3.013-4.616,16.616-25.461L312.557,180l16.1,6.277a1.626,1.626,0,0,1-.245.793l-15.92-7-3.5,5.6a3.047,3.047,0,0,1-3.817,1.141l-2.494-1.1-15.863,25.4a.571.571,0,0,1-.245-.525v-.514l16.063-24.365Z" transform="translate(-284.084 -153.166)"/></g><g transform="translate(196.073 128.255)"><path class="x" d="M420.13,225.28c2.117-.5,4.439,1,5.8,4.32s3.72,10.18,4.565,12.3a2.725,2.725,0,0,1-.211,2.556c-1.672,3.481-5.615,10.357-5.615,10.357l-3.424-3.8,2.7-7.989-2.077-5.466Z" transform="translate(-370.918 -202.705)"/><path class="y" d="M389.067,235.7l44.468,25.678a2.282,2.282,0,0,1,1.039,1.8v42.368a2.282,2.282,0,0,1-1.039,1.8l-1.712.987a2.283,2.283,0,0,1-2.077,0l-44.468-25.678a2.311,2.311,0,0,1-1.039-1.8V238.492a2.282,2.282,0,0,1,1.039-1.8l1.712-.987A2.282,2.282,0,0,1,389.067,235.7Z" transform="translate(-355.508 -207.112)"/><path class="z" d="M389.067,235.7l44.468,25.678a2.282,2.282,0,0,1,1.039,1.8v42.368a2.282,2.282,0,0,1-1.039,1.8l-1.712.987a2.283,2.283,0,0,1-2.077,0l-44.468-25.678a2.311,2.311,0,0,1-1.039-1.8V238.492a2.282,2.282,0,0,1,1.039-1.8l1.712-.987A2.282,2.282,0,0,1,389.067,235.7Z" transform="translate(-354.866 -206.723)"/><path class="y" d="M384.31,238.183c.131-.428.531-.571,1-.285l44.462,25.678a2.145,2.145,0,0,1,.736.776l3.783-2.191a2.129,2.129,0,0,0-.73-.776L389.1,235.706a2.345,2.345,0,0,0-2.083,0l-1.712.987A2.317,2.317,0,0,0,384.31,238.183Z" transform="translate(-355.538 -207.117)"/><path class="w" d="M384.31,238.183c.131-.428.531-.571,1-.285l44.462,25.678a2.145,2.145,0,0,1,.736.776l3.783-2.191a2.129,2.129,0,0,0-.73-.776L389.1,235.706a2.345,2.345,0,0,0-2.083,0l-1.712.987A2.317,2.317,0,0,0,384.31,238.183Z" transform="translate(-354.937 -206.733)"/><path class="aa" d="M385.279,239.613l44.468,25.678a2.282,2.282,0,0,1,1.039,1.8v42.368c0,.662-.462.93-1.039.6l-44.468-25.678a2.311,2.311,0,0,1-1.039-1.8V240.218C384.24,239.551,384.708,239.282,385.279,239.613Z" transform="translate(-354.866 -208.724)"/><path class="ab" d="M420.641,305.449a9.3,9.3,0,0,1-4.616-1.381c-6.031-3.481-10.944-12.822-10.944-20.822,0-4.388,1.484-7.76,4.074-9.255,2.185-1.267,4.936-1.067,7.743.571,6.037,3.481,10.944,12.827,10.944,20.827,0,4.388-1.484,7.76-4.068,9.25a6.168,6.168,0,0,1-3.133.81Zm-8.354-30.522A4.474,4.474,0,0,0,410,275.5c-2.026,1.17-3.19,3.994-3.19,7.738,0,7.418,4.514,16.1,10.06,19.3,2.243,1.3,4.377,1.5,6,.571,2.031-1.17,3.2-3.994,3.2-7.732,0-7.446-4.519-16.1-10.066-19.31A7.617,7.617,0,0,0,412.287,274.927Z" transform="translate(-364.456 -223.307)"/><path class="ab" d="M427.811,300.171l-8.725.776c-.787.074-1.427-.822-1.427-2V287.76c0-1.175.639-1.335,1.427-.354l8.725,10.842C428.6,299.246,428.6,300.1,427.811,300.171Z" transform="translate(-369.858 -229.144)"/><path class="c" d="M419.93,221.87c3.332-.571,5.164,2.031,5.974,4.565,1.215,3.766,2.79,7.7,3.675,10.539a12.154,12.154,0,0,1-7.452,3.11l-1.815-3.749Z" transform="translate(-370.833 -201.246)"/><g class="ac" transform="translate(49.097 20.544)"><path d="M419.93,221.87c3.332-.571,5.164,2.031,5.974,4.565,1.215,3.766,2.79,7.7,3.675,10.539a12.154,12.154,0,0,1-7.452,3.11l-1.815-3.749Z" transform="translate(-419.93 -221.791)"/></g><path class="k" d="M376.993,386c-.268-.034-.268.753-.188,1.1a4.629,4.629,0,0,0,3.024,1.991,24.262,24.262,0,0,0,5.706.217,29.48,29.48,0,0,1,4.217.839,6,6,0,0,0,3.892-.708,1.215,1.215,0,0,0,.32-.93c0-.759-.057-.913-.148-.907Z" transform="translate(-352.295 -271.755)"/><path class="c" d="M393.784,381.883a3.3,3.3,0,0,0,.074.456,7.771,7.771,0,0,1,.051,2.328,2.134,2.134,0,0,1-1.427.97,7.11,7.11,0,0,1-3.869-.12,11.349,11.349,0,0,0-2.927-.422,27.963,27.963,0,0,1-3.994,0,9.479,9.479,0,0,1-2.893-.742,3.618,3.618,0,0,1-1.712-1.66,2.665,2.665,0,0,1,1.609-2.579,5.94,5.94,0,0,1,2.979-.485c1.113.057,1.946.24,2.933.217a4.9,4.9,0,0,0,1.98-.382,1.952,1.952,0,0,0,.656-.85c.177-.342.251-.651.571-.673,0,0,4.656.12,5.135.183s.542,1.957.571,2.328a6.358,6.358,0,0,0,.1.879A1.93,1.93,0,0,1,393.784,381.883Z" transform="translate(-352.435 -268.295)"/><g class="ad" transform="translate(24.649 109.645)"><path d="M393.784,381.883a3.3,3.3,0,0,0,.074.456,7.771,7.771,0,0,1,.051,2.328,2.134,2.134,0,0,1-1.427.97,7.11,7.11,0,0,1-3.869-.12,11.349,11.349,0,0,0-2.927-.422,27.963,27.963,0,0,1-3.994,0,9.479,9.479,0,0,1-2.893-.742,3.618,3.618,0,0,1-1.712-1.66,2.665,2.665,0,0,1,1.609-2.579,5.94,5.94,0,0,1,2.979-.485c1.113.057,1.946.24,2.933.217a4.9,4.9,0,0,0,1.98-.382,1.952,1.952,0,0,0,.656-.85c.177-.342.251-.651.571-.673,0,0,4.656.12,5.135.183s.542,1.957.571,2.328a6.358,6.358,0,0,0,.1.879A1.93,1.93,0,0,1,393.784,381.883Z" transform="translate(-377.084 -377.94)"/></g><path class="o" d="M391.547,380.8a3.424,3.424,0,0,0-1.272,2.191c0,.571-1,.571-1,0a4.793,4.793,0,0,1,.981-1.952A1.831,1.831,0,0,1,391.547,380.8Z" transform="translate(-357.668 -269.508)"/><path class="o" d="M387.872,381.135A3.561,3.561,0,0,0,386.7,383c-.034.422-.907.342-.873-.08A2.7,2.7,0,0,1,387,381.066.779.779,0,0,1,387.872,381.135Z" transform="translate(-356.19 -269.595)"/><path class="o" d="M382.237,380.682c-.456-.029-1.449.571-1.98,1.946a7.989,7.989,0,0,0-.337,3.178,4.514,4.514,0,0,1-2.5-1.312,1.9,1.9,0,0,1-.04-2.962,4.373,4.373,0,0,1,3.384-1.272c1.826,0,1.963.474,1.963.474Z" transform="translate(-352.267 -269.291)"/><path class="x" d="M401.194,371.67s-.268,3.909-.268,4.565c0,.388-.633.873-2.619.8-1.4-.046-2.448-.827-2.448-1.187l-.188-3.247Z" transform="translate(-360.416 -265.602)"/><path class="k" d="M408.4,359.06a5.946,5.946,0,0,0,.165,2.682,6.038,6.038,0,0,0,2.168,2.613,10.8,10.8,0,0,1,1.8,2.185,9.164,9.164,0,0,0,1.877,2.351,3.7,3.7,0,0,0,3.041.217c.8-.354,1.061-.633,1.016-1.912s-3.914-1.712-3.914-1.712Z" transform="translate(-365.846 -260.188)"/><path class="c" d="M418.139,362.284c.331.126.411.753.462,2,.04.947.434,2.328-.867,2.922a3.172,3.172,0,0,1-3.424-.73,43.316,43.316,0,0,0-2.745-3.424c-1.1-1.175-2.237-1.569-2.722-3.92-.314-1.512-.068-2.134.947-2.568,1.4-.571,3.595,1.352,4.69,1.655C415.417,358.478,417.808,362.159,418.139,362.284Z" transform="translate(-366.017 -259.069)"/><path class="g" d="M418.139,362.284c.331.126.411.753.462,2,.04.947.434,2.328-.867,2.922a3.172,3.172,0,0,1-3.424-.73,43.316,43.316,0,0,0-2.745-3.424c-1.1-1.175-2.237-1.569-2.722-3.92-.314-1.512-.068-2.134.947-2.568,1.4-.571,3.595,1.352,4.69,1.655C415.417,358.478,417.808,362.159,418.139,362.284Z" transform="translate(-366.017 -259.069)"/><path class="o" d="M416.365,359.463l-.188-.063a3.6,3.6,0,0,0-3.024,1.986c-.188.411.388.73.73.411a3.846,3.846,0,0,1,3.024-1.974A1.752,1.752,0,0,0,416.365,359.463Z" transform="translate(-367.906 -260.334)"/><path class="o" d="M418.25,360.76a3.572,3.572,0,0,0-2.807,1.969c-.188.411.388.73.725.411a3.675,3.675,0,0,1,2.522-1.883A6.594,6.594,0,0,0,418.25,360.76Z" transform="translate(-368.89 -260.918)"/><path class="x" d="M422.31,362.72l-.188,2.631a3.749,3.749,0,0,1-3.869.1c-.068-.148-.262-2.5-.262-2.5Z" transform="translate(-370 -261.759)"/><path class="o" d="M409.349,360.658s.114-2.8,3.892-3.184l.217.12a3.264,3.264,0,0,0-1.86-1.432,2.568,2.568,0,0,0-2.91.833C408.031,357.845,408.7,360.11,409.349,360.658Z" transform="translate(-365.889 -258.876)"/><path class="l" d="M411.709,304.026a37.845,37.845,0,0,0-1.495-7.355s.645-6.277,1.021-12.28c.405-6.459.314-14.591.474-16.2,0,0-20.947-4.445-20.97,2.853-.029,8.417.439,26.893.571,29.238.171,3.287.183,6.7.742,12.04s1.472,17.118,1.472,17.118a9.644,9.644,0,0,0,5.575,0s1.546-14.311,1.478-18.106a32.441,32.441,0,0,0-1.25-8.3l2.02-16.907.468,8.993c.171,3.287,1.044,4.942,1.86,11.059.7,5.312,2.534,16.017,2.534,16.017a5.843,5.843,0,0,0,4.428,0S412.251,308.631,411.709,304.026Z" transform="translate(-358.298 -220.594)"/><path class="m" d="M417.025,286.14s-1.141,3.247-5.912,5.215c0,0-1.444,10.368-1.432,10.146l-.371-7.1.468-3.9A19.458,19.458,0,0,0,417.025,286.14Z" transform="translate(-366.273 -228.877)"/><path class="x" d="M403.48,217.208l.69,6.87,6.773.023-.519-7.971Z" transform="translate(-363.769 -198.816)"/><path class="k" d="M411.512,225.529c-.571-1.86-2.653-3.966-5.01-3.583-.571.091-1.067.137-1.581.228-.285,1.141-3.869,1.621-6.876.913l-4.217.69c-2.163.719-3.321,4.223-3.652,10.551s-.029,16.126.08,20.542a24.3,24.3,0,0,0,13.695,1.455c6.488-1.267,7.549-4.04,7.549-4.04l-.456-11.338c0-2.465.924-5.8,1.141-7.389C412.756,228.685,411.906,226.807,411.512,225.529Z" transform="translate(-357.992 -201.293)"/><path class="x" d="M369.7,226s-4.451.314-5.889,2.825c-1.546,2.7-6.642,14.2-6.642,14.2-1.621.205-9.489.85-11.07.787a5.135,5.135,0,0,1-1.255-.1c-.81-.257-1.141-1.107-1.66-1.712-.668-.77-1.392-1.484-2.111-2.2a.81.81,0,0,0-.445-.268.5.5,0,0,0-.468.28,1.061,1.061,0,0,0-.091.571,2.477,2.477,0,0,0,.542,1.432,1.912,1.912,0,0,1,.445.69c.205.884-1.175.571-1.609.439a7.262,7.262,0,0,1-1.712-.85l-2.111-1.175a1.307,1.307,0,0,0-1.141-.228c-.377.177-.485.662-.525,1.084a6.226,6.226,0,0,0,.673,4.131,5.855,5.855,0,0,0,3.019,2.071,19.708,19.708,0,0,0,5.809,1.033c1.889.08,3.492.08,5.809.183,3.424.148,6.665.405,10.077.417h.9c1.763-.034,2-.656,2.282-1.01,1.415-1.706,7.378-14.613,7.378-14.613C371.447,228.893,369.7,226,369.7,226Z" transform="translate(-333.887 -203.054)"/><path class="c" d="M387.948,225.19c-1.318.12-4.411.331-5.912,3.287-1.712,3.361-5.706,11.669-5.706,11.669a12.656,12.656,0,0,0,7.338,3.994s3.3-6.277,4.5-8.867C389.437,232.585,389.454,226.936,387.948,225.19Z" transform="translate(-352.111 -202.706)"/><path class="w" d="M387.948,225.19c-1.318.12-4.411.331-5.912,3.287-1.712,3.361-5.706,11.669-5.706,11.669a12.656,12.656,0,0,0,7.338,3.994s3.3-6.277,4.5-8.867C389.437,232.585,389.454,226.936,387.948,225.19Z" transform="translate(-352.111 -202.706)"/><path class="ae" d="M395.156,202.92s-1.746,2.351-1.575,2.6,1.341.531,1.341.531Z" transform="translate(-359.514 -193.144)"/><path class="x" d="M400.933,191.4c-3.3.5-4.32,1.877-4.919,7.036-.628,5.387-.177,7.116.5,7.886.451.519,3.11.759,4.474.462,1.712-.365,5.586-1.5,7.521-4.114,2.282-3.081,3.076-7.384.936-9.29C406.428,190.7,402.274,191.194,400.933,191.4Z" transform="translate(-360.435 -188.122)"/><path class="l" d="M394.953,190.764a4.3,4.3,0,0,0,.8.708,10.484,10.484,0,0,0,1.318.833,8.19,8.19,0,0,1,1.284.7,1.82,1.82,0,0,1,.571,1.712c0,.445-.046,1-.074,1.6-.04.9.491,1.609.839.422,0,0,.628-1.969,2.282-1.621s1.712,2.282.822,3.7c-.571.879-1.837.571-1.837.571a5.911,5.911,0,0,0,1.5,4.633,6.358,6.358,0,0,0,3.994.359c1.957-2.391,3.173-3.538,4.263-5.638,2.282-4.445,1.478-7.361-.034-8.656-.194-2.117-1.8-3.155-3.658-3.692-2.779-.81-5.512.713-8.268-.068-.445-.131-.907-.262-1.335-.434a.719.719,0,0,0-.571-.068.616.616,0,0,0-.3.6,1.712,1.712,0,0,0,.747,1.369,1.376,1.376,0,0,0-.405,0h-.474a8.335,8.335,0,0,1-.913-.12,1.712,1.712,0,0,0-.633,0,1.141,1.141,0,0,0-.787,1.107,2.853,2.853,0,0,0,.428,1.381,3.821,3.821,0,0,0,.308.5Z" transform="translate(-359.733 -185.787)"/><path class="ae" d="M397.11,217.53c.365.417,2.174.656,3.572.571h.1l-.091-.77A9.725,9.725,0,0,1,397.11,217.53Z" transform="translate(-361.034 -199.331)"/></g></g></g></svg>