<svg xmlns="http://www.w3.org/2000/svg" width="295" height="247.001" viewBox="0 0 295 247.001"><defs><style>.a{fill:#2df0da;}.b{opacity:0.14;}.c,.f{fill:#1d7e96;}.d{fill:#35a3be;}.e{fill:#ff8900;}.f{opacity:0.65;}.g{fill:#37474f;}.h{fill:#ffbda7;}.i{fill:#263238;}.j{fill:#455a64;}.k{fill:#90caf9;}.l{fill:#b26001;}.m{fill:#b16668;}.n{fill:#f0997a;}.o{opacity:0.15;}.p{fill:#75b51d;}.q{fill:#8dd52c;}.r{fill:#ffa8a7;}.s{fill:#f28f8f;}.t{fill:#eb9998;}</style></defs><g transform="translate(6010.64 9489.114)"><path class="a" d="M80,0H295a0,0,0,0,1,0,0V120a80,80,0,0,1-80,80H0a0,0,0,0,1,0,0V80A80,80,0,0,1,80,0Z" transform="translate(-6010.64 -9442.113)"/><g transform="translate(-5989.216 -9488.052)"><g class="b" transform="translate(29.726 184.837)"><ellipse class="c" cx="44.886" cy="25.915" rx="44.886" ry="25.915"/><ellipse class="c" cx="44.886" cy="25.915" rx="44.886" ry="25.915" transform="translate(122.508)"/></g><g transform="translate(6.774 -1.062)"><g transform="translate(0 59.604)"><rect class="d" width="7.786" height="11.598" rx="1.39" transform="translate(0 18.184) rotate(-13.76)"/><path class="d" d="M47.559,210.752l-13.42-5.016L31.38,194.484l9.586-10.639a2.157,2.157,0,0,1,3.695.931l5.74,23.441a2.157,2.157,0,0,1-2.842,2.536Z" transform="translate(-25.448 -177.752)"/><path class="d" d="M70.389,198.069a8.633,8.633,0,0,0-6.259-6.32,1.293,1.293,0,0,0-1.494.725h0a1.271,1.271,0,0,0,.83,1.761,6.064,6.064,0,0,1,2.558,10.455,1.276,1.276,0,0,0,.072,1.956h0a1.287,1.287,0,0,0,1.672-.056A8.633,8.633,0,0,0,70.389,198.069Z" transform="translate(-39.233 -181.549)"/><path class="d" d="M77.242,193a13.894,13.894,0,0,0-9.04-9.842,1.31,1.31,0,0,0-1.622.674h0a1.282,1.282,0,0,0,.775,1.744,11.308,11.308,0,0,1,4.548,18.57,1.271,1.271,0,0,0,.123,1.9h0a1.3,1.3,0,0,0,1.744-.145A13.883,13.883,0,0,0,77.242,193Z" transform="translate(-40.981 -177.73)"/><path class="e" d="M36.213,209.275h0a1.243,1.243,0,0,1-.418-1.711l20.286-33.489a1.248,1.248,0,0,1,1.711-.418h0a1.248,1.248,0,0,1,.418,1.711L37.924,208.879A1.248,1.248,0,0,1,36.213,209.275Z" transform="translate(-27.322 -173.477)"/></g><g transform="translate(115.624)"><path class="c" d="M454.8,178.111c-1.672-5.361-6.175-8.666-11.536-9.586a12.1,12.1,0,0,0-8.454,1.466c-2.263,1.421-4.564,4.08-4.353,6.916.028.368.992.8,1.148.318a9.864,9.864,0,0,1,.942-2.569,11.191,11.191,0,0,1,2.43-2.669,10.427,10.427,0,0,1,6.782-1.817c4.7.178,8.688,2.229,10.762,6.571a12.409,12.409,0,0,1-1.611,12.818,23.678,23.678,0,0,1-5.016,4.564c-2.073,1.572-3.606,2.636-4.916,4.564a23.528,23.528,0,0,1-1.99,2.853,4.029,4.029,0,0,1-3.3,1.248,7.747,7.747,0,0,1-3.951-1.5,5.216,5.216,0,0,1-2.112-4.169c-.05-.975-1.176-.769-1.221.351a4.821,4.821,0,0,0,.758,3.288,7.435,7.435,0,0,0,2.982,2.748c2.263,1.059,5.473,1.443,7.513-.212,1.951-1.577,2.72-4.124,4.665-5.724,2.118-1.75,3.99-3.021,6.036-4.876C454.351,189.068,456.419,183.378,454.8,178.111Z" transform="translate(-423.034 -168.306)"/><path class="c" d="M452.848,182.363c.256-.351.033-1.025-.095-1.382a3.1,3.1,0,0,0-.468-.853,7.515,7.515,0,0,0-6.626-2.541c-3.188.29-7.161,2.842-6.883,6.465a3.734,3.734,0,0,0,2.965,3.377c1.56.256,2.786-.713,4.236-1.115,2.129-.619,2.97,1.638,3,3.344a8.444,8.444,0,0,1-.318,2.993,2.2,2.2,0,0,1-1.873,1.276,7.664,7.664,0,0,0-2.229.713,4.815,4.815,0,0,0-1.611,2.2,3.65,3.65,0,0,1-1.3,1.365,1.867,1.867,0,0,1-1.616.056,2.525,2.525,0,0,1-1.209-1.115c-.162-.256-.251-.652-.5-.836-.513-.385-.864.117-.964.557a2.157,2.157,0,0,0,.44,1.672,3.544,3.544,0,0,0,3.283,1.26,4.681,4.681,0,0,0,2.982-1.845c.5-.68.652-1.672,1.393-2.168a6.916,6.916,0,0,1,2.04-.613,4.42,4.42,0,0,0,1.778-.791,3.768,3.768,0,0,0,1.17-2.681c.173-1.783.268-3.745-.808-5.283a3.734,3.734,0,0,0-4.358-1.443c-1.26.412-3,1.75-4.2.557-1.544-1.566-.268-3.9,1.115-5.016a6.972,6.972,0,0,1,5.506-1.427,6.593,6.593,0,0,1,2.463.992,5.016,5.016,0,0,1,1.538,1.756c.234.368.557,1.064,1.087.557Z" transform="translate(-427.004 -172.396)"/><path class="e" d="M418.915,199.561h0a1.416,1.416,0,0,1,.769-1.85l33.678-13.866a1.41,1.41,0,0,1,1.845.769h0a1.41,1.41,0,0,1-.769,1.845L420.759,200.33a1.416,1.416,0,0,1-1.845-.769Z" transform="translate(-418.807 -175.137)"/></g></g><g transform="translate(6.603 0.033)"><g transform="translate(218.444 8.562)"><path class="c" d="M413.173,77.6a11.662,11.662,0,0,0,8.61-5.529,56.345,56.345,0,0,0,13.2.557c11.776-.7,18.419-5.824,16.664-12.818-2.073-8.243-9.6-10.8-23.641-10.255-17.566.719-23.881,11.865-11.631,20.838C417.025,73.179,415.263,75.408,413.173,77.6Z" transform="translate(-410.018 -49.484)"/><path class="f" d="M413.173,77.6a11.662,11.662,0,0,0,8.61-5.529,56.345,56.345,0,0,0,13.2.557c11.776-.7,18.419-5.824,16.664-12.818-2.073-8.243-9.6-10.8-23.641-10.255-17.566.719-23.881,11.865-11.631,20.838C417.025,73.179,415.263,75.408,413.173,77.6Z" transform="translate(-410.018 -49.484)"/></g><path class="c" d="M57.244,64.555c-2.135-.975-3.2-2.959-3.394-5.735,0,0,10.188-1.672,8.393-13.688-.953-6.381-5.8-12.952-24.806-10.477C14.481,37.643,17.218,49.2,19.6,53.248c2.474,4.219,12.205,7.6,28.757,6.688C49.865,63.034,54.089,64.985,57.244,64.555Z" transform="translate(-18.058 -34.121)"/><path class="f" d="M57.244,64.555c-2.135-.975-3.2-2.959-3.394-5.735,0,0,10.188-1.672,8.393-13.688-.953-6.381-5.8-12.952-24.806-10.477C14.481,37.643,17.218,49.2,19.6,53.248c2.474,4.219,12.205,7.6,28.757,6.688C49.865,63.034,54.089,64.985,57.244,64.555Z" transform="translate(-18.058 -34.121)"/></g><g transform="translate(153.759 4.437)"><g transform="translate(11.625 70.804)"><path class="g" d="M395.069,379.16c.29,1.538.825,3.316,1.287,6.465s-.229,3.277,1.861,11.146c1.254,4.732,1.037,6.615-1.845,10.589-3.087,4.28-6.326,3.427-8.449-1.31-1.817-4.046-1.717-5.93-1.739-10.121s-.067-5.417-.268-8.744c-.178-2.931.061-4.938-.128-7.184Z" transform="translate(-339.63 -262.074)"/><path class="h" d="M390.918,367.9c-.6-4.063-.747-8.276-.964-11.024-.5-6.13.719-18.324-.189-27.576l-15.6-1.533c.557,3.606,4.9,19.918,6.5,29.766,0,0,.658,13.375,1.538,19.255a1.115,1.115,0,0,0,1.588.869,10.3,10.3,0,0,1,7.061-.479,1.115,1.115,0,0,0,1.5-1.076C392.3,373.927,391.348,370.951,390.918,367.9Z" transform="translate(-334.482 -239.325)"/><path class="h" d="M315.161,327.28c.362,12.818.507,24.154.128,27.492a27.254,27.254,0,0,1-1.338,6.8,26.438,26.438,0,0,1-3.388,7.005s-3.567,3.99-2.742,4.375,8.51,1.009,11.921-.106,3.7-4.041,4.743-9.385,1.867-13.136,1.867-13.136a3.5,3.5,0,0,1-.373-.892c-.49-1.521.808-5.54,1.07-9.413Z" transform="translate(-305.06 -239.108)"/><path class="i" d="M344.288,382.738c-.2,1.248-1.232,2.675-1.672,4.62a34.854,34.854,0,0,0-.842,6.749c-.084,2.787-.1,3.166-.1,3.166l-.858-.028s.128-4.007.178-5.768-.078-3.048-.914-3.266C340.091,388.211,340.13,382.61,344.288,382.738Z" transform="translate(-319.395 -263.658)"/><path class="g" d="M324.1,367.36c.591,1.455,2.508,3.472,3.344,4.854a5.267,5.267,0,0,1,.713,2.391,2.53,2.53,0,0,1-.713,1.906,28.835,28.835,0,0,0-2.6,3.015,24.041,24.041,0,0,0-3.4,7.1c-.49,2.335-.758,4.386-2.72,5.573-1.533.936-7.886,2.341-11.107,2.619-4.4.39-5.573-1.705-3.979-3.439s4.336-4.693,4.832-5.066a8.031,8.031,0,0,1,4.113.474c2.491,1,3.31,2.419,5.868,1.064,2.318-1.226,3.154-5.573,2.787-11.826C320.863,368.959,324.1,367.36,324.1,367.36Z" transform="translate(-302.964 -256.851)"/><path class="g" d="M352.666,169.07a10.922,10.922,0,0,0,1.276,3.9c3.623,4.843,7.34,10.717,8.148,19.851a402.923,402.923,0,0,1,1.232,43.342c.2,1.951,1.783,6.643,2.257,17.756.379,8.861.111,22.644.111,22.644s-6.292,3.227-11.86,1.237c-2.369-8.41-6.454-28.663-8.817-38.293-2.5-10.154-5.077-22.292-5.077-22.292l-3.4,17.9a51.473,51.473,0,0,1,.128,11.52c-.557,5.93-4.882,26.9-4.882,26.9s-7.005,2.307-11.826-.9c0,0-1.115-29.5-1.271-36.013s.189-45.237,3.9-62.341a36.878,36.878,0,0,0,.167-3.962C327.475,174.091,346.53,173.372,352.666,169.07Z" transform="translate(-309.911 -169.07)"/><path class="j" d="M393.074,356.44c-2.369,2.263-9.753,2.982-12.684,1.494l.986,4.587s1.939,1.26,6.13.8,5.506-2.168,5.506-2.168Z" transform="translate(-337.24 -252.017)"/><path class="j" d="M333.258,350.463c-2.486.886-9.948.63-12.718-1l.206,3.957s1.572,1.438,5.779,1.789,6.013-.869,6.013-.869Z" transform="translate(-310.745 -248.927)"/><path class="i" d="M345.4,234.192l-3.255-21.763A13.788,13.788,0,0,1,331,207.38s-.05,5.462,8.978,7.758L343.74,235.2l-1.728,16.914Z" transform="translate(-315.375 -186.029)"/><path class="i" d="M325.76,173.979s4.6,3.344,15.248,2.636,15.738-4.185,15.666-4.369h0a14.744,14.744,0,0,1-.78-2.759c-.039-.162-.067-.3-.084-.407-6.13,4.3-25.19,5.016-29.928,1.26,0,0,0,2.547-.123,3.645Z" transform="translate(-313.056 -169.074)"/></g><g transform="translate(48.873 0.384)"><path class="i" d="M382.462,65.494c1.248-2.408,2.229-5.573,0-7.758.981-2.653,1.672-6.1-1.048-7.9a6.453,6.453,0,0,0-4.425-6.654,6.251,6.251,0,0,0-7.189,1.672l1.867.881c.273,2.38,1.115,4.693,3.294,5.9-.886,2.753-.39,5.049,2.391,6.32-1.533,2.748-1.672,5.857.39,8.393a5.725,5.725,0,0,0,.975,6.192c-1.611,1.928-.658,4.654,1.154,6.13a4.8,4.8,0,0,0-1.4,3.857,3.26,3.26,0,0,0,3.043,3.149c-.864-.685-.953-1.154-.5-2.469s1.232-2.876,0-4.325c1.209-2.079,2.374-4.458.925-6.643C383,70.041,383.844,67.712,382.462,65.494Z" transform="translate(-369.8 -42.712)"/><path class="k" d="M371.772,47.009c.663-1.115,2.123-.68,3.344.34s2.335,2.787,1.672,3.728C375.656,52.682,371.136,48.118,371.772,47.009Z" transform="translate(-370.646 -44.324)"/></g><g transform="translate(0.129 31.751)"><path class="l" d="M312.879,107.78a18.386,18.386,0,0,0-12.545,5.707c-6.13,5.913-18.542,17.834-17.979,23.546l10.823-.44,17.583-10.628Z" transform="translate(-282.337 -102.884)"/><path class="l" d="M345.954,102.6l9.619,3.009c1.672.557,7.892,4.375,5.712,13.766-.725,3.11-1.705,7.468-2.592,11.826-.68,3.344,1.811,9.736,3.823,19.941,0,0-8.248,6.56-24.639,4.709-12.506-1.41-13.866-6.091-13.866-6.091.351-11.642,1.382-16.162,1.36-20.565a10.62,10.62,0,0,1-1.906-6.186c-.084-4.152,1.009-6.381,4.732-11.091a79.644,79.644,0,0,1,6.81-7.579Z" transform="translate(-300.543 -100.591)"/><path class="e" d="M326.279,118.434c-2.892,6.587-.936,44.173-1.2,41.353,0,0-5.384-2.084-5.891-3.9,0-6.766,1.248-20.364,1.326-25.012.089-5.345-.307-8.917,1.053-12.339,1-2.53,5.105-8.828,7.624-11.7,1.293-.485,2.469-.652,3.9-1.17C330.453,107.984,327.377,114.482,326.279,118.434Z" transform="translate(-298.651 -101.946)"/><path class="i" d="M341.607,103.778c-1.822,1.248-9.97,6.849-11.587,17.75a30.052,30.052,0,0,1,3.522-13.487c2.1-3.4,4.876-6.576,8-7.5Z" transform="translate(-303.446 -99.679)"/><path class="e" d="M368.292,102.51s.033.646-.05,2.692-3.806,17.143-3.862,24.522a240.379,240.379,0,0,0,1.789,29.794s11.938,1.081,16.335-4.854c0,0-1.583-7.407-3.054-16.424-.875-5.339,1.672-17.539.769-25.274-.385-3.227-.162-6.13-2.586-6.888-2-.63-5.189-1.471-5.189-1.471Z" transform="translate(-318.656 -100.551)"/><path class="l" d="M385.2,109c4.715,1.2,6.225,3.544,8.07,7.4s7.635,19.433,9.051,22.788.819,8.477-.463,9.541-12.194-9.207-12.194-9.207l-7.507-13.771S379.313,113.135,385.2,109Z" transform="translate(-326.221 -103.424)"/><path class="i" d="M367.854,99c.914-.045,1.154.518,2.363,1.895a17.7,17.7,0,0,0,2.279,2.185c-1.115,6.8-6.47,15.27-8,23.251-.067-6.459,2.112-15.4,3.745-25.274Z" transform="translate(-318.708 -98.996)"/></g><g transform="translate(26.263)"><path class="g" d="M340.917,68.4a12.247,12.247,0,0,0-1.951-3.3,18.814,18.814,0,0,0-3.11-2.062l-3.344-2.229c-4.018-2.33-3.639-7.669-2.552-10.416,2.43-6.13,9.218-8.248,13.375-8.36,7.9-.167,11.7,2,12.356,6.1a5.194,5.194,0,0,1,4.347,2.229c1.917,2.653,1.672,6.688.8,9.547-1.36,4.458-2.82,5.9-4.648,7.44a12.923,12.923,0,0,0-3.868,4.921Z" transform="translate(-329.23 -42.024)"/><path class="h" d="M356.976,74.146a3.632,3.632,0,0,0,3.4-1.41c1.9-2.112,2.062-4.252,1.165-5.673a2.971,2.971,0,0,0-3.806-1.115c-1.349.858-1.388,1.549-1.895,2.508s-2.48.892-2.976-2.97c-.463-3.6-1.031-6.9-2.787-8.516-2.647-2.413-5.573-2-6.615-.557-1.087-1.672-2.725-2.346-4.52-1.371s-3.149,3.667-3.728,10.511c-.591,6.972,1.076,11.308,2.681,12.473,1.215.881,2.575,1.276,5.194,1.377l-.078,4.626c-2.051,2.931,6.6,5.317,11.648.764l.585-3.405.033-8.36A2.229,2.229,0,0,0,356.976,74.146Z" transform="translate(-331.825 -47.587)"/><path class="i" d="M354.769,72.52a1.226,1.226,0,0,0,1.449.607.908.908,0,0,0,.747-1.17,1.215,1.215,0,0,0-1.443-.6.908.908,0,0,0-.752,1.165Z" transform="translate(-340.519 -54.984)"/><path class="i" d="M356.89,71.32c.724,0,1.154.986,1.85.6a1.042,1.042,0,0,1-1.4.557C357.013,72.329,356.89,71.32,356.89,71.32Z" transform="translate(-341.475 -54.993)"/><path class="i" d="M338.381,66.2l2.7-.557a1.315,1.315,0,0,0-1.566-1.115,1.443,1.443,0,0,0-1.131,1.672Z" transform="translate(-333.271 -51.975)"/><path class="i" d="M341.622,71.989a1.22,1.22,0,0,1-1.471.557.914.914,0,0,1-.7-1.2,1.22,1.22,0,0,1,1.471-.557.914.914,0,0,1,.7,1.2Z" transform="translate(-333.731 -54.725)"/><path class="i" d="M339.9,70.78c-.724,0-1.193.942-1.873.524a1.042,1.042,0,0,0,1.377.635C339.741,71.783,339.9,70.78,339.9,70.78Z" transform="translate(-333.126 -54.754)"/><path class="i" d="M355.64,66.146l2.731,1.115a1.41,1.41,0,0,0-.758-1.906,1.549,1.549,0,0,0-1.973.791Z" transform="translate(-340.922 -52.304)"/><path class="m" d="M350.711,85.42l-3.9.708a2,2,0,0,0,2.5,1.566,1.873,1.873,0,0,0,1.4-2.274Z" transform="translate(-337.013 -61.235)"/><path class="n" d="M349.29,88.179a2.1,2.1,0,0,1,2.33-1.566,1.879,1.879,0,0,1,.189.05,1.767,1.767,0,0,1-1.421,1.549A2.268,2.268,0,0,1,349.29,88.179Z" transform="translate(-338.111 -61.754)"/><path class="n" d="M346.357,68.99l-.713,7.886-4.263-1.611Z" transform="translate(-334.609 -53.961)"/><path class="n" d="M349.388,95.137a24.522,24.522,0,0,0,7.429-1.421c.869-.346,2.062-1.884,3.048-3.606,0,0-.741,3.416-2.625,4.553-2.865,1.733-7.88,1.878-7.88,1.878Z" transform="translate(-338.141 -63.311)"/></g><g transform="translate(0 41.779)"><path class="h" d="M342.23,119.891c-.307-1.115.485-2.787,1.956-1.232s6.783,7.936,7.914,8.655,2.58.591,4.174,1.471,4.28,3.728,5.963,4.224a9.056,9.056,0,0,1,4.23,2.346c1.521,1.4,4.52,2.7,7.245,4.152,3.132,1.672,5.651,2.229,7.6,4s4.631,8.053,1.951,9.9-7.752,1-11.442-1.711c-2.519-1.845-3.678-3.561-7.15-7.245-1.616-1.722-2.865-3.054-3.294-3.439-1.349-1.2-2.469-.825-4.392-.92a17.6,17.6,0,0,1-6.13-1.41,9.419,9.419,0,0,1-2.92-3.483c-.357-.975,1.154-1.705,1.154-1.705l-.234-2.174s-3.829-4.013-5.952-6.654a8.783,8.783,0,0,1-1.867-3.344,1.115,1.115,0,0,1,1.2-1.432Z" transform="translate(-308.17 -117.449)"/><path class="n" d="M355.341,151.316c.713.312,1.31-.128,1.053-.624l.306.507c-.1.44-.624.518-.513,1s.886,1.014.942,1.053a2.23,2.23,0,0,1-.346-.178,9.754,9.754,0,0,1-2.374-2.5A2.229,2.229,0,0,0,355.341,151.316Z" transform="translate(-314.114 -131.859)"/><path class="n" d="M342.093,122.084c-.513-.457-.83-.178-.9-.1a1.031,1.031,0,0,1,1.115-.624,19.334,19.334,0,0,0,1.165,1.733c.853,1.17,4.347,5.361,5.016,5.712s2.736-.184,4.341.3l.3.106h0c-2.062-.084-3.344.045-3.829.557s-.529,1.633-.379,3.026c-.769-.986-.652-3.182-.652-3.182A62.982,62.982,0,0,1,344,124.854,21.791,21.791,0,0,0,342.093,122.084Z" transform="translate(-308.262 -118.918)"/><path class="n" d="M348.531,123.872l.368.418a35.977,35.977,0,0,1-2.787,4.38c-.97-1.081-2-2.229-2.787-3.227a13.293,13.293,0,0,1-1.237-1.806.775.775,0,0,1-.078-.139c.624-.892,2.408-3.06,2.954-3.678C345.783,120.706,347.154,122.306,348.531,123.872Z" transform="translate(-308.625 -118.242)"/><path class="n" d="M357.14,145.42a2.5,2.5,0,0,1,.513.775c.056.134-.05.474,0,.607a1.042,1.042,0,0,0,.619.652,1.115,1.115,0,0,0,1.572-.557c.39.68.908.886,1.4,1.443s1.56.557,1.722-.206a2.982,2.982,0,0,0,0-1.154,7.368,7.368,0,0,0-.262-.814,4.247,4.247,0,0,0,.468.49c1.338,1.2,2.7,1.477,3.255,2.029-.106-.741-1.672-1.215-2.614-1.962a4.275,4.275,0,0,1-1.555-2.97,2.157,2.157,0,0,1,.156-.9l-.557.959s-.284-.78-.724-1a3.257,3.257,0,0,1,.351,2.029,1.912,1.912,0,0,1-.557.836,1.3,1.3,0,0,1,1.488.825c.524,1,.245,1.7-.228,1.778s-.674-.273-.959-.557c-.429-.407-.931-.814-.931-.814a2.209,2.209,0,0,1-.708-1.221,18.887,18.887,0,0,1-.351-2.229,1.889,1.889,0,0,1,.641-1.232c.44-.451,1.176-1.115,1.176-1.115a2.675,2.675,0,0,1-1.482-.084,1.978,1.978,0,0,1-.769-.959,3.867,3.867,0,0,1-.067,1.076c-.117.373-.362,1.159-.819,1.343.557.045.7.435.853.808s.641,2.976.713,3.427a.786.786,0,0,1-.708.407.752.752,0,0,1-.674-.323A8.7,8.7,0,0,0,357.14,145.42Z" transform="translate(-315.322 -127.206)"/><path class="m" d="M360.155,141a1.8,1.8,0,0,1-.245,1.705,1.739,1.739,0,0,1,.435.808,3.166,3.166,0,0,1,.63-.981,8.193,8.193,0,0,1,.986-.842A1.6,1.6,0,0,1,360.155,141Z" transform="translate(-316.549 -127.618)"/><path class="m" d="M355.5,145.75a3.968,3.968,0,0,0,.463,1.516c.273.446.686.808.964,1.276.15.223.273.463.429.674a.814.814,0,0,0,1.287.111,1.115,1.115,0,0,0,.262-.691.072.072,0,0,1,.139-.022,3.522,3.522,0,0,0,1.07,1.176,4.863,4.863,0,0,1,.613.557.947.947,0,0,0,.635.362.524.524,0,0,0,.485-.446,1.392,1.392,0,0,0,0-.769,3.222,3.222,0,0,0-.886-1.315h0a.078.078,0,0,1,0-.05l.189-1.5a.05.05,0,0,1,.056-.045.056.056,0,0,1,.039.05,3.265,3.265,0,0,0,.346,1.382,4.163,4.163,0,0,0,.869,1.154,3.522,3.522,0,0,1-1.31-2.541h.095l-.167,1.51v-.056a3.428,3.428,0,0,1,.936,1.371,1.527,1.527,0,0,1,.033.853.9.9,0,0,1-.212.39.591.591,0,0,1-.429.173,1.115,1.115,0,0,1-.764-.407,6.133,6.133,0,0,0-.585-.557,3.6,3.6,0,0,1-1.115-1.248h.139a1.265,1.265,0,0,1-.307.775.964.964,0,0,1-.78.3.953.953,0,0,1-.7-.435c-.162-.223-.284-.463-.429-.685-.262-.457-.669-.819-.931-1.3A3.974,3.974,0,0,1,355.5,145.75Z" transform="translate(-314.596 -129.721)"/><path class="m" d="M356.39,150.566a.5.5,0,0,1-.223.7.959.959,0,0,1-.752.033,2.229,2.229,0,0,1-1.115-.936,2.229,2.229,0,0,0,1.154.881.9.9,0,0,0,.691-.05.407.407,0,0,0,.173-.557Z" transform="translate(-314.065 -131.762)"/><path class="n" d="M375.371,155.413c.986.97.741,3.466,2.608,5.445-1.616-1.722-2.865-3.054-3.294-3.439-1.165-1.042-2.162-.9-3.656-.9C372.947,156.21,374.391,154.449,375.371,155.413Z" transform="translate(-321.471 -133.872)"/><path class="h" d="M299.53,129.841c1.533-.992,2.034-1.4,3.182-2.257a13.721,13.721,0,0,0,2.731-2.58c.769-1.037,1.354-1.482,2.1-1.3a3.405,3.405,0,0,0,1.733.111,2.122,2.122,0,0,1,1.895.49c.908.6,1.795.986,2.647.145s4.213-4.8,5.211-6.158,1.817-1.6,2.274-.97,0,2.062,0,2.062a1.254,1.254,0,0,1,1.377.8c.463,1-.3,2.474-1.716,4.38s-2.33,3.188-2.787,3.628-.747.825-1.254,1.321c-.223.607-3.16,3.16-3.16,3.16a2.285,2.285,0,0,1-.3,2.38,2.959,2.959,0,0,1-1.622,1.187c-.312.117-.641.223-.964.323a9.033,9.033,0,0,1-1.672.29,16.4,16.4,0,0,1-3.427-.184c-1.962-.167-3.806.886-5.339,2-.769.557-6.1,5.573-8.917,6.4s-8.081.557-9-1.226-.412-4.347,2.335-7.206,5.573-3.6,8.995-4.637C297.763,130.827,298.582,130.454,299.53,129.841Z" transform="translate(-282.105 -116.988)"/><path class="n" d="M306.24,150.332a39.79,39.79,0,0,0,3.26-3.784c1.711-2.012,3.957-2.748,4.174-6.091a4.414,4.414,0,0,1,1.588-3.238h0a17.671,17.671,0,0,0,1.466-1.326c.106-.318-.05-1.232.212-1.672a12.821,12.821,0,0,0,.329,1.951,19.135,19.135,0,0,1-.5,2.229c-.34,1.3.134,1.817.557,2.034a.4.4,0,0,0,.346.028,3.342,3.342,0,0,0,0,.674c.095.669.591.658.864.658s.674-.557,1.182-1.07a16.237,16.237,0,0,0,1.115-1.321,9.254,9.254,0,0,0,.111.953,19.878,19.878,0,0,0,.959,1.967,1.494,1.494,0,0,1-.557,1.756,1.911,1.911,0,0,0-.217.212c-.407.089-.825.128-1.237.178a16.4,16.4,0,0,1-3.427-.184c-1.962-.167-3.806.886-5.339,2C310.381,146.849,308.174,148.883,306.24,150.332Z" transform="translate(-292.79 -124.617)"/><path class="n" d="M342.261,129.267a1.83,1.83,0,0,0-.028.463c0,.178.078.412.084.557s-.134,0-.206-.039a1.767,1.767,0,0,1-.463-.669,1.031,1.031,0,0,1,.139-1.115,25.826,25.826,0,0,0,2.642-2.826,29.993,29.993,0,0,0,3.2-4.392,1.254,1.254,0,0,1,1.377.8.635.635,0,0,0-.635-.223c-.474.05-.892.819-1.605,1.845s-2.162,2.614-3.188,3.767a7.8,7.8,0,0,0-1.148,1.349A1.742,1.742,0,0,0,342.261,129.267Z" transform="translate(-308.418 -118.866)"/><path class="m" d="M341.8,128.592c.557-.557,1.076-1.148,1.605-1.728s1.037-1.181,1.521-1.806,1-1.221,1.482-1.839a14.4,14.4,0,0,0,1.332-1.939,10.877,10.877,0,0,1-1.226,2.023c-.463.641-.959,1.254-1.449,1.867a23.657,23.657,0,0,1-1.56,1.783C342.959,127.522,342.4,128.074,341.8,128.592Z" transform="translate(-308.532 -118.888)"/><path class="n" d="M329.419,129.649c-.474.145-.686-.2-1.059-.5a2.971,2.971,0,0,0,1.393.033,2.112,2.112,0,0,1,.49-.061C329.882,129.265,329.882,129.51,329.419,129.649Z" transform="translate(-302.582 -122.359)"/><path class="n" d="M336.012,134.18a7.991,7.991,0,0,0-.468-3.344h0a1.477,1.477,0,0,0,1.605-.307h0c-.145.156-.686.607-.68,1.17,0,1.616.29,2.441.268,2.881-.033.775-.607,1.276-.284,1.856s.747,1.226,1.4,1.064a6.688,6.688,0,0,0,1.739-1.042h0c-.513.507-1.02.992-1.527,1.455l-.557.49c-.106.089-.206.184-.312.268h0a2.012,2.012,0,0,0-.457-.725,15.72,15.72,0,0,0-1.265-1.672,2.656,2.656,0,0,0-.507-.262,4.5,4.5,0,0,0,1.042-1.834Z" transform="translate(-305.508 -122.983)"/><path class="m" d="M336.06,142.994a1.438,1.438,0,0,0-.329-.524l-.407-.474c-.134-.162-.268-.323-.4-.49s-.228-.362-.351-.518a1.07,1.07,0,0,0-.97-.529,1.4,1.4,0,0,0-.8.808,2.285,2.285,0,0,0-.279,1.159,2.908,2.908,0,0,0,.3,1.176c.167.373.424.708.591,1.115a1.549,1.549,0,0,1,.106,1.226,1.51,1.51,0,0,0-.184-1.187c-.178-.373-.446-.7-.635-1.081a2.948,2.948,0,0,1-.34-1.232,2.563,2.563,0,0,1,.284-1.248,1.566,1.566,0,0,1,.936-.886,1.187,1.187,0,0,1,1.115.607c.128.178.212.368.334.557s.24.334.368.5l.373.5a1.433,1.433,0,0,1,.29.518Z" transform="translate(-304.352 -127.311)"/><path class="m" d="M328.134,132.63a11.142,11.142,0,0,1,.228,1.828,4,4,0,0,1-.089.925,3.9,3.9,0,0,1-.345.864l-.825,1.644c-.139.273-.279.557-.4.825a4.372,4.372,0,0,1-.424.836.791.791,0,0,1-.4.312.6.6,0,0,1-.49-.134,1.2,1.2,0,0,1-.524-.791,4.018,4.018,0,0,1,.24-1.839,11.355,11.355,0,0,0,.357-1.783,6.866,6.866,0,0,1-.284-1.811,6.911,6.911,0,0,0,.351,1.8,3.4,3.4,0,0,1-.111.925l-.206.9a4.074,4.074,0,0,0-.206,1.778,1.115,1.115,0,0,0,.474.7.44.44,0,0,0,.362.1.652.652,0,0,0,.3-.256,5.651,5.651,0,0,0,.412-.8c.128-.284.273-.557.412-.83l.858-1.627a3.988,3.988,0,0,0,.351-.83,4.075,4.075,0,0,0,.1-.9,11.219,11.219,0,0,0-.139-1.828Z" transform="translate(-301.024 -123.913)"/><path class="m" d="M327.392,145.885a.719.719,0,0,1-.346-.095,1.237,1.237,0,0,1-.49-1.338.089.089,0,0,1,.106-.072.1.1,0,0,1,.072.106,1.048,1.048,0,0,0,.4,1.148.468.468,0,0,0,.557-.061c.524-.479,1.02-1.014,1.477-1.521a3.752,3.752,0,0,0,.557-.758.089.089,0,1,1,.162.067,3.465,3.465,0,0,1-.607.808c-.463.513-.959,1.048-1.488,1.538A.669.669,0,0,1,327.392,145.885Z" transform="translate(-301.765 -128.601)"/><path class="n" d="M327.326,135.682a.261.261,0,0,1,.067-.106,1.159,1.159,0,0,1,.557-.346.825.825,0,0,1,.869.318c.084.123.178.351-.05.323-.123,0-.229-.084-.34-.106a2.123,2.123,0,0,0-.646-.084,1.448,1.448,0,0,0-.256.067c-.089.017-.173.033-.206,0a.045.045,0,0,1,.006-.067Z" transform="translate(-302.116 -125.053)"/><path class="n" d="M333.347,135.736a.34.34,0,0,1,.089-.089,1.115,1.115,0,0,1,.613-.24.808.808,0,0,1,.8.457c.061.139.117.379-.1.312-.117-.039-.212-.117-.323-.162a1.867,1.867,0,0,0-.619-.2,2.093,2.093,0,0,0-.262.028c-.05,0-.178,0-.2-.061a.079.079,0,0,1,0-.05Z" transform="translate(-304.788 -125.141)"/><path class="n" d="M347.487,123.336a.106.106,0,0,1,.061,0c.089,0,.173.117.245.167a2.067,2.067,0,0,0,.3.184c.139.061.268.117.407.167s.312.106.329.223a.29.29,0,0,1-.228.29,1.17,1.17,0,0,1-.758-.312,1.115,1.115,0,0,1-.29-.373C347.526,123.615,347.4,123.4,347.487,123.336Z" transform="translate(-311.036 -119.797)"/><path class="n" d="M344.1,127.8c.05,0,.084.089.117.123a1.94,1.94,0,0,0,.4.346,3.783,3.783,0,0,1,.557.262c.111.095,0,.273-.078.34s-.334,0-.451-.084l-.167-.111a2.29,2.29,0,0,1-.279-.29.969.969,0,0,1-.212-.385c0-.072,0-.245.106-.212Z" transform="translate(-309.497 -121.767)"/><path class="n" d="M350.153,127.634a.117.117,0,0,1,.084,0l.061.045a.59.59,0,0,1,.128.106,2.513,2.513,0,0,0,.3.2c.206.111.435.156.641.251a.167.167,0,0,1,.067.2.228.228,0,0,1-.128.178.268.268,0,0,1-.184-.028.644.644,0,0,1-.19-.067,1.458,1.458,0,0,1-.329-.184,1.375,1.375,0,0,1-.279-.262,1.162,1.162,0,0,1-.128-.162.821.821,0,0,1-.078-.251A.026.026,0,0,1,350.153,127.634Z" transform="translate(-312.215 -121.698)"/><path class="n" d="M347.083,131.937a.716.716,0,0,0,.117.039l.128.056a2.921,2.921,0,0,1,.284.167l.268.167.156.089a.5.5,0,0,1,.145.095.217.217,0,0,1,0,.245.178.178,0,0,1-.206.106.756.756,0,0,1-.184-.123l-.106-.084-.217-.184a1.412,1.412,0,0,1-.206-.2l-.106-.145c-.033-.05-.061-.111-.1-.162S347.044,131.92,347.083,131.937Z" transform="translate(-310.85 -123.604)"/><path class="m" d="M331.672,145.2a8.641,8.641,0,0,0-1.672.067l1.371-1.393A2.63,2.63,0,0,0,331.672,145.2Z" transform="translate(-303.308 -128.889)"/><path class="m" d="M322.9,144.16a3.416,3.416,0,0,1-2.642,2.653,3.161,3.161,0,0,0,3.11-2,1.957,1.957,0,0,1-.468-.652Z" transform="translate(-298.996 -129.017)"/></g></g><g transform="translate(42.422 0.537)"><g transform="translate(0 82.284)"><path d="M164.41,398.686l3.779-1.443-1.254-2.552-2.318,2.179Z" transform="translate(-118.666 -276.529)"/><path class="i" d="M157.193,389.64s-.139,2.463-.173,3.244,3.294,3.171,4.119,3.567l.206-1.817a13.881,13.881,0,0,1,1.912,2.931c.641,1.115,1.466,3.193,3.221,4.609,2.608,2.107,6.688,3.166,10.8,3.294s6.5-.892,7.669-1.795a2.728,2.728,0,0,0,1.237-3C185.883,399.616,157.193,389.64,157.193,389.64Z" transform="translate(-115.394 -274.293)"/><path class="g" d="M168.137,373.322l.039-1.432c.764,0,.864,2.045,1.984,3.857a37.319,37.319,0,0,0,5.852,7.412c4.213,3.8,7.964,6.181,9.842,7.891,2.513,2.291-1.867,5.969-8.616,5.623-3.344-.173-9.3-1.828-10.985-3.8s-2.725-5.049-4.068-6.482-4.224-2.865-5.066-4.609c-.463-.959-.234-3.193.033-5.1.24-1.744.279-4.419,1.265-4.208l.072.9c.407.764,1.343,2.018,4.046,2.458C163.885,376.053,167.909,376.153,168.137,373.322Z" transform="translate(-115.321 -266.436)"/><path class="o" d="M170.931,377.68c1.287-.117,2.675-.557,3.21-1.711a.238.238,0,0,1,0-.039,3.271,3.271,0,0,0,.881,2.742c1.215,1.41,8.884,11.325,8.884,11.325s-7.111-8.176-8.482-9.714c-2.023-2.279-2.664-2.541-4.5-2.6Z" transform="translate(-121.548 -268.224)"/><path class="o" d="M173.346,383.43a.412.412,0,1,1-.368-.451.412.412,0,0,1,.368.451Z" transform="translate(-122.258 -271.343)"/><path class="o" d="M176.927,387.365a.412.412,0,0,1-.457.362.412.412,0,1,1,.089-.819.412.412,0,0,1,.368.457Z" transform="translate(-123.843 -273.083)"/><path class="o" d="M180.516,391.295a.412.412,0,1,1-.819-.089.407.407,0,0,1,.451-.368.418.418,0,0,1,.368.457Z" transform="translate(-125.431 -274.822)"/><path class="o" d="M184.108,395.241a.412.412,0,0,1-.451.368.418.418,0,0,1-.368-.457.412.412,0,0,1,.819.089Z" transform="translate(-127.022 -276.578)"/><path class="o" d="M187.7,399.16a.412.412,0,1,1-.368-.451A.412.412,0,0,1,187.7,399.16Z" transform="translate(-128.61 -278.307)"/><path class="i" d="M173.106,382.286a.139.139,0,0,1-.106-.05.162.162,0,0,1,0-.234,6.817,6.817,0,0,1,4.659-1.867h0a.173.173,0,0,1,.156.178.167.167,0,0,1-.178.156,6.511,6.511,0,0,0-4.4,1.772A.162.162,0,0,1,173.106,382.286Z" transform="translate(-122.446 -270.082)"/><path class="i" d="M176.7,386.216a.139.139,0,0,1-.106-.05.173.173,0,0,1,0-.234,6.79,6.79,0,0,1,4.659-1.867h0a.162.162,0,0,1,.156.173.173.173,0,0,1-.173.162,6.547,6.547,0,0,0-4.408,1.772A.162.162,0,0,1,176.7,386.216Z" transform="translate(-124.039 -271.822)"/><path class="i" d="M180.29,390.165a.19.19,0,0,1-.106-.05.173.173,0,0,1,0-.234,6.789,6.789,0,0,1,4.659-1.867h0a.167.167,0,1,1,0,.329,6.6,6.6,0,0,0-4.408,1.772A.184.184,0,0,1,180.29,390.165Z" transform="translate(-125.629 -273.57)"/><path class="i" d="M183.88,394.1a.189.189,0,0,1-.106-.05.173.173,0,0,1,0-.234,6.789,6.789,0,0,1,4.659-1.867h0a.167.167,0,1,1,0,.329,6.6,6.6,0,0,0-4.408,1.772A.145.145,0,0,1,183.88,394.1Z" transform="translate(-127.218 -275.31)"/><path class="i" d="M187.468,398.025a.145.145,0,0,1-.106-.05.167.167,0,0,1,0-.234,6.77,6.77,0,0,1,4.654-1.867h0a.162.162,0,0,1,.15.173.173.173,0,0,1-.173.162,6.526,6.526,0,0,0-4.4,1.772.173.173,0,0,1-.123.045Z" transform="translate(-128.805 -277.05)"/><path class="i" d="M97.149,419.174c-.557,3.227-1.338,5.317-2.714,7.083s-3.857,1.973-5.7,1.583a7.937,7.937,0,0,1-6.13-6.036c-.591-2.229-.184-4.771.674-7.724Z" transform="translate(-82.33 -285.113)"/><path class="g" d="M90.211,378.78c-.914-.039-1.672,4.291-2.742,8.594-1.115,4.615-2.865,7.061-3.706,10.16-1.165,4.3-1.115,6.3.128,9.134s7.568,6.292,10.7,2.814c2.552-2.837,3.048-6.259,3.344-10.656.334-4.548.557-7.752,1.115-11.146.557-3.26,1.17-6.415.424-6.872-.117.474-.251,1.081-.368,1.544-.095.357-.4,2.123-.908,2.079a7.191,7.191,0,0,1,.139-1.237,1.488,1.488,0,0,0-.123-1.115,1.722,1.722,0,0,0-.953-.557,26.991,26.991,0,0,0-2.647-.741c-.446-.089-.9-.167-1.354-.217a15.684,15.684,0,0,0-2.385-.184.825.825,0,0,0-.557.39,1.332,1.332,0,0,0-.106.49,3.69,3.69,0,0,1-.223.886c-.045.128-.156.273-.279.228s-.128-.173-.117-.284c.056-.529.173-.9.268-1.516.045-.284.139-.669.178-.953S90.177,379.058,90.211,378.78Z" transform="translate(-82.592 -269.485)"/><path class="o" d="M90.194,414.881a.32.32,0,1,0,.382-.242A.32.32,0,0,0,90.194,414.881Z" transform="translate(-85.808 -285.356)"/><path class="o" d="M91.384,409.523a.32.32,0,0,0,.624.139.312.312,0,0,0-.24-.379.318.318,0,0,0-.385.24Z" transform="translate(-86.335 -282.985)"/><path class="o" d="M92.513,404.46a.312.312,0,0,0,.24.379.318.318,0,0,0,.385-.24.329.329,0,0,0-.245-.385.323.323,0,0,0-.379.245Z" transform="translate(-86.834 -280.743)"/><path class="o" d="M93.62,399.458a.318.318,0,1,0,.213-.251A.318.318,0,0,0,93.62,399.458Z" transform="translate(-87.322 -278.521)"/><path class="o" d="M106.4,401.8a.318.318,0,1,0,.379-.245A.323.323,0,0,0,106.4,401.8Z" transform="translate(-92.985 -279.565)"/><path class="o" d="M105.284,406.8a.318.318,0,0,0,.245.379.312.312,0,0,0,.379-.24.318.318,0,0,0-.24-.385A.329.329,0,0,0,105.284,406.8Z" transform="translate(-92.488 -281.778)"/><path class="o" d="M104.164,411.893a.321.321,0,1,0,.379-.24.312.312,0,0,0-.379.24Z" transform="translate(-91.992 -284.034)"/><path class="o" d="M102.993,417.259a.312.312,0,0,0,.24.379.318.318,0,0,0,.385-.24.329.329,0,0,0-.245-.385.318.318,0,0,0-.379.245Z" transform="translate(-91.473 -286.408)"/><path class="o" d="M97.88,402.783l4.954-20.821-1.17-.162Z" transform="translate(-89.214 -270.823)"/><path class="i" d="M90.584,415.2h.05c2.151-.217,5.7.424,7.022,1.276a.162.162,0,0,0,.173-.273c-1.4-.9-4.977-1.555-7.245-1.326a.162.162,0,0,0-.145.178A.156.156,0,0,0,90.584,415.2Z" transform="translate(-85.919 -285.443)"/><path class="i" d="M91.8,409.735a.145.145,0,0,0,.084,0c1.672-.557,5.478.312,6.989,1.287a.162.162,0,0,0,.223-.05.156.156,0,0,0-.05-.223c-1.572-1.014-5.478-1.917-7.245-1.321a.156.156,0,0,0-.1.206A.151.151,0,0,0,91.8,409.735Z" transform="translate(-86.474 -282.969)"/><path class="i" d="M92.913,404.673a.145.145,0,0,0,.084,0c1.672-.557,5.478.312,6.983,1.287a.163.163,0,0,0,.178-.273c-1.572-1.02-5.484-1.923-7.245-1.321a.162.162,0,0,0-.1.206A.167.167,0,0,0,92.913,404.673Z" transform="translate(-86.967 -280.727)"/><path class="i" d="M94.043,399.683a.145.145,0,0,0,.084,0c1.672-.557,5.478.312,6.983,1.287a.163.163,0,0,0,.178-.273c-1.572-1.014-5.484-1.923-7.245-1.321a.162.162,0,0,0-.1.206.156.156,0,0,0,.1.1Z" transform="translate(-87.467 -278.518)"/><path class="i" d="M98.942,185.367c-2.118,26.829-4.2,63.812-4.2,63.812-.189,2.04-2.146,10.734-3.132,20.782-1.037,10.589-1.878,30.463-1.878,30.463s7.412,3.985,13.42,1.984c0,0,6.443-33.439,9.524-45.939,2.915-11.826,7.474-34.236,7.474-34.236l3.11,22.175s-.412,7.646-.184,13c.262,6.22,4.236,36.131,4.236,36.131s8.064,4.748,14.3-.033c0,0,1.081-41.241,1.254-48.731.346-14.685-1.371-43.141-1.906-62.1Z" transform="translate(-85.606 -182.67)"/><path d="M115.146,243.73q-.836,9.636-1.873,19.272-.507,4.815-1.053,9.625l-.557,4.81-.284,2.4c-.089.8-.251,1.594-.373,2.391-1.059,6.365-2.686,17.923-3.84,24.276s-2.385,12.684-3.695,19q1.254-9.6,2.748-19.155c1-6.37,2.552-17.94,3.645-24.293.128-.8.3-1.588.385-2.385l.3-2.4.607-4.8q.613-4.8,1.254-9.591Q113.686,253.3,115.146,243.73Z" transform="translate(-91.688 -209.701)"/><path d="M177.74,240.46c.674,6,1.031,12.027,1.287,18.057s.49,12.077.268,18.1-.3,16.162-.529,22.17-.5,12.055-.858,18.074q-.139-9.045-.056-18.09c.039-6.03.145-16.134.273-22.159l.111-4.525.028-1.115V267.6l-.111-9.04-.145-9.04C177.935,246.485,177.835,243.475,177.74,240.46Z" transform="translate(-124.567 -208.253)"/><path d="M144.31,238.48l2.619-14.7s7.284-1.059,11.018-4.414c0,0-2.408,4.431-9.279,6.169l-2.6,12.98,1.354,22.136Z" transform="translate(-109.768 -198.917)"/></g><g transform="translate(4.023)"><g transform="translate(0 35.264)"><path class="p" d="M165.59,101.83c3.756.981,7.139,1.973,10.589,7.245,4.369,6.743,13.933,20.32,14.685,27.776.557,5.233-12.612,1.5-12.612,1.5l-9.346-15.008Z" transform="translate(-123.211 -99.863)"/><path class="q" d="M113.056,98.3c-6.543,1.466-8.51,2.1-11.6,2.826,0,0-5.768,16.318-2.993,27.693.635,2.614,2.787,9.825,3.227,15.4a66.193,66.193,0,0,1,0,13.036s8.755,6.13,27.069,4.269c14.373-1.471,16.1-6.827,16.1-6.827s-.908-19.645-1.566-30.256c-.864-13.933-6.13-22.292-7.752-24.171-.513-.3-10.266-1.767-10.266-1.767Z" transform="translate(-93.16 -98.3)"/><path class="p" d="M97.842,103.37c-7.05,2.162-7.724,5.412-8.192,8.41-.591,3.762,1.533,10.9,3.221,17.522,2.229,8.8,6.855,17.154,12.367,17.394l3.9-16.641-3.578-10.979S103.733,105.443,97.842,103.37Z" transform="translate(-89.549 -100.544)"/></g><g transform="translate(11.133)"><path class="g" d="M116.212,47.08a4.768,4.768,0,0,0-3.539,2.787c-.713,1.332-1.243,3.773.557,10.784a28.239,28.239,0,0,0,3.26,7.752,3.478,3.478,0,0,0,1.99,1.627l-.072-5.372-.156-3.745s3.054-2.7,3.344-5.389a8.622,8.622,0,0,0-.953-5.434Z" transform="translate(-110.625 -40.362)"/><path class="g" d="M118.23,41.911c.557-3.009,4.458-6.565,11.832-6.866,6.052-.245,9.569,1.878,11.631,5.434s.619,8.109.619,8.109l-19-1.482Z" transform="translate(-113.379 -35.026)"/><path class="r" d="M112.4,66.328c2.787,1.388,4.068-.8,4.068-.8l.279,12.06c5.25,7.245,19.539,4.52,13.76-.908v-3.4a20.1,20.1,0,0,0,2.413-.229c2.469-.357,4.035-2.09,4.8-4.748a37.549,37.549,0,0,0,.234-16.987,4.67,4.67,0,0,0-2-3.344c-2.937-1.5-5.7.557-9.842,2.129-1.711.641-5.852.886-6.939.357,1.416,1.605.557,5.707.139,7-.557,1.873-1.382,2.787-1.772,2.853-1.672.334-1.867-1.115-2.619-1.917a3.1,3.1,0,0,0-4.837,1.048,5.055,5.055,0,0,0,2.307,6.883Z" transform="translate(-109.525 -40.528)"/><path class="s" d="M128.4,87.85c.557,2.731,4.213,4.576,10.472,4.8V91.166a29.025,29.025,0,0,1-4.564-.446A16.626,16.626,0,0,1,128.4,87.85Z" transform="translate(-117.881 -58.41)"/><path class="g" d="M136.745,58.425l-2.731,1.148a1.555,1.555,0,0,1,.819-1.99,1.449,1.449,0,0,1,1.912.842Z" transform="translate(-120.319 -44.964)"/><path class="g" d="M155.239,58.686l-2.859-.869a1.438,1.438,0,0,1,1.811-1.025A1.572,1.572,0,0,1,155.239,58.686Z" transform="translate(-128.497 -44.634)"/><path class="i" d="M135.85,63.457a1.209,1.209,0,1,0,.34-.869A1.209,1.209,0,0,0,135.85,63.457Z" transform="translate(-121.179 -47.064)"/><path class="i" d="M152.244,62.925a1.209,1.209,0,1,0,1.181-1.237,1.115,1.115,0,0,0-1.181,1.237Z" transform="translate(-128.433 -46.828)"/><path class="s" d="M144.12,60.32l1.332,8.427,4.553-1.728A17.189,17.189,0,0,0,144.12,60.32Z" transform="translate(-124.84 -46.223)"/><path class="m" d="M141.771,77.66l5.439.557a2.681,2.681,0,0,1-2.92,2.536,2.859,2.859,0,0,1-2.519-3.093Z" transform="translate(-123.795 -53.899)"/><path class="s" d="M142.588,79.075a2.831,2.831,0,0,0-.658.084,2.82,2.82,0,0,0,2.435,2.19,2.53,2.53,0,0,0,.875-.072,2.5,2.5,0,0,0-2.653-2.2Z" transform="translate(-123.87 -54.523)"/></g><g transform="translate(13.353 32.898)"><path class="t" d="M134.241,124.29c-4.314,3.756-8.622,7.4-12.484,10.589-3.288,2.692-5.612,4.531-6.872,6.688s-2.068,10.372-.557,13.309,9.413,0,12.512-3.076,5.467-8.7,8.014-12.79,4.419-6.81,6.61-7.964Z" transform="translate(-113.509 -107.44)"/><path class="s" d="M150.946,135.931l-.635-.591c-2.313.953-3.9,2.5-5.746,5.255-2.369,3.494-5.612,14.256-9.625,17.232a11.421,11.421,0,0,0,1.382-1.142c3.1-3.054,5.467-8.7,8.014-12.79S148.756,137.084,150.946,135.931Z" transform="translate(-122.996 -112.331)"/><path class="r" d="M181.254,136.09c-.446.741.385,2,.953,2.787a22.188,22.188,0,0,0,4.893,4.213,16.128,16.128,0,0,1,5.974,6.236c1.159,2.5,1.115,7.245-.05,8.917s-3.9,1.081-6.359-.078c-3.383-1.594-5.233-4.1-7.758-7.8-2.742-4.029-4.843-7.457-6.5-9.474S181.254,136.09,181.254,136.09Z" transform="translate(-139.505 -112.663)"/><path class="s" d="M182.392,153.957c-1.6-2.14-5.835-11.648-4.876-13.442s3.589-3,4.219-2.335h0c-.44-.713-.808-1.544-.479-2.09,0,0-10.494,2.787-8.845,4.8s3.756,5.445,6.5,9.474c2.525,3.7,4.375,6.208,7.758,7.8a26.483,26.483,0,0,1-4.275-4.213Z" transform="translate(-139.506 -112.663)"/><path class="m" d="M184.879,133.277a8.2,8.2,0,0,0-3.9,1.923c-1.187.869-5.016,3.611-7.245,3.745S180.916,130.864,184.879,133.277Z" transform="translate(-140.02 -111.222)"/><path class="r" d="M171.533,126.73c2.3-.446,3.94.557,6.041.7s3.344-.056,4.782.825,2.062,2.062.251,2.591-3.545-.39-5.306-.273a7.32,7.32,0,0,0-4.91,1.978c-1.973,1.611-4.709,4.458-6.337,5.5s-2.6.251-2.6.251a6.5,6.5,0,0,1-2.056,1.622,1.037,1.037,0,0,1-1.4-1.148c-.881.084-1.633-.373-1.427-1.46a10.489,10.489,0,0,1,1.917-3.071s-1.02.864-1.566,1.265c-1.009.747-2.045-.067-1.432-1.549s5.74-5.7,7.63-6.376a6.2,6.2,0,0,1,3.656-.084A18.079,18.079,0,0,1,171.533,126.73Z" transform="translate(-132.899 -108.469)"/><path class="s" d="M159.782,136.98c-1.521,1.243-2.029,1.427-2.352,1.2.206.613.886.8,1.549.312.557-.4,1.566-1.265,1.566-1.265l3.762-3.851S161.365,135.693,159.782,136.98Z" transform="translate(-132.952 -111.464)"/><path class="s" d="M165.7,135.7c-.3.6-1.377,1.566-2.279,2.753a20.478,20.478,0,0,1-2.742,3.193.814.814,0,0,1-1.159-.123c.039.786.7,1.115,1.46,1.048.134-.8,1.243-2.19,2.3-3.494s3.127-3.344,3.009-3.662S166,135.088,165.7,135.7Z" transform="translate(-133.877 -112.268)"/><path class="s" d="M171,136.332c.34-.39-.268-.942-.513-.4s.056.557-.73,1.494-2.318,2.53-2.725,3.11a2.7,2.7,0,0,0-.557,2.736h0a8.363,8.363,0,0,0,.975-.953c-.479-.4-.451-1.466.429-2.441S170.666,136.722,171,136.332Z" transform="translate(-136.887 -112.493)"/><path class="s" d="M188.767,131.969h0c-.362.557-2.151.524-3.344.117s-3.79-1.115-5.278-.836-2.993,1.271-4.564,3.277a29.084,29.084,0,0,1-5.016,5.194c-1.3.869-1.845.713-1.845.713a2.392,2.392,0,0,0,2.4-.368c1.627-1.042,4.364-3.9,6.337-5.5a7.4,7.4,0,0,1,4.91-1.978c1.761-.117,3.494.8,5.306.273C188.382,132.654,188.722,132.331,188.767,131.969Z" transform="translate(-137.95 -110.493)"/><path class="t" d="M158.121,117.075a18.854,18.854,0,0,1,4.135-.4c2.547-.251,4.943-.479,5.384-1.115s2.006-2.229,2.04-2.92a1.616,1.616,0,0,0-.468-1.165,4,4,0,0,0,.92-1.449,2.664,2.664,0,0,0-.334-1.845,2.229,2.229,0,0,0,.691-1.115,1.783,1.783,0,0,0-1.237-2.118,2.129,2.129,0,0,0,.741-1.928c-.089-.931-1.282-1.6-2.842-1.248s-4.648,1.248-5.35.786-.362-2.948-.451-4.531-1.115-4.224-2.608-3.951c-.791.145-.373,2.586-.758,4.765s-2.463,4.665-3.595,7.357a18.64,18.64,0,0,1-3.667,4.726c.3,3.054,3.115,6.236,5.239,6.866a10.907,10.907,0,0,1,2.162-.713Z" transform="translate(-129.982 -94.055)"/><path class="s" d="M169.267,107.337c-.429-.279-.468-1.321-.457-2.447h0c-.3,1.076-1.672,2.357-1.048,2.853s2.742-.229,4.113-.557h0A4.762,4.762,0,0,1,169.267,107.337Z" transform="translate(-137.455 -98.851)"/><path class="s" d="M182.092,113.927a1.928,1.928,0,0,0-.646-.357s-1.672.836-3.166,1.455A9.77,9.77,0,0,0,182.092,113.927Z" transform="translate(-142.182 -102.694)"/><path class="s" d="M182.833,119.37c-.836.6-2.653,1.549-2.653,1.549s1.85-.451,2.943-.858A3.289,3.289,0,0,0,182.833,119.37Z" transform="translate(-143.023 -105.262)"/><path class="s" d="M181.823,125.28h0a28.558,28.558,0,0,1-2.6,1.856,17.834,17.834,0,0,0,2.982-1.248,1.672,1.672,0,0,0-.379-.607Z" transform="translate(-142.598 -107.878)"/><path class="s" d="M173.355,128.991c-.78.992-1.806,2-4.637,2.313-2.413.268-4.91.279-7.3,1.209a11.911,11.911,0,0,0-1.388.7h.078a23.764,23.764,0,0,1,6.264-1.115c2.547-.251,4.943-.479,5.384-1.115.3-.435,1.115-1.276,1.6-2Z" transform="translate(-134.103 -109.516)"/><path class="m" d="M171.41,131.422l2.268-.318a16.254,16.254,0,0,0,2.229-.435,1.449,1.449,0,0,0,.9-.557c.24-.307.49-.6.741-.881a11.233,11.233,0,0,0,.73-.875,2.474,2.474,0,0,0,.557-.986,2.491,2.491,0,0,1-.468,1.042c-.217.323-.451.624-.691.92s-.49.591-.713.892a1.6,1.6,0,0,1-.189.24,1.288,1.288,0,0,1-.251.178,2.931,2.931,0,0,1-.557.223,13.81,13.81,0,0,1-2.268.4C172.937,131.338,172.174,131.383,171.41,131.422Z" transform="translate(-139.141 -108.803)"/><path class="s" d="M175.092,116.041a3.95,3.95,0,0,0-.468.446,2.229,2.229,0,0,1-.6.39,2,2,0,0,1-.4.111c-.111,0-.613.045-.685.056a.557.557,0,0,0-.256.095v.078a1.115,1.115,0,0,0,.451.106,4.912,4.912,0,0,0,.49.061,1.438,1.438,0,0,0,.691-.184,1.672,1.672,0,0,0,.479-.5,1.566,1.566,0,0,0,.284-.652S175.092,116.013,175.092,116.041Z" transform="translate(-139.708 -103.783)"/><path class="s" d="M176.87,121.91a5.014,5.014,0,0,0-.474.446,2.163,2.163,0,0,1-.6.39,1.907,1.907,0,0,1-.4.117c-.106,0-.613.045-.68.056a.513.513,0,0,0-.256.095.05.05,0,0,0,0,.072,1.075,1.075,0,0,0,.457.106c.167,0,.323.067.49.067a1.471,1.471,0,0,0,.685-.189,1.527,1.527,0,0,0,.479-.5,1.594,1.594,0,0,0,.29-.646S176.875,121.91,176.87,121.91Z" transform="translate(-140.488 -106.386)"/><path class="s" d="M177.372,127a4.455,4.455,0,0,0-.468.446,2.006,2.006,0,0,1-.6.39,1.672,1.672,0,0,1-.4.117c-.111,0-.613.045-.685.056a.513.513,0,0,0-.256.095v.078a1.114,1.114,0,0,0,.451.1,3.7,3.7,0,0,0,.49.067,1.505,1.505,0,0,0,.691-.184,1.672,1.672,0,0,0,.479-.507,1.543,1.543,0,0,0,.284-.646S177.378,127,177.372,127Z" transform="translate(-140.717 -108.639)"/></g></g></g></g></g></svg>