<svg xmlns="http://www.w3.org/2000/svg" width="295" height="245.547" viewBox="0 0 295 245.547"><defs><style>.a{fill:#2df0da;}.ad,.b,.f{fill:#90caf9;}.ae,.af,.c,.d,.e,.g{fill:#fff;}.ad,.c{opacity:0.6;}.d{opacity:0.5;}.e{opacity:0.1;}.f,.z{opacity:0.2;}.h{opacity:0.27;}.i{fill:#1d7e96;}.j{fill:#263238;}.k{fill:#37474f;}.l,.s{opacity:0.15;}.m{fill:#455a64;}.n{fill:#ebebeb;}.o{fill:#e0e0e0;}.p{fill:#b16668;}.q{fill:#9a4a4d;}.r{fill:#f28f8f;}.t{fill:#fafafa;}.u{fill:#f0f0f0;}.v{fill:#ff8900;}.w{fill:#f5f5f5;}.x{fill:#ffbda7;}.y{fill:#f0997a;}.aa{fill:#8dd52c;}.ab{fill:#ffa8a7;}.ac{fill:#35a3be;}.ae{opacity:0.45;}.af{opacity:0.25;}</style></defs><g transform="translate(6010.64 9797.66)"><path class="a" d="M80,0H295a0,0,0,0,1,0,0V120a80,80,0,0,1-80,80H0a0,0,0,0,1,0,0V80A80,80,0,0,1,80,0Z" transform="translate(-6010.64 -9752.113)"/><g transform="translate(-6019.683 -9838.121)"><g transform="translate(79.589 40.461)"><path class="b" d="M140.636,160.716a68.87,68.87,0,1,0-12.7-62.549,68.87,68.87,0,0,0,12.7,62.549Z" transform="translate(-125.229 -48.431)"/><path class="c" d="M140.636,160.716a68.87,68.87,0,1,0-12.7-62.549,68.87,68.87,0,0,0,12.7,62.549Z" transform="translate(-125.229 -48.431)"/><path class="d" d="M127.59,130.509c-.171-.177-1.54-2.092-1.518-2.114a.254.254,0,0,0,.083-.265c0-.077-.4-.3-.673-.552.055.845.132,1.684.221,2.523.309.3.784.552,1.021.767s.911,1.225,1.292,1.17C128.671,131.95,127.766,130.692,127.59,130.509ZM141.224,80.32a2.208,2.208,0,0,0,.983.088.729.729,0,0,1,.42.077c.359.237-.27,1.248,0,1.546.171.177.552.066.845.039a5.929,5.929,0,0,0,1.3-.2,3.815,3.815,0,0,0,.789-.4,14.269,14.269,0,0,1,1.993-.856,1.1,1.1,0,0,0,.834-1.225c-.039-.491-.475-.442-.988-.243-.685.27-1.468.7-1.656.762s-.3.061-.237-.094c.116-.293.944-.635,1.1-.712l.972-.552c.552-.293,1.148-.552,1.408-.69a3.313,3.313,0,0,0,.475-.287,3.125,3.125,0,0,0,.657-.6c.326-.508,0-.723.331-1.176a3.8,3.8,0,0,1,.961-.828,10.916,10.916,0,0,0,1.016-.8c.607-.607.513-1.248.927-1.954a4.338,4.338,0,0,1,.872-1.038c.491-.431,1.165-.944,1.529-1.286l.651-.613a4.61,4.61,0,0,0,.69-.806c.138-.2.254-.447.386-.646a1.529,1.529,0,0,1,.442-.458,3.384,3.384,0,0,0,1.159-1.529c.265-.8-.3-.552-.447-.7-.243-.254-.607-.182-1.01-.072-.872.232-1.9.784-2.931,1.176q-2,1.4-3.925,2.959c-1.1.894-2.158,1.827-3.191,2.76a1.971,1.971,0,0,0,.756.193c.624.11,1.579-.657,2.363-1,.348-.155,1.4-.756,1.5-.425.155.508-1.016,1.259-1.264,1.408a1.474,1.474,0,0,0-.552.486c-.27.431-.723,1.016-1.076.834a1.656,1.656,0,0,0-.662-.3.442.442,0,0,0-.442.293c-.2.392-.834,1.071-.994.651-.088-.248-.1-.613-.32-.7s-.4-.039-.552-.127a.513.513,0,0,1-.083-.072q-1.535,1.485-2.959,3.042a1.2,1.2,0,0,0,.3.282,1.971,1.971,0,0,0,1.275.27,3.7,3.7,0,0,0,.729-.215c.287-.11.938-.635,1.137-.552s-.088.773-.337,1.17a6.216,6.216,0,0,1-1.54,1.617,2.937,2.937,0,0,1-2.153.7c-.221,0-1.132-.182-1.457.193S141.048,80.215,141.224,80.32Zm-4.19,7.386c.762.337,1.584-.552,2.02-1.375.552-1.027-.552-.961-.138-1.347.276-.265.607-.591.453-.734-.044-.05-.144-.039-.188-.083s-.519,0-1.253.48-.872,1.253-1.4,1.551S136.527,87.48,137.035,87.706Zm2.617-5.316c.094-.166.591-1.148.348-1.54-.121-.188-.337-.138-.552,0-.265.342-.519.7-.773,1.043a2.76,2.76,0,0,0,.27.635c.132.375.613.022.707-.138Zm19.265-14.352c-.254.795-1.143.723-1.452.9a2.125,2.125,0,0,0-.442.337,2.241,2.241,0,0,0-.442,1.386c0,.16,0,.309-.42.756a13.132,13.132,0,0,1-1.733,1.54,3.2,3.2,0,0,0-1.1,1.507c-.232.629,0,.591.177.762a.949.949,0,0,1,.221.32c.094.221.182.834.469.894a5.61,5.61,0,0,0,1.777-.734c1.076-.552,2.109-.949,2.732-.072a2.208,2.208,0,0,1,.375,1.021,10.891,10.891,0,0,1-.342,2.821,2.054,2.054,0,0,0,0,1.237c.326.635,1.1.552,1.468,1.264a3.058,3.058,0,0,1-.155,2.208,14.061,14.061,0,0,1-1.2,1.971,4.557,4.557,0,0,0-.193,2.208,6.9,6.9,0,0,0,.431,2.578,19.5,19.5,0,0,0,1.1,2.594,3.1,3.1,0,0,0,.6.883,2.4,2.4,0,0,0,2.092.121,2.269,2.269,0,0,0,1.148-.856c.668-.983.364-2.357.552-3.5a2.926,2.926,0,0,1,1.325-2.125,5.772,5.772,0,0,0,1.96-1.479c.4-.613.585-1.518,1.016-2.087.58-.762,1.6-.845,2.285-1.237.48-.27,1.419-.894,1.43-1.656,0-.408-.16-.6,0-1a1.457,1.457,0,0,1,.5-.552c.077-.061.226-.116.364-.2a.811.811,0,0,0,.039-.861,5.2,5.2,0,0,1-.326-.42c-.491-.823-.629-1.518,0-2.087.519-.475,1.424-1.419,1.1-2.479-.2-.635-.591-.834-.657-1.557a2.71,2.71,0,0,1,.055-.806,7.391,7.391,0,0,1,.552-1.27.867.867,0,0,0,0-.74c-.221-.469-.7-.464-.96-.74-1.386-1.413,2.368-4.836,1.9-5.52a.552.552,0,0,0-.375-.193,3.616,3.616,0,0,0-.9-.039,1.54,1.54,0,0,0-.491.138,1.557,1.557,0,0,0-.552.585c-.259.4-.6.861-.729.745s-.088-.16-.2-.3c-.326-.414-.32-.066-.646.155-.155.11-.734.226-.823-.287s.4-1.1.552-1.413a1.242,1.242,0,0,1,.425-.552c.27-.188.166-.889-.32-1.242a3.053,3.053,0,0,0-1.524-.513,4.6,4.6,0,0,0-2.981.7,6.669,6.669,0,0,0-1.419,1.1c-.613.624-1.137,1.954-1.833,2.661a1.1,1.1,0,0,1-1.2.309,2.451,2.451,0,0,0-2.76,1.17c-.745.872-.226.889-.469,1.667ZM258,130.382a3.649,3.649,0,0,0,.464,2.009,3.478,3.478,0,0,0,.789,1.253,1.7,1.7,0,0,0,2.76-.552c.121-.287.237-.856.4-1.209.127-.933.226-1.866.315-2.8a1.1,1.1,0,0,1-.055-1.187c.309-.646.3-1.485-.37-1.518s-.916.69-1.352,1.27a14.729,14.729,0,0,1-1.766,1.877c-.375.342-1.11.083-1.187.878ZM187.158,65.217c.193.166.375.4.552.552a3.147,3.147,0,0,0,.74.513,8.5,8.5,0,0,1,.889.552.756.756,0,0,1,.11.121c.11.177.039.138.044.276,0,.248.171.375.431.48a5.367,5.367,0,0,1,.64.348c.353.193.988.226,1.065-.132a3.118,3.118,0,0,0,0-.718,5.317,5.317,0,0,1-.066-1.2,1.449,1.449,0,0,0,0-.171c0-.094.21-.232.519-.1.21.088.436.21.552.259l.221.094c.121.061.132.248.138.309a.177.177,0,0,0,.061.121.519.519,0,0,0,.243.127,2.937,2.937,0,0,0,.883.226.971.971,0,0,0,.342-.044.337.337,0,0,0,0-.585,9.516,9.516,0,0,1-1.336-.552,3.257,3.257,0,0,1-.767-.668c-.414-.513,0-.657.315-.69a4.08,4.08,0,0,0,.789-.155,1.706,1.706,0,0,0,1.016-.673.806.806,0,0,0-.094-.618l-.05-.05a1.1,1.1,0,0,0-1.1-.221,13.175,13.175,0,0,1-1.336.171,3,3,0,0,1-.6.044,1.507,1.507,0,0,0-.464-.039,1.893,1.893,0,0,0-.712.386,1.435,1.435,0,0,1-.861.342c-.188,0-.5-.072-.5.166,0,.337.458.6.552.916s-.21.177-.414,0-.221-.464-.4-.624-.293-.072-.315,0c-.039.182.033.436-.315.248-.2-.1-.3-.265-.513-.309-.364-.072-1.1.259-.751.861a1.772,1.772,0,0,0,.491.442ZM215.763,74.6a9.384,9.384,0,0,0,.938.475,1.22,1.22,0,0,0,1.209-.138c.188-.2-.127-.618-.326-.922a3.991,3.991,0,0,0-.232-.337,3.455,3.455,0,0,1-.408-1.192,2.721,2.721,0,0,1,0-.767,2.887,2.887,0,0,1,.646-1.38,8.474,8.474,0,0,1,1.882-1.54,9.621,9.621,0,0,1,1.021-.552c.21-.11.425-.21.64-.309a3.725,3.725,0,0,0,.552-.177.552.552,0,0,0-.116-.933.966.966,0,0,0-.221-.088.668.668,0,0,0-.552.11,4.532,4.532,0,0,1-1.4.475c-2.026.381-3.61,1.281-4.113,3.185a9.9,9.9,0,0,0-.42,2.042c0,.259,0,.519-.248.58-.171.044-.237.11-.155.331a2.539,2.539,0,0,0,1.3,1.121Zm-35.224,11.67c.37-1-.927-2.346-1.408-2.208-.287.072-.552.375-.773.5a5.013,5.013,0,0,1-.949.2c-.524.11-.966.916-1.4.453s-.629,1.187,0,2.059C177.492,89.285,179.981,87.789,180.539,86.271Zm79.695,50.123a10.8,10.8,0,0,0-1.728.171,2.125,2.125,0,0,1-.938-.066.944.944,0,0,1-.436-.293,2.136,2.136,0,0,1-.2-1.336,1.855,1.855,0,0,0-.524-1.352c-.138-.16-.276-.337-.414-.491-.221-.248-.519-.342-.74-.6a1.551,1.551,0,0,1-.425-.949.927.927,0,0,1,.215-.6,1.783,1.783,0,0,0,.1-1.319c-.1-.248-.226-.48-.3-.662a8.656,8.656,0,0,0-.552-.938c-.094-.149-.226-.237-.32-.386a7.419,7.419,0,0,1-1.1-3.638c0-.381.11-.773.436-.784a.552.552,0,0,1,.287.088,3.312,3.312,0,0,1,.635.613c.166.21.337.4.386.4.651-.116.9,2.269,1.656,1.209.243-.331.6-.552.856-.867a4.138,4.138,0,0,0,.3-.425,3.572,3.572,0,0,0,.436-1.352,2.888,2.888,0,0,0-.072-.894,4.787,4.787,0,0,0-.817-1.684,4.93,4.93,0,0,0-.657-.8.966.966,0,0,1-.464-.734c-.11-.894.552-1.982,1.352-1.777a1.242,1.242,0,0,0,1.375-.4,6,6,0,0,1,1.413-1.408,7.129,7.129,0,0,0,2.285-1.59l.149-.2a68.913,68.913,0,0,0-1.656-8.413l-.331-1.2A69.063,69.063,0,0,0,237.248,68.9c-.132,0-.27.05-.425.066a10.114,10.114,0,0,0-1.971.3,1.789,1.789,0,0,0-1.016,1.143,1.579,1.579,0,0,1-.469.811,1.755,1.755,0,0,1-1.032.3c-.276,0-.822.039-.673.491s.894.966,1.181,1.352c.635.878-.712.232-1.054.066a3.489,3.489,0,0,0-1.176-.4c-.232,0-.751-.127-.745.149s.309.607.458.823c.226.326.265.442,0,.552s-.552.166-.8.259a2.6,2.6,0,0,1-1.347.177,2.545,2.545,0,0,1-1.452-1.325,1.822,1.822,0,0,0-.657-.789,1.656,1.656,0,0,0-.845-.315c-.591,0-.618.552-.453,1.137s-.348.784-.132,1.319a3.793,3.793,0,0,0,1.176,1.3c.375.309,1.016.74.9,1.154-.171.6-1,.221-1.573-.077-.778-.408-1.562-.7-2.346-1.1a4.543,4.543,0,0,0-2.081-.508c-.37,0-.585.21-.11.629.221.193.949.513.911.894s-.878.353-1.137.4a9.153,9.153,0,0,1-2.269.287,5.68,5.68,0,0,0-1.772-.061,3.026,3.026,0,0,0-.707.315,1.739,1.739,0,0,0-.6.872.392.392,0,0,1-.188.21,1.1,1.1,0,0,1-.282.116.894.894,0,0,1-.883-.685c-.05-.342-.077-.718-.4-.889a1.446,1.446,0,0,0-1.176,0,.453.453,0,0,0-.188.375c0,.276.215,1,.2,1.518a1.159,1.159,0,0,1-.265.784,2.645,2.645,0,0,1-.552.353,1.319,1.319,0,0,0-.524.756c-.221.6-.392,1.137-.966,1.325s-1.027,0-1.656-.58a14.675,14.675,0,0,1-1.281-1.253c-.591-.712.552-.442.839-.408a11.494,11.494,0,0,0,1.308,0,4.267,4.267,0,0,0,1.071-.072c.282-.055.773-.166.684-.629-.182-1.016-2.313-1.932-2.931-2.208q-.447-.215-.894-.4c-.5-.2-1.336-.552-1.877-.723a2.76,2.76,0,0,0-.96-.254c-.486,0-.789.707-1.435-.2a1.468,1.468,0,0,0-1.1-.795,4.764,4.764,0,0,0-2.76.436,2.76,2.76,0,0,0-.635.486c-.309.32-.613.911-.861,1.1a.933.933,0,0,1-.552.155c-1.176,0-1.468,1.1-1.43,2.517,0,.381.072.811.05,1.187a2.247,2.247,0,0,1-.132.613c-.1.32-.381,1.049-.585,1.656-.127.364-.259.734-.386,1.1-.359,1.1-.789,2.208-1.237,3.345a4.151,4.151,0,0,0-.293,2.633,2.633,2.633,0,0,0,1.308,1.49,1.789,1.789,0,0,0,1.866-.088c.839-.42,1.27,0,1.811.988a2.931,2.931,0,0,0,.889,1.22,1.6,1.6,0,0,0,1.352.066c.453-.221.552-.756.431-1.363a1.717,1.717,0,0,1,.171-1.452,1.408,1.408,0,0,0-.061-1.4c-.37-.784-1.076-1.744-1.259-2.269a2.208,2.208,0,0,1-.138-.933,4.1,4.1,0,0,1,.132-.773c.116-.392.591-1.137.916-1.822a4.35,4.35,0,0,0,.4-1.391,2.346,2.346,0,0,1,.155-.657.933.933,0,0,1,.977-.364.867.867,0,0,1,.585.42,2,2,0,0,1,.028,1.513c-.16.513-.58.673-.778,1.148a3.947,3.947,0,0,0,.033,1.877,4.068,4.068,0,0,0,.552,1.866c.5.585,1.3.326,1.838.221.243-.05.513-.1.795-.138a2.882,2.882,0,0,1,1.187.094c.193.094.447.591.27.729a1.215,1.215,0,0,1-.375.132c-.552.138-1.1.144-1.628.254-.337.077-.889.11-.878.651,0,.414.442.707.69.933a1.1,1.1,0,0,1,.5.85.315.315,0,0,1-.348.309,1.568,1.568,0,0,1-.8-.408c-.16-.127-.375-.392-.552-.276-.27.182.028,1.181.083,1.5a2.865,2.865,0,0,1-.039,1.656c-.469.977-1.656,1.1-2.567,1.17a9.551,9.551,0,0,1-1.717-.116,2.959,2.959,0,0,1-1.1-.221c-.811-.453-.585-1.9-.856-2.71-.315-.949-1.049-.166-1.1.431-.121.944.745,1.921.552,2.815-.132.624-.845.729-1.286.972a1.976,1.976,0,0,0-.845,1.833,1.789,1.789,0,0,1-.464,1c-.27.414-.591.762-.878,1.143a1.264,1.264,0,0,1-.839.552c-.226.033-.552-.1-.718.083s0,.519-.32.69-.817.083-1.192.182c-.248.066-.6.293-.315.585a3.643,3.643,0,0,0,1.1.491,2.28,2.28,0,0,1,1.1,1.7c.226,1.016.083,1.86-.867,2.07a7.808,7.808,0,0,0-2.76.685c-.778.486-.552,2.07-.425,2.959a1.728,1.728,0,0,0,.408.988,4.2,4.2,0,0,0,.524.756,1.341,1.341,0,0,0,1.043.16,1.225,1.225,0,0,1,.961.226,1.424,1.424,0,0,0,.237.138c.138.05.276-.331.552-.425a1.656,1.656,0,0,1,.5-.055,1.579,1.579,0,0,0,.486-.039c.155-.055.2-.226.315-.282a1.6,1.6,0,0,0,.668-1.253c.039-.248.055-.508.1-.756a7.81,7.81,0,0,1,.3-.806,4.246,4.246,0,0,1,.149-.607c.182-.381.5-.359.806-.508a1.06,1.06,0,0,0,.6-1.021c0-.381-.055-.8.276-1s.624,0,.922,0c.513-.05.872-.464,1.27-.756.789-.591,1.518-.4,2.169.431a7.279,7.279,0,0,0,.944,1.071c.276.232.6.348.867.585s.745.513,1.071.8a1.794,1.794,0,0,1,.359,1.49c0,.2-.132.519.028.673s.353-.05.447-.188c.315-.453.182-.933.1-1.5-.039-.259-.116-.552.088-.668.083-.044.2,0,.309,0s.077-.524-.315-.751a1.391,1.391,0,0,0-.718-.226c-.177,0-.723-.552-.883-.7a10.142,10.142,0,0,1-1.181-1.06,2.208,2.208,0,0,1-.651-1.1c-.083-.629.552-.662.927-.431s.386.552.591.85c.458.657,1.2.7,1.794,1,.42.21.458.552.684.994a6.156,6.156,0,0,1,.552.994c.083.265.072.3.265.486a3.865,3.865,0,0,0,.585.431,2.688,2.688,0,0,1,.552.364c.171.188.1.171.1.392,0,.469.039.938.491,1.137s.431-.651.552-1.01a.883.883,0,0,0,0-.756c-.116-.232-.386-.353-.519-.552-.331-.552.237-.585.486-.823s.624-.773,1.143-.48c.3.171.27.381.293.7a2.865,2.865,0,0,0,.348.966,3.865,3.865,0,0,0,.375.944,2.407,2.407,0,0,0,2.042.889c.3-.039.552-.32.867-.287.138,0,.237.121.364.16a1.435,1.435,0,0,0,.684,0c.3-.055.552-.193.878-.232.5-.066.662.055.613.64a20.471,20.471,0,0,0-.127,2.677c0,.331.21,1.148.039,1.408s-.762-.132-1.021-.226a4.571,4.571,0,0,0-2.313-.077,8.645,8.645,0,0,1-1.192.188,2.175,2.175,0,0,1-1.143-.083c-.635-.375-2.3-1.49-2.788-.425-.331.712.05,1.921-.983,1.86a4.726,4.726,0,0,1-1.408-.5,10.841,10.841,0,0,0-2.131-.552,2.517,2.517,0,0,1-1.4-.624c-.552-.552.188-.834.2-1.446a1.656,1.656,0,0,0-.7-1.4,2,2,0,0,0-1.27-.055c-.215.039-.414,0-.635.028a3.246,3.246,0,0,0-.679.276,7.072,7.072,0,0,1-1.5.353c-.27.039-.552.077-.8.127-.16.033-.552.039-.685.166a3.617,3.617,0,0,1-2.291,1.518,3.276,3.276,0,0,0-1.656.237,5.487,5.487,0,0,0-1.369,1.286c-.337.4-.646.834-.955,1.264a2.486,2.486,0,0,0-.166,1.739,1.656,1.656,0,0,1-.188,1.1,3.693,3.693,0,0,1-1.159,1.43,3.544,3.544,0,0,0-1.325,1.49,9.782,9.782,0,0,0-.552,1.893,5.63,5.63,0,0,0,.7,3.914c.2.3-.088,1.363-.116,1.722a3.312,3.312,0,0,0,.353,1.9,2.981,2.981,0,0,0,.861,1,16.1,16.1,0,0,1,1.805,2.031,12.753,12.753,0,0,0,1.932,1.662,4.7,4.7,0,0,0,2.937.966,2.843,2.843,0,0,0,1.43-.408,2.054,2.054,0,0,1,.745-.3,4.472,4.472,0,0,0,1.557-.613c.248-.182.486-.392.712-.552a1.778,1.778,0,0,1,1.656-.469,2.5,2.5,0,0,1,.734.353,7.175,7.175,0,0,0,1.419.778,1.927,1.927,0,0,0,.745.077,1.838,1.838,0,0,1,1.2.37c.944.718.635,1.9.282,2.931a2.651,2.651,0,0,0,.668,2.523c.243.326.431.673.673.983a3.737,3.737,0,0,1,.712,1.1c.127.4.282.767.42,1.143a9.025,9.025,0,0,1,.425,2.39v1.2c0,.2-.028.4-.044.6a6.8,6.8,0,0,1-.182,1.1,3.9,3.9,0,0,0-.121.486,6.429,6.429,0,0,0-.039,1.22c.033.679.061,1.866.1,2.545a5.315,5.315,0,0,0,.182,1.2,30.16,30.16,0,0,0,2.048,4.858c.359.745.685,1.529,1.032,2.269.177.375.315.789.524,1.154a5.879,5.879,0,0,1,.409,1.281c.276.889.64,1.408,1.386,1.524a3.268,3.268,0,0,0,1.822-.475,7.756,7.756,0,0,0,3.13-2.76,9.826,9.826,0,0,0,1.1-2.661,5.757,5.757,0,0,0,.287-1.33c.039-.486.033-.977.1-1.457.1-.74.177-1.54.326-2.263a7.19,7.19,0,0,1,.955-3.036,13.94,13.94,0,0,1,1.021-1.187c.552-.629,1.59-1.656,1.479-2.8-.508-5.349-2.556-9.307,1.733-13.834a14.783,14.783,0,0,0,2.672-6.387c.1-1.065-.673-1.656-1.3-1.292a11.661,11.661,0,0,1-1.148.552c-.359.149-.74.243-1.1.37a1.893,1.893,0,0,1-1.1-.127,1.1,1.1,0,0,1-.789-.685c-.193-.392-.188-.806-.342-1.192a1.9,1.9,0,0,0-.767-.795,7.4,7.4,0,0,1-1.656-1.827,9.186,9.186,0,0,1-.994-2.429,4.107,4.107,0,0,0-.889-1.457,10.853,10.853,0,0,1-.977-1.446c-.293-.5-1.352-2.241-.668-2.721.552-.375,1.192,1.242,1.452,1.656.508.823,1.043,1.568,1.584,2.3.276.381.552.751.839,1.132.469.624,1.021,1.391,1.248,1.706l.4.585a4.841,4.841,0,0,1,.729,1.143c.458,1.656,1.1,2.5,2,2.318a8.947,8.947,0,0,0,2.7-1.744,25.786,25.786,0,0,0,3.594-3.152,5.963,5.963,0,0,0,.646-1.237,4.416,4.416,0,0,0,.524-1.5.927.927,0,0,0-.513-1.016c-.259-.121-.552,0-.751-.138s-.37-.629-.591-.872c-.425-.469-.778-.05-1.148.232s-1.148.916-1.584.635c-.315-.2-.193-.5-.37-.773s-.331-.11-.552-.149c-.552-.1-.856-.85-1.17-1.319-.243-.359-.773-1.165-.69-1.656.138-.811,1.1.132,1.352.375a10.7,10.7,0,0,1,1.032.823,1.855,1.855,0,0,0,.905.513,6.624,6.624,0,0,0,1.027.309,3.076,3.076,0,0,1,.784-.044.889.889,0,0,1,.431.232,2.605,2.605,0,0,0,1.838.624c.734-.088,1.463-.359,2.142-.5a3.24,3.24,0,0,1,1.656-.055,3.047,3.047,0,0,1,1.59,1.27c.282.5.552,1.2,1.1,1.4s.74-1.071,1.1-.817c.182.138.226.624.27.845a6.983,6.983,0,0,0,.232.823c.2.624.4,1.253.607,1.882a31.663,31.663,0,0,0,1.435,3.831c.282.585.7,1.468,1.27,1.606.254.055.6-.326.734-.585a2.9,2.9,0,0,0,.226-.872,9.184,9.184,0,0,0,.127-1.159,12.5,12.5,0,0,1,.282-2.136,7.2,7.2,0,0,1,.326-.916,7.68,7.68,0,0,1,.856-1.54,6,6,0,0,0,.795-1.038c.088-.166.166-.337.248-.508a9.318,9.318,0,0,1,.519-.961,1.1,1.1,0,0,1,.348-.37,2.584,2.584,0,0,1,.552-.132c.364-.11.442-.425.729-.64s.624,0,.839.21a4.466,4.466,0,0,1,.938,2.412c.088.42.188.955.6.955s.618-.287.972,0,.48.994.723,1.452.646.591.762,1.1c.077.331-.055.4-.16.679a.823.823,0,0,0,.1.723,1.656,1.656,0,0,1,.132.922,2.66,2.66,0,0,0-.11.883.392.392,0,0,0,.32.331,1.187,1.187,0,0,1,.6.74c.072.2.127.414.177.552a3.247,3.247,0,0,0,.248.668c.044.066.088.116.127.177a1.568,1.568,0,0,1,.2.729.519.519,0,0,1-.177.464c-.116.072-.282,0-.447-.083s-.6-.348-.811-.447a.938.938,0,0,0-.4-.1c-.712.028.248,1.617.453,1.866s.359.359.524.552a1.966,1.966,0,0,1,.326.751,9.1,9.1,0,0,0,.834,1.579,6.471,6.471,0,0,0,.966,1.314,3.273,3.273,0,0,0,.58.469c.061.039.635.259.635.282.121,2.048,1.684.591,2.462,1.1.618.5,1.286.221,1.954.083a2.759,2.759,0,0,0,.524-.16c.039-.177.072-.353.11-.552a.828.828,0,0,1-.629-.282.844.844,0,0,0-.657-.326Zm-44.25-29.737a7.292,7.292,0,0,1-1.866-.27,6.657,6.657,0,0,0-2.986.552,2.611,2.611,0,0,1-1.231.171c-.872-.144-.591-2.12-.348-3.069a4.013,4.013,0,0,1,.552-1.424c.552-.69,1.976-.028,1.789.226s.149.464.226.7.348.442.552.193-.2-1.3.513-1.794l.27-.166c.751-.408,1.2,0,1.2,1.01a2.131,2.131,0,0,0,.1.718c.37.994,1.408,1,1.43,1.1s.425.21.778.552-.116,1.446-.983,1.5Zm7.568,2.76c-.856-.3-1.132-1.728-1.225-2.639s-1.656-1.6-1.91-2.606a2.661,2.661,0,0,1,2-3.395c.872-.028.436,1.314.116,2.208-.116.315.061.552.392.916a10.068,10.068,0,0,0,1.91,1.336c.414.331,0,.834-.431,1.032s1.1,1.424,1,2.418c-.072.778-.944,1.049-1.855.729Zm-28.214.5c.265-.342.166-.662-.729-.552-.138,0-.331.27-.442.552-.155.42.718.591,1.17,0Zm32.094,39.022a3.075,3.075,0,0,0-.353-1.281,1.974,1.974,0,0,1-.237-.265c-.05-.072-.094-.166-.144-.254a1.2,1.2,0,0,0-.193-.282c-.121-.121-.552.11-.624.585-.033.3,0,.64-.028.867-.039,1.225-.972,1.893-1.468,2.826-.7,1.308-.337,2.589-.259,3.892.055.85-.254,2.037.116,2.76,1.209,2.357,2.3-1.656,2.583-2.893a22.632,22.632,0,0,0,.635-4.968c.006-.309,0-.657-.028-.988Zm-25.056-37.41a.723.723,0,0,0-.552-.889c-.248-.083-.254.193-.232.508C201.615,111.526,202.206,112.155,202.377,111.526Zm-3.191-2.18c.254-.927-.734-3.478-.994-2.5a3.4,3.4,0,0,0-.088.552C198,108.44,198.927,110.267,199.186,109.345Zm-13.039-11.99c-.138.121-.072.32-.182.436s-.519.077-.712.144c-.552.2-.05.767.077,1.1a1.264,1.264,0,0,1,.033.729c-.05.221-.188.486-.072.729.3.651.988.166,1.375,0a1.9,1.9,0,0,0,.933-1.336,1.816,1.816,0,0,0-.293-1.214c-.232-.326-.811-.883-1.159-.591Zm-37.625,34.33a4.079,4.079,0,0,1-1.888-.442c-.552-.265-1.259-.58-1.805-.27-.408.232.182.651.486.828a6.328,6.328,0,0,0,.707.337c.4.171.938.513,1.242.64a.872.872,0,0,0,.552.061c.734-.144,1.441-.69,2.263-.215.193.116.552.475.756.42h.039c.232-.116.138-.552,0-.767C150.36,131.4,149.179,131.663,148.522,131.685Zm40.424-31.294c.039.326-.453.469-.27.795s.552.149.74.11a3.83,3.83,0,0,0,2.556-1.408c.2-.331.591-1.137.138-1.4-.171-.1-.37-.083-.552-.221a2.506,2.506,0,0,1-.475-.657,8.549,8.549,0,0,0-.673-1.1c-.392-.508-1.22-.712-1.187-1.551,0-.276.326-.552.2-.845-.072-.166-.248-.182-.375-.243s-.7-.491-.679-.729-1.336-.155-1.165.3c.259.668-.834,1-.276,1.391l.066.055a7.727,7.727,0,0,0,.039.9c.083.48.789.607.872,1.016s.718,0,.972.375.331,1.143-.033,1.336-.121.972-.359,1.187c-.155.138-.315.27-.132.524C188.46,100.353,188.9,100,188.946,100.391Zm-46.988-6.437c-.3.927-.3,1.761.121,1.91s1.413-.552,2.131-.85c1.027-.4.121-.8-.651-1.441C143.052,93.154,142.251,93.022,141.959,93.955Zm34.65,63.868a9.13,9.13,0,0,1-.685-2.65c-.05-1.689,1.325-2.9,1.325-4.67,0-1.1-1.248-2.031-2.076-2.313s-1.882-1.584-2.76-1.474l-.293.039c-.894.11-2.352-.922-3.312-1.165a5.4,5.4,0,0,0-.64-.116,4.493,4.493,0,0,1-2.677-2.07,4.714,4.714,0,0,0-1.943-2.07c-1.043-.436-2.274.513-3.229-.453a4.521,4.521,0,0,0-1.386-1.032,4.637,4.637,0,0,1-1.468-.916c-.624-.635-1.027-.061-1.684-.276-.381-.121-.552-.3-.955-.254-.552.055-1.1.182-1.656.182-.447,0-.629-.215-1.021-.447a2.011,2.011,0,0,0-2.567.823c-.215.37-.248.911-.464,1.253-.436.685-1.623.293-2.341,0A4.14,4.14,0,0,1,145.3,139.2c-.486-.552-.828-.673-.883-1.441a2.511,2.511,0,0,0-.464-1.717,1.722,1.722,0,0,0-1.347-.326c-.353,0-.795.215-1.159.061a1.3,1.3,0,0,1-.673-1.132c.05-.3.342-.508.464-.762a.988.988,0,0,0,.132-.447c0-.083-.121-.408-.11-.436.259-.64.083-.977-.27-1.1a1.5,1.5,0,0,0-1.656,1.264,1.706,1.706,0,0,1-2.076,1.165c-1.628-.519-2.683-3.351-2.4-5.377a3.332,3.332,0,0,1,1.761-2.462,12.921,12.921,0,0,1,2.12,0c.315,0,.282-.2.254-.414-.044-.353.651-.414,1.154-.491a2.672,2.672,0,0,1,2.274.734,6.342,6.342,0,0,1,.679,1.176c.431.861,1.695,1.253,1.352.309-.21-.591-.6-1.325-.85-2a3.184,3.184,0,0,1,.811-2.854,11.307,11.307,0,0,0,1.01-1.049,2.114,2.114,0,0,0,.552-1.2c0-.524-.42-.972-.436-1.551a2.81,2.81,0,0,1,.171-1.165,3.494,3.494,0,0,1,1.137-1.546c.469-.342,1.347-.342,1.557-1.065a3.779,3.779,0,0,1,.668-1.761,5.234,5.234,0,0,1,1.1-.944c.646-.436.408.817,1.225.629a6.9,6.9,0,0,0,2.208-1.4c.718-.618.961-1.562.685-1.833s-.811,1.369-1.628,1.275a1.021,1.021,0,0,1-.248-.061c-.767-.282-.762-1.546-.9-1.507s-.144-.171.033-.282.309-1.474-.464-1.071a4.212,4.212,0,0,0-.414.243c-.745.486-.9-.138-.155-.635a16.767,16.767,0,0,1,4.008-1.568c.823-.3,1.159.116.756,1.1s-.6,1.612,0,1.656c.834.083,1.789-.392,1.833-.072.028.21.061.4.32.171.386-.353.9.309,1.209-.259a.905.905,0,0,0-.155-.894c-.265-.414-.618-1.181-1.1-1.154s-.718-1.209-.552-2.263l.05-.326c.138-1.054-1.181-1.755-1.849-2.241-1.954-1.441-1.281-1.6-2.318-3.765-.386-.806-1.1-.6-1.722.193-.331.42-.673.734-.955.723-.729-.028-.42-2.247-.916-2.429-.27-.094-.624-.1-.795-.552a1.375,1.375,0,0,0-1.8-.74,2.618,2.618,0,0,0-1.264,2.324c.088.767-.552,2.02-.248,2.545a3.156,3.156,0,0,1,.21,2.76c-.315.519-.778.944-1.038,1.468-.458.922.27,2.208-.028,2.76a.552.552,0,0,1-.745.315,2.208,2.208,0,0,1-1.049-1.3c-.226-1.209.21-1.971-.85-2.147a10.627,10.627,0,0,1-3.925-1.43c-.552-.359-.513-.9-.685-1.584s-.789-.828-.044-1.86c.469-.651,1.2-1.148,1.468-2.081s-.552-.9-.055-1.656,1.706-.585,2.258-.883a1.236,1.236,0,0,0,.673-.684c.226-.646-.259-.629-.381-.933-.039-.094.144-.171.326-.226a1.849,1.849,0,0,0,.718-.27,1.336,1.336,0,0,0,.32-.408,2.9,2.9,0,0,1,.182-.486.944.944,0,0,1,.414-.3,2.307,2.307,0,0,0,.944-.453,3.417,3.417,0,0,0,1.165-1.358,2.76,2.76,0,0,0,.215-1.2c-.072-.21-.342-.16-.331-.5,0-1.1,1.22-1.242,1.612-1.358.591-.177,1.286-.408,1.143.718-.061.5-.132,1.695.475.988.342-.4.469-.591.712-.276a1.043,1.043,0,0,1,.315.966,1.336,1.336,0,0,1-.58.911c-.408.337-.811,1.965-1.5,2.147l-.337.088c-.679.21-.6,1.827.077,1.457a1.657,1.657,0,0,1,1.965.552c.7.745,1.728,1.529,2.208,1.479.729-.066.193-1.612.552-1.777a1.882,1.882,0,0,1,.635-.215c.116,0,.144-.949.132-1.049a1.424,1.424,0,0,0-.309-.74c-.326-.364-.789-.364-.977-.977s.464-1.363.85-1.148c.182.1.293.375.414.64.188.431.552.646.74.552a.933.933,0,0,0,.287-.265c.215-.293.193-.635.359-.938.27-.491.69-.392.955-.856a.6.6,0,0,0-.215-.905c-.552-.375-1.2-.552-1.744-.905-.11-.072-.226-.116-.315-.188a1.557,1.557,0,0,1-.177-1.1,3.655,3.655,0,0,0,.055-.712,1.1,1.1,0,0,0-.431-.712,3.346,3.346,0,0,0-.685-.552c-.4-.243-1.325-.221-1.656-.74s-.552-1.2-1.06-1.1c-.055,0-.237.2-.315.237a.513.513,0,0,1-.326.05c-.2-.039-.337-.215-.519-.293a1.2,1.2,0,0,0-1.27.2,4.489,4.489,0,0,1-.552.353,5.448,5.448,0,0,1-1.027.276,4.791,4.791,0,0,0-1.4,1.06,3.787,3.787,0,0,0-.723.961c-.282.552-.48,1.468-.121,1.535a9.307,9.307,0,0,0,1.419-.16c.386,0,1.336-.11,1.01.867-.243.74-1.043.585-1.1,1.452a1.954,1.954,0,0,1,.028.905,3.379,3.379,0,0,1-.552.8,4.759,4.759,0,0,1-.552.552c-.282.215-.673.155-.64-.265s.337-.618.4-.972a.392.392,0,0,0-.282-.5,1.1,1.1,0,0,0-.3-.066.867.867,0,0,1-.552-.348,2.009,2.009,0,0,1-.177-.364c-.083-.226-.221-.436-.309-.679a1.921,1.921,0,0,1,.27-1.441c.11-.127.243-.243.392-.42a7.976,7.976,0,0,0,.789-1.165c.5-.878.6-1.7,0-1.6a3.177,3.177,0,0,0-1.932,1.954,10.854,10.854,0,0,1-.651,1.811c-.3.552-.734.933-1.016,1.463a10.55,10.55,0,0,0-.414,1.452c-.177.486-.282.392-.552.552-.607.431-.5,1.518-1.1,2.054a1.474,1.474,0,0,1-.64.282,2.175,2.175,0,0,1-1.1.088c-.1,0-.243-.05-.177-.282.1-.337.4-.436.585-.585a3.207,3.207,0,0,0,1-2.208c-.05-.37-.392-.331-.591-.486a1.485,1.485,0,0,1-.37-1.452q-1.4,2.379-2.594,4.841a.315.315,0,0,1,.3.193c.077.177,0,.4-.121.69a4.04,4.04,0,0,0-.2.552c-.094.309-.5,1.457-.861,1.242a1.76,1.76,0,0,1-.254-.21,67.786,67.786,0,0,0-3.091,8.523,69.515,69.515,0,0,0-2.583,23.273.58.58,0,0,1,.552.121c.651.508,1.1,1.91,1.733,2.412a10.476,10.476,0,0,1,3,3.169,6.345,6.345,0,0,0,1.827,2.484,8.374,8.374,0,0,0,4.78,1.248c1.468-.2,3.224,2.3,4.6,1.457.166-.1,1,1.071,1.1,1.231a5.239,5.239,0,0,0,1.656,1.319,10.682,10.682,0,0,0,2.037.789c1.275.4,2.821,1.054,2.639,2.964a26.748,26.748,0,0,1-.806,3.389,4.529,4.529,0,0,0,.248,3.478c.662,1.11,1.656,1.833,2.307,2.887s.524,2.479,1.214,3.638c.867,1.452,2.026,1.656,3.522,2.208a5.04,5.04,0,0,1,2.788,2.131,44.025,44.025,0,0,1,3.986,7.463c1.386,3.229,2.545,6.679,4.609,9.528a14.5,14.5,0,0,0,3.572,3.654c.927.624,1.816.618,1.733-.712-.044-.817-.718-1.468-1.054-2.208s-.055-1.363-.1-2.131c-.033-.64-.635-1.579-.215-2.114s1.1-.21,1.319-.905c.276-.872-.668-1.231-.845-1.9s.966-.723,1.3-1.341c.21-.392.077-.883.215-1.292.116-.326.287-.386.475-.629a3.544,3.544,0,0,0,.552-1.623c.138-.922-.795-1.943-.48-2.826a4.135,4.135,0,0,1,1.75-1.684c.513-.282.872-.337,1.17-1.043a4.582,4.582,0,0,0,.083-2.6c-.232-.475-.044-1.065-.171-1.463ZM137.371,112.63c.662-.679,1.833-2.208,2.506-1.855a2.539,2.539,0,0,1,.811.927c.453.718,1.562.922,2.208,1.2s-.21.933-.282,1.557-.5.878-.5.552c0-.21,0-.37-.309-.237-.408.193-.32-.127-.221-.475.138-.48-.983-.834-1.231.149-.061.248-.1.552-.138.806-.132,1-1.1,1.021-.938.028a1.17,1.17,0,0,1,.066-.381c.193-.988-.166-2.136-.949-2.009C137.5,113.016,136.659,113.358,137.371,112.63Z" transform="translate(-125.298 -53.802)"/><path class="e" d="M248.961,60.176c-43.852-12.7-52.077,17.179-28.854,36.052s63.068,25.128,68.45,12.7S281.557,69.632,248.961,60.176Z" transform="translate(-162.061 -52.327)"/><path class="f" d="M163.386,174.574c-28.606-23.532-30.212-64.807-15.716-93.434a68.87,68.87,0,0,0,89.885,104.287c1.794-1.457,3.494-2.992,5.1-4.582C220.194,190.815,188.574,195.3,163.386,174.574Z" transform="translate(-125.263 -63.084)"/><path class="g" d="M350.178,234.224a2.759,2.759,0,0,1-.4-.182,4.151,4.151,0,0,0-2.959-.386c-2.606.552-5.443,3.544-6.464,6.784-.585,1.871-.491,3.417.259,4.245a1.916,1.916,0,0,0,1.479.618h.315c.37-.431.734-.856,1.1-1.292l-.381.11a1.546,1.546,0,0,1-1.568-.237c-.552-.585-.618-1.855-.127-3.4.878-2.76,3.229-5.288,5.349-5.758a3.135,3.135,0,0,1,2.247.293,3.533,3.533,0,0,0,.6.265l.6-1.027Z" transform="translate(-221.43 -131.356)"/><path class="g" d="M262.537,137.372l-2.583.364-1.717.237c-6.453.9-10.488,1.352-11.775.061-.961-.949-.2-2.727.983-4.063a5.625,5.625,0,0,0,1.584-3.213,3.312,3.312,0,0,0-.983-2.611,7.188,7.188,0,0,0-5.393-1.849c-3.638.116-6.724,2.4-6.884,5.084a4.836,4.836,0,0,0,1.1,3.235c.861,1.137,1.4,2.915.1,4.184-1.722,1.656-6.111,1.971-12.144,2.208l-1.38.055-3.787.144c0-2.109-.116-4.079-.2-5.735l-.05-1.336c-.282-5.25-.5-9.384,1-10.8,1.275-1.192,3.251-.508,4.554.442A5.708,5.708,0,0,0,228.455,125c2.92-.044,5.3-2.92,5.288-6.409s-2.385-6.365-5.31-6.42a5.68,5.68,0,0,0-3.5,1.214c-1.3.944-3.273,1.628-4.554.431-1.391-1.3-1.1-5.007-.756-9.71l.072-1.01c.155-2.054.309-4.493.342-7.066,3.064.171,5.763.552,8.479.955l.353.055c1.816.27,3.384.508,4.7.6,2.208.166,3.505-.094,4.256-.867,1.413-1.463.359-3.814-1.1-5.52a5.835,5.835,0,0,1-1.452-2.821,2.44,2.44,0,0,1,.685-2.175,4.447,4.447,0,0,1,3.864-.916c2.9.442,5.7,2.561,6.122,4.631a2.986,2.986,0,0,1-.552,2.368,3.9,3.9,0,0,0,.42,5.239c1.628,1.529,4.416,1.656,8.694,1.822l.784.033c1.976.083,4.361.2,7.038.5h.083c-.088-.309-.171-.624-.265-.933-2.666-.3-5.023-.431-6.989-.519l-.773-.033c-3.864-.171-6.624-.293-7.916-1.513a2.974,2.974,0,0,1-.2-3.969,3.759,3.759,0,0,0,.651-3c-.552-2.556-3.743-5.073-7.176-5.608a5.3,5.3,0,0,0-4.56,1.1,3.312,3.312,0,0,0-.922,2.926,6.917,6.917,0,0,0,1.706,3.389c1.1,1.314,2.053,3.218,1.049,4.256s-4.035.613-8.2,0l-.27-.039c-2.76-.42-5.448-.806-8.567-.983,0-.342-.039-.673-.055-1.01-.028-.486-.055-.972-.077-1.441-.033-.7-.061-1.452-.083-2.208-.166-5.012-.37-11.25-3.312-14.684-1.413-1.656-3.787-1.22-5.31,0a3.665,3.665,0,0,1-2.506.927c-2.092-.11-3.908-2.721-4.057-5.824a6.338,6.338,0,0,1,1.446-4.7,2.28,2.28,0,0,1,1.8-.723,4.416,4.416,0,0,1,2.539,1.281,5.794,5.794,0,0,0,3.919,1.59,1.656,1.656,0,0,0,1.27-.718c2.418-3.511.806-9.975-.409-14.739l-.933-.259.028.11c1.148,4.587,2.716,10.875.552,14.176a.938.938,0,0,1-.7.4,4.692,4.692,0,0,1-3.163-1.336,5.338,5.338,0,0,0-3.108-1.54,3.086,3.086,0,0,0-2.4.938,7.3,7.3,0,0,0-1.755,5.52c.16,3.643,2.412,6.718,5.023,6.851a4.543,4.543,0,0,0,3.124-1.1c.96-.784,2.9-1.518,4.024-.177,2.644,3.152,2.815,9.075,2.948,13.839,0,.839.044,1.656.083,2.385,0,.491.05,1,.077,1.513l.05.9L215.56,94.8l-1.695-.094c-7.176-.4-12.012-.513-13.85,1.474-1.612,1.739-.751,4.262.469,5.89a4.918,4.918,0,0,1,1.1,2.9,3.478,3.478,0,0,1-1.1,2.49,6.442,6.442,0,0,1-4.515,1.695h0a6.426,6.426,0,0,1-4.51-1.695,3.478,3.478,0,0,1-1.1-2.484,4.9,4.9,0,0,1,1.1-2.9c1.22-1.656,2.081-4.157.475-5.89-1.86-2-5.945-1.9-12.453-1.551l-1.424.072q-1.744.1-3.7.193v-.077c.061-.839.116-1.656.182-2.423.083-.894.193-1.838.309-2.837.552-4.471,1.1-9.539-.85-12.487a1.612,1.612,0,0,0-1.165-.69A6.434,6.434,0,0,0,168.55,78a5.6,5.6,0,0,1-2.8,1.38,2.28,2.28,0,0,1-2.015-.712,4.6,4.6,0,0,1-.751-4.046c.552-2.937,2.76-5.7,4.747-6.039a2.76,2.76,0,0,1,2.208.646c1.2.983,3.577,1.557,5.062-.248,3.08-3.737,3.687-10.245,4.217-16.008l.072-.734-.894.226-.061.613c-.552,5.52-1.1,11.725-3.958,15.23a2.1,2.1,0,0,1-1.463.795,3.351,3.351,0,0,1-2.318-.734,3.439,3.439,0,0,0-2.749-.806c-2.473.425-5.056,3.583-5.747,7.044a5.41,5.41,0,0,0,.933,4.78,3.124,3.124,0,0,0,2.76.961,6.591,6.591,0,0,0,3.367-1.623c1.375-1.1,3.185-1.971,4.157-.944,1.4,1.474,1.027,5.9.458,12.6l-.16,1.976c-.072.823-.138,1.656-.2,2.561-2.031.1-3.919.248-5.658.386l-1.264.1c-5.862.475-10.1.811-11.333-.475-.988-1.027-.039-2.931,1.1-4.245a6.994,6.994,0,0,0,1.717-3.395,3.268,3.268,0,0,0-.894-2.92,5.211,5.211,0,0,0-4.515-1.1c-3.4.552-6.624,3.091-7.176,5.642a3.7,3.7,0,0,0,.618,2.981,2.927,2.927,0,0,1-.248,3.963c-1.656,1.546-5.487,1.987-10.786,2.589l-1.391.16c-1,.116-2.087.248-3.218.4-.088.287-.188.58-.271.872v.061h.088c1.181-.149,2.313-.282,3.351-.4l1.43-.16,2.716-.3c4.466-.552,7.176-1.1,8.755-2.578a3.908,3.908,0,0,0,.464-5.228,2.953,2.953,0,0,1-.508-2.357c.442-2.065,3.246-4.2,6.127-4.659a4.381,4.381,0,0,1,3.825.878,2.418,2.418,0,0,1,.662,2.169,5.94,5.94,0,0,1-1.468,2.826c-1.463,1.717-2.523,4.074-1.1,5.52,1.529,1.59,6.022,1.237,12.233.745l1.137-.088c1.606-.121,3.516-.265,5.559-.37-.077.618-.121,1-.2,1.656-.077.552-.171,1.1-.27,1.739-.762,4.83-1.811,11.449,1.027,14.645,1.463,1.656,4.328.723,5.9-.458a4.924,4.924,0,0,1,2.9-1.1h0a3.45,3.45,0,0,1,2.451,1.1,6.878,6.878,0,0,1,0,9.048,3.478,3.478,0,0,1-2.467,1.1h0a4.891,4.891,0,0,1-2.9-1.1c-1.551-1.165-4.5-2.109-5.907-.442-3.2,3.809-2.114,11.51-1.325,17.113.1.712.2,1.4.282,2.048-2.412-.1-4.67-.127-6.674-.144h-1.137c-5.178-.061-8.959-.215-10.444-1.656-1.308-1.27-.778-3.036.077-4.162a4.775,4.775,0,0,0,1.06-3.218c-.177-2.677-3.273-4.968-6.906-5.09a7.128,7.128,0,0,0-5.382,1.827,3.246,3.246,0,0,0-.955,2.583,5.636,5.636,0,0,0,1.6,3.2c1.187,1.336,1.965,3.1,1.016,4.041-1.2,1.181-5.145.552-9.721-.221l-.4-.061c-1.485-.248-3.169-.524-4.935-.789h-.088c.088.315.177.624.27.938,1.7.265,3.312.552,4.769.778l.381.066q2.732.455,4.863.74c3.113.364,4.747.155,5.631-.723,1.358-1.347.464-3.643-1.032-5.327a4.665,4.665,0,0,1-1.336-2.628,2.434,2.434,0,0,1,.729-1.938,6.078,6.078,0,0,1,4.6-1.507c3.091.116,5.724,1.96,5.868,4.113a3.864,3.864,0,0,1-.883,2.6c-1.1,1.419-1.706,3.7.088,5.437s5.443,1.932,11.2,2.009h1.1c2.153.028,4.593.055,7.2.177.116.983.282,2.109.458,3.312.789,5.277,1.766,11.846-.464,14.987a1.021,1.021,0,0,1-.734.4,5.416,5.416,0,0,1-3.4-1.375,6.58,6.58,0,0,0-3.362-1.628,3.1,3.1,0,0,0-2.76.955,5.41,5.41,0,0,0-.933,4.78c.7,3.461,3.279,6.624,5.752,7.049a3.422,3.422,0,0,0,2.826-.795,3.378,3.378,0,0,1,2.39-.718,1.938,1.938,0,0,1,1.375.778c2.153,2.882,2.688,7.386,3.207,11.741.132,1.1.254,2.125.4,3.135l.083.552.905.237-.11-.762c-.138-.977-.254-2.042-.37-3.169-.458-4.416-.983-9.423-3.494-12.387a3.587,3.587,0,0,0-5.051-.248,2.688,2.688,0,0,1-2.208.64c-1.993-.342-4.168-3.108-4.753-6.045a4.662,4.662,0,0,1,.751-4.046,2.252,2.252,0,0,1,2-.7,5.52,5.52,0,0,1,2.793,1.38,6.443,6.443,0,0,0,4.179,1.656,1.728,1.728,0,0,0,1.253-.7c2.484-3.395,1.49-10.245.69-15.749-.166-1.154-.32-2.241-.431-3.2l3.538.188,1.1.061c1.419.077,2.926.155,4.317.193,4.333.116,7.518-.132,8.97-1.695,1.612-1.739.756-4.262-.469-5.89a4.919,4.919,0,0,1-1.1-2.9,3.478,3.478,0,0,1,1.1-2.49,6.873,6.873,0,0,1,9.037,0,3.478,3.478,0,0,1,1.1,2.484,4.924,4.924,0,0,1-1.1,2.9c-1.225,1.656-2.087,4.151-.475,5.89,1.783,1.915,5.929,1.833,12.542,1.457l1.264-.072c1.386-.077,2.882-.166,4.449-.243-.21,1.656-.436,3.2-.624,4.5l-.149.983c-.944,6.332-1.628,10.908,0,12.6,1.4,1.474,3.726.486,5.437-.927a5.57,5.57,0,0,1,2.8-1.369,2.329,2.329,0,0,1,2.037.729,4.734,4.734,0,0,1,.789,4.068c-.552,2.942-2.721,5.7-4.725,6.022a2.76,2.76,0,0,1-2.247-.662,3.617,3.617,0,0,0-5.079.21c-1.612,1.684-1.849,5.084-2.28,9.9-.05.519-.094,1.054-.149,1.606-.127,1.352-.326,3.406-.624,5.625v.083c.3-.077.607-.166.905-.248.232-1.656.436-3.434.64-5.52q.077-.817.149-1.59c.408-4.416.734-7.861,1.976-9.158a2.709,2.709,0,0,1,3.814-.05,3.5,3.5,0,0,0,2.854.822c2.484-.408,5.056-3.566,5.724-7.038a5.458,5.458,0,0,0-.977-4.8,3.163,3.163,0,0,0-2.76-.983,6.591,6.591,0,0,0-3.373,1.612c-1.369,1.1-3.185,1.965-4.168.927-1.3-1.363-.646-5.686.259-11.664l.166-1.1c.188-1.248.431-2.9.651-4.62,1.325-.061,2.6-.11,3.792-.155l1.391-.055c1.363-.05,2.815-.116,4.162-.2,4.046-.271,7.077-.773,8.689-2.341,1.789-1.739,1.148-4.03.055-5.465a3.947,3.947,0,0,1-.9-2.617c.132-2.158,2.76-4,5.851-4.1a6.161,6.161,0,0,1,4.615,1.529,2.512,2.512,0,0,1,.751,1.954,4.681,4.681,0,0,1-1.325,2.644c-1.485,1.656-2.368,3.986-1,5.344,1.656,1.612,5.818,1.1,12.525.149l1.479-.21,2.666-.386c.094-.309.177-.624.265-.938Zm-44.161-3.124.072,1.3c.094,1.739.182,3.627.21,5.686-1.584.077-3.1.16-4.493.243l-1.3.072c-6.348.348-10.306.447-11.791-1.148-1.176-1.27-.442-3.251.552-4.565a5.929,5.929,0,0,0,1.325-3.516,4.416,4.416,0,0,0-1.38-3.2,7.855,7.855,0,0,0-10.488,0,4.416,4.416,0,0,0-1.38,3.2,5.929,5.929,0,0,0,1.325,3.516c.983,1.314,1.717,3.312.552,4.565-1.524,1.656-6.365,1.518-12.542,1.192l-1.4-.072c-1.225-.066-2.484-.138-3.8-.2-.1-.938-.237-1.954-.386-3.031-.723-5.393-1.623-12.106,1.148-15.49.933-1.137,3.279-.4,4.549.552a5.912,5.912,0,0,0,3.516,1.319h0a4.482,4.482,0,0,0,3.174-1.386,7.9,7.9,0,0,0,0-10.516,4.521,4.521,0,0,0-3.2-1.38,5.929,5.929,0,0,0-3.527,1.325,5.426,5.426,0,0,1-3.538,1.1,1.457,1.457,0,0,1-1-.552c-2.341-3.152-1.441-9.235-.718-14.121.077-.513.149-1.01.215-1.5.088-.723.138-1.1.221-1.783h.039l3.676-.155,1.518-.083c6.265-.32,10.179-.4,11.7,1.242,1.176,1.27.442,3.251-.552,4.565a5.978,5.978,0,0,0-1.325,3.516,4.416,4.416,0,0,0,1.38,3.207,7.347,7.347,0,0,0,5.238,2h0a7.369,7.369,0,0,0,5.244-2,4.466,4.466,0,0,0,1.38-3.213,5.951,5.951,0,0,0-1.325-3.516c-.983-1.308-1.717-3.312-.552-4.56,1.54-1.656,6.624-1.524,13.1-1.17l1.5.083c1.187.066,2.407.138,3.66.2-.033,2.55-.193,4.968-.342,7.005l-.077,1c-.392,5.194-.679,8.943,1.1,10.577s4.256.828,5.873-.353a4.615,4.615,0,0,1,2.87-1.016c2.307.039,4.267,2.517,4.273,5.415s-1.943,5.371-4.256,5.4a4.62,4.62,0,0,1-2.87-1.021c-1.628-1.181-4.14-1.987-5.879-.37-1.849,1.7-1.623,5.862-1.314,11.62Z" transform="translate(-127.353 -50.137)"/><path class="g" d="M128.7,173.521a7.176,7.176,0,0,0,3.577,1.209h.16a4.631,4.631,0,0,0,3.251-1.336,6.392,6.392,0,0,0,0-8.8,4.664,4.664,0,0,0-3.422-1.341,7.055,7.055,0,0,0-3.566,1.2,5.68,5.68,0,0,1-3.312.977h0c0,.348-.028.7-.039,1.043a6.939,6.939,0,0,0,4-1.165,5.774,5.774,0,0,1,2.915-.988,3.527,3.527,0,0,1,2.594,1.038,5.36,5.36,0,0,1,0,7.281,3.483,3.483,0,0,1-2.589,1.032,5.818,5.818,0,0,1-2.915-1,7.077,7.077,0,0,0-4.013-1.181c0,.348.039.7.055,1.043h0a5.746,5.746,0,0,1,3.307.994Z" transform="translate(-125.279 -99.866)"/></g><g class="h" transform="translate(23.35 225.049)"><ellipse class="i" cx="38.144" cy="22.025" rx="38.144" ry="22.025" transform="translate(88.262)"/><ellipse class="i" cx="38.144" cy="22.025" rx="38.144" ry="22.025" transform="translate(173.322 5.305)"/><ellipse class="i" cx="38.144" cy="22.025" rx="38.144" ry="22.025" transform="translate(0 5.305)"/></g><g transform="translate(202.783 68.102)"><g transform="translate(0 0)"><g transform="translate(4.035 76.109)"><path class="j" d="M431.09,437.9a13.64,13.64,0,0,0,1.777,6.624c1.076,1.711,3.036,2.131,5.062,1.7a7.634,7.634,0,0,0,5.564-4.637c.712-1.96.4-4.311-.1-7.049Z" transform="translate(-389.479 -325.152)"/><path class="k" d="M439.043,401.33c.828.055,1.1,4.024,1.656,8,.552,4.262,1.91,6.624,2.374,9.495.646,3.98.4,5.78-.972,8.214s-6.762,5.018-9.252,1.6c-2.031-2.793-2.158-5.923-2.031-9.936a101.128,101.128,0,0,0,.039-10.157c-.2-2.992-.453-5.89.265-6.232.061.436.121.994.188,1.424.05.331.155,1.949.618,1.96a6.4,6.4,0,0,0,0-1.1,1.352,1.352,0,0,1,.21-.972,1.59,1.59,0,0,1,.911-.42,23.032,23.032,0,0,1,2.456-.414,11.53,11.53,0,0,1,1.237-.072,6.7,6.7,0,0,1,1.524,0,.734.734,0,0,1,.453.4,1.275,1.275,0,0,1,.05.458,3.394,3.394,0,0,0,.116.817c.033.116.116.259.232.232s.132-.149.132-.243c0-.486-.072-.834-.1-1.4,0-.259-.061-.613-.072-.872S439.065,401.589,439.043,401.33Z" transform="translate(-389.279 -310.275)"/><path class="l" d="M447.242,434.683a.293.293,0,0,1-.254.32.287.287,0,0,1-.32-.254.281.281,0,0,1,.254-.32A.293.293,0,0,1,447.242,434.683Z" transform="translate(-396.456 -325.102)"/><path class="l" d="M446.667,429.693a.293.293,0,1,1-.326-.254A.3.3,0,0,1,446.667,429.693Z" transform="translate(-396.196 -322.866)"/><path class="l" d="M446.123,424.983a.281.281,0,0,1-.254.32.287.287,0,0,1-.32-.254.3.3,0,0,1,.254-.32.293.293,0,0,1,.32.254Z" transform="translate(-395.956 -320.756)"/><path class="l" d="M445.578,420.286a.287.287,0,0,1-.254.32.282.282,0,0,1-.32-.254.287.287,0,1,1,.552-.066Z" transform="translate(-395.703 -318.621)"/><path class="l" d="M434.922,421.373a.293.293,0,0,1-.254.32.287.287,0,0,1-.32-.254.281.281,0,0,1,.254-.32.293.293,0,0,1,.32.254Z" transform="translate(-390.937 -319.139)"/><path class="l" d="M435.453,426.043a.282.282,0,0,1-.254.32.287.287,0,0,1-.32-.254.3.3,0,0,1,.254-.32.293.293,0,0,1,.32.254Z" transform="translate(-391.176 -321.231)"/><path class="l" d="M436,430.808a.293.293,0,1,1-.32-.235A.293.293,0,0,1,436,430.808Z" transform="translate(-391.418 -323.374)"/><path class="l" d="M436.534,435.852a.287.287,0,0,1-.254.32.282.282,0,0,1-.32-.254.287.287,0,0,1,.552-.066Z" transform="translate(-391.66 -325.658)"/><path class="l" d="M439.455,422.629l-2.5-19.216,1.065-.033Z" transform="translate(-392.108 -311.193)"/><path class="j" d="M442.3,434.832h-.044a10.482,10.482,0,0,0-5.8.552.144.144,0,0,1-.193-.066.149.149,0,0,1,.061-.2,10.653,10.653,0,0,1,5.989-.58.149.149,0,0,1,.116.171A.16.16,0,0,1,442.3,434.832Z" transform="translate(-391.79 -325.069)"/><path class="j" d="M441.728,429.733h-.077c-1.463-.668-4.311-.166-5.763.552a.149.149,0,0,1-.2-.066.155.155,0,0,1,.066-.2c1.513-.762,4.471-1.275,6.017-.552a.144.144,0,0,1,.077.193.155.155,0,0,1-.121.072Z" transform="translate(-391.533 -322.724)"/><path class="j" d="M441.187,425.024a.188.188,0,0,1-.077,0c-1.468-.673-4.311-.171-5.763.552a.149.149,0,0,1-.2-.066.144.144,0,0,1,.066-.193c1.507-.767,4.471-1.281,6.017-.552a.138.138,0,0,1,.072.193.143.143,0,0,1-.116.066Z" transform="translate(-391.29 -320.616)"/><path class="j" d="M440.668,420.383a.178.178,0,0,1-.077,0c-1.468-.668-4.317-.166-5.763.552a.149.149,0,0,1-.132-.265c1.507-.762,4.471-1.275,6.017-.552a.137.137,0,0,1-.044.265Z" transform="translate(-391.063 -318.536)"/><path d="M395.132,416.264l-3.522-1.2,1.065-2.39,2.2,1.927Z" transform="translate(-371.792 -315.355)"/><path class="j" d="M382.754,407.59s.21,2.263.259,2.981-2.92,3.025-3.665,3.417l-.254-1.656a12.8,12.8,0,0,0-1.656,2.76,13.211,13.211,0,0,1-2.81,4.35c-2.335,2.02-6.034,3.124-9.831,3.378s-6.006-.607-7.11-1.4a2.523,2.523,0,0,1-1.242-2.716C356.682,417.731,382.754,407.59,382.754,407.59Z" transform="translate(-356.008 -313.079)"/><path class="k" d="M372.044,393.084l-.088-1.314c-.7,0-.729,1.9-1.7,3.61a33.939,33.939,0,0,1-5.139,7.011c-3.748,3.632-7.121,5.945-8.794,7.579-2.236,2.208,1.91,5.426,8.109,4.891,3.075-.271,8.5-1.987,9.98-3.864s2.341-4.736,3.533-6.1,3.792-2.76,4.51-4.416c.392-.894.1-2.942-.2-4.687-.282-1.6-.4-4.057-1.3-3.831l-.039.828c-.348.712-1.17,1.9-3.643,2.4C376.041,395.457,372.342,395.684,372.044,393.084Z" transform="translate(-355.709 -305.992)"/><path class="l" d="M381.806,397.007a3.388,3.388,0,0,1-3-1.474V395.5a3.036,3.036,0,0,1-.723,2.556c-1.071,1.33-7.8,10.7-7.8,10.7l7.5-9.213c1.783-2.164,2.363-2.423,4.057-2.539Z" transform="translate(-362.237 -307.663)"/><path class="l" d="M388.487,402.358a.382.382,0,1,0,.326-.431.382.382,0,0,0-.326.431Z" transform="translate(-370.392 -310.541)"/><path class="l" d="M385.29,406.159a.381.381,0,1,0,.328-.392.381.381,0,0,0-.328.392Z" transform="translate(-368.961 -312.26)"/><path class="l" d="M382.078,409.9a.386.386,0,0,0,.431.326.379.379,0,1,0-.431-.326Z" transform="translate(-367.521 -313.926)"/><path class="l" d="M378.876,413.647a.381.381,0,1,0,.32-.431.375.375,0,0,0-.32.431Z" transform="translate(-366.086 -315.598)"/><path class="l" d="M375.667,417.45a.381.381,0,1,0,.073-.283A.381.381,0,0,0,375.667,417.45Z" transform="translate(-364.648 -317.303)"/><path class="j" d="M385.643,401.392a.171.171,0,0,0,.1-.05.155.155,0,0,0,0-.215,6.239,6.239,0,0,0-4.344-1.562h0a.155.155,0,0,0-.138.166.16.16,0,0,0,.166.138,6.066,6.066,0,0,1,4.113,1.485A.138.138,0,0,0,385.643,401.392Z" transform="translate(-367.155 -309.476)"/><path class="j" d="M382.438,405.148a.176.176,0,0,0,.094-.05.149.149,0,0,0,0-.215,6.245,6.245,0,0,0-4.344-1.568h0a.155.155,0,0,0,.028.309,6.023,6.023,0,0,1,4.113,1.485.16.16,0,0,0,.11.039Z" transform="translate(-365.717 -311.156)"/><path class="j" d="M379.251,408.932a.138.138,0,0,0,.1-.044.16.16,0,0,0,0-.221,6.239,6.239,0,0,0-4.344-1.562h0a.155.155,0,0,0,.028.3,6.081,6.081,0,0,1,4.112,1.485A.138.138,0,0,0,379.251,408.932Z" transform="translate(-364.303 -312.853)"/><path class="j" d="M376.032,412.7a.138.138,0,0,0,.094-.044.149.149,0,0,0,0-.215,6.219,6.219,0,0,0-4.344-1.568h0a.144.144,0,0,0-.132.166.149.149,0,0,0,.166.138,6.045,6.045,0,0,1,4.107,1.485.144.144,0,0,0,.11.039Z" transform="translate(-362.849 -314.542)"/><path class="j" d="M372.827,416.5a.138.138,0,0,0,.1-.044.155.155,0,0,0,0-.215,6.205,6.205,0,0,0-4.344-1.568h0a.16.16,0,0,0-.132.166.155.155,0,0,0,.166.138,6.046,6.046,0,0,1,4.107,1.485.155.155,0,0,0,.1.039Z" transform="translate(-361.417 -316.245)"/><path class="m" d="M411.979,237.666c2.468,21.81,3.251,51,3.251,51,.21,1.656,1.822,6.194,1.893,14.264.083,8.689-.464,29.936-.464,29.936s-5.52,3.914-11.476.961c0,0-4.416-23.5-6.4-36.107-1.59-10.074-3.748-23.019-3.748-23.019l-1.816,12.051a77.2,77.2,0,0,1,.657,14.065c-.342,5.073-2.175,24.344-2.175,24.344s-7.176,5.868-12.774.243c0,0-2.164-32.243-2.523-38.338-.707-11.962.155-35.213.028-50.681Z" transform="translate(-364.853 -236.38)"/><path class="j" d="M400.663,286.334l-3.091-20.7s-5.818-.651-8.882-3.273c0,0,2.042,3.544,7.552,4.758l2.909,18.769-.3,12.5Z" transform="translate(-370.484 -248.019)"/></g><path class="j" d="M371.691,159.1c-3.975,1.253-6.751,3.13-8.567,8.468-1.871,5.487-5.47,15.274-6.724,19.321.773,2.208,6.42,4.2,8.683,3.158s7.872-17,7.872-17Z" transform="translate(-351.984 -125.651)"/><path class="n" d="M399.843,154.4c2.208.375,4.858.861,4.858.861,5.6,2.274,6.508,2.611,7.69,3.075a87.129,87.129,0,0,1-.458,19.321,121.148,121.148,0,0,0-.386,13.309c.155,6.343.37,13.7.37,13.7s-5.448,4.736-20.916,4.1c-12.144-.5-13.8-4.135-13.8-4.135s-.591-18.829-.58-27.772c0-11.747,2.5-18,5.04-20.138l7.728-1.827Z" transform="translate(-361.042 -123.545)"/><g transform="translate(20.411)"><path class="o" d="M408.289,106.186a3.894,3.894,0,0,0-2.97-2.622c-.613-2.594-4.416-5.625-9.666-4.968s-7.8,2.263-9.445,5.443a5.592,5.592,0,0,0-.254,5.393l15.33-.983a14.613,14.613,0,0,0,.188,2.18c.37,2.33,2.628,5.056,2.628,5.056v3.262l.16,4.681a3,3,0,0,0,1.656-1.5,30.63,30.63,0,0,0,1.755-6.834C408.41,111.3,409,107.975,408.289,106.186Z" transform="translate(-385.389 -98.505)"/><path class="p" d="M408.3,124.537c-1.656,1.214-3.312-.469-3.312-.469l.171,9.13s-.033,2.39-2.893,4.2c-4.063,2.567-5.824,3.908-7.48,6.486-1.6-4.068-4.008-6.834-1.507-10.141l-.044-2.147a21.081,21.081,0,0,1-2.258-.116c-2.164-.2-3.61-1.827-4.389-4.107-1.248-3.671-1.43-10.2.116-16.93,2.7-2.318,9.721-2.434,14.949.464,0,4.284,1.3,6.105,1.386,7.656a4.035,4.035,0,0,0,.994,1.148c.823.635,1.358-1.165,1.976-1.893a2.322,2.322,0,0,1,3.919.414C411.124,120.43,409.738,123.494,408.3,124.537Z" transform="translate(-385.475 -103.078)"/><path class="j" d="M404.65,119.144l2.269,1.231a1.347,1.347,0,0,0-.552-1.794,1.253,1.253,0,0,0-1.717.563Z" transform="translate(-394.01 -107.433)"/><path class="j" d="M388.64,119.329l2.451-.872a1.253,1.253,0,0,0-1.623-.817A1.369,1.369,0,0,0,388.64,119.329Z" transform="translate(-386.81 -107.044)"/><path class="j" d="M405.229,123.557a1.054,1.054,0,1,1-1.076-1.027A1.054,1.054,0,0,1,405.229,123.557Z" transform="translate(-393.325 -109.268)"/><path class="j" d="M391.772,123.391a1.052,1.052,0,1,1-1.076-1.027.961.961,0,0,1,1.076,1.027Z" transform="translate(-387.298 -109.19)"/><path class="q" d="M396.174,121.25l-.464,6.74L392.1,126.9Z" transform="translate(-388.388 -108.695)"/><path class="q" d="M410.37,123.772a.867.867,0,0,0-.27-.171l-.177-.044a2.329,2.329,0,0,0-.386-.055,1.937,1.937,0,0,0-.795.083c-.061,0-.039.166.028.177a5.67,5.67,0,0,0,.811.05,2.285,2.285,0,0,1,.331.05.926.926,0,0,1,.177.05h.077l.116.033h.061C410.441,124,410.414,123.838,410.37,123.772Z" transform="translate(-395.827 -109.698)"/><path class="q" d="M409.525,125.51a.552.552,0,0,0-.116-.1,1.429,1.429,0,0,0-.392-.16,1.816,1.816,0,0,0-.237-.05,1.3,1.3,0,0,0-.254,0c-.088,0-.055.193,0,.21a3.021,3.021,0,0,1,.442.1,1.1,1.1,0,0,1,.188.066l.188.088c.055,0,.16.077.193,0a.132.132,0,0,0-.011-.155Z" transform="translate(-395.722 -110.459)"/><path class="q" d="M386.52,124.1Z" transform="translate(-385.866 -109.971)"/><path class="q" d="M387.662,123.7a.784.784,0,0,0-.3-.094c-.116,0-.237-.033-.359-.044h-.42a.215.215,0,0,0-.16.072c-.072.077,0,.2.072.243h.055a.673.673,0,0,0,.3.033h.552a.442.442,0,0,0,.254-.039C387.74,123.847,387.718,123.731,387.662,123.7Z" transform="translate(-385.833 -109.729)"/><path class="q" d="M386.586,124.11h0Z" transform="translate(-385.915 -109.976)"/><path class="q" d="M387.846,125.117a.607.607,0,0,0-.282,0H386.9a.127.127,0,0,0-.1.177.237.237,0,0,0,.21.166h.48l.226-.055a.32.32,0,0,0,.182-.1C387.923,125.249,387.918,125.139,387.846,125.117Z" transform="translate(-386.005 -110.419)"/><path class="q" d="M387.16,125.81Z" transform="translate(-386.175 -110.737)"/><path class="q" d="M399.425,115.05a4.3,4.3,0,0,0-1.965,0,10.576,10.576,0,0,1-2,.188c-1.225-.055-2.5-.822-3.726-.436-.028,0-.039.072,0,.072a4.77,4.77,0,0,1,1.943.282,8.093,8.093,0,0,0,1.838.431,7.828,7.828,0,0,0,2.026-.21c.315-.066.624-.127.938-.171a5.52,5.52,0,0,0,.949-.138S399.447,115.056,399.425,115.05Z" transform="translate(-388.211 -105.757)"/><path class="o" d="M402.965,124.922c-.177,4.593-1.755,4.924-3.384,5.206-2.158.37-3.235-.789-7.093-.756-2.346,0-3.069.723-4.416,1.281-.983.414-2,.364-2.164-.552a32.336,32.336,0,0,1-.331-5.94,43.207,43.207,0,0,0,0,8.33c.337,2.158.927,4.173,2.131,5.172,1.656,1.386,5.145,1.568,9.456.552s5.9-2.434,6.4-3.963c1.656-4.968.961-7.3,1.518-8.242S402.965,124.922,402.965,124.922Z" transform="translate(-385.375 -109.998)"/><path class="p" d="M396.774,136.084c2.208-.066,2.926.331,3.047,1.838.166,2.158.066,2.887-.756,3.008-.972.138-1.689.2-1.728-.408a2.374,2.374,0,0,1,.133-1.386c.337-.414.215-.475-.751-.447s-.955.2-.668.5.2.961.2,1.386-.1.646-1.5.524c-1.214-.1-1.016-1.1-1-2.937C393.755,136.907,394.279,136.156,396.774,136.084Z" transform="translate(-389.121 -115.337)"/><path class="q" d="M399.466,137.07l-2.926.425a1.446,1.446,0,0,0,1.656,1.3A1.546,1.546,0,0,0,399.466,137.07Z" transform="translate(-390.377 -115.782)"/><path class="r" d="M400.04,137.879a1.5,1.5,0,0,1,.353.028,1.518,1.518,0,0,1-1.259,1.248,1.236,1.236,0,0,1-.475,0A1.352,1.352,0,0,1,400.04,137.879Z" transform="translate(-391.327 -116.144)"/></g><g transform="translate(23.76 27.157)"><path class="b" d="M396.346,165.77s-1.8-2.986-1.866-4.212l1.877-2.158.861,4.968Z" transform="translate(-392.803 -152.942)"/><g class="s" transform="translate(1.677 6.458)"><path d="M396.346,165.77s-1.8-2.986-1.866-4.212l1.877-2.158.861,4.968Z" transform="translate(-394.48 -159.4)"/></g><path class="b" d="M402.41,166.37l3.262-2.49,2.931,1.75-5.062,2.942Z" transform="translate(-396.355 -154.949)"/><g class="s" transform="translate(6.055 8.931)"><path d="M402.41,166.37l3.262-2.49,2.931,1.75-5.062,2.942Z" transform="translate(-402.41 -163.88)"/></g><path class="b" d="M399.827,204c.491-7.022-1.568-26.055-1.518-28.539l-1.739-.077c-1.038,3.036-3.356,22.8-3.262,27.6.044,2.318,2.462,6.332,3.218,6.448S399.722,205.487,399.827,204Z" transform="translate(-392.276 -160.101)"/><path class="l" d="M399,175.826c.039-.144.088-.32.127-.436h0l1.739.077h0v.773A3,3,0,0,1,399,175.826Z" transform="translate(-394.828 -160.105)"/><path class="b" d="M400.358,168.353a7.612,7.612,0,0,0-1.656,0,3.914,3.914,0,0,0-.872,1.386,5.874,5.874,0,0,0,.751,2.451,2.076,2.076,0,0,0,1.739.077,3.632,3.632,0,0,0,1.154-1.733,3.312,3.312,0,0,0-1.115-2.18Z" transform="translate(-394.304 -156.933)"/><path class="t" d="M401.89,159.1h.287a10.55,10.55,0,0,1,1.993-1.789c.475-.243,2.429,3.13,2.793,4.008s.3.872,1.507.094a23.5,23.5,0,0,0,5.487-5.15,8.916,8.916,0,0,0,2.065-4.008,25.949,25.949,0,0,1-1.938-2.578c-.756-1.4-.894-2.07-1.684-1.965v1c-.155,1.209-1.391,2.048-3.1,3.489s-4.471,2.76-5.123,3.406a24.292,24.292,0,0,0-2.285,3.489Z" transform="translate(-396.122 -147.701)"/><path class="t" d="M391.557,160.486c.182.491,1.805-3.351,2.578-3.257.37.033,1.319,2.12,2,3.235h.121a14.45,14.45,0,0,1-.552-3.572,26.853,26.853,0,0,1,.193-3.5l-.05-2.683c-.254,0-.458.166-1.242,1.1s-2.633,2.9-2.9,4.372a12.973,12.973,0,0,0-.144,4.3Z" transform="translate(-391.442 -149.049)"/></g><path class="k" d="M402.884,152.86s-8.744,14.9-15.109,27.253c-3.428-9.434-1.921-23.107-.944-26.5a68.352,68.352,0,0,1-6.53,2.71c-3.113,2.76-4.284,5.686-4.665,25.542-.055,3.064.425,22.7.425,22.7,1.938,2.5,6.972,4.416,12.553,4.874,8.772.756,21.562-1.9,23.8-5.52l.177-17.637,1.242-27.176-2.285-1.628C408.1,155.863,404.06,154.152,402.884,152.86Z" transform="translate(-360.599 -122.855)"/><path d="M406.384,163.9c-.309,1.027-.618,2.048-.944,3.064s-.64,2-1.027,2.931L400,172.065l-.138.072v.155c0,1.6-.028,3.207-.116,4.792a9.389,9.389,0,0,1-.132,1.159,1.021,1.021,0,0,1-.243.42c-.116.149-.248.3-.381.442-.552.585-1.1,1.137-1.689,1.684-1.17,1.1-2.374,2.158-3.566,3.224-1.1.961-2.175,1.9-3.273,2.848l.591-2.048.7-2.512-.856,2.468-.839,2.468-.155.469.381-.315c2.484-2.037,4.968-4.074,7.331-6.26.591-.552,1.176-1.1,1.733-1.695.144-.149.276-.3.408-.464a1.507,1.507,0,0,0,.342-.618,9.748,9.748,0,0,0,.155-1.231c.116-1.562.116-3.119.11-4.676l4.333-2.208.077-.039v-.072c.408-1.027.69-2.048.994-3.075s.585-2.059.867-3.091.552-2.07.811-3.108.524-2.076.773-3.113Zm-18.967,16.318a8.215,8.215,0,0,1-.607-1.435,1.142,1.142,0,0,1,0-.309l.083-.4.138-.789.232-1.6.425-3.18v-.138l-.11-.094c-.508-.4-1-.839-1.474-1.275-.237-.221-.469-.447-.679-.685a3.413,3.413,0,0,1-.287-.359.967.967,0,0,1-.16-.309,15.367,15.367,0,0,1,.293-1.893c.121-.646.27-1.281.414-1.921.293-1.275.624-2.545,1.032-3.787a19.469,19.469,0,0,1,1.507-3.632,17.23,17.23,0,0,0-1.766,3.538c-.458,1.237-.85,2.5-1.192,3.776-.166.64-.315,1.286-.453,1.932a15.562,15.562,0,0,0-.331,2,.867.867,0,0,0,.1.331,1.735,1.735,0,0,0,.144.248,4.111,4.111,0,0,0,.32.414c.226.259.464.491.707.723a18.354,18.354,0,0,0,1.4,1.209l-.37,3.042-.2,1.59-.1.789-.061.386v.226a.812.812,0,0,0,.033.254,8.6,8.6,0,0,0,.7,1.49c.259.475.524.938.806,1.391.552.911,1.143,1.816,1.75,2.694-.519-.933-1.049-1.86-1.546-2.81C387.9,181.168,387.649,180.7,387.417,180.218Z" transform="translate(-364.563 -125.041)"/><g transform="translate(0 34.636)"><path class="p" d="M408.628,223.94c.215-.282.872.309,2.28.624,1.794.4,2.49.337,4.416.834a9.383,9.383,0,0,0,2.65.486l-6.933,1.424a7.523,7.523,0,0,1-1.943-1.187,1.656,1.656,0,0,1-.469-2.18Z" transform="translate(-375.28 -189.301)"/><path class="b" d="M353.067,189.134c-.491-.2-.834,0-.773.447l3.24,23.152,32.519,13.8-3.312-23.185a1.75,1.75,0,0,0-1-1.192l-18.57-7.883-1.325-2.352a.822.822,0,0,0-.4-.348l-7.7-3.273a.806.806,0,0,0-1.065.326l-.381,1.038Z" transform="translate(-350.141 -173.329)"/><path class="l" d="M353.067,189.134c-.491-.2-.834,0-.773.447l3.24,23.152,32.519,13.8-3.312-23.185a1.75,1.75,0,0,0-1-1.192l-18.57-7.883-1.325-2.352a.822.822,0,0,0-.4-.348l-7.7-3.273a.806.806,0,0,0-1.065.326l-.381,1.038Z" transform="translate(-350.141 -173.329)"/><path class="u" d="M354.686,212.514,386.1,225.85l-3.284-21.893L350.38,190.19Z" transform="translate(-349.287 -174.215)"/><path class="v" d="M386.312,228.253l-5.437-21.932a2.037,2.037,0,0,0-1.1-1.187l-30.665-13.011c-.486-.21-.795,0-.684.436l5.355,21.887Z" transform="translate(-348.4 -175.044)"/><path class="p" d="M350.892,206.88c-1.4,1.695-1.408,3.031-.894,5.266a13.982,13.982,0,0,0,2.76,5.608,4.916,4.916,0,0,0,4.063,1.4c1.717-.348,1.766-2.539,2.534-3.461,1.231-1.463-.425-2.55-2.02-2.76a9.825,9.825,0,0,1-5.575-2.412Z" transform="translate(-348.976 -181.691)"/><path class="p" d="M401.064,199.789a26.336,26.336,0,0,0,4.9-.044l6.933-1.424c3.086.359,11.907-5.824,11.907-5.824s-2.054-5.9-4.935-14.253c-2.346-6.072-1.656-11.957,1.623-15.953,4.935,1.949,6.707,2.556,8.573,8.313,1.463,4.543,4.3,16.991,5.52,21.733.7,2.71.966,5.112-1.993,6.8a84.711,84.711,0,0,1-15.269,6.072c-3.119.889-4.852,1.755-8.148,2.241a28.151,28.151,0,0,1-5.36.4,7.569,7.569,0,0,1-1.9-.2,11.771,11.771,0,0,1-2.661-1.7,1.838,1.838,0,0,1-.64-.646c-.188-.381-.1-.872-.348-1.22s-.585-.425-.817-.7c-.414-.48-.364-1.225-.69-1.766-.276-.458-.839-.994-.552-1.579C397.675,199.115,398.845,199.606,401.064,199.789Z" transform="translate(-370.228 -161.716)"/><path class="w" d="M433.732,222.93l-2.572,1.59s1.363.668,1.866,4.416a17.476,17.476,0,0,1,.2,3.986l2.169-.911S437.144,225.177,433.732,222.93Z" transform="translate(-385.475 -188.882)"/><path class="j" d="M437.377,161.25c2.65.905,6.183,2.639,7.11,4s2.539,6.387,4.146,12.42,3.036,12.845,3.594,15.2.806,4.5-1.915,6.216-14.557,5.8-14.557,5.8.977-5.94-2.484-9.037l6.768-3.941s-3.108-8.788-4.344-11.835S431.89,166.743,437.377,161.25Z" transform="translate(-386.42 -161.25)"/></g><rect class="b" width="7.143" height="3.583" transform="translate(38.183 46.687)"/></g></g><g transform="translate(121.438 68.118)"><g transform="translate(5.088 65.892)"><path class="k" d="M214.046,386c-.282,1.419-.795,3.064-1.253,5.978s.182,3.042-1.822,10.323c-1.2,4.377-1.021,6.122,1.617,9.854,2.815,4,5.829,3.229,7.839-1.137,1.722-3.737,1.656-5.482,1.7-9.384s.11-5.023.331-8.1c.188-2.721,0-4.582.182-6.663Z" transform="translate(-210.259 -293.206)"/><path class="x" d="M255.512,326.086a19.106,19.106,0,0,1-3.185-5.586,33.084,33.084,0,0,1-1.242-7.176c-.359-3.064.2-13.651.5-25.531.221-5.52.453-10.433.668-13.215,0,0-.055-7.607.121-12.039.613-15.186-.966-44.6-.966-44.6H222.529c-1.165,3.053-4.482,7.4-5.261,23.461-.817,16.831-.408,33.866-.408,33.866-2.3,7.85-1.855,13.1-1.656,23.654h0c.077,4.8.221,9.263-.044,12.222-.232,2.545-.408,6.442-.994,10.207-.436,2.821-1.336,5.57-1.4,7.59a1.049,1.049,0,0,0,1.386,1.016,9.506,9.506,0,0,1,6.541.5,1.049,1.049,0,0,0,1.479-.789c.867-5.448,1.6-17.836,1.6-17.836.259-1.513.6-3.2.972-4.968.585-2.479,1.623-6.8,2.76-11.67,1.237-5.034,2.33-9.6,3.467-16.3s4.322-25.547,4.322-25.547l1.844,21.959a61.092,61.092,0,0,0,.834,14.457c.386,2.324,1.1,5.951,1.822,9.611.552,3.434,1.584,7.728,1.413,8.86a2.252,2.252,0,0,1-.348.988s.789,7.22,1.772,12.172,1.27,7.656,4.416,8.683,10.29.414,11.04.055S255.512,326.086,255.512,326.086Z" transform="translate(-211.383 -217.918)"/><path class="j" d="M258.89,396.31c.11,1.159.983,2.545,1.27,4.366a32.164,32.164,0,0,1,.392,6.293c-.083,2.567-.094,2.937-.094,2.937h.8s.11-3.715.166-5.349.613-3.069,1.4-3.218C262.815,401.361,262.749,396.426,258.89,396.31Z" transform="translate(-232.045 -297.825)"/><path class="k" d="M261.474,382.1c-.475,1.722-.718,1.982-2.158,4.687a5.763,5.763,0,0,0-.745,2.208,2.407,2.407,0,0,0,.756,1.761c.657.673,1.187,1.1,2.208,2.147,1.148,1.154,1.987,4.874,2.451,7.038s.718,4.063,2.545,5.167c1.424.861,5.443,1.811,8.418,2.164,5.791.684,6.177-2.208,4.681-3.8s-3.158-3.511-3.616-3.864a7.464,7.464,0,0,0-3.809.453c-2.307.938-3.792.85-4.968.326-2.208-.988-2.407-4.582-2.76-10.488C264.118,383.237,261.474,382.1,261.474,382.1Z" transform="translate(-231.901 -291.459)"/><path class="m" d="M251.863,217.9c.7,4.615,2.788,34.694,2.959,44.873s.618,17.847.618,17.847-3.77,6.828-22.986,5.829c-16.82-.867-19.514-5.89-19.514-5.89s1.733-13.011,2.042-22.3.613-30.527,7.027-40.358Z" transform="translate(-211.46 -217.9)"/><path class="k" d="M264.794,269.39s1.3,29.5,1.584,39.69c-.795.116-1.656.221-2.528.3Z" transform="translate(-234.267 -240.967)"/><path class="k" d="M250.582,247l-.055,52.591c-.845,0-1.711-.033-2.622-.077l-.475-.028Z" transform="translate(-226.911 -230.936)"/><path class="k" d="M275.59,296.166l.088-53.766,2.534,52.889A24.232,24.232,0,0,1,275.59,296.166Z" transform="translate(-239.526 -228.876)"/><path class="k" d="M236.982,265.24l-2.434,41.821c-.933-.144-1.811-.3-2.628-.469Z" transform="translate(-219.963 -239.108)"/><path class="k" d="M220.7,280.53c1.3-12.271,3.158-23.069,3.941-32.74-.138,6.895-1.027,19.834-1.766,33.894-.359,6.751-.629,13.221-.762,15.975a22.637,22.637,0,0,1-3.02-1.286C219.592,293.055,220.144,285.736,220.7,280.53Z" transform="translate(-214.215 -231.29)"/></g><path class="x" d="M268.55,148.848c5.923.806,8.148,3.947,10.924,8.9,2.385,4.245,5.128,9.064,5.128,9.064.845-.684,7.728-6.365,9.384-8.551,1.739-2.318,1.1-3.411,1.1-5.007s.552-2.837.248-5.332c-.155-1.192,1.132-.938,1.656-.243,1.043,1.408.922,3.952,1.6,3.837a6.072,6.072,0,0,0,1.822-1.987c1.27-1.949,1.529-3.732,2.567-5.791.4-.789.933-1.656,1.938-1.656a1.918,1.918,0,0,1,.3.044.375.375,0,0,1,.276.309,3.622,3.622,0,0,1,0,.811,6.166,6.166,0,0,1-.121.756s.905.144,1.049.552a2.926,2.926,0,0,1-.044,1.838c.381.265.966.938.364,2.368.348.149,1.071,1.1.475,3.058a24.944,24.944,0,0,1-2.3,5.1c-1.485,2.368-2.9,3.24-4.9,5.719s-5.7,7.916-9.031,11.708c-3.864,4.416-5.426,5.553-9.169,3.489-1.943-1.065-12.354-15.307-12.354-15.307Z" transform="translate(-231.284 -118.042)"/><path class="y" d="M324.052,160.86c.983,1.3.922,3.9-1.032,5.851C325.305,165.712,326.15,162.262,324.052,160.86Z" transform="translate(-255.685 -126.455)"/><path class="j" d="M269.15,154c4.8.983,6.58,2.523,8.2,4.769s7.728,13.248,7.728,13.248l7.116-6.194a6.408,6.408,0,0,0,1.827,4.328c2,2.318,3.279,1.866,3.279,1.866s-4.626,7.082-7.7,10.1-5.056,2.832-7.679,1.1-12.481-15.164-12.481-15.164Z" transform="translate(-231.552 -123.382)"/><path class="t" d="M256.573,188.416c-.342-2.76-.6-4.836-.69-5.995,0-2.854.061-7.292.061-7.292,5.068-4.648,2.694-9.384.806-12.277a39.693,39.693,0,0,0-8.689-9.384,61.552,61.552,0,0,0-9.108-1.1,25.521,25.521,0,0,0-6.84.657c-1.932.364-6.724,1.551-6.724,1.551-1.424.784-2.661,2.357-2.611,6.729a21.826,21.826,0,0,0,1.728,8.943,63.433,63.433,0,0,1,2.65,9.506c.789,3.158.27,5.482-1.143,8.435-.679,1.43-.061,2.9,3.991,4.863,2.721,1.314,12.845,3.158,21.247.585C254.536,192.573,256.744,189.94,256.573,188.416Z" transform="translate(-210.778 -122.64)"/><path class="j" d="M250.339,115.153c-1.91,4.085-4.074,5.575-5.857,9.285-4.516-.193-10.091-7.364-15.3-10.411-3.042-1.777-5.023-4.008-4.157-7.668,1.419-5.995,6.381-9.163,14.9-7.287,3.445.756,7.265,3.544,7.932,7.441C252.062,108.01,251.615,112.415,250.339,115.153Z" transform="translate(-211.693 -98.534)"/><path class="x" d="M231.206,111.144c-.905.408-2.368,2.534-2.727,10.8-.3,6.7,2.02,9.1,3.312,9.693a11.189,11.189,0,0,0,4.449.662v2.815c2.76,5.2,6.713,7.071,12.177,9.975a17.665,17.665,0,0,0-2.241-9.484v-7.767a3.041,3.041,0,0,0,3.787-.309c1.789-1.347,2.136-4.1.922-5.52a3.036,3.036,0,0,0-4.83.552s-2.633,1.755-2.4-2.468c.265-4.753-1.584-9.555-4.847-8.589C232.956,113.247,233.06,110.261,231.206,111.144Z" transform="translate(-213.321 -104.108)"/><path class="y" d="M242.57,146.662c2.169-.127,6.53-1.275,7.629-3.632a4.991,4.991,0,0,1-1.656,3.08c-2.158,1.562-5.967,1.949-5.967,1.949Z" transform="translate(-219.645 -118.467)"/><path class="y" d="M238.462,124.47l-.784,6.111-2.688-1.253Z" transform="translate(-216.249 -110.153)"/><path class="p" d="M243.335,137.3l-3.285,1.1a1.7,1.7,0,0,0,2.158,1.154A1.816,1.816,0,0,0,243.335,137.3Z" transform="translate(-218.516 -115.9)"/><path class="r" d="M243.74,140.045a1.353,1.353,0,0,1-.2.044,1.573,1.573,0,0,1,1.4-1.689,1.789,1.789,0,0,1-1.2,1.645Z" transform="translate(-220.076 -116.393)"/><path class="j" d="M232.24,125.971c-.2.48.127.662.591.856s.872.326,1.076-.149a.922.922,0,0,0-.464-1.22A.933.933,0,0,0,232.24,125.971Z" transform="translate(-214.99 -110.566)"/><path class="j" d="M233.553,125.582a2.451,2.451,0,0,0-.662-.293,2,2,0,0,0-.7-.083,2.34,2.34,0,0,0-.723.16s-.039.061,0,.055h.646a3.086,3.086,0,0,1,.773.149,3.207,3.207,0,0,1,.867.392c.088.05.265.16.282.177s.05-.05.039-.072a1.59,1.59,0,0,0-.519-.486Z" transform="translate(-214.663 -110.481)"/><path class="j" d="M233.529,120.483l-2.092.718a1.165,1.165,0,0,1,.712-1.441A1.1,1.1,0,0,1,233.529,120.483Z" transform="translate(-214.634 -108.02)"/><path class="j" d="M247.26,126.7c.138.5-.215.635-.7.767s-.911.2-1.049-.3a.922.922,0,0,1,.624-1.143A.933.933,0,0,1,247.26,126.7Z" transform="translate(-220.945 -110.839)"/><path class="j" d="M245.376,126.134a2.566,2.566,0,0,1,.7-.2,1.993,1.993,0,0,1,.7,0,2.274,2.274,0,0,1,.7.254s.028.066,0,.061a5.408,5.408,0,0,0-.635-.1,3.561,3.561,0,0,0-1.7.315l-.3.138c-.028,0-.044-.055-.033-.077a1.656,1.656,0,0,1,.569-.386Z" transform="translate(-220.646 -110.795)"/><path class="j" d="M246.23,120.737l1.976.994a1.165,1.165,0,0,0-.513-1.524,1.071,1.071,0,0,0-1.463.53Z" transform="translate(-221.285 -108.192)"/><path class="k" d="M233.166,152.14s5.283,10.3,7.176,15.318,1.375,9.163,1.43,18.476c.044,7.176,0,17.985,0,17.985s-15.611.21-20.182-5.52c.861-3.621,3.908-10.858,4.648-13.182s.629-5.52-1.176-10.659-3.02-9.042-3.213-12.917,1.408-6.425,2.352-7.176Z" transform="translate(-210.246 -122.548)"/><path class="k" d="M260.54,151.94v1.137s9.7,9.02,10.328,18.189,1.176,29.864,1.176,29.864a13.85,13.85,0,0,0,3.461-2.9c-.4-4.162-1.811-20.612-1.419-22.495s4.885-6.166.784-12.293a49.742,49.742,0,0,0-9.577-10.367Z" transform="translate(-227.695 -122.459)"/><path class="j" d="M245.546,177.989l-.723-1.242-.055-.088v-.066a1.949,1.949,0,0,1,0-.723,4.6,4.6,0,0,1,.116-.795,28.4,28.4,0,0,1,.834-3.146l.083-.265-.276-.055a16.908,16.908,0,0,1-2.368-.651,5.8,5.8,0,0,1-2.059-1.143,1.286,1.286,0,0,1-.287-.425,1.143,1.143,0,0,1-.044-.232l-.028-.309-.1-1.248-.193-2.5c-.287-3.312-.585-6.624-.955-9.936.116,3.312.3,6.663.5,9.98l.166,2.5.083,1.242v.315a1.452,1.452,0,0,0,.072.381,1.8,1.8,0,0,0,.392.613,5.708,5.708,0,0,0,2.263,1.281,16.561,16.561,0,0,0,2.208.585,27.244,27.244,0,0,0-.734,2.959,6.015,6.015,0,0,0-.1.839,2.258,2.258,0,0,0,.072.905l.05.127.166.259.221.348.442.7c.591.927,1.165,1.86,1.766,2.76l1.805,2.76-1.623-2.865C246.661,179.9,246.1,178.933,245.546,177.989Zm19.321-5.062a1.971,1.971,0,0,0-.094-.414,9.837,9.837,0,0,0-1.546-2.55,15.063,15.063,0,0,0,.756-2.114,7.178,7.178,0,0,0,.226-1.2,3.4,3.4,0,0,0-.072-1.264,3.086,3.086,0,0,0-.646-1.1c-.248-.315-.508-.618-.767-.911-.519-.6-1.054-1.176-1.59-1.75-1.1-1.148-2.208-2.252-3.312-3.351-.552-.552-1.143-1.1-1.722-1.612s-1.176-1.054-1.805-1.529c1.159,1.065,2.208,2.208,3.312,3.351s2.153,2.291,3.207,3.45c.524.58,1.054,1.165,1.557,1.755.254.3.508.6.74.905a2.633,2.633,0,0,1,.552.916,3.036,3.036,0,0,1,.039,1.1,7.833,7.833,0,0,1-.2,1.1,13.96,13.96,0,0,1-.756,2.18l-.061.144.094.121a9.842,9.842,0,0,1,1.59,2.5,1.485,1.485,0,0,1,.083.662,6.968,6.968,0,0,1-.077.745c-.072.5-.149,1-.237,1.5-.364,2-.773,4-1.165,6,.552-1.965,1.1-3.936,1.507-5.934.1-.5.2-1,.3-1.507.039-.254.083-.508.1-.773a2.153,2.153,0,0,0,.011-.425Z" transform="translate(-218.265 -123.888)"/><path class="j" d="M215.448,156.13c-4.665.817-6.519,3.665-8.567,9.721-2.8,8.28-5.261,16.423-5.791,20.568l10.991-3.008,5.885-11.846S220.184,162.053,215.448,156.13Z" transform="translate(-201.063 -124.336)"/><path class="b" d="M245.244,212.76l-23.8-3.66-3.621-30.51,23.8,3.66Z" transform="translate(-208.557 -134.398)"/><path class="z" d="M245.244,212.76l-23.8-3.66-3.621-30.51,23.8,3.66Z" transform="translate(-208.557 -134.398)"/><path class="t" d="M244.657,212.127l-22.8-3.511L218.48,180.16l22.8,3.511Z" transform="translate(-208.853 -135.101)"/><path class="aa" d="M241.435,202.8l-2.28-19.216L217.82,178.58l3.621,30.527L244,214.4a.552.552,0,0,0,.723-.662l-1.154-9.732a1.1,1.1,0,0,0-.806-.905Z" transform="translate(-208.557 -134.393)"/><path class="x" d="M201.37,205.875c0,3.124.464,3.649,3.9,5.4a65.366,65.366,0,0,0,18.951,5.128c4.471.431,6.768.221,8.507-.464a7.176,7.176,0,0,0,4.477-7.861c.745-2.164-.386-2.456-1.319-2.688l.171,1.413a8.484,8.484,0,0,1-3.864,1.391c-1.86.028-.132-2.142.2-3.445s.265-2.059-.806-2.677c-.6,0-.8.823-2.661,2.677-1.419,1.413-2.523,3.98-4.714,3.682-1.722-.232-11.929-4.968-11.929-4.968l-.464-3.908Z" transform="translate(-201.188 -143.792)"/><path class="j" d="M201.068,204.6c-.132,1.949.215,2.97,1.1,3.809s4.609,2.589,6.884,3.384,8.28,2.412,9.384,2.622c-1.187-1.855-.894-5.52.11-7.176A2.11,2.11,0,0,1,220.885,206l-8.783-3.952-.6-5.327Z" transform="translate(-201.041 -142.52)"/></g><g transform="translate(31.212 73.528)"><g transform="translate(4.698 64.325)"><path class="j" d="M105.77,421.512l2.076-1.06-2.07-.552Z" transform="translate(-72.833 -312.235)"/><path class="j" d="M123.01,421.717s-24.841-10.858-25.128-9.18a2.368,2.368,0,0,0,0,1.01l-.072-.094.5,3.119a7.309,7.309,0,0,0,3.864,1.562v-1.612a12.85,12.85,0,0,1,2.208,1.132c1.6,1.032,2.644,2.859,4.35,4.968,1.248,1.546,3.439,2.241,6.679,2.655,3.489.453,6.541-.265,7.392-1.214A2.458,2.458,0,0,0,123.01,421.717Z" transform="translate(-69.267 -308.857)"/><path class="ab" d="M122.291,406.047c-.243-.248-1.137-1.209-2.341-2.258-1.06-.911-2.291-2.07-3.61-3a13.9,13.9,0,0,1-1.789-1.441c-.436-.458-.856-.933-1.248-1.435a26.774,26.774,0,0,1-3.053-5.04,12.145,12.145,0,0,1-1.1-2.655,17.229,17.229,0,0,1-.337-2.959c-.094-4.482,0-5.194-.039-8.606l-10.422.491c.37,1.888.927,4.46,1.137,6.624.32,3.262.42,3.986-.8,7.265a9.587,9.587,0,0,0-.938,2.926c-.055,1.656,1.27,3.1,2.76,3.864,1.22.662,2.617.933,3.8,1.656a12.172,12.172,0,0,1,3.119,2.992,12.206,12.206,0,0,0,2.7,3.047,10.891,10.891,0,0,0,4.041,1.341,21.526,21.526,0,0,0,5.4.193C122.175,408.807,124.047,407.846,122.291,406.047Z" transform="translate(-69.239 -293.755)"/><path class="k" d="M120.707,415.315c-1.076-.883-2.606-2.153-4.416-3.577a4.642,4.642,0,0,0-3.825.409c-3.643,1.987-4.228,4.747-4.228,4.747a5.294,5.294,0,0,0,3.031,2.589c4.267,1.805,11.841,1.1,11.885-.861C123.136,417.379,122.032,416.419,120.707,415.315ZM98.792,403.38s-.237.646-.867,1.921a3.555,3.555,0,0,0,.094,3.781,5.642,5.642,0,0,0,3.748,2.49A7.8,7.8,0,0,0,98.792,403.38Z" transform="translate(-69.095 -304.834)"/><path class="j" d="M56.651,411.865c.723,1.1-.094,5.36.127,8.369.2,2.76,1.032,7.5.248,10.218-.927,3.229-2.876,6.994-6.707,4.068-2.379-1.816-3.765-4.19-4.168-8.131-.282-2.733.734-6.547,1.6-9.936,1.016-3.952,1.391-6.072,1.391-6.072Z" transform="translate(-46.103 -307.97)"/><path class="ab" d="M48.966,376.76c-.138,6.392.7,10.864.828,14.954a28.7,28.7,0,0,1-.464,5.52c-.486,2.622-1.319,6.271-1.656,7.971-.486,2.374-.856,3.864,0,6.508a3.02,3.02,0,0,0,.276.591c1.187,2.164,4.124,3.754,5.045,3.467a1.606,1.606,0,0,0,1.656.552,2.823,2.823,0,0,0,.309-.083c.1-.039.2-.083.309-.133a3.185,3.185,0,0,0,1.5-2.042,5.576,5.576,0,0,0,.138-.58,21.091,21.091,0,0,0,0-6.707c-.1-1.485-.055-3.378,0-5.78a104.807,104.807,0,0,1,1.248-13.552c.552-2.523,1.27-5.691,2.015-9.064Z" transform="translate(-46.578 -292.909)"/><path class="k" d="M47.059,433.332c2.263-1.06,8.893-1.341,10.019,1.866.088,3.042.155,5.1-1.711,7.789-2.479,3.566-5.885-.088-7.209-2.429A12.177,12.177,0,0,1,47.059,433.332Z" transform="translate(-46.47 -317.927)"/><path class="m" d="M55.653,225.086c-3.108,5.862-5.614,10.8-6.133,26.116-.585,17.289-.309,23.864-.348,25.945s-1.3,5.934-2.208,16.218.795,35.141.795,35.141.845,1.656,4.775,1.96a10,10,0,0,0,5.73-1.043s5.068-32.784,6.359-38.994,5-26.6,5-26.6l2.594,16.467a51.517,51.517,0,0,0,.2,14.678c1.231,8.992,3.621,27.121,3.621,27.121a20.646,20.646,0,0,0,5.52,1.3,13.3,13.3,0,0,0,6.072-.828S89.911,285.8,89.773,275.6s-1.463-35.666-4.88-50.736Z" transform="translate(-46.37 -224.86)"/><path class="k" d="M78.258,246.6l-2.964,19.674,2.594,16.467L76.652,266.02l2.672-16.152c2.456-.624,8.015-3.649,9.5-7.888C85.081,246.015,78.258,246.6,78.258,246.6ZM66.6,235.278c.408-1.656.845-3.312,1.341-4.968a23.913,23.913,0,0,0-2.153,4.714,44.973,44.973,0,0,0-1.408,4.968,51.51,51.51,0,0,0-.867,5.1,33.673,33.673,0,0,0-.27,5.172c.386-1.689.751-3.362,1.1-5.034s.707-3.312,1.1-5.007S66.2,236.934,66.6,235.278Zm-2.49-1.2c.552-1.016,1.1-2.031,1.579-3.1a18.1,18.1,0,0,0-2.3,2.655,24.641,24.641,0,0,0-1.86,2.975,21.95,21.95,0,0,0-1.4,3.224,13.872,13.872,0,0,0-.745,3.439l1.529-3.113c.519-1.016,1.032-2.037,1.573-3.042S63.591,235.107,64.11,234.075ZM62.956,299.66q-1.325,7.988-2.445,16.008,1.75-7.927,3.279-15.876c1.043-5.3,2.015-10.593,2.981-15.931S68.25,273.13,68.7,267.742s.778-10.781,1.027-16.18c-.668,5.366-1.264,10.737-1.866,16.1S66.61,278.38,65.7,283.668,63.823,294.333,62.956,299.66Zm27.551-27.242c.138,2.341.309,4.7.3,7.011s-.127,4.687-.215,7.033l-.259,7.049q-.265,7.044-.364,14.11.734-7.022,1.214-14.065c.32-4.7.618-9.384.712-14.121-.083-4.764-.552-9.434-1.032-14.121s-1.1-9.351-1.915-13.994l1.071,14.071C90.187,267.731,90.369,270.077,90.507,272.418Z" transform="translate(-52.056 -227.301)"/></g><path class="t" d="M55.6,206.363c-3.13-1.474.293-3.544.977-13.121a64.915,64.915,0,0,0-.657-8.595s5.344-6.5,3.9-18.426L70.589,165l6.955.055,4.416,1.314a34.78,34.78,0,0,1,6.431,6.69c3.146,4.654,3.621,9.7.226,13.4-.05.729.425,11.94,1.336,14.678.85,2.545,1.032,2.832-.337,3.963C85.311,208.273,61.138,208.493,55.6,206.363Z" transform="translate(-45.075 -133.719)"/><g transform="translate(35.394 29.816)"><path class="i" d="M101.71,166.1c5.807,1,6.668,1.833,9.776,5.321,3.864,4.344,4.764,5.366,10.428,11.112l17.631-5.62v9.473s-12.4,5.879-16.561,7.281c-3.1,1.049-4.863-.392-7.3-2.644-3.737-3.445-11.289-10.555-11.289-10.555Z" transform="translate(-101.71 -164.028)"/><g transform="translate(15.393)"><path class="m" d="M156.694,162.884h0l-1-.486h0a.933.933,0,0,0-.856.127l-22.2,12.879a3.312,3.312,0,0,0-1.49,2.374l-1.513,19.961a.867.867,0,0,0,.364.905h0l1.027.5h0a.938.938,0,0,0,.872-.127l22.219-12.879a3.312,3.312,0,0,0,1.49-2.374c.3-3.925,1.214-16.036,1.513-19.961C157.146,163.314,156.975,162.994,156.694,162.884Z" transform="translate(-129.603 -162.346)"/><path class="j" d="M132.8,187.962a3.268,3.268,0,0,0-.668,1.617l-1.513,19.955a.9.9,0,0,0,.331.894l-.972-.469h0a.867.867,0,0,1-.37-.905l1.513-19.966a3.185,3.185,0,0,1,.6-1.518Z" transform="translate(-129.595 -173.646)"/><path class="k" d="M131.466,198.633l1.507-19.966a3.351,3.351,0,0,1,1.49-2.368l22.219-12.89c.756-.436,1.319-.083,1.253.789-.3,3.925-1.214,16.008-1.513,19.961a3.312,3.312,0,0,1-1.49,2.374l-22.213,12.884C131.957,199.858,131.4,199.532,131.466,198.633Z" transform="translate(-130.431 -162.738)"/><path class="m" d="M136.047,194.011l.287-3.737a.618.618,0,0,1,.276-.447l1.529-.883c.144-.083.248,0,.237.149l-.282,3.737a.64.64,0,0,1-.282.442l-1.529.883C136.141,194.237,136.019,194.171,136.047,194.011Z" transform="translate(-132.484 -174.247)"/><path class="j" d="M137.1,191.847a1.6,1.6,0,0,1,.723-1.1c.364-.21.635-.061.607.337a1.59,1.59,0,0,1-.718,1.1C137.341,192.4,137.071,192.244,137.1,191.847Z" transform="translate(-132.956 -175.025)"/><path class="j" d="M136.888,195.257a1.557,1.557,0,0,1,.718-1.1c.364-.21.635-.061.607.337a1.6,1.6,0,0,1-.718,1.1C137.125,195.8,136.855,195.682,136.888,195.257Z" transform="translate(-132.861 -176.553)"/><path class="ab" d="M173.153,183.528c.6-1.3.491-1.435-.061-1.932a3.671,3.671,0,0,0-3.207-.938,7.662,7.662,0,0,0-2.479.762c-.464.364.182,1.369,1.546,1.413,2.142.066,2.241.629,2.241.629a26.041,26.041,0,0,0-2.76.044,19.686,19.686,0,0,0-2.931,1.032c-.845.3-.8,1.457.745,1.562l-1.54.552c-1.1.392-1.347,1.06-.342,1.579a1.656,1.656,0,0,0,1.1.188s-1.187.226-1.132.624c.144,1.143.933,1.3,3.461,1.54,2.412.221,3.119,1.363,2.832,2.3,0,0,.817-.718,1.529-1.441a1.536,1.536,0,0,0,.486-1.976s1.314-.226,1.237-1.049a4.168,4.168,0,0,0-.646-1.656,1.457,1.457,0,0,0,.464-1.479,2.374,2.374,0,0,0-.745-1.33Z" transform="translate(-144.887 -170.52)"/><path class="r" d="M168.31,190.217a7.248,7.248,0,0,1,1.413-.431,4.814,4.814,0,0,1,1.485.171,17.583,17.583,0,0,1,2.76.867,16.7,16.7,0,0,1-2.87-.447,8.036,8.036,0,0,0-1.369-.259C169.3,190.129,168.8,190.217,168.31,190.217Z" transform="translate(-146.939 -174.637)"/><path class="r" d="M166.86,194.5a3.312,3.312,0,0,1,1.557-.348,8.871,8.871,0,0,1,1.579.182,15.1,15.1,0,0,1,3,.938c-1.049-.1-2.07-.315-3.086-.513A8.109,8.109,0,0,0,166.86,194.5Z" transform="translate(-146.289 -176.593)"/></g></g><path class="ac" d="M96.41,165.14l4.416.756c4.2,3.312,9.147,9.235,9.335,13.712a23.444,23.444,0,0,1-.778,7.5s-.48,9.274.458,14.1,3.146,16.505,3.146,16.505A14.165,14.165,0,0,1,107,221.1c-.966-6.188-3.185-29.533-2.92-34.959S104.635,172.156,96.41,165.14Z" transform="translate(-63.941 -133.782)"/><path class="z" d="M106.686,189.056c.381-1.435.8-2.859,1.22-4.278s.834-2.843,1.214-4.267a16.529,16.529,0,0,0,.453-2.147,2.293,2.293,0,0,0-.817-1.794,19.557,19.557,0,0,0-3.345-2.821l-.116-.077v-.138a7.143,7.143,0,0,0,.044-2.352,6.133,6.133,0,0,0-.773-2.208,7.077,7.077,0,0,0-1.656-1.744,11.311,11.311,0,0,0-2.07-1.27A9.9,9.9,0,0,1,103,167.1a6.53,6.53,0,0,1,1.761,1.722,6.431,6.431,0,0,1,.9,2.324,7.05,7.05,0,0,1,0,2.5l-.083-.21a19.193,19.193,0,0,1,3.456,2.859,5.14,5.14,0,0,1,.679.944,1.391,1.391,0,0,1,.121.276,1.026,1.026,0,0,1,.088.3,2.087,2.087,0,0,1,0,.613,17.665,17.665,0,0,1-.491,2.208c-.392,1.435-.878,2.837-1.347,4.245S107.177,187.654,106.686,189.056Z" transform="translate(-65.926 -134.149)"/><path class="ac" d="M63.23,166a41.359,41.359,0,0,1,4.168,8.142c2.352,5.7,4.626,10.891,4.471,16.146s-2.429,35.3-2.429,35.3a52.651,52.651,0,0,1-14.424,0l.679-9.9L52.5,225.309s-.2.773-3.864-.778a198.9,198.9,0,0,0,4.416-27.413c.265-5.167.784-29.809.784-29.809Z" transform="translate(-42.541 -134.167)"/><path class="z" d="M81.471,192.747a12.1,12.1,0,0,0-1.987-3.66,41.523,41.523,0,0,0-2.639-3.246c-.453-.552-.922-1.054-1.391-1.573l-.707-.762c-.116-.132-.232-.254-.353-.409a.629.629,0,0,1-.094-.127c0-.066-.061-.132-.083-.2a1.324,1.324,0,0,1,0-.353,6.265,6.265,0,0,1,.773-2.07c.348-.629.718-1.225,1.1-1.822l.028.353-2.1-2.208-1.043-1.1-.27-.342-.127-.138a1.23,1.23,0,0,1-.177-.226,1.1,1.1,0,0,1-.044-.48,1.633,1.633,0,0,1,.05-.4A23.441,23.441,0,0,1,73.207,171c.32-.972.651-1.938,1.021-2.893-.265.988-.552,1.971-.784,2.959s-.5,1.982-.635,2.975a1.883,1.883,0,0,0,0,.64c-.039-.055,0,.028.072.066l.132.132.276.27,1.076,1.1,2.153,2.208.155.16-.127.188c-.375.58-.734,1.176-1.06,1.783a6.4,6.4,0,0,0-.734,1.833v.171a.055.055,0,0,1,0,.044s.039.055.061.083c.094.121.215.259.326.392l.69.789c.464.552.927,1.06,1.375,1.6a42.226,42.226,0,0,1,2.523,3.395,16.251,16.251,0,0,1,1.043,1.838,7.37,7.37,0,0,1,.7,2Z" transform="translate(-53.164 -135.112)"/><g transform="translate(0 32.799)"><path class="r" d="M97.62,191.706a12.985,12.985,0,0,1,3.941-2.335c.933-.265,4.206-1.623,5.465-1.938.795-.2,1.1,1.071.1,1.938a27.406,27.406,0,0,1-3.7,2.037,15.616,15.616,0,0,0-2.639,2.611Z" transform="translate(-64.483 -176.558)"/><path class="ab" d="M42.758,173.344c1.982-4.228,3.676-4.637,8.479-5.194,4.515,4.416.85,14.259.85,14.259L49.88,192.764s11.725-1.7,13.083-2.567,4.968-4.769,6.2-5.94c1.656-1.59,2.479-1.38,3.312-1.253,2.76.414,3.362.646,3.947,1.021a1.237,1.237,0,0,1,.552,1.071c.734.094,1.833.072,1.976,1.275a3.373,3.373,0,0,1,.039.96.806.806,0,0,1,.48.276c.607.707-.436,3.152-1.1,3.748a2.37,2.37,0,0,1-2,.353c-.74-.1-.4-.856-.4-.856l-1.038.061c-2.247,1.6-2.357,4.753-5.327,5.448a20.578,20.578,0,0,0-3.621.707c-6.392,2.142-16.864,8.65-22.555,9.136-5.559.48-5.4-2.479-5.487-5.885C37.884,197.285,40.777,177.562,42.758,173.344Z" transform="translate(-37.747 -167.929)"/><path class="t" d="M72.485,209.793l4.217-.883s-.861.889-.607,3.748a5.619,5.619,0,0,0,1.877,4.03l-6.122,2.981Z" transform="translate(-52.939 -186.189)"/><path class="r" d="M54.9,210.63l-.237,1.165c-2.534.651-5.52,3.991-6.111,5.377A8.28,8.28,0,0,1,54.9,210.63Z" transform="translate(-42.501 -186.96)"/><path class="i" d="M51.264,167.75s-.806.083-2.374.326a6.885,6.885,0,0,0-5.52,3.2c-1.695,2.677-1.822,3.82-2.815,8.4a185.272,185.272,0,0,0-2.909,19.177c-.215,3.958.215,5.807,1.209,6.624s3.312,1.452,6.735.375,13.569-5.128,13.569-5.128-1.3.077-1.722-3.787.458-5.785.458-5.785L50,192.381l2.462-10.659S55.807,171.2,51.264,167.75Z" transform="translate(-37.592 -167.75)"/><path class="l" d="M55,211.222a8.683,8.683,0,0,0-6.221,5.09,7.782,7.782,0,0,1,6.541-6.492Z" transform="translate(-42.604 -186.597)"/><path class="r" d="M106.043,198.312l-3.273-.662,3.207.21A1.187,1.187,0,0,1,106.043,198.312Z" transform="translate(-66.791 -181.145)"/><path class="r" d="M109.29,202.506l-3.77-.486,3.776.05a1.928,1.928,0,0,1-.006.436Z" transform="translate(-68.022 -183.102)"/><path class="r" d="M110.146,205.91a1.1,1.1,0,0,1-.508.442,2.208,2.208,0,0,1-.64.221l.05-.033a6.341,6.341,0,0,1-.32.552l-.077-.1a.767.767,0,0,1,.6.149,1,1,0,0,1,.326.491,1.132,1.132,0,0,0-.381-.408.718.718,0,0,0-.513-.094l-.144.028.066-.132a5.18,5.18,0,0,1,.315-.552v-.033h.033a4.251,4.251,0,0,0,.629-.171,1.413,1.413,0,0,0,.563-.359Z" transform="translate(-69.375 -184.845)"/><path class="r" d="M107.557,206.79a10.856,10.856,0,0,1-1.369.1,1.458,1.458,0,0,1-.469.723,7.677,7.677,0,0,1-.729.613l1.038-.061a1.656,1.656,0,0,1,1.187-.646Z" transform="translate(-67.785 -185.239)"/></g><g transform="translate(11.63)"><g transform="translate(3.815 4.078)"><g transform="translate(0 1.444)"><path class="ab" d="M70.489,136.395a3.566,3.566,0,0,1-3.268-1.1c-1.766-1.8-1.993-3.693-1.253-4.968a2.578,2.578,0,0,1,3.312-1.1,4.613,4.613,0,0,1,1.772,2.153c.486.834,1.187-.028.673-3.428a12.074,12.074,0,0,1,4.008-6.989,7.2,7.2,0,0,1,5.774-2.1,4.383,4.383,0,0,1,4.03-.039c1.628.795,2.937,3.13,3.715,9.175.795,6.161-.331,10.593-1.706,11.686a7.1,7.1,0,0,1-4.72,1.573l.381,3.273s5.327,7.033-2.644,5.995a11,11,0,0,1-7.69-4.968l-1.1-10.107S71.676,136.13,70.489,136.395Z" transform="translate(-65.571 -118.336)"/><path class="j" d="M89.711,136.279a1.038,1.038,0,0,1-1.259.762,1.065,1.065,0,1,1,1.259-.762Z" transform="translate(-75.447 -125.773)"/><path class="j" d="M103.838,130.142l-2.208-1.027a1.17,1.17,0,0,1,1.579-.624A1.281,1.281,0,0,1,103.838,130.142Z" transform="translate(-81.725 -122.837)"/><path class="j" d="M101.147,135.265a1.021,1.021,0,1,0,.555-1.333,1.021,1.021,0,0,0-.555,1.333Z" transform="translate(-81.474 -125.288)"/><path class="j" d="M87.688,130.339l-2.164,1.468a1.248,1.248,0,0,1,.3-1.794A1.369,1.369,0,0,1,87.688,130.339Z" transform="translate(-74.396 -123.465)"/><path class="p" d="M90.319,146.69l3.439.828a1.778,1.778,0,0,1-2.3,1.259,1.656,1.656,0,0,1-1.137-2.087Z" transform="translate(-76.624 -131.038)"/><path class="r" d="M92.463,149.291a1.855,1.855,0,0,0-1.982-1.507,1.568,1.568,0,0,0-.171.033,1.557,1.557,0,0,0,1.176,1.446A1.965,1.965,0,0,0,92.463,149.291Z" transform="translate(-76.653 -131.526)"/><path class="r" d="M95,133.25l.927,6.045,3.246-1.391Z" transform="translate(-78.755 -125.017)"/></g><path class="j" d="M76.743,126.727A11.722,11.722,0,0,1,86.4,117.9a6.248,6.248,0,0,1,5.443,1.656A6.392,6.392,0,0,1,93.5,122.62a39.994,39.994,0,0,1,1.032,6.966,15.826,15.826,0,0,0-.464-8.722c-1.5-4.493-4.659-5.217-8.705-5.139S76.252,120.236,76.743,126.727Z" transform="translate(-70.561 -115.72)"/></g><path class="b" d="M69.242,126.57s-.7-6.7,2.3-10.141c3.748-4.251,8.948-4.852,12.569-1.314,1.314,1.286,2.76,5.818,2.291,11.151a30.482,30.482,0,0,0,.464-6.873c-.607-7.866-7-11.361-13.359-11.04S62.469,111.9,60.769,117.6c-1.071,3.555-.8,8.4-.519,13.248.4,6.895-1.59,10.488-1.59,10.488a13.352,13.352,0,0,1,1.656.386,8.242,8.242,0,0,0,4.377,0c4.416-1.264,5.415-5.52,4.935-10.781Z" transform="translate(-58.66 -108.334)"/><path class="b" d="M74.616,147.7a6.46,6.46,0,0,0,3.4,3.6,11.336,11.336,0,0,0,6.42,1.154,6.624,6.624,0,0,0,4.847-2.125c.972-1.01,2.076-4.035,2.076-6.541.966,6.116,1.938,6.624.966,9.3a10.955,10.955,0,0,0-.883,3.936s1.6,6.409-5.724,7.761-11.951-1.777-16.1-7.077C73.694,156.221,74.941,152.573,74.616,147.7Z" transform="translate(-63.57 -124.217)"/><path class="c" d="M74.616,147.7a6.46,6.46,0,0,0,3.4,3.6,11.336,11.336,0,0,0,6.42,1.154,6.624,6.624,0,0,0,4.847-2.125c.972-1.01,2.076-4.035,2.076-6.541.966,6.116,1.938,6.624.966,9.3a10.955,10.955,0,0,0-.883,3.936s1.6,6.409-5.724,7.761-11.951-1.777-16.1-7.077C73.694,156.221,74.941,152.573,74.616,147.7Z" transform="translate(-63.57 -124.217)"/><path class="ad" d="M69.62,160.9c.326.42.657.823.994,1.214,5.266-1.706,4.836-8.529,4.184-10.72a3.452,3.452,0,0,1-.182-.475C74.941,155.767,73.694,159.416,69.62,160.9Z" transform="translate(-63.57 -127.412)"/><path class="ad" d="M78.364,155.91a9.9,9.9,0,0,0,8.584,5.355c-2.583,1.231-6.911-.707-8.948-3.1Z" transform="translate(-67.324 -129.647)"/><path class="ad" d="M96.077,163.59c-2.208,5.073-9.522,6.31-16.047,3.864C83.491,170.926,94.123,172.168,96.077,163.59Z" transform="translate(-68.233 -133.088)"/></g><rect class="j" width="7.944" height="3.997" transform="translate(18.227 47.372)"/></g><g transform="translate(24.471 45.493)"><g transform="translate(0)"><path class="t" d="M26.677,71.133,49.614,57.885a2.832,2.832,0,0,1,2.594,0l.282.171a2.854,2.854,0,0,1,1.3,2.247V72.513a2,2,0,0,1-1.176,2.158L29.553,88.036a2.876,2.876,0,0,1-2.594,0l-.282-.171a2.865,2.865,0,0,1-1.3-2.247V73.38a2.865,2.865,0,0,1,1.3-2.247Z" transform="translate(-25.38 -57.558)"/><path class="t" d="M69.412,93.151a4.364,4.364,0,0,1-2.479-3.511L63.34,91.749a6.332,6.332,0,0,0,5.995,2.015.331.331,0,0,0,.077-.613Z" transform="translate(-42.385 -71.924)"/><path class="b" d="M54.057,59.895c-.155-.552-.657-.729-1.253-.381L29.862,72.762a2.556,2.556,0,0,0-.916.972L26.07,72.078a2.6,2.6,0,0,1,.916-.972L49.923,57.858a2.865,2.865,0,0,1,2.594,0l.287.171a2.848,2.848,0,0,1,1.253,1.866Z" transform="translate(-25.689 -57.547)"/><path class="ae" d="M54.057,59.895c-.155-.552-.657-.729-1.253-.381L29.862,72.762a2.556,2.556,0,0,0-.916.972L26.07,72.078a2.6,2.6,0,0,1,.916-.972L49.923,57.858a2.865,2.865,0,0,1,2.594,0l.287.171a2.848,2.848,0,0,1,1.253,1.866Z" transform="translate(-25.689 -57.547)"/><path class="b" d="M25.38,97.418a2.865,2.865,0,0,0,1.3,2.247l.282.171a2.887,2.887,0,0,0,2.374.1c-.613.232-1.076-.116-1.076-.856V86.847a2.7,2.7,0,0,1,.381-1.281L25.761,83.91a2.639,2.639,0,0,0-.381,1.281Z" transform="translate(-25.38 -69.357)"/><path class="af" d="M25.38,97.418a2.865,2.865,0,0,0,1.3,2.247l.282.171a2.887,2.887,0,0,0,2.374.1c-.613.232-1.076-.116-1.076-.856V86.847a2.7,2.7,0,0,1,.381-1.281L25.761,83.91a2.639,2.639,0,0,0-.381,1.281Z" transform="translate(-25.38 -69.357)"/><path class="b" d="M55.431,61.2c.055,0,.2,0,.276.259h0a1.412,1.412,0,0,1,0,.259V73.956a1.619,1.619,0,0,1-.972,1.8L52.2,77.229l-.287.166.1.315a5.167,5.167,0,0,0,2.335,2.76,6.071,6.071,0,0,1-.905.066,5.907,5.907,0,0,1-3.892-1.413l-.221-.2-.254.149-2.931,1.706L41.818,83.29,31.705,89.142l-.171.088h-.05a.552.552,0,0,1-.149,0c-.27,0-.309-.326-.309-.519V76.489a2.468,2.468,0,0,1,1.087-1.921L55.056,61.32a.8.8,0,0,1,.375-.121m0-.408a1.159,1.159,0,0,0-.552.177L31.937,74.215a2.578,2.578,0,0,0-.916.966,2.7,2.7,0,0,0-.381,1.281V88.728c0,.591.293.927.723.927a.872.872,0,0,0,.259-.039.113.113,0,0,0,.094-.028l.221-.11L42.05,83.621l4.322-2.512,2.931-1.7a6.3,6.3,0,0,0,4.168,1.546,6.226,6.226,0,0,0,1.22-.116.331.331,0,0,0,.072-.613,4.753,4.753,0,0,1-2.335-2.639l2.539-1.474a2.009,2.009,0,0,0,1.181-2.153V61.717a2.065,2.065,0,0,0-.11-.646,2.506,2.506,0,0,1,.066.276.685.685,0,0,0-.673-.552Z" transform="translate(-27.736 -59)"/><path class="b" d="M38.319,92.744a3.345,3.345,0,0,1,.127-.922,4.173,4.173,0,0,1,.348-.894,3.936,3.936,0,0,1,.519-.762,2.468,2.468,0,0,1,.635-.552,1.352,1.352,0,0,1,.64-.2.845.845,0,0,1,.519.166,1.1,1.1,0,0,1,.348.491,2.169,2.169,0,0,1,.127.773,3.568,3.568,0,0,1-.127.945,4.173,4.173,0,0,1-.348.893,3.936,3.936,0,0,1-.519.762,2.484,2.484,0,0,1-.64.552,1.33,1.33,0,0,1-.635.2.845.845,0,0,1-.519-.166,1.1,1.1,0,0,1-.348-.491A2.054,2.054,0,0,1,38.319,92.744Z" transform="translate(-31.176 -71.821)"/><path class="b" d="M49.869,86.092A3.373,3.373,0,0,1,50,85.17a4.416,4.416,0,0,1,.348-.894,3.936,3.936,0,0,1,.519-.762,2.583,2.583,0,0,1,.635-.552,1.281,1.281,0,0,1,.651-.182.817.817,0,0,1,.519.16,1.1,1.1,0,0,1,.348.491,2.17,2.17,0,0,1,.127.778,3.566,3.566,0,0,1-.138.9,4.173,4.173,0,0,1-.348.894,4.25,4.25,0,0,1-.508.789,2.606,2.606,0,0,1-.64.552,1.319,1.319,0,0,1-.635.2.845.845,0,0,1-.519-.166,1.071,1.071,0,0,1-.348-.491,2.054,2.054,0,0,1-.138-.795Z" transform="translate(-36.351 -68.851)"/><path class="b" d="M61.419,79.408a3.622,3.622,0,0,1,.121-.922,4.588,4.588,0,0,1,.353-.889,3.6,3.6,0,0,1,.519-.767,2.484,2.484,0,0,1,.635-.552,1.281,1.281,0,0,1,.64-.2.789.789,0,0,1,.519.166,1.159,1.159,0,0,1,.348.491,2.136,2.136,0,0,1,.127.773,3.638,3.638,0,0,1-.127.927,4.968,4.968,0,0,1-.348.911,4.063,4.063,0,0,1-.519.767,2.605,2.605,0,0,1-.64.552,1.281,1.281,0,0,1-.635.2.773.773,0,0,1-.519-.166,1.1,1.1,0,0,1-.353-.491,2.175,2.175,0,0,1-.121-.8Z" transform="translate(-41.524 -65.849)"/></g><g transform="translate(221.149)"><path class="t" d="M453.126,71.133,430.19,57.885a2.832,2.832,0,0,0-2.594,0l-.287.171A2.871,2.871,0,0,0,426,60.275V72.513a2,2,0,0,0,1.176,2.158l23.063,13.364a2.876,2.876,0,0,0,2.594,0l.282-.171a2.865,2.865,0,0,0,1.3-2.247V73.38A2.865,2.865,0,0,0,453.126,71.133Z" transform="translate(-426 -57.558)"/><path class="t" d="M428.383,93.151a4.364,4.364,0,0,0,2.479-3.511l3.594,2.109a6.343,6.343,0,0,1-5.995,2.02.331.331,0,0,1-.077-.618Z" transform="translate(-426.987 -71.924)"/><path class="b" d="M426.1,59.895c.155-.552.651-.729,1.253-.381l22.942,13.248a2.545,2.545,0,0,1,.911.972l2.876-1.656a2.544,2.544,0,0,0-.911-.972L430.235,57.858a2.865,2.865,0,0,0-2.594,0l-.287.171a2.848,2.848,0,0,0-1.253,1.866Z" transform="translate(-426.045 -57.547)"/><path class="ae" d="M426.1,59.895c.155-.552.651-.729,1.253-.381l22.942,13.248a2.545,2.545,0,0,1,.911.972l2.876-1.656a2.544,2.544,0,0,0-.911-.972L430.235,57.858a2.865,2.865,0,0,0-2.594,0l-.287.171a2.848,2.848,0,0,0-1.253,1.866Z" transform="translate(-426.045 -57.547)"/><path class="b" d="M474.282,97.418a2.865,2.865,0,0,1-1.3,2.247l-.282.171a2.887,2.887,0,0,1-2.374.1c.607.232,1.076-.116,1.076-.856V86.847a2.7,2.7,0,0,0-.381-1.281L473.9,83.91a2.638,2.638,0,0,1,.381,1.281Z" transform="translate(-445.859 -69.357)"/><path class="af" d="M474.282,97.418a2.865,2.865,0,0,1-1.3,2.247l-.282.171a2.887,2.887,0,0,1-2.374.1c.607.232,1.076-.116,1.076-.856V86.847a2.7,2.7,0,0,0-.381-1.281L473.9,83.91a2.638,2.638,0,0,1,.381,1.281Z" transform="translate(-445.859 -69.357)"/><path class="b" d="M426.742,61.2a.762.762,0,0,1,.37.121l22.947,13.248a2.468,2.468,0,0,1,1.087,1.921V88.728c0,.193-.039.519-.309.519a.552.552,0,0,1-.149,0h-.05a1.243,1.243,0,0,1-.171-.088l-10.1-5.89-4.333-2.49-2.931-1.7-.254-.149-.21.193a5.912,5.912,0,0,1-3.919,1.441,6.073,6.073,0,0,1-.905-.066,5.167,5.167,0,0,0,2.335-2.76l.1-.315-.287-.166-2.539-1.474a1.616,1.616,0,0,1-.977-1.8V61.717a1.43,1.43,0,0,1,.028-.259h0c.072-.259.221-.259.276-.259m0-.408h0a.685.685,0,0,0-.673.552,2.5,2.5,0,0,1,.066-.276,2.064,2.064,0,0,0-.11.646V73.956a1.988,1.988,0,0,0,1.181,2.153l2.539,1.474a4.753,4.753,0,0,1-2.341,2.644.331.331,0,0,0,.077.618,6.227,6.227,0,0,0,1.22.116,6.3,6.3,0,0,0,4.19-1.546l2.931,1.7,4.322,2.512,10.113,5.857.221.11.088.028a.933.933,0,0,0,.265.039c.431,0,.723-.337.723-.927V76.489a2.644,2.644,0,0,0-.386-1.281,2.567,2.567,0,0,0-.911-.966L427.322,60.994a1.176,1.176,0,0,0-.58-.177Z" transform="translate(-426.013 -59)"/><path class="b" d="M461.775,93.522a1.1,1.1,0,0,1-.348.491.845.845,0,0,1-.519.166,1.33,1.33,0,0,1-.635-.2,2.4,2.4,0,0,1-.64-.552,3.935,3.935,0,0,1-.519-.762,4.174,4.174,0,0,1-.348-.894,3.565,3.565,0,0,1-.127-.922,2.168,2.168,0,0,1,.127-.778,1.1,1.1,0,0,1,.348-.491.845.845,0,0,1,.519-.166,1.369,1.369,0,0,1,.64.2,2.468,2.468,0,0,1,.635.552,3.935,3.935,0,0,1,.519.762,4.172,4.172,0,0,1,.348.894,3.566,3.566,0,0,1,.127.922,2.169,2.169,0,0,1-.127.778Z" transform="translate(-440.622 -71.821)"/><path class="b" d="M450.225,86.856a1.07,1.07,0,0,1-.348.491.845.845,0,0,1-.519.166,1.319,1.319,0,0,1-.635-.2,2.507,2.507,0,0,1-.64-.552,3.982,3.982,0,0,1-.519-.767,4.172,4.172,0,0,1-.348-.894,3.565,3.565,0,0,1-.127-.922,2.169,2.169,0,0,1,.127-.778,1.1,1.1,0,0,1,.348-.491.806.806,0,0,1,.519-.16,1.3,1.3,0,0,1,.64.2,2.584,2.584,0,0,1,.635.552,3.935,3.935,0,0,1,.519.762,4.414,4.414,0,0,1,.348.894,3.6,3.6,0,0,1,.127.922,2.169,2.169,0,0,1-.127.778Z" transform="translate(-435.448 -68.837)"/><path class="b" d="M438.675,80.2a1.071,1.071,0,0,1-.348.491.778.778,0,0,1-.519.166,1.264,1.264,0,0,1-.635-.2,2.606,2.606,0,0,1-.64-.552,4.063,4.063,0,0,1-.519-.745,4.244,4.244,0,0,1-.348-.889,3.637,3.637,0,0,1-.127-.927,2.136,2.136,0,0,1,.127-.773,1.071,1.071,0,0,1,.348-.491.789.789,0,0,1,.519-.166,1.281,1.281,0,0,1,.64.2,2.583,2.583,0,0,1,.635.552,3.82,3.82,0,0,1,.519.767,4.246,4.246,0,0,1,.348.889,3.4,3.4,0,0,1,.127.922A2.052,2.052,0,0,1,438.675,80.2Z" transform="translate(-430.273 -65.867)"/></g></g></g></g></svg>