<svg xmlns="http://www.w3.org/2000/svg" width="84.89" height="98.998" viewBox="0 0 84.89 98.998"><g transform="translate(2031.221 -1773.156)"><path d="M-2031.219,1817.758q0-20.529,0-41.057c0-2.7.831-3.544,3.495-3.544q34.069,0,68.138,0c2.633,0,3.458.825,3.459,3.446,0,1.747.066,3.5-.026,5.24-.05.961.283,1.125,1.15,1.094,1.853-.068,3.712-.033,5.568-.017,2.1.018,3.1,1,3.1,3.073q.008,41.549,0,83.1c0,2.056-1.034,3.062-3.108,3.063q-34.451.005-68.9,0c-2.064,0-3.073-1.018-3.082-3.08-.008-1.966-.032-3.932.015-5.9.016-.684-.184-.856-.853-.839-1.928.047-3.858.02-5.787.015-2.2-.005-3.162-.971-3.165-3.208q-.009-6.716,0-13.431Zm72.474-20.338c-2.062-.527-2.624-1.243-2.625-3.362,0-4.876-.026-9.754.023-14.63.009-.891-.272-1.048-1.088-1.047q-16.922.038-33.845,0c-.932,0-1.116.277-1.113,1.159.033,9.789.022,19.579.019,29.368,0,1.686-.544,2.593-1.786,3.02-1.185.407-2.18.023-3.2-1.244-2.115-2.64-4.262-5.256-6.319-7.941-.623-.813-.88-.691-1.442.033-2.119,2.729-4.293,5.416-6.472,8.1a2.594,2.594,0,0,1-3.826.632,2.955,2.955,0,0,1-1.024-2.521q.021-13.593,0-27.185c0-1.114.488-2.6-.219-3.234-.615-.548-2.084-.077-3.162-.183-1-.1-1.179.273-1.178,1.207q.04,38.158,0,76.315c0,1.028.294,1.23,1.26,1.229q31.115-.041,62.231.005c.991,0,1.164-.269,1.162-1.2q-.048-20.525-.021-41.051c0-2.023.629-2.8,2.619-3.254,2,.455,2.621,1.221,2.621,3.252q0,22,0,44c0,2.636-.819,3.459-3.442,3.459h-55.14a6.122,6.122,0,0,1-.763-.005c-.6-.075-.746.211-.722.757a15.808,15.808,0,0,1-.008,2.4c-.119,1.088.183,1.442,1.369,1.439q30.955-.063,61.91-.007c1.054,0,1.384-.186,1.382-1.334q-.06-38.052-.031-76.1a6.126,6.126,0,0,1,0-.655c.057-.529-.184-.708-.692-.7-1.019.021-2.041.051-3.057-.01-.723-.043-.837.264-.822.893.038,1.673.014,3.348.012,5.022C-1956.13,1796.179-1956.675,1796.879-1958.745,1797.42Zm-43.985,4.388a2.35,2.35,0,0,0,.107-.383c0-7.422-.008-14.844.024-22.266,0-.8-.394-.764-.941-.763-3.893.01-7.786.035-11.678-.018-.877-.012-.986.3-.983,1.06.026,7.167.013,14.334.024,21.5,0,.253-.165.574.157.776a1.433,1.433,0,0,0,.172-.155c1.366-1.7,2.724-3.409,4.094-5.108,1.494-1.853,3.212-1.865,4.707-.024C-2005.63,1798.175-2004.231,1799.935-2002.729,1801.808Z" fill="#020201"/><path d="M-1946.089,1824.1c-1.99.458-2.619,1.231-2.619,3.254q0,20.525.021,41.051c0,.926-.171,1.2-1.162,1.195q-31.115-.052-62.231-.005c-.967,0-1.262-.2-1.26-1.229q.048-38.157,0-76.315c0-.934.179-1.306,1.178-1.208,1.079.107,2.547-.365,3.162.183.706.63.216,2.121.218,3.235q.025,13.593,0,27.185a2.953,2.953,0,0,0,1.024,2.521,2.594,2.594,0,0,0,3.826-.632c2.179-2.682,4.352-5.37,6.472-8.1.562-.724.818-.846,1.441-.033,2.057,2.685,4.2,5.3,6.319,7.94,1.016,1.268,2.01,1.651,3.2,1.244,1.242-.426,1.786-1.334,1.786-3.019,0-9.789.013-19.579-.019-29.368,0-.882.182-1.162,1.113-1.159q16.922.05,33.845,0c.817,0,1.1.155,1.088,1.047-.049,4.876-.024,9.753-.023,14.63,0,2.119.563,2.835,2.625,3.362l-.014,1.45c-1.831.3-2.595,1.168-2.609,2.987-.009,1.2,0,2.394,0,3.591,0,2.107.561,2.818,2.622,3.353Q-1946.088,1822.678-1946.089,1824.1Zm-21.883,10.446c-4.295,0-8.589-.018-12.884.009a2.612,2.612,0,0,0-2.775,2.6,2.689,2.689,0,0,0,2.779,2.628c.218.01.437,0,.655,0q12.229,0,24.458,0a5.11,5.11,0,0,0,1.621-.161,2.583,2.583,0,0,0,1.787-2.585,2.576,2.576,0,0,0-1.892-2.4,6.39,6.39,0,0,0-1.411-.1Q-1961.8,1834.533-1967.971,1834.541Zm.029,19.766c4.258,0,8.516.016,12.775-.007a2.61,2.61,0,0,0,2.733-3.381c-.349-1.185-1.406-1.852-3.006-1.854q-9.826-.01-19.653,0c-1.856,0-3.712,0-5.568,0a2.727,2.727,0,0,0-2.638,1.413,2.58,2.58,0,0,0,2.474,3.821C-1976.532,1854.33-1972.237,1854.308-1967.942,1854.308Zm.014-29.1c4.258,0,8.517.01,12.776,0a2.6,2.6,0,0,0,2.823-2.653,2.606,2.606,0,0,0-2.793-2.579c-1.383-.021-2.766,0-4.149,0q-10.646,0-21.292-.007a2.784,2.784,0,0,0-2.738,1.42,2.6,2.6,0,0,0,2.489,3.823C-1976.518,1825.229-1972.223,1825.211-1967.929,1825.211Z" transform="translate(-12.661 -12.459)" fill="#fddab1"/><path d="M-1922.388,1835.2l.014-1.45c2.07-.542,2.614-1.242,2.617-3.371,0-1.674.025-3.349-.013-5.022-.014-.629.1-.936.823-.892,1.016.06,2.038.031,3.057.01.508-.01.749.169.692.7a6.067,6.067,0,0,0,0,.655q0,38.052.031,76.1c0,1.149-.328,1.336-1.382,1.335q-30.955-.048-61.909.006c-1.187,0-1.488-.351-1.37-1.439a15.727,15.727,0,0,0,.007-2.4c-.024-.546.122-.832.722-.757a6.126,6.126,0,0,0,.764.005h55.14c2.624,0,3.442-.824,3.443-3.459q0-22,0-44c0-2.031-.623-2.8-2.621-3.252q0-1.417,0-2.835c2.068-.541,2.616-1.245,2.619-3.364,0-1.162,0-2.324,0-3.487C-1919.767,1836.347-1920.491,1835.5-1922.388,1835.2Z" transform="translate(-36.371 -36.327)" fill="#ff8900"/><path d="M-1966.338,1814.477c-1.5-1.873-2.9-3.634-4.317-5.379-1.495-1.841-3.213-1.828-4.707.024-1.37,1.7-2.729,3.406-4.094,5.108a1.4,1.4,0,0,1-.172.155c-.322-.2-.157-.523-.157-.776-.011-7.167,0-14.335-.024-21.5,0-.758.107-1.072.983-1.06,3.892.054,7.786.028,11.678.018.547,0,.944-.034.941.763-.032,7.422-.02,14.844-.024,22.266A2.342,2.342,0,0,1-1966.338,1814.477Z" transform="translate(-36.391 -12.669)" fill="#a9f73f"/><path d="M-1895.9,1940.751q6.169,0,12.338,0a6.377,6.377,0,0,1,1.411.1,2.576,2.576,0,0,1,1.892,2.4,2.583,2.583,0,0,1-1.787,2.585,5.108,5.108,0,0,1-1.621.162q-12.229,0-24.458,0c-.218,0-.437.007-.655,0a2.689,2.689,0,0,1-2.779-2.628,2.613,2.613,0,0,1,2.775-2.6C-1904.491,1940.735-1900.2,1940.753-1895.9,1940.751Z" transform="translate(-84.731 -118.67)" fill="#040302"/><path d="M-1895.882,1995.757c-4.295,0-8.589.022-12.884-.009a2.58,2.58,0,0,1-2.474-3.821,2.727,2.727,0,0,1,2.638-1.413c1.856,0,3.712,0,5.568,0q9.827,0,19.653,0c1.6,0,2.656.669,3.006,1.854a2.61,2.61,0,0,1-2.733,3.381C-1887.366,1995.773-1891.624,1995.757-1895.882,1995.757Z" transform="translate(-84.721 -153.909)" fill="#040302"/><path d="M-1895.86,1896.069c-4.295,0-8.59.018-12.885-.007a2.6,2.6,0,0,1-2.489-3.823,2.784,2.784,0,0,1,2.738-1.419q10.646.022,21.292.007c1.383,0,2.766-.016,4.149,0a2.606,2.606,0,0,1,2.793,2.579,2.6,2.6,0,0,1-2.823,2.653C-1887.343,1896.079-1891.6,1896.069-1895.86,1896.069Z" transform="translate(-84.729 -83.317)" fill="#020201"/><path d="M-1789.325,1861.25c1.9.3,2.621,1.149,2.63,3.08.006,1.162,0,2.325,0,3.487,0,2.119-.552,2.822-2.619,3.363-2.062-.535-2.619-1.246-2.622-3.353,0-1.2-.007-2.394,0-3.591C-1791.92,1862.418-1791.156,1861.55-1789.325,1861.25Z" transform="translate(-169.434 -62.379)" fill="#020201"/></g></svg>