<svg xmlns="http://www.w3.org/2000/svg" xmlns:xlink="http://www.w3.org/1999/xlink" width="535" height="444.621" viewBox="0 0 535 444.621"><defs><filter id="a" x="0" y="143.621" width="535" height="301" filterUnits="userSpaceOnUse"><feOffset input="SourceAlpha"/><feGaussianBlur stdDeviation="5" result="b"/><feFlood flood-opacity="0.161"/><feComposite operator="in" in2="b"/><feComposite in="SourceGraphic"/></filter></defs><g transform="translate(-165 -1772.379)"><g transform="translate(-735 -283)"><g transform="matrix(1, 0, 0, 1, 900, 2055.38)" filter="url(#a)"><path d="M80,0H505a0,0,0,0,1,0,0V191a80,80,0,0,1-80,80H0a0,0,0,0,1,0,0V80A80,80,0,0,1,80,0Z" transform="translate(15 158.62)" fill="#74ddf7" opacity="0.251"/></g></g><g transform="translate(162.618 1729.728)"><g transform="translate(65.356 329.145)"><path d="M64.662,389.851l15.567,8.928a5.766,5.766,0,0,0,5.252,0l122.747-70.9c1.439-.83,1.439-2.174,0-2.994l-15.756-8.855a5.819,5.819,0,0,0-5.252,0L64.662,386.847C63.223,387.676,63.223,389.021,64.662,389.851Z" transform="translate(-63.583 -315.404)" fill="#e0e0e0"/><path d="M441.027,389.851l-15.567,8.928a5.788,5.788,0,0,1-5.252,0l-122.747-70.9c-1.439-.83-1.428-2.174,0-2.994l15.756-8.855a5.819,5.819,0,0,1,5.252,0l122.558,70.8C442.467,387.676,442.467,389.021,441.027,389.851Z" transform="translate(-51.854 -315.404)" fill="#e0e0e0"/></g><g transform="translate(28.382 75.811)"><g transform="translate(0 0)"><path d="M57.829,182.007a11.9,11.9,0,0,1-5.4,3.5l-.221.053h-.168l-.368.063h-.693a.252.252,0,0,1-.126,0,4.2,4.2,0,0,1-3.907-2.615,7.2,7.2,0,0,1-.567-2.174c.326-.147.651-.326.987-.515a18.392,18.392,0,0,0,8.319-14.422v-1.124a6.5,6.5,0,0,1,2.941-.63h.326a.41.41,0,0,1,.158,0,4.2,4.2,0,0,1,3.267,2.573C64.089,170.737,62.073,177.533,57.829,182.007Z" transform="translate(-27.475 -69.691)" fill="#90caf9"/><path d="M73.722,170.062h0a.641.641,0,0,0-.263-.063l-3.55-.2a.578.578,0,0,1-.6-.578c.053-.567.074-1.124.084-1.66a16.027,16.027,0,0,0-.084-1.765,1.712,1.712,0,0,1,.4-1.05l3.96-4.811a1.05,1.05,0,0,0,.242-.987l-1.88-4.2a.273.273,0,0,0-.116-.126h0a.546.546,0,0,0-.609.189l-4.2,3.865a.746.746,0,0,1-.924.158,6.807,6.807,0,0,0-1.807-1.05.672.672,0,0,1-.431-.735l1.3-5.935a.378.378,0,0,0-.179-.42.725.725,0,0,0-.389-.063l-4.2.41a1.176,1.176,0,0,0-.9.63L57.325,157.7a1.922,1.922,0,0,1-.9.872,17.553,17.553,0,0,0-2.584,1.492c-.357.231-.746.252-.893,0l-2.1-3.246c-.147-.231-.494-.179-.767.105l-4.548,4.811a1.218,1.218,0,0,0-.357,1l1.271,4.286a1.523,1.523,0,0,1-.231,1.05,35.876,35.876,0,0,0-2.1,3.624,1.681,1.681,0,0,1-.987.746l-3.9.935a1.271,1.271,0,0,0-.882.735l-1.964,6.6a.462.462,0,0,0,.483.588l3.561.21a.567.567,0,0,1,.6.578,19.642,19.642,0,0,0,0,3.424,1.681,1.681,0,0,1-.378,1.05l-3.97,4.811a1.05,1.05,0,0,0-.242.987l1.88,4.2a.378.378,0,0,0,.116.137h0a.241.241,0,0,0,.147,0h0a.7.7,0,0,0,.462-.221l4.2-3.876a.746.746,0,0,1,.924-.147,6.659,6.659,0,0,0,1.807,1.05.672.672,0,0,1,.431.746l-1.313,5.935a.378.378,0,0,0,.179.4h0a.63.63,0,0,0,.389.074l4.2-.41a1.176,1.176,0,0,0,.9-.63l2.248-6.029a1.985,1.985,0,0,1,.9-.882A13.343,13.343,0,0,0,55.235,192c.41-.242.83-.5,1.25-.788s.735-.252.882,0l2.1,3.235a.294.294,0,0,0,.105.095c.168.116.441,0,.662-.2l4.548-4.8a1.176,1.176,0,0,0,.347-1.05l-1.26-4.3a1.428,1.428,0,0,1,.231-1.05,33.119,33.119,0,0,0,2.1-3.634,1.649,1.649,0,0,1,1.05-.735l3.886-.935a1.271,1.271,0,0,0,.882-.735l1.964-6.6a.452.452,0,0,0-.263-.452ZM52.945,186.186l-.231.053h-.168l-.368.063h-.819a4.2,4.2,0,0,1-3.907-2.626,7.122,7.122,0,0,1-.567-2.174,11.333,11.333,0,0,1-.063-1.208,18.571,18.571,0,0,1,5.136-11.785,14.327,14.327,0,0,1,3.151-2.542,9.915,9.915,0,0,1,1.05-.536,6.628,6.628,0,0,1,2.941-.62h.494a4.2,4.2,0,0,1,3.256,2.573c1.754,3.886-.263,10.672-4.506,15.157a11.838,11.838,0,0,1-5.4,3.645Z" transform="translate(-27.98 -70.371)" fill="#f5f5f5"/><line x2="8.382" y2="4.853" transform="translate(35.533 79.419)" fill="none"/><path d="M56.785,157.622a2.1,2.1,0,0,1-.893.84,17.015,17.015,0,0,0-2.552,1.492c-.357.231-.746.252-.893,0l-2.1-3.235a.231.231,0,0,0-.105-.095h0l-3.981-2.3a13.332,13.332,0,0,1,1.323-.693l.147-.084a2.309,2.309,0,0,0,.431-.347l.158-.168a.441.441,0,0,0,.084-.126l.063-.116Z" transform="translate(-27.481 -70.262)" fill="#ebebeb"/><path d="M46.525,166.61h0a1.618,1.618,0,0,1-.252.9,36.842,36.842,0,0,0-2.1,3.624,1.166,1.166,0,0,1-.2.284l-8.4-4.842a.661.661,0,0,0,.116-.137.64.64,0,0,0,.105-.147,33.117,33.117,0,0,1,2.1-3.634,1.05,1.05,0,0,0,.105-.189v-.126a.2.2,0,0,0,0-.074h0a1.429,1.429,0,0,0,0-.179.819.819,0,0,0,0-.273Z" transform="translate(-28.02 -69.807)" fill="#ebebeb"/><line x1="0.095" y1="0.053" transform="translate(35.533 79.419)" fill="none"/><path d="M46.674,154.363l-4.349-2.521a.368.368,0,0,0-.189-.053.662.662,0,0,0-.473.252h0l-2.72,2.878-1.828,1.922a1.481,1.481,0,0,0-.326.567l6.4,3.676,1.985,1.134a1.491,1.491,0,0,1,.315-.525l.063-.063,4.485-4.748a.62.62,0,0,1,.63-.221Z" transform="translate(-27.958 -70.313)" fill="#f5f5f5"/><path d="M64.234,150.915a.557.557,0,0,0-.357-.053l-4.2.41a1.208,1.208,0,0,0-.683.315l-8.4-4.832a1.155,1.155,0,0,1,.683-.326l4.2-.41a.63.63,0,0,1,.41.074l1.113.651.557.315,3.55,2.1.872.5.641.368Z" transform="translate(-27.263 -70.604)" fill="#f5f5f5"/><path d="M44.182,171.232a1.849,1.849,0,0,1-.777.462l-3.9.935a1.344,1.344,0,0,0-.725.452l-8.4-4.821a1.429,1.429,0,0,1,.746-.483l3.9-.935a1.523,1.523,0,0,0,.756-.452h0Z" transform="translate(-28.281 -69.577)" fill="#e6e6e6"/><path d="M41.32,184.522a2.016,2.016,0,0,1-.3.578l-3.97,4.811a1.418,1.418,0,0,0-.252.483l-8.4-4.842a1.166,1.166,0,0,1,.252-.494l3.97-4.811a1.89,1.89,0,0,0,.3-.557Z" transform="translate(-28.381 -68.907)" fill="#e6e6e6"/><path d="M30.486,176.249l.116.074-.147-.095-.294-.168Z" transform="translate(-28.292 -69.09)" fill="#e0e0e0"/><path d="M57.829,182.007a11.9,11.9,0,0,1-5.4,3.5l-.221.053h-.168l-.368.063h-.693a.252.252,0,0,1-.126,0,4.2,4.2,0,0,1-3.907-2.615,7.2,7.2,0,0,1-.567-2.174c.326-.147.651-.326.987-.515a18.392,18.392,0,0,0,8.319-14.422v-1.124a6.5,6.5,0,0,1,2.941-.63h.326a.41.41,0,0,1,.158,0,4.2,4.2,0,0,1,3.267,2.573C64.089,170.737,62.073,177.533,57.829,182.007Z" transform="translate(-27.475 -69.691)" fill="#e0e0e0"/><path d="M46.465,166.846l-8.4-4.832a.41.41,0,0,0,0-.158l-1.271-4.286a.777.777,0,0,1,0-.431l6.4,3.676,1.985,1.134a.851.851,0,0,0,0,.473l1.271,4.286A.536.536,0,0,1,46.465,166.846Z" transform="translate(-27.96 -70.043)" fill="#e0e0e0"/><path d="M59.161,151.552a.9.9,0,0,0-.221.315L56.693,157.9h0l-8.4-4.842h0l2.279-6.04a.693.693,0,0,1,.221-.3Z" transform="translate(-27.379 -70.569)" fill="#e0e0e0"/><path d="M70.544,154.652a.588.588,0,0,0-.578.2l-4.2,3.876a.767.767,0,0,1-.935.158,6.807,6.807,0,0,0-1.807-1.05.672.672,0,0,1-.431-.735l1.3-5.935a.368.368,0,0,0-.179-.42h0l-1.586-.924a.336.336,0,0,1,.147,0l.095.063Z" transform="translate(-26.681 -70.412)" fill="#e0e0e0"/><path d="M72.122,169.24a.641.641,0,0,0-.263-.063l-3.55-.2a.578.578,0,0,1-.6-.578c.053-.567.084-1.124.084-1.67Z" transform="translate(-26.4 -69.56)" fill="#e0e0e0"/><path d="M35.656,166.22a.661.661,0,0,1-.116.137h0A.746.746,0,0,0,35.656,166.22Z" transform="translate(-28.021 -69.586)" fill="#e0e0e0"/><path d="M30.491,168.13a.987.987,0,0,0-.137.252l-.242.819-1.281,4.307-.431,1.471a.389.389,0,0,0,0,.242.525.525,0,0,0,.053.137.987.987,0,0,0,.105.105h.063l.662.389.179.095h0l.525.294.273.168.326.189.116.074.347.189,1.891,1.05h0l3.991,2.311a.431.431,0,0,1-.179-.494l1.733-5.683.242-.819a.914.914,0,0,1,.158-.273Z" transform="translate(-28.382 -69.489)" fill="#e0e0e0"/><path d="M58.679,192.621h0l-4.359-2.573c.41-.242.83-.5,1.25-.788s.735-.252.882,0l2.1,3.246a.294.294,0,0,0,.126.116Z" transform="translate(-27.075 -68.435)" fill="#e0e0e0"/><path d="M46.377,192.24l-1.313,5.945a.378.378,0,0,0,.179.4L38.52,194.7a.767.767,0,0,0,.462-.221l4.2-3.865a.756.756,0,0,1,.924-.168,6.428,6.428,0,0,0,1.807,1.05.662.662,0,0,1,.462.746Z" transform="translate(-27.871 -68.37)" fill="#e0e0e0"/><path d="M41.177,184.157a1.05,1.05,0,0,1-.074.473L32.7,179.8a1.26,1.26,0,0,0,.074-.483c0-.578-.074-1.166-.074-1.775l3.991,2.311h0a.63.63,0,0,0,.284.074l3.561.2a.578.578,0,0,1,.6.588,19.642,19.642,0,0,0,.042,3.445Z" transform="translate(-28.164 -69.015)" fill="#e0e0e0"/><path d="M38.787,194.9l-1.7-.987-.326-.179-2.741-1.6-.746-.42-2.815-1.639h0a.158.158,0,0,1-.063-.053.189.189,0,0,1-.053-.084l-1.891-4.2a.546.546,0,0,1,0-.347s0-.095,0-.147l8.4,4.842a.714.714,0,0,0,0,.494l1.88,4.2A.325.325,0,0,0,38.787,194.9Z" transform="translate(-28.38 -68.627)" fill="#e0e0e0"/><path d="M107.3,105.861a.893.893,0,0,0-.357-.095l-4.884-.273a.788.788,0,0,1-.819-.8c.063-.767.105-1.534.116-2.279A22.9,22.9,0,0,0,101.22,100a2.384,2.384,0,0,1,.536-1.439l5.451-6.6a1.5,1.5,0,0,0,.336-1.366l-2.594-5.725a.326.326,0,0,0-.158-.179h0a.8.8,0,0,0-.83.263l-5.83,5.315a1.05,1.05,0,0,1-1.271.21,8.95,8.95,0,0,0-2.489-1.439.945.945,0,0,1-.588-1.05l1.8-8.151a.494.494,0,0,0-.242-.578.9.9,0,0,0-.546-.095l-5.693.567a1.565,1.565,0,0,0-1.239.872l-3.12,8.256a2.668,2.668,0,0,1-1.25,1.2,24.958,24.958,0,0,0-3.519,2.048c-.483.315-1.05.336-1.229,0l-2.91-4.443c-.21-.315-.672-.252-1.05.137l-6.25,6.628a1.618,1.618,0,0,0-.483,1.366l1.733,5.9a1.985,1.985,0,0,1-.315,1.418,47.5,47.5,0,0,0-2.878,4.989,2.269,2.269,0,0,1-1.355,1.05l-5.346,1.281a1.817,1.817,0,0,0-1.218,1.05L56,120.482a.651.651,0,0,0,.662.819l4.895.273a.8.8,0,0,1,.819.8,26.091,26.091,0,0,0,0,4.706,2.279,2.279,0,0,1-.525,1.439L56.4,135.124a1.449,1.449,0,0,0-.336,1.355l2.594,5.725a.294.294,0,0,0,.158.179h0a.336.336,0,0,0,.2,0h0a.977.977,0,0,0,.63-.294l5.809-5.262a1.05,1.05,0,0,1,1.271-.21,9.579,9.579,0,0,0,2.489,1.45.914.914,0,0,1,.588,1.05l-1.786,8.151a.494.494,0,0,0,.231.557h0a.861.861,0,0,0,.536.095l5.693-.557a1.628,1.628,0,0,0,1.25-.872l3.088-8.277A2.71,2.71,0,0,1,80.055,137c.6-.284,1.208-.6,1.817-.956s1.134-.693,1.712-1.05,1.05-.347,1.218,0l2.92,4.454a.315.315,0,0,0,.137.126c.242.147.6.053.9-.273l6.3-6.607a1.639,1.639,0,0,0,.483-1.366l-1.733-5.977a1.975,1.975,0,0,1,.326-1.418,47.536,47.536,0,0,0,2.826-5.031,2.237,2.237,0,0,1,1.365-1.05l5.346-1.292a1.733,1.733,0,0,0,1.208-1.05l2.7-9.054a.588.588,0,0,0-.284-.6ZM78.752,128l-.315.074a.841.841,0,0,1-.221,0l-.5.084-.588.063h-.536a5.725,5.725,0,0,1-5.367-3.6,10.041,10.041,0,0,1-.788-2.994,12.121,12.121,0,0,1-.084-1.649c0-5.168,2.689-11.554,7.059-16.186a19.862,19.862,0,0,1,4.317-3.5,12.437,12.437,0,0,1,1.439-.735A9.054,9.054,0,0,1,87.2,98.7h.683a5.7,5.7,0,0,1,4.475,3.54c2.416,5.336-.357,14.705-6.187,20.819A16.27,16.27,0,0,1,78.752,128Z" transform="translate(-26.991 -73.972)" fill="#f5f5f5"/><line x2="11.512" y2="6.67" transform="translate(66.288 4.022)" fill="none"/><path d="M83.911,88.687a2.689,2.689,0,0,1-1.229,1.155,25.912,25.912,0,0,0-3.519,2.038c-.483.326-1.05.357-1.229,0l-2.9-4.443a.326.326,0,0,0-.158-.137h0L72,85.62c.609-.347,1.208-.672,1.807-.945l.21-.116a2.9,2.9,0,0,0,.588-.473,1.586,1.586,0,0,0,.221-.242.757.757,0,0,0,.116-.158l.084-.158Z" transform="translate(-26.184 -73.752)" fill="#ebebeb"/><path d="M69.747,101.036h0a2.174,2.174,0,0,1-.347,1.229,49.366,49.366,0,0,0-2.878,4.989,1.544,1.544,0,0,1-.284.378L57.3,102.475a.945.945,0,0,0,.168-.189,1.7,1.7,0,0,0,.137-.2,44.118,44.118,0,0,1,2.868-5.031.966.966,0,0,0,.137-.252.5.5,0,0,0,.074-.189.262.262,0,0,0,0-.095h0v-.242a.945.945,0,0,0,0-.378Z" transform="translate(-26.925 -73.128)" fill="#ebebeb"/><line x1="0.137" y1="0.074" transform="translate(66.288 4.022)" fill="none"/><path d="M72.652,85.689l-5.977-3.456a.5.5,0,0,0-.252-.074.956.956,0,0,0-.672.347h0l-3.739,3.949L59.5,89.1a2.027,2.027,0,0,0-.441.788l6.208,3.55L68,95.006a1.9,1.9,0,0,1,.431-.725l.084-.084,6.166-6.523a.84.84,0,0,1,.861-.3Z" transform="translate(-26.836 -73.821)" fill="#f5f5f5"/><path d="M94.151,79.472a.914.914,0,0,0-.494-.074l-5.7.567a1.744,1.744,0,0,0-.935.431L78.08,75.239a1.712,1.712,0,0,1,.945-.441l5.7-.567a.851.851,0,0,1,.557.105l1.534.893.756.441L89.876,77l1.208.7c.3.158.6.336.872.494Z" transform="translate(-25.878 -74.221)" fill="#f5f5f5"/><path d="M66.594,107.327a2.29,2.29,0,0,1-1.05.63l-5.357,1.292a1.828,1.828,0,0,0-.977.63l-8.96-5.147a1.922,1.922,0,0,1,1.05-.662l5.346-1.281a2.3,2.3,0,0,0,1.05-.62h0Z" transform="translate(-27.28 -72.812)" fill="#e6e6e6"/><path d="M62.666,125.647a2.4,2.4,0,0,1-.431.788l-5.441,6.607a1.828,1.828,0,0,0-.347.662l-8.928-5.157a1.691,1.691,0,0,1,.336-.672l5.462-6.607a2.4,2.4,0,0,0,.41-.777Z" transform="translate(-27.417 -71.889)" fill="#e6e6e6"/><path d="M50.351,115.762l.168.105-.21-.126-.4-.231Z" transform="translate(-27.297 -72.14)" fill="#e0e0e0"/><path d="M85.462,122.265a16.3,16.3,0,0,1-7.353,4.8l-.315.074a.841.841,0,0,1-.221,0l-.5.084a5.593,5.593,0,0,1-.588.063h-.546a5.7,5.7,0,0,1-5.357-3.6,9.958,9.958,0,0,1-.788-2.994c.441-.2.893-.441,1.355-.693,6.3-3.655,11.439-12.521,11.439-19.821a12.485,12.485,0,0,0-.063-1.555,9.033,9.033,0,0,1,4.033-.851h.452a.8.8,0,0,1,.221,0,5.725,5.725,0,0,1,4.485,3.529C94.075,106.772,91.3,116.11,85.462,122.265Z" transform="translate(-26.296 -73.035)" fill="#e0e0e0"/><path d="M69.663,101.358l-8.939-5.147a.694.694,0,0,0,0-.21L59,90.108a1.05,1.05,0,0,1,0-.588l6.208,3.55,2.731,1.565a1.208,1.208,0,0,0-.063.651l1.744,5.882a.546.546,0,0,1,.042.189Z" transform="translate(-26.841 -73.45)" fill="#e0e0e0"/><path d="M87.181,80.349a1.2,1.2,0,0,0-.3.441l-3.088,8.277h0L74.85,83.91v-.063l3.088-8.277a1.05,1.05,0,0,1,.294-.42Z" transform="translate(-26.041 -74.174)" fill="#e0e0e0"/><path d="M102.949,84.681a.819.819,0,0,0-.809.284l-5.809,5.315a1.05,1.05,0,0,1-1.281.21,8.95,8.95,0,0,0-2.489-1.439A.945.945,0,0,1,91.973,88l1.8-8.14a.5.5,0,0,0-.252-.578h0L91.29,78a.546.546,0,0,1,.221,0l.126.074Z" transform="translate(-25.212 -74.031)" fill="#e0e0e0"/><path d="M105.111,104.725a.746.746,0,0,0-.357-.084l-4.884-.273a.8.8,0,0,1-.819-.809c.063-.767.105-1.534.105-2.279Z" transform="translate(-24.821 -72.857)" fill="#e0e0e0"/><path d="M57.468,102a.945.945,0,0,1-.168.189h0Z" transform="translate(-26.925 -72.821)" fill="#e0e0e0"/><path d="M50.369,104.61a1.1,1.1,0,0,0-.242.41l-.284,1.05-1.754,5.914-.6,2.027a.494.494,0,0,0,0,.326.378.378,0,0,0,.074.179.6.6,0,0,0,.137.147.326.326,0,0,0,.095.063l.893.525.252.137h0l.714.41.389.231.441.252.168.105.473.263,2.6,1.5h0l2.91,1.681a.588.588,0,0,1-.242-.683l2.363-7.951.336-1.113a.872.872,0,0,1,.221-.378Z" transform="translate(-27.42 -72.69)" fill="#e0e0e0"/><path d="M86.637,136.83h0l-5.987-3.477c.557-.326,1.145-.693,1.712-1.05s1.05-.347,1.218,0l2.91,4.454A.526.526,0,0,0,86.637,136.83Z" transform="translate(-25.748 -71.308)" fill="#e0e0e0"/><path d="M69.668,136.324l-1.8,8.193a.494.494,0,0,0,.242.557c-.368-.2-6-3.466-9.243-5.346a1.05,1.05,0,0,0,.63-.294l5.809-5.357a1.05,1.05,0,0,1,1.271-.221,9.054,9.054,0,0,0,2.489,1.46A.914.914,0,0,1,69.668,136.324Z" transform="translate(-26.846 -71.222)" fill="#e0e0e0"/><path d="M62.434,125.144a1.555,1.555,0,0,1-.105.651l-8.939-5.157a1.659,1.659,0,0,0,.116-.662,23.107,23.107,0,0,1-.105-2.426l2.91,1.681h0a.935.935,0,0,0,.389.116l4.895.273a.8.8,0,0,1,.819.8,26.092,26.092,0,0,0,.021,4.727Z" transform="translate(-27.122 -72.038)" fill="#e0e0e0"/><path d="M59.191,139.913l-2.342-1.355-.441-.263-3.771-2.174c-.357-.21-.693-.41-1.05-.588l-1.292-.767h0a.367.367,0,0,1-.095-.074.357.357,0,0,1-.074-.116l-2.594-5.735a.777.777,0,0,1,0-.473,1.554,1.554,0,0,1,0-.2l8.928,5.157a1.05,1.05,0,0,0,0,.693l2.584,5.725a.494.494,0,0,0,.147.168Z" transform="translate(-27.419 -71.503)" fill="#e0e0e0"/></g><g transform="translate(386.02 0.055)"><path d="M411.008,110.22a11.733,11.733,0,0,0,5.388,3.5h.389l.368.063h.693a.252.252,0,0,0,.126,0,4.2,4.2,0,0,0,3.907-2.615,7.121,7.121,0,0,0,.567-2.174c-.315-.147-.651-.326-.977-.515a18.371,18.371,0,0,1-8.33-14.422c0-.4,0-.767,0-1.124a6.5,6.5,0,0,0-2.941-.63h-.483a4.2,4.2,0,0,0-3.267,2.573C404.737,98.949,406.754,105.745,411.008,110.22Z" transform="translate(-395.385 -73.364)" fill="#90caf9"/><path d="M395.9,98.795l1.964,6.6a1.271,1.271,0,0,0,.882.735l3.9.935a1.628,1.628,0,0,1,.987.735,34.906,34.906,0,0,0,2.1,3.634,1.449,1.449,0,0,1,.231,1.05l-1.26,4.286a1.176,1.176,0,0,0,.347,1.05l4.559,4.8c.221.242.483.315.651.21a.294.294,0,0,0,.105-.095l2.1-3.246c.147-.231.546-.21.893,0s.83.557,1.25.8.882.483,1.313.693a1.922,1.922,0,0,1,.9.872l2.248,6.029a1.176,1.176,0,0,0,.914.63l4.138.41a.63.63,0,0,0,.389-.074h0a.357.357,0,0,0,.168-.4l-1.313-5.935a.683.683,0,0,1,.431-.746,6.712,6.712,0,0,0,1.817-1.05.756.756,0,0,1,.924.158l4.2,3.865a.725.725,0,0,0,.462.221h0a.336.336,0,0,0,.147,0h0a.252.252,0,0,0,.116-.137l1.88-4.2a1.05,1.05,0,0,0-.242-.987l-3.96-4.811a1.638,1.638,0,0,1-.389-1.05,18.665,18.665,0,0,0,0-3.424.578.578,0,0,1,.6-.578l3.561-.2a.473.473,0,0,0,.483-.6l-1.964-6.6a1.271,1.271,0,0,0-.882-.735l-3.886-.935a1.639,1.639,0,0,1-.987-.735,35.017,35.017,0,0,0-2.1-3.634,1.491,1.491,0,0,1-.231-1.05l1.271-4.3a1.187,1.187,0,0,0-.357-1l-4.548-4.811c-.273-.284-.609-.326-.767-.095l-2.1,3.235c-.147.231-.536.21-.882,0a18.644,18.644,0,0,0-2.573-1.492,1.922,1.922,0,0,1-.9-.872l-2.248-6.029a1.155,1.155,0,0,0-.9-.63l-4.138-.41a.777.777,0,0,0-.4.063.378.378,0,0,0-.179.42l1.355,5.935a.683.683,0,0,1-.42.746,6.555,6.555,0,0,0-1.817,1.05.756.756,0,0,1-.924-.158l-4.2-3.865c-.221-.2-.452-.273-.609-.189h0a.3.3,0,0,0-.105.126l-1.891,4.2a1.05,1.05,0,0,0,.242.987l3.96,4.737a1.765,1.765,0,0,1,.389,1.05,16.165,16.165,0,0,0-.084,1.765,11.479,11.479,0,0,0,.084,1.66A.578.578,0,0,1,400,98l-3.55.2a.694.694,0,0,0-.263.063h0a.452.452,0,0,0-.284.536Zm15.6,12.1c-4.2-4.475-6.3-11.271-4.5-15.157a4.138,4.138,0,0,1,3.256-2.573h.452a6.607,6.607,0,0,1,2.931.62c.347.158.7.336,1.05.536a14.1,14.1,0,0,1,3.151,2.552,18.518,18.518,0,0,1,5.136,11.775,7.554,7.554,0,0,1-.063,1.208,7.122,7.122,0,0,1-.567,2.174,4.2,4.2,0,0,1-3.907,2.626h-.809l-.368-.063h-.158l-.231-.063A11.869,11.869,0,0,1,411.5,110.9Z" transform="translate(-395.887 -74.04)" fill="#f5f5f5"/><line x1="8.372" y2="4.853" transform="translate(2.062 3.957)" fill="none"/><path d="M411.76,85.832a1.859,1.859,0,0,0,.882.84,18.649,18.649,0,0,1,2.573,1.492c.347.231.735.252.882,0l2.1-3.235a.252.252,0,0,1,.105-.105h0l3.981-2.3c-.441-.252-.882-.494-1.313-.693a.746.746,0,0,1-.158-.084,2.309,2.309,0,0,1-.431-.347l-.158-.168a.866.866,0,0,1-.084-.126l-.063-.116Z" transform="translate(-395.087 -73.934)" fill="#ebebeb"/><path d="M422.09,94.82h0a1.513,1.513,0,0,0,.242.893,35.016,35.016,0,0,1,2.1,3.634.83.83,0,0,0,.21.273l8.4-4.842a.473.473,0,0,1-.115-.137.6.6,0,0,1-.105-.137,33.256,33.256,0,0,0-2.1-3.645.956.956,0,0,1-.095-.179.368.368,0,0,1-.052-.137s0,0,0-.074h0a1.277,1.277,0,0,1,0-.179.494.494,0,0,1,0-.273Z" transform="translate(-394.567 -73.479)" fill="#ebebeb"/><line y1="0.053" x2="0.105" transform="translate(10.339 3.957)" fill="none"/><path d="M422.021,82.572l4.349-2.521a.367.367,0,0,1,.189,0,.683.683,0,0,1,.483.252h0l2.721,2.847,1.828,1.922a1.439,1.439,0,0,1,.326.578l-6.4,3.666-1.985,1.134a1.3,1.3,0,0,0-.315-.525l-.053-.063-4.5-4.748a.609.609,0,0,0-.63-.221Z" transform="translate(-394.771 -73.982)" fill="#f5f5f5"/><path d="M404.45,79.123a.756.756,0,0,1,.357,0l4.149.41a1.177,1.177,0,0,1,.683.315l8.4-4.832a1.155,1.155,0,0,0-.693-.326l-4.149-.41a.63.63,0,0,0-.41.074l-1.113.651-.546.315-3.55,2.1-.882.515-.62.252Z" transform="translate(-395.455 -74.272)" fill="#f5f5f5"/><path d="M424.52,99.4a1.733,1.733,0,0,0,.777.462l3.9.935a1.418,1.418,0,0,1,.714.452l8.4-4.821a1.449,1.449,0,0,0-.746-.483l-3.886-.935a1.607,1.607,0,0,1-.767-.452h0Z" transform="translate(-394.444 -73.25)" fill="#e6e6e6"/><path d="M427.33,112.732a1.807,1.807,0,0,0,.315.578l3.96,4.811a1.26,1.26,0,0,1,.252.483l8.4-4.842a1.229,1.229,0,0,0-.252-.494l-3.97-4.811a1.66,1.66,0,0,1-.294-.557Z" transform="translate(-394.303 -72.578)" fill="#e6e6e6"/><path d="M437.566,104.459l-.116.074.147-.084.294-.168Z" transform="translate(-393.793 -72.761)" fill="#e0e0e0"/><path d="M411.008,110.22a11.733,11.733,0,0,0,5.388,3.5h.389l.368.063h.693a.252.252,0,0,0,.126,0,4.2,4.2,0,0,0,3.907-2.615,7.121,7.121,0,0,0,.567-2.174c-.315-.147-.651-.326-.977-.515a18.371,18.371,0,0,1-8.33-14.422c0-.4,0-.767,0-1.124a6.5,6.5,0,0,0-2.941-.63h-.483a4.2,4.2,0,0,0-3.267,2.573C404.737,98.949,406.754,105.745,411.008,110.22Z" transform="translate(-395.385 -73.364)" fill="#e0e0e0"/><path d="M422.09,95.055l8.4-4.832a.337.337,0,0,1,0-.147l1.271-4.3a.735.735,0,0,0,0-.42l-6.4,3.666-1.985,1.134a.85.85,0,0,1,0,.473l-1.26,4.286a.284.284,0,0,0-.031.137Z" transform="translate(-394.567 -73.714)" fill="#e0e0e0"/><path d="M409.39,79.762a.861.861,0,0,1,.221.315l2.248,6.029h0l8.4-4.842h0l-2.248-6.029a.756.756,0,0,0-.21-.3Z" transform="translate(-395.206 -74.239)" fill="#e0e0e0"/><path d="M397.89,82.864a.641.641,0,0,1,.588.2l4.2,3.876a.746.746,0,0,0,.924.158,6.553,6.553,0,0,1,1.817-1.05.672.672,0,0,0,.42-.746l-1.3-5.935a.378.378,0,0,1,.179-.42h0L406.409,78a.389.389,0,0,0-.158,0,.273.273,0,0,0-.095,0Z" transform="translate(-395.786 -74.085)" fill="#e0e0e0"/><path d="M396.12,97.45a.64.64,0,0,1,.263-.063l3.561-.2a.567.567,0,0,0,.588-.578c0-.567-.074-1.124-.074-1.66Z" transform="translate(-395.875 -73.231)" fill="#e0e0e0"/><path d="M432.38,94.43a.473.473,0,0,0,.116.137h0Z" transform="translate(-394.048 -73.257)" fill="#e0e0e0"/><path d="M438.044,96.34a.7.7,0,0,1,.137.263l.242.809,1.281,4.307.441,1.481a.473.473,0,0,1,0,.242.326.326,0,0,1-.052.126.452.452,0,0,1-.095.105h-.074l-.651.389-.189.095h0l-.515.3-.284.168-.326.179-.116.074-.347.189-1.891,1.05h0l-3.991,2.311a.431.431,0,0,0,.179-.5l-1.775-5.641-.242-.809a.767.767,0,0,0-.158-.284Z" transform="translate(-394.187 -73.161)" fill="#e0e0e0"/><path d="M409.56,120.829h0l4.359-2.531c-.4-.242-.83-.5-1.239-.788s-.735-.252-.882,0l-2.1,3.246a.294.294,0,0,1-.137.074Z" transform="translate(-395.198 -72.104)" fill="#e0e0e0"/><path d="M422.09,120.45l1.3,5.945a.357.357,0,0,1-.179.4c.263-.147,4.37-2.51,6.733-3.886a.725.725,0,0,1-.462-.221l-4.2-3.865a.735.735,0,0,0-.924-.158,6.712,6.712,0,0,1-1.817,1.05.662.662,0,0,0-.452.735Z" transform="translate(-394.567 -72.041)" fill="#e0e0e0"/><path d="M427.26,112.367a1.135,1.135,0,0,0,.074.473l8.4-4.832a1.229,1.229,0,0,1-.084-.483,16.3,16.3,0,0,0,.074-1.765l-3.991,2.311h0a.63.63,0,0,1-.284.074l-3.561.21a.578.578,0,0,0-.6.578,19.637,19.637,0,0,1-.031,3.435Z" transform="translate(-394.306 -72.686)" fill="#e0e0e0"/><path d="M429.74,123.11l1.7-.977.326-.189,2.752-1.586.735-.431,2.826-1.639h0a.1.1,0,0,0,.063,0l.063-.084,1.88-4.2a.609.609,0,0,0,0-.347v-.147l-8.4,4.842a.746.746,0,0,1,0,.5l-1.88,4.2a.252.252,0,0,1-.063.053Z" transform="translate(-394.181 -72.296)" fill="#e0e0e0"/><path d="M426.311,151.716l2.7,9.065a1.754,1.754,0,0,0,1.208,1.05l5.346,1.292a2.269,2.269,0,0,1,1.365,1.05,46.613,46.613,0,0,0,2.868,4.989,2.038,2.038,0,0,1,.326,1.418l-1.744,5.893a1.639,1.639,0,0,0,.483,1.366l6.25,6.607c.3.326.672.431.914.284a.42.42,0,0,0,.137-.137l2.92-4.454c.2-.315.746-.294,1.218,0s1.145.756,1.712,1.05,1.208.672,1.807.945a2.784,2.784,0,0,1,1.25,1.208l3.088,8.277a1.565,1.565,0,0,0,1.25.872l5.693.567a.945.945,0,0,0,.536-.095h0a.494.494,0,0,0,.242-.557l-1.8-8.151a.914.914,0,0,1,.588-1.05,9.3,9.3,0,0,0,2.489-1.449,1.05,1.05,0,0,1,1.271.21l5.819,5.325a1.051,1.051,0,0,0,.63.3h0a.431.431,0,0,0,.2-.053h0a.325.325,0,0,0,.158-.179l2.594-5.725a1.5,1.5,0,0,0-.336-1.355l-5.451-6.607a2.311,2.311,0,0,1-.525-1.45,26.1,26.1,0,0,0,0-4.706.8.8,0,0,1,.819-.8l4.884-.273a.641.641,0,0,0,.672-.819l-2.668-9.086a1.743,1.743,0,0,0-1.208-1l-5.346-1.292a2.279,2.279,0,0,1-1.365-1.05,47.39,47.39,0,0,0-2.868-4.989,1.985,1.985,0,0,1-.326-1.418l1.744-5.893a1.628,1.628,0,0,0-.483-1.365l-6.25-6.607c-.378-.389-.851-.462-1.05-.147l-2.92,4.454c-.2.315-.735.294-1.218,0a26.773,26.773,0,0,0-3.529-2.048,2.647,2.647,0,0,1-1.239-1.2l-3.088-8.277a1.565,1.565,0,0,0-1.239-.872l-5.7-.567a1.05,1.05,0,0,0-.536.095.525.525,0,0,0-.252.578l1.8,8.151a.924.924,0,0,1-.578,1.05,8.833,8.833,0,0,0-2.489,1.45,1.05,1.05,0,0,1-1.281-.221l-5.819-5.315a.767.767,0,0,0-.83-.252h0a.525.525,0,0,0-.158.179l-2.584,5.735a1.471,1.471,0,0,0,.326,1.355l5.451,6.6a2.279,2.279,0,0,1,.536,1.45c-.074.788-.105,1.6-.105,2.426s.052,1.5.116,2.279a.777.777,0,0,1-.819.788l-4.884.284a.745.745,0,0,0-.357.084h0A.609.609,0,0,0,426.311,151.716Zm21.428,16.628c-5.83-6.155-8.6-15.483-6.187-20.829a5.725,5.725,0,0,1,4.475-3.54h.683a9.033,9.033,0,0,1,4.033.851,14.353,14.353,0,0,1,1.439.735,19.579,19.579,0,0,1,4.307,3.5c4.38,4.622,7.038,11.018,7.069,16.186a12.249,12.249,0,0,1-.095,1.66,9.885,9.885,0,0,1-.777,2.983,5.7,5.7,0,0,1-5.367,3.6h-.536l-.588-.053-.5-.084-.231-.053-.315-.084a16.354,16.354,0,0,1-7.405-4.874Z" transform="translate(-394.355 -71.753)" fill="#f5f5f5"/><line x1="11.512" y2="6.67" transform="translate(34.761 51.382)" fill="none"/><path d="M448.09,133.828a2.668,2.668,0,0,0,1.218,1.155,25.483,25.483,0,0,1,3.529,2.048c.473.326,1.05.347,1.218,0l2.91-4.454a.451.451,0,0,1,.147-.137h.052l2.889-1.681c-.609-.357-1.218-.672-1.807-.945l-.221-.126a3.15,3.15,0,0,1-.588-.473,2.2,2.2,0,0,1-.21-.231.693.693,0,0,1-.116-.168l-.084-.158Z" transform="translate(-393.257 -71.532)" fill="#ebebeb"/><path d="M462.28,146.175h0a2.227,2.227,0,0,0,.347,1.239,50.115,50.115,0,0,1,2.878,4.979,1.377,1.377,0,0,0,.284.378l8.939-5.157a.944.944,0,0,1-.168-.189,1.054,1.054,0,0,1-.137-.189,46.5,46.5,0,0,0-2.867-5,.893.893,0,0,1-.137-.263.378.378,0,0,1-.074-.179.316.316,0,0,1,0-.105h0a.542.542,0,0,0-.052-.242.955.955,0,0,1,0-.378Z" transform="translate(-392.542 -70.907)" fill="#ebebeb"/><line y1="0.074" x2="0.137" transform="translate(46.136 51.393)" fill="none"/><path d="M459.619,130.84l5.977-3.466a.5.5,0,0,1,.252-.074.956.956,0,0,1,.662.357h0l3.739,3.949,2.51,2.647a1.985,1.985,0,0,1,.441.777l-6.218,3.561-2.72,1.565a1.953,1.953,0,0,0-.431-.725l-.084-.084-6.166-6.523a.809.809,0,0,0-.861-.3Z" transform="translate(-392.822 -71.601)" fill="#f5f5f5"/><path d="M438.05,124.612a1.05,1.05,0,0,1,.494-.074l5.693.578a1.607,1.607,0,0,1,.945.431l8.939-5.157a1.66,1.66,0,0,0-.945-.452l-5.7-.567a.9.9,0,0,0-.557.105l-1.544.893-.746.441-2.311,1.344-1.2.693c-.3.168-.6.347-.882.494Z" transform="translate(-393.763 -72.001)" fill="#f5f5f5"/><path d="M465.62,152.467a2.406,2.406,0,0,0,1.05.641l5.346,1.281a1.964,1.964,0,0,1,.987.63l8.96-5.147a1.954,1.954,0,0,0-1.05-.651l-5.346-1.292a2.3,2.3,0,0,1-1.05-.62h0Z" transform="translate(-392.374 -70.593)" fill="#e6e6e6"/><path d="M469.48,170.787a2.772,2.772,0,0,0,.431.8l5.451,6.607a1.817,1.817,0,0,1,.347.662l8.928-5.157a1.692,1.692,0,0,0-.347-.683l-5.451-6.607a2.4,2.4,0,0,1-.42-.777Z" transform="translate(-392.179 -69.67)" fill="#e6e6e6"/><path d="M481.1,160.9l-.158.105.21-.116.4-.231Z" transform="translate(-391.602 -69.92)" fill="#e0e0e0"/><path d="M447.049,167.4a16.3,16.3,0,0,0,7.416,4.811l.3.074.221.053.515.084.588.053h.368a.452.452,0,0,0,.168,0,5.7,5.7,0,0,0,5.367-3.6,9.979,9.979,0,0,0,.788-2.983c-.441-.21-.893-.441-1.355-.7-6.3-3.655-11.439-12.51-11.439-19.81a12.4,12.4,0,0,1,.063-1.555,8.959,8.959,0,0,0-4.044-.861h-.672a5.725,5.725,0,0,0-4.475,3.54C438.446,151.92,441.219,161.247,447.049,167.4Z" transform="translate(-393.665 -70.812)" fill="#e0e0e0"/><path d="M462.28,146.5l8.928-5.147a.463.463,0,0,1,0-.21l1.744-5.893a.967.967,0,0,0,0-.588l-6.218,3.561-2.72,1.565a1.051,1.051,0,0,1,0,.641l-1.733,5.893a.45.45,0,0,0,0,.179Z" transform="translate(-392.542 -71.23)" fill="#e0e0e0"/><path d="M444.84,125.5a1.2,1.2,0,0,1,.3.431l3.088,8.287h0l8.939-5.157-3.088-8.287a1.051,1.051,0,0,0-.294-.41Z" transform="translate(-393.42 -71.951)" fill="#e0e0e0"/><path d="M429,129.831a.8.8,0,0,1,.8.273l5.819,5.315a1.05,1.05,0,0,0,1.281.21,9.316,9.316,0,0,1,2.479-1.439.914.914,0,0,0,.588-1.05l-1.786-8.151a.5.5,0,0,1,.242-.578h0l2.185-1.271a.472.472,0,0,0-.21,0l-.126.084Z" transform="translate(-394.218 -71.811)" fill="#e0e0e0"/><path d="M426.61,149.865a.892.892,0,0,1,.357-.084l4.884-.273a.819.819,0,0,0,.819-.8c-.063-.777-.116-1.544-.116-2.29Z" transform="translate(-394.339 -70.638)" fill="#e0e0e0"/><path d="M474,147.13a.946.946,0,0,0,.168.189h0Z" transform="translate(-391.951 -70.602)" fill="#e0e0e0"/><path d="M481.629,149.75a.988.988,0,0,1,.189.357l.336,1.124,1.754,5.914.6,2.027a.525.525,0,0,1,0,.336.482.482,0,0,1-.073.168.367.367,0,0,1-.137.147l-.095.063-.9.525-.242.147h0l-.725.42-.378.231-.452.242-.158.105-.473.263-2.6,1.5h0l-2.91,1.691a.588.588,0,0,0,.252-.683l-2.363-7.962-.336-1.113a.935.935,0,0,0-.221-.378Z" transform="translate(-392.017 -70.47)" fill="#e0e0e0"/><path d="M445.07,181.98h0l6-3.477c-.567-.336-1.145-.7-1.712-1.05s-1.05-.347-1.218,0l-2.92,4.454A.431.431,0,0,1,445.07,181.98Z" transform="translate(-393.409 -69.087)" fill="#e0e0e0"/><path d="M462.281,181.474l1.8,8.161a.494.494,0,0,1-.242.546c.357-.2,6-3.456,9.243-5.346a1.05,1.05,0,0,1-.641-.294l-5.809-5.315a1.05,1.05,0,0,0-1.271-.221,9.191,9.191,0,0,1-2.5,1.45.914.914,0,0,0-.578,1.019Z" transform="translate(-392.543 -69.002)" fill="#e0e0e0"/><path d="M469.39,170.284a1.492,1.492,0,0,0,.095.651l8.939-5.157a1.576,1.576,0,0,1-.105-.662,22.992,22.992,0,0,0,.094-2.426l-2.91,1.691h0a.8.8,0,0,1-.389.116l-4.895.273a.788.788,0,0,0-.819.8A26.088,26.088,0,0,1,469.39,170.284Z" transform="translate(-392.184 -69.818)" fill="#e0e0e0"/><path d="M472.79,185.051c.189-.105,1.113-.63,2.353-1.355l.441-.252,3.771-2.185,1.05-.588,1.3-.756h0a.231.231,0,0,0,.095-.074.641.641,0,0,0,.074-.105l2.584-5.7a.8.8,0,0,0,0-.483v-.189l-8.928,5.157a1.05,1.05,0,0,1,0,.693l-2.594,5.714a.315.315,0,0,1-.147.126Z" transform="translate(-392.012 -69.28)" fill="#e0e0e0"/></g></g><g transform="translate(73.021 81.629)"><g transform="translate(247.743)"><path d="M306.74,89.765V334.052a8.75,8.75,0,0,0,3.928,6.827l108.326,62.529c2.164,1.26,3.928.231,3.928-2.279V156.853a8.75,8.75,0,0,0-3.928-6.827L310.668,87.5C308.5,86.235,306.74,87.254,306.74,89.765Zm5.662,29.159c0-2.1,1.513-3.025,3.382-1.943l98.484,56.847a7.5,7.5,0,0,1,3.382,5.861V371.036c0,2.164-1.523,3.025-3.382,1.954l-98.484-56.857c-1.87-1.05-3.382-2.447-3.382-4.59Z" transform="translate(-306.74 -79.397)" fill="#90caf9"/><path d="M306.74,89.765V334.052a8.75,8.75,0,0,0,3.928,6.827l108.326,62.529c2.164,1.26,3.928.231,3.928-2.279V156.853a8.75,8.75,0,0,0-3.928-6.827L310.668,87.5C308.5,86.235,306.74,87.254,306.74,89.765Zm5.662,29.159c0-2.1,1.513-3.025,3.382-1.943l98.484,56.847a7.5,7.5,0,0,1,3.382,5.861V371.036c0,2.164-1.523,3.025-3.382,1.954l-98.484-56.857c-1.87-1.05-3.382-2.447-3.382-4.59Z" transform="translate(-306.74 -79.397)" opacity="0.5"/><path d="M414.07,400.826a8.781,8.781,0,0,0,7.353-.242l4.506-2.6a8.676,8.676,0,0,0,3.949-6.827V146.886a7.352,7.352,0,0,0-.683-2.941,9.837,9.837,0,0,0-.462-.945h0l-12.394,7.153h0a11.351,11.351,0,0,1,.683,1.45,7.352,7.352,0,0,1,.473,2.437V398.316C417.515,400.627,416.013,401.677,414.07,400.826Z" transform="translate(-301.333 -76.574)" fill="#90caf9"/><path d="M414.07,400.826a8.781,8.781,0,0,0,7.353-.242l4.506-2.6a8.676,8.676,0,0,0,3.949-6.827V146.886a7.352,7.352,0,0,0-.683-2.941,9.837,9.837,0,0,0-.462-.945h0l-12.394,7.153h0a11.351,11.351,0,0,1,.683,1.45,7.352,7.352,0,0,1,.473,2.437V398.316C417.515,400.627,416.013,401.677,414.07,400.826Z" transform="translate(-301.333 -76.574)" opacity="0.7"/><path d="M361.448,338.04c-3.435-1.975-6.218-.368-6.218,3.592a13.75,13.75,0,0,0,6.218,10.777c3.435,1.975,6.218.368,6.218-3.592A13.749,13.749,0,0,0,361.448,338.04Z" transform="translate(-304.297 -66.79)" fill="none" stroke="#e6e6e6" stroke-miterlimit="10" stroke-width="1"/><path d="M362.126,122.267c-1.45-.84-2.636-.158-2.636,1.523a5.882,5.882,0,0,0,2.636,4.58c1.46.84,2.647.158,2.647-1.534A5.829,5.829,0,0,0,362.126,122.267Z" transform="translate(-304.082 -77.636)"/><path d="M372.834,138.12l-20.388-11.775c-1.218-.693-2.206-.2-2.206,1.113a4.727,4.727,0,0,0,2.206,3.666l20.388,11.764c1.218.7,2.206.21,2.206-1.113a4.727,4.727,0,0,0-2.206-3.655Z" transform="translate(-304.548 -77.428)"/><path d="M312.13,310.124c0,2.1,1.513,3.519,3.382,4.59L414,371.571c1.859,1.05,3.382.21,3.382-1.954V178.269A7.5,7.5,0,0,0,414,172.408l-98.484-56.847c-1.87-1.05-3.382-.21-3.382,1.943Z" transform="translate(-306.468 -77.979)" fill="#f3f3f3"/><path d="M318.4,131.282v-1.8c0-.389.158-.62.347-.515l.095.063a1.124,1.124,0,0,1,.347.893v1.8c0,.389-.158.62-.347.5h-.095a1.145,1.145,0,0,1-.347-.945Z" transform="translate(-306.153 -77.282)" fill="#455a64"/><path d="M319.89,132.177v-3.151c0-.389.147-.62.336-.5h.095a1.156,1.156,0,0,1,.347.9v3.1c0,.389-.158.609-.347.5l-.095-.053A1.166,1.166,0,0,1,319.89,132.177Z" transform="translate(-306.077 -77.304)" fill="#455a64"/><path d="M321.37,133.117v-4.412c0-.389.158-.609.347-.5l.095.053a1.166,1.166,0,0,1,.347.9v4.412c0,.389-.158.609-.347.5h-.095A1.166,1.166,0,0,1,321.37,133.117Z" transform="translate(-306.003 -77.32)" fill="#455a64"/><path d="M322.86,134.12v-7.6c0-.389.147-.62.336-.5h.095a1.166,1.166,0,0,1,.347.9v7.6c0,.389-.158.62-.347.5H323.2a1.145,1.145,0,0,1-.336-.9Z" transform="translate(-305.928 -77.431)" fill="#455a64"/><path d="M326.975,136.86a.715.715,0,0,1-.052-.284v-1.113l-1.744-1.05a.357.357,0,0,1-.179-.231v-.4a.821.821,0,0,1,0-.2,1.269,1.269,0,0,1,.052-.147l1.859-2.931s.063-.084.095-.095a.418.418,0,0,1,.116,0l.242.147a.347.347,0,0,1,.168.179.787.787,0,0,1,0,.294v3.907l.389.221a.4.4,0,0,1,.158.168.852.852,0,0,1,0,.3v.263a.41.41,0,0,1,0,.231h-.158l-.389-.221v1.113a.41.41,0,0,1,0,.231h-.168l-.294-.168A.378.378,0,0,1,326.975,136.86Zm.063-2.279V131.8l-1.271,2.1Z" transform="translate(-305.82 -77.208)" fill="#455a64"/><path d="M328.876,137.313a7.415,7.415,0,0,1-.515-2.878,3.719,3.719,0,0,1,.515-2.279q.525-.6,1.45-.063a3.288,3.288,0,0,1,1.239,1.239.273.273,0,0,1,0,.158.465.465,0,0,1,0,.105l-.158.4a.051.051,0,0,1-.063.053.263.263,0,0,1-.074-.095,2.647,2.647,0,0,0-.893-.882c-.42-.242-.756-.231-.987.053a2.857,2.857,0,0,0-.357,1.712,5.525,5.525,0,0,0,.347,2.1,2.321,2.321,0,0,0,.945,1.176,1.68,1.68,0,0,0,.431.189.682.682,0,0,0,.347,0v-1.775l-.725-.42a.368.368,0,0,1-.158-.179.756.756,0,0,1,0-.294v-.483c0-.032.084,0,.158,0l1.155.672a.389.389,0,0,1,.179.21,1.049,1.049,0,0,1,.052.347v2.584a.849.849,0,0,1,0,.21.157.157,0,0,1-.063.095,1.46,1.46,0,0,1-1.387-.231A3.54,3.54,0,0,1,328.876,137.313Z" transform="translate(-305.652 -77.136)" fill="#455a64"/><path d="M405.063,174.2a1.965,1.965,0,0,0-.693-1.05l-5.252-3.025c-.452-.263-.8.252-.8,1.176v3.949a4.758,4.758,0,0,0,.294,1.6,3.4,3.4,0,0,0,.284.588,1.408,1.408,0,0,0,.41.441l5.252,3.025c.452.252.809-.263.809-1.187V175.8a4.781,4.781,0,0,0-.3-1.6Zm-6.239,2.363a1.953,1.953,0,0,1-.116-.693v-3.918c0-.683.284-1.1.609-.9l5.252,3.025a.63.63,0,0,1,.221.221,1.05,1.05,0,0,1,.084.189,2.016,2.016,0,0,1,.116.7v3.907c0,.683-.284,1.1-.609.9l-5.252-3.025a.714.714,0,0,1-.3-.441Z" transform="translate(-302.126 -75.211)" fill="#455a64"/><path d="M402.08,173.252v4.632l-2.815-1.67-.095-.074a.69.69,0,0,0,0-.158v-3.519c0-.494.221-.809.462-.672Z" transform="translate(-302.083 -75.125)" fill="#455a64"/><path d="M405.287,175.67c.2.105.357.851.357,1.649v.725c0,.809-.158,1.387-.357,1.292l-.357-.168v-3.7Z" transform="translate(-301.793 -74.938)" fill="#455a64"/><path d="M393,172.518c0,.861-.452,1.3-1.05.977a2.7,2.7,0,0,1-1.05-2.153c0-.861.452-1.292,1.05-.977a2.678,2.678,0,0,1,1.05,2.153Z" transform="translate(-302.5 -75.2)" fill="#455a64"/><path d="M392.045,167.944a1.523,1.523,0,0,0-2.353.819,1.051,1.051,0,0,0,.105.83h0c.189.336.473.42.588.147a1.05,1.05,0,0,1,1.66-.578,4.2,4.2,0,0,1,1.66,2.5c.116.4.4.651.6.525h0a.672.672,0,0,0,.105-.714A6.092,6.092,0,0,0,392.045,167.944Z" transform="translate(-302.563 -75.331)" fill="#455a64"/><path d="M392.107,165.572a2.405,2.405,0,0,0-3.624.977,1.05,1.05,0,0,0,.084.872h0c.179.336.452.42.578.179a1.954,1.954,0,0,1,2.952-.8,7.657,7.657,0,0,1,2.962,4.2c.126.378.4.62.578.494h0c.168-.105.2-.441.084-.777a9.453,9.453,0,0,0-3.613-5.147Z" transform="translate(-302.625 -75.46)" fill="#455a64"/><path d="M306.77,89.466c.284-2.1,1.922-2.794,3.9-1.649l108.326,62.571a8,8,0,0,1,2.783,2.941l12.394-7.153a8.078,8.078,0,0,0-2.794-2.931l-108.3-62.54a8.7,8.7,0,0,0-7.888,0L310.667,83.3a8.823,8.823,0,0,0-3.9,6.166Z" transform="translate(-306.738 -79.76)" fill="#90caf9"/><path d="M306.77,89.466c.284-2.1,1.922-2.794,3.9-1.649l108.326,62.571a8,8,0,0,1,2.783,2.941l12.394-7.153a8.078,8.078,0,0,0-2.794-2.931l-108.3-62.54a8.7,8.7,0,0,0-7.888,0L310.667,83.3a8.823,8.823,0,0,0-3.9,6.166Z" transform="translate(-306.738 -79.76)" opacity="0.2"/></g><g transform="translate(0 0)"><path d="M194.9,87.5,86.578,150.025a8.75,8.75,0,0,0-3.928,6.827V401.129c0,2.51,1.765,3.54,3.928,2.279L194.9,340.879a8.75,8.75,0,0,0,3.928-6.827V89.765C198.833,87.254,197.068,86.235,194.9,87.5Zm-1.733,224.046c0,2.1-1.513,3.519-3.382,4.59L91.305,372.989c-1.859,1.05-3.382.21-3.382-1.954V179.688a7.5,7.5,0,0,1,3.382-5.861l98.484-56.847c1.87-1.05,3.382-.21,3.382,1.943Z" transform="translate(-70.287 -79.397)" fill="#90caf9"/><path d="M194.9,87.5,86.578,150.025a8.75,8.75,0,0,0-3.928,6.827V401.129c0,2.51,1.765,3.54,3.928,2.279L194.9,340.879a8.75,8.75,0,0,0,3.928-6.827V89.765C198.833,87.254,197.068,86.235,194.9,87.5Zm-1.733,224.046c0,2.1-1.513,3.519-3.382,4.59L91.305,372.989c-1.859,1.05-3.382.21-3.382-1.954V179.688a7.5,7.5,0,0,1,3.382-5.861l98.484-56.847c1.87-1.05,3.382-.21,3.382,1.943Z" transform="translate(-70.287 -79.397)" opacity="0.5"/><path d="M86.688,400.826a8.781,8.781,0,0,1-7.353-.242l-4.506-2.6a8.676,8.676,0,0,1-3.949-6.827V146.886a7.353,7.353,0,0,1,.683-2.941,9.839,9.839,0,0,1,.462-.945h0l12.394,7.153h0a11.356,11.356,0,0,0-.683,1.45,7.353,7.353,0,0,0-.473,2.437V398.316C83.243,400.627,84.745,401.677,86.688,400.826Z" transform="translate(-70.88 -76.574)" fill="#90caf9"/><path d="M86.688,400.826a8.781,8.781,0,0,1-7.353-.242l-4.506-2.6a8.676,8.676,0,0,1-3.949-6.827V146.886a7.353,7.353,0,0,1,.683-2.941,9.839,9.839,0,0,1,.462-.945h0l12.394,7.153h0a11.356,11.356,0,0,0-.683,1.45,7.353,7.353,0,0,0-.473,2.437V398.316C83.243,400.627,84.745,401.677,86.688,400.826Z" transform="translate(-70.88 -76.574)" opacity="0.7"/><path d="M139.148,338.04c3.435-1.975,6.218-.368,6.218,3.592a13.749,13.749,0,0,1-6.218,10.777c-3.435,1.975-6.218.368-6.218-3.592a13.749,13.749,0,0,1,6.218-10.777Z" transform="translate(-67.754 -66.79)" fill="none" stroke="#e6e6e6" stroke-miterlimit="10" stroke-width="1"/><path d="M138.127,122.267c1.45-.84,2.636-.158,2.636,1.523a5.882,5.882,0,0,1-2.636,4.58c-1.46.84-2.647.158-2.647-1.534A5.83,5.83,0,0,1,138.127,122.267Z" transform="translate(-67.625 -77.636)"/><path d="M128.356,138.12l20.388-11.775c1.218-.693,2.206-.2,2.206,1.113a4.727,4.727,0,0,1-2.206,3.666l-20.388,11.764c-1.218.7-2.206.21-2.206-1.113A4.727,4.727,0,0,1,128.356,138.12Z" transform="translate(-68.095 -77.429)"/><path d="M192.918,310.124c0,2.1-1.513,3.519-3.382,4.59L91.052,371.571c-1.859,1.05-3.382.21-3.382-1.954V178.269a7.5,7.5,0,0,1,3.382-5.861l98.484-56.847c1.87-1.05,3.382-.21,3.382,1.943Z" transform="translate(-70.034 -77.979)" fill="#90caf9"/><path d="M192.918,310.124c0,2.1-1.513,3.519-3.382,4.59L91.052,371.571c-1.859,1.05-3.382.21-3.382-1.954V178.269a7.5,7.5,0,0,1,3.382-5.861l98.484-56.847c1.87-1.05,3.382-.21,3.382,1.943Z" transform="translate(-70.034 -77.979)" fill="#f6f6f6" opacity="0.9"/><path d="M163.47,139.676c0,.872.452,1.3,1.05.977a2.658,2.658,0,0,0,1.05-2.1c0-.861-.452-1.3-1.05-.977a2.657,2.657,0,0,0-1.05,2.1Z" transform="translate(-66.215 -76.852)" fill="#455a64"/><path d="M162.193,138.654a.672.672,0,0,0,.105.714h0c.2.116.483-.137.6-.536a4.265,4.265,0,0,1,1.66-2.5,1.05,1.05,0,0,1,1.66.588c.116.263.4.189.588-.158h0a1.05,1.05,0,0,0,.105-.84,1.523,1.523,0,0,0-2.353-.809,6.092,6.092,0,0,0-2.363,3.54Z" transform="translate(-66.283 -76.985)" fill="#455a64"/><path d="M161,137.9c-.116.336-.084.672.084.777h0c.179.116.452-.116.578-.494a7.731,7.731,0,0,1,2.962-4.2,1.954,1.954,0,0,1,2.952.809c.126.231.4.158.578-.179h0a1.05,1.05,0,0,0,.074-.872,2.395,2.395,0,0,0-3.613-.966A9.454,9.454,0,0,0,161,137.9Z" transform="translate(-66.343 -77.112)" fill="#455a64"/><path d="M93.6,180.92v-1.555a1.05,1.05,0,0,1,.389-.84l.116-.063c.21-.126.389,0,.389.378v1.555a1.05,1.05,0,0,1-.389.84l-.116.063C93.768,181.424,93.6,181.256,93.6,180.92Z" transform="translate(-69.735 -74.789)" fill="#455a64"/><path d="M95.31,179.985V177.3a1.05,1.05,0,0,1,.389-.84l.116-.063c.221-.126.4,0,.4.378v2.689a1.05,1.05,0,0,1-.4.84l-.116.063C95.489,180.489,95.31,180.321,95.31,179.985Z" transform="translate(-69.649 -74.894)" fill="#455a64"/><path d="M97,179.048v-3.823a1.05,1.05,0,0,1,.4-.83l.105-.063c.221-.126.4,0,.4.378v3.813a1.05,1.05,0,0,1-.4.84l-.105.063C97.2,179.553,97,179.385,97,179.048Z" transform="translate(-69.564 -74.998)" fill="#455a64"/><path d="M98.74,178.191v-6.6a1.05,1.05,0,0,1,.389-.83l.116-.063c.221-.126.4,0,.4.378v6.586a1.05,1.05,0,0,1-.389.84l-.116.063C98.919,178.7,98.74,178.528,98.74,178.191Z" transform="translate(-69.476 -75.18)" fill="#455a64"/><path d="M103.485,175.87v-1.155l-2.027,1.166c-.105.063-.158,0-.158-.116v-.347a.966.966,0,0,1,0-.189l.074-.2,2.1-4.706a1.365,1.365,0,0,1,.105-.189.849.849,0,0,1,.137-.116l.284-.158q.126-.084.189,0a.294.294,0,0,1,0,.21v3.372l.452-.252c.084-.053.137-.063.179,0s0,.095,0,.2v.231a.578.578,0,0,1,0,.252.462.462,0,0,1-.179.168l-.452.263v.956a.431.431,0,0,1-.242.431l-.336.189C103.58,175.881,103.517,175.891,103.485,175.87Zm.074-2.1v-2.416l-1.46,3.256Z" transform="translate(-69.348 -75.222)" fill="#455a64"/><path d="M105.688,174.017c-.4-.294-.588-.924-.588-1.891a5.556,5.556,0,0,1,.588-2.573,4.306,4.306,0,0,1,1.67-1.744,3.392,3.392,0,0,1,.809-.347,1.05,1.05,0,0,1,.63,0,.074.074,0,0,1,0,.074.294.294,0,0,1,0,.116l-.189.525c0,.074,0,.116-.074.126h-.084a1.618,1.618,0,0,0-1.05.263,3.025,3.025,0,0,0-1.145,1.208,4.065,4.065,0,0,0-.41,1.9c0,.746.137,1.229.4,1.429a.979.979,0,0,0,1.1-.084,3.815,3.815,0,0,0,.494-.347,2.354,2.354,0,0,0,.4-.389v-1.565l-.84.483c-.084.053-.147.063-.179,0a.284.284,0,0,1,0-.2v-.221a.578.578,0,0,1,0-.263.462.462,0,0,1,.179-.168l1.344-.767c.095-.063.158-.063.2,0a.37.37,0,0,1,.063.242v2.237a1.05,1.05,0,0,1,0,.21.462.462,0,0,1-.084.158,4.895,4.895,0,0,1-1.6,1.418C106.644,174.248,106.045,174.332,105.688,174.017Z" transform="translate(-69.156 -75.344)" fill="#455a64"/><path d="M179.283,125.779a.62.62,0,0,0-.8-.084l-6.05,3.477a2.447,2.447,0,0,0-.924,1.975v3.382a1.407,1.407,0,0,0,.347,1.05.63.63,0,0,0,.326.179.662.662,0,0,0,.473-.095l6.05-3.487a2.447,2.447,0,0,0,.924-1.975v-3.382a1.407,1.407,0,0,0-.347-1.04Zm-7.206,9.327a.7.7,0,0,1-.126-.483v-3.351a1.912,1.912,0,0,1,.7-1.5l6.05-3.487a.409.409,0,0,1,.252-.063h.105a.7.7,0,0,1,.126.483v3.382a1.912,1.912,0,0,1-.7,1.5l-6.05,3.487C172.288,135.18,172.161,135.191,172.077,135.107Z" transform="translate(-65.81 -77.451)" fill="#455a64"/><path d="M175.841,128.34v4.012l-3.256,1.88h-.105a.545.545,0,0,0,0-.137v-2.962a1.45,1.45,0,0,1,.525-1.113Z" transform="translate(-65.761 -77.312)" fill="#455a64"/><path d="M179.55,126.6c.221-.126.4.336.4,1.05v.63a2.237,2.237,0,0,1-.41,1.523l-.4.263v-3.151Z" transform="translate(-65.426 -77.401)" fill="#455a64"/><path d="M199.341,89.466c-.284-2.1-1.922-2.794-3.9-1.649L87.118,150.388a8,8,0,0,0-2.783,2.941L71.94,146.186a8.077,8.077,0,0,1,2.794-2.931l108.3-62.55a8.676,8.676,0,0,1,7.878,0l4.527,2.594A8.823,8.823,0,0,1,199.341,89.466Z" transform="translate(-70.827 -79.76)" fill="#90caf9"/><path d="M199.341,89.466c-.284-2.1-1.922-2.794-3.9-1.649L87.118,150.388a8,8,0,0,0-2.783,2.941L71.94,146.186a8.077,8.077,0,0,1,2.794-2.931l108.3-62.55a8.676,8.676,0,0,1,7.878,0l4.527,2.594A8.823,8.823,0,0,1,199.341,89.466Z" transform="translate(-70.827 -79.76)" opacity="0.2"/></g></g><g transform="translate(104.114 147.856)"><path d="M384.364,312.58s-11.229,11.239-26.154,6.943c0,0,4.5,4.433,15.073,1.46C380.415,318.977,384.364,312.58,384.364,312.58Z" transform="translate(-87.498 -134.257)" fill="#90caf9"/><path d="M404.532,247s5.735,14.81-4.2,26.722c0,0,5.872-2.311,7.426-13.193C408.775,253.155,404.532,247,404.532,247Z" transform="translate(-85.376 -137.561)" fill="#90caf9"/><path d="M382,318.812C392.5,308,397.073,295.388,397.178,282.5c0,0,3.057,7.668-1.712,19.768S382,318.812,382,318.812Z" transform="translate(-86.299 -135.772)" fill="#90caf9"/><path d="M106.151,302.19s-.137,15.882,13.392,23.518c0,0-6.3-.105-11.554-9.727C104.365,309.49,106.151,302.19,106.151,302.19Z" transform="translate(-100.219 -134.78)" fill="#90caf9"/><path d="M102.99,310.093a51.689,51.689,0,0,1,8.54-38.433s-6.912,4.506-9.979,17.153S102.99,310.093,102.99,310.093Z" transform="translate(-100.482 -136.318)" fill="#90caf9"/><g transform="translate(143.543 0.579)"><path d="M331.38,224.637l4.443-13.287c-11.7,2.1-14.884,3.7-18.34,13.371l-2.29,7.71L301.182,275.56c-3.319.872-44.641,12.258-46.08,12.436,0,0-.063.105-.105.158-13.5.861-17.856,1.46-17.856,1.46,3.792,9.916,10.9,15.5,20.724,17.52v-.158c17.384-2.962,45.9-9.685,55.176-12.762,3.907-1.25,5.578-5.651,7.185-9.327,6.565-15.01,13.424-35.24,15.756-47.414C337.493,230.141,335.277,226.475,331.38,224.637Z" transform="translate(-237.14 -139.936)" fill="#b16668"/><path d="M332.548,211.305s-11.628-1.786-16.67,8.886c-3.382,7.206-13.728,38.066-13.728,38.066s7.353,9.453,23.455,10.031c0,0,15.21-34.925,14.359-36.039S332.548,211.305,332.548,211.305Z" transform="translate(-233.865 -139.944)" fill="#00a593"/><path d="M329.546,211.1c-2.826.273-9.989,9.853-10.136,26.154-.2,21.837,10.5,48.57,13.193,54.336s7.92,17.058,16.806,25.44c2.868,2.689,22.447,10.3,35.062-3.876,12.836-14.422,10.808-33.371,8.245-39.305-4.3-9.937-11.89-21.5-11.617-34.579-1.607-9.39-4.685-21.543-11.7-26.638-2.889-.735-11.985-1.9-13.76-1.66Z" transform="translate(-232.995 -139.957)" fill="#05d6bf"/><path d="M364.432,227.59l-3.582,4.5c1.05,7.132,6.46,17.436,12.752,25.661,4.905,6.418,14.884,13.035,18.907,24.369a29,29,0,0,0-1.817-9.107c-4.3-9.937-11.89-21.5-11.617-34.579-.263-1.555-.578-3.151-.935-4.842l-3.361-3.046Z" transform="translate(-230.908 -139.118)" fill="#ebebeb"/><path d="M367.277,212.55c6.145,1.513,9.453,4.758,14.831,10.9,6.176,6.932,18.781,21.512,18.781,21.512,8.813,15.273.893,30.808-5.714,28.255,0,0-14.894-14.548-24.033-25.577-6.124-7.353-9.243-11.554-9.59-19.653C361.258,221.625,362.392,215.123,367.277,212.55Z" transform="translate(-230.874 -139.875)" fill="#b16668"/><path d="M364.125,212s5.3-1.176,12.205,4.38S400.1,240.3,400.1,240.3s.5,19.443-11.88,28.213c0,0-18.277-18.34-22.783-24.684A30.461,30.461,0,0,1,364.125,212Z" transform="translate(-230.937 -139.908)" fill="#00a593"/><path d="M361.245,177s-2.668,16.291-3.918,19a7.279,7.279,0,0,1-4.065,3.6L353,188.292Z" transform="translate(-231.303 -141.666)" fill="#263238"/><path d="M352.6,154.53s4.4-2.216,7.416.588,3.214,12.447.945,24.936l-7.584-.4Z" transform="translate(-231.323 -142.84)" fill="#263238"/><circle cx="21.207" cy="21.207" r="21.207" transform="matrix(0.981, -0.194, 0.194, 0.981, 68.97, 10.408)" fill="#263238"/><path d="M353.255,156.424l6.565-6.029a4.328,4.328,0,0,0-6.25-.42,4.674,4.674,0,0,0-.315,6.449Z" transform="translate(-231.348 -143.085)" fill="#263238"/><path d="M316.1,157.509c-1.334,2.3-8,11.964-5.567,30.114,2.29,17.09,7.783,21.1,10.7,22.005s8.781.389,13.907-1.05l.924,7.258s-2.994,4.811,1.05,7.468,12.941.7,15-.935c4.842-3.876,4.107-7.143,4.107-7.143l-1.05-23.571s3.645,3,8.34-.536c4.433-3.33,4.632-12.132.893-15.157s-9.737-1.218-10.556,3.645c0,0-.158-18.067-10.42-22.867C330.293,150.587,316.1,157.509,316.1,157.509Z" transform="translate(-233.469 -142.815)" fill="#b16668"/><path d="M353.1,182.508c.578-.3,1.565-5.136,4.412-6.775,2.615-1.513-2.321-23.108-2.342-23.213-.294-1.586-1.922-3.445-2.983-4.6a13.77,13.77,0,0,0-5.84-3.676,20.22,20.22,0,0,0-9.453-.567c-4.895.756-9.59,2.794-14.537,2.815-4.7,0-9.18-1.817-13.781-2.731a3.687,3.687,0,0,0-2.668.179,2.741,2.741,0,0,0-.966,1.187,6.2,6.2,0,0,0-.147,4.37,15.389,15.389,0,0,0,2.1,3.949c-1.639-.767-3.949-.83-4.895.7-.746,1.208-.284,2.783.4,4.023,2.878,5.168,7.993,7.437,13.371,8.666a45.231,45.231,0,0,0,6.838.63c5.8.326,11.365-2,16.712-4.265,1.471-.63,4.338-1.7,5.945-.4,2,1.618,1.9,6.848,2.5,11.145C348.677,180.68,350.914,183.684,353.1,182.508Z" transform="translate(-233.892 -143.361)" fill="#263238"/><path d="M333.281,193l-5.851,2.615a3.151,3.151,0,0,0,4.2,1.733A3.372,3.372,0,0,0,333.281,193Z" transform="translate(-232.591 -140.86)" fill="#9a4a4d"/><path d="M313,179.825a2.174,2.174,0,1,0,2.027-2.384A2.216,2.216,0,0,0,313,179.825Z" transform="translate(-233.319 -141.644)" fill="#263238"/><path d="M329.06,178.835a2.174,2.174,0,1,0,2.027-2.384,2.206,2.206,0,0,0-2.027,2.384Z" transform="translate(-232.509 -141.694)" fill="#263238"/><path d="M323.968,179.16l-.389,13.035-6.859-2.143Z" transform="translate(-233.131 -141.558)" fill="#9a4a4d"/><path d="M333.94,206.372c4.307-.987,12.731-4.611,14.327-7.762,0,0,.158,2.006-2.395,5.052s-11.5,6.092-11.5,6.092Z" transform="translate(-232.263 -140.578)" fill="#9a4a4d"/><path d="M311.383,175.578l4.863-2.1a2.783,2.783,0,0,0-3.582-1.408,2.594,2.594,0,0,0-1.281,3.508Z" transform="translate(-233.413 -141.925)" fill="#263238"/><path d="M330.31,172.48,334.953,175a2.752,2.752,0,0,0-1.1-3.676,2.563,2.563,0,0,0-3.54,1.155Z" transform="translate(-232.446 -141.968)" fill="#263238"/></g><g transform="translate(8.631)"><path d="M200.512,212.566h-36.2A32.656,32.656,0,0,1,131.67,180v-5.683a31.448,31.448,0,0,1,31.375-31.511h5.9a31.417,31.417,0,0,1,31.511,31.364Z" transform="translate(-107.542 -142.81)" fill="#263238"/><path d="M168.69,211.165c12.983-.977,21.165,5.042,21.438,17.111.147,6.082-5.126,30.293-5.126,30.293Z" transform="translate(-105.677 -139.371)" fill="#ffa8a7"/><path d="M171.712,211.16c6.607.662,13.9,11.943,20.241,26.449,2.489,5.714,7.038,13.4,1.3,24.1-3.55,6.607-10.861,9.275-10.861,9.275a91.12,91.12,0,0,1-11.344,23.36,58.023,58.023,0,0,1-16.071,25.314c-2.941,2.6-20.913,18.518-35.4,6.239-8.613-7.3-11.617-18.907-10.735-29.862.515-6.439,1.943-12.8,6.47-17.415a76.2,76.2,0,0,0,7.216-8.508c2.3-10.955-.336-18.392-.609-31.511,1.607-9.39,5.588-17.352,12.6-22.436a58.286,58.286,0,0,1,16.228-3.855Z" transform="translate(-108.699 -139.366)" fill="#c1ff6e"/><path d="M171.025,292.877l-.882-7.069s-30.461-47.75-31.753-49.095c-.756-.809-8.067-5.683-13.781-9.453a42.867,42.867,0,0,0-3.151,10.5c.273,13.077,2.91,20.514.609,31.511,0,0-1.565,2.216-4.1,5.126,4.517,1.176,11.88-4.506,11.88-4.506s14.705,20.787,21.176,28.171c6.04,6.922,9.653,7.951,14.117,7.647a55.671,55.671,0,0,0,5.441-12.205C170.741,293.308,170.878,293.087,171.025,292.877Z" transform="translate(-108.232 -138.555)" opacity="0.1"/><path d="M191.591,259.523c.3-.578.588-1.145.84-1.712-5.914,4.538-10.031,1.344-14.989.389-5.126-.987-8.928,6.3-18.518,5.4-12.6-1.218-17.174-9.149-17.174-9.149s-.336,13.728,15.283,16.743c10.441,2.017,14.275-3.624,17.163-3.624,1.26,0,2.384.977,6.533,1.229C180.73,268.8,188.04,266.13,191.591,259.523Z" transform="translate(-107.034 -137.185)" opacity="0.05"/><path d="M188.2,159c1.3,2.248,7.773,11.628,5.409,29.243-2.227,16.585-7.563,19.285-10.4,20.167s-8.519.368-13.5-1.05l-1.124,9.979s4.832,6.869,3.876,11.386-10.609,3.939-16.659-1.26a19.674,19.674,0,0,1-6.554-12.436l1.05-22.9s-3.54,2.92-8.1-.515c-4.3-3.235-4.5-11.775-.861-14.705s9.453-1.187,10.241,3.529c0,0,11.26,2.6,21.228-2.1C185.532,172.371,187.391,163.727,188.2,159Z" transform="translate(-107.184 -141.994)" fill="#ffa8a7"/><path d="M151.185,185.9l-.3-10.42a5.472,5.472,0,0,1,5.483,5.252,5.084,5.084,0,0,1-5.178,5.168Z" transform="translate(-106.574 -141.164)" fill="#263238"/><path d="M172.863,194.38l5.672,2.542a3.067,3.067,0,0,1-4.065,1.681,3.256,3.256,0,0,1-1.607-4.223Z" transform="translate(-105.48 -140.212)" fill="#f28f8f"/><path d="M188.751,180.955a2.1,2.1,0,0,1-2.227,2.1,2.153,2.153,0,0,1-1.964-2.321,2.105,2.105,0,1,1,4.2.273Z" transform="translate(-104.878 -140.998)" fill="#263238"/><path d="M174.261,182.112a2.1,2.1,0,1,1-.485-1.581A2.1,2.1,0,0,1,174.261,182.112Z" transform="translate(-105.607 -140.947)" fill="#263238"/><path d="M179.86,180.72l.378,12.657,6.659-2.08Z" transform="translate(-105.114 -140.9)" fill="#f28f8f"/><path d="M168.9,205.361c-4.2-.956-12.352-4.475-13.907-7.531,0,0-.147,1.954,2.332,4.905s11.208,5.861,11.208,5.861Z" transform="translate(-106.367 -140.038)" fill="#f28f8f"/><path d="M189.416,175.653l-4.716-2.038a2.71,2.71,0,0,1,3.477-1.365,2.51,2.51,0,0,1,1.239,3.4Z" transform="translate(-104.87 -141.337)" fill="#263238"/></g><path d="M162.3,299.427l10.252-19.611c3.4.494,6.806.966,10.21,1.439,6.775.935,32.373,4.075,33.822,4.1a21.291,21.291,0,0,0,8.2-1.786c4.054-1.523,7.059-3.96,10.336-4.632a15.536,15.536,0,0,1,4.611-.21c1.943.137,1.439,1.176,3.361,1.513a2.868,2.868,0,0,1,1.513.6c.735.693.2,1.113-.189,1.681a6.186,6.186,0,0,0-.777,2.332c-.147.7-.725,3.1.273,3.487,4.842,1.88,5.388,4.653,11.67,10.042,3,2.573,4.622,4.433,6.649,5.746,1.271,1.922,1.365,3.151-3.151,5.8-3,1.786-8.4,5.252-17.237,2.479-9.621-3.015-14.548-8.4-17.027-8.519C207.235,302.893,171.869,301.433,162.3,299.427Z" transform="translate(-97.368 -135.967)" fill="#ffa8a7"/><path d="M174.657,282.974l-25.9-42.467s-4.254-23.728-14.81-24.547c0,0-9.663,2.489-11.869,8.287-2.657,7.017-2.531,13.886,5.4,29.411,5.987,11.764,22.216,33.938,28.707,41.448,2.626,3.036,5.493,6.6,8.224,7.437" transform="translate(-99.472 -139.125)" fill="#ffa8a7"/><path d="M222.122,302.781a6.954,6.954,0,0,1,2.71,1.365,9.076,9.076,0,0,0,4.37-2.1c4.853-3.54,21.533,3.571,17.426,8.14-2.983,3.319-5.893,4.2-10.651,2.721C228.96,310.764,221.481,307.56,222.122,302.781Z" transform="translate(-94.356 -134.836)" fill="#b16668"/><path d="M238.415,279.285c-5.525.956-11.26,4.989-14.254,6.208s-6.082,1.943-3.33,4.58,9.453,0,14.086-1.639c3.151-1.134,7.132,0,8.907.735,1.3.536.609-2.983.609-2.983-1.05-1.534,11.985,0,11.554-1.513C249.1,284.968,242.868,278.266,238.415,279.285Z" transform="translate(-94.473 -135.94)" fill="#b16668"/></g><g transform="translate(219.314 42.652)"><g transform="translate(0 0)"><ellipse cx="37.026" cy="32.425" rx="37.026" ry="32.425" transform="translate(4.137)" fill="#ff8900"/><path d="M260.933,77.77c-.525,4.328-4.779,11.8-11.617,14.117a.462.462,0,0,0,0,.882,19.957,19.957,0,0,0,21.008-6.2Z" transform="translate(-248.991 -27.31)" fill="#ff8900"/><path d="M316.45,77.77c.525,4.328,4.779,11.8,11.628,14.117a.462.462,0,0,1,0,.882,19.957,19.957,0,0,1-21.008-6.2Z" transform="translate(-246.065 -27.31)" fill="#ff8900"/></g></g></g></g></svg>