<svg xmlns="http://www.w3.org/2000/svg" width="225.559" height="268.656" viewBox="0 0 225.559 268.656"><g transform="translate(-87.71 -35.814)"><g transform="translate(87.71 251.662)" opacity="0.3"><ellipse cx="40.692" cy="23.488" rx="40.692" ry="23.488" transform="translate(0 5.832)" fill="#1d7e96"/><ellipse cx="40.692" cy="23.488" rx="40.692" ry="23.488" transform="translate(144.174 5.832)" fill="#1d7e96"/><ellipse cx="40.692" cy="23.488" rx="40.692" ry="23.488" transform="translate(72.407)" fill="#1d7e96"/></g><g transform="translate(164.321 141.967)"><g transform="translate(0 0)"><path d="M256.722,359.386c-9.709-5.568-25.451-5.568-35.16,0-4.872,2.784-7.273,6.472-7.273,10.147v2.45c.07,3.619,2.492,7.217,7.266,9.973,9.709,5.609,25.451,5.609,35.16,0,4.8-2.784,7.217-6.389,7.273-10.022v-2.457C263.967,365.823,261.545,362.177,256.722,359.386Z" transform="translate(-202.807 -239.078)" fill="#37474f"/><path d="M221.561,379.674c-9.7-5.6-9.7-14.692,0-20.294s25.451-5.568,35.16,0,9.7,14.692,0,20.294S231.27,385.283,221.561,379.674Z" transform="translate(-202.805 -239.072)" fill="#455a64"/><path d="M251.594,333.7h0V243.3h-5.735v90.4h0a1.336,1.336,0,0,0,.821,1.315,4.5,4.5,0,0,0,4.064,0A1.329,1.329,0,0,0,251.594,333.7Z" transform="translate(-212.404 -205.052)" fill="#37474f"/><path d="M259.82,199.086c-14.19-8.191-37.2-8.191-51.389,0-7.1,4.1-10.641,9.465-10.641,14.838v2.645c0,5.366,3.542,10.739,10.641,14.831,14.19,8.2,37.2,8.2,51.389,0,7.1-4.092,10.641-9.465,10.641-14.831v-2.645C270.462,208.551,266.919,203.185,259.82,199.086Z" transform="translate(-197.79 -189.741)" fill="#455a64"/><path d="M259.82,194.486c-14.19-8.191-37.2-8.191-51.389,0-7.1,4.1-10.641,9.465-10.641,14.838v2.638c0,5.373,3.542,10.739,10.641,14.838,14.19,8.191,37.2,8.191,51.389,0,7.1-4.1,10.641-9.465,10.641-14.838v-2.638C270.462,203.951,266.919,198.585,259.82,194.486Z" transform="translate(-197.79 -188.342)" fill="#90caf9"/><path d="M259.82,194.486c-14.19-8.191-37.2-8.191-51.389,0-7.1,4.1-10.641,9.465-10.641,14.838v2.638c0,5.373,3.542,10.739,10.641,14.838,14.19,8.191,37.2,8.191,51.389,0,7.1-4.1,10.641-9.465,10.641-14.838v-2.638C270.462,203.951,266.919,198.585,259.82,194.486Z" transform="translate(-197.79 -188.342)" fill="#74ddf7" opacity="0.4"/></g></g><g transform="translate(209.494 85.356)"><g transform="translate(37.025 35.812)"><path d="M355.106,370.741h0V281.29h-2.937v89.451h0a.7.7,0,0,0,.424.7,2.283,2.283,0,0,0,2.088,0A.7.7,0,0,0,355.106,370.741Z" transform="translate(-326.927 -195.804)" fill="#37474f"/><path d="M385.1,357.922h0V272.18h-2.944v85.742h0a.7.7,0,0,0,.418.7,2.345,2.345,0,0,0,2.088,0A.7.7,0,0,0,385.1,357.922Z" transform="translate(-336.045 -193.034)" fill="#37474f"/><path d="M322,357.922h0V272.18h2.944v85.742h0a.7.7,0,0,1-.418.7,2.345,2.345,0,0,1-2.088,0A.7.7,0,0,1,322,357.922Z" transform="translate(-317.754 -193.034)" fill="#37474f"/><path d="M362.007,241.315c-10.551-6.09-27.65-6.09-38.2,0-5.275,3.041-7.906,7.036-7.906,11.024v4.872c0,3.995,2.631,7.983,7.906,11.031,10.551,6.09,27.65,6.09,38.2,0,5.275-3.048,7.906-7.036,7.906-11.031v-4.872C369.913,248.351,367.282,244.356,362.007,241.315Z" transform="translate(-315.9 -182.261)" fill="#35a3be"/><path d="M362.007,237.895c-10.551-6.09-27.65-6.09-38.2,0-5.275,3.041-7.906,7.036-7.906,11.024v4.872c0,3.995,2.631,7.983,7.906,11.031,10.551,6.09,27.65,6.09,38.2,0,5.275-3.048,7.906-7.036,7.906-11.031v-4.872C369.913,244.931,367.282,240.936,362.007,237.895Z" transform="translate(-315.9 -181.221)" fill="#90caf9"/><path d="M362.007,237.895c-10.551-6.09-27.65-6.09-38.2,0-5.275,3.041-7.906,7.036-7.906,11.024v4.872c0,3.995,2.631,7.983,7.906,11.031,10.551,6.09,27.65,6.09,38.2,0,5.275-3.048,7.906-7.036,7.906-11.031v-4.872C369.913,244.931,367.282,240.936,362.007,237.895Z" transform="translate(-315.9 -181.221)" fill="#a3edff" opacity="0.4"/><path d="M343.116,369.508c-6.493,0-12.98-1.427-17.921-4.28h0c-4.92-2.839-7.655-6.653-7.655-10.746s2.714-7.913,7.655-10.752c9.883-5.707,25.959-5.707,35.849,0,4.913,2.839,7.655,6.66,7.655,10.752s-2.714,7.906-7.655,10.746S349.61,369.508,343.116,369.508Zm-17.225-5.484c9.5,5.484,24.957,5.484,34.457,0,4.468-2.582,6.96-5.971,6.96-9.542s-2.464-6.96-6.96-9.548c-9.5-5.484-24.957-5.484-34.457,0-4.475,2.582-6.96,5.971-6.96,9.548S321.4,361.442,325.892,364.024Z" transform="translate(-316.399 -213.487)" fill="#37474f"/><path d="M357.434,212.493c-.529,0-1.107-.251-1.155-.793-2.234-25.006,3.522-47.631,5.749-52.649a1.169,1.169,0,0,1,1.489-.494,1.044,1.044,0,0,1,.529,1.392c-2.5,5.616-7.656,28.478-5.568,51.716,0,.452-.376.786-.946.842Z" transform="translate(-328.023 -158.457)" fill="#455a64"/><path d="M391.229,183.9,363.085,167.65l-1.148.7a133.628,133.628,0,0,0-3.229,17.239.7.7,0,0,0,.341.7L384.722,201.1l1.148-.7C387.367,194.1,391.229,183.9,391.229,183.9Z" transform="translate(-328.913 -161.252)" fill="#90caf9"/><path d="M391.229,183.9,363.085,167.65l-1.148.7a133.628,133.628,0,0,0-3.229,17.239.7.7,0,0,0,.341.7L384.722,201.1l1.148-.7C387.367,194.1,391.229,183.9,391.229,183.9Z" transform="translate(-328.913 -161.252)" opacity="0.4"/><path d="M363.38,168.318l1.148-.668,28.124,16.237-1.141.668Z" transform="translate(-330.336 -161.252)" fill="#90caf9" opacity="0.5"/><path d="M390.2,233.477c-.578,0-1.044-.209-1.044-.6,0-21.971,8.727-43.316,11.4-49.329a1.044,1.044,0,1,1,1.907.849c-2.631,5.922-11.24,26.919-11.219,48.48C391.248,233.087,390.782,233.477,390.2,233.477Z" transform="translate(-338.174 -165.898)" fill="#455a64"/></g><path d="M380.23,149.34c-.55-.5-1.211-.877-1.754-1.392a4.642,4.642,0,0,1-1.392-2.784c-.139-1.176.167-2.359.09-3.535a5.456,5.456,0,0,0-2.164-3.911c-1.357-1.023-3.062-1.1-4.5-1.949a5,5,0,0,1-2.046-2.2,7.412,7.412,0,0,1-.334-3.758,31.317,31.317,0,0,0-.118-8.073,17.7,17.7,0,0,0-3.939-8.351,16.7,16.7,0,0,0-13.919-6.09l-1.441.1A16.431,16.431,0,0,0,342,109.35l-.752.432a.953.953,0,0,1-.139.09c-.264.16-.522.334-.779.515s-.508.376-.759.578h0c-2.846,2.29-4,5.394-4.872,9.047-1.622,5.874-2.464,14.448.4,21.95a28.36,28.36,0,0,0,8.7,11.4c8.908,7.321,24.755,11.135,34.164,5.254C381.274,156.536,383.57,152.374,380.23,149.34Z" transform="translate(-284.139 -107.081)" fill="#455a64"/><path d="M343.58,108.23c-7.753.452-14.664,2.589-16.55,8.031s2.826,12.527,5.651,12.527C336.7,128.782,343.58,108.23,343.58,108.23Z" transform="translate(-282.127 -107.374)" fill="#455a64"/><path d="M339.438,372.469l-.856-.139c0-2.7.209-5.164-.432-6.445l1.288-3.285Z" transform="translate(-285.64 -184.714)" fill="#263238"/><path d="M342.316,359.21c-.23,1.844-1.315,3.716-1.468,7.356a31.019,31.019,0,0,0,0,4.656l-.9.216v-9.869Z" transform="translate(-286.187 -183.683)" fill="#263238"/><path d="M312.85,372.668a2.464,2.464,0,0,0,.564,1.357c.459.362,1.914,1.587,6.667,1.392s6.431-1.322,8.087-2.784,2.158-5.324,2.436-7.154a13.715,13.715,0,0,1,3.48-7.127,3.209,3.209,0,0,0,.181-1.844,5.98,5.98,0,0,0-5.707,4.016c-1.789,4.315-3.222,9.326-7.085,10.439A60.544,60.544,0,0,1,312.85,372.668Z" transform="translate(-277.947 -182.861)" fill="#37474f"/><path d="M315.342,360.677c-1.475,1.225-2.582,1.761-2.485,2.923s1.322,1.712,2.3,2.032a16.165,16.165,0,0,0,7.3.139c2.338-.369,4.969-1.392,6.013-3.619a9.335,9.335,0,0,0,.6-2.032,29.354,29.354,0,0,1,1.921-6.737,15.091,15.091,0,0,1,1.357-2.6,6.732,6.732,0,0,0,1.531-2.923c.111-.919-.571-2.234-1.468-3.654h0a8.713,8.713,0,0,1-1.343-5.359l.7-8.351-10.6,2.3,1.392,9.381c.362,2.457-.571,5.046-1.148,7.4a33.609,33.609,0,0,1-2.853,7.544,7.36,7.36,0,0,1-1.127,1.7,19.78,19.78,0,0,1-2.088,1.851Z" transform="translate(-277.948 -174.954)" fill="#ffa8a7"/><path d="M333.516,351.578c-.578-.919-1.281-1.622-1.761-2.568a7.856,7.856,0,0,0-1.141,1.942h0c-1.246,2.352-1.552,6.076-2.784,9.743a7.054,7.054,0,0,1-4.4,4.92,7.981,7.981,0,0,1-3.918.362h0c-2.457-.39-1.844-2.15-1.844-2.15a31.289,31.289,0,0,1-4.753,3.772,1.993,1.993,0,0,0-.251,2.784c.7.605,2.986,2.088,8.894,1.357,5.247-.654,6.521-3.041,7.036-4.12a25.988,25.988,0,0,0,1.19-4.872,15.311,15.311,0,0,1,1.942-5.171,6.12,6.12,0,0,1,.355-.543h0c.362-.515.786-1.079,1.267-1.635.376-.438.7-.64.786-1.058a3.681,3.681,0,0,0-.619-2.763Z" transform="translate(-277.756 -180.582)" fill="#75b51d"/><path d="M316.572,355.922l-.863-.118c-.077-2.693.056-5.164-.619-6.424l1.19-3.32Z" transform="translate(-278.628 -179.685)" fill="#263238"/><path d="M319.1,342.57c-.174,1.844-1.211,3.751-1.253,7.4a31.134,31.134,0,0,0,.132,4.649l-.884.244L316.8,345Z" transform="translate(-279.148 -178.624)" fill="#263238"/><path d="M290.21,356.69a2.457,2.457,0,0,0,.605,1.343c.466.348,1.956,1.475,6.7,1.155s6.4-1.448,8.01-2.944,2-5.38,2.227-7.217a13.5,13.5,0,0,1,3.264-7.224,3.139,3.139,0,0,0,.125-1.844,5.943,5.943,0,0,0-5.568,4.176c-1.642,4.364-2.951,9.416-6.779,10.655a60.128,60.128,0,0,1-8.581,1.9Z" transform="translate(-271.064 -177.83)" fill="#37474f"/><path d="M292.569,344.589c-1.441,1.267-2.533,1.83-2.394,2.986s1.392,1.677,2.352,1.963a15.97,15.97,0,0,0,7.3-.063c2.324-.431,4.934-1.559,5.909-3.793a9,9,0,0,0,.536-2.053,29.455,29.455,0,0,1,1.733-6.786,14.87,14.87,0,0,1,1.274-2.638,6.614,6.614,0,0,0,1.448-2.965c.09-.926-.633-2.22-1.566-3.605V327.6a8.643,8.643,0,0,1-1.5-5.31l.432-8.4-10.523,2.61,1.656,9.333c.438,2.45-.425,5.066-.933,7.433a33.342,33.342,0,0,1-2.638,7.656,7.237,7.237,0,0,1-1.072,1.726A19.945,19.945,0,0,1,292.569,344.589Z" transform="translate(-271.049 -169.904)" fill="#ffa8a7"/><path d="M310.3,334.972a29.571,29.571,0,0,1-1.83-2.512,7.655,7.655,0,0,0-1.086,1.97h0c-1.176,2.38-1.392,6.117-2.492,9.834-.835,2.784-2.269,4.273-4.245,5.046a7.969,7.969,0,0,1-3.911.473h0c-2.471-.32-1.914-2.088-1.914-2.088a30.483,30.483,0,0,1-4.635,3.911,1.976,1.976,0,0,0-.174,2.784c.7.585,3.048,2,8.929,1.1,5.227-.8,6.431-3.229,6.918-4.322a26.024,26.024,0,0,0,1.044-4.92,15.241,15.241,0,0,1,1.789-5.22c.118-.2.23-.39.341-.557h0c.348-.522.759-1.1,1.225-1.67.362-.445.647-.654.752-1.079A3.7,3.7,0,0,0,310.3,334.972Z" transform="translate(-270.857 -175.55)" fill="#75b51d"/><path d="M355.013,228.509a35.032,35.032,0,0,0-3.257-8.449c-10.084,4.8-20.217,4.656-30.378,1.392.362,1.107-2.408,3.7-9.743,8.769-5.317,3.668-13.613,8.915-17.677,12.144-2.088,1.635-4.211,3.744-3.285,9.66,1.253,8.01,6.96,36.071,6.96,36.071,6.9,2.457,10.439-1.622,10.439-1.622s1.086-10.69,1.963-19.3-1.573-13.383-1.573-13.383,20.05-7.175,27.88-8.79C349.453,242.289,356.74,240.639,355.013,228.509Z" transform="translate(-271.136 -141.375)" fill="#37474f"/><path d="M328.524,232.84s3.062,6.827,7.106,8.5l-14.183,14.573-5.067,1.775,4.684-2.874,10.878-13.39S328.483,237.545,328.524,232.84Z" transform="translate(-279.021 -145.261)" fill="#263238"/><path d="M314.431,283.083a75.681,75.681,0,0,0,2.053,8.136c.251-2.429.508-4.969.752-7.349a33.226,33.226,0,0,0-.042-7.461l-1.329-1.468C314.333,276.958,313.457,278.162,314.431,283.083Z" transform="translate(-278.303 -158.061)" fill="#263238"/><path d="M362.712,228.676h0a1.21,1.21,0,0,0,0-.167,35.03,35.03,0,0,0-3.257-8.449c-10.084,4.8-20.217,4.656-30.378,1.392a22.5,22.5,0,0,0,.7,6.076c1.441,7.537,5.616,9.931,5.616,9.931h0c-6.076,5.964-14.33,14.392-18.095,19.02-1.037,1.288-2.039,3.939-1.434,7.656,1.315,8,6.41,37.317,6.41,37.317,6.925,1.858,9.938-.828,9.938-.828s1.608-11.483,2.485-20.092a33.079,33.079,0,0,0-2.485-15.784s12.033-6.326,19.292-10.968C362.879,246.52,365.2,238.538,362.712,228.676Z" transform="translate(-278.807 -141.375)" fill="#37474f"/><path d="M320.123,162.285c-5.763-.181-8.254,1.921-11.88,9.047-2.826,5.568-5.63,11.455-7.962,15.513-5.616-.425-16.216-1.886-20.134-3.4a3.264,3.264,0,0,1-1.705-1.51,13.4,13.4,0,0,0-3.382-4.057c-1.134-1.009-1.392-2.324-1.956-2.3s-1.225.919-.926,2.2a18.052,18.052,0,0,0,1.524,2.833c-.919.188-4.106-1.225-6.1-3.424-2.652-2.923-5.2-1.5-4.872,3.375.1,1.747,2.6,6.18,9.284,9.368a53.017,53.017,0,0,0,7.836,2.707c6.96,2.039,13.856,4.329,18.881,4.837,3.9.4,6.041.7,8.866-2.436,8.205-9.228,11.365-17.649,14.935-23.662Z" transform="translate(-262.699 -123.806)" fill="#ffa8a7"/><path d="M333.178,162.177c-3.375-.216-5.769.216-7.767,1.691s-2.784,2.888-4.8,6.445-8.268,16.278-8.268,16.278l-7.551-.7a12.137,12.137,0,0,1,0,5.213,9.743,9.743,0,0,1-2,4.642,79.727,79.727,0,0,0,8.052,1.879c4.565.7,6.173,1,8.908-2.241s12.82-15.951,12.82-15.951Z" transform="translate(-274.892 -123.76)" fill="#8dd52c"/><path d="M363.129,200.067a6.2,6.2,0,0,1-1.079-3.883c.39-1.8,1.392-7.134,1.392-7.134h0l-1.879-7.934a30.4,30.4,0,0,1-.877-3.9c-.953-3.431-1.8-9.528.376-12.875l-4.085-.9a45.181,45.181,0,0,0-11.782-1.183l-3.661-.049s-8.449,9.514-10.224,13.78c-1.016,2.457-2.331,6.9,2.3,12.13.125,2.972-.383,7.843-.48,10.21s-.313,5.261-.612,7.447c1.392,3.062,6.41,8.122,17.3,7.774,11.288-.362,16.7-6,16.7-6A28.819,28.819,0,0,0,363.129,200.067Z" transform="translate(-283.261 -123.783)" fill="#a9f73f"/><path d="M348.33,197.127s2.9,3.334,8.783,2.088,6.876-5.735,6.876-5.735.578,5.735-6.458,7.175S348.33,197.127,348.33,197.127Z" transform="translate(-288.735 -133.294)" opacity="0.1"/><path d="M382.482,198.679c-1.072-4.92-3.292-13.376-5.526-22.145-2.415-9.479-4.649-9.562-10.439-10.634-4.357,5.338,0,17.809,0,17.809l4.976,17.225c-3.146,5.568-5.742,11.393-9.388,15.784-.626.759-1.754.7-2.735.835a19.672,19.672,0,0,0-5.895,1.684c-1.789.661-2.951.48-2.986.953a2.162,2.162,0,0,0,2.088,2.088,11.011,11.011,0,0,0,3.083-.139,22.269,22.269,0,0,1-5.247,3.306c-4.5,2.088-5.971,5.888.258,7.05,3.758.7,7.948-.174,13.731-5.686a61.2,61.2,0,0,0,6.806-7.628C376.323,212.063,383.15,202.765,382.482,198.679Z" transform="translate(-288.18 -124.908)" fill="#ffa8a7"/><path d="M373.417,165.27c3.146.6,5.7,1.12,6.994,2.088s2.088,1.684,3.2,4.872,5.971,22.779,6.333,24.484a7.867,7.867,0,0,1-.745,6.528,109.521,109.521,0,0,1-6.465,9.945,13.78,13.78,0,0,0-7.976-4.837l3.4-7.551-6.264-20.614S368.886,170.573,373.417,165.27Z" transform="translate(-295.602 -124.717)" fill="#8dd52c"/><path d="M375.661,107l-1.141,4.378a2.2,2.2,0,0,0,2.784-1.538A2.38,2.38,0,0,0,375.661,107Z" transform="translate(-296.698 -107)" fill="#455a64"/><path d="M379.584,112.72l-4.524.167a2.192,2.192,0,0,0,2.269,2.22A2.373,2.373,0,0,0,379.584,112.72Z" transform="translate(-296.862 -108.739)" fill="#455a64"/><path d="M340.179,118.38c-1.865,1.107-4.176,5.8-3.946,15.631.195,8.351,2.9,10.4,4.252,10.989s3.974.23,6.514-.188v5s-2.331,2.039-2.088,4.336,5.08,2.833,8.351.592a12.521,12.521,0,0,0,4.224-4.259V138.166s1.392,1.475,3.856-.209a4.552,4.552,0,0,0,1.169-6.619,3.359,3.359,0,0,0-5.1.605s-3.821.174-9.221-2.784S340.938,121.025,340.179,118.38Z" transform="translate(-285.052 -110.46)" fill="#ffa8a7"/><path d="M351,137.377a1.044,1.044,0,1,0,1.1-1.037,1.065,1.065,0,0,0-1.1,1.037Z" transform="translate(-289.547 -115.92)" fill="#263238"/><path d="M348.683,147.39l-3.013.96a1.552,1.552,0,0,0,1.963,1.079,1.649,1.649,0,0,0,1.051-2.039Z" transform="translate(-287.926 -119.28)" fill="#f28f8f"/><path d="M337.919,131.815l2.5-.654a1.239,1.239,0,0,0-1.531-.94A1.392,1.392,0,0,0,337.919,131.815Z" transform="translate(-285.562 -114.048)" fill="#263238"/><path d="M352.18,131.365,354.5,132.5a1.232,1.232,0,0,0-.543-1.712A1.392,1.392,0,0,0,352.18,131.365Z" transform="translate(-289.905 -114.195)" fill="#263238"/><path d="M338.3,136.287a1.051,1.051,0,1,0,1.107-1.037,1.072,1.072,0,0,0-1.107,1.037Z" transform="translate(-285.685 -115.589)" fill="#263238"/><path d="M345.144,135.88l-.167,6.312-3.327-1.03Z" transform="translate(-286.704 -115.781)" fill="#f28f8f"/><path d="M351.7,154.56c2.686-.355,8.2-1.942,9.047-4.12a5.7,5.7,0,0,1-1.935,2.784c-1.649,1.392-7.127,3-7.127,3Z" transform="translate(-289.756 -120.208)" fill="#f28f8f"/></g><g transform="translate(90.763 82.1)"><g transform="translate(0 0)"><g transform="translate(0 39.067)"><path d="M144.069,370.741h0V281.29h2.944v89.451h0a.7.7,0,0,1-.418.7,2.3,2.3,0,0,1-2.088,0,.7.7,0,0,1-.438-.7Z" transform="translate(-107.898 -195.802)" fill="#37474f"/><path d="M114.069,357.922h0V272.18h2.937v85.742h0a.7.7,0,0,1-.418.7,2.332,2.332,0,0,1-2.088,0A.7.7,0,0,1,114.069,357.922Z" transform="translate(-98.777 -193.032)" fill="#37474f"/><path d="M177.146,357.922h0V272.18h-2.937v85.742h0a.7.7,0,0,0,.418.7,2.332,2.332,0,0,0,2.088,0A.7.7,0,0,0,177.146,357.922Z" transform="translate(-117.062 -193.032)" fill="#37474f"/><path d="M114.866,241.315c10.544-6.09,27.65-6.09,38.2,0,5.268,3.041,7.906,7.036,7.9,11.024v4.872c0,3.995-2.631,7.983-7.906,11.031-10.544,6.09-27.65,6.09-38.194,0-5.275-3.048-7.906-7.036-7.906-11.031v-4.872C106.988,248.351,109.591,244.356,114.866,241.315Z" transform="translate(-96.616 -182.259)" fill="#455a64"/><path d="M114.866,237.895c10.544-6.09,27.65-6.09,38.2,0,5.268,3.041,7.906,7.036,7.9,11.024v4.872c0,3.995-2.631,7.983-7.906,11.031-10.544,6.09-27.65,6.09-38.194,0-5.275-3.048-7.906-7.036-7.906-11.031v-4.872C106.988,244.931,109.591,240.936,114.866,237.895Z" transform="translate(-96.616 -181.22)" fill="#90caf9"/><path d="M114.866,237.895c10.544-6.09,27.65-6.09,38.2,0,5.268,3.041,7.906,7.036,7.9,11.024v4.872c0,3.995-2.631,7.983-7.906,11.031-10.544,6.09-27.65,6.09-38.194,0-5.275-3.048-7.906-7.036-7.906-11.031v-4.872C106.988,244.931,109.591,240.936,114.866,237.895Z" transform="translate(-96.616 -181.22)" fill="#1d7e96" opacity="0.4"/><ellipse cx="27.01" cy="15.596" rx="27.01" ry="15.596" transform="translate(10.337 52.103)" fill="#f6f6f6" opacity="0.5"/><path d="M135,369.508c-6.493,0-12.987-1.427-17.928-4.28s-7.655-6.653-7.655-10.746,2.707-7.913,7.655-10.752c9.883-5.707,25.966-5.707,35.849,0,4.92,2.839,7.656,6.66,7.656,10.752s-2.707,7.906-7.656,10.746h0C147.983,368.082,141.49,369.508,135,369.508Zm0-28.687a35.422,35.422,0,0,0-17.232,4.113c-4.468,2.582-6.96,5.971-6.96,9.548s2.464,6.96,6.96,9.542c9.5,5.484,24.957,5.484,34.457,0h0c4.468-2.582,6.96-5.971,6.96-9.542s-2.464-6.96-6.96-9.548C147.482,342.192,141.239,340.821,135,340.821Z" transform="translate(-97.364 -213.486)" fill="#37474f"/><path d="M139.373,212.492c.536,0,1.107-.251,1.155-.793,2.234-25.006-3.515-47.631-5.749-52.649a1.155,1.155,0,0,0-1.482-.494,1.044,1.044,0,0,0-.529,1.392c2.492,5.616,7.656,28.478,5.568,51.716,0,.452.369.786.947.842Z" transform="translate(-104.434 -158.455)" fill="#455a64"/><path d="M95,183.907l28.13-16.237,1.148.7a134.8,134.8,0,0,1,3.229,17.239.7.7,0,0,1-.341.7l-25.674,14.824-1.148-.7A166.592,166.592,0,0,0,95,183.907Z" transform="translate(-92.979 -161.257)" fill="#90caf9"/><path d="M95,183.907l28.13-16.237,1.148.7a134.8,134.8,0,0,1,3.229,17.239.7.7,0,0,1-.341.7l-25.674,14.824-1.148-.7A166.592,166.592,0,0,0,95,183.907Z" transform="translate(-92.979 -161.257)" opacity="0.4"/><path d="M124.3,168.318l-1.148-.668L95.02,183.887l1.148.668Z" transform="translate(-92.985 -161.251)" fill="#90caf9" opacity="0.5"/><path d="M104.417,233.5c.578,0,1.044-.209,1.044-.6,0-21.971-8.72-43.316-11.393-49.329a1.044,1.044,0,0,0-1.914.821c2.638,5.923,11.24,26.919,11.219,48.48C103.373,233.111,103.861,233.5,104.417,233.5Z" transform="translate(-92.097 -165.92)" fill="#455a64"/></g><g transform="translate(7.799)"><path d="M137.179,105.327l-.09.056c-4.064,2.61-8.692,3.417-12.332,6.82a14.838,14.838,0,0,0-4.872,12.04c.418,9.569,8.143,14.483,10.753,17.294.125.132,1.009.042,1.183.049l2.645.125c.64,0,1.448.369,2.088.181.807-.258,1.392-1.322,1.886-1.956,3.883-5.171,10.293-7.614,14.462-12.527a14.907,14.907,0,0,0,3.4-5.672c.557-2.15.077-4.726-1.712-6.048a4.8,4.8,0,0,0-4.955-7.516,4.194,4.194,0,0,0-1.809-5,6.876,6.876,0,0,0-5.609-.452A21.06,21.06,0,0,0,137.179,105.327Z" transform="translate(-108.334 -102.321)" fill="#263238"/><path d="M129.726,158.8c-1.684,2.923-5.658,3.8-8.866,1.949a6.434,6.434,0,0,1-2.742-8.658c1.691-2.93,5.658-3.793,8.866-1.942A6.42,6.42,0,0,1,129.726,158.8Z" transform="translate(-107.577 -116.565)" fill="#263238"/><path d="M167.027,300.219c-2.944-.7-5.756,1.392-6.083,2.13-.445,1-.557,3.1.383,5.811a18.025,18.025,0,0,1,.445,8.268c-.473,2.338-2.234,8.108-.167,11.323s7.078,6.368,9.4,2.519c.752-1.26,0-5.992-.181-9.4-.376-6.8-.515-13.529-.515-13.529Z" transform="translate(-120.728 -162.448)" fill="#263238"/><path d="M167.46,307.8a64.832,64.832,0,0,1-.3,9.883c-.438,3.577.063,6.02,1.127,7.753,1.176,1.907,4.482,3.264,4.475-.473,0-2.6-.515-15.276-.515-15.276Z" transform="translate(-122.671 -164.796)" fill="#b16668"/><path d="M162.66,301.288c-.376,2.192.383,7.593,2.846,12.826,2.408,5.129,5.881,11.831,6.333,15.367.251-1.573-.1-4.531-.32-7.161v-.828a3.183,3.183,0,0,0-.035-.578h0c-.118-2.13-.209-4.245-.285-6.152-.063-1.524-.1-2.916-.139-4.071a14.881,14.881,0,0,0-.049-1.538v-1.768l-3.278-7.12c-.195-.049-.383-.077-.571-.1A6.584,6.584,0,0,0,162.66,301.288Z" transform="translate(-121.323 -162.46)" opacity="0.15"/><path d="M180.283,237.134c-8.219-6.333-18.185-12.3-18.185-12.3l-11.2,11.727,9.6,9.743,14.754,9.966a20.135,20.135,0,0,0-4.141,5.909c-.557,1.2-1.448,3.612-2.4,6.347l4.934,16.974s10.314-14.615,16.146-24.56c4.628-7.9,3.584-11.483,2.839-12.632C190.639,245.263,189.247,244.038,180.283,237.134Z" transform="translate(-117.775 -139.569)" fill="#37474f"/><path d="M174.542,259.716c-.766-1.079-1.573-2.088-2.38-3.1-3.055-3.737-11.01-12.882-11.01-12.882l-1.392.856,6.382,9.465Z" transform="translate(-120.469 -145.316)" fill="#263238"/><path d="M185.321,295.9c0-6.083-.1-14.566-.327-17.573a16.863,16.863,0,0,0-1.977-6.5,22,22,0,0,0-2.638,4.009l3.779,21.749Z" transform="translate(-126.738 -153.859)" fill="#263238"/><path d="M175.167,349c-.7-.118-.9,1.113-1.5,2.645a8.066,8.066,0,0,0-.731,4.7c.39,2.053,3.48,2.784,4.76,5.6s2.986,7.781,8.351,9.959,9.994,1.065,11.337-.418.7-3.229-2.547-5.909c-3.424-2.846-4.391-3.675-4.391-3.675Z" transform="translate(-124.448 -177.319)" fill="#263238"/><path d="M184.4,336.69a86.635,86.635,0,0,0,1.782,10.119,40.167,40.167,0,0,0,5.428,10.989c.515.773,1.719,2.241,2.137,2.86a1.1,1.1,0,0,1-.327,1.663c-1.392,1.016-6.625.633-9.263-1.928s-4.7-7.565-6.215-9.542a26.963,26.963,0,0,1-1.587-2.3,3.64,3.64,0,0,1-.6-2.443,10.5,10.5,0,0,0,.209-3.382,38.176,38.176,0,0,0-.814-4.5Z" transform="translate(-125.148 -173.58)" fill="#b16668"/><path d="M118.973,223.28c-1.83,5.512-3.055,7.377-1.9,13.39s7.1,11.588,14.441,17.232c6.069,4.67,15.04,11.435,16.891,12.527s1.907,2.338,1.148,6.048-.251,10,2.923,18.2c3.361,8.665,5.08,14.483,5.08,14.483a10.5,10.5,0,0,0,9.479-1.538s-2.652-37.665-3.689-42.773-17.4-23.287-17.4-23.287,3.57-7.774,5.749-13.223Z" transform="translate(-107.353 -139.098)" fill="#37474f"/><path d="M164.79,236.65s-1.656,4.238-5.06,5.783l1.336,1.51a9.862,9.862,0,0,0,3.723-7.294Z" transform="translate(-120.46 -143.163)" fill="#263238"/><path d="M154.2,162.285c5.769-.181,8.261,1.921,11.88,9.047,2.833,5.568,5.637,11.455,7.962,15.513,5.623-.425,16.216-1.886,20.141-3.4a3.222,3.222,0,0,0,1.7-1.51,13.425,13.425,0,0,1,3.389-4.057c1.127-1.009,1.392-2.324,1.949-2.3s1.232.919.933,2.2a19.316,19.316,0,0,1-1.524,2.833c.919.188,4.106-1.225,6.1-3.424,2.659-2.923,5.206-1.5,4.906,3.375-.1,1.747-2.6,6.18-9.291,9.368a52.469,52.469,0,0,1-7.836,2.707c-6.96,2.039-13.849,4.329-18.881,4.837-3.89.4-6.034.7-8.859-2.436-8.233-9.194-11.4-17.615-14.97-23.628Z" transform="translate(-118.045 -120.549)" fill="#b16668"/><path d="M155.25,162.255a9.631,9.631,0,0,1,6.57,1.315A15.142,15.142,0,0,1,166,168.442c.285,2.3-1.107,8.164-6.382,11.5Z" transform="translate(-119.097 -120.519)" fill="#ff8900"/><path d="M121.516,200.094a6.153,6.153,0,0,0,1.072-3.883c-.383-1.8-1.392-7.134-1.392-7.134h0l-1.281-5.456s3.57-5.568,4.05-8.518.438-5.046-.9-10.335l6.124-1.1a39.42,39.42,0,0,1,10.244-1.274l4.524-.1s8.351,8.8,9.632,12.673a13.463,13.463,0,0,1-1.983,12.611c-.118,2.972-.195,8.428-.1,10.794s.32,5.261.619,7.447c-1.392,3.062-6.41,8.122-17.308,7.774-11.281-.362-16.7-6-16.7-6a28.534,28.534,0,0,1,3.4-7.5Z" transform="translate(-107.808 -120.554)" fill="#ff8900"/><path d="M158.887,217.37a4.288,4.288,0,0,1-1.642-.425,4.134,4.134,0,0,1-1.677-2.652c-.362-1.211-.856-3.821-.153-5.053.9-1.566,2.9-1.392,4.231-1.274l.459.035-.146,2.088-.494-.035c-.745-.07-2-.174-2.227.223-.362.793.355,4.3,1,4.8a3.264,3.264,0,0,0,1.942.09l.536,2.039a6.132,6.132,0,0,1-1.823.16Z" transform="translate(-119.039 -134.42)" fill="#e6e6e6"/><path d="M161.754,203.9c.195-.64.884-1.225,2.088-1.642a13.7,13.7,0,0,1,9.562.7c1.107.571,1.712,1.246,1.823,1.907h.035c.153,4.308-.953,9.207-2.666,11.831a.392.392,0,0,0-.035.056v.035h0a3.194,3.194,0,0,1-1.329,1.093,8.031,8.031,0,0,1-7.259-.508,3.32,3.32,0,0,1-1.162-1.26h0V216c-1.329-2.846-1.747-7.85-1-12.089Z" transform="translate(-120.981 -132.539)" fill="#f5f5f5"/><path d="M163.929,202.259c-2.721.96-2.853,2.826-.292,4.176a13.794,13.794,0,0,0,9.569.7c2.721-.967,2.846-2.826.285-4.176a13.7,13.7,0,0,0-9.562-.7Z" transform="translate(-121.089 -132.539)" fill="#fafafa"/><path d="M165.37,203.487c-2.178.6-2.269,1.816-.188,2.714a13.585,13.585,0,0,0,7.718.536c2.185-.605,2.269-1.816.188-2.714a13.522,13.522,0,0,0-7.718-.536Z" transform="translate(-121.66 -132.98)" fill="#e6e6e6"/><path d="M165.517,205.859a4.175,4.175,0,0,0-1.107.466,4.132,4.132,0,0,0,1.03.612,13.585,13.585,0,0,0,7.718.536,3.967,3.967,0,0,0,1.107-.466,4.058,4.058,0,0,0-1.03-.605,13.585,13.585,0,0,0-7.718-.543Z" transform="translate(-121.883 -133.703)" fill="#37474f"/><path d="M110.052,211.282c9.827,1.148,33.816-.585,33.816-.585,3.522-.223,8.713-.7,11.135-3.215a13.59,13.59,0,0,0,2.853-6.145c.6-3.118-3.626.473-7.12.612a16.585,16.585,0,0,1-6.96-1.594,27.139,27.139,0,0,1-.181-3.076c-1.587,0-2.84,4.739-4.134,5.616-1.573,1.058-25.054-3.438-25.054-3.438l3.341-13.606a45.235,45.235,0,0,1,1.893-6.9c1.434-4.092,1.183-7.175-1.086-13.1,0,0-6.591.494-8.511,4.489s-3.013,9.743-4.552,17.4-2.519,17.622-2.088,19.389C103.983,209.876,106.252,210.836,110.052,211.282Z" transform="translate(-103.303 -121.637)" fill="#b16668"/><path d="M120.578,165.85c-3.48,0-7.871,1.253-8.922,4.329a58.713,58.713,0,0,0-1.726,6.354c2.84.6,7.252,3.146,9.841,9.319,0,0,.738-2.046,2.088-6.09C124.148,172.42,121.754,167.52,120.578,165.85Z" transform="translate(-105.318 -121.637)" fill="#ff8900"/><path d="M145.287,197.127s-2.888,3.334-8.776,2.088-6.876-5.735-6.876-5.735-.585,5.735,6.458,7.175C143.025,202.089,145.287,197.127,145.287,197.127Z" transform="translate(-111.306 -130.037)" opacity="0.1"/><path d="M148.4,118.38c1.865,1.107,4.176,5.8,3.939,15.631-.188,8.351-2.888,10.4-4.245,10.989s-3.974.23-6.521-.188v5s3.515,4.085,3.3,6.382-5.08,2.833-8.351.592a21.324,21.324,0,0,1-5.394-5.651V138.166s-1.392,1.475-3.856-.209a4.538,4.538,0,0,1-1.183-6.619,3.359,3.359,0,0,1,5.1.605s3.417-.3,8.818-3.264A17.4,17.4,0,0,0,148.4,118.38Z" transform="translate(-109.943 -107.203)" fill="#b16668"/><path d="M133.83,140.265h0V135.88h2.784v1.587a2.784,2.784,0,0,1-2.784,2.8Z" transform="translate(-112.585 -112.524)" fill="#263238"/><path d="M148.592,137.377a1.051,1.051,0,1,1-1.1-1.037A1.072,1.072,0,0,1,148.592,137.377Z" transform="translate(-116.434 -112.664)" fill="#263238"/><path d="M150.437,147.75l3.2,1.016a1.649,1.649,0,0,1-2.088,1.148A1.754,1.754,0,0,1,150.437,147.75Z" transform="translate(-117.612 -116.133)" fill="#9a4a4d"/><path d="M161.948,132.311l-2.088-1.475a1.232,1.232,0,0,1,1.761-.355A1.35,1.35,0,0,1,161.948,132.311Z" transform="translate(-120.499 -110.813)" fill="#263238"/><path d="M161.206,136.286a1.058,1.058,0,0,1-.988,1.141,1.093,1.093,0,1,1,.988-1.141Z" transform="translate(-120.244 -112.332)" fill="#263238"/><path d="M153.8,135.88l.167,6.312,3.32-1.03Z" transform="translate(-118.657 -112.524)" fill="#9a4a4d"/><path d="M144.8,154.56c-2.679-.355-8.2-1.942-9.047-4.12a5.638,5.638,0,0,0,1.935,2.784c1.649,1.392,7.12,3,7.12,3Z" transform="translate(-113.169 -116.951)" fill="#9a4a4d"/></g></g></g><g transform="translate(111.797 35.815)"><path d="M143.212,94.888l-3.856-2.227a.369.369,0,0,1-.181-.16l-.7-1.239,2.29-1.322-.07.2Z" transform="translate(-127.233 -52.271)" fill="#90caf9"/><path d="M143.212,94.888l-3.856-2.227a.369.369,0,0,1-.181-.16l-.7-1.239,2.29-1.322-.07.2Z" transform="translate(-127.233 -52.271)" opacity="0.2"/><path d="M141.25,88.644l2.672,4.628a.4.4,0,0,0,.7-.07L147.4,85.06Z" transform="translate(-128.076 -50.788)" fill="#ff8900"/><path d="M159.156,40.37a4.113,4.113,0,0,0-1.865-3.229l-1.517-.877a4.1,4.1,0,0,0-3.73,0L124.205,52.271A4.113,4.113,0,0,0,122.34,55.5V73.08a4.127,4.127,0,0,0,1.851,3.229l1.517.877a4.176,4.176,0,0,0,3.73,0l28.026-16.118a2.89,2.89,0,0,0,1.691-3.1Z" transform="translate(-122.326 -35.815)" fill="#ff8900"/><path d="M122.32,80.871a4.127,4.127,0,0,0,1.865,3.229l1.517.877a4.176,4.176,0,0,0,3.41.153c-.877.334-1.545-.167-1.545-1.232V66.3a3.786,3.786,0,0,1,.55-1.837L122.87,61.44a3.765,3.765,0,0,0-.55,1.837Z" transform="translate(-122.32 -43.606)" opacity="0.2"/><path d="M159.337,39.844c-.216-.793-.94-1.044-1.8-.55L129.7,55.3a3.737,3.737,0,0,0-1.315,1.392l-5.241-3.027a3.779,3.779,0,0,1,1.308-1.392l27.838-16.007a4.176,4.176,0,0,1,3.737,0l1.517.877A4.1,4.1,0,0,1,159.337,39.844Z" transform="translate(-122.569 -35.818)" fill="#fff" opacity="0.4"/><path d="M136.567,72.6l11.393-6.514c.619-.362,1.127-.195,1.127.369a2.269,2.269,0,0,1-1.127,1.67L136.567,74.64c-.619.362-1.127.195-1.127-.369A2.269,2.269,0,0,1,136.567,72.6Z" transform="translate(-126.309 -44.961)" fill="#fff"/><path d="M136.567,77.975,155.8,66.916c.619-.362,1.127-.195,1.127.369a2.269,2.269,0,0,1-1.127,1.67L136.567,80.014c-.619.362-1.127.195-1.127-.369A2.255,2.255,0,0,1,136.567,77.975Z" transform="translate(-126.309 -45.213)" fill="#fff"/><path d="M136.567,62.876,155.8,51.8c.619-.362,1.127-.195,1.127.362a2.283,2.283,0,0,1-1.127,1.677l-19.229,11.08c-.619.362-1.127.2-1.127-.362A2.283,2.283,0,0,1,136.567,62.876Z" transform="translate(-126.309 -40.616)" fill="#fff"/><g transform="translate(142.601 0)"><path d="M357.18,94.888l3.856-2.227a.369.369,0,0,0,.181-.16l.7-1.239-2.29-1.322.07.2Z" transform="translate(-336.329 -52.271)" fill="#90caf9"/><path d="M357.18,94.888l3.856-2.227a.369.369,0,0,0,.181-.16l.7-1.239-2.29-1.322.07.2Z" transform="translate(-336.329 -52.271)" fill="#263238"/><path d="M358.525,88.644l-2.666,4.628a.4.4,0,0,1-.7-.07L352.38,85.06Z" transform="translate(-334.87 -50.788)" fill="#8dd52c"/><path d="M327.22,40.37a4.113,4.113,0,0,1,1.865-3.229l1.517-.877a4.1,4.1,0,0,1,3.73,0l27.838,16.007a4.113,4.113,0,0,1,1.865,3.229V73.08a4.127,4.127,0,0,1-1.851,3.229l-1.517.877a4.176,4.176,0,0,1-3.73,0L328.911,61.068a2.89,2.89,0,0,1-1.691-3.1Z" transform="translate(-327.22 -35.815)" fill="#8dd52c"/><path d="M377.173,80.871a4.127,4.127,0,0,1-1.865,3.229l-1.517.877a4.176,4.176,0,0,1-3.41.153c.877.334,1.545-.167,1.545-1.232V66.3a3.785,3.785,0,0,0-.55-1.837l5.247-3.027a3.765,3.765,0,0,1,.55,1.837Z" transform="translate(-340.343 -43.606)" fill="#75b51d"/><path d="M327.31,39.844c.216-.793.94-1.044,1.8-.55L356.951,55.3a3.738,3.738,0,0,1,1.315,1.392l5.247-3.027a3.793,3.793,0,0,0-1.315-1.392L334.36,36.267a4.176,4.176,0,0,0-3.737,0l-1.517.877a4.1,4.1,0,0,0-1.8,2.7Z" transform="translate(-327.247 -35.818)" fill="#75b51d"/><path d="M347.073,65.35l-11.386-6.514c-.619-.362-1.127-.195-1.127.362a2.283,2.283,0,0,0,1.127,1.677l11.386,6.514c.626.362,1.134.195,1.134-.369a2.248,2.248,0,0,0-1.134-1.67Z" transform="translate(-329.452 -42.756)" fill="#edffd5"/><path d="M355.047,77.164,335.817,66.078c-.619-.355-1.127-.195-1.127.369a2.283,2.283,0,0,0,1.127,1.677L355.047,79.19c.619.362,1.127.195,1.127-.369A2.269,2.269,0,0,0,355.047,77.164Z" transform="translate(-329.491 -44.959)" fill="#edffd5"/><path d="M355.047,62.076,335.817,51c-.619-.362-1.127-.195-1.127.369a2.269,2.269,0,0,0,1.127,1.67l19.229,11.087c.619.362,1.127.195,1.127-.369A2.269,2.269,0,0,0,355.047,62.076Z" transform="translate(-329.491 -40.373)" fill="#edffd5"/></g></g></g></svg>