<svg xmlns="http://www.w3.org/2000/svg" width="468.718" height="252.578" viewBox="0 0 468.718 252.578"><g transform="translate(-860 -1943.887)"><path d="M80,0H468.718a0,0,0,0,1,0,0V116.309a80,80,0,0,1-80,80H0a0,0,0,0,1,0,0V80A80,80,0,0,1,80,0Z" transform="translate(860 2000.156)" fill="#35a3be" opacity="0.2"/><g transform="translate(873.685 1820.663)"><g transform="translate(129.315 344.822)"><path d="M204.013,461.688c0,.12-40.65.208-90.758.208s-90.766-.088-90.766-.208,40.65-.208,90.766-.208S204.013,461.576,204.013,461.688Z" transform="translate(-22.49 -461.48)" fill="#263238"/></g><g transform="translate(129.315 123.224)"><path d="M418.834,238.315c-.632-2.71,2.566-12.08.5-12.288-2.631-.264-3.078,10.393-3.2,11.337s-1.471.8-1.343,0c.192-1.231,1.943-13.28-.712-13.3-1.471,0-1.535,2.662-1.535,2.662s-.991,11.873-2.247,11.817-.36-6.812-.232-9.322-1.079-3.8-1.975-2.758c-1.3,1.527-1.3,7.651-1.463,10.058s-.8,9.338-3.294,5.876-5.676-5.221-6.852-5.1-1.391,1.815-.256,2.478a15.687,15.687,0,0,1,3.11,2.966,15.4,15.4,0,0,1,1.8,2.95,13.266,13.266,0,0,1,1.3,4.2,8.251,8.251,0,0,0,3.662,5.7l-.144,19.02-.568,9.37,14.815,5.141-1.951-33.579c.728-6.452,3.574-14.607,4.605-18.388,1.655-6.036.879-6.292.144-6.324C421.377,230.768,419.442,240.961,418.834,238.315Z" transform="translate(-247.592 -192.278)" fill="#a36957"/><path d="M419.681,252.1a14.06,14.06,0,0,0-1.815.3,6.909,6.909,0,0,0-4.341,3.646l-.1.192-.144-.144a10.585,10.585,0,0,0-2.806-2.055c-.8-.392-1.287-.544-1.279-.592a4.316,4.316,0,0,1,1.359.416,9.471,9.471,0,0,1,2.942,2.007l-.24.048a6.82,6.82,0,0,1,.744-1.231,7.011,7.011,0,0,1,1.9-1.711,6.483,6.483,0,0,1,1.911-.8,5.844,5.844,0,0,1,1.367-.16A1.958,1.958,0,0,1,419.681,252.1Z" transform="translate(-250.342 -197.884)" fill="#7c3b29"/><path d="M419.8,263.266a11.041,11.041,0,0,1-6.4.208c0-.1,1.447.128,3.2.072S419.772,263.178,419.8,263.266Z" transform="translate(-251.184 -200.136)" fill="#7c3b29"/><path d="M309.41,197.813a11.129,11.129,0,0,1,9.114-10,14.392,14.392,0,0,0,3.758-.7,21.365,21.365,0,0,0,2.6-1.743,7.435,7.435,0,0,1,9.194,1.239c2.127,2.35,2.67-1.167,7.451,1.231,4,1.991,2.207,5.277,2.207,5.277a8.523,8.523,0,0,1,8.922,6.14c.632,2.4.344,5.437,2.4,6.9.983.712,2.286.8,3.3,1.5,1.871,1.247,2.127,3.886,1.879,6.124s-.759,4.621.208,6.652c1.6,3.334,6.564,4.341,7.427,7.931.408,1.695-.168,3.8,1.119,4.981a6,6,0,0,0,1.871.919,7.787,7.787,0,0,1,1.279,13.767c-.664.424-1.463.8-1.679,1.6s.376,1.671.8,2.4a7.483,7.483,0,0,1-9.922,10.433,11.729,11.729,0,0,1-6.468,5.94,7.116,7.116,0,0,1-4.069.4,8.218,8.218,0,0,1-2.926-1.527c-4.213-3.2-10.162-8.067-10.905-13.288" transform="translate(-230.333 -184.308)" fill="#263238"/><path d="M309.244,209.172l-.184-3.742,22.338-4.973c6.916-.951,14.623,5.764,15.278,12.7.727,7.715,1.311,17.165.576,22.962-1.487,11.657-10.33,13.408-10.33,13.408l.312,11.513-25.64,1.119Z" transform="translate(-230.263 -187.528)" fill="#a36957"/><path d="M350.11,226.592a1.487,1.487,0,0,1-1.391,1.543,1.431,1.431,0,0,1-1.6-1.3,1.5,1.5,0,0,1,1.391-1.543,1.423,1.423,0,0,1,1.6,1.3Z" transform="translate(-237.894 -192.524)" fill="#263238"/><path d="M351.767,222.268c-.184.2-1.335-.6-2.934-.544s-2.75.887-2.926.7.088-.44.584-.8a4.109,4.109,0,0,1,2.343-.8,3.917,3.917,0,0,1,2.334.672C351.671,221.837,351.855,222.181,351.767,222.268Z" transform="translate(-237.64 -191.63)" fill="#263238"/><path d="M331.422,227.523a1.5,1.5,0,0,1-1.383,1.551,1.423,1.423,0,0,1-1.6-1.3,1.5,1.5,0,0,1,1.383-1.551,1.431,1.431,0,0,1,1.6,1.3Z" transform="translate(-234.149 -192.711)" fill="#263238"/><path d="M332.1,223.257c-.176.2-1.335-.6-2.934-.552s-2.75.9-2.926.7.088-.44.592-.8a4.118,4.118,0,0,1,2.335-.8,3.942,3.942,0,0,1,2.342.68C332.009,222.817,332.185,223.161,332.1,223.257Z" transform="translate(-233.696 -191.827)" fill="#263238"/><path d="M341.009,234.9a10.331,10.331,0,0,1,2.59-.552c.408-.056.8-.152.848-.432a2.1,2.1,0,0,0-.3-1.2c-.416-.975-.856-2-1.311-3.078-1.815-4.373-3.142-8-2.966-8.051s1.791,3.414,3.614,7.8c.432,1.079.855,2.111,1.247,3.094a2.318,2.318,0,0,1,.264,1.6,1,1,0,0,1-.656.616,2.648,2.648,0,0,1-.688.12,10.823,10.823,0,0,1-2.638.088Z" transform="translate(-236.437 -191.783)" fill="#263238"/><path d="M339.892,260.978A30.694,30.694,0,0,1,323.83,257.3s4.173,8,16.142,6.564Z" transform="translate(-233.225 -198.943)" fill="#7c3b29"/><path d="M339.42,242.834a2.878,2.878,0,0,0-2.622-.991,2.631,2.631,0,0,0-1.783,1.031,1.663,1.663,0,0,0-.072,1.911,1.951,1.951,0,0,0,2.119.464,6.085,6.085,0,0,0,2.007-1.279,1.822,1.822,0,0,0,.44-.488.544.544,0,0,0,0-.6" transform="translate(-235.399 -195.837)" fill="#7c3b29"/><path d="M335.4,239.8c.256,0,.312,1.719,1.839,2.9s3.366.943,3.39,1.183c0,.112-.4.352-1.183.4a4.358,4.358,0,0,1-2.814-.887,3.774,3.774,0,0,1-1.439-2.438C335.1,240.232,335.281,239.8,335.4,239.8Z" transform="translate(-235.498 -195.434)" fill="#263238"/><path d="M332.024,215.471c-.144.448-1.743.288-3.614.576s-3.374.839-3.638.456c-.12-.184.136-.6.736-1.039a6.348,6.348,0,0,1,5.525-.8C331.728,214.935,332.088,215.263,332.024,215.471Z" transform="translate(-233.408 -190.333)" fill="#263238"/><path d="M350.961,216.465c-.272.376-1.383,0-2.71.056s-2.438.32-2.71-.056c-.12-.176.048-.552.528-.911a3.918,3.918,0,0,1,4.365,0C350.913,215.913,351.081,216.281,350.961,216.465Z" transform="translate(-237.57 -190.439)" fill="#263238"/><path d="M348.318,198.315c-1.6,4.181-5.309,10.505-9.714,11.257a13.128,13.128,0,0,1-11.992-4.405c-.512,3.334-4.093,5.261-7.387,5.972a13.328,13.328,0,0,1-7.068-.136,7.019,7.019,0,0,1-4.709-4.949c-.472-2.335,2.59-8.283,4.917-8.794" transform="translate(-229.93 -186.905)" fill="#263238"/><path d="M310.24,260.061a9.138,9.138,0,0,1-6.092,8.571,6.476,6.476,0,0,1-12.32,3.406,7.81,7.81,0,0,0-1.087-2.119c-1.231-1.351-3.422-.911-5.2-1.351-3.2-.8-4.837-4.525-4.717-7.827a8.3,8.3,0,0,0-.048-1.943c-.288-1.3-1.391-2.231-2.231-3.262-3.47-4.237-2.622-10.817.568-15.27,1.063-1.479,2.4-3.054,2.191-4.861a9.8,9.8,0,0,0-1.2-2.8,8.3,8.3,0,0,1,1.6-9.17,1.807,1.807,0,0,0,.8-2.175,9.682,9.682,0,0,1,7.419-10.9,2.286,2.286,0,0,0,.839-.256c.72-.44.672-1.463.7-2.3.1-2.223,1.511-6.452,3.086-7.995,4.381-4.317,9.138-1.4,10.865,0,0,0,4.333,15.614,3.926,18.612s-2.047,10.505-.951,13.783,3,10.026,1.863,13.128S310.24,260.061,310.24,260.061Z" transform="translate(-223.696 -186.961)" fill="#263238"/><path d="M351.957,438.4s33.851,9.37,35.178,9.85c2.039.712,1.695,8.187-1.479,8.067-1.5-.056-26,.911-29.094.72s-12.432-3.87-12.432-3.87Z" transform="translate(-237.295 -235.254)" fill="#35a3be"/><path d="M371.544,452.854a29.272,29.272,0,0,1,1.5-3.63c1.1-1.863,2.494-2.982,2.4-3.118s-1.743.8-2.886,2.838S371.4,452.871,371.544,452.854Z" transform="translate(-242.779 -236.797)" fill="#263238"/><path d="M367.131,450.928c.168,0,.512-1.6,1.415-3.334s1.967-3.006,1.839-3.126-1.415,1-2.342,2.87A7.022,7.022,0,0,0,367.131,450.928Z" transform="translate(-241.899 -236.469)" fill="#263238"/><path d="M362.942,449.738a23.568,23.568,0,0,1,.8-3.574c.76-1.879,1.967-3.038,1.847-3.2s-1.6.919-2.4,2.958A5.233,5.233,0,0,0,362.942,449.738Z" transform="translate(-241.021 -236.166)" fill="#263238"/><path d="M363.086,444.028a6.052,6.052,0,0,0,.36-2.518,11.836,11.836,0,0,0-.344-2.758,10.47,10.47,0,0,0-.5-1.6,1.847,1.847,0,0,0-.544-.8.9.9,0,0,0-1.159.056,1.536,1.536,0,0,0-.456.959,6.841,6.841,0,0,0-.04.9,7.368,7.368,0,0,0,.208,1.655,10.214,10.214,0,0,0,1.039,2.59,6.786,6.786,0,0,0,1.527,2.031c.072-.048-.5-.839-1.167-2.223a10.915,10.915,0,0,1-.887-2.51,7.5,7.5,0,0,1-.168-1.551c0-.52,0-1.167.312-1.415a.328.328,0,0,1,.448-.04,1.375,1.375,0,0,1,.376.592,13.221,13.221,0,0,1,.512,1.5,14.01,14.01,0,0,1,.448,2.638C363.142,443.037,362.99,444.028,363.086,444.028Z" transform="translate(-240.557 -234.806)" fill="#263238"/><path d="M362,445.449a4.8,4.8,0,0,0-2.183-.352,9.838,9.838,0,0,0-2.4.3,5.235,5.235,0,0,0-1.383.512,1.423,1.423,0,0,0-.8,1.543,1.711,1.711,0,0,0,1.223,1.215,3.142,3.142,0,0,0,1.519,0,5.947,5.947,0,0,0,2.2-1.079,5.852,5.852,0,0,0,1.6-1.551,15.886,15.886,0,0,0-1.8,1.223,5.978,5.978,0,0,1-2.079.9,2.66,2.66,0,0,1-1.255,0,1.151,1.151,0,0,1-.8-.8.879.879,0,0,1,.5-.943,5.18,5.18,0,0,1,1.231-.48,11.713,11.713,0,0,1,2.279-.4C361.159,445.409,361.982,445.545,362,445.449Z" transform="translate(-239.517 -236.594)" fill="#263238"/><path d="M378,453.565a17.627,17.627,0,0,1,.664-3.054,25.613,25.613,0,0,1,1.655-2.654c-.112-.136-1.471.672-2.183,2.438S377.861,453.629,378,453.565Z" transform="translate(-244.034 -237.147)" fill="#263238"/><path d="M348.52,457a6.4,6.4,0,0,0,1.311.615,28.781,28.781,0,0,0,3.766,1.167,54.018,54.018,0,0,0,12.9,1.2c5.069-.056,9.642-.288,12.96-.424l3.918-.208a7.332,7.332,0,0,0,1.439-.152,6.942,6.942,0,0,0-1.447-.072h-3.925l-12.944.272a60.5,60.5,0,0,1-12.792-1.055C350.447,457.692,348.56,456.86,348.52,457Z" transform="translate(-238.175 -238.98)" fill="#263238"/><path d="M347.27,457.214c.048.072.975-.464,2.534-1.151A11.784,11.784,0,0,1,356.2,455a10.146,10.146,0,0,1,5.54,3.294,19.2,19.2,0,0,0,1.951,1.991,10.716,10.716,0,0,0-1.655-2.262,13.494,13.494,0,0,0-2.247-2.1,8.042,8.042,0,0,0-3.5-1.479,11.193,11.193,0,0,0-6.66,1.263A8.978,8.978,0,0,0,347.27,457.214Z" transform="translate(-237.924 -238.454)" fill="#263238"/><path d="M287.556,389.77l-7.307,15.015s-39.071-11.88-48.913-11.337-17.909,4.5-19.828,12.5-2.175,19.028,9.314,26.687,68.565,11.889,68.565,11.889h22.586l36.921-48.681-5.948-4.8Z" transform="translate(-210.502 -225.504)" fill="#263238"/><path d="M305.115,425.27a3.264,3.264,0,0,1-.743,0,11.1,11.1,0,0,1-2.119-.168,44.494,44.494,0,0,1-7.659-1.6,73.715,73.715,0,0,1-10.793-4.229c-3.95-1.863-8.163-4.158-12.592-6.532a129.351,129.351,0,0,0-12.792-6.116,56.816,56.816,0,0,0-11.033-3.3,38.238,38.238,0,0,0-7.731-.672c-.919,0-1.6.072-2.119.08a4.083,4.083,0,0,1-.744,0,4.006,4.006,0,0,1,.736-.1c.488-.04,1.191-.168,2.119-.176a36.337,36.337,0,0,1,7.8.52,55.271,55.271,0,0,1,11.137,3.2,124.058,124.058,0,0,1,12.792,6.108c4.429,2.4,8.627,4.677,12.552,6.556a76.99,76.99,0,0,0,10.705,4.3,47.349,47.349,0,0,0,7.579,1.719c.911.16,1.6.192,2.1.264a4.867,4.867,0,0,1,.8.152Z" transform="translate(-215.773 -228.04)" fill="#455a64"/><path d="M348.073,438.065c7.259-2.854,47.17-15.55,61.3-31.876a15.606,15.606,0,0,0,3.862-13.552c-1.967-10.889-11.992-18.149-22.386-14.039-1.479.591-4.869,1.911-6.292,2.67-3.87,2.079-66.654,41.9-66.654,41.9s10.937,21.331,10.665,22.146Z" transform="translate(-232.036 -223.03)" fill="#263238"/><path d="M367.833,394.06a.848.848,0,0,1-.168.136l-.528.36-2.047,1.335-7.587,4.8L332.4,416.47l-13.639,8.5.088-.28c2.91,6.988,5.381,12.952,7.2,17.205.848,2.087,1.527,3.75,2.007,4.941.216.544.384.983.52,1.319a2.2,2.2,0,0,1,.152.464,2.642,2.642,0,0,1-.224-.432c-.144-.328-.336-.76-.584-1.3l-2.127-4.885c-1.807-4.245-4.341-10.178-7.315-17.141l-.072-.176.16-.1,13.591-8.531,25.168-15.646,7.667-4.693,2.095-1.263.552-.312A.812.812,0,0,1,367.833,394.06Z" transform="translate(-232.136 -226.363)" fill="#455a64"/><path d="M308.561,415.626a6.5,6.5,0,0,1-1.855-.7,25.921,25.921,0,0,1-4.1-2.454,26.2,26.2,0,0,1-3.582-3.2,6.525,6.525,0,0,1-1.223-1.559c.112-.1,2.111,2.159,5.093,4.325S308.625,415.49,308.561,415.626Z" transform="translate(-228.006 -229.102)" fill="#455a64"/><path d="M338.371,395.48a14.274,14.274,0,0,1,.1,2.494c0,1.543.088,3.662.3,6s.536,4.437.8,5.956a14.551,14.551,0,0,1,.352,2.478,10.82,10.82,0,0,1-.7-2.4,46.555,46.555,0,0,1-1.087-11.992A11.282,11.282,0,0,1,338.371,395.48Z" transform="translate(-236.085 -226.648)" fill="#455a64"/><path d="M343.657,394.827a.916.916,0,0,1,.5.064,2.246,2.246,0,0,1,1.032.871,2.4,2.4,0,0,1,.3,2.015,2.175,2.175,0,0,1-2.055,1.423,2.1,2.1,0,0,1-2.135-1.247,2.231,2.231,0,0,1,.272-2.015,1.992,1.992,0,0,1,1.1-.8.737.737,0,0,1,.5,0,2.4,2.4,0,0,0-1.3,1,1.926,1.926,0,0,0-.152,1.663,1.7,1.7,0,0,0,1.695.927,1.751,1.751,0,0,0,1.6-1.087,2.07,2.07,0,0,0-.168-1.679A2.925,2.925,0,0,0,343.657,394.827Z" transform="translate(-236.702 -226.516)" fill="#455a64"/><path d="M317.046,392.85a2.176,2.176,0,0,1,.344.744,6.581,6.581,0,0,1,.328,2.207,7.842,7.842,0,0,1-.728,3.2,7.243,7.243,0,0,1-6.484,4.365,7.836,7.836,0,0,1-3.278-.544,6.963,6.963,0,0,1-1.919-1.135,2.321,2.321,0,0,1-.56-.6,12.387,12.387,0,0,0,2.6,1.479,8,8,0,0,0,3.134.424,7.019,7.019,0,0,0,6.1-4.11,7.9,7.9,0,0,0,.8-3.054A11.718,11.718,0,0,0,317.046,392.85Z" transform="translate(-229.399 -226.121)" fill="#455a64"/><path d="M365.394,400.3a2.566,2.566,0,0,1-1.479-.208,5.6,5.6,0,0,1-3.749-5.732,2.59,2.59,0,0,1,.408-1.439c.08,0-.072.568-.056,1.447a5.892,5.892,0,0,0,3.526,5.4C364.827,400.179,365.4,400.219,365.394,400.3Z" transform="translate(-240.507 -226.135)" fill="#455a64"/><path d="M389.9,427.094a2.148,2.148,0,0,1,.24-.128l.712-.352,2.766-1.335c2.4-1.167,5.876-2.846,10.066-5.109a77.09,77.09,0,0,0,13.9-9.25,41,41,0,0,0,6.644-7.235,16.046,16.046,0,0,0,2.4-10.042A15.825,15.825,0,0,0,425.3,388.5a13.928,13.928,0,0,0-1.287-2.255,18.672,18.672,0,0,0-1.647-1.983,43.246,43.246,0,0,0-3.734-3.366,11.193,11.193,0,0,0-4.069-2.4,15.085,15.085,0,0,0-4.517-.5,23.3,23.3,0,0,0-4.293.472,26.386,26.386,0,0,0-7.236,2.734l-9.874,5.477-2.694,1.479-.7.376-.24.12a1.4,1.4,0,0,1,.224-.144l.687-.408,2.662-1.535c2.319-1.319,5.66-3.246,9.834-5.6a26.436,26.436,0,0,1,7.283-2.8,23.821,23.821,0,0,1,4.341-.5,15.507,15.507,0,0,1,4.605.5,11.44,11.44,0,0,1,4.189,2.478,44.907,44.907,0,0,1,3.766,3.39,20.463,20.463,0,0,1,1.679,2.007,14.382,14.382,0,0,1,1.319,2.318,16.534,16.534,0,0,1-1.119,15.486,41.117,41.117,0,0,1-6.708,7.283,75.945,75.945,0,0,1-13.983,9.226c-4.213,2.239-7.707,3.893-10.122,5.021l-2.79,1.279-.736.32Z" transform="translate(-245.491 -223.076)" fill="#455a64"/><path d="M312.029,438.66s-33.963,8.954-35.33,9.41c-2.047.7-1.8,8.171,1.375,8.091,1.5,0,25.992,1.239,29.086,1.079s11.473-3.342,11.473-3.342Z" transform="translate(-223.511 -235.306)" fill="#35a3be"/><path d="M302.426,452.893a29.321,29.321,0,0,0-1.447-3.654c-1.071-1.879-2.462-3.014-2.351-3.142s1.727.8,2.846,2.87S302.57,452.909,302.426,452.893Z" transform="translate(-228.17 -236.795)" fill="#263238"/><path d="M307.022,451.018c-.168,0-.488-1.6-1.367-3.358s-1.927-3.03-1.807-3.142,1.407,1.015,2.319,2.894A6.511,6.511,0,0,1,307.022,451.018Z" transform="translate(-229.216 -236.479)" fill="#263238"/><path d="M311.358,449.887a20.794,20.794,0,0,0-.744-3.582,33.3,33.3,0,0,0-1.807-3.2c.12-.128,1.6.935,2.335,2.99A5.552,5.552,0,0,1,311.358,449.887Z" transform="translate(-230.211 -236.196)" fill="#263238"/><path d="M311.2,444.158a6,6,0,0,1-.328-2.526,11.608,11.608,0,0,1,.376-2.758,11.883,11.883,0,0,1,.52-1.559,1.847,1.847,0,0,1,.552-.8.9.9,0,0,1,1.167.072,1.455,1.455,0,0,1,.432.959,6.846,6.846,0,0,1,.04.9,7.721,7.721,0,0,1-.232,1.655,10.226,10.226,0,0,1-1.071,2.574,6.912,6.912,0,0,1-1.551,2.023c-.072-.056.5-.839,1.191-2.215a10.8,10.8,0,0,0,.919-2.5,7.419,7.419,0,0,0,.184-1.543c0-.52,0-1.175-.3-1.423a.328.328,0,0,0-.448-.048,1.544,1.544,0,0,0-.376.592,11.875,11.875,0,0,0-.528,1.487,12.969,12.969,0,0,0-.48,2.638C311.154,443.183,311.3,444.142,311.2,444.158Z" transform="translate(-230.623 -234.84)" fill="#263238"/><path d="M311.35,445.6a4.686,4.686,0,0,1,2.191-.328,9.526,9.526,0,0,1,2.4.328,5.264,5.264,0,0,1,1.383.52,1.447,1.447,0,0,1,.743,1.6,1.671,1.671,0,0,1-1.231,1.191,3.04,3.04,0,0,1-1.519,0,5.861,5.861,0,0,1-2.191-1.1,6.092,6.092,0,0,1-1.551-1.6,14.248,14.248,0,0,1,1.783,1.239,6.189,6.189,0,0,0,2.071.927,2.664,2.664,0,0,0,1.255,0,1.127,1.127,0,0,0,.8-.8.871.871,0,0,0-.488-.951,5.686,5.686,0,0,0-1.223-.5,11.412,11.412,0,0,0-2.279-.424C312.2,445.563,311.366,445.691,311.35,445.6Z" transform="translate(-230.722 -236.629)" fill="#263238"/><path d="M296.308,453.559a20.947,20.947,0,0,0-.632-3.062c-.632-1.6-1.727-2.534-1.6-2.67s1.463.688,2.151,2.462A4.128,4.128,0,0,1,296.308,453.559Z" transform="translate(-227.257 -237.141)" fill="#263238"/><path d="M317.275,457.288a6.739,6.739,0,0,1-1.319.6,27.525,27.525,0,0,1-3.782,1.119,53.917,53.917,0,0,1-12.936,1.071c-5.077-.12-9.642-.408-12.952-.584l-3.925-.256a7.121,7.121,0,0,1-1.431-.168,6.873,6.873,0,0,1,1.447-.048l3.925.072,12.944.416a60.485,60.485,0,0,0,12.848-.855C315.364,457.991,317.235,457.184,317.275,457.288Z" transform="translate(-224.623 -239.039)" fill="#263238"/><path d="M323.494,457.524c-.048.08-.967-.472-2.526-1.175a11.654,11.654,0,0,0-6.4-1.143,10.326,10.326,0,0,0-5.6,3.2A19.512,19.512,0,0,1,307,460.37a10.986,10.986,0,0,1,1.687-2.247,13.71,13.71,0,0,1,2.271-2.071,8.108,8.108,0,0,1,3.518-1.439,11.194,11.194,0,0,1,6.644,1.343,9.1,9.1,0,0,1,2.374,1.567Z" transform="translate(-229.85 -238.492)" fill="#263238"/><path d="M284.769,457.477c-.056-.04.24-.488.512-1.271a6.2,6.2,0,0,0-1.047-6.084c-.52-.648-.943-.967-.9-1.023s.536.184,1.151.8a5.772,5.772,0,0,1,1.1,6.4C285.208,457.125,284.808,457.509,284.769,457.477Z" transform="translate(-225.104 -237.397)" fill="#263238"/><path d="M314.881,273.345l-17.461,4.893,5.676,54.326s-3.262,19.4-3.262,24.489a10.138,10.138,0,0,0,5.149,9.114l55.789,1.679,2.846-2.462a8.043,8.043,0,0,0,1.863-6.228l-10.393-82.892-19.42-4.213Z" transform="translate(-227.929 -201.9)" fill="#90caf9"/><path d="M302.844,337.378a2.4,2.4,0,0,1-.1-.416l-.232-1.191c-.2-1.071-.472-2.558-.8-4.381-.656-3.742-1.543-8.843-2.534-14.479s-1.807-10.761-2.438-14.5c-.288-1.831-.528-3.326-.7-4.405-.072-.5-.128-.9-.176-1.2a1.677,1.677,0,0,1,0-.424,4,4,0,0,1,.1.416c.056.3.136.7.232,1.183.192,1.071.472,2.566.8,4.389.656,3.734,1.551,8.843,2.534,14.487l2.447,14.495c.288,1.831.528,3.326.7,4.405.072.5.136.887.176,1.2A1.528,1.528,0,0,1,302.844,337.378Z" transform="translate(-227.613 -206.779)" fill="#263238"/><path d="M342.09,273.29a6.7,6.7,0,0,1-.8.64c-.272.192-.624.392-1.015.64a9.179,9.179,0,0,1-1.431.712,19.386,19.386,0,0,1-4,1.239,29.639,29.639,0,0,1-5.037.536,48.9,48.9,0,0,1-5.069-.152,29.417,29.417,0,0,1-4.109-.544,11.841,11.841,0,0,1-2.654-.879c-.3-.152-.52-.272-.672-.368l-.216-.152a9.519,9.519,0,0,1,.935.4,14.284,14.284,0,0,0,2.654.8,31.007,31.007,0,0,0,4.085.464c1.543.1,3.254.176,5.037.136a31.761,31.761,0,0,0,5-.5,20.164,20.164,0,0,0,3.934-1.151A22.392,22.392,0,0,0,342.09,273.29Z" transform="translate(-231.873 -202.149)" fill="#263238"/><path d="M361.559,376.951a1.244,1.244,0,0,1-.376.08l-1.1.16c-.48.064-1.063.144-1.743.2s-1.463.152-2.319.192c-1.719.128-3.774.176-6.052.144a73.371,73.371,0,0,1-7.4-.5c-2.6-.3-5.085-.8-7.307-1.255a48.555,48.555,0,0,1-5.852-1.6c-.8-.24-1.6-.512-2.207-.736s-1.2-.424-1.6-.608l-1.031-.408a1.391,1.391,0,0,1-.352-.168,2.02,2.02,0,0,1,.376.1l1.047.36c.456.16,1.007.352,1.663.552s1.383.456,2.215.688c1.639.5,3.622,1.007,5.844,1.5s4.677.9,7.283,1.215,5.093.464,7.363.536,4.317,0,6.028-.072c.863,0,1.6-.1,2.319-.152s1.263-.1,1.743-.144l1.1-.1Z" transform="translate(-233.305 -222.031)" fill="#263238"/><path d="M377.893,314.859a3.62,3.62,0,0,1-.272-.759c-.144-.488-.352-1.207-.592-2.095-.488-1.767-1.1-4.237-1.719-6.972s-1.087-5.237-1.407-7.044c-.152-.911-.272-1.639-.344-2.151a3.68,3.68,0,0,1-.08-.8,3.661,3.661,0,0,1,.208.8c.112.568.264,1.279.448,2.127.368,1.8.887,4.285,1.5,7.02s1.191,5.2,1.6,6.988c.192.847.36,1.559.5,2.119A4.5,4.5,0,0,1,377.893,314.859Z" transform="translate(-243.18 -206.51)" fill="#263238"/><g transform="translate(89.097 73.907)" opacity="0.3"><path d="M325.89,276.75c.7,2.4.048,5.972.392,8.139a115.769,115.769,0,0,1,1.4,26.328,3.591,3.591,0,0,0,.088,1.431,4.482,4.482,0,0,0,.712,1.1,11.53,11.53,0,0,1,1.863,8.363,33.812,33.812,0,0,1-2.526,8.4c-.056-2.343.064-5.852.248-8.187,0-.472.28-.168.288-.64.08-2.814-.392-5.421-2.4-7.427a6.178,6.178,0,0,1-1.119-1.255,4.2,4.2,0,0,1-.376-1.5q-1.823-14.735-2.487-29.581a2.351,2.351,0,0,1,.32-1.6,4.323,4.323,0,0,1,1.087-.751c.8-.5,1.231-1.375,2.047-1.767" transform="translate(-321.944 -276.75)"/></g><path d="M294.239,279.79s-15.942,3.758-12.08,27.647a147.738,147.738,0,0,0,9.514,33.931c2.614,6.148,8.531,10.393,15.19,9.514,2.894-.376,5.756.08,7.7-1.087,2.942-1.775,4.221-7.755,4.8-14.2.376-4.4.224-8.97.8-12.72.951-6.124-1.855-9.01-5.453-9.73l-14.143-2.806-.8,7.451Z" transform="translate(-224.748 -203.452)" fill="#90caf9"/><path d="M311.46,335.922c.04,0,.272.288.8.7a5.6,5.6,0,0,0,2.63,1.047,8.741,8.741,0,0,0,4.173-.592,13.482,13.482,0,0,0,4.509-2.6,7.946,7.946,0,0,0,2.335-4.509,7.716,7.716,0,0,0-.5-4.157,10.983,10.983,0,0,0-2.247-3.238,2.774,2.774,0,0,1,.88.648,7.58,7.58,0,0,1,1.727,2.4,7.9,7.9,0,0,1,.648,4.4,8.307,8.307,0,0,1-2.463,4.837,13.359,13.359,0,0,1-4.717,2.678,8.793,8.793,0,0,1-4.405.5,5.356,5.356,0,0,1-2.71-1.271A2.151,2.151,0,0,1,311.46,335.922Z" transform="translate(-230.744 -212.03)" fill="#263238"/><path d="M293.14,350.042c.056,0,.3.752.959,2.047a18.228,18.228,0,0,0,3.63,4.877,17.222,17.222,0,0,0,7.8,4.317,17.51,17.51,0,0,0,10.793-.76c1.807-.728,2.462-2.734,3.15-4.413a28.465,28.465,0,0,0,1.343-5.165,90.549,90.549,0,0,0,.9-9.05c.184-2.534.336-4.613.448-6.148.064-.672.112-1.223.152-1.671a2.512,2.512,0,0,1,.088-.576,1.824,1.824,0,0,1,0,.584c0,.448,0,1,0,1.679-.072,1.535-.16,3.614-.28,6.156a81.09,81.09,0,0,1-.8,9.13A28.554,28.554,0,0,1,320,356.326a19.376,19.376,0,0,1-1.191,2.646,4.733,4.733,0,0,1-2.239,2.087,17.757,17.757,0,0,1-11.193.743,17.541,17.541,0,0,1-11.5-9.594,13.138,13.138,0,0,1-.616-1.6A2.458,2.458,0,0,1,293.14,350.042Z" transform="translate(-227.071 -214.221)" fill="#263238"/><path d="M299.771,336.761a13.894,13.894,0,0,1,0-2.87c.1-1.767.264-4.205.48-6.9.12-1.351.208-2.622.352-3.8a5.892,5.892,0,0,1,1.087-3,3.2,3.2,0,0,1,1.807-1.183,1.167,1.167,0,0,1,.8,0c0,.056-.288,0-.736.192a3.2,3.2,0,0,0-1.551,1.207c-1.039,1.375-.919,3.934-1.191,6.6s-.448,5.125-.64,6.884a15.567,15.567,0,0,1-.408,2.862Z" transform="translate(-228.386 -211.302)" fill="#263238"/><path d="M304.2,303.525c-.144-.751-.368-1.847-.656-3.2-.576-2.694-1.407-6.4-2.359-10.506a59.119,59.119,0,0,0-1.519-5.748,13.2,13.2,0,0,0-2.335-4.293l-.312.248a13.494,13.494,0,0,1,2.159,4.213c.568,1.7.967,3.662,1.455,5.708.951,4.093,1.847,7.8,2.526,10.465.336,1.335.616,2.4.8,3.158a4.72,4.72,0,0,0,.384,1.135A5.381,5.381,0,0,0,304.2,303.525Z" transform="translate(-227.849 -203.45)" fill="#263238"/><g transform="translate(67.715 105.08)" opacity="0.3"><path d="M303.986,315.876a6.2,6.2,0,0,0-3.582,1.215,11.912,11.912,0,0,0-4.749,6.716,13.968,13.968,0,0,0,.368,8.267c.3.8.855,1.759,1.727,1.719,1.031-.04,1.439-1.319,1.6-2.334q.592-4.221,1.183-8.451a7.943,7.943,0,0,1,.744-2.782,2.671,2.671,0,0,1,2.327-1.471l.264-3.014" transform="translate(-295.199 -315.74)"/></g><path d="M421.032,324.868a23.609,23.609,0,0,0,3.294-11.065,36.95,36.95,0,0,0-1.6-12.12l-16.933-5.253-.1,5.66Z" transform="translate(-249.638 -206.789)" fill="#90caf9"/><path d="M398.484,298.219l-28.894-20.9v1.447l3.118,32.531S396.6,322,402.921,323.571a12.6,12.6,0,0,0,10.873-2.542Z" transform="translate(-242.4 -202.957)" fill="#90caf9"/><path d="M414.208,319.232a2.5,2.5,0,0,1-.656-.352,11.45,11.45,0,0,1-1.6-1.239,17.83,17.83,0,0,1-3.854-5.389,34.846,34.846,0,0,1-2.207-6.244c-.216-.8-.368-1.487-.472-1.951a2.84,2.84,0,0,1-.112-.728,18.062,18.062,0,0,1,.871,2.6,44.041,44.041,0,0,0,2.295,6.148,19.564,19.564,0,0,0,3.686,5.356C413.353,318.616,414.248,319.168,414.208,319.232Z" transform="translate(-249.562 -208.172)" fill="#263238"/><path d="M422.727,306.115a2.4,2.4,0,0,1-.752,0,18.727,18.727,0,0,1-2.023-.216,24.841,24.841,0,0,1-12.072-5.6A16.882,16.882,0,0,1,406.4,298.9c-.328-.352-.5-.56-.472-.576s.8.7,2.135,1.759a28.941,28.941,0,0,0,5.644,3.478A28.594,28.594,0,0,0,420,305.619C421.672,305.955,422.727,306.059,422.727,306.115Z" transform="translate(-249.685 -207.168)" fill="#263238"/><path d="M406.837,316.484a5.9,5.9,0,0,1-.9-1.791,17.592,17.592,0,0,1-.959-4.741,34.831,34.831,0,0,1,.04-4.8,8.581,8.581,0,0,1,.248-1.975,10.249,10.249,0,0,1,.048,1.991c0,1.231-.048,2.926.08,4.8a21.3,21.3,0,0,0,.8,4.677A14.694,14.694,0,0,1,406.837,316.484Z" transform="translate(-249.481 -208.142)" fill="#263238"/><path d="M369.05,293a4.435,4.435,0,0,1,.3.879c.168.576.392,1.415.663,2.454.528,2.079,1.207,4.965,1.879,8.163s1.207,6.124,1.551,8.243c.176,1.055.3,1.911.376,2.51a3.658,3.658,0,0,1,.08.927,4.387,4.387,0,0,1-.24-.9l-.5-2.486c-.448-2.191-1.031-5.045-1.671-8.2s-1.287-6-1.759-8.179c-.208-.983-.392-1.815-.536-2.486a3.945,3.945,0,0,1-.136-.919Z" transform="translate(-242.291 -206.101)" fill="#263238"/><path d="M305.11,311.855l3.534-39.175,11.737,4.629,1.511,39.847s-3.758,5.676-10.1,3.35a10.29,10.29,0,0,1-6.684-8.651Z" transform="translate(-229.471 -202.027)" fill="#a36957"/><path d="M307.256,229.78l21.938,19.292-3.974,14.407-1.591.472-19.18-19.628,1.215-14.071Z" transform="translate(-229.339 -193.425)" fill="#263238"/><path d="M305.266,230.37,327.2,249.662l-3.974,14.407L302.46,244.913Z" transform="translate(-228.94 -193.543)" fill="#455a64"/><path d="M320.874,271.282a8.507,8.507,0,0,0,2.2-5.389c-.048-2.95-.864-10.058-.864-10.058s3.814-8,3.718-9.09-.272-1.047-1.6-.616-5.6,7.739-5.6,7.739l-1.391-5.421s3.534-5.692,3.814-6.492.744-1.447-.136-1.519-7.523,6.356-7.523,6.356l.536,5.94s-.136.472-1.087-.36-.712-7.923-.712-7.923,2.262-4.2,2.207-4.8.408-1.263,0-2.3-1.751.16-1.751.16l-4.469,5.748-1.6-5.708s.064-1.223-1.519-1.231l.616,18.524,4,14.255Z" transform="translate(-229.469 -194.736)" fill="#a36957"/><path d="M321.869,309.821a5.606,5.606,0,0,0-.064-.7c-.064-.456-.064-1.175-.112-2.047-.08-1.815-.192-4.437-.344-7.771-.264-6.756-.648-16.382-1.111-28.03v-.088l.1-.088a7.6,7.6,0,0,0,2.127-3,8.691,8.691,0,0,0,.44-3.854c-.136-2.71-.472-5.533-.855-8.419v-.152c.719-1.519,1.439-3.094,2.135-4.709.344-.8.7-1.6,1.007-2.446.16-.416.312-.84.432-1.255l.08-.312V246.7a1.6,1.6,0,0,0-.112-.56c.048-.128-.56,0-.943.136a1.271,1.271,0,0,0-.52.264,4.146,4.146,0,0,0-.464.456,21.9,21.9,0,0,0-1.679,2.183c-1.055,1.535-2.047,3.15-3.014,4.8l-.352.592-.168-.664c-.44-1.711-.911-3.558-1.383-5.421v-.112l.064-.1,1.791-2.934c.68-1.151,1.431-2.335,1.983-3.47.112-.32.272-.648.344-.919.048-.144,0-.208,0-.192a.416.416,0,0,0-.264-.056,2.808,2.808,0,0,0-.32.16c-.128.072-.264.184-.392.264-.264.192-.528.392-.8.6-2.031,1.671-3.934,3.47-5.788,5.245l.08-.224q.28,3.006.536,5.94v.1a.5.5,0,0,1-.528.336.943.943,0,0,1-.384-.128,2.513,2.513,0,0,1-.544-.376,2.1,2.1,0,0,1-.568-1.207A16.242,16.242,0,0,1,312,249a44.366,44.366,0,0,1,0-4.613v-.12a40.4,40.4,0,0,0,2.127-4.413,1.268,1.268,0,0,0,.048-.224v-.328a3.514,3.514,0,0,1,.112-.616,2.071,2.071,0,0,0-.04-1.063c-.12-.392-.24-.552-.536-.5a2.112,2.112,0,0,0-.9.5h0l-4.421,5.756-.28.376-.128-.456q-.8-2.966-1.551-5.716v-.064a.959.959,0,0,0-.4-.8,1.639,1.639,0,0,0-.9-.232l.216-.216c.216,7.531.4,13.783.536,18.524h0c.879,3.4,1.559,6.036,2.031,7.851l.5,2.031c.112.456.144.7.144.7s-.08-.224-.216-.68-.328-1.143-.568-2.015c-.5-1.8-1.223-4.429-2.159-7.819h0L305,236.284v-.224h.216a2.023,2.023,0,0,1,1.143.3,1.359,1.359,0,0,1,.592,1.151v-.072q.8,2.75,1.6,5.708l-.408-.08,4.4-5.78h0a2.621,2.621,0,0,1,1.143-.632.9.9,0,0,1,.8.208,1.4,1.4,0,0,1,.336.632,2.582,2.582,0,0,1,.056,1.3,5.377,5.377,0,0,1-.1.576,1.542,1.542,0,0,0,0,.28,1.65,1.65,0,0,1-.072.368,38.3,38.3,0,0,1-2.159,4.517v-.112c-.04,1.5,0,3.03.048,4.573a15.524,15.524,0,0,0,.264,2.287,1.687,1.687,0,0,0,.392.9,2.408,2.408,0,0,0,.432.312.634.634,0,0,0,.184.064h0v.056h0c.128.056-.168-.064-.136-.048v.112q-.264-2.926-.544-5.94v-.128l.1-.1c1.863-1.783,3.758-3.582,5.82-5.285.264-.208.528-.416.8-.616.144-.1.272-.2.432-.288a1.535,1.535,0,0,1,.592-.24.887.887,0,0,1,.672.208.72.72,0,0,1,.136.744c-.1.376-.248.656-.36.967-.624,1.287-1.335,2.4-2.031,3.574l-1.791,2.934v-.216l1.383,5.421-.512-.072c.975-1.655,1.975-3.27,3.046-4.8a23.191,23.191,0,0,1,1.727-2.239,4.594,4.594,0,0,1,.528-.512,1.846,1.846,0,0,1,.7-.352,5.9,5.9,0,0,1,.7-.184,1.28,1.28,0,0,1,.44,0,.663.663,0,0,1,.464.328,2.4,2.4,0,0,1,.168.8,3.8,3.8,0,0,1,0,.416l-.088.344c-.136.456-.288.879-.448,1.3-.328.8-.68,1.663-1.023,2.47-.7,1.6-1.431,3.2-2.151,4.725v-.152c.376,2.9.7,5.724.839,8.467a9.259,9.259,0,0,1-.5,4.053,8.107,8.107,0,0,1-2.287,3.2l.1-.2c.376,11.657.688,21.291.911,28.038.1,3.342.168,5.964.216,7.787,0,.871,0,1.551.04,2.039A5.786,5.786,0,0,0,321.869,309.821Z" transform="translate(-229.449 -194.684)" fill="#7c3b29"/><path d="M309.9,255.04a23.9,23.9,0,0,1-.68-5.061,23.371,23.371,0,0,1-.12-5.109,23.411,23.411,0,0,1,.68,5.061A23.418,23.418,0,0,1,309.9,255.04Z" transform="translate(-230.253 -196.451)" fill="#7c3b29"/></g></g></g></svg>