<svg xmlns="http://www.w3.org/2000/svg" width="468.718" height="269.379" viewBox="0 0 468.718 269.379"><g transform="translate(-860 -3678.813)"><path d="M80,0H468.718a0,0,0,0,1,0,0V116.309a80,80,0,0,1-80,80H0a0,0,0,0,1,0,0V80A80,80,0,0,1,80,0Z" transform="translate(860 3751.883)" fill="#35a3be" opacity="0.2"/><g transform="translate(843.253 3623.663)"><g transform="translate(102.12 306.099)"><path d="M317.707,478.664c0,.083-63.223.154-141.19.154s-141.207-.071-141.207-.154,63.206-.154,141.207-.154S317.707,478.575,317.707,478.664Z" transform="translate(-35.31 -478.51)" fill="#263238"/></g><g transform="translate(99.747 55.15)"><path d="M425.955,55.15H141.681a8.891,8.891,0,0,0-8.891,8.891V264.814a8.891,8.891,0,0,0,8.891,8.891h109.1s6.941,21.458-14.57,32.566H338.227s-24.3-8.3-18.043-32.566H425.955a8.891,8.891,0,0,0,8.891-8.891V64.024A8.891,8.891,0,0,0,425.955,55.15Z" transform="translate(-132.79 -55.15)" fill="#263238"/><path d="M387.544,387.03c3.871,5.53-2.181,11.582-7.706,7.706a2.147,2.147,0,0,1-.474-.48c-3.853-5.524,2.187-11.571,7.706-7.706a2,2,0,0,1,.474.48Z" transform="translate(-232.71 -189.613)" fill="#455a64"/><path d="M146.834,61.36H427.569a5.75,5.75,0,0,1,5.75,5.75V239.483H141.09V67.11A5.75,5.75,0,0,1,146.834,61.36Z" transform="translate(-136.17 -57.679)" fill="#fff"/><path d="M146.508,61.36H428.861a4.458,4.458,0,0,1,4.458,4.458V76.161H141.09V66.784a5.424,5.424,0,0,1,5.424-5.424Z" transform="translate(-136.17 -57.679)" fill="#ebebeb"/><path d="M157.422,72.961a2.051,2.051,0,1,1-2.051-2.051,2.051,2.051,0,0,1,2.051,2.051Z" transform="translate(-141.151 -61.568)" fill="#263238"/><path d="M167.744,72.961a2.057,2.057,0,1,1-2.051-2.051A2.057,2.057,0,0,1,167.744,72.961Z" transform="translate(-145.349 -61.568)" fill="#263238"/><path d="M177.564,72.961a2.051,2.051,0,1,1-.6-1.452,2.057,2.057,0,0,1,.6,1.452Z" transform="translate(-149.349 -61.568)" fill="#263238"/><path d="M417.49,423.762c0,.095-40.45.166-90.342.166s-90.348-.095-90.348-.166,40.444-.172,90.348-.172S417.49,423.667,417.49,423.762Z" transform="translate(-175.148 -205.195)" fill="#455a64"/><path d="M464.009,238.947h-.083l-.237-.095-.907-.379-3.314-1.417-10.895-4.742-.379-.166h.077l-10.67,4.57-3.231,1.357-.877.356a1.776,1.776,0,0,1-.314.113l.3-.148.865-.391,3.207-1.417,10.67-4.618h.083l.373.166,10.877,4.8,3.284,1.476.889.415.231.107C463.986,238.929,464.009,238.941,464.009,238.947Z" transform="translate(-255.122 -127.159)" fill="#e0e0e0"/><rect width="69.987" height="52.4" transform="translate(155.901 110.223)" fill="#e0e0e0"/><rect width="65.351" height="47.812" transform="translate(158.343 112.659)" fill="#fafafa"/><path d="M424.28,280.45s.065,8.026.474,10.474l10.077-.474s-.883-7.89-.545-10Z" transform="translate(-251.498 -146.902)" fill="#e0e0e0"/><path d="M431.079,282.353h.148a2.276,2.276,0,0,1,.415,0,2.068,2.068,0,0,1,1.34.741,2.158,2.158,0,0,1,.373,2.211,3.634,3.634,0,0,1-.279.622,6.264,6.264,0,0,0-.326.628,5.334,5.334,0,0,0-.4,1.429v.03h0l-1.055.053h-1.079v-.036a2.922,2.922,0,0,0-.48-1.375c-.119-.207-.255-.4-.379-.593a5.722,5.722,0,0,1-.35-.593,1.914,1.914,0,0,1-.16-1.227,2.572,2.572,0,0,1,.391-1,1.962,1.962,0,0,1,.652-.593,2.56,2.56,0,0,1,1.031-.3h0a3.73,3.73,0,0,0-.4.077,2.7,2.7,0,0,0-.593.249,1.88,1.88,0,0,0-.628.593,2.472,2.472,0,0,0-.373.984,1.861,1.861,0,0,0,.16,1.186,5.9,5.9,0,0,0,.35.593c.124.19.261.385.379.593a3.029,3.029,0,0,1,.5,1.417l-.036-.042h2.033l-.036.036a5.647,5.647,0,0,1,.415-1.452,6.364,6.364,0,0,1,.326-.634,3.333,3.333,0,0,0,.285-.593,2.252,2.252,0,0,0,.107-1.186,2.294,2.294,0,0,0-.462-.948,2.093,2.093,0,0,0-.676-.545,2.277,2.277,0,0,0-.622-.2,3.512,3.512,0,0,0-.415-.036h-.148Z" transform="translate(-253.341 -147.674)" fill="#fff"/><path d="M432.334,289.266a.165.165,0,0,0,0-.036v-.089c0-.083-.036-.207-.059-.362-.042-.314-.113-.765-.154-1.328a2.3,2.3,0,0,0-.03-.445,2.6,2.6,0,0,1,0-.48,1.406,1.406,0,0,1,.113-.5.789.789,0,0,1,.385-.385.5.5,0,0,1,.545.107.373.373,0,0,1,.119.273.5.5,0,0,1-.1.29.712.712,0,0,1-.243.2,1.291,1.291,0,0,1-.3.1,3.646,3.646,0,0,1-.634.071,3.857,3.857,0,0,1-.64-.03,1.1,1.1,0,0,1-.3-.089.682.682,0,0,1-.249-.178.592.592,0,0,1-.148-.273.462.462,0,0,1,.036-.3.4.4,0,0,1,.207-.2.356.356,0,0,1,.29,0,.534.534,0,0,1,.213.184.723.723,0,0,1,.107.249,2.549,2.549,0,0,1,.047.51,7.479,7.479,0,0,0,.053.925c0,.563.047,1.02.065,1.334v0c0-.314-.047-.771-.077-1.334,0-.279-.036-.593-.053-.919a3.038,3.038,0,0,0-.053-.51.622.622,0,0,0-.1-.243.593.593,0,0,0-.2-.172.344.344,0,0,0-.267,0,.4.4,0,0,0-.2.19.451.451,0,0,0,0,.279.533.533,0,0,0,.136.255.913.913,0,0,0,.539.261,3.76,3.76,0,0,0,.634.03,3.641,3.641,0,0,0,.628-.071,1.347,1.347,0,0,0,.3-.1.634.634,0,0,0,.231-.184.45.45,0,0,0,.095-.273.355.355,0,0,0-.107-.249.48.48,0,0,0-.516-.1.753.753,0,0,0-.373.367,1.482,1.482,0,0,0-.113.492v.925c.042.563.1,1.014.142,1.328l.053.356v.095Z" transform="translate(-254.081 -148.99)" fill="#fff"/><path d="M431.272,291.849a3.255,3.255,0,0,1,0,.332c0,.243.03.533.047.871h0l.682.776h-.036l.782-.047h-.036l.391-.474.2-.237v.03c0-.462,0-.9-.03-1.292l.047.041h-1.506l1.488-.059h.042v.042c0,.4,0,.83.042,1.286h0l-.2.237-.391.474h0l-.788.036h0l-.729-.765h0v-.9A2.453,2.453,0,0,1,431.272,291.849Z" transform="translate(-254.34 -151.52)" fill="#fff"/><path d="M433.346,293.628l-.077-.03a1.5,1.5,0,0,0-.2-.083,1.961,1.961,0,0,0-.705-.107,1.92,1.92,0,0,0-.7.148c-.089.036-.154.071-.2.095l-.071.036.065-.047a1.451,1.451,0,0,1,.2-.1,1.85,1.85,0,0,1,.705-.16,1.743,1.743,0,0,1,.717.119,1.4,1.4,0,0,1,.2.089Z" transform="translate(-254.393 -152.167)" fill="#fff"/><path d="M433.346,293.118h-.077a1.511,1.511,0,0,0-.2-.083,2.1,2.1,0,0,0-.705-.107,1.92,1.92,0,0,0-.7.148c-.089.036-.154.071-.2.095l-.071.036.065-.047c.047,0,.113-.065.2-.1a1.85,1.85,0,0,1,.705-.16,1.743,1.743,0,0,1,.717.119,1.408,1.408,0,0,1,.2.089Z" transform="translate(-254.393 -151.971)" fill="#fff"/><path d="M433.316,292.594l-.077-.036-.2-.077a2.016,2.016,0,0,0-1.411.042l-.2.095-.071.036.065-.047a1.186,1.186,0,0,1,.2-.1,1.85,1.85,0,0,1,1.423-.047,1.326,1.326,0,0,1,.2.095Z" transform="translate(-254.381 -151.744)" fill="#fff"/><path d="M405.36,258.31s.071,8.026.48,10.48l10.077-.48s-.883-7.89-.545-10Z" transform="translate(-243.793 -137.886)" fill="#ebebeb"/><path d="M415.031,263.993a58.517,58.517,0,0,1-6.751.409,29.274,29.274,0,0,1,3.367-.3A29.592,29.592,0,0,1,415.031,263.993Z" transform="translate(-244.982 -140.196)" fill="#fff"/><path d="M415.037,266.863a58.517,58.517,0,0,1-6.757.409,27.773,27.773,0,0,1,3.373-.3,29.571,29.571,0,0,1,3.385-.107Z" transform="translate(-244.982 -141.365)" fill="#fff"/><path d="M414.147,269.653a9.773,9.773,0,0,1-1.921.213,10,10,0,0,1-1.926,0,8.893,8.893,0,0,1,1.915-.219,9.255,9.255,0,0,1,1.932.006Z" transform="translate(-245.804 -142.483)" fill="#fff"/><path d="M404.56,298.15s.065,8.026.474,10.474l10.077-.474s-.883-7.89-.539-10Z" transform="translate(-243.467 -154.11)" fill="#ebebeb"/><path d="M414.227,303.833a29.474,29.474,0,0,1-3.373.3,28.724,28.724,0,0,1-3.385.1,29.475,29.475,0,0,1,3.373-.3A30.342,30.342,0,0,1,414.227,303.833Z" transform="translate(-244.652 -156.421)" fill="#fff"/><path d="M414.232,306.7a28.594,28.594,0,0,1-3.373.3,29.494,29.494,0,0,1-3.379.107,29.281,29.281,0,0,1,3.367-.3A27.263,27.263,0,0,1,414.232,306.7Z" transform="translate(-244.656 -157.587)" fill="#fff"/><path d="M413.353,309.486a9.334,9.334,0,0,1-1.921.213,9.545,9.545,0,0,1-1.932,0,9.848,9.848,0,0,1,1.921-.213A9.536,9.536,0,0,1,413.353,309.486Z" transform="translate(-245.479 -158.707)" fill="#fff"/><path d="M450.97,261.9l1,23.153,28.9.35-1.292-23.194Z" transform="translate(-262.367 -139.348)" fill="#ebebeb"/><rect width="28.707" height="21.677" transform="translate(188.265 122.386)" fill="#f5f5f5"/><path d="M479.083,283.159v-5.945c0-3.776,0-9.188-.041-15.732l.077.083h-28.7l.1-.1v21.677l-.089-.089,20.711.047h.036l-20.746.042h-.089V261.28h28.843v.077c0,6.568-.03,11.991-.042,15.785v5.507A2.5,2.5,0,0,1,479.083,283.159Z" transform="translate(-262.11 -139.095)" fill="#e0e0e0"/><rect width="11.636" height="14.647" transform="translate(191.733 126.98)" fill="#f5f5f5"/><path d="M467.89,283.887a.532.532,0,0,1,0-.077V279.8c0-2.579,0-6.224-.041-10.557l.089.089H456.3s.184-.19.095-.1h0v14.635l-.083-.083,8.423.041h.083l-8.476.047h-.083V269.151h0l.1-.1h11.6v.089c0,4.357-.036,8.026-.047,10.616v4.084A.5.5,0,0,0,467.89,283.887Z" transform="translate(-264.521 -142.26)" fill="#e0e0e0"/><rect width="22.299" height="2.11" transform="translate(192.177 123.631)" fill="#f5f5f5"/><path d="M479.242,265.724v-2.11l.036.036c-3.758.036-12.335.059-22.3.059h0c.2-.2.053-.053.1-.095h0v2.1l-.095-.1,15.809.042,4.742.03h.047l-4.742.03-15.88.041h-.1v-2.193h0l.1-.1h0c9.964,0,18.541,0,22.3.059h.042v2.021a.528.528,0,0,1-.059.184Z" transform="translate(-264.766 -139.983)" fill="#e0e0e0"/><rect width="9.686" height="8.826" transform="translate(204.791 126.98)" fill="#f5f5f5"/><path d="M487.93,278.077v-2.424c0-1.553,0-3.746-.042-6.378l.083.083h-9.686l.1-.1h0v8.826L478.3,278l6.989.042h2.7a.786.786,0,0,1-.166,0H485.34l-7.042.047h-.083V269.18h0c-.089.089.119-.119.095-.1h9.775v.083c0,2.656-.03,4.867-.041,6.431v2.33a.654.654,0,0,1-.113.154Z" transform="translate(-273.453 -142.271)" fill="#e0e0e0"/><rect width="9.686" height="4.434" transform="translate(204.791 137.193)" fill="#f5f5f5"/><path d="M487.913,290.908v-1.215c0-.782,0-1.879-.042-3.219l.071.071h-9.686c-.089.089.119-.119.1-.095h0v4.428l-.095-.095,6.912.077,2.015.03h.545a.741.741,0,0,1,.2,0h-2.7l-6.989.047h-.095v-4.523h0s.184-.19.095-.1H488v.077c0,1.357-.03,2.472-.036,3.266v.871A1.722,1.722,0,0,1,487.913,290.908Z" transform="translate(-273.436 -149.281)" fill="#e0e0e0"/><path d="M467.6,269.41c-3.6,4.979-7.747,9.644-11.345,14.623" transform="translate(-264.517 -142.406)" fill="#fff"/><path d="M456.25,284.033s0-.059.095-.166l.3-.445c.267-.385.664-.937,1.185-1.606,1-1.346,2.43-3.165,4.031-5.157s3.047-3.794,4.078-5.116l1.215-1.571.332-.421a1.045,1.045,0,0,1,.125-.142s0,.059-.095.166l-.3.445c-.267.385-.664.937-1.186,1.606-1,1.346-2.43,3.165-4.031,5.157s-3.047,3.794-4.078,5.115l-1.227,1.571-.332.421a1.044,1.044,0,0,1-.113.142Z" transform="translate(-264.517 -142.406)" fill="#e0e0e0"/><line x2="11.636" y2="14.647" transform="translate(191.733 126.98)" fill="#fff"/><path d="M467.885,284.017c-.042.03-2.685-3.219-5.9-7.261s-5.785-7.35-5.738-7.386,2.679,3.219,5.892,7.261S467.956,283.969,467.885,284.017Z" transform="translate(-264.517 -142.39)" fill="#e0e0e0"/><circle cx="1.82" cy="1.82" r="1.82" transform="translate(185.959 125.19)" fill="#e0e0e0"/><path d="M500.38,260.75a1.82,1.82,0,1,1-1.82-1.82A1.82,1.82,0,0,1,500.38,260.75Z" transform="translate(-281.007 -138.138)" fill="#e0e0e0"/><rect width="18.553" height="36.78" transform="translate(14.89 140.774)" fill="#f5f5f5"/><rect width="20.047" height="36.78" transform="translate(34.155 140.774)" fill="#f5f5f5"/><path d="M228.57,268.648h21.114V236.023h.711v32.625h17.184V235.3H228.57Z" transform="translate(-171.796 -128.515)" fill="#f5f5f5"/><rect width="17.184" height="36.78" transform="translate(78.599 140.774)" fill="#f5f5f5"/><path d="M176.463,268.648V236.023h.711v32.625h20.053V235.3H157.91v33.348Z" transform="translate(-143.02 -128.515)" fill="#f5f5f5"/><rect width="21.114" height="36.78" transform="translate(56.774 140.774)" fill="#f5f5f5"/><rect width="18.553" height="36.78" transform="translate(98.753 140.774)" fill="#f5f5f5"/><rect width="20.047" height="36.78" transform="translate(118.018 140.774)" fill="#f5f5f5"/><path d="M317.943,268.648V236.023h.711v32.625H338.7V235.3H299.39v33.348Z" transform="translate(-200.637 -128.515)" fill="#f5f5f5"/><rect width="3.005" height="14.961" transform="matrix(1, -0.005, 0.005, 1, 270.086, 28.752)" fill="#e0e0e0"/><rect width="7.783" height="8.257" transform="translate(244.327 27.341) rotate(-0.573)" fill="#ebebeb"/><rect width="7.783" height="8.257" transform="matrix(1, -0.005, 0.005, 1, 251.788, 28.78)" fill="#f5f5f5"/><path d="M544.455,107.487q7.765.059,15.536-.071a.083.083,0,0,0,0-.166c-5.169,0-10.355,0-15.53.095a.071.071,0,1,0,0,.142Z" transform="translate(-300.412 -76.367)" fill="#e0e0e0"/><rect width="14.143" height="6.728" transform="matrix(1, -0.005, 0.005, 1, 239.183, 36.98)" fill="#ebebeb"/><rect width="14.143" height="6.728" transform="matrix(1, -0.005, 0.005, 1, 253.26, 36.904)" fill="#f5f5f5"/><path d="M536.261,120.492c9.4.107,18.826,0,28.221-.142a.083.083,0,0,0,0-.166c-9.4-.047-18.826-.041-28.221.166a.071.071,0,0,0,0,.142Z" transform="translate(-297.072 -81.625)" fill="#e0e0e0"/><rect width="54.8" height="2.413" transform="translate(233.895 43.722)" fill="#e0e0e0"/><rect width="2.223" height="8.227" transform="translate(242.87 44.883)" fill="#e0e0e0"/><rect width="2.223" height="8.227" transform="translate(276.082 44.883)" fill="#e0e0e0"/><rect width="3.005" height="20.575" transform="matrix(1, -0.005, 0.005, 1, 273.014, 23.176)" fill="#ebebeb"/><rect width="4.671" height="16.674" transform="matrix(1, -0.005, 0.005, 1, 276.046, 27.024)" fill="#f5f5f5"/><path d="M603.1,106.077a32.9,32.9,0,0,1-4.671,0,35.43,35.43,0,0,1,4.671,0Z" transform="translate(-322.419 -75.858)" fill="#e0e0e0"/><path d="M603.1,104.947a32.9,32.9,0,0,1-4.671,0,35.429,35.429,0,0,1,4.671,0Z" transform="translate(-322.419 -75.398)" fill="#e0e0e0"/><path d="M603.1,124.557a32.9,32.9,0,0,1-4.671,0,35.429,35.429,0,0,1,4.671,0Z" transform="translate(-322.419 -83.384)" fill="#e0e0e0"/><path d="M603.1,123.373a32.906,32.906,0,0,1-4.671,0A32.9,32.9,0,0,1,603.1,123.373Z" transform="translate(-322.419 -82.9)" fill="#e0e0e0"/><path d="M602.443,115.69c-.047,0-.083-1.683-.083-3.758s.036-3.752.083-3.752.077,1.677.077,3.752S602.484,115.69,602.443,115.69Z" transform="translate(-324.02 -76.746)" fill="#e0e0e0"/><rect width="5.086" height="12.584" transform="translate(280.735 31.102)" fill="#ebebeb"/><path d="M596.1,99.585a.865.865,0,1,1-.865-.865.865.865,0,0,1,.865.865Z" transform="translate(-320.766 -72.894)" fill="#e0e0e0"/><rect width="0.533" height="12.24" transform="translate(274.203 29.069)" fill="#e0e0e0"/><rect width="38.588" height="34.522" transform="translate(16.905 34.913)" fill="#fafafa"/><path d="M199.858,148.434v-9.5c0-6.034,0-14.653-.047-25.026l.089.089H161.311l.1-.1v34.522l-.089-.089,27.913.047h.03l-27.966.047h-.089V113.71h38.784v.089c0,10.4-.036,19.033-.047,25.079v8.82A3.042,3.042,0,0,1,199.858,148.434Z" transform="translate(-144.364 -78.998)" fill="#e0e0e0"/><path d="M180.035,124.327c0,.053-2.033.1-4.535.1s-4.541-.047-4.541-.1,2.033-.107,4.541-.107S180.035,124.267,180.035,124.327Z" transform="translate(-148.335 -83.278)" fill="#e0e0e0"/><path d="M196.756,128.7c0,.059-5.584.107-12.448.107s-12.448-.047-12.448-.107,5.578-.1,12.448-.1S196.756,128.647,196.756,128.7Z" transform="translate(-148.701 -85.062)" fill="#e0e0e0"/><rect width="1.624" height="1.624" transform="translate(22.697 48.031)" fill="#e0e0e0"/><rect width="1.624" height="1.624" transform="translate(26.698 48.031)" fill="#e0e0e0"/><rect width="1.624" height="1.624" transform="translate(30.77 47.954)" fill="#e0e0e0"/><rect width="1.624" height="1.624" transform="translate(34.7 48.031)" fill="#e0e0e0"/><rect width="1.624" height="1.624" transform="translate(38.701 48.031)" fill="#e0e0e0"/><rect width="1.624" height="1.624" transform="translate(42.702 48.031)" fill="#e0e0e0"/><rect width="1.624" height="1.624" transform="translate(46.709 48.031)" fill="#ebebeb"/><rect width="1.624" height="1.624" transform="translate(22.697 51.487)" fill="#ebebeb"/><rect width="1.624" height="1.624" transform="translate(26.698 51.487)" fill="#e0e0e0"/><rect width="1.624" height="1.624" transform="translate(30.699 51.487)" fill="#ebebeb"/><rect width="1.624" height="1.624" transform="translate(34.7 51.487)" fill="#e0e0e0"/><rect width="1.624" height="1.624" transform="translate(38.701 51.487)" fill="#e0e0e0"/><rect width="1.624" height="1.624" transform="translate(42.779 51.416)" fill="#e0e0e0"/><rect width="1.624" height="1.624" transform="translate(46.709 51.487)" fill="#e0e0e0"/><rect width="1.624" height="1.624" transform="translate(22.697 54.943)" fill="#e0e0e0"/><rect width="1.624" height="1.624" transform="translate(26.769 54.871)" fill="#e0e0e0"/><rect width="1.624" height="1.624" transform="translate(30.699 54.943)" fill="#e0e0e0"/><rect width="1.624" height="1.624" transform="translate(34.7 54.943)" fill="#ebebeb"/><rect width="1.624" height="1.624" transform="translate(38.701 54.943)" fill="#e0e0e0"/><rect width="1.624" height="1.624" transform="translate(42.702 54.943)" fill="#e0e0e0"/><rect width="1.624" height="1.624" transform="translate(46.709 54.943)" fill="#e0e0e0"/><rect width="1.624" height="1.624" transform="translate(22.697 58.398)" fill="#e0e0e0"/><rect width="1.624" height="1.624" transform="translate(26.698 58.398)" fill="#e0e0e0"/><rect width="1.624" height="1.624" transform="translate(30.699 58.398)" fill="#e0e0e0"/><rect width="1.624" height="1.624" transform="translate(34.777 58.327)" fill="#e0e0e0"/><rect width="1.624" height="1.624" transform="translate(38.701 58.398)" fill="#e0e0e0"/><rect width="1.624" height="1.624" transform="translate(42.702 58.398)" fill="#ebebeb"/><rect width="1.624" height="1.624" transform="translate(46.709 58.398)" fill="#e0e0e0"/><rect width="1.624" height="1.624" transform="translate(22.697 61.854)" fill="#e0e0e0"/><rect width="1.624" height="1.624" transform="translate(26.698 61.854)" fill="#ebebeb"/><rect width="1.624" height="1.624" transform="translate(30.699 61.854)" fill="#e0e0e0"/><rect width="1.624" height="1.624" transform="translate(34.7 61.854)" fill="#e0e0e0"/><rect width="1.624" height="1.624" transform="translate(38.701 61.854)" fill="#e0e0e0"/><rect width="1.624" height="1.624" transform="translate(42.779 61.783)" fill="#e0e0e0"/><rect width="1.624" height="1.624" transform="translate(46.709 61.854)" fill="#e0e0e0"/><rect width="19.294" height="5.104" transform="translate(117.49 51.475)" fill="#f5f5f5"/><path d="M336.469,156.035a.273.273,0,0,1,0-.095v-1.269c0-.877,0-2.146-.03-3.746l.059.065-19.3.036.1-.1h0v5.1l-.1-.1,13.752.047h.042l-13.817.047h-.095v-5.193h0l.095-.095,19.3.036h.059v.059c0,1.612-.03,2.893-.036,3.782v1.245A1.471,1.471,0,0,0,336.469,156.035Z" transform="translate(-207.841 -94.074)" fill="#e0e0e0"/><rect width="19.294" height="5.104" transform="translate(18.115 81.439)" fill="#ebebeb"/><path d="M363.567,112.9a.793.793,0,0,1,0-.1v-1.328c0-.925,0-2.258-.036-3.936l.065.065-20.266.036.1-.1h0v5.335l-.1-.107,14.44.047h.071l-14.511.047h-.1v-5.447h0c.207-.207.059-.059.107-.1l20.266.036h.065v.065c0,1.7,0,3.035-.036,3.971v1.3a.5.5,0,0,1-.065.213Z" transform="translate(-218.491 -76.387)" fill="#e0e0e0"/><path d="M373.774,103.953v-1.464c0-.937,0-2.264-.042-3.9l.077.077H361.629l.107-.107h0v5.353l-.1-.1,8.714.047h2.578l-2.513.03-8.779.047h-.095V98.6h0l.1-.1h12.252v.071c0,1.654-.03,3-.042,3.948v1.061A.679.679,0,0,1,373.774,103.953Z" transform="translate(-225.947 -72.804)" fill="#e0e0e0"/><path d="M363.551,206.62a.647.647,0,0,1,0-.095v-1.334c0-.925,0-2.252-.036-3.93l.065.059-20.266.042c.047-.047-.107.1.1-.1h0V206.6l-.1-.1,14.44.047,4.268.03H357.8l-14.511.047h-.1v-5.453h0l.107-.107,20.266.042h.065v.065c0,1.689,0,3.035-.036,3.971v1.3A.325.325,0,0,1,363.551,206.62Z" transform="translate(-218.474 -114.571)" fill="#e0e0e0"/><path d="M373.774,197.6a.491.491,0,0,1,0-.107v-1.357c0-.937,0-2.264-.042-3.9l.077.077-12.181.03c-.089.089.124-.13.107-.107h0v5.353l-.1-.1,8.714.047,2.537.03h.682a1.234,1.234,0,0,1,.249,0h-3.4l-8.779.047h-.095v-5.447h0l.1-.1h12.252v.071c0,1.654-.03,2.993-.042,3.948v1.055A1.386,1.386,0,0,1,373.774,197.6Z" transform="translate(-225.947 -110.906)" fill="#e0e0e0"/><rect width="31.778" height="31.778" transform="translate(156.351 29.039)" fill="#ebebeb"/><rect width="29.905" height="29.905" transform="translate(157.288 29.976)" fill="#fff"/><rect width="8.589" height="8.589" transform="translate(167.945 40.633)" fill="#e0e0e0"/><rect width="1.34" height="31.766" transform="translate(188.129 29.051)" fill="#e0e0e0"/><path d="M615.012,282.469,600.394,264.2l-.166.243-1.108,1.618,15.844,20.011" transform="translate(-322.7 -140.284)" fill="#e0e0e0"/><path d="M600.993,256.433l1.049-1.4-1.144-.984-1.108,1.4Z" transform="translate(-322.973 -136.151)" fill="#ebebeb"/><path d="M591.92,257.464l-4-3.254-4.274,4.582c-7,.729-10.041,4.932-10.041,4.932l11.855,10.213c4.517-4.463,2.881-11.262,2.881-11.262Z" transform="translate(-312.311 -136.216)" fill="#ebebeb"/><path d="M595.268,265.8a19.946,19.946,0,0,1-2.43-1.838,19.685,19.685,0,0,1-2.288-2.021,20.712,20.712,0,0,1,2.436,1.838A19.94,19.94,0,0,1,595.268,265.8Z" transform="translate(-319.21 -139.364)" fill="#e0e0e0"/><path d="M386.184,249.716c-.089,0-.154-36.484-.154-81.48s.065-81.486.154-81.486.154,36.478.154,81.486S386.267,249.716,386.184,249.716Z" transform="translate(-235.921 -68.019)" fill="#263238"/><path d="M433.433,224.8c0,.089-65.571.154-146.411.154s-146.452-.065-146.452-.154,65.559-.154,146.452-.154S433.433,224.721,433.433,224.8Z" transform="translate(-135.958 -124.178)" fill="#263238"/><path d="M433.239,239.366c0-.854-.042-52.435-.107-137.146V66.815a8.814,8.814,0,0,0-.13-2.14,4.375,4.375,0,0,0-2.774-3.053,4.743,4.743,0,0,0-1.043-.237H147.335a6.378,6.378,0,0,0-2.893.474A5.53,5.53,0,0,0,142.19,63.7a5.607,5.607,0,0,0-1,2.667c-.059.942,0,1.938,0,2.9v170.1l-.142-.142,292.228.142-292.228.142h-.142V69.234c0-.978,0-1.926.03-2.928a5.868,5.868,0,0,1,1.055-2.774,5.8,5.8,0,0,1,2.371-1.944,6.645,6.645,0,0,1,3.017-.5H429.292a4.741,4.741,0,0,1,1.1.255,4.582,4.582,0,0,1,2.9,3.219,8.955,8.955,0,0,1,.136,2.205V102.2C433.281,186.943,433.239,238.513,433.239,239.366Z" transform="translate(-136.097 -57.562)" fill="#263238"/><path d="M157.636,99.412a2.608,2.608,0,1,1-2.608-2.6,2.608,2.608,0,0,1,2.608,2.6Z" transform="translate(-140.784 -72.116)" fill="#455a64"/><path d="M177.851,101.906c0,.071-3.248.13-7.255.13s-7.255-.059-7.255-.13,3.248-.136,7.255-.136S177.851,101.829,177.851,101.906Z" transform="translate(-145.231 -74.136)" fill="#455a64"/><path d="M407.666,99.412a2.608,2.608,0,1,1-2.6-2.6,2.608,2.608,0,0,1,2.6,2.6Z" transform="translate(-242.607 -72.116)" fill="#455a64"/><path d="M427.887,101.906c0,.071-3.248.13-7.255.13s-7.261-.059-7.261-.13,3.248-.136,7.261-.136S427.887,101.829,427.887,101.906Z" transform="translate(-247.055 -74.136)" fill="#455a64"/><path d="M407.746,243.512a2.608,2.608,0,1,1-2.6-2.6,2.608,2.608,0,0,1,2.6,2.6Z" transform="translate(-242.64 -130.8)" fill="#455a64"/><path d="M427.967,246c0,.077-3.248.136-7.255.136s-7.261-.059-7.261-.136,3.248-.13,7.261-.13S427.967,245.947,427.967,246Z" transform="translate(-247.087 -132.82)" fill="#455a64"/><path d="M157.986,243.512a2.608,2.608,0,1,1-2.608-2.6,2.608,2.608,0,0,1,2.608,2.6Z" transform="translate(-140.927 -130.8)" fill="#455a64"/><path d="M178.2,246c0,.077-3.248.136-7.255.136s-7.255-.059-7.255-.136,3.248-.13,7.255-.13S178.2,245.947,178.2,246Z" transform="translate(-145.374 -132.82)" fill="#455a64"/><path d="M612.774,102.9h0a5.424,5.424,0,0,1-5.424-5.424h0a5.424,5.424,0,0,1,5.424-5.418h0a5.424,5.424,0,0,1,5.424,5.418h0a5.424,5.424,0,0,1-5.424,5.424Z" transform="translate(-326.052 -70.181)" fill="#90caf9"/><path d="M614.95,100.1a.871.871,0,1,0-.522,0,1.517,1.517,0,0,0-1.268,1.488h3.017A1.506,1.506,0,0,0,614.95,100.1Z" transform="translate(-328.418 -72.762)" fill="#fff"/><path d="M618.914,100.582a.13.13,0,0,1-.125-.124V99.064a.13.13,0,0,1,.125-.124.124.124,0,0,1,.124.124v1.393a.124.124,0,0,1-.124.124Z" transform="translate(-330.711 -72.983)" fill="#fff"/><path d="M619.167,100.369h-1.393a.13.13,0,0,1-.125-.124.124.124,0,0,1,.125-.124h1.393a.124.124,0,0,1,.124.124A.13.13,0,0,1,619.167,100.369Z" transform="translate(-330.247 -73.464)" fill="#fff"/><path d="M141.08,339.9v13.064H433.309V339.9Z" transform="translate(-136.166 -171.113)" fill="#455a64"/><circle cx="4.06" cy="4.06" r="4.06" transform="translate(157.033 171.004)" fill="#fff"/><rect width="2.027" height="2.027" rx="1.014" transform="translate(159.635 174.146)" fill="#90caf9"/><path d="M405.83,350.384V349.7l.51-.551a.113.113,0,0,1,.2.077v1.559a.113.113,0,0,1-.19.083Z" transform="translate(-243.984 -174.863)" fill="#90caf9"/><path d="M366.139,347.39a3.8,3.8,0,1,1-3.8-3.8A3.8,3.8,0,0,1,366.139,347.39Z" transform="translate(-224.725 -172.616)" fill="#fff"/><path d="M362.653,350.137a.373.373,0,1,1,.373-.373A.373.373,0,0,1,362.653,350.137Z" transform="translate(-226.249 -174.978)" fill="#90caf9"/><path d="M364.623,350.137a.373.373,0,1,1,.373-.373A.373.373,0,0,1,364.623,350.137Z" transform="translate(-227.051 -174.978)" fill="#90caf9"/><path d="M366.743,350.137a.373.373,0,1,1,.373-.373A.373.373,0,0,1,366.743,350.137Z" transform="translate(-227.914 -174.978)" fill="#90caf9"/><circle cx="5.773" cy="5.773" r="5.773" transform="translate(143.939 169.546)" fill="#fff"/><path d="M381.23,351.244l1.031-.243a.285.285,0,0,0,.213-.279v-.207s-.042-.362.3-.385,1.778,0,1.778,0,.409,0,.4.314v.308a.243.243,0,0,0,.172.231l1.12.338a.237.237,0,0,0,.29-.142l.142-.344a.444.444,0,0,0,.036-.2.955.955,0,0,0-.19-.516c-.225-.285-1.268-.954-3.26-.859-1.891.089-2.306.889-2.418,1.079a.83.83,0,0,0-.03.533l.077.2a.29.29,0,0,0,.344.166Z" transform="translate(-233.782 -174.922)" fill="#90caf9"/></g><g transform="translate(303.578 168.551)"><path d="M542.091,275.931a3.88,3.88,0,0,0-5.021-.5l-6.2,8.257a7.427,7.427,0,0,0,1.844,3.675,4.742,4.742,0,0,0,3.746,1.488,7.48,7.48,0,0,0,4.8-2.632,9.954,9.954,0,0,0,2.632-5.388A5.862,5.862,0,0,0,542.091,275.931Z" transform="translate(-498.737 -257.971)" fill="#263238"/><path d="M545.721,286.78c-.059,0,0-.45-.119-1.132a4.66,4.66,0,0,0-1.132-2.371,4.742,4.742,0,0,0-2.27-1.351c-.67-.172-1.114-.16-1.12-.219a2.027,2.027,0,0,1,1.186-.036,4.357,4.357,0,0,1,2.5,1.357,4.422,4.422,0,0,1,1.12,2.608A2.008,2.008,0,0,1,545.721,286.78Z" transform="translate(-502.895 -260.771)" fill="#455a64"/><path d="M546.922,278.889c-.036.113-1.185-.3-2.614-.273s-2.567.474-2.608.362a4.328,4.328,0,0,1,2.6-.735A4.387,4.387,0,0,1,546.922,278.889Z" transform="translate(-503.147 -259.399)" fill="#455a64"/><path d="M521.834,256.816c-.812-3.871-4.695-7.86-8.405-9.223s-7.083-1.322-11-.777a12.691,12.691,0,0,0-9.769,7.552c-1.7,4.054-1.292,7.919-.954,12.306.255,3.331,1.185,7.3,2.43,8.506s1.114.593,2.691,1.274c3.142,1.387,6.591.966,10.024.842s7.481-.83,9.9-3.254a14.512,14.512,0,0,0,3.675-6.171C521.561,264.889,522.492,259.934,521.834,256.816Z" transform="translate(-482.664 -246.461)" fill="#263238"/><path d="M517.1,263.436a11.138,11.138,0,0,0-11.375-11.3,11.464,11.464,0,0,0-11.2,10.924,113.359,113.359,0,0,0-.172,12.312c.658,5.649,4.262,7.5,5.7,8.02a7.542,7.542,0,0,0,1.553.213h0s.041,0,.036.036l-.593,6.633c-.142,4.315,2.673,7.86,7.066,8.026s7.457-3.45,7.706-7.777Z" transform="translate(-483.821 -248.772)" fill="#ffd6bd"/><path d="M496.334,275.211c.089.1.83.053,1.778.379s1.541.83,1.66.8,0-.166-.279-.391a4.1,4.1,0,0,0-1.3-.723,3.64,3.64,0,0,0-1.429-.219C496.417,275.081,496.286,275.164,496.334,275.211Z" transform="translate(-484.668 -258.105)" fill="#263238"/><path d="M513.98,276.975c.142,0,.735-.5,1.731-.877s1.844-.421,1.927-.516-.125-.107-.492-.095a5.138,5.138,0,0,0-1.571.344,4.616,4.616,0,0,0-1.352.771C513.98,276.833,513.9,276.975,513.98,276.975Z" transform="translate(-491.847 -258.28)" fill="#263238"/><path d="M505.3,280.245a6.467,6.467,0,0,0-1.594-.35c-.255-.036-.492-.095-.528-.267a1.334,1.334,0,0,1,.2-.729c.267-.593.539-1.186.83-1.861a32.742,32.742,0,0,0,1.9-4.878,32.687,32.687,0,0,0-2.288,4.742l-.8,1.879a1.417,1.417,0,0,0-.172.966.593.593,0,0,0,.4.379,1.814,1.814,0,0,0,.427.077A6.863,6.863,0,0,0,505.3,280.245Z" transform="translate(-487.315 -256.927)" fill="#263238"/><path d="M506.608,303.727a16.035,16.035,0,0,0,8.714-2.187s-1.725,4.908-8.891,3.971Z" transform="translate(-488.784 -268.892)" fill="#ffb394"/><path d="M507.491,289.359a1.814,1.814,0,0,1,1.63-.593,1.63,1.63,0,0,1,1.1.64,1,1,0,0,1,.03,1.185,1.227,1.227,0,0,1-1.31.273,3.794,3.794,0,0,1-1.233-.794,1,1,0,0,1-.273-.3.32.32,0,0,1,0-.362" transform="translate(-489.169 -263.681)" fill="#90caf9"/><path d="M509.656,287.12c-.16,0-.207,1.043-1.156,1.778s-2.092.551-2.11.7.249.219.729.249a2.7,2.7,0,0,0,1.778-.528,2.282,2.282,0,0,0,.907-1.47C509.839,287.387,509.715,287.12,509.656,287.12Z" transform="translate(-488.767 -263.019)" fill="#263238"/><path d="M513.989,268.185c.1.255.943.059,1.95.119s1.843.3,1.956.047c.053-.119-.107-.356-.456-.593a2.965,2.965,0,0,0-1.482-.45,2.922,2.922,0,0,0-1.494.326C514.084,267.841,513.918,268.066,513.989,268.185Z" transform="translate(-491.855 -254.949)" fill="#263238"/><path d="M496.345,267.275c.19.261.978.03,1.921.053s1.719.231,1.915,0c.083-.124-.03-.379-.368-.634a2.68,2.68,0,0,0-1.535-.474,2.638,2.638,0,0,0-1.553.462C496.386,266.907,496.267,267.168,496.345,267.275Z" transform="translate(-484.667 -254.507)" fill="#263238"/><path d="M509.032,247.805c-1.346,2.857.207,5.732,3,7.22,1.186.64,2.739.99,3.343,2.217.468.948.2,2.169.8,3.041s1.672,1.049,2.484,1.636a4.908,4.908,0,0,1,1.666,3.616,40.964,40.964,0,0,0,.255,4.1,3.874,3.874,0,0,0,2.371,3.1,45.119,45.119,0,0,0,1.363-11.76c-.213-3.954,1.352-8.405-1.4-11.262s-10.189-3.319-13.888-1.915" transform="translate(-489.643 -246.691)" fill="#263238"/><path d="M529.2,264.979a2.7,2.7,0,0,0-.213-.96,2.964,2.964,0,0,0-2.069-1.541,13.164,13.164,0,0,0-1.861-.279,7.593,7.593,0,0,1-2.176-.48,3.645,3.645,0,0,1-1.808-1.7c-.427-.747-.717-1.571-1.186-2.288a3.45,3.45,0,0,0-1.938-1.44,13.15,13.15,0,0,0-2.371-.421,10.715,10.715,0,0,1-2.175-.433,6.965,6.965,0,0,1-1.731-.877,6.776,6.776,0,0,1-1.921-2.009,4.7,4.7,0,0,1-.35-.67c-.071-.16-.095-.243-.083-.249s.184.308.551.836a7.32,7.32,0,0,0,1.95,1.873,6.816,6.816,0,0,0,1.683.8,10.584,10.584,0,0,0,2.116.385,13.2,13.2,0,0,1,2.413.415,3.823,3.823,0,0,1,2.14,1.583c.5.777.794,1.606,1.185,2.318a3.349,3.349,0,0,0,1.624,1.565c1.375.593,2.827.456,3.966.824a3.088,3.088,0,0,1,2.14,1.731,1.776,1.776,0,0,1,.13.759.644.644,0,0,1-.018.261Z" transform="translate(-489.959 -248.566)" fill="#455a64"/><path d="M538.211,271.34a1.9,1.9,0,0,1,0,.646,15.644,15.644,0,0,1-.261,1.743,34.983,34.983,0,0,1-1.594,5.572,14.08,14.08,0,0,1-3.088,4.914,9.858,9.858,0,0,1-1.346,1.138,1.884,1.884,0,0,1-.563.32c-.041-.053.729-.557,1.719-1.642a15.37,15.37,0,0,0,2.928-4.867,46.181,46.181,0,0,0,1.683-5.495C538.033,272.241,538.158,271.334,538.211,271.34Z" transform="translate(-498.935 -256.593)" fill="#455a64"/><path d="M560.627,330.061c-2.4-7.848-1.126-4.4-2.312-7.67-1.589-4.386-9.188-6.651-9.626-6.651l-.948,3.883,1.393,10.415" transform="translate(-505.607 -274.675)" fill="#8dd52c"/><path d="M509.345,309.74c-3.059,6.171-12.531,6.171-15.578,1.6l-11.019,6.408a10.207,10.207,0,0,0-4.268,4.4,18.747,18.747,0,0,0-1.82,5.465H522.93l-1.956-13.9Z" transform="translate(-476.66 -272.231)" fill="#8dd52c"/></g><g transform="translate(281.104 80.369)"><path d="M536.711,163.565a141.9,141.9,0,0,1-14.321.622c-.006-.1,3.2-.314,7.155-.492A68.717,68.717,0,0,1,536.711,163.565Z" transform="translate(-472.81 -124.5)" fill="#fff"/><path d="M485.952,111.266c.628-3.438,1.452-6.971,3.557-9.751s5.868-4.606,9.182-3.485l4.078,2.371a124.663,124.663,0,0,1-5.756,27.948,6.076,6.076,0,0,1-1.274,2.472c-1.322,1.34-3.491,8.714-5.364,8.494-2.258-.261-5.685,2.916-6.651.86-.468-1,.373-13.331.445-14.422a124.947,124.947,0,0,1,1.784-14.487Z" transform="translate(-457.005 -97.695)" fill="#263238"/><path d="M511.721,107.378l-12.578-4.149c-4.072-.735-7.166,4.149-7.706,8.216-.622,4.558-1.186,10.142-.907,13.6.593,6.941,5.785,8.2,5.785,8.2a16.922,16.922,0,0,0-.409,5.228c.326,4.742,3.379,5.928,5.874,6.123h0c3.942.421,8.055-.83,8.506-4.742l3.438-29.816A2.418,2.418,0,0,0,511.721,107.378Z" transform="translate(-459.805 -99.919)" fill="#ffbe9d"/><path d="M496.158,125.673a.889.889,0,0,0,.782.954.848.848,0,0,0,.966-.729.889.889,0,0,0-.782-.954.848.848,0,0,0-.966.729Z" transform="translate(-462.126 -108.788)" fill="#263238"/><path d="M494.353,122.585c.1.124.806-.32,1.749-.249s1.612.593,1.719.486-.041-.261-.326-.5a2.43,2.43,0,0,0-1.363-.533,2.312,2.312,0,0,0-1.4.344C494.418,122.33,494.305,122.532,494.353,122.585Z" transform="translate(-461.387 -107.503)" fill="#263238"/><path d="M511.048,127.107a.877.877,0,0,0,.782.948.842.842,0,0,0,.966-.717.883.883,0,0,0-.782-.954.848.848,0,0,0-.966.723Z" transform="translate(-468.189 -109.375)" fill="#263238"/><path d="M510.323,124.206c.107.119.806-.326,1.778-.255s1.606.593,1.719.492-.042-.267-.332-.51a2.371,2.371,0,0,0-1.363-.528,2.318,2.318,0,0,0-1.4.35C510.388,123.951,510.275,124.147,510.323,124.206Z" transform="translate(-467.891 -108.163)" fill="#263238"/><path d="M501.832,129.7a6.217,6.217,0,0,0-1.517-.391c-.243-.041-.468-.107-.5-.273a1.256,1.256,0,0,1,.213-.705l.854-1.778a31.507,31.507,0,0,0,1.956-4.7,31.887,31.887,0,0,0-2.33,4.529c-.29.628-.593,1.233-.824,1.778a1.423,1.423,0,0,0-.2.942.634.634,0,0,0,.373.385,1.724,1.724,0,0,0,.409.083,6.123,6.123,0,0,0,1.559.13Z" transform="translate(-463.478 -107.532)" fill="#263238"/><path d="M500.214,152.648a18.583,18.583,0,0,0,9.769-1.778s-3.065,4.629-9.893,3.485Z" transform="translate(-463.728 -119.35)" fill="#eb996e"/><path d="M509.558,119.432c.077.261,1.031.207,2.134.421s1.98.593,2.14.368c.077-.107-.065-.362-.409-.634a3.556,3.556,0,0,0-1.559-.682,3.628,3.628,0,0,0-1.7.077C509.748,119.118,509.529,119.3,509.558,119.432Z" transform="translate(-467.583 -106.306)" fill="#263238"/><path d="M494.253,117.8c.19.225,1.014.065,1.992.124s1.778.273,1.992.065c.089-.107,0-.332-.368-.557a3.278,3.278,0,0,0-1.595-.474,3.224,3.224,0,0,0-1.618.32C494.3,117.471,494.17,117.685,494.253,117.8Z" transform="translate(-461.341 -105.536)" fill="#263238"/><path d="M502.483,102.88a10.917,10.917,0,0,0,1.956,2.324l3.462,3.408a27.052,27.052,0,0,0,2.555,2.324,28.1,28.1,0,0,0,2.567,1.683c.913.551,1.381,1.974,2.294,2.525.207.124.877.047,1.1.207-.047,1.535-.071,6.431-.083,8.376-.03,3.076-1.126,11.262-1.126,11.262h2.614c2.051-.314,4.938,4.149,6.034,2.371,1.186-1.944-.261-10.278-.32-11.855-.19-4.647-1.1-9.377-1.363-13.373a16.338,16.338,0,0,0-.782-4.742,12.949,12.949,0,0,0-4.244-5.287,17.421,17.421,0,0,0-6.953-3.6,9.786,9.786,0,0,0-7.575,1.186,1.648,1.648,0,0,0-.771.907C501.511,101.552,501.967,102,502.483,102.88ZM516.466,115.4C516.567,115.595,516.466,116.069,516.466,115.4Z" transform="translate(-464.396 -97.904)" fill="#263238"/><path d="M525.456,129.108a2,2,0,0,1,3.047-1.494,2.753,2.753,0,0,1,.972,2.845c-.462,4.12-4.511,2.8-4.5,2.685S525.249,130.815,525.456,129.108Z" transform="translate(-473.86 -109.757)" fill="#ffbe9d"/><path d="M527.388,132.585s.071.053.184.124a.711.711,0,0,0,.533.071,1.778,1.778,0,0,0,1-1.5,2.371,2.371,0,0,0-.083-1.055.848.848,0,0,0-.48-.593.368.368,0,0,0-.445.148c-.071.113-.053.2-.077.2s-.077-.083,0-.249a.432.432,0,0,1,.19-.237.527.527,0,0,1,.409-.059,1,1,0,0,1,.676.723,2.372,2.372,0,0,1,.125,1.186,1.887,1.887,0,0,1-1.251,1.666.788.788,0,0,1-.646-.184C527.388,132.686,527.376,132.591,527.388,132.585Z" transform="translate(-474.843 -110.615)" fill="#eb996e"/><path d="M528.426,137.4a.812.812,0,1,1-.753-.871A.812.812,0,0,1,528.426,137.4Z" transform="translate(-474.607 -113.509)" fill="#e0e0e0"/><path d="M505.6,138.226a1.9,1.9,0,0,1-1.15,2.881,1.12,1.12,0,0,1-.711-.041,1.583,1.583,0,0,1-.688-1.031l-.32-1.014a.45.45,0,0,1,0-.35c.059-.113.2-.142.332-.166l2.484-.415" transform="translate(-464.791 -114.146)" fill="#eb996e"/><path d="M503.66,140.823a2.235,2.235,0,0,0,1.12-.065,1.778,1.778,0,0,0,1.031-.717,1.345,1.345,0,0,0,.2-.747,2.2,2.2,0,0,0-.142-.794,2.073,2.073,0,0,0-.409-.67l-.065-.059h-.083c-1.654.456-2.964.658-2.964.729a9.959,9.959,0,0,0,3.011-.451l-.142-.042a1.891,1.891,0,0,1,.35.593,1.612,1.612,0,0,1,0,1.3,1.636,1.636,0,0,1-.86.664C504.093,140.763,503.654,140.763,503.66,140.823Z" transform="translate(-464.648 -114.015)" fill="#263238"/><path d="M512.069,107.123a24.178,24.178,0,0,1,6.479,6.923l-2.229,3.776c-3.788-.356-4.238-.741-6.906-3.45s-7.967-8.109-8.263-11.9C504.73,103.466,509.04,104.96,512.069,107.123Z" transform="translate(-464.16 -99.64)" fill="#263238"/><path d="M519.929,136.555a2.553,2.553,0,0,1,.184-.4c.13-.249.32-.628.551-1.114a28.771,28.771,0,0,0,1.63-4.256,27.768,27.768,0,0,0,1.085-6.651,18,18,0,0,0-.207-3.96,6.911,6.911,0,0,0-1.826-3.723,13.229,13.229,0,0,0-3.557-2.288,26.821,26.821,0,0,1-3.5-1.992,25.815,25.815,0,0,1-5.05-4.558,28.484,28.484,0,0,1-2.7-3.717,9.192,9.192,0,0,1-.593-1.079,2.642,2.642,0,0,1-.2-.391,2.047,2.047,0,0,1,.249.362c.148.237.373.593.67,1.043a33.018,33.018,0,0,0,2.768,3.628,26.293,26.293,0,0,0,5.044,4.469,27.2,27.2,0,0,0,3.474,1.95,13.552,13.552,0,0,1,3.651,2.371,7.238,7.238,0,0,1,1.909,3.894,18.338,18.338,0,0,1,.2,4.031,27.266,27.266,0,0,1-1.186,6.7,25.824,25.824,0,0,1-1.737,4.25c-.249.48-.456.848-.593,1.091a1.887,1.887,0,0,1-.267.332Z" transform="translate(-466.033 -99.623)" fill="#455a64"/><path d="M523.274,114.3a6.87,6.87,0,0,0-1.31-2.875,9.726,9.726,0,0,0-2.614-2.264,34.97,34.97,0,0,0-3.806-1.921,25.9,25.9,0,0,1-6.556-4.232,22.531,22.531,0,0,1-1.683-1.666,3.77,3.77,0,0,1-.545-.676,5.028,5.028,0,0,1,.634.593c.4.385.984.942,1.749,1.577a28.084,28.084,0,0,0,6.52,4.114,32.465,32.465,0,0,1,3.829,1.962,9.426,9.426,0,0,1,2.608,2.371,5.928,5.928,0,0,1,1.031,2.146,3.554,3.554,0,0,1,.1.64A.592.592,0,0,1,523.274,114.3Z" transform="translate(-466.444 -98.907)" fill="#455a64"/><path d="M485.613,140.386a2.319,2.319,0,0,1,0-.445c0-.338,0-.759.042-1.274.047-1.108.124-2.709.231-4.689.225-3.954.593-9.425,1.31-15.412a50.877,50.877,0,0,1,1.559-8.376,17.191,17.191,0,0,1,2.964-5.975,8.821,8.821,0,0,1,3.165-2.579,4.9,4.9,0,0,1,.978-.344,1.321,1.321,0,0,1,.356-.053c0,.041-.48.136-1.292.545a9.282,9.282,0,0,0-3.047,2.632,17.254,17.254,0,0,0-2.857,5.928,51.88,51.88,0,0,0-1.512,8.3c-.741,5.987-1.12,11.446-1.4,15.412-.136,1.932-.255,3.515-.338,4.677-.042.516-.077.937-.1,1.274a2.215,2.215,0,0,1-.053.379Z" transform="translate(-457.828 -99.139)" fill="#455a64"/><path d="M467.858,176.16s.741-5.928,3.61-8.921,14.866-6.7,14.866-6.7.492,4.238,3.367,5.264c3.047,1.085,6.52.676,8.719-1.909a14.018,14.018,0,0,0,2.792-5.726s14.327,1.322,16.662,5.252,5.335,19.146,5.335,19.146l-13.4,2.845.883,12.371-32.922.2-1.02-10.924-9.686,1.387Z" transform="translate(-450.281 -122.323)" fill="#455a64"/><path d="M534.7,195.234a2.532,2.532,0,0,1-.047-.593c0-.379,0-.931,0-1.606,0-1.363,0-3.242.059-5.335s.1-3.954.16-5.335c0-.682.053-1.227.083-1.612a1.979,1.979,0,0,1,.071-.593,2.44,2.44,0,0,1,.047.593v1.612c0,1.357,0,3.236-.059,5.335s-.1,3.954-.16,5.335c0,.682-.053,1.233-.083,1.612a1.98,1.98,0,0,1-.071.587Z" transform="translate(-477.801 -131.279)" fill="#263238"/><path d="M477.85,187.38c.077,0,.919,2.632,1.867,5.928s1.648,6,1.571,6.022-.919-2.638-1.867-5.928a60.684,60.684,0,0,1-1.571-6.022Z" transform="translate(-454.671 -134.219)" fill="#263238"/><path d="M544.465,165.424c0,.059-.634.178-1.612.545a11.683,11.683,0,0,0-6.022,5.246c-.5.913-.711,1.541-.765,1.517s0-.166.1-.45a7.381,7.381,0,0,1,.468-1.186,10.467,10.467,0,0,1,2.543-3.29,10.581,10.581,0,0,1,3.6-2.057,7,7,0,0,1,1.221-.3A1.441,1.441,0,0,1,544.465,165.424Z" transform="translate(-478.37 -125.274)" fill="#263238"/><path d="M474.13,175.49a6.378,6.378,0,0,1,.628,1.849,6.3,6.3,0,0,1,.326,1.921A12.14,12.14,0,0,1,474.13,175.49Z" transform="translate(-453.156 -129.377)" fill="#263238"/><path d="M511.88,180.245c0,.095-7.6,1.12-16.994,2.288s-17.024,2.033-17.036,1.938,7.593-1.126,16.994-2.294S511.868,180.144,511.88,180.245Z" transform="translate(-454.671 -131.31)" fill="#fff"/><path d="M548.2,179.493a61.042,61.042,0,0,1-6.254,1.731,60.179,60.179,0,0,1-6.337,1.387,59.735,59.735,0,0,1,6.254-1.737A55.874,55.874,0,0,1,548.2,179.493Z" transform="translate(-478.193 -131.002)" fill="#fff"/><path d="M550.4,193.473c0,.095-3.254.877-7.32,1.743s-7.374,1.494-7.392,1.4,3.254-.877,7.32-1.749S550.378,193.372,550.4,193.473Z" transform="translate(-478.226 -136.696)" fill="#fff"/><path d="M489.685,167c0,.095-3.13.984-7.042,1.986s-7.113,1.737-7.113,1.642,3.124-.984,7.036-1.986S489.661,166.919,489.685,167Z" transform="translate(-453.726 -125.915)" fill="#fff"/><path d="M513.444,201.378c0,.1-6.811.593-15.228,1.079S483,203.28,483,203.186s6.811-.593,15.228-1.085S513.438,201.277,513.444,201.378Z" transform="translate(-456.768 -139.912)" fill="#fff"/><path d="M470.18,193.746a12.568,12.568,0,0,1,2.667-.456,12.88,12.88,0,0,1,2.7-.231,9.154,9.154,0,0,1-2.656.593A8.44,8.44,0,0,1,470.18,193.746Z" transform="translate(-451.547 -136.53)" fill="#fff"/><path d="M515.387,218.386a6.519,6.519,0,0,1-1.037.113l-2.833.184-9.336.593-9.33.729-2.827.225a5.785,5.785,0,0,1-1.043.036,6.24,6.24,0,0,1,1.025-.178c.664-.089,1.63-.2,2.822-.332,2.371-.261,5.679-.593,9.33-.836s6.953-.433,9.348-.516c1.186-.047,2.17-.071,2.839-.077A5.133,5.133,0,0,1,515.387,218.386Z" transform="translate(-459.204 -146.82)" fill="#fff"/><path d="M472.492,199.581l-4.576.593L463.595,189l-6.994,2.827s3.853,13.041,5.335,18.346h14.226Z" transform="translate(-446.017 -134.879)" fill="#ffbe9d"/><path d="M480.807,215.965a25.89,25.89,0,0,1-2.371-2.893,20.388,20.388,0,0,1-1.523-2.632c-.379-.782-.634-1.434-.812-1.891a3.893,3.893,0,0,0-.29-.7,3.139,3.139,0,0,0,.178.741,17.36,17.36,0,0,0,.729,1.944,18.016,18.016,0,0,0,1.482,2.7,23.8,23.8,0,0,0,2.371,2.964A9.485,9.485,0,0,1,482,218.051h.362a10.349,10.349,0,0,0-1.559-2.087Z" transform="translate(-453.84 -142.555)" fill="#eb996e"/><path d="M456.324,176.433a40.681,40.681,0,0,0-.4-6.259l-3.26-7.6s-.942-.48-1.114.966a6.117,6.117,0,0,0,.533,3.035l.107,2.021-1.4-1.138-2.685-5.033s-1.849-3.669-2.329-3.082-.326,1.778.474,3.337l1.814,3.592s.273.634-.682-.29-3.017-5.4-3.444-5.957-1.014-2.2-1.938-1.832.261,2.371.261,2.371l2.964,6.639-2.027-2.964c-.308-.451-1.025-1.861-1.589-2.6s-1.185-1.02-1.589-.842a.83.83,0,0,0-.51,1.014l3.159,5.489s1.583,2.46,1.583,2.65-1.381-.818-1.381-.818l-1.328-1.689s-1.434-2.531-2.187-2.371-.593.7-.593.7l2.667,4.612,3.865,4.973,4.149,4.108,2.371-.771Z" transform="translate(-438.746 -122.311)" fill="#ffbe9d"/><path d="M455.519,181.495a10.328,10.328,0,0,0,.255-1.565,4.885,4.885,0,0,1,1.589-3.159,2.59,2.59,0,0,1,1.606-.593h.2v-.213c-.059-.948-.03-1.849-.065-2.448a2.687,2.687,0,0,0-.13-.966,5.2,5.2,0,0,0-.095.96c0,.593-.119,1.44-.077,2.507l.184-.213a2.964,2.964,0,0,0-1.855.676,3.96,3.96,0,0,0-1.245,1.743,6.4,6.4,0,0,0-.373,1.689A4.612,4.612,0,0,0,455.519,181.495Z" transform="translate(-445.546 -128.179)" fill="#eb996e"/><path d="M536.138,202.816,535,214.748h11.369c.456-1.743,2.152-14.558,2.152-14.558Z" transform="translate(-477.945 -139.436)" fill="#ffbe9d"/></g><g transform="translate(116.952 160.643)"><path d="M247.85,255.8a3.242,3.242,0,0,1-1.677-1.992,3.26,3.26,0,0,0,2.525-3.041,8.95,8.95,0,0,0-.634-2.656,3.438,3.438,0,0,1,.042-2.667c.753-1.34,2.418-1.731,3.385-2.928a7.166,7.166,0,0,0,1.268-3.065,5.928,5.928,0,0,1,5.928-4.416,20.1,20.1,0,0,0,3.527.379c1.618-.184,2.928-1.4,4.493-1.843a4.938,4.938,0,0,1,4.463.966c.865.729,1.458,1.778,2.371,2.418a16.4,16.4,0,0,0,3.408,1.4,3.69,3.69,0,0,1,2.543,2.454c.231,1.31-.717,2.715-.19,3.93.249.593,1.215,1.541,1.411,2.128.919,2.691-1.144,4.493-.806,5.554,1.778,5.607-.4,8.026-2.247,8.239l-23.117-.492a6.52,6.52,0,0,1-8.672-3.888A3.8,3.8,0,0,0,247.85,255.8Z" transform="translate(-196.046 -233.231)" fill="#e0e0e0"/><path d="M255.971,271.668c-.119-.053-4.837-1.523-4.742,3.319s4.914,3.776,4.92,3.634S255.971,271.668,255.971,271.668Z" transform="translate(-198.228 -248.716)" fill="#ffbe9d"/><path d="M255.5,277.887a1.836,1.836,0,0,1-.225.13.847.847,0,0,1-.628,0,2.108,2.108,0,0,1-1-1.861,2.839,2.839,0,0,1,.219-1.185.966.966,0,0,1,.628-.658.421.421,0,0,1,.5.225c.071.136.041.231.065.237s.1-.083.059-.279a.486.486,0,0,0-.2-.3.634.634,0,0,0-.468-.119,1.186,1.186,0,0,0-.865.765,2.791,2.791,0,0,0-.273,1.351,2.183,2.183,0,0,0,1.257,2.075.919.919,0,0,0,.771-.136A.586.586,0,0,0,255.5,277.887Z" transform="translate(-199.078 -249.796)" fill="#eb996e"/><path d="M283.388,268.445c.1-3.414-.261-10.468-.664-16.846A13.2,13.2,0,0,0,269.79,239.24h-.682c-7.374.3-11.233,6.728-10.729,14.09l.64,24.3,12.62,7.824,4.446-3.479V276.5S283.175,275.523,283.388,268.445Z" transform="translate(-201.123 -235.612)" fill="#ffbe9d"/><path d="M281.972,300.176a16.461,16.461,0,0,1-9.182-2.786s2.045,5.21,9.117,4.7Z" transform="translate(-207.009 -259.294)" fill="#eb996e"/><path d="M292.845,269.1a1.008,1.008,0,0,1-.99,1.008.966.966,0,0,1-1.025-.931,1.008,1.008,0,0,1,.99-1,.96.96,0,0,1,1.025.925Z" transform="translate(-214.356 -247.396)" fill="#263238"/><path d="M274.815,268.549a1.008,1.008,0,0,1-.99,1,.972.972,0,0,1-1.025-.931,1.008,1.008,0,0,1,.99-1,.96.96,0,0,1,1.026.931Z" transform="translate(-207.014 -247.168)" fill="#263238"/><path d="M293.619,264.706c-.13.13-.883-.451-1.974-.468s-1.891.516-2.009.379.077-.3.427-.539a2.786,2.786,0,0,1,1.612-.468,2.656,2.656,0,0,1,1.565.533C293.572,264.433,293.685,264.647,293.619,264.706Z" transform="translate(-213.856 -245.536)" fill="#263238"/><path d="M274.836,264.507c-.136.124-.854-.5-1.938-.593s-1.921.4-2.027.255.089-.29.462-.516a2.732,2.732,0,0,1,1.636-.362,2.65,2.65,0,0,1,1.529.634C274.806,264.2,274.9,264.454,274.836,264.507Z" transform="translate(-206.216 -245.402)" fill="#263238"/><path d="M284.953,273.4a7.327,7.327,0,0,1,1.778-.284c.279,0,.539-.077.593-.267a1.423,1.423,0,0,0-.172-.824l-.782-2.128a35.947,35.947,0,0,1-1.749-5.566,35.644,35.644,0,0,1,2.187,5.412c.267.747.516,1.458.753,2.14a1.594,1.594,0,0,1,.124,1.091.682.682,0,0,1-.462.4,1.81,1.81,0,0,1-.474.059A7.11,7.11,0,0,1,284.953,273.4Z" transform="translate(-211.822 -245.83)" fill="#263238"/><path d="M274.462,258.231c-.136.285-1.185.036-2.49.059s-2.371.267-2.49,0c-.059-.136.148-.391.593-.634a4.149,4.149,0,0,1,1.9-.456,4.1,4.1,0,0,1,1.9.421C274.314,257.846,274.528,258.1,274.462,258.231Z" transform="translate(-205.659 -242.926)" fill="#e0e0e0"/><path d="M294.08,258.7c-.2.243-.937,0-1.838-.053s-1.672.136-1.838-.124c-.077-.124.047-.373.385-.593a2.667,2.667,0,0,1,2.964.142C294.068,258.325,294.169,258.58,294.08,258.7Z" transform="translate(-214.174 -243.067)" fill="#e0e0e0"/><path d="M273.569,237.181c-2.661-1.186-5.412-.7-8.3-.379a13.005,13.005,0,0,0-6.188,2.211,11.776,11.776,0,0,0-4.825,8.992,33.435,33.435,0,0,0,1.043,10.272h0a5.015,5.015,0,0,0-.136,2.656,1.718,1.718,0,0,0,2.069,1.221c.972-.385,1.049-1.707,1-2.756a75.281,75.281,0,0,1,.338-10.593c.249-2.632,1.867-5.809,3.966-6.983,4.742-2.62,8.216,0,9.8.64,2.614-2.081,5.406-.741,6.888,1.186C278.768,240.8,276.231,238.337,273.569,237.181Z" transform="translate(-199.431 -234.466)" fill="#e0e0e0"/><path d="M251.58,246.86c0,.16.3.362.925.462a6.236,6.236,0,0,0,2.62-.3,14,14,0,0,0,3.391-1.689c1.186-.753,2.324-1.624,3.557-2.33a7.854,7.854,0,0,1,3.557-1.144,7.249,7.249,0,0,1,3.017.516c1.7.658,2.567,1.595,2.869,1.375.071-.047.095-.16.065-.332a2.17,2.17,0,0,0-.267-.682,5.69,5.69,0,0,0-1.838-1.909,7.522,7.522,0,0,0-3.835-1.257,7.706,7.706,0,0,0-2.436.285,10.753,10.753,0,0,0-2.33.99,29.8,29.8,0,0,0-3.663,2.626,23.246,23.246,0,0,1-2.75,1.938,14.47,14.47,0,0,1-2.039.931C251.906,246.552,251.586,246.682,251.58,246.86Z" transform="translate(-198.372 -235.746)" fill="#f5f5f5"/><path d="M251.26,257.661a2.514,2.514,0,0,0,1,.213,6.325,6.325,0,0,0,2.436-.3,6.248,6.248,0,0,0,2.14-1.186,2.662,2.662,0,0,0,.682-.753,9.444,9.444,0,0,0-.788.593,7.551,7.551,0,0,1-2.11,1.1,7.433,7.433,0,0,1-2.371.35C251.651,257.691,251.272,257.632,251.26,257.661Z" transform="translate(-198.241 -242.291)" fill="#fff"/><path d="M247.39,263.822a1.116,1.116,0,0,0,.4-.089,10.753,10.753,0,0,0,1.043-.379,16.218,16.218,0,0,0,3.207-1.778,16.527,16.527,0,0,0,2.739-2.436c.314-.356.551-.646.705-.859a1.329,1.329,0,0,0,.219-.35c-.036,0-.4.421-1.055,1.085a19.79,19.79,0,0,1-2.75,2.371,20.448,20.448,0,0,1-3.136,1.814C247.917,263.585,247.372,263.786,247.39,263.822Z" transform="translate(-196.665 -243.224)" fill="#fff"/><path d="M278.1,235.92c0,.036.439.19,1.132.516a7.078,7.078,0,0,1,2.371,1.725,4.238,4.238,0,0,1,1.008,2.691,5.335,5.335,0,0,1-.2,1.186,1.252,1.252,0,0,0,.172-.3,2.809,2.809,0,0,0,.207-.907,4.149,4.149,0,0,0-1-2.857,6.455,6.455,0,0,0-2.5-1.725A4,4,0,0,0,278.1,235.92Z" transform="translate(-209.172 -234.26)" fill="#fff"/><path d="M282.87,233.12c0,.036.4.285.931.842a5.631,5.631,0,0,1,1.411,2.608,5.572,5.572,0,0,1-.172,2.964c-.243.735-.522,1.138-.486,1.186s.095-.083.219-.267a4.493,4.493,0,0,0,.433-.83,5.246,5.246,0,0,0-1.28-5.75,4.694,4.694,0,0,0-.747-.593.93.93,0,0,0-.308-.16Z" transform="translate(-211.114 -233.12)" fill="#fff"/><path d="M256.049,273.85a2.869,2.869,0,0,0,1.731-.593,2.816,2.816,0,0,0,1.185-1.357,14.181,14.181,0,0,1-1.351,1.15A15.668,15.668,0,0,1,256.049,273.85Z" transform="translate(-200.192 -248.913)" fill="#fff"/><path d="M255.52,275.648a3,3,0,0,0,1.944-.415,2.964,2.964,0,0,0,1.435-1.363,11.193,11.193,0,0,1-1.553,1.144A10.722,10.722,0,0,1,255.52,275.648Z" transform="translate(-199.976 -249.715)" fill="#fff"/><path d="M297.449,247.894a1.31,1.31,0,0,0,.688-.237,3.473,3.473,0,0,0,1.719-2.964,1.34,1.34,0,0,0-.136-.723c-.036,0,0,.284-.042.711a3.936,3.936,0,0,1-.5,1.589,4.06,4.06,0,0,1-1.126,1.233C297.692,247.752,297.432,247.859,297.449,247.894Z" transform="translate(-217.051 -237.539)" fill="#fff"/><path d="M296.134,245.711a6.579,6.579,0,0,0,1.885-3.331c-.071,0-.391.777-.919,1.689A15.586,15.586,0,0,0,296.134,245.711Z" transform="translate(-216.513 -236.891)" fill="#fff"/><path d="M267.439,266c-.03.047.3.3.765.48a1.607,1.607,0,0,0,.883.166,3.462,3.462,0,0,0-.812-.344,3.56,3.56,0,0,0-.836-.3Z" transform="translate(-204.829 -246.51)" fill="#eb996e"/><path d="M266.15,267.693a3.022,3.022,0,0,0,1.061.03,3.082,3.082,0,0,0,1.043-.166,5.732,5.732,0,0,0-2.1.136Z" transform="translate(-204.305 -247.119)" fill="#eb996e"/><path d="M297.22,269.015c0,.053.255.095.593.1s.593-.036.593-.089-.261-.1-.593-.107S297.22,268.967,297.22,269.015Z" transform="translate(-216.958 -247.699)" fill="#eb996e"/><path d="M297.678,267.776c0,.047.249-.036.492-.184s.427-.308.4-.35-.249.036-.5.184S297.648,267.734,297.678,267.776Z" transform="translate(-217.143 -247.012)" fill="#eb996e"/><path d="M278.82,251.89c0,.03.344.107.871.32s1.233.563,2.039.913a5.554,5.554,0,0,0,2.2.516,2.679,2.679,0,0,0,.682-.083c.16-.042.237-.077.237-.089a5.639,5.639,0,0,1-.919.036,6.236,6.236,0,0,1-2.122-.557c-.8-.344-1.517-.694-2.069-.865A2.679,2.679,0,0,0,278.82,251.89Z" transform="translate(-209.465 -240.764)" fill="#eb996e"/><path d="M281.24,251.616a6.372,6.372,0,0,0,4.422.646,22.172,22.172,0,0,1-2.241-.113C282.194,251.978,281.264,251.557,281.24,251.616Z" transform="translate(-210.451 -240.65)" fill="#eb996e"/><path d="M277.462,280.668c.047.03.213-.391.676-.593a2.016,2.016,0,0,1,.883-.047.467.467,0,0,0-.249-.16,1.037,1.037,0,0,0-.705,0,1.078,1.078,0,0,0-.539.468C277.444,280.549,277.438,280.662,277.462,280.668Z" transform="translate(-208.907 -252.133)" fill="#eb996e"/><path d="M275.907,280.135a2.159,2.159,0,0,1,.622-.735,2.27,2.27,0,0,1,.925-.267.578.578,0,0,0-.3-.095,1.186,1.186,0,0,0-.729.2,1.221,1.221,0,0,0-.486.593C275.871,280.011,275.883,280.135,275.907,280.135Z" transform="translate(-208.271 -251.819)" fill="#eb996e"/><path d="M273.25,308.264a.412.412,0,0,0,.2-.077.984.984,0,0,0,.35-.486,4.1,4.1,0,0,0,.172-.854,1.126,1.126,0,0,1,.439-.824,9.747,9.747,0,0,0,.954-.439,1.411,1.411,0,0,0,.5-.735,1,1,0,0,0-.042-.8,2.371,2.371,0,0,1-.089.759,1.393,1.393,0,0,1-.48.634c-.237.184-.593.207-.954.415a.978.978,0,0,0-.379.456,2.081,2.081,0,0,0-.13.51,4.24,4.24,0,0,1-.124.836A1.085,1.085,0,0,1,273.25,308.264Z" transform="translate(-207.197 -262.006)" fill="#eb996e"/><path d="M270.48,307.082a1.185,1.185,0,0,0,.694-.451,1.831,1.831,0,0,0,.409-.818,1.7,1.7,0,0,0,.036-.551c0-.19-.059-.373-.071-.551a1.037,1.037,0,0,1,.468-.842,4.64,4.64,0,0,0,.344-.338,1.008,1.008,0,0,0,.207-.391.676.676,0,0,0-.065-.593c-.107-.119-.2-.124-.2-.119a.775.775,0,0,1,.136.16.634.634,0,0,1,0,.534.935.935,0,0,1-.2.326,4.616,4.616,0,0,1-.344.308,2.026,2.026,0,0,0-.379.4.966.966,0,0,0-.16.593c0,.207.053.391.071.593a1.706,1.706,0,0,1,0,.492,1.778,1.778,0,0,1-.344.765,3.172,3.172,0,0,1-.6.486Z" transform="translate(-206.069 -261.345)" fill="#eb996e"/><path d="M284.217,283.234c-1.34,4.363-5.246.462-2.857-1.274a19.9,19.9,0,0,1,3.017,1.114" transform="translate(-210.191 -253.01)" fill="#eb996e"/><path d="M283.033,285.094c-1.423.326-3.337-1.328-2.116-3.029.593-.172,1.778.682,2.371.782,1.7.646,1.778.5.119-.285-.741-.249-1.689-1.025-2.567-.984C278.907,283.013,281.142,286.291,283.033,285.094Z" transform="translate(-209.985 -252.854)" fill="#263238"/><path d="M177.129,323.41l-.107-2.371a1.345,1.345,0,0,0-.107-.48l-1.263-3.023s5.127-5.839,5.4-6.562.107-1.482-1.186-.948-5.4,4.339-5.4,4.339l-1.589-2.816s3.711-3.96,4.078-4.386.154-2.644-1.221-1.9a44.118,44.118,0,0,0-4.867,3.918l-.954-.954,2.75-4.232s.954-1.482-.207-1.909-1.7.427-2.543,1.375a31.464,31.464,0,0,0-2.152,3.017l-.818-.065-1.263-.3.095-1.47s1.7-2.454,1.986-3c.231-.445.954-1.5,0-1.921s-1.577-.51-2.081.356a5.334,5.334,0,0,1-1.043,1.12,7.179,7.179,0,0,0-1.7-1.186c-.753-.231-1.642.634-.765,3.047.142.4,1.008,4.843,1.008,4.843l.213,2.33,1.014,2.081,4.546,7.961v3.13" transform="translate(-161.816 -260.115)" fill="#ffbe9d"/><path d="M173.953,319.077a8.162,8.162,0,0,0,.308-1.186l.362-1.3c.065-.249.136-.51.2-.788a.88.88,0,0,0,.03-.13.332.332,0,0,0,0-.107v-.036a.231.231,0,0,0-.2-.107.2.2,0,0,0-.148.059h0l-.03.042v.119a.344.344,0,0,0,0,.142h0a.243.243,0,0,0,.148.166.225.225,0,0,0,.178,0h0l.053-.047v-.071l.053-.095a2.621,2.621,0,0,1,.219-.326,19.636,19.636,0,0,1,2.164-2.039c.593-.5.937-.836.9-.889a3.953,3.953,0,0,0-1.091.64,12.217,12.217,0,0,0-2.318,2.009,3.056,3.056,0,0,0-.261.4l-.053.1h0a.788.788,0,0,0,.119.077c.047,0,.047.065.077.053.285.042.178.03.2,0h0l-.119-.059c-.041,0-.071-.053-.083-.042s-.053,0-.154,0h-.047v.047c-.053.261-.113.516-.166.777-.113.5-.213.954-.273,1.34C173.823,318.585,173.882,319.083,173.953,319.077Z" transform="translate(-166.731 -265.439)" fill="#eb996e"/><path d="M169.548,315.389a9.6,9.6,0,0,1,.368-2.679c.539-1.4,1.4-2.33,1.28-2.424s-1.12.741-1.7,2.27a4.3,4.3,0,0,0-.237,2.033C169.334,315.116,169.5,315.4,169.548,315.389Z" transform="translate(-164.833 -264.542)" fill="#eb996e"/><path d="M182.265,330.192a9.974,9.974,0,0,0,2.122-2.1,9.652,9.652,0,0,0,1.778-2.4,9.844,9.844,0,0,0-2.122,2.1A10.1,10.1,0,0,0,182.265,330.192Z" transform="translate(-170.141 -270.816)" fill="#eb996e"/><path d="M179.107,326.139a8.366,8.366,0,0,0,2.134-1.778,8.925,8.925,0,0,0,1.814-2.087,8.542,8.542,0,0,0-2.128,1.778A9.673,9.673,0,0,0,179.107,326.139Z" transform="translate(-168.856 -269.425)" fill="#eb996e"/><path d="M186.809,333.613a3.788,3.788,0,0,0-.433-1.577c-.231-.439-.474-.788-.652-1.1a11.077,11.077,0,0,1-.462-1.049c-.065,0-.136.5.184,1.186a6.058,6.058,0,0,1,.913,2.555,3.189,3.189,0,0,1-.533,2.193h.48C186.8,335.29,186.862,334.792,186.809,333.613Z" transform="translate(-171.341 -272.529)" fill="#eb996e"/><path d="M168.406,308.107a7.905,7.905,0,0,0,.207-2.312l-.036.119a10.88,10.88,0,0,0,.652-1c.486-.842.848-1.63,1.138-2.181s.468-.907.415-.942-.326.249-.682.777-.782,1.3-1.257,2.128c-.207.35-.415.682-.593.984l-.042.059v.059A7.694,7.694,0,0,0,168.406,308.107Z" transform="translate(-164.42 -261.083)" fill="#eb996e"/><path d="M164.031,310.926c.041,0-.071-.344-.107-.937a23.156,23.156,0,0,1-.036-2.418v-.047c-.13-.723-.273-1.488-.415-2.288a.341.341,0,0,0-.03-.172h0a3.074,3.074,0,0,1,.842-1.778l1.02-1.44a6.235,6.235,0,0,0,.848-1.387c-.053-.042-.462.421-1.1,1.185l-1.1,1.381a8.948,8.948,0,0,0-.622.871,2.11,2.11,0,0,0-.338,1.186v.03a.364.364,0,0,0,.03.172c.16.8.308,1.559.451,2.282v-.041a13.785,13.785,0,0,0,.2,2.466C163.788,310.63,163.99,310.95,164.031,310.926Z" transform="translate(-162.298 -260.542)" fill="#eb996e"/><path d="M179.613,323.386c.124-.036-.041-.842.071-1.82a16.152,16.152,0,0,0,.32-1.778c-.113-.047-.646.658-.759,1.743S179.506,323.434,179.613,323.386Z" transform="translate(-168.905 -268.414)" fill="#eb996e"/><path d="M174.053,318.027a13.965,13.965,0,0,0,.433-1.891,11.764,11.764,0,0,0,.593-1.849c-.113-.071-.729.628-1.025,1.731A2.942,2.942,0,0,0,174.053,318.027Z" transform="translate(-166.736 -266.173)" fill="#eb996e"/><path d="M205.35,324.286s7.457-11.262,8.968-12.08,16.763-6.165,16.763-6.165l6.52-4.481-1.043,9.247,2.069,13.479" transform="translate(-179.545 -260.992)" fill="#263238"/><path d="M274.389,303.222l-6.147,6.2L257.3,302.54l-3.13,6.159,2.537,15.987,23.562-.136.107-10.681Z" transform="translate(-199.427 -261.391)" fill="#f5f5f5"/><path d="M281.189,330.122c-.593-2.235-3.142-8.3-3.142-8.3l1.523-2.436c-.107-3.349-3.047-3.651-4.57-3.45s-1.873,3.45-1.873,3.45l1.974,2.845L272.73,330.1Z" transform="translate(-206.985 -266.827)" fill="#90caf9"/><path d="M315.718,324.987l-2.679-7.647a4.742,4.742,0,0,0-2.964-3.142l-15.21-5.453-6.835-5.465,3.675,8.423v13.408Z" transform="translate(-213.216 -261.692)" fill="#263238"/><path d="M226.137,332.951a11.22,11.22,0,0,1-.3-1.512,24.4,24.4,0,0,0-.972-3.557,22.876,22.876,0,0,0-1.535-3.361,12.273,12.273,0,0,1-.747-1.352,5.566,5.566,0,0,1,.931,1.239,17.321,17.321,0,0,1,1.642,3.367,17.831,17.831,0,0,1,.9,3.64,6,6,0,0,1,.089,1.535Z" transform="translate(-186.562 -269.792)" fill="#455a64"/><path d="M320.5,332.549a6.287,6.287,0,0,1,.243-1.393,32.046,32.046,0,0,1,.948-3.272,18.539,18.539,0,0,1,1.387-3.118,4.624,4.624,0,0,1,.818-1.156,11.946,11.946,0,0,1-.628,1.263,27.264,27.264,0,0,0-1.286,3.118C321.122,330.48,320.6,332.572,320.5,332.549Z" transform="translate(-226.439 -269.971)" fill="#455a64"/><path d="M302.674,328.448a5.388,5.388,0,0,1,.261-.954c.213-.658.492-1.517.818-2.543v.113l-1.114-1.387c-.2-.249-.409-.5-.628-.765l-.332-.391-.172-.19-.148-.148-.136-.136.077-.089a5.927,5.927,0,0,1,2.33-1.535,8.939,8.939,0,0,1,.9-.314l-.089.225c-1.31-2.241-2.667-4.149-3.557-5.548-.445-.705-.788-1.286-1.014-1.689a3.105,3.105,0,0,1-.314-.646,3.374,3.374,0,0,1,.415.593c.285.433.652.978,1.091,1.636.925,1.381,2.312,3.248,3.64,5.507l.095.172-.184.053a8.884,8.884,0,0,0-.865.3,5.7,5.7,0,0,0-2.211,1.434l-.059-.231a1.184,1.184,0,0,1,.243.219l.178.2.338.4.593.777,1.091,1.417.042.047v.065c-.373,1.008-.682,1.849-.919,2.5a5.378,5.378,0,0,1-.362.907Z" transform="translate(-217.907 -265.427)" fill="#455a64"/><path d="M243.93,327.715a4.475,4.475,0,0,1-.219-.694c-.148-.5-.332-1.15-.551-1.926a22.525,22.525,0,0,1-.658-2.964,2.306,2.306,0,0,1,.036-.919,3.486,3.486,0,0,1,.379-.883,2.371,2.371,0,0,1,1.636-1.186v.332l-1.517-.172-1.126-.124a.154.154,0,0,1-.13-.172.083.083,0,0,1,0-.042c1.12-2.549,2.128-4.8,2.869-6.414l.883-1.9a3.975,3.975,0,0,1,.362-.676,3.792,3.792,0,0,1-.255.717c-.207.51-.48,1.156-.8,1.938-.688,1.636-1.666,3.906-2.78,6.449l-.124-.213,1.12.124,1.512.172a.154.154,0,0,1,.136.172.16.16,0,0,1-.13.136,2.1,2.1,0,0,0-1.429,1.02,3.308,3.308,0,0,0-.356.8,2,2,0,0,0-.041.818,26.083,26.083,0,0,0,.593,2.934A17.968,17.968,0,0,1,243.93,327.715Z" transform="translate(-194.379 -264.421)" fill="#455a64"/></g><g transform="translate(147.802 84.53)"><path d="M256.25,124.184l-.332,26.413c-.053,4.493.782,11.108,7.89,10.871h0c6.153-.67,7.783-6.52,7.83-10.67,0-1.986.047-3.645.059-3.847,0,0,6.734-.551,7.3-7.2.273-3.213.3-9.875.255-15.91a12.448,12.448,0,0,0-11.529-12.294l-.64-.047C260.115,111.38,256.156,117.225,256.25,124.184Z" transform="translate(-230.987 -107.477)" fill="#936760"/><path d="M276.716,169.085a16.159,16.159,0,0,1-8.476-3.195s1.778,5.015,8.441,4.9Z" transform="translate(-236.006 -129.629)" fill="#6f4c47"/><path d="M273.3,136.062c-.13.136-.9-.486-2.015-.516s-1.944.522-2.063.373c-.059-.059.083-.308.445-.593a2.774,2.774,0,0,1,1.654-.468,2.685,2.685,0,0,1,1.6.593C273.234,135.748,273.364,136,273.3,136.062Z" transform="translate(-236.4 -116.99)" fill="#263238"/><path d="M272.956,140.147a.9.9,0,0,1-.931.848.859.859,0,0,1-.865-.877.9.9,0,0,1,.931-.848.859.859,0,0,1,.865.877Z" transform="translate(-237.195 -118.787)" fill="#263238"/><path d="M280.82,144.119a7.291,7.291,0,0,1,1.683-.178c.261,0,.516-.041.593-.213a1.31,1.31,0,0,0-.119-.788c-.2-.652-.409-1.334-.622-2.045A33.363,33.363,0,0,1,281,135.56a34.023,34.023,0,0,1,1.778,5.21l.593,2.051a1.529,1.529,0,0,1,.059,1.037.682.682,0,0,1-.456.35,2.07,2.07,0,0,1-.451,0A6.686,6.686,0,0,1,280.82,144.119Z" transform="translate(-241.129 -117.277)" fill="#263238"/><path d="M272.461,129.226c-.107.249-1,.065-2.069.119s-1.944.29-2.069.053c-.053-.113.113-.344.474-.593a3.361,3.361,0,0,1,1.565-.439,3.3,3.3,0,0,1,1.589.308C272.324,128.894,272.508,129.107,272.461,129.226Z" transform="translate(-236.036 -114.345)" fill="#263238"/><path d="M290.353,132.712c-.119.2-.984,0-2.039-.059s-1.926.107-2.039-.107c-.047-.1.124-.279.492-.439a3.675,3.675,0,0,1,1.559-.261,3.805,3.805,0,0,1,1.547.385C290.258,132.422,290.406,132.611,290.353,132.712Z" transform="translate(-243.347 -115.763)" fill="#263238"/><path d="M253.581,141.053c-.113-.059-4.475-1.689-4.665,2.875s4.434,3.805,4.446,3.675S253.581,141.053,253.581,141.053Z" transform="translate(-228.134 -119.379)" fill="#936760"/><path d="M252.818,146.834a1.361,1.361,0,0,1-.219.107.759.759,0,0,1-.593,0,1.95,1.95,0,0,1-.836-1.778,2.549,2.549,0,0,1,.267-1.132.937.937,0,0,1,.593-.593.415.415,0,0,1,.462.237c.053.13,0,.219.047.231s.1-.071.071-.261a.516.516,0,0,0-.172-.3.593.593,0,0,0-.433-.13,1.12,1.12,0,0,0-.86.67,2.715,2.715,0,0,0-.326,1.263,2.1,2.1,0,0,0,1.079,2.015.86.86,0,0,0,.729-.089C252.806,146.946,252.835,146.846,252.818,146.834Z" transform="translate(-228.912 -120.394)" fill="#6f4c47"/><path d="M277.343,153.277c.053-.113-.842-.379-1.47-1.221a4.743,4.743,0,0,1-.628-1.186c-.136-.332-.237-.539-.285-.522s-.036.237.036.593a3.373,3.373,0,0,0,.593,1.334,2.744,2.744,0,0,0,1.186.9C277.1,153.307,277.343,153.319,277.343,153.277Z" transform="translate(-238.731 -123.299)" fill="#263238"/><path d="M284.034,115.092a1.079,1.079,0,0,0-.5-.628,3.337,3.337,0,0,0-1.7-.279,9.561,9.561,0,0,1-5-1.517,22.051,22.051,0,0,0-2.33-2.822,17,17,0,0,0-5.388-4.185,15.511,15.511,0,0,0-8.245-.646,6.3,6.3,0,0,0-4.742,4.855,4.8,4.8,0,0,0-4.825-.45h-.041c-1.778.628-2.756,2.484-3.278,4.28s-.741,3.717-1.689,5.335c-.2.338-.439.741-.261,1.091a.735.735,0,0,0,.777.338,2.163,2.163,0,0,0,.818-.368l-.593,1.4a4.114,4.114,0,0,0,1.915-.124,40.673,40.673,0,0,0,1.251,4.742,2.715,2.715,0,0,1,1.861.462c.593.551.9,1.595,1.915,1.186.522-.2,1-1.292,1.186-1.826a26.022,26.022,0,0,0,1.126-10.984,8.411,8.411,0,0,1,2.573-1.861l-.077.071c1.855-.646,3.96-1.28,5.726-.409,1.363.676,2.169,2.1,3.195,3.231a10.154,10.154,0,0,0,7.332,3.4c.095,1.873.059,4.523.16,6.4l1.571-3h0c.124-.219.231-.445.338-.664l.036-.071h0a11.107,11.107,0,0,1,.528-1.067h0a1.186,1.186,0,0,0,1.707-1.565,2.846,2.846,0,0,0-.563-.593,1.832,1.832,0,0,0,1.778.456,1.44,1.44,0,0,0,1.025-1.434,1.233,1.233,0,0,0-.735-.99,4.179,4.179,0,0,0,2.371-.522A1.093,1.093,0,0,0,284.034,115.092Z" transform="translate(-226.934 -104.716)" fill="#263238"/><path d="M259.973,114.7a5.734,5.734,0,0,0-.664.593,4.807,4.807,0,0,0-1.026,2.205,8.741,8.741,0,0,0-.166,1.7c0,.593.047,1.268.095,1.956a18.824,18.824,0,0,1,.047,2.181,8.811,8.811,0,0,1-.148,1.186,2.436,2.436,0,0,1-.474,1.114.984.984,0,0,1-.937.314,1.5,1.5,0,0,1-.842-.474,3.45,3.45,0,0,1-.646-1.7h.142a5.579,5.579,0,0,1-.812,1.393,1.968,1.968,0,0,1-1.292.705,1.292,1.292,0,0,1-.688-.119,1.085,1.085,0,0,1-.462-.462,1.1,1.1,0,0,1-.142-.593.83.83,0,0,1,.213-.516l.071.059a4.268,4.268,0,0,1-1.429,1.073,3.179,3.179,0,0,1-.445.172l-.16.041a.593.593,0,0,1,.154-.065c.095-.041.243-.1.427-.2a4.381,4.381,0,0,0,1.381-1.085l.071.059a.859.859,0,0,0-.047.99,1.037,1.037,0,0,0,.421.409,1.185,1.185,0,0,0,.593.1,1.867,1.867,0,0,0,1.186-.67,5.525,5.525,0,0,0,.777-1.363l.095-.213.047.231a3.32,3.32,0,0,0,.593,1.612,1.31,1.31,0,0,0,.753.427.836.836,0,0,0,.8-.267,2.275,2.275,0,0,0,.433-1.043,7.335,7.335,0,0,0,.148-1.126,17.346,17.346,0,0,0-.042-2.164c-.041-.694-.083-1.351-.077-1.974a8.4,8.4,0,0,1,.19-1.707,4.783,4.783,0,0,1,1.085-2.229A2.751,2.751,0,0,1,259.973,114.7Z" transform="translate(-228.663 -108.782)" fill="#455a64"/><path d="M287.419,118.588l-.053.047-.166.119a1.855,1.855,0,0,1-.285.178,2.528,2.528,0,0,1-.4.213,5.868,5.868,0,0,1-2.845.516,7.54,7.54,0,0,1-4.013-1.482,13.041,13.041,0,0,1-3.45-3.977c-.486-.806-.883-1.63-1.316-2.371a8.584,8.584,0,0,0-1.488-2.021,4.5,4.5,0,0,0-1.915-1.186,3.136,3.136,0,0,0-1.014-.113,3.6,3.6,0,0,0-.925.178,3.776,3.776,0,0,0-2.134,1.778,4.6,4.6,0,0,0-.344,1v-.071a.5.5,0,0,1,.03-.2,3.008,3.008,0,0,1,.255-.753,3.688,3.688,0,0,1,.741-1.008,3.983,3.983,0,0,1,1.411-.877,3.787,3.787,0,0,1,.954-.2,3.408,3.408,0,0,1,1.055.113,4.689,4.689,0,0,1,1.98,1.186,8.891,8.891,0,0,1,1.517,2.051c.445.771.836,1.595,1.316,2.371a13.088,13.088,0,0,0,3.4,3.936,7.468,7.468,0,0,0,3.936,1.488,5.928,5.928,0,0,0,2.816-.456A9.568,9.568,0,0,0,287.419,118.588Z" transform="translate(-235.529 -106.197)" fill="#455a64"/><path d="M297.578,120.688a1.186,1.186,0,0,1-.237.166,5.077,5.077,0,0,1-.705.356,6.9,6.9,0,0,1-1.12.368,7.5,7.5,0,0,1-1.429.19,7.416,7.416,0,0,1-1.44-.095,6.982,6.982,0,0,1-1.138-.3,4.386,4.386,0,0,1-.729-.314,1.281,1.281,0,0,1-.249-.148s.379.16,1.008.356a8.078,8.078,0,0,0,1.132.261,8.813,8.813,0,0,0,1.411.083,8.352,8.352,0,0,0,1.4-.172,9.016,9.016,0,0,0,1.108-.332C297.21,120.872,297.566,120.658,297.578,120.688Z" transform="translate(-245.083 -111.219)" fill="#455a64"/><path d="M290.426,136.772c-.136.13-.9-.486-2.015-.516s-1.95.516-2.063.373.077-.308.439-.593a2.8,2.8,0,0,1,1.66-.468,2.7,2.7,0,0,1,1.6.593C290.379,136.458,290.491,136.713,290.426,136.772Z" transform="translate(-243.367 -117.28)" fill="#263238"/><path d="M289.362,140.557a.907.907,0,0,1-.937.848.865.865,0,0,1-.865-.877.9.9,0,0,1,.931-.848.865.865,0,0,1,.871.877Z" transform="translate(-243.874 -118.954)" fill="#263238"/><path d="M238.934,173.78l-7.967,3.325a27.474,27.474,0,0,0-12.234,9.887c-.711,1.055-2.964,9.176-3.136,9.84-.658,2.667-1.737,7.255-1.737,7.255h63.289S275.281,186,270.77,182.511c-2.928-2.27-16.324-8.459-16.324-8.459a5.928,5.928,0,0,1-5.424,3.414A14.54,14.54,0,0,1,238.934,173.78Z" transform="translate(-213.86 -132.842)" fill="#90caf9"/></g></g></g></svg>