<svg xmlns="http://www.w3.org/2000/svg" xmlns:xlink="http://www.w3.org/1999/xlink" width="70" height="70" viewBox="0 0 70 70"><defs><clipPath id="a"><rect width="70" height="70" transform="translate(0 1.105)" fill="none"/></clipPath></defs><g transform="translate(2930.948 15932.896)"><g transform="translate(-2930.948 -15934)" opacity="0"><g clip-path="url(#a)"><rect width="70" height="70" transform="translate(0 1.105)" fill="#fff"/></g></g><path d="M66.574,36.2c1.99-2.011,1.949-6.047,1.891-11.633-.009-.913-.019-1.856-.019-2.822,0-9.14-13.1-13.4-21.956-13.4H23.51c-8.855,0-21.957,4.26-21.957,13.4,0,.966-.01,1.909-.019,2.822-.057,5.586-.1,9.622,1.891,11.633a3.91,3.91,0,0,0,2.849,1.145c2.375,0,5.853-1.6,8.546-3.06l-9.68,10.5a1.547,1.547,0,0,0-.408,1.046v16.5a1.542,1.542,0,0,0,1.541,1.543H63.726a1.542,1.542,0,0,0,1.543-1.541v-16.5a1.547,1.547,0,0,0-.408-1.046l-9.681-10.5c2.693,1.466,6.172,3.06,8.546,3.06a3.912,3.912,0,0,0,2.848-1.145ZM5.621,34.026c-1.085-1.1-1.041-5.333-1-9.431.009-.922.019-1.877.019-2.853C4.64,15.1,15.8,11.428,23.511,11.428h22.98c7.713,0,18.871,3.673,18.871,10.314,0,.976.01,1.931.019,2.853.042,4.1.086,8.336-1,9.431a.813.813,0,0,1-.655.231c-2.243,0-7.079-2.562-10.07-4.441v-9.54a1.542,1.542,0,0,0-1.541-1.543H17.886a1.542,1.542,0,0,0-1.543,1.541v9.542c-2.988,1.879-7.822,4.441-10.07,4.441a.813.813,0,0,1-.655-.231ZM62.184,60.782H7.821V46.427l11.2-12.149a1.547,1.547,0,0,0,.408-1.046V21.819H50.571V33.232a1.547,1.547,0,0,0,.408,1.046l11.2,12.149Z" transform="translate(-2930.948 -15934)" fill="#b26001"/><path d="M35,29.916a11.386,11.386,0,1,0,.005,0ZM35,49.6a8.3,8.3,0,1,1,8.3-8.3A8.3,8.3,0,0,1,35,49.6" transform="translate(-2930.948 -15934)" fill="#b26001"/></g></svg>