<svg xmlns="http://www.w3.org/2000/svg" xmlns:xlink="http://www.w3.org/1999/xlink" width="70" height="70" viewBox="0 0 70 70"><defs><clipPath id="a"><rect width="70" height="70" transform="translate(253.416 0.546)" fill="none"/></clipPath></defs><g transform="translate(2677.532 15933.454)"><g transform="translate(-2930.948 -15934)" opacity="0"><g clip-path="url(#a)"><rect width="70" height="70" transform="translate(253.416 0.546)" fill="#fff"/></g></g><path d="M300.506,18.917h-33.25a4.528,4.528,0,0,0-4.534,4.522V50.651a4.528,4.528,0,0,0,4.522,4.534h33.262a4.528,4.528,0,0,0,4.534-4.522V23.451a4.528,4.528,0,0,0-4.522-4.534h-.012m1.516,31.738a1.5,1.5,0,0,1-1.489,1.511H267.256a1.5,1.5,0,0,1-1.511-1.489V23.455a1.5,1.5,0,0,1,1.485-1.515h33.276a1.5,1.5,0,0,1,1.516,1.484V50.655Z" transform="translate(-2930.948 -15934)" fill="#b26001"/><path d="M311.085,23.451a3.023,3.023,0,1,0,3.023,3.023,3.022,3.022,0,0,0-3.023-3.023" transform="translate(-2930.948 -15934)" fill="#b26001"/><path d="M311.085,32.519a3.023,3.023,0,1,0,3.023,3.023,3.022,3.022,0,0,0-3.023-3.023" transform="translate(-2930.948 -15934)" fill="#b26001"/><path d="M312.6,41.587h-3.023a1.511,1.511,0,1,0,0,3.023H312.6a1.511,1.511,0,1,0,0-3.023" transform="translate(-2930.948 -15934)" fill="#b26001"/><path d="M315.619,12.871H292.076l6.5-6.5a1.518,1.518,0,0,0-2.146-2.146l-8.01,8.01-8.01-7.98A1.52,1.52,0,0,0,278.258,6.4l6.5,6.5H261.21a4.483,4.483,0,0,0-4.534,4.432V56.7a4.528,4.528,0,0,0,4.522,4.534h4.546v4.534a1.5,1.5,0,0,0,1.485,1.515h9.094a1.5,1.5,0,0,0,1.511-1.489v-4.56h21.16v4.534a1.5,1.5,0,0,0,1.485,1.515h9.1a1.5,1.5,0,0,0,1.511-1.489v-4.56h4.534a4.528,4.528,0,0,0,4.534-4.522V17.405a4.528,4.528,0,0,0-4.522-4.534h-.014M274.812,64.257h-6.045V61.234h6.045Zm33.25,0h-6.045V61.234h6.045ZM317.13,56.7a1.5,1.5,0,0,1-1.489,1.511H261.21a1.5,1.5,0,0,1-1.511-1.489V17.405a1.5,1.5,0,0,1,1.489-1.511h54.431a1.5,1.5,0,0,1,1.511,1.489V56.7Z" transform="translate(-2930.948 -15934)" fill="#b26001"/></g></svg>