<svg xmlns="http://www.w3.org/2000/svg" width="230.503" height="166.906" viewBox="0 0 230.503 166.906"><g transform="translate(-264 -6713.711)"><g transform="translate(264 6713.71)"><rect width="194.625" height="144.54" transform="translate(0.171 0.222)" fill="#fff"/><path d="M346.886,436.383c0-1.505-.077-57.046-.188-144.54l.18.18-194.6.043h0l.222-.222v144.54l-.205-.2,194.625.2-194.625.205h-.205V291.62h.239l194.6.043h.188v.18C346.954,379.336,346.886,434.878,346.886,436.383Z" transform="translate(-152.09 -291.62)" fill="#263238"/><path d="M346.909,314.292c0,.128-43.619.231-97.33.231s-97.33-.1-97.33-.231,43.567-.222,97.33-.222S346.909,314.173,346.909,314.292Z" transform="translate(-152.113 -294.869)" fill="#e0e0e0"/><ellipse cx="2.865" cy="2.865" rx="2.865" ry="2.865" transform="translate(5.542 6.013)" fill="#e0e0e0"/><ellipse cx="2.865" cy="2.865" rx="2.865" ry="2.865" transform="translate(14.172 6.013)" fill="#e0e0e0"/><ellipse cx="2.865" cy="2.865" rx="2.865" ry="2.865" transform="translate(22.801 6.013)" fill="#e0e0e0"/><path d="M354.79,424.945s4.747-6.218,6.979-6.457,16.25.239,18.174,0,13.017-4.918,13.017-4.918,1.967.667,1.711,2.42-12.521,8.39-14,8.638-13.257,1.112-13.257,1.112l-2.959,5.3Z" transform="translate(-181.427 -309.27)" fill="#a5695f"/><path d="M305.281,332.675a7.441,7.441,0,0,0,1.189-12.915l-8.621-2.891q-1.873,16.686-3.968,33.355a12.581,12.581,0,0,0,6.62-1.83c1.907-1.326,3.165-3.806,2.455-5.987a5.893,5.893,0,0,0,2.326-9.707Z" transform="translate(-172.611 -295.274)" fill="#263238"/><path d="M257.28,326.7l.325-3.96,24.213-2.1c7.407,0,14.54,8.125,14.283,15.515-.316,8.219-1.026,18.243-2.617,24.238-3.2,12.051-12.743,12.649-12.743,12.649l-.855,12.145c-.641,7.082-6.748,8.031-13.83,7.4h0a12.88,12.88,0,0,1-11.709-13.556Z" transform="translate(-166.887 -295.82)" fill="#a5695f"/><path d="M298.155,348.727a1.591,1.591,0,0,1-1.711,1.437A1.514,1.514,0,0,1,295,348.556a1.582,1.582,0,0,1,1.711-1.437,1.514,1.514,0,0,1,1.445,1.608Z" transform="translate(-172.773 -299.652)" fill="#263238"/><path d="M298.466,344.223c-.214.18-1.317-.855-3-.984s-3.019.547-3.182.325.154-.453.736-.8a4.388,4.388,0,0,1,2.566-.513,4.191,4.191,0,0,1,2.361,1.043C298.432,343.744,298.578,344.137,298.466,344.223Z" transform="translate(-172.374 -298.945)" fill="#263238"/><path d="M279.68,347.541a1.582,1.582,0,0,1-1.711,1.428,1.514,1.514,0,0,1-1.48-1.582,1.582,1.582,0,0,1,1.711-1.428,1.514,1.514,0,0,1,1.48,1.582Z" transform="translate(-170.094 -299.484)" fill="#263238"/><path d="M279,342.6c-.214.188-1.317-.813-3-.984s-3.019.556-3.182.325.154-.445.736-.787a4.319,4.319,0,0,1,2.566-.513,4.131,4.131,0,0,1,2.369,1.043C278.954,342.134,279.108,342.527,279,342.6Z" transform="translate(-169.556 -298.712)" fill="#263238"/><path d="M285.73,355.942a11.058,11.058,0,0,1,2.8-.222c.436,0,.855-.043.958-.325a2.2,2.2,0,0,0-.154-1.309l-.941-3.421c-1.3-4.858-2.19-8.843-1.993-8.895s1.4,3.849,2.7,8.715l.855,3.421a2.506,2.506,0,0,1,.051,1.711,1.069,1.069,0,0,1-.77.556,2.805,2.805,0,0,1-.744,0,11.12,11.12,0,0,1-2.763-.231Z" transform="translate(-171.432 -298.878)" fill="#263238"/><path d="M282.428,380.964a32.671,32.671,0,0,1-16.378-6.124s3.259,9,16.053,9.177Z" transform="translate(-168.584 -303.665)" fill="#83534b"/><path d="M279.751,337.136c-.214.436-1.882.051-3.891.086s-3.669.411-3.883,0c-.1-.205.222-.616.915-.992a6.577,6.577,0,0,1,2.959-.71,6.483,6.483,0,0,1,2.968.659C279.512,336.52,279.845,336.922,279.751,337.136Z" transform="translate(-169.439 -297.974)" fill="#263238"/><path d="M299.191,337.424c-.342.359-1.462-.163-2.865-.325s-2.609,0-2.84-.436c-.1-.205.12-.573.676-.855a4.165,4.165,0,0,1,4.6.616C299.216,336.842,299.336,337.253,299.191,337.424Z" transform="translate(-172.551 -297.953)" fill="#263238"/><path d="M300.646,322.444a7.646,7.646,0,0,0,3.763-7.552,8.69,8.69,0,0,0-7.013-7.261,7.894,7.894,0,0,0-3.695-1.48,4.148,4.148,0,0,0-2.805-3.541,9.921,9.921,0,0,0-4.73-.291,8.031,8.031,0,0,0-12.932-.753,6.577,6.577,0,0,0-10.092,3.036,6.534,6.534,0,0,0-4.892,1.711,20.381,20.381,0,0,0-2.643,3.883,7.4,7.4,0,0,0-4.7,13.068,6.748,6.748,0,0,0,.376,10.828,8.655,8.655,0,0,0,0,6.842,4.276,4.276,0,0,0,1.95,2.224,1.625,1.625,0,0,0,.145.479c.616,1.223,2.463.907,3.618.171,2.8-1.8,4.516-4.884,5.585-8.031s1.582-6.466,2.617-9.622l.077-.222a8.947,8.947,0,0,1,2.13-3.489,22.239,22.239,0,0,0,2.745,2.181,9.81,9.81,0,0,0,11.572-1.086,14.394,14.394,0,0,0,8.767,4.276c3.293.342,6.62.06,9.365-1.8A4.678,4.678,0,0,0,301.5,324.1,1.4,1.4,0,0,0,300.646,322.444Z" transform="translate(-166.01 -292.638)" fill="#263238"/><path d="M256.9,346.755c-.154-.094-6.32-3.19-7.321,3.5s5.918,6.3,5.987,6.115S256.9,346.755,256.9,346.755Z" transform="translate(-166.186 -299.484)" fill="#a5695f"/><path d="M254.168,353.882a1.92,1.92,0,0,1-.334.128,1.18,1.18,0,0,1-.855-.111,2.925,2.925,0,0,1-.949-2.788,3.763,3.763,0,0,1,.573-1.616,1.36,1.36,0,0,1,1.009-.761.607.607,0,0,1,.641.419.556.556,0,0,1,0,.342c0,.017.154-.086.145-.368a.736.736,0,0,0-.205-.462.855.855,0,0,0-.616-.265,1.634,1.634,0,0,0-1.368.855,4.063,4.063,0,0,0-.684,1.8,3.067,3.067,0,0,0,1.266,3.139,1.283,1.283,0,0,0,1.095,0C254.134,354.045,254.194,353.9,254.168,353.882Z" transform="translate(-166.477 -299.838)" fill="#83534b"/><path d="M307.416,316.3a1.538,1.538,0,0,1,0,.171,2.565,2.565,0,0,1,.06.5,4.986,4.986,0,0,1-.257,1.89,5.072,5.072,0,0,1-1.711,2.438,5.345,5.345,0,0,1-3.755,1.069l.128-.094a11.512,11.512,0,0,1-3.421,5.508,8.818,8.818,0,0,1-3.207,1.873,7.441,7.441,0,0,1-3.926.12,13.154,13.154,0,0,1-3.618-1.377,10.058,10.058,0,0,1-2.874-2.232h.2a12.264,12.264,0,0,1-5.987,2.463,9.6,9.6,0,0,1-4.995-1.018,10,10,0,0,1-2.7-1.976,8.493,8.493,0,0,1-.59-.667,1.053,1.053,0,0,1-.18-.257s.274.316.855.855a10.382,10.382,0,0,0,2.711,1.882,9.622,9.622,0,0,0,4.892.932,12.152,12.152,0,0,0,5.841-2.446l.111-.086.086.111a9.974,9.974,0,0,0,2.8,2.147,13.018,13.018,0,0,0,3.532,1.343,7.21,7.21,0,0,0,3.772-.1,8.706,8.706,0,0,0,3.113-1.813,11.443,11.443,0,0,0,3.421-5.345v-.1h.1a5.08,5.08,0,0,0,3.609-.984,4.978,4.978,0,0,0,1.711-2.326,5.363,5.363,0,0,0,.316-1.839C307.434,316.531,307.4,316.3,307.416,316.3Z" transform="translate(-169.239 -295.192)" fill="#455a64"/><path d="M257.38,311.86a15.556,15.556,0,0,0-.855,2.224,9.673,9.673,0,0,0,.325,6.1l.043.1-.094.068a6.26,6.26,0,0,0-2.13,2.5,5.987,5.987,0,0,0-.5,3.558,6.252,6.252,0,0,0,2.4,3.917l.12.086-.086.12a7.851,7.851,0,0,0-1.309,4.08,8.6,8.6,0,0,0,.556,3.421,9.784,9.784,0,0,0,1.6,2.617,1.379,1.379,0,0,1-.154-.137,5.685,5.685,0,0,1-.428-.445,7.631,7.631,0,0,1-1.189-1.967,8.4,8.4,0,0,1-.633-3.421,7.9,7.9,0,0,1,1.317-4.234v.2a6.483,6.483,0,0,1-2.566-4.105,6.218,6.218,0,0,1,.53-3.738,6.389,6.389,0,0,1,2.241-2.566l-.051.163a9.579,9.579,0,0,1-.222-6.243A9.171,9.171,0,0,1,257,312.5c.1-.18.188-.316.248-.4S257.38,311.851,257.38,311.86Z" transform="translate(-166.799 -294.549)" fill="#455a64"/><path d="M252.349,357.229a5.67,5.67,0,0,0-.291,1.189,1.83,1.83,0,0,0,.334,1.189,1.5,1.5,0,0,0,1.326.573,1.24,1.24,0,0,0,.984-.992,2.421,2.421,0,0,0-.068-1.274c-.239-.718-.479-1.146-.428-1.163a3.173,3.173,0,0,1,.633,1.095,2.489,2.489,0,0,1,.137,1.411,1.779,1.779,0,0,1-.376.778,1.377,1.377,0,0,1-.855.453,1.71,1.71,0,0,1-1.591-.71,1.958,1.958,0,0,1-.325-1.377,1.822,1.822,0,0,1,.522-1.172Z" transform="translate(-166.522 -301.046)" fill="#263238"/><path d="M280.407,360.648a3.1,3.1,0,0,0,.5,5.063,1.8,1.8,0,0,0,1.138.265c.693-.1,1.163-.744,1.557-1.326l.975-1.445a.735.735,0,0,0,.18-.547c-.051-.205-.265-.316-.453-.411l-3.738-1.788" transform="translate(-170.505 -301.583)" fill="#83534b"/><path d="M281.934,365.711a3.5,3.5,0,0,1-1.711-.607,2.84,2.84,0,0,1-1.3-1.608,2.13,2.13,0,0,1,0-1.266,3.421,3.421,0,0,1,1.539-2.061l.12-.068.12.068c2.412,1.48,4.353,2.378,4.276,2.489a16.55,16.55,0,0,1-4.541-2.078h.248a3.044,3.044,0,0,0-.813.744,2.249,2.249,0,0,0,.5,3.5C281.276,365.428,281.968,365.634,281.934,365.711Z" transform="translate(-170.433 -301.531)" fill="#263238"/><path d="M177.89,449.652s24.324-43.619,28.378-50.675c4.764-8.3,8.912-11.307,12.641-13.12a29.447,29.447,0,0,1,12.581-2.814l12.068-.094s4.584,6.842,10.8,8.211c8.553,1.847,14.993-4.507,14.993-4.507l17.328,7.1-3.5,32a47.134,47.134,0,0,1-8.553,22.374l-1.146,1.488-63.889-.06L217,426.509,203.317,449.6Z" transform="translate(-155.824 -304.838)" fill="#455a64"/><path d="M303.469,395.58s5.038,2.959,8.835,15.224,11.974,34.082,11.974,34.082L344.8,421.6l12.179,7.7S337.312,463.4,334.216,467.44c-4.653,5.987-16.413,9.459-23.315,1.463-5.012-5.816-17.011-33.954-17.011-33.954Z" transform="translate(-172.613 -306.666)" fill="#455a64"/><path d="M295.47,416.37a2.342,2.342,0,0,1,.2.368c.111.248.274.607.453,1.086a32.368,32.368,0,0,1,1.309,4.157,36.665,36.665,0,0,1-4.216,27.736,34.417,34.417,0,0,1-2.472,3.575,8.366,8.366,0,0,1-.761.855,4.127,4.127,0,0,1-.3.3,12.918,12.918,0,0,1,.915-1.309,38.734,38.734,0,0,0,6.526-31.1,40.072,40.072,0,0,0-1.163-4.165,12.832,12.832,0,0,1-.487-1.505Z" transform="translate(-172.004 -309.675)" fill="#263238"/><path d="M226.33,411.79a1.711,1.711,0,0,1,0,.445c-.043.342-.1.761-.171,1.266-.154,1.1-.419,2.686-.778,4.636-.71,3.9-1.873,9.263-3.481,15.1s-3.361,11.042-4.738,14.762c-.693,1.856-1.274,3.353-1.711,4.379l-.5,1.172a2.484,2.484,0,0,1-.2.4,1.635,1.635,0,0,1,.111-.436c.12-.316.257-.718.428-1.2l1.565-4.43c1.309-3.738,3-8.938,4.61-14.77s2.805-11.161,3.6-15.044l.915-4.6.257-1.249a1.471,1.471,0,0,1,.094-.436Z" transform="translate(-161.159 -309.012)" fill="#263238"/><path d="M192.56,460.181s2.326-3.156,3.472-3.755a3.382,3.382,0,0,1,3.421.043l.693.616s3.6-1.616,5.337-.368c0,0,3.421-1.625,5.072.231,0,0,2.643-1.711,3.763-.222a6.156,6.156,0,0,1,.462,5.345c-.539,1.309-1.557,5.756-2.343,5.833,0,0-2.1.222-2.386-.915s-.4-1.711-.4-1.711-.8,4.028-1.779,4.225-2.822.094-2.882-1.711c0,0-.9,1.343-1.779.949s-1.967-1.035-1.873-2.13.111-2.181.111-2.181-.479,1.591-1.274,1.249-1.6-.274-2.044-1.625-1.557-3.934-1.557-3.934Z" transform="translate(-157.947 -315.409)" fill="#a5695f"/><path d="M202.627,464.561c-.051,0,.162-.436.351-1.137a6.543,6.543,0,0,0,.111-2.8,6.44,6.44,0,0,0-1.112-2.566c-.419-.59-.761-.9-.727-.941a2.566,2.566,0,0,1,.924.8,5.687,5.687,0,0,1,1.257,2.651,5.773,5.773,0,0,1-.222,2.934A2.455,2.455,0,0,1,202.627,464.561Z" transform="translate(-159.205 -315.573)" fill="#83534b"/><path d="M207.8,456.86a5.329,5.329,0,0,1,.462,1.591,15.754,15.754,0,0,1-.53,7.9,5.7,5.7,0,0,1-.667,1.514,28.79,28.79,0,0,0,1.095-5.457,27.925,27.925,0,0,0-.359-5.551Z" transform="translate(-160.046 -315.535)" fill="#83534b"/><path d="M213.524,457.17a13.06,13.06,0,0,1,.051,4.276,12.7,12.7,0,0,1-1.018,4.139c-.1,0,.411-1.865.667-4.182S213.422,457.179,213.524,457.17Z" transform="translate(-160.84 -315.58)" fill="#83534b"/><path d="M228.551,458.1a1.343,1.343,0,0,0-.907-.736,2.908,2.908,0,0,0-2.617.7,9.963,9.963,0,0,0-1.907,2.352h5.132C228.149,459.609,228.833,458.83,228.551,458.1Z" transform="translate(-162.37 -315.599)" fill="#a5695f"/><path d="M379.177,370.648h27.437a27.437,27.437,0,1,1-27.488-27.428Z" transform="translate(-180.986 -299.088)" fill="#ff8900"/><path d="M389.516,365.5l-.086-27.437h.086a27.557,27.557,0,0,1,27.428,27.317Z" transform="translate(-186.441 -298.341)" fill="#ff8900"/></g><g transform="translate(97.41 6435.296)"><path d="M236.25,361.93l-6.25-11a29.48,29.48,0,1,0-7.06,7.86h0Z" fill="#fafafa"/><path d="M236.25,361.93l-13.35-3.05h-.13l.08-.11h0l.13.12a29.2,29.2,0,0,1-14.13,6,26.522,26.522,0,0,1-4.67.24c-.8-.05-1.62-.07-2.44-.13l-2.49-.38a29.8,29.8,0,0,1-23.41-23.2,30.09,30.09,0,0,1,.35-13.1,29.09,29.09,0,0,1,6.32-12.12l1.2-1.32c.39-.45.87-.81,1.29-1.22a11.461,11.461,0,0,1,1.34-1.17l1.41-1.05a12.868,12.868,0,0,1,1.47-1l1.49-.91,1.57-.76a13.083,13.083,0,0,1,1.58-.7,30,30,0,0,1,13.2-2,29.1,29.1,0,0,1,12.12,3.58,29.93,29.93,0,0,1,14,17.21,31.759,31.759,0,0,1,1.28,9.58,29.5,29.5,0,0,1-1.44,8.27,29.9,29.9,0,0,1-3,6.34v-.09c3.94,7.06,5.86,10.51,6.17,11.05l-6.33-11v-.05h0a30.2,30.2,0,0,0,2.9-6.32,29.109,29.109,0,0,0,1.39-8.21,31.51,31.51,0,0,0-1.3-9.49,29.63,29.63,0,0,0-13.87-17,28.94,28.94,0,0,0-12-3.52,29.69,29.69,0,0,0-13,2,13.545,13.545,0,0,0-1.56.7l-1.55.75-1.47.9a12.459,12.459,0,0,0-1.45.95l-1.39,1.05a16,16,0,0,0-1.32,1.15c-.42.4-.89.76-1.28,1.2l-1.19,1.31a28.67,28.67,0,0,0-6.24,12,29.67,29.67,0,0,0-.35,12.94,29.17,29.17,0,0,0,4.9,11.26,29.56,29.56,0,0,0,18.2,11.73l2.46.38c.81.07,1.62.09,2.42.14a27,27,0,0,0,4.62-.22,29.261,29.261,0,0,0,8-2.25,30.234,30.234,0,0,0,6-3.6l.55-.42-.42.55h0l-.05-.14Z" fill="#263238"/><path d="M196.62,335.49a3,3,0,1,1-3-3A3,3,0,0,1,196.62,335.49Z" fill="#263238"/><path d="M208.59,335.49a3,3,0,1,1-3-3A3,3,0,0,1,208.59,335.49Z" fill="#263238"/><path d="M220.53,334a3,3,0,1,1-4.09-1.1A3,3,0,0,1,220.53,334Z" fill="#263238"/></g></g></svg>