<svg xmlns="http://www.w3.org/2000/svg" width="223.664" height="170.134" viewBox="0 0 223.664 170.134"><g transform="translate(-687 -6712)"><g transform="translate(687 6712)"><rect width="194.625" height="144.54" transform="translate(28.799 15.229)" fill="#fff"/><path d="M627.217,388.167c0-1.514-.077-57.046-.188-144.54l.188.188H432.61l.222-.222v144.54l-.205-.205,194.625.205-194.625.2h-.2V243.37H627.457v.18C627.286,331.146,627.217,386.662,627.217,388.167Z" transform="translate(-403.794 -228.389)" fill="#263238"/><path d="M627.317,268.662c0,.128-43.473.231-97.1.231s-97.1-.1-97.1-.231,43.465-.222,97.1-.222S627.317,268.543,627.317,268.662Z" transform="translate(-403.893 -232.017)" fill="#e0e0e0"/><path d="M445.447,255.585a2.934,2.934,0,1,1-2.925-2.925A2.934,2.934,0,0,1,445.447,255.585Z" transform="translate(-404.828 -229.733)" fill="#e0e0e0"/><path d="M455.777,255.585a2.934,2.934,0,1,1-2.934-2.925,2.934,2.934,0,0,1,2.934,2.925Z" transform="translate(-406.323 -229.733)" fill="#e0e0e0"/><path d="M466.1,255.585a2.934,2.934,0,1,1-2.925-2.925A2.934,2.934,0,0,1,466.1,255.585Z" transform="translate(-407.817 -229.733)" fill="#e0e0e0"/><path d="M549.983,230.306a5.132,5.132,0,0,0-5.132-2.848,6.962,6.962,0,0,0-8.553-.265,6.192,6.192,0,0,0-9.579,4.593,5.132,5.132,0,0,0-4.943,8.476,4.969,4.969,0,0,0,1.616,9.759l25.41-13.958a5.132,5.132,0,0,0,1.18-5.756Z" transform="translate(-416.191 -225.853)" fill="#e0e0e0"/><path d="M522.875,251.776a21.082,21.082,0,0,1,21.929-18.32l1.086.051c11.726,1.274,17.2,11.974,15.6,23.631l-3.643,39.077-.2,1.89-27.369,4.1.539-9.981s-11.221-2.318-10.8-13.633C520.215,273.132,521.549,261.911,522.875,251.776Z" transform="translate(-416.469 -226.95)" fill="#ffbe9d"/><path d="M532.514,301.541a27.514,27.514,0,0,0,15.027-3.6s-3.892,7.963-15.121,6.38Z" transform="translate(-418.265 -236.287)" fill="#eb996e"/><path d="M526.229,267.505a1.616,1.616,0,0,0,1.471,1.711,1.54,1.54,0,0,0,1.711-1.377,1.608,1.608,0,0,0-1.471-1.711,1.539,1.539,0,0,0-1.711,1.377Z" transform="translate(-417.369 -231.681)" fill="#263238"/><path d="M525.876,261.234c.188.222,1.463-.624,3.2-.53s2.968,1.018,3.165.855-.086-.479-.624-.915a4.448,4.448,0,0,0-2.566-.915,4.276,4.276,0,0,0-2.566.684C525.979,260.764,525.782,261.14,525.876,261.234Z" transform="translate(-417.315 -230.755)" fill="#263238"/><path d="M544.15,268.765a1.625,1.625,0,0,0,1.48,1.711,1.557,1.557,0,0,0,1.711-1.377,1.617,1.617,0,0,0-1.471-1.711,1.557,1.557,0,0,0-1.719,1.377Z" transform="translate(-419.962 -231.863)" fill="#263238"/><path d="M545.827,262.6c.188.222,1.454-.624,3.19-.53s2.968,1.026,3.165.855-.086-.479-.616-.915a4.5,4.5,0,0,0-2.523-.915,4.277,4.277,0,0,0-2.566.684C545.972,262.134,545.732,262.51,545.827,262.6Z" transform="translate(-420.203 -230.954)" fill="#263238"/><path d="M536.982,275.117a11.212,11.212,0,0,0-2.8-.65c-.445-.068-.855-.18-.915-.487a2.241,2.241,0,0,1,.359-1.3l1.48-3.31c2.061-4.721,3.575-8.6,3.421-8.69s-2.018,3.678-4.08,8.4c-.5,1.163-.975,2.275-1.42,3.336a2.565,2.565,0,0,0-.316,1.711,1.1,1.1,0,0,0,.693.684,3.063,3.063,0,0,0,.744.145,11.76,11.76,0,0,0,2.831.162Z" transform="translate(-418.303 -230.894)" fill="#263238"/><path d="M542.644,279.26c-.282,0-.385,1.856-2.061,3.113s-3.678.949-3.7,1.215c0,.12.428.385,1.274.453a4.7,4.7,0,0,0,3.087-.907,4.088,4.088,0,0,0,1.608-2.617C542.969,279.73,542.773,279.251,542.644,279.26Z" transform="translate(-418.911 -233.583)" fill="#263238"/><path d="M545.7,254.687c.145.479,1.89.342,3.917.684s3.643.984,3.943.582c.128-.2-.137-.659-.778-1.146a6.936,6.936,0,0,0-5.987-.966C546.033,254.105,545.639,254.456,545.7,254.687Z" transform="translate(-420.186 -229.861)" fill="#e0e0e0"/><path d="M526.914,255.37c.291.411,1.505.06,2.942.111s2.643.4,2.951,0c.128-.2,0-.6-.556-1a4.088,4.088,0,0,0-2.361-.761,4.037,4.037,0,0,0-2.386.676C526.982,254.814,526.785,255.174,526.914,255.37Z" transform="translate(-417.463 -229.886)" fill="#e0e0e0"/><path d="M524.94,246.406s3.327-6.936,6.842-8.416c4.276-1.8,5.782,2.831,9.776,1.924s8.031-2.626,11.905.616c4.276,3.549,2.061,5.79,2.087,10.819.094,20.381,3.515,26.317,5.055,16.8.163-1.043,3.113-1.711,3.772-6.149.855-5.722,1.411-12.692.334-16.832-.915-3.49-2.754-5.987-6.141-8.758-5.354-4.447-12.983-4.884-18.183-4.618S524.906,237.52,524.94,246.406Z" transform="translate(-417.183 -226.704)" fill="#e0e0e0"/><path d="M565.663,273.424a3.079,3.079,0,0,1,3.464-2.788c2.1.308,4.379,1.617,4.028,5.987-.633,7.7-8.253,5.491-8.245,5.268S565.372,276.657,565.663,273.424Z" transform="translate(-422.968 -232.331)" fill="#ffbe9d"/><path d="M567.149,279.527a2.244,2.244,0,0,0,.342.231,1.351,1.351,0,0,0,1.009.1c.855-.231,1.625-1.471,1.779-2.857a4.439,4.439,0,0,0-.222-1.959,1.548,1.548,0,0,0-.924-1.112.676.676,0,0,0-.855.308c-.12.205-.086.359-.128.368s-.154-.137-.068-.453a.855.855,0,0,1,.342-.462,1.026,1.026,0,0,1,.761-.128,1.882,1.882,0,0,1,1.309,1.309,4.584,4.584,0,0,1,.291,2.19c-.18,1.548-1.095,2.942-2.232,3.173a1.48,1.48,0,0,1-1.214-.308C567.149,279.715,567.123,279.544,567.149,279.527Z" transform="translate(-423.29 -232.755)" fill="#eb996e"/><path d="M561.441,252.373a7.355,7.355,0,0,1-3.344,1.351,2.566,2.566,0,0,1-2.711-1.916c-.06-.539.1-1.163-.231-1.591s-1.189-.4-1.839-.368a4.935,4.935,0,0,1-4.943-3.8,2.047,2.047,0,0,1-2.788.128,11.306,11.306,0,0,1-1.993-2.361,3.182,3.182,0,0,0-2.566-1.463,7.322,7.322,0,0,1-1.711.291c-1.009-.137-1.445-1.351-1.548-2.369s-.171-2.2-1-2.788-1.822-.3-2.763-.214-2.13-.188-2.326-1.112a1.822,1.822,0,0,1,.419-1.386,5.012,5.012,0,0,1,5.987-1.6,6.791,6.791,0,0,1,12.53-.693,6.894,6.894,0,0,1,10.879,3.053,4.995,4.995,0,0,1,5.268,7.543,4.73,4.73,0,0,1,2.42,3.9c-.051,1.6-1.711,3.113-3.207,2.617a2.773,2.773,0,0,1-4.918,2.566" transform="translate(-418.156 -226.256)" fill="#e0e0e0"/><path d="M570.512,253.18a1.848,1.848,0,0,1-.556,1.454,2.463,2.463,0,0,1-1.591.855,2.677,2.677,0,0,1-2.172-.744h.325a7.619,7.619,0,0,1-1.634,1.847,4.431,4.431,0,0,1-1.454.8,2.977,2.977,0,0,1-1.565.068,3.01,3.01,0,0,1-2.164-1.386,4.5,4.5,0,0,1-.547-1.642,1.463,1.463,0,0,1,0-.624,6.11,6.11,0,0,1,.2.59,5.192,5.192,0,0,0,.641,1.505,3.156,3.156,0,0,0,4.636.342,7.81,7.81,0,0,0,1.565-1.711l.145-.222.18.188a2.344,2.344,0,0,0,1.839.684,2.249,2.249,0,0,0,1.428-.667,3.763,3.763,0,0,0,.727-1.343Z" transform="translate(-422.13 -229.808)" fill="#fff"/><path d="M552.84,231.128a4.457,4.457,0,0,0-.556.171,2.711,2.711,0,0,0-1.249.966l-.1.137-.137-.154a9.6,9.6,0,0,0-3.584-3.216,7.543,7.543,0,0,0-3.01-.812,6.372,6.372,0,0,0-5.354,2.523,5.252,5.252,0,0,0-.966,2.284l-.043.248-.231-.077a4.277,4.277,0,0,0-3.224.231,4.2,4.2,0,0,0-1.856,1.8,5.792,5.792,0,0,0-.59,2.266,1.548,1.548,0,0,1-.068-.641,4.542,4.542,0,0,1,.436-1.711,4.388,4.388,0,0,1,1.924-1.984,4.6,4.6,0,0,1,3.507-.316l-.265.171a5.611,5.611,0,0,1,1.026-2.5,6.739,6.739,0,0,1,5.73-2.694,7.766,7.766,0,0,1,3.164.907A9.348,9.348,0,0,1,551,232.146h-.2a2.634,2.634,0,0,1,1.411-.941,1.163,1.163,0,0,1,.624-.077Z" transform="translate(-418.184 -226.137)" fill="#fff"/><path d="M546.3,280.289c-.128,0-.137-.855-.761-1.531s-1.4-.855-1.386-.984.222-.111.564,0a2.249,2.249,0,0,1,1.163.736,2.215,2.215,0,0,1,.539,1.257C546.434,280.084,546.348,280.3,546.3,280.289Z" transform="translate(-419.963 -233.355)" fill="#eb996e"/><path d="M547.314,278.105c-.111.06-.376-.222-.778-.419s-.778-.282-.8-.4.47-.274,1,0S547.425,278.062,547.314,278.105Z" transform="translate(-420.193 -233.275)" fill="#eb996e"/><path d="M557.2,298.858a.592.592,0,0,0,.222-.2.684.684,0,0,0,.051-.676c-.111-.3-.453-.573-.667-1.086a1.017,1.017,0,0,1,.051-.9,6.618,6.618,0,0,1,.53-.641c.633-.736-1.095-1.343-.855-2.318a1.249,1.249,0,0,1,.453-.812c.188-.12.308-.137.325-.111a1.531,1.531,0,0,0-.462.949,1.189,1.189,0,0,0,.53.932,1.934,1.934,0,0,1,.487.667.949.949,0,0,1-.145.966,7.718,7.718,0,0,0-.513.59.625.625,0,0,0-.043.539c.128.385.462.718.573,1.112a.855.855,0,0,1-.222.915A.982.982,0,0,1,557.2,298.858Z" transform="translate(-421.752 -235.442)" fill="#eb996e"/><path d="M559.986,298.507a.7.7,0,0,0-.086-.282,2.939,2.939,0,0,0-.4-.667,2.714,2.714,0,0,1-.308-.5,1.086,1.086,0,0,1-.077-.761c.154-.556.624-.855.855-1.274s.06-.727-.257-1.078a2.319,2.319,0,0,1-.393-.582,1.429,1.429,0,0,1-.094-.633c.1-.8.659-1.018.659-.966a2.087,2.087,0,0,0-.342.975,1.326,1.326,0,0,0,.479.941,1.942,1.942,0,0,1,.453.65,1.061,1.061,0,0,1-.12.924c-.325.5-.744.8-.855,1.155a1.292,1.292,0,0,0,.257.992,1.984,1.984,0,0,1,.308.8C560.08,298.413,560.012,298.515,559.986,298.507Z" transform="translate(-422.123 -235.391)" fill="#eb996e"/><path d="M580.354,370l10.263,9.887-3.318-18.91,20.826-6.586s5.525,25.949,6.491,32.09c1.711,11.007-.393,26.667-10.657,27.771-11.119,1.189-19.492-9.759-24.8-16.951-4.1-5.525-10.717-15.181-10.717-15.181L580.414,370" transform="translate(-423.478 -244.457)" fill="#e0e0e0"/><path d="M487.942,353c-3.344,10.52-8.014,12.111-9.861,42.25-.359,5.876.915,13.684,6.483,15.617,6.2,2.1,15.677-1.711,18.645-6.842V383.276Z" transform="translate(-410.392 -244.255)" fill="#e0e0e0"/><path d="M504.934,403.019a47.556,47.556,0,0,0-2.053-4.422,43.855,43.855,0,0,0-2.831-3.977,4.173,4.173,0,0,1,1.078.966,15.693,15.693,0,0,1,2.07,2.822,15.953,15.953,0,0,1,1.428,3.2A4.575,4.575,0,0,1,504.934,403.019Z" transform="translate(-413.58 -250.279)" fill="#263238"/><path d="M483.74,359.44c.171-.624,10.451-28.6,13.727-34.724,3.926-7.321,12.153-10.563,17.285-10.879s59.869,4.045,59.869,4.045,15.344,3.857,18.448,17.738c3.891,17.413,7.022,34.579,7.022,34.579l-27.454,5.927-3.224-8.134-51.581,11.5-12.573-18.628Z" transform="translate(-411.22 -238.585)" fill="#e0e0e0"/><path d="M581.668,317.282l-21.39-9.434-2.4-9.228L532.9,310.431l-5.226-5.782-2.19,6.517-5.474,1.788-10.768,21.228-1.984,49.2.18,12.778,73.81.487-.6-20.92Z" transform="translate(-414.624 -236.385)" fill="#e0e0e0"/><path d="M562.214,298.62s-2.788.813-9.964,4.636c-7.022,3.746-15.01,7.176-15.01,7.176l.607,11.272L564.4,308.353" transform="translate(-418.963 -236.385)" fill="#e0e0e0"/><path d="M530.754,305.67l5.226,5.782-2.8,12.085-4.653-10.922" transform="translate(-417.702 -237.405)" fill="#e0e0e0"/><g transform="translate(116.473 73.148)" opacity="0.3"><path d="M536.841,313.518c-.231.18-1.711,13.958-1.711,13.958l26.642-16.1-24.187,12.17Z" transform="translate(-535.13 -311.38)"/></g><path d="M534.925,400.81s-.547-20.424-.06-33.227c.4-10.545-1.257-37.427-1.257-37.427l-3.472-.556a391.732,391.732,0,0,0-8.912,58.158l-.984,12.957" transform="translate(-416.502 -240.869)" fill="#ff8900"/><path d="M586.86,349.49a5.5,5.5,0,0,1,.248,1.086c.145.77.325,1.779.547,2.993.445,2.566,1.035,6.047,1.711,9.878s1.249,7.355,1.625,9.9c.188,1.266.334,2.292.428,3.011a6.964,6.964,0,0,1,.1,1.112,6.7,6.7,0,0,1-.248-1.095c-.137-.77-.325-1.77-.539-2.985-.453-2.566-1.061-6.055-1.711-9.878s-1.214-7.364-1.6-9.9c-.171-1.223-.308-2.241-.419-3.011A6.674,6.674,0,0,1,586.86,349.49Z" transform="translate(-426.144 -243.747)" fill="#263238"/><path d="M594.776,322.34c0,.06-.718.65-1.8,1.762a21.724,21.724,0,0,0-5.645,10.5c-.334,1.514-.411,2.48-.479,2.472a2.358,2.358,0,0,1,0-.684,12.827,12.827,0,0,1,.222-1.839,19.611,19.611,0,0,1,5.713-10.64,13.346,13.346,0,0,1,1.42-1.2,2.8,2.8,0,0,1,.564-.376Z" transform="translate(-426.14 -239.818)" fill="#263238"/><path d="M536.488,318.574l-2.378-.924-2.258,3.866-.4,6.355,3.173.5,2.386-3.917Z" transform="translate(-418.125 -239.139)" fill="#ff8900"/><path d="M507.228,340.83c.1,0,.18,13.753.18,30.721s-.077,30.721-.18,30.721-.188-13.753-.188-30.721S507.126,340.83,507.228,340.83Z" transform="translate(-414.592 -242.494)" fill="#263238"/><path d="M536.219,312.31c.043,0-.513.855-1.36,2.3s-1.958,3.421-3.028,5.662l-.248.547-.171.359-.163-.359a43.431,43.431,0,0,1-2.224-5.628c-.231-.736-.4-1.334-.5-1.711a2.2,2.2,0,0,1-.12-.659,24.522,24.522,0,0,1,.855,2.318,59.68,59.68,0,0,0,2.318,5.559h-.334c.077-.18.163-.359.248-.547a46.663,46.663,0,0,1,3.139-5.645c.453-.693.855-1.24,1.112-1.608A2.615,2.615,0,0,1,536.219,312.31Z" transform="translate(-417.685 -238.366)" fill="#263238"/><path d="M564.627,309.41l-.368.222-1.078.564-3.969,2.053c-3.353,1.711-7.937,4.225-13.026,6.945-3.1,1.642-6.03,3.173-8.553,4.447l-.231.12V323.5c0-3.31-.06-6.1-.077-8.116V313.1a4.27,4.27,0,0,1,0-.855,4.658,4.658,0,0,1,.068.8c0,.582.051,1.343.085,2.292.051,2.01.128,4.8.214,8.108l-.24-.145c2.566-1.3,5.457-2.839,8.553-4.49,5.08-2.711,9.69-5.132,13.077-6.842,1.71-.855,3.062-1.505,4.02-1.959l1.112-.5A2.067,2.067,0,0,1,564.627,309.41Z" transform="translate(-418.972 -237.947)" fill="#263238"/><path d="M510.475,319.57c.051,0-.368.744-.907,1.95a22.114,22.114,0,0,0-1.522,4.9,21.7,21.7,0,0,0-.325,5.132c.077,1.317.214,2.13.154,2.138a1.617,1.617,0,0,1-.163-.556,11.377,11.377,0,0,1-.248-1.565,18.593,18.593,0,0,1,1.864-10.152,13.135,13.135,0,0,1,.787-1.377A4.273,4.273,0,0,1,510.475,319.57Z" transform="translate(-414.64 -239.417)" fill="#263238"/><path d="M534.057,330.409c-.051.086-.659-.2-1.351-.633s-1.206-.855-1.146-.949.659.2,1.343.633S534.108,330.324,534.057,330.409Z" transform="translate(-418.14 -240.754)" fill="#263238"/><path d="M535.331,327.747a34.805,34.805,0,0,1-2.891-6.577A36.332,36.332,0,0,1,535.331,327.747Z" transform="translate(-418.268 -239.649)" fill="#263238"/><g transform="translate(73.786 128.912)" opacity="0.3"><path d="M543.541,392.035a2.386,2.386,0,0,0-.855-1.557c-.855-.573-1.993.18-2.9.718-2.378,1.42-5.32,1.368-8.091,1.249a204.722,204.722,0,0,1-24.931-2.369,37.813,37.813,0,0,1-11.709-3.49c-3.609-1.933-6.748-5.038-7.911-8.955l-1.924-1.052c1.5,3.19,1.343,12.213,1.873,15.694s2.078,5.987,5.431,7.047a11.77,11.77,0,0,0,4.208.291c13.736-.676,27.6-.06,41.335-.736,1.959-.1,4.276-.368,5.286-2.027C544.276,395.456,543.926,393.643,543.541,392.035Z" transform="translate(-485.22 -376.58)"/></g><path d="M607.12,399.257a.8.8,0,0,1-.094-.163l-.248-.479-.4-.8-.676-.975a36.932,36.932,0,0,0-5.328-5.8c-2.489-2.284-5.636-4.849-9.177-7.791-1.762-1.48-3.643-3.036-5.525-4.764a51.613,51.613,0,0,1-5.534-5.765h.265L569.693,383.9l-1.428,1.5v-.239c4.045,5.918,7.7,11.64,11.589,16.438a79.22,79.22,0,0,0,5.816,6.5,49.293,49.293,0,0,0,5.662,5.038c3.695,2.788,7.407,3.994,9.99,3.926h.915l.8-.086.676-.077.556-.128.753-.162.265-.043-.248.077-.753.205-.556.145-.684.086-.8.1h-.924c-2.566.1-6.4-1.078-10.143-3.866a48.1,48.1,0,0,1-5.722-5.029,78.382,78.382,0,0,1-5.867-6.509c-3.891-4.8-7.586-10.528-11.623-16.43l-.085-.128.1-.1,1.428-1.5,10.708-11.178.145-.145.12.163a52.4,52.4,0,0,0,5.491,5.73c1.865,1.711,3.729,3.293,5.482,4.781,3.532,2.951,6.671,5.551,9.134,7.86a34.984,34.984,0,0,1,5.286,5.893c.24.385.462.727.659,1.035l.368.855c.094.205.171.368.222.5A.458.458,0,0,0,607.12,399.257Z" transform="translate(-423.397 -247.047)" fill="#263238"/><g transform="translate(146.227 141.211)" opacity="0.3"><path d="M571.083,391.311l-1.163-.351a69.921,69.921,0,0,0,7.03,19.055H585.3C582.133,406.064,571.083,391.311,571.083,391.311Z" transform="translate(-569.92 -390.96)"/></g><path d="M573.208,371.1l-16.892-18.422L546.19,350.75l-11.495,1.462A2.463,2.463,0,0,0,536.149,355l-4.276.239a2.412,2.412,0,0,0,1.574,3.156l-3.036.539a4.362,4.362,0,0,0,4.738,2.5,65.808,65.808,0,0,1,8.972-.607l5.987,3.276-8.861-.368-6.432,1.215s-.855,1.651.607,2.036,7.039,0,7.039,0l8.022,2.566s3.139,4.456,4.276,5.67,6.3,3.421,6.3,3.421l2.566,2.3Z" transform="translate(-417.974 -243.93)" fill="#ffbe9d"/><path d="M532.16,355.692a15.616,15.616,0,0,0,3.293-.12c2.036-.154,4.832-.419,7.92-.753l2.959-.334h-.12c2.3.641,4.276,1.18,5.722,1.539a10.068,10.068,0,0,0,2.3.462,9.409,9.409,0,0,0-2.19-.855c-1.394-.462-3.37-1.078-5.653-1.762h-.128l-2.959.308c-3.088.334-5.884.676-7.894.949A17.351,17.351,0,0,0,532.16,355.692Z" transform="translate(-418.228 -244.381)" fill="#eb996e"/><path d="M531.3,359.774a14.37,14.37,0,0,0,2.993-.205c1.83-.205,4.362-.539,7.15-.949l2.771-.419h-.162a56.4,56.4,0,0,0,6.988,2.455,56.668,56.668,0,0,0-6.748-3.045h-.171l-2.771.393c-2.788.411-5.311.855-7.124,1.137a12.914,12.914,0,0,0-2.925.633Z" transform="translate(-418.103 -244.923)" fill="#eb996e"/><path d="M480.98,356.013l8.553,32.346a4.011,4.011,0,0,0,3.968,2.993l44.337-.855a4.02,4.02,0,0,0,3.857-4.849l-6.534-30.978a4,4,0,0,0-3.934-3.19H484.521a3.618,3.618,0,0,0-3.541,4.533Z" transform="translate(-410.803 -244.035)" fill="#263238"/><path d="M514.352,366.649a2.172,2.172,0,1,1-3.13.855A2.3,2.3,0,0,1,514.352,366.649Z" transform="translate(-415.164 -246.188)" fill="#fff"/><path d="M477.166,364.183a2.891,2.891,0,0,1,0-3.558A4.422,4.422,0,0,1,480.528,359a9.8,9.8,0,0,1,3.755.778,24.451,24.451,0,0,1,4.276,2.13,4.045,4.045,0,0,1,2.13,2.48c.18,1.1-1.018,2.369-1.993,1.813a4.712,4.712,0,0,1,2.745,3.276c.205,1.4-.547,2.155-1.9,2.566a2.121,2.121,0,0,1,1.215,2.7,2.42,2.42,0,0,1-3.036.924,7,7,0,0,1-2.643-2.215,6.5,6.5,0,0,1,.753,4.447,8.707,8.707,0,0,1-5.688-6.988,4.02,4.02,0,0,1-1.095-4.943,4.182,4.182,0,0,1-2.48-3.481" transform="translate(-410.18 -245.124)" fill="#ffbe9d"/><path d="M490.12,373.761a11.769,11.769,0,0,1-1.3-.992,8.733,8.733,0,0,0-3.421-1.711,4.73,4.73,0,0,0-2.078,0,3.764,3.764,0,0,0-1.488.744,5.131,5.131,0,0,0-.992,1.24,1.159,1.159,0,0,1,.12-.428,2.977,2.977,0,0,1,.718-.992,3.823,3.823,0,0,1,1.591-.855,4.738,4.738,0,0,1,2.224,0,8.065,8.065,0,0,1,3.49,1.89,6.167,6.167,0,0,1,1.138,1.1Z" transform="translate(-410.8 -246.808)" fill="#eb996e"/><path d="M489.556,367.207a7.047,7.047,0,0,1-1.574-.659,16.582,16.582,0,0,0-1.711-.727,14.386,14.386,0,0,0-2.155-.556,6.1,6.1,0,0,0-2.189,0,4.019,4.019,0,0,0-1.617.7,4.079,4.079,0,0,0-1.061,1.266,1.169,1.169,0,0,1,.128-.445,2.856,2.856,0,0,1,.787-1,3.961,3.961,0,0,1,1.711-.855,6.115,6.115,0,0,1,2.3,0,11.814,11.814,0,0,1,2.207.6,14.832,14.832,0,0,1,1.711.8,11.56,11.56,0,0,1,1.462.872Z" transform="translate(-410.57 -245.967)" fill="#eb996e"/><path d="M459.394,280.251l-10.819-.239a25.222,25.222,0,1,0,2.668,8.63h0Z" transform="translate(-400.966 -219.444)" fill="#fafafa"/><path d="M459.393,280.242,451.3,288.7l-.086.086-.043-.111h0l.145-.043a25.846,25.846,0,0,1,0,6.047,25.24,25.24,0,0,1-1.856,6.945,22.694,22.694,0,0,1-1.873,3.532c-.385.564-.753,1.155-1.172,1.711s-.9,1.1-1.368,1.668a25.264,25.264,0,0,1-27.232,7,25.761,25.761,0,0,1-9.468-5.987,24.922,24.922,0,0,1-6.124-9.955l-.436-1.463c-.154-.479-.222-.992-.334-1.488a14.649,14.649,0,0,1-.265-1.488l-.154-1.505a9.7,9.7,0,0,1-.068-1.5v-1.5l.128-1.48a14.4,14.4,0,0,1,.18-1.471,25.838,25.838,0,0,1,4.276-10.58,24.922,24.922,0,0,1,7.954-7.33,25.581,25.581,0,0,1,18.765-2.711,27.308,27.308,0,0,1,7.595,3.267,24.888,24.888,0,0,1,5.44,4.687,25.888,25.888,0,0,1,3.361,4.952H448.6l10.819.316-10.819-.171h-.043a25.658,25.658,0,0,0-3.361-4.9,24.938,24.938,0,0,0-5.414-4.627,27.121,27.121,0,0,0-7.543-3.216,25.384,25.384,0,0,0-18.559,2.728,24.632,24.632,0,0,0-7.851,7.253,25.41,25.41,0,0,0-4.276,10.46,11.839,11.839,0,0,0-.18,1.454c-.043.479-.077.975-.12,1.462s0,.984,0,1.471a10.842,10.842,0,0,0,.068,1.488l.154,1.48a14.316,14.316,0,0,0,.265,1.471c.111.487.171.992.325,1.471l.436,1.445a24.6,24.6,0,0,0,6.047,9.836,25.461,25.461,0,0,0,9.348,5.936,24.8,24.8,0,0,0,10.417,1.334,25.2,25.2,0,0,0,16.592-8.2l1.36-1.642c.411-.573.778-1.155,1.163-1.711a22.645,22.645,0,0,0,1.873-3.489,25.531,25.531,0,0,0,1.864-6.842,26.148,26.148,0,0,0,0-5.987l-.068-.582.214.547h-.128Z" transform="translate(-400.964 -219.435)" fill="#263238"/><path d="M420.922,294.746a2.566,2.566,0,1,1-2.566-2.566A2.566,2.566,0,0,1,420.922,294.746Z" transform="translate(-403.11 -223.171)" fill="#263238"/><path d="M432.892,294.746a2.566,2.566,0,1,1-2.566-2.566A2.566,2.566,0,0,1,432.892,294.746Z" transform="translate(-404.843 -223.171)" fill="#263238"/><path d="M444.891,293.465a2.566,2.566,0,1,1-3.489-.932,2.566,2.566,0,0,1,3.489.932Z" transform="translate(-406.63 -223.173)" fill="#263238"/></g></g></svg>