<svg xmlns="http://www.w3.org/2000/svg" xmlns:xlink="http://www.w3.org/1999/xlink" width="70" height="70" viewBox="0 0 70 70"><defs><clipPath id="a"><rect width="70" height="70" transform="translate(361.385 0.851)" fill="none"/></clipPath></defs><g transform="translate(2569.563 15933.148)"><g transform="translate(-2930.948 -15934)" opacity="0"><g clip-path="url(#a)"><rect width="70" height="70" transform="translate(361.385 0.852)" fill="#fff"/></g></g><rect width="4.44" height="4.44" transform="translate(-2563.847 -15927.394)" fill="#b26001"/><rect width="2.22" height="4.44" transform="translate(-2558.296 -15927.394)" fill="#b26001"/><rect width="2.22" height="4.44" transform="translate(-2553.856 -15927.394)" fill="#b26001"/><rect width="1.11" height="1.11" transform="translate(-2505.013 -15915.183)" fill="#b26001"/><rect width="2.22" height="1.11" transform="translate(-2511.673 -15915.183)" fill="#b26001"/><rect width="2.22" height="1.11" transform="translate(-2515.003 -15915.183)" fill="#b26001"/><path d="M428.936,14.525V5.545A2.246,2.246,0,0,0,426.691,3.3H386.283a2.247,2.247,0,0,0-2.245-2.245h-20.2A2.246,2.246,0,0,0,361.589,3.3V14.525a2.247,2.247,0,0,0,2.245,2.245h7.392l3.7,3.7a2.71,2.71,0,0,0,4.626-1.916V16.77H381.8V23.5h-5.615a7.863,7.863,0,0,0-7.767,6.734h-.091a4.5,4.5,0,0,0-4.489,4.49v4.488a4.493,4.493,0,0,0,4.489,4.489h2.055a19.8,19.8,0,0,0,4.553,5.982l-.76,3.043a13.475,13.475,0,0,0-12.582,13.427v4.49h38.16v-4.49a13.476,13.476,0,0,0-12.583-13.424l-.754-3.043a19.753,19.753,0,0,0,4.554-5.982h2.055a4.478,4.478,0,0,0,3.866-2.245h2.862v4.49h-4.487V48.2h20.2V45.953h-4.489v-4.49h15.714a2.246,2.246,0,0,0,2.245-2.247V25.75a2.247,2.247,0,0,0,2.245-2.245V16.77a2.247,2.247,0,0,0-2.245-2.245m-51.632,0V18.55a.488.488,0,0,1-.794.329l-4.354-4.354h-8.322V3.3h20.2V14.525Zm6.734,2.245a2.248,2.248,0,0,0,2.245-2.245V5.545h40.408v8.98h-13.47a2.235,2.235,0,0,0-.865.174,11.223,11.223,0,0,0-21.584,4.315V23.5h-6.734Zm13.472,4.49V18.695A14.657,14.657,0,0,0,402,16.055a14.674,14.674,0,0,0,4.49,2.64V21.26a4.49,4.49,0,0,1-8.979,0m11.224,0V17.082l-1.124-.373a12.374,12.374,0,0,1-4.488-2.686V12.28h-2.247v1.744a12.372,12.372,0,0,1-4.488,2.685l-1.124.373V21.26a6.728,6.728,0,0,0,2.809,5.462l-.367,1.47-1.986.5a8,8,0,0,0-2.7,1.247V19.015a8.98,8.98,0,0,1,17.96,0V23.5h-.006a1.321,1.321,0,0,0,.007.167l.005,6.284a7.959,7.959,0,0,0-2.714-1.265l-1.985-.5-.367-1.47a6.726,6.726,0,0,0,2.814-5.464Zm-40.411,20.2a2.246,2.246,0,0,1-2.244-2.247V34.729a2.247,2.247,0,0,1,2.244-2.245v2.457a19.888,19.888,0,0,0,1.1,6.522Zm15.965,8.98.562,2.244h-8.355l.561-2.244ZM397.51,66.157V68.4h-4.493v-4.49h-2.245V68.4h-20.2v-4.49h-2.245V68.4h-4.489V66.157a11.237,11.237,0,0,1,11.224-11.224h11.224A11.237,11.237,0,0,1,397.51,66.157M384.748,48.2h-8.154a17.55,17.55,0,0,1-6.026-13.257V31.362a5.618,5.618,0,0,1,5.612-5.612h14.592v9.193A17.544,17.544,0,0,1,384.748,48.2m10.513-8.979a2.246,2.246,0,0,1-2.245,2.244h-1.1a19.835,19.835,0,0,0,1.1-6.522V32.484a2.247,2.247,0,0,1,2.245,2.245Zm.345-8.146a5.57,5.57,0,0,1,.657-.208l3.291-.822.584-2.314a6.615,6.615,0,0,0,3.726,0l.579,2.316,3.292.822a5.765,5.765,0,0,1,2.679,1.518c.031.031.054.069.086.1H396.883a4.524,4.524,0,0,0-1.276-1.408Zm13.126,14.88H402v-4.49h6.734ZM397.51,34.729h29.182v4.487H397.51Zm29.183-2.248H413.251c-.006-.009-.01-.017-.016-.028l-.006-6.706h2.239v1.787a2.71,2.71,0,0,0,4.626,1.912l3.7-3.7h2.9Zm2.245-8.979h-6.079L418.5,27.856a.486.486,0,0,1-.793-.329V23.5h-4.483l-.006-6.737h15.714Z" transform="translate(-2930.948 -15934)" fill="#b26001"/></g></svg>