<svg xmlns="http://www.w3.org/2000/svg" width="307.573" height="266.398" viewBox="0 0 307.573 266.398"><g transform="translate(-6.29 -41.146)"><g transform="translate(6.29 121.822)"><ellipse cx="153.787" cy="92.861" rx="153.787" ry="92.861" fill="#1d7e96"/></g><g transform="translate(13.966 137.684)"><path d="M19.556,310.676l136.806,78.991a5.881,5.881,0,0,0,5.313,0l71.937-41.534c1.47-.852,1.47-2.221,0-3.073L96.818,266.069a5.894,5.894,0,0,0-5.32,0l-71.937,41.54C18.085,308.455,18.085,309.831,19.556,310.676Z" transform="translate(-18.454 -220.441)" fill="#12263f" opacity="0.18"/><path d="M376.155,244.6l-86.665-50.046a3.433,3.433,0,0,0-3.2-.05l-48.216,27.942a.983.983,0,0,0,0,1.862l20.862,12.021L240.9,248.494c-5.78,3.893-7.023,9.043-2.776,11.491s14.217,2.625,20.464-.467l20.679-11.472,8.658,5,36.662,21.19a3.584,3.584,0,0,0,3.225,0l48.349-27.765C377.02,245.988,377.032,245.162,376.155,244.6Z" transform="translate(-98.577 -194.132)" fill="#12263f" opacity="0.18"/></g><g transform="translate(19.737 113.622)"><g transform="translate(0 64.112)"><path d="M229.546,343.8l-63.607,36.719a6.828,6.828,0,0,1-6.632.12L31.254,306.706a6.462,6.462,0,0,1-.006-11.636l63.374-36.6a8.09,8.09,0,0,1,7.3,0l127.624,73.7a6.459,6.459,0,0,1,0,11.636Z" transform="translate(-27.6 -257.601)" fill="#90caf9"/><path d="M94.621,258.5,31.247,295.1a6.464,6.464,0,0,0,0,11.636l128.06,73.924a6.985,6.985,0,0,0,3.155.789V293.462L101.884,258.5a8.09,8.09,0,0,0-7.263,0Z" transform="translate(-27.6 -257.614)" opacity="0.5"/><path d="M244.808,401.485l63.607-36.719a6.459,6.459,0,0,0,0-11.636L241.35,314.41v87.983a6.727,6.727,0,0,0,3.458-.909Z" transform="translate(-106.469 -278.562)" opacity="0.4"/><path d="M165.361,373.968a7.15,7.15,0,0,1-6.443,0l-126.754-73.2c-2.726-1.578-2.726-4.152,0-5.723l63.38-36.555a8.1,8.1,0,0,1,7.307,0L230.47,332.175c2.013,1.161,2.013,3.06,0,4.215Z" transform="translate(-28.53 -257.608)" fill="#90caf9"/><path d="M165.361,373.968a7.15,7.15,0,0,1-6.443,0l-126.754-73.2c-2.726-1.578-2.726-4.152,0-5.723l63.38-36.555a8.1,8.1,0,0,1,7.307,0L230.47,332.175c2.013,1.161,2.013,3.06,0,4.215Z" transform="translate(-28.53 -257.608)" opacity="0.3"/><path d="M166.017,370.578a7.648,7.648,0,0,1-6.941,0L50.01,307.609c-1.893-1.1-1.893-2.9,0-4.007l59.619-34.422a7.737,7.737,0,0,1,6.941,0l109.066,62.97c1.893,1.1,1.893,2.909,0,4.013Z" transform="translate(-35.345 -261.569)" fill="#37474f"/><path d="M112.891,268.37a7.067,7.067,0,0,0-3.262.814L50.01,303.606c-1.893,1.1-1.893,2.9,0,4.007l11.819,6.821,51.062-32.6Z" transform="translate(-35.345 -261.574)" fill="#263238"/><path d="M116.939,273.308a7.724,7.724,0,0,0-6.941,0L50.372,307.731a3.6,3.6,0,0,0-.9.726,3.459,3.459,0,0,0,.865.675L159.4,372.1a7.648,7.648,0,0,0,6.941,0l59.625-34.416a3.666,3.666,0,0,0,.9-.719,3.477,3.477,0,0,0-.858-.688Z" transform="translate(-35.67 -263.092)" fill="#90caf9"/><path d="M116.939,273.308a7.724,7.724,0,0,0-6.941,0L50.372,307.731a3.6,3.6,0,0,0-.9.726,3.459,3.459,0,0,0,.865.675L159.4,372.1a7.648,7.648,0,0,0,6.941,0l59.625-34.416a3.666,3.666,0,0,0,.9-.719,3.477,3.477,0,0,0-.858-.688Z" transform="translate(-35.67 -263.092)" fill="#fff" opacity="0.75"/><path d="M83.845,294.241l10.57-6.121c.631-.366.631-.934.069-1.262a2.436,2.436,0,0,0-2.209.044L81.718,293c-.631.36-.631.934-.069,1.262a2.455,2.455,0,0,0,2.2-.025Z" transform="translate(-47.39 -268.306)" fill="#37474f"/><path d="M112.51,281.233a.631.631,0,1,0,0-1.262,2.366,2.366,0,0,0-2.139,0,.631.631,0,1,0,0,1.262A2.366,2.366,0,0,0,112.51,281.233Z" transform="translate(-57.908 -265.76)" fill="#37474f"/><path d="M119.378,277.318a.631.631,0,0,0,0-1.23,2.341,2.341,0,0,0-2.145,0,.631.631,0,0,0,0,1.23,2.341,2.341,0,0,0,2.145,0Z" transform="translate(-60.491 -264.326)" fill="#37474f"/><path d="M64.99,308.663a.631.631,0,0,0,0-1.262,2.366,2.366,0,0,0-2.139,0,.631.631,0,1,0,0,1.262A2.366,2.366,0,0,0,64.99,308.663Z" transform="translate(-40.374 -275.881)" fill="#37474f"/><path d="M71.889,304.743c.593-.347.593-.9,0-1.262a2.366,2.366,0,0,0-2.139,0c-.593.341-.593.89,0,1.262A2.366,2.366,0,0,0,71.889,304.743Z" transform="translate(-42.988 -274.435)" fill="#37474f"/><path d="M87.2,360.446a2.436,2.436,0,0,1,1.142,1.893.719.719,0,0,1-.316.669c-.139.076-.631.385-.8.461a.814.814,0,0,1-.82-.095L71.581,354.8a2.448,2.448,0,0,1-1.142-1.893.726.726,0,0,1,.284-.631l.827-.48a.846.846,0,0,1,.827.095Z" transform="translate(-43.406 -292.334)" fill="#90caf9"/><path d="M87.2,360.446a2.436,2.436,0,0,1,1.142,1.893.719.719,0,0,1-.316.669c-.139.076-.631.385-.8.461a.814.814,0,0,1-.82-.095L71.581,354.8a2.448,2.448,0,0,1-1.142-1.893.726.726,0,0,1,.284-.631l.827-.48a.846.846,0,0,1,.827.095Z" transform="translate(-43.406 -292.334)" opacity="0.4"/><path d="M86.43,361.158l-14.848-8.576c-.631-.366-1.142-.107-1.142.574a2.448,2.448,0,0,0,1.142,1.893l14.848,8.569c.631.366,1.142.107,1.142-.574A2.436,2.436,0,0,0,86.43,361.158Z" transform="translate(-43.407 -292.585)" fill="#90caf9"/><path d="M86.43,361.158l-14.848-8.576c-.631-.366-1.142-.107-1.142.574a2.448,2.448,0,0,0,1.142,1.893l14.848,8.569c.631.366,1.142.107,1.142-.574A2.436,2.436,0,0,0,86.43,361.158Z" transform="translate(-43.407 -292.585)" opacity="0.3"/><path d="M60.311,344.9a2.448,2.448,0,0,1,1.142,1.893.707.707,0,0,1-.316.669l-.8.467a.846.846,0,0,1-.82-.095l-7-4.045a2.448,2.448,0,0,1-1.142-1.893.732.732,0,0,1,.29-.631c.145-.088.681-.4.827-.48a.839.839,0,0,1,.827.088Z" transform="translate(-36.37 -288.269)" fill="#90caf9"/><path d="M60.311,344.9a2.448,2.448,0,0,1,1.142,1.893.707.707,0,0,1-.316.669l-.8.467a.846.846,0,0,1-.82-.095l-7-4.045a2.448,2.448,0,0,1-1.142-1.893.732.732,0,0,1,.29-.631c.145-.088.681-.4.827-.48a.839.839,0,0,1,.827.088Z" transform="translate(-36.37 -288.269)" opacity="0.4"/><path d="M59.517,345.62l-7-4.045c-.631-.36-1.142-.1-1.142.581a2.448,2.448,0,0,0,1.142,1.893l7,4.045c.631.36,1.142.1,1.142-.581a2.436,2.436,0,0,0-1.142-1.893Z" transform="translate(-36.371 -288.525)" fill="#90caf9"/><path d="M59.517,345.62l-7-4.045c-.631-.36-1.142-.1-1.142.581a2.448,2.448,0,0,0,1.142,1.893l7,4.045c.631.36,1.142.1,1.142-.581a2.436,2.436,0,0,0-1.142-1.893Z" transform="translate(-36.371 -288.525)" opacity="0.3"/></g><g transform="translate(79.665 109.155)"><path d="M154.2,358.92l16.5,9.566a1.969,1.969,0,0,0,1.8,0l47.365-27.3a.549.549,0,0,0,0-1.041l-16.5-9.566a1.988,1.988,0,0,0-1.8,0L154.2,357.9a.549.549,0,0,0,0,1.022Z" transform="translate(-153.848 -329.49)" opacity="0.15"/><g transform="translate(1.781)"><path d="M218.971,338.225a.631.631,0,0,0-.366-.511l-14.76-8.519a1.925,1.925,0,0,0-1.761,0l-45.049,26.049a.631.631,0,0,0-.366.511V357.3a.631.631,0,0,0,.366.511l14.76,8.519a1.963,1.963,0,0,0,1.761,0L218.6,340.352a.631.631,0,0,0,.366-.5Z" transform="translate(-156.67 -328.982)" fill="#263238"/><path d="M171.8,364.741l-14.76-8.481a.536.536,0,0,1,0-1.016L202.086,329.2a1.925,1.925,0,0,1,1.761,0l14.76,8.519a.536.536,0,0,1,0,1.016l-45.049,26.011A1.925,1.925,0,0,1,171.8,364.741Z" transform="translate(-156.671 -328.982)" fill="#37474f"/><path d="M172.62,380.613V382.2a1.78,1.78,0,0,1-.827-.2l-14.747-8.519a.631.631,0,0,1-.366-.511V371.4a.631.631,0,0,0,.366.511l14.747,8.487a1.893,1.893,0,0,0,.827.215Z" transform="translate(-156.674 -344.633)" fill="#263238"/><path d="M204.445,331.446h0l1.464.839-1.981,1.148-1.514-.852,1.981-1.142Zm2.291,1.319h0l1.458.846-1.552.9-1.477-.82,1.559-.9Zm-5.048.278h.032l1.464.846-1.559.9-1.508-.839,1.552-.9Zm7.345,1.041h0l1.464.846-2.524,1.451-1.508-.846,2.524-1.451Zm-4.632.032h0l1.464.846-1.262.713-1.508-.846,1.262-.713Zm-5.048.284h.032l1.464.839-1.559.9-1.508-.852,1.552-.9Zm3.029.89h.038l1.458.839-1.237.713L201.132,336l1.262-.713Zm8.948.12h0l1.458.839-1.944,1.155-1.508-.852,1.981-1.142Zm-14.318.341h0l1.458.846-11.245,6.493-1.514-.852,11.251-6.487Zm8.727.24h.032l1.464.846-1.262.713-1.514-.846,1.262-.713Zm-5.376.467h0l1.464.839-1.262.713-1.514-.846,1.262-.713Zm13.251.271h0l1.464.846-1.262.713-1.514-.852,1.262-.713Zm-5.048.278h.032l1.458.846-1.262.713-1.508-.852,1.262-.713Zm-4.846.158h.032l1.464.839-1.262.713-1.514-.846,1.262-.713Zm-5.376.461h0l1.464.846-1.262.713-1.514-.852,1.262-.713Zm13.251.271h.038l1.458.846-1.262.713-1.508-.852,1.262-.713Zm-5.048.278h.032l1.464.846-1.262.713-1.514-.852,1.262-.713Zm-4.846.158h.038l1.458.839-1.262.713-1.508-.846,1.262-.713Zm14.7,0h.032l1.464.839-1.559.9-1.508-.852,1.552-.9Zm-20.079.461h.006l1.458.846-1.262.713-1.458-.846,1.23-.713Zm13.251.271h.006l1.458.846-1.262.713-1.458-.846,1.262-.713Zm-5.048.278h0l1.464.846-1.262.713-1.458-.839,1.262-.713Zm-4.84.158h.032l1.458.846-1.262.713-1.508-.852,1.262-.713Zm-5.376.461h0l1.458.846-1.262.713L193,340.666l1.262-.713Zm18.874.233h0l1.464.839-1.262.719-1.514-.852,1.262-.713Zm-5.622.038h0l1.464.846-1.262.713-1.514-.846,1.262-.713Zm-5.048.278h.038l1.458.846-1.262.713-1.533-.808,1.262-.713Zm-4.84.158h0l1.464.846-1.262.713-1.514-.852,1.262-.713Zm-5.376.461h.032l1.464.846-1.262.713-1.514-.846,1.262-.713Zm18.874.233h.038l1.458.846-1.262.713-1.508-.852,1.23-.713Zm-5.622.038h.032l1.464.846-1.262.713-1.514-.846,1.262-.713Zm-5.048.284h0l1.464.839-1.262.713-1.514-.846,1.262-.713Zm-4.846.151h0l1.464.846-1.262.713-1.508-.871,1.23-.713Zm-5.376.467h.032l1.464.839-1.262.713L189,343.007l1.23-.713Zm18.88.227h0l1.458.846-1.262.713-1.508-.852,1.262-.713Zm-5.629.044h.038l1.458.839-1.262.713-1.508-.846,1.262-.713Zm-18.521.126h-.038l1.464.846-1.559.9-1.508-.846,1.552-.9Zm13.466.151h.032l1.464.839-1.262.719-1.514-.852,1.262-.713Zm-4.84.151h.032l1.458.846-1.262.713-1.508-.846,1.262-.713Zm-5.376.467h0l1.458.839-1.262.713-1.508-.846,1.262-.713Zm18.874.227h.032l1.464.846-1.262.713-1.571-.839,1.262-.713Zm-5.622.044h0l1.464.839-1.262.719-1.508-.852,1.262-.713Zm-5.048.278h.038l1.458.846-1.262.713-1.508-.852,1.262-.713Zm-13.782.038h.032l1.464.839-1.559.9-1.508-.852,1.552-.9Zm8.942.114h0l1.426.877-1.262.713-1.514-.846,1.262-.713Zm-5.376.467h-.013l1.464.846-1.262.713-1.514-.852,1.262-.713Zm13.251.271h-.013l1.464.846-1.262.713-1.514-.852,1.262-.713Zm-5.048.278h0l1.464.846-1.262.713-1.508-.852,1.262-.713Zm-4.846.158h.032l1.464.839-1.262.713-1.514-.846,1.262-.713Zm14.646,0h0l1.458.846-1.262.713-1.508-.852,1.262-.713Zm-23.9.032h0l1.458.846-1.552.9-1.514-.852,1.559-.9Zm3.881.4h.032l1.464.846-1.262.713-1.508-.852,1.23-.713Zm13.251.271h.038l1.458.846-1.262.713-1.508-.852,1.23-.713Zm-5.048.278h.032l1.464.846-1.262.713-1.514-.852,1.262-.713Zm-4.846.158h.038l1.458.846-1.262.713-1.584-.814,1.262-.713Zm14.646.032h.032l1.464.846-1.262.713-1.514-.852,1.262-.713ZM178,346.723h0l1.464.846-1.981,1.142-1.514-.846,1.981-1.142Zm4.2.215h.038l1.458.846-3.982,2.31-1.508-.852,3.9-2.253Zm13.251.271h.032l1.458.846-1.262.713-1.508-.852,1.262-.707Zm-5.048.278h.038l1.458.846-1.262.713-1.508-.846,1.23-.713Zm-4.84.158h.032l1.464.846-1.262.713-1.514-.852,1.262-.713Zm14.64.032h.032l1.464.846-1.262.713-1.59-.808,1.23-.713Zm-6.765.7h.032l1.464.846-1.262.713-1.514-.846,1.262-.713Zm-18.628.2h0l1.464.839-1.262.713-1.514-.846,1.262-.713Zm13.573.088h.032l1.458.839-1.262.713-1.508-.846,1.262-.713Zm-4.846.151h.032l1.464.846-1.13.631a.237.237,0,0,0,.006.423l1.893,1.1-1.451.839-3.786-2.171,2.941-1.7Zm14.646.032h.032l1.458.846-1.262.713-1.508-.846,1.262-.713Zm-6.771.707h0l1.464.839-1.262.713-1.508-.846,1.262-.713Zm-18.628.189h.032l1.464.839-1.306.776-1.508-.852,1.23-.713Zm13.573.088h.032l1.464.839-1.262.713-1.514-.846,1.262-.713Zm8.916.694h.038l1.458.846-1.262.713-1.508-.852,1.23-.713Zm-5.881.2h.032l1.458.839-1.262.719-1.508-.852,1.262-.713Zm-18.634.189h.038l1.458.846-1.262.713-1.508-.852,1.262-.713Zm4.316.151h.032l1.458.846-1.262.713-1.508-.852,1.262-.713Zm18.18.631h.032l1.458.846-1.262.713-1.578-.808,1.262-.713Zm-5.887.2h.032l1.464.839-2.2,1.262-1.514-.846,2.2-1.262Zm-19.057.435h.032l1.464.846-3.262,1.893-1.508-.852,3.256-1.893Zm13.359.208h.038l1.458.846-1.262.713-1.508-.846,1.262-.713Zm9.56.334h.032l1.464.846-1.262.713-1.514-.846,1.262-.713Zm-20.628.776h.032l1.458.846-1.262.713-1.508-.846,1.262-.713Zm9.049.063h.032l1.458.839-1.262.713-1.508-.846,1.262-.713Zm4.31.151h0l1.464.839-1.262.719-1.514-.852,1.262-.713Zm5.244.177h0l1.464.839-1.262.713-1.508-.846,1.262-.713Zm-24.938.631h.032l1.464.846-1.262.713-1.514-.846,1.262-.713Zm4.31.158h.032l1.464.839-1.262.713-1.514-.846,1.262-.713Zm9.049.057h.032l1.376.9-1.262.719-1.514-.852,1.262-.713Zm-4.739.095h.032l1.464.839-1.262.713-1.508-.846,1.23-.713Zm9.049.057h.032l1.464.846-1.262.713-1.514-.852,1.262-.713Zm4.8.435h.032l1.458.839-1.262.719-1.508-.852,1.262-.713Zm-24.5.372h.032l3.748,2.158-1.262.719-3.786-2.171,1.262-.713Zm4.31.151h.038l1.458.839-1.262.719-1.508-.852,1.262-.713Zm4.31.151h.038l1.458.839-1.262.719-1.508-.852,1.262-.713Zm9.049.057h.038l1.458.846-1.262.713-1.508-.852,1.23-.713Zm-4.733.095h.032l1.458.846-1.262.713-1.571-.814,1.262-.713Zm9.535.341h0l1.464.846-1.262.713-1.514-.852,1.262-.713Zm-15.87.675h.032l1.464.846-1.262.713-1.514-.852,1.262-.713Zm4.31.151h.032l1.464.846-1.262.713-1.514-.852,1.262-.713Zm4.24.208h0l1.464.846-1.262.713-1.514-.852,1.262-.713Zm5.225.189h.032l1.464.846-1.262.713-1.508-.852,1.23-.713Zm-15.87.675h.032l3.748,2.164-1.262.713-3.786-2.171,1.262-.713Zm4.31.151h0l1.464.846-1.262.713-1.439-.877,1.262-.707Zm4.31.151h.032l1.464.846-1.262.713-1.508-.846,1.262-.713Zm5.37.726h0l.631.36-1.262.713-.682-.366,1.262-.713Zm-7.408.391h.032l1.458.846-1.262.713-1.508-.846,1.262-.713Zm5.383.776h.038l.631.36-1.262.713-.675-.366,1.224-.713Zm-7.408.4h.032l1.464.839-1.262.713-1.514-.846,1.262-.713Zm5.389.77h.032l.631.36-1.262.713-.675-.366,1.262-.707Zm-2.026,1.167h0l.631.36-1.262.713-.681-.366,1.262-.707Z" transform="translate(-158.26 -329.889)" fill="#90caf9"/></g></g><g transform="translate(29.255)"><path d="M95.854,331.79c.682,1.723,2.152,2.619,4.329,3.591,6.373,2.871,21.65,6.31,30.226,7.837,4.991.89,10.1,2.524,15.2,2.745,4.562.183,9.295-.631,13.081-3.206a2.839,2.839,0,0,0,1.224-1.331,2.152,2.152,0,0,0-1.066-2.366,6.43,6.43,0,0,0-2.694-.713,109.933,109.933,0,0,1-29.538-7.831c4.234-.448,8.538-.909,12.475-2.524s7.572-4.562,8.935-8.588a4.6,4.6,0,0,1,1.174-2.24,2.713,2.713,0,0,1,2.575-.24c2.77.991,3.868,4.234,4.688,7.061s2.183,6.052,5.048,6.7c-1.041-.631-.631-2.436.467-2.871a2.774,2.774,0,0,1,3.111,1.262c.669,1.016.839,2.171,1.395,3.2s1.748,1.893,2.827,1.47a2.669,2.669,0,0,0,1.262-1.35,11.525,11.525,0,0,0-.088-9.737,25.617,25.617,0,0,0-6.039-7.964,34.846,34.846,0,0,0-11.548-7.762c-9.15-3.439-19.442-.934-28.51,2.726a118.486,118.486,0,0,0-19.618,10.128,32.884,32.884,0,0,0-6.462,5.048c-1.382,1.477-2.833,3.572-2.688,5.679A4.3,4.3,0,0,0,95.854,331.79Z" transform="translate(-81.947 -211.088)" opacity="0.1"/><g transform="translate(46.764 50.665)"><path d="M192.765,296.609c-1.338-2.07-3.736-6.31-4.487-7.181C186.228,287.093,182,283.4,182,283.4c-3.988-3.25-16.236-14.066-16.236-14.066s-1.893-23.979-4.013-27.815c-2.448-4.468-7.105-4.651-11.926-4.941a94.027,94.027,0,0,0-1.754,9.465s4.335,26.894,4.853,29.393,1.786,3.6,4.367,5.256c3.944,2.524,18.211,10.191,18.211,10.191l.7.486a2.8,2.8,0,0,1,1.035,1.376,8.115,8.115,0,0,1,.372,1.7c.227,1.988,0,2.524.17,4.695s.631,2.1,1.483,3.963c.764,1.723.991,2.8,1.622,2.865s1.439-1.338,1.439-2.758-.865-2.985-.9-3.584.284-1.344,1.634-.549,2.612,3.212,3.616,4.884,1.54,3.881,2.556,5.086,1.395-.133,1.862-1.262,2.745-2.972,3.344-4.777S194.091,298.685,192.765,296.609Z" transform="translate(-148.07 -236.397)" fill="#ffa8a7"/><path d="M150.47,236.322c3.319,0,6.014-.366,8.935,1.414s3.71,4.215,4.373,8c.6,3.445,1.817,15.309,1.817,15.309s-8.43,4.651-15.776,1.685Z" transform="translate(-148.716 -236.291)" fill="#37474f"/><path d="M206.75,339.19Z" transform="translate(-169.722 -274.258)" fill="#90caf9"/></g><path d="M161.9,210.56a18.727,18.727,0,0,1,4,1.855,3.527,3.527,0,0,1,1.218,4.783l-1.521-.3s.782-1.786-.133-2.739a11.409,11.409,0,0,0-3.591-1.779Z" transform="translate(-106.398 -176.132)" fill="#263238"/><path d="M167.356,219.395c-1.262-.6-1.83.17-2.7,2.265s-.271,2.669.789,3.086,1.893-.284,2.524-2.019C168.7,220.777,168.681,220.045,167.356,219.395Z" transform="translate(-107.271 -179.319)" fill="#90caf9"/><path d="M167.516,219.425c-1.262-.6-1.83.17-2.7,2.265s-.271,2.669.789,3.086,1.893-.284,2.524-2.019C168.867,220.807,168.848,220.075,167.516,219.425Z" transform="translate(-107.33 -179.33)" opacity="0.1"/><path d="M117.452,237.882A118.6,118.6,0,0,0,97.461,244.1s-.448,23.922,3.426,35.337,2.758,24.421,2.758,24.421c18.931,3.06,41.894-5.736,41.326-15.277a42.279,42.279,0,0,0-3.193-5.742s-.473-7.667-.265-11.081c13.882-12.993-5.4-29.658-10.368-35.375C128.116,236.771,123.667,236.487,117.452,237.882Z" transform="translate(-82.626 -185.659)" fill="#455a64"/><path d="M107.645,173.069c-.9,1.609-.524,3.508-.158,5.212.284,1.3,1.06,2.909.732,4.228a8.55,8.55,0,0,1-3.155,4.531,9.264,9.264,0,0,1-1.193.846c-.36.2-.776.284-1.142.486a5.118,5.118,0,0,0-1.862,1.893,14.275,14.275,0,0,0-1.35,3.584A12.5,12.5,0,0,1,98.1,197.4a7.345,7.345,0,0,1-6.525,3.086,8.834,8.834,0,0,1-3.931-1.262,10.418,10.418,0,0,1-1.685-1.262,4.272,4.272,0,0,1-1.111-1.477,7.118,7.118,0,0,0,1.186,4.777,8.367,8.367,0,0,1-9.749-9.383c.227-1.615.915-3.155,1.262-4.726.959-4.291-2.89-6.638-3.521-10.551a6.064,6.064,0,0,1,3.092-6.184c1.319-.694,3.054-1.041,3.6-2.423.423-1.06-.095-2.24-.076-3.382,0-2.259,2.133-3.982,4.278-4.663s4.474-.675,6.638-1.319c2.31-.682,4.417-2.089,6.765-2.524a8.721,8.721,0,0,1,7.7,2.625c.89.947,1.376,2.051,2.164,3.029s1.994,1.483,2.575,2.631a5.307,5.307,0,0,1,.164,4.884C110.137,170.785,108.465,171.612,107.645,173.069Z" transform="translate(-73.962 -156.001)" fill="#37474f"/><path d="M137.82,181.2c-.265-7.509-4.625-18.224-20.761-16.855-15.725,1.338-20.35,15.365-18.931,22.982,2,10.513,9.648,11.188,11.636,18.06Z" transform="translate(-82.789 -159.038)" fill="#455a64"/><path d="M104.747,193.309A3.786,3.786,0,0,1,108.7,192a3.9,3.9,0,0,1,1.944,1.262c.726.8.713,1.893,1.224,2.808a2.076,2.076,0,0,0,1.54,1.117c2.164.2,1.357-3.319,1.477-4.569,4.089-1.451,3.975-2.966,4.531-6.575,2.865-3.092,7.837-3.546,12.141-.587,2.625-5.048,5.471-4.417,6.7-2.859a20.193,20.193,0,0,1,1.836,5.875,39.08,39.08,0,0,1,.688,9.27c-.53,12.059-4.506,14.955-6.487,15.776s-4.417.227-8.058-.461V220.3c3.786,7.225,6.809,18.161,6.664,25.3-5.824-11.03-14.943-16.93-19.252-20.937a16.487,16.487,0,0,1-2.606-3V202.629s-1.59,1.7-4.114-.309C103.548,199.619,102.513,195.833,104.747,193.309Z" transform="translate(-84.884 -165.399)" fill="#ffa8a7"/><path d="M132.324,226.518a25.622,25.622,0,0,1-8.834-3.786,10.9,10.9,0,0,1-3.42-4.8s.271,4.651,2.612,6.746,9.667,4.512,9.667,4.512Z" transform="translate(-90.975 -178.851)" fill="#f28f8f"/><path d="M138.319,204.019a1.672,1.672,0,1,1-1.893-1.5,1.7,1.7,0,0,1,1.893,1.5Z" transform="translate(-96.477 -173.162)" fill="#263238"/><path d="M157.3,201.8a1.533,1.533,0,0,1-1.262,1.761,1.451,1.451,0,0,1-1.716-1.357,1.515,1.515,0,1,1,3-.4Z" transform="translate(-103.608 -172.416)" fill="#263238"/><path d="M145.82,199.26l1.186,10.046,5.162-1.969Z" transform="translate(-100.476 -171.962)" fill="#f28f8f"/><path d="M136.531,196.124l-3.786,1.729a2.171,2.171,0,0,1,1.054-2.821,2.032,2.032,0,0,1,2.732,1.092Z" transform="translate(-95.585 -170.334)" fill="#263238"/><path d="M136.806,217.18l5.433,1.843a3.01,3.01,0,0,1-3.748,1.83,2.8,2.8,0,0,1-1.685-3.673Z" transform="translate(-97.078 -178.575)" fill="#b16668"/><path d="M136.968,219.19a2.821,2.821,0,0,1,2.663,2.524,2.808,2.808,0,0,1-1.111-.139,2.726,2.726,0,0,1-1.83-2.36A1.965,1.965,0,0,1,136.968,219.19Z" transform="translate(-97.107 -179.316)" fill="#f28f8f"/><path d="M157.584,195.823l-3.824-1.679a2,2,0,0,1,2.688-1.117,2.2,2.2,0,0,1,1.136,2.8Z" transform="translate(-103.405 -169.598)" fill="#263238"/><path d="M139.49,235.21c2.436.707,9.554,10.336,11.863,13.807l-2.612,6.664A30.77,30.77,0,0,1,152.861,261l-5.32,15.492s.48-20.641-8.052-36.347Z" transform="translate(-98.14 -185.227)" fill="#263238"/><path d="M136.116,265.35c1.893,4.916,2.158,16.312,2.158,16.312s-1.893-10.633-10.835-14.356c0-.511.095-7.793.095-7.793s-11.989-3.042-14.514-4.184l-2.581-13.883s1.723-4.3,3.155-4.417v3a139.453,139.453,0,0,1,11.314,9.958C131.447,256.289,134.236,260.435,136.116,265.35Z" transform="translate(-87.421 -185.899)" fill="#37474f"/><path d="M156.814,318.739c-1.931-1.622-4.726-3.868-6.941-4.417a12.532,12.532,0,0,0-1.571-.347,16.838,16.838,0,0,0,2.2-.631,4,4,0,0,0,1.792-1.413c.164-.259.265-.631,0-.833a.53.53,0,0,0-.322-.088c-1.634.082-2.941-.063-4.417-.05a6.386,6.386,0,0,0-1.994.2c-.593.221-1.186.448-1.767.7-2.631,1.161-5.048,2.209-8.935,1.634l-1.628-.429-27.374-14.1-5.193-28.27S99.4,253.163,92.3,248.91c-3.786,1.439-7.932,5-9.055,8.834-1.325,4.562-.808,11.043,1.451,21.1,1.893,8.412,3.868,17.038,6.007,23.442s2.96,8.67,7.162,9.926c7.049,2.108,32.479,9.08,32.479,9.08a16.715,16.715,0,0,0,1.59.524,25.614,25.614,0,0,0,3.786,1.306c2.48.543,5.5-.587,7.572-.877a22.2,22.2,0,0,1,7.736,1.022c2.013.631,4.1-2.562,5.1-2.278S158.751,320.367,156.814,318.739Z" transform="translate(-77.123 -190.282)" fill="#ffa8a7"/><path d="M183.424,349.885a7.414,7.414,0,0,0-2.934.726,16.292,16.292,0,0,1,3.931.353,16.845,16.845,0,0,0,2.2-.631,4.221,4.221,0,0,0,1.634-1.193C187.122,350.036,184.85,349.91,183.424,349.885Z" transform="translate(-113.268 -227.265)" fill="#f28f8f"/><path d="M91.559,248.61c-4.9,2.1-8.153,4.657-9.465,10.052s-.385,10.134.719,15.845S86.5,289.5,86.5,289.5s10.494.631,16.545-3.565L99.737,264.4s-1.748-12.785-7.844-15.6" transform="translate(-76.725 -190.172)" fill="#37474f"/><path d="M107.073,166.148c-3.685,3.414-7.219,8.254-4.6,19.454a6.077,6.077,0,0,0-1.521,6.31c1.01,3.458,4.329,5.736,7.415,5.048s4.758-3.982,3.748-7.446c-.764-2.587-3.54-5.092-5.824-4.928,0,0-2.19-4.789-.139-11.579,2.8-9.251,13.586-10.021,18.331-9.27C122.892,161.484,111.944,161.636,107.073,166.148Z" transform="translate(-83.802 -158.33)" fill="#ff8900"/><path d="M107.073,166.148c-3.685,3.414-7.219,8.254-4.6,19.454a6.077,6.077,0,0,0-1.521,6.31c1.01,3.458,4.329,5.736,7.415,5.048s4.758-3.982,3.748-7.446c-.764-2.587-3.54-5.092-5.824-4.928,0,0-2.19-4.789-.139-11.579,2.8-9.251,13.586-10.021,18.331-9.27C122.892,161.484,111.944,161.636,107.073,166.148Z" transform="translate(-83.876 -158.33)" opacity="0.4"/><path d="M111.646,201.863c-1.123-3.837-4.8-6.354-8.2-5.635a5.218,5.218,0,0,0-1.483.555c-.385.215-1.546,1.01-1.773,1.161-2.183,1.445-3.155,4.417-2.291,7.471,1.123,3.837,4.8,6.354,8.2,5.635a5.345,5.345,0,0,0,1.767-.719c.278-.177,1.363-.9,1.628-1.092A6.6,6.6,0,0,0,111.646,201.863Z" transform="translate(-82.677 -170.799)" fill="#90caf9"/><path d="M111.646,201.863c-1.123-3.837-4.8-6.354-8.2-5.635a5.218,5.218,0,0,0-1.483.555c-.385.215-1.546,1.01-1.773,1.161-2.183,1.445-3.155,4.417-2.291,7.471,1.123,3.837,4.8,6.354,8.2,5.635a5.345,5.345,0,0,0,1.767-.719c.278-.177,1.363-.9,1.628-1.092A6.6,6.6,0,0,0,111.646,201.863Z" transform="translate(-82.677 -170.799)" opacity="0.3"/><path d="M110.245,203.346c-1.123-3.83-4.8-6.354-8.2-5.629s-5.275,4.417-4.152,8.247,4.8,6.354,8.2,5.635S111.368,207.183,110.245,203.346Z" transform="translate(-82.67 -171.347)" fill="#ff8900"/><path d="M110.245,203.346c-1.123-3.83-4.8-6.354-8.2-5.629s-5.275,4.417-4.152,8.247,4.8,6.354,8.2,5.635S111.368,207.183,110.245,203.346Z" transform="translate(-82.745 -171.347)" opacity="0.1"/><path d="M108.976,206.222a3.532,3.532,0,0,0-3.881-2.657,2.919,2.919,0,0,0-1.962,3.893,3.551,3.551,0,0,0,3.881,2.657A2.942,2.942,0,0,0,108.976,206.222Z" transform="translate(-84.664 -173.53)" fill="#37474f"/></g><g transform="translate(115.433 83.185)"><path d="M223.92,400.692l-12.759-7.471a.631.631,0,1,1,0-1.262l50.034-28.888a2.328,2.328,0,0,1,2.12,0l12.747,7.415a.631.631,0,0,1,0,1.224L226.034,400.7A2.316,2.316,0,0,1,223.92,400.692Z" transform="translate(-210.53 -315.496)" opacity="0.1"/><g transform="translate(3.15)"><path d="M272.326,330.934l3.351-39.754a3.4,3.4,0,0,0-1.489-2.978,3.786,3.786,0,0,0-3.407.063L220.8,317.121a4.36,4.36,0,0,0-1.931,3.042l-3.344,39.754a3.376,3.376,0,0,0,1.483,2.978,3.786,3.786,0,0,0,3.414-.063L270.4,334A4.335,4.335,0,0,0,272.326,330.934Z" transform="translate(-215.522 -287.827)" fill="#263238"/><path d="M278.034,291.188l-3.344,39.754,2.429-39.464c.088-1.117-.315-1.54-1.262-.984l-49.365,28.529a3.982,3.982,0,0,0-1.262,1.294l-3.3-1.893a3.862,3.862,0,0,1,1.262-1.262L273.163,288.3a3.818,3.818,0,0,1,3.42-.063A3.4,3.4,0,0,1,278.034,291.188Z" transform="translate(-217.887 -287.842)" fill="#37474f"/><path d="M220.756,363.218l3.351-39.754a4.335,4.335,0,0,1,1.925-3.042L275.4,291.856c.972-.562,1.376-.133,1.262.984L274.229,332.3a4.335,4.335,0,0,1-1.925,3.048L222.327,364.2C221.38,364.79,220.667,364.342,220.756,363.218Z" transform="translate(-217.451 -289.223)" fill="#455a64"/><path d="M259.445,363.612l-.385,11.977,13.883-7.982L269.56,357.8Z" transform="translate(-231.587 -313.645)" fill="#263238"/><path d="M261.917,365.252l9.692-5.629-1.653-.953-9.686,5.635Z" transform="translate(-232.033 -313.966)" fill="#455a64"/><path d="M275.134,377l-5.3-16.817-9.693,5.635-1.641-.959,1.085,12.949.271,3.723.158.8-.707-.4-3.155-1.8a.53.53,0,0,0-.473-.063h0a.486.486,0,0,0-.221.461v.284a1.515,1.515,0,0,0,.681,1.2h0l5.187,3h0a1.515,1.515,0,0,0,.631.164,1.452,1.452,0,0,0,.751-.17l11.806-6.815A1.218,1.218,0,0,0,275.134,377Zm-7.452-1.439a2.038,2.038,0,0,1-3.155-1.262,3.906,3.906,0,0,1,1.735-4.127,2.026,2.026,0,0,1,3.155,1.262A3.9,3.9,0,0,1,267.681,375.558Z" transform="translate(-230.257 -314.524)" fill="#37474f"/><path d="M255.83,390.322,259.856,388l.814,5.414Z" transform="translate(-230.395 -324.789)"/><path d="M260.146,368.553,258.5,367.6l1.363,16.659c.088.442-.164.631-.543.391l-3.155-1.8c-.385-.227-.694-.038-.694.4v.278a1.527,1.527,0,0,0,.669,1.205h0l5.2,3h0a1.452,1.452,0,0,0,.631.164Z" transform="translate(-230.262 -317.261)" fill="#263238"/><path d="M273.288,381.189a2.026,2.026,0,0,1-2.638-.284,2.3,2.3,0,0,0,1.47-.341,3.887,3.887,0,0,0,1.735-4.121,2.411,2.411,0,0,0-.524-1,2.057,2.057,0,0,1,1.685,1.622A3.9,3.9,0,0,1,273.288,381.189Z" transform="translate(-235.863 -320.154)" fill="#263238"/><path d="M261.3,343.639l-.631,7.667c-.044.5.233.738.631.517a1.817,1.817,0,0,0,.77-1.306l.631-7.661c.044-.511-.233-.738-.631-.524A1.849,1.849,0,0,0,261.3,343.639Z" transform="translate(-232.178 -307.909)" fill="#90caf9"/><path d="M265.238,341.367l-.631,7.661c-.044.5.233.738.631.524a1.842,1.842,0,0,0,.77-1.312l.631-7.661c.044-.5-.233-.738-.631-.517a1.836,1.836,0,0,0-.77,1.306Z" transform="translate(-233.632 -307.069)" fill="#90caf9"/><path d="M269.178,339.089l-.631,7.667c-.044.5.233.738.631.517a1.817,1.817,0,0,0,.77-1.306l.631-7.661c.044-.511-.233-.738-.631-.524A1.849,1.849,0,0,0,269.178,339.089Z" transform="translate(-235.086 -306.23)" fill="#90caf9"/><path d="M273.119,336.817l-.631,7.661c-.038.5.233.738.631.524a1.842,1.842,0,0,0,.77-1.313l.631-7.661c.044-.5-.233-.738-.631-.517a1.836,1.836,0,0,0-.77,1.306Z" transform="translate(-236.54 -305.391)" fill="#90caf9"/></g></g></g><g transform="translate(154.767 62.806)"><g transform="translate(0.88 20.692)"><path d="M326.27,272.3h6.4l-1.029,6.247h0a1.155,1.155,0,0,1-.631.776,3.433,3.433,0,0,1-3.1,0,1.167,1.167,0,0,1-.631-.776h0Z" transform="translate(-273.712 -168.788)" fill="#fafafa"/><path d="M382,242.44h6.4l-1.022,6.247h0a1.174,1.174,0,0,1-.631.77,3.433,3.433,0,0,1-3.1,0,1.161,1.161,0,0,1-.631-.77h0Z" transform="translate(-294.275 -157.77)" fill="#fafafa"/><path d="M251.08,230.19h6.4l-1.022,6.247h0a1.13,1.13,0,0,1-.631.77,3.4,3.4,0,0,1-3.1,0,1.13,1.13,0,0,1-.631-.77h0Z" transform="translate(-245.969 -153.25)" fill="#fafafa"/><path d="M302.71,200.16h6.4l-1.022,6.247h0a1.142,1.142,0,0,1-.631.77,3.433,3.433,0,0,1-3.1,0,1.142,1.142,0,0,1-.631-.77h0Z" transform="translate(-265.019 -142.17)" fill="#fafafa"/><path d="M243,152.369V182.2a6.9,6.9,0,0,0,3.092,5.4l2.524,1.464h.044a7.017,7.017,0,0,0,3.881.663l38.019,20.117a6.941,6.941,0,0,0,3.067,5.162h.032l2.524,1.451a1.416,1.416,0,0,0,.233.126l.133.063h.038a7.042,7.042,0,0,0,4.815.221,5.048,5.048,0,0,0,.543-.2.472.472,0,0,1,.082-.038,2.845,2.845,0,0,0,.366-.189l36.6-21.064a6.891,6.891,0,0,0,3.1-5.376l.05-37.767V137.912a6.941,6.941,0,0,0-3.1-5.383l-40.915-23.575a6.417,6.417,0,0,0-5.995.1l-2.524,1.458a8.26,8.26,0,0,0-3.578,5.351l-2.436,15.984-2.253-1.3a6.739,6.739,0,0,0-6.758,0l-28.491,16.444A6.9,6.9,0,0,0,243,152.369Z" transform="translate(-242.987 -108.261)" fill="#37474f"/><path d="M316.1,110.513l2.524-1.458a6.417,6.417,0,0,1,5.995-.1l40.909,23.575c.183.107.379.246.322.2a7.092,7.092,0,0,1,2.751,4.657c-.227-1.59-1.521-2.164-3.067-1.262l-2.524,1.464a6.859,6.859,0,0,1-6.209,0L316.1,114.116C314.381,113.144,314.381,111.5,316.1,110.513Z" transform="translate(-269.484 -108.261)" fill="#455a64"/><path d="M243,164.87V194.7a6.9,6.9,0,0,0,3.092,5.4l2.524,1.464h.044a6.664,6.664,0,0,0,3.641.688,6.153,6.153,0,0,0,2.524-.713l28.762-16.583a6.9,6.9,0,0,0,3.1-5.383V149.731a6.885,6.885,0,0,0-3.1-5.383l-2.253-1.3a6.739,6.739,0,0,0-6.758,0l-28.484,16.444A6.9,6.9,0,0,0,243,164.87Z" transform="translate(-242.987 -120.762)" fill="#263238"/><path d="M281.321,143.058l2.259,1.3c1.71.984,1.71,2.6,0,3.584l-28.749,16.6a6.891,6.891,0,0,0-3.111,5.383v29.828c0,1.975-1.4,2.783-3.111,1.8l-2.524-1.464a6.9,6.9,0,0,1-3.1-5.376V164.879a6.941,6.941,0,0,1,3.1-5.383l28.484-16.407a6.727,6.727,0,0,1,6.752-.032Z" transform="translate(-242.98 -120.771)" fill="#455a64"/><path d="M251.72,181.419v29.828c0,1.975-1.4,2.783-3.111,1.8l-2.524-1.464a6.9,6.9,0,0,1-3.1-5.376V176.37a6.373,6.373,0,0,1,.915-3.06l8.74,5.048a6.355,6.355,0,0,0-.915,3.06Z" transform="translate(-242.98 -132.263)" fill="#37474f"/><path d="M258.544,222.928a7.364,7.364,0,0,0,1.136,1.7,13.2,13.2,0,0,0,2.922,2.045c10.923,6.31,18.8,10.841,29.727,17.151a3.445,3.445,0,0,0,3.1,0l10.1-5.837,20.193-11.661a5.837,5.837,0,0,0,0-10.317l-11.447-6.594-8.74-5.048-9.5-5.465a6.859,6.859,0,0,0-6.216,0l-28.743,16.583a6.664,6.664,0,0,0-3.111,5.155A5.5,5.5,0,0,0,258.544,222.928Z" transform="translate(-248.511 -141.432)" fill="#263238"/><path d="M292.326,248.678l-32.813-18.931c-.852-.492-1.552-.088-1.552.9V233.8a3.458,3.458,0,0,0,1.552,2.688l32.813,18.931c.858.492,1.552.088,1.552-.9v-3.155A3.42,3.42,0,0,0,292.326,248.678Z" transform="translate(-248.507 -153.009)" fill="#37474f"/><path d="M296.04,174.488l29.7,17.126a6.865,6.865,0,0,1,3.1,5.383v6.31a6.878,6.878,0,0,1-3.1,5.376L296.986,225.26a6.859,6.859,0,0,1-6.209,0l-29.7-17.132a6.878,6.878,0,0,1-3.1-5.376v-6.31a6.885,6.885,0,0,1,3.1-5.383l28.756-16.6a6.859,6.859,0,0,1,6.209.025Z" transform="translate(-248.511 -132.419)" fill="#37474f"/><path d="M314.88,223.1v13.466a6.31,6.31,0,0,0,3.1-.751l28.756-16.6a6.878,6.878,0,0,0,3.1-5.376v-6.31a6.941,6.941,0,0,0-2.789-5.181c1.388,1,1.262,2.461-.316,3.389l-28.756,16.6A6.31,6.31,0,0,1,314.88,223.1Z" transform="translate(-269.509 -142.978)" fill="#263238"/><path d="M291.882,211.808l-29.7-17.132c-1.71-.991-1.71-2.593,0-3.584l28.756-16.6a6.859,6.859,0,0,1,6.209,0l29.7,17.126c1.716.991,1.716,2.6,0,3.591l-28.756,16.6a6.859,6.859,0,0,1-6.209,0Z" transform="translate(-249.591 -132.426)" fill="#455a64"/></g><path d="M276.35,236.078s2.4,7.673,2.31,10.614c-.1,3.067.555,4.14-.246,7.415-.17.713-.675,2.127-.814,2.707a.865.865,0,0,0,.688,1.148c1.3.385,3.71-1.893,4.985-4.537a81.052,81.052,0,0,0,3.426-9.314,4.209,4.209,0,0,0-.24-2.171,6.309,6.309,0,0,0-.517-1.161c-.328-1.363-.322-3.906-.543-5.679Z" transform="translate(-254.413 -134.37)" fill="#b16668"/><path d="M286.293,254.13a3.155,3.155,0,0,1,.271,1.029c0,.631-1.565,2.524-2.164,3.187a4.9,4.9,0,0,0-1.262,3.382,8.462,8.462,0,0,1-2.493,5.256,13.454,13.454,0,0,1-7.023,3.786c-3.294.719-4.291-.984-4.291-.984s-.871-1.634-.215-2.221S286.293,254.13,286.293,254.13Z" transform="translate(-251.654 -141.392)" fill="#263238"/><path d="M283.111,244.1c.1,0,.271,0,.5.322.088.12.549,1.615.972,2.417s1.578,2.347,1.641,3.591c-.947,2.316-3.319,3.786-3.843,6.007s-.789,4.827-4.474,7.288-7.263,2.448-8.481,1.609-.984-2.2,1.016-4.651c2.12-2.606,3.9-8.494,3.9-8.494a20.362,20.362,0,0,0,.549-2.524,17.122,17.122,0,0,0,0-2.524,1.893,1.893,0,0,1,.259-1.13,1.962,1.962,0,0,1,1-.581,8.421,8.421,0,0,1,1.83-.448,2.827,2.827,0,0,1,1.811.372,13.573,13.573,0,0,0,1.079.827,1.647,1.647,0,0,0,1.723-.158,1.42,1.42,0,0,0,.593-1.521A3.678,3.678,0,0,0,283.111,244.1Z" transform="translate(-251.583 -137.691)" fill="#455a64"/><path d="M280.064,270.136a5.534,5.534,0,0,0-4.783-3.155c-3.673-.29-5.1,1.47-5.749,2.524-.776,1.262-1.666,3.565-.208,4.373,1.571.871,3.483.808,6.594-.435A7.964,7.964,0,0,0,280.064,270.136Z" transform="translate(-251.532 -146.122)" fill="#fafafa"/><path d="M283.8,253.6a.391.391,0,0,1-.334-.032c-.543-.334-3.49-1.218-5.37.259-.215-.2-.139-.53.189-.972a6.74,6.74,0,0,1,5.6.1.353.353,0,0,1,.1.5A.385.385,0,0,1,283.8,253.6Z" transform="translate(-255.014 -140.71)" fill="#fafafa"/><path d="M277.27,257.24a1.148,1.148,0,0,1,.3-.991,6.859,6.859,0,0,1,5.326.233.353.353,0,0,1,.1.5.385.385,0,0,1-.517.114C281.952,256.773,279.157,255.934,277.27,257.24Z" transform="translate(-254.746 -142.016)" fill="#fafafa"/><path d="M274.25,264.668a2.126,2.126,0,0,1,.581-1.294,6.845,6.845,0,0,1,5.515.145.36.36,0,0,1,.1.5.43.43,0,0,1-.189.145.391.391,0,0,1-.334-.032C279.355,263.785,276.105,262.826,274.25,264.668Z" transform="translate(-253.638 -144.61)" fill="#fafafa"/><path d="M281.617,260.661a.366.366,0,0,1-.334,0c-.536-.334-3.42-1.193-5.307.208a1.262,1.262,0,0,1,.4-1.06,6.859,6.859,0,0,1,5.326.234.366.366,0,0,1-.082.631Z" transform="translate(-254.272 -143.329)" fill="#fafafa"/><path d="M262.822,250.65s-2.265,8.929-4.228,12.3a29.008,29.008,0,0,1-5.49,7.459c-.549.536-1.779,1.514-2.228,1.95a.909.909,0,0,0,0,1.4c.94,1.066,5.256,1.66,7.837.044s5.124-5.307,6.7-6.651c.593-.5,1.148-1.022,1.691-1.578s.435-1.1.53-1.735c.044-.315.069-1.167.069-1.167.461-1.5,1.565-3.786,2.164-5.256Z" transform="translate(-244.892 -140.108)" fill="#b16668"/><path d="M264.627,280.65a3.312,3.312,0,0,1-.208,1.1c-.29.568-2.594,1.666-3.471,2.044a5.149,5.149,0,0,0-2.694,2.631,8.834,8.834,0,0,1-4.707,3.856,14.015,14.015,0,0,1-8.342.454c-3.439-.8-3.616-2.852-3.616-2.852s-.095-1.931.789-2.2S264.627,280.65,264.627,280.65Z" transform="translate(-241.585 -151.177)" fill="#263238"/><path d="M264.639,267.87c.095.05.265.12.334.524a26.413,26.413,0,0,0-.158,2.72c.044.94.442,2.928-.057,4.133-1.931,1.773-4.834,2.1-6.31,3.969s-2.9,4.222-7.49,4.9-7.964-.934-8.74-2.265.044-2.524,3.035-3.95c3.155-1.521,7.484-6.31,7.49-6.31a20.878,20.878,0,0,0,1.641-2.139,17.892,17.892,0,0,0,1.117-2.417,1.975,1.975,0,0,1,.745-.953,2.025,2.025,0,0,1,1.212-.095,9.106,9.106,0,0,1,1.931.385,2.985,2.985,0,0,1,1.546,1.167c.246.4.366.883.631,1.262a1.735,1.735,0,0,0,1.7.631,1.47,1.47,0,0,0,1.262-1.174A3.5,3.5,0,0,0,264.639,267.87Z" transform="translate(-241.718 -145.749)" fill="#455a64"/><path d="M253.911,289.592a5.774,5.774,0,0,0-3.124-5.1c-3.344-1.925-5.477-.9-6.563-.189-1.294.839-3.155,2.625-2.152,4.045,1.1,1.527,2.941,2.316,6.436,2.524A8.373,8.373,0,0,0,253.911,289.592Z" transform="translate(-241.66 -152.188)" fill="#fafafa"/><path d="M265.987,274.886a.4.4,0,0,1-.3-.177c-.36-.562-2.758-2.713-5.2-2.158-.107-.284.107-.562.631-.833a7.051,7.051,0,0,1,5.256,2.593.366.366,0,0,1-.133.517.41.41,0,0,1-.252.057Z" transform="translate(-248.549 -147.88)" fill="#fafafa"/><path d="M258.18,275.331a1.187,1.187,0,0,1,.719-.8,7.219,7.219,0,0,1,4.941,2.6.366.366,0,0,1-.133.517.4.4,0,0,1-.543-.12C262.818,276.985,260.54,274.946,258.18,275.331Z" transform="translate(-247.708 -148.919)" fill="#fafafa"/><path d="M251.88,281.135a2.246,2.246,0,0,1,1.13-.965,7.075,7.075,0,0,1,5.149,2.606.366.366,0,0,1-.126.517.4.4,0,0,1-.24.05.385.385,0,0,1-.3-.177C257.1,282.586,254.48,280.214,251.88,281.135Z" transform="translate(-245.384 -151)" fill="#fafafa"/><path d="M260.741,280.524a.379.379,0,0,1-.3-.177c-.36-.555-2.707-2.657-5.118-2.171a1.35,1.35,0,0,1,.846-.827,7.244,7.244,0,0,1,4.941,2.6.372.372,0,0,1-.126.524.4.4,0,0,1-.24.05Z" transform="translate(-246.653 -149.959)" fill="#fafafa"/><path d="M293.641,171.64c-3.944,2.4-17.5,8.778-23.152,13.195-1.634,1.262-2.291,3.079-2.259,7.137.044,5.509,2.77,24.49,2.77,24.49.5,1.1,1.71-.808,1.71-.808l22.673-24.269Z" transform="translate(-251.416 -110.955)" fill="#90caf9"/><path d="M293.641,171.64c-3.944,2.4-17.5,8.778-23.152,13.195-1.634,1.262-2.291,3.079-2.259,7.137.044,5.509,2.77,24.49,2.77,24.49.5,1.1,1.71-.808,1.71-.808l22.673-24.269Z" transform="translate(-251.416 -110.955)" opacity="0.07"/><path d="M274.8,213.395c5.048-3.559,22.42-26.421,22.42-26.421h0c-1.937-1.937-2.524-8.134-2.524-8.134-1.022,2.284-.454,5.913.082,7.263-1.294.94-8.576,5.969-13.624,9.314a6.783,6.783,0,0,0-3.155,4C276.6,204.453,274.781,212.347,274.8,213.395Z" transform="translate(-253.841 -113.611)" opacity="0.3"/><path d="M293.457,171.64h0l25.872,8.058c-1.691,4.733-2.272,7.2-3.83,9.636s-3.288,5.048-10.424,7.837c-6.878,2.694-15.227,5.364-16.905,5.995-1.262.473-2.045,2.859-2.865,5.963a37.483,37.483,0,0,1-4.979,12.5c-3.786,6.525-4.55,7.938-4.55,7.938s-5,.095-8.046-3.073c0,0,6.449-22.912,7.762-27.027.732-2.3.846-3.527,3.969-5.856,2.682-2,14.514-9.465,14.514-9.465S290.062,177.811,293.457,171.64Z" transform="translate(-251.232 -110.955)" fill="#90caf9"/><path d="M300.039,110.025c-.5-.3-.719-3.622-.189-5.995s-.568-2.953-1.111-2.209a3.894,3.894,0,0,0-.669,1.382,6.613,6.613,0,0,0-3.092,1.647,6.774,6.774,0,0,0-2.436,6.443,9.163,9.163,0,0,1-.24,3.5c-1.893,5.162-8.62,11.623-10.134,18.508-1.4,6.31,3.54,6.941,7.856,5.048,4.96-2.228,14.463-10.664,14.463-10.664l4.121-13.826c-2.619,0-4.569.423-8.046,3.786-.581.562-3,2.625-3,2.625a28.4,28.4,0,0,1,2.474-4.846" transform="translate(-256.47 -85.081)" fill="#b16668"/><path d="M299.674,145.61a30.071,30.071,0,0,1-2.524,4.575,9.017,9.017,0,0,0,3.237-3.786Z" transform="translate(-262.087 -101.35)" fill="#9a4a4d"/><path d="M316.269,121.02a8.454,8.454,0,0,0-7.364,2.328c-2.051,1.988-4.247,4.083-4.247,4.083-1.47,3.42-2.524,6.739-3.508,9.08a12.374,12.374,0,0,0,2.638,4.966l11.51-9.245Z" transform="translate(-263.563 -92.252)" fill="#fafafa"/><path d="M304.706,118.631a2.143,2.143,0,0,0-.372-2.486l1.893-1.262V114.8h0l-7.572-.341a9.094,9.094,0,0,0,.069,1.622,11.867,11.867,0,0,1,.057,1.641l.984.587a.738.738,0,0,0,.707,0l3.187-1.647C304.75,117.123,304.706,118.631,304.706,118.631Z" transform="translate(-262.639 -89.857)" fill="#9a4a4d"/><path d="M298.039,100.645l13.251-6.253a.738.738,0,0,1,.745,0c.164.107.846.53,1.035.631a.707.707,0,0,1,.334.631l.429,6.859a1.685,1.685,0,0,1-.909,1.5l-13.251,6.253a.782.782,0,0,1-.7,0c-.189-.107-.928-.562-1.123-.688a.745.745,0,0,1-.29-.581c-.107-1.723-.322-5.137-.429-6.859a1.679,1.679,0,0,1,.909-1.5Z" transform="translate(-262.08 -82.415)" fill="#37474f"/><path d="M314.254,103.4a.928.928,0,0,1-.454.751l-12.538,5.925v.3l-.511-7.3a.9.9,0,0,1,.448-.738L314.02,96.26h0l-.278.133Z" transform="translate(-263.416 -83.141)" fill="#90caf9"/><path d="M314.254,103.4a.928.928,0,0,1-.454.751l-12.538,5.925v.3l-.511-7.3a.9.9,0,0,1,.448-.738L314.02,96.26h0l-.278.133Z" transform="translate(-263.416 -83.141)" fill="#fff" opacity="0.75"/><path d="M314.873,103.571a.934.934,0,0,1-.454.745L301.59,110.38v-.3l12.538-5.925a.928.928,0,0,0,.454-.751l-.492-7,.278-.133Z" transform="translate(-263.726 -83.145)" fill="#263238"/><path d="M299.01,114.219h-.038c-.189-.107-.928-.562-1.123-.688a.745.745,0,0,1-.29-.581c-.107-1.723-.322-5.137-.429-6.859a1.653,1.653,0,0,1,.461-1.161l1.079.631a1.647,1.647,0,0,0-.467,1.167l.429,6.866a.7.7,0,0,0,.379.625Z" transform="translate(-262.08 -86.34)" fill="#263238"/><path d="M313.356,95.022a.789.789,0,0,0-.681,0l-13.251,6.26a1.413,1.413,0,0,0-.448.328l-1.085-.631a1.558,1.558,0,0,1,.454-.341L311.6,94.384a.763.763,0,0,1,.738,0A10.944,10.944,0,0,0,313.356,95.022Z" transform="translate(-262.36 -82.414)" fill="#455a64"/><path d="M300.128,112.28a.492.492,0,0,0-.259.448.189.189,0,0,0,.3.17.5.5,0,0,0,.259-.448.189.189,0,0,0-.3-.17Z" transform="translate(-263.091 -89.04)" opacity="0.35"/><path d="M310.882,113.26c.4-.328.543-1.357,1.218-2.284.782-1.066,2.587-.789,2.026.076s-.757,1.647-1.167,3.849-1.294,2.524-2.278,3.786v-5.307Z" transform="translate(-267.08 -88.315)" fill="#b16668"/><path d="M327.583,122.113c2.177.574,9.213,3.351,9.213,3.351,1.514,1.186.877,3.786.852,6.771-.587,21.644-4.335,31.286-4.335,31.286-8.468,1.855-23.935-3.527-26.812-9.989,2.587-3.931,4.329-9.806,4.695-21.341.271-8.563,4.165-11.15,6.689-11.131A41.54,41.54,0,0,1,327.583,122.113Z" transform="translate(-265.537 -92.291)" fill="#ebebeb"/><path d="M321.773,87.485a3.079,3.079,0,0,0,0-1.514c-.151-.536-.353-1.054-.486-1.59-.17-.726-.366-1.451-.581-2.164A10.406,10.406,0,0,1,320,79.136a1.683,1.683,0,0,1,2.366-1.679,5.6,5.6,0,0,1,1.672,1,3.49,3.49,0,0,1,.631-2.177,2.019,2.019,0,0,1,2.038-.77,5.363,5.363,0,0,1,1.761,1.3,9.256,9.256,0,0,0,3.7,1.489,9.175,9.175,0,0,1,3.755,1.6,5.881,5.881,0,0,1,2.221,4.417c0,.631-.265,2.19-.366,3.023-.158,1.262-.29,2.524-.492,3.742-1.035,6.31-3.1,10.891-9.465,10.424-2.423-.183-5.805-1.685-6.436-4.323a9.22,9.22,0,0,1-.12-1.382c-.063-.928-.088-1.893-.069-2.789A33.367,33.367,0,0,1,321.773,87.485Z" transform="translate(-270.518 -75.47)" fill="#263238"/><path d="M345.712,89.52a2.352,2.352,0,0,1,1.893,1.641c.562,1.388.82,3.578-.543,6.941a28.679,28.679,0,0,1-3.351,6.007c-.562.953-1.458,2.745-1.458,2.745l.4-4.19.36-2.909s-1.792-.41-2.31-3.319c-.587-3.269.032-3.679.032-3.679Z" transform="translate(-278.064 -80.654)" fill="#455a64"/><path d="M334.555,99.044a.726.726,0,0,0,.688-.05c.581-.341.852-1.073,1.344-1.514a2.091,2.091,0,0,1,3.439.82c.814,2.082-1.23,4.821-2.72,5.389a2.248,2.248,0,0,1-2.985-1.369l-.846,8.834c-2.524,3.862-5.231,4.171-7.818,3.988s-2.392-2.587-.732-4.24l.221-2.877a16.9,16.9,0,0,1-3.546-.076c-1.893-.442-2.808-1.962-3.237-4.1a28.4,28.4,0,0,1-.3-7.49,31.2,31.2,0,0,1,1.451-6.79s1.1-1,4.285-1.048c2.253,0,5.092-.189,6.272,1.224a3.225,3.225,0,0,0,2.335,2.688C331.721,96.956,334.176,98.88,334.555,99.044Z" transform="translate(-269.758 -80.284)" fill="#b16668"/><path d="M329.205,86.4c-.467-.858-2.127-1.262-3.086-1.123a22.383,22.383,0,0,0-3.887,1.2,9.15,9.15,0,0,1-2.915.486,5.256,5.256,0,0,1-2.713-.694,3.156,3.156,0,0,1-.132-4.884,1.3,1.3,0,0,0,.631,1.06,3.894,3.894,0,0,0,1.193.454,2.354,2.354,0,0,1-.789-2.215,3.1,3.1,0,0,1,1.811-2.076c.757-.215,1.634-.442,3.313.947S330.013,81.774,329.205,86.4Z" transform="translate(-268.813 -76.568)" fill="#263238"/><path d="M329.308,117.545a31.455,31.455,0,0,0,5.919-1.262,5,5,0,0,0,2.234-1.893,6.79,6.79,0,0,1-1.363,2.335c-1.2,1.325-6.878,1.944-6.878,1.944Z" transform="translate(-273.921 -89.831)" fill="#9a4a4d"/><path d="M332.21,101.222a.865.865,0,1,0,.928-.833.883.883,0,0,0-.928.833Z" transform="translate(-275.023 -84.664)" fill="#263238"/><path d="M333.1,96.314l1.83,1a1.1,1.1,0,0,0-.448-1.464,1.029,1.029,0,0,0-1.382.467Z" transform="translate(-275.352 -82.949)" fill="#263238"/><path d="M330.3,110.26l-3.7,1.1a1.893,1.893,0,0,0,2.36,1.376A2.019,2.019,0,0,0,330.3,110.26Z" transform="translate(-272.954 -88.307)" fill="#9a4a4d"/><path d="M329.753,113.25a1.893,1.893,0,0,1-1,0,1.748,1.748,0,0,1,1.862-1.552,1.558,1.558,0,0,1,.486.107A1.988,1.988,0,0,1,329.753,113.25Z" transform="translate(-273.747 -88.836)" fill="#f28f8f"/><path d="M319.977,96.177l2.044-.631a1.016,1.016,0,0,0-1.262-.738,1.117,1.117,0,0,0-.782,1.369Z" transform="translate(-270.496 -82.592)" fill="#263238"/><path d="M321,100.356a.871.871,0,0,0,.8.959.9.9,0,1,0-.8-.959Z" transform="translate(-270.885 -84.347)" fill="#263238"/><path d="M326.076,99.25l-.625,5.831-2.922-1.243Z" transform="translate(-271.452 -84.245)" fill="#9a4a4d"/><path d="M332.21,230.737V200.9a6.941,6.941,0,0,1,3.1-5.383l28.794-16.615a2.051,2.051,0,0,0,0-3.546l-.707-.4,2.442-15.984a8.26,8.26,0,0,1,3.578-5.351l2.524-1.458c1.71-.991,3.1-.183,3.1,1.792V168.31l-.063,37.773a6.878,6.878,0,0,1-3.1,5.376l-36.6,21.07C333.611,233.514,332.21,232.706,332.21,230.737Z" transform="translate(-275.024 -103.612)" fill="#263238"/><path d="M318.37,208.367V238.4a6.941,6.941,0,0,0,3.067,5.162h.032l2.524,1.451a1.414,1.414,0,0,0,.234.126l.132.063h.038a1.509,1.509,0,0,0,.246.095,7.206,7.206,0,0,0,4.569.126,5.045,5.045,0,0,0,.543-.2c-1.5.631-2.65-.227-2.657-2.013h0v-29.8a6.9,6.9,0,0,1,3.1-5.383l5.641-3.256L359,191.418a2.051,2.051,0,0,0,0-3.546l-2.568-1.483a6.9,6.9,0,0,0-6.209,0L327.1,199.753,321.475,203a6.878,6.878,0,0,0-3.1,5.364Z" transform="translate(-269.917 -116.124)" fill="#455a64"/><path d="M327.107,224.909v29.828h0c0,1.786,1.161,2.625,2.657,2.013a5.046,5.046,0,0,1-.543.2,7.206,7.206,0,0,1-4.569-.126,1.51,1.51,0,0,1-.246-.095h-.038l-.133-.063a1.412,1.412,0,0,1-.234-.126l-2.524-1.451h-.032a6.941,6.941,0,0,1-3.067-5.162V219.86a6.36,6.36,0,0,1,.909-3.06l8.74,5.048a6.31,6.31,0,0,0-.921,3.06Z" transform="translate(-269.921 -127.618)" fill="#37474f"/><g transform="translate(46.323 33.147)"><path d="M351.515,158.747c-.839-6.575-1.54-10-2.4-14.406-2.013-10.235-1.54-13.176-8.942-15.1,0,0-2.682,2.36-2.8,8.418a15.582,15.582,0,0,0,1.262,7.093l3.155,15.145a107.272,107.272,0,0,1-11.447,8.929c-2.3,1.224-4.859,1.7-7.32,2.524-1.634.562-3.155,1.262-4.758,1.931a.631.631,0,0,0-.24.133.492.492,0,0,0-.1.524.952.952,0,0,0,.366.423,3.06,3.06,0,0,0,2.65.36,8.3,8.3,0,0,1,2.284-.543c.17,0,.353.05.284.265a1.539,1.539,0,0,1-.271.4,6.165,6.165,0,0,1-2.486,1.2,10.146,10.146,0,0,1-2.65.379,10.731,10.731,0,0,0-2.158.145,1.641,1.641,0,0,0-.631.271c-.978.764.574,1.35.89,1.893.164.278.454.77.631,1.029a2.1,2.1,0,0,0,.757.48,10.346,10.346,0,0,1,1.016.732,4.941,4.941,0,0,0,2.8.726,15.675,15.675,0,0,0,2.486-.259,10.6,10.6,0,0,0,4.8-1.868,14.414,14.414,0,0,0,1.641-1.521c.442-.461.877-.934,1.35-1.376a27.989,27.989,0,0,1,2.436-1.849,138.52,138.52,0,0,0,15.359-8.986C352.582,163.662,351.887,161.624,351.515,158.747Z" transform="translate(-314.994 -128.458)" fill="#b16668"/><path d="M352.6,128c5.244,1.7,6.67,3.919,7.168,5.6.726,2.417,1.262,5.174,2.133,9.257,1.262,6.108,1.489,8.525,1.489,8.525s-2.89,2.341-10.4,2.246l-2.524-9.932S346.811,135,352.6,128Z" transform="translate(-327.662 -128)" fill="#fafafa"/></g></g><g transform="translate(229.653 118.853)"><g transform="translate(0 0)"><g transform="translate(0 23.216)"><path d="M366.64,282.683l4.02-2.322-4.02-1.161Z" transform="translate(-362.614 -229.905)" fill="#90caf9"/><path d="M366.64,282.683l4.02-2.322-4.02-1.161Z" transform="translate(-362.614 -229.905)" fill="#fff" opacity="0.6"/><path d="M366.64,282.683l4.02-2.322-4.02-1.161Z" transform="translate(-362.614 -229.905)" opacity="0.05"/><path d="M365.463,282l-2.013-1.161V277.36l2.013,1.161Z" transform="translate(-361.437 -229.226)" fill="#90caf9"/><path d="M365.463,282l-2.013-1.161V277.36l2.013,1.161Z" transform="translate(-361.437 -229.226)" fill="#fff" opacity="0.75"/><path d="M398.56,287.812v3.7l29.09-16.792v-3.7Z" transform="translate(-374.392 -226.886)" fill="#90caf9"/><path d="M398.56,287.812v3.7l29.09-16.792v-3.7Z" transform="translate(-374.392 -226.886)" fill="#fff" opacity="0.6"/><path d="M398.56,287.812v3.7l29.09-16.792v-3.7Z" transform="translate(-374.392 -226.886)" opacity="0.1"/><path d="M397.383,300.655l-2.013-1.161v-3.7l2.013,1.161Z" transform="translate(-373.215 -236.026)" fill="#90caf9"/><path d="M397.383,300.655l-2.013-1.161v-3.7l2.013,1.161Z" transform="translate(-373.215 -236.026)" fill="#fff" opacity="0.75"/><path d="M430.836,225.03l-29.1,16.792V272l29.1-16.792Z" transform="translate(-375.565 -209.917)" fill="#90caf9"/><path d="M430.836,225.03l-29.1,16.792V272l29.1-16.792Z" transform="translate(-375.565 -209.917)" fill="#fff" opacity="0.6"/><path d="M386.435,242.8,360.26,227.69v30.182l26.175,15.113Z" transform="translate(-360.26 -210.898)" fill="#90caf9"/><path d="M386.435,242.8,360.26,227.69v30.182l26.175,15.113Z" transform="translate(-360.26 -210.898)" fill="#fff" opacity="0.75"/><path d="M360.26,217.872l29.1-16.792,26.175,15.113-29.1,16.792Z" transform="translate(-360.26 -201.08)" fill="#90caf9"/><path d="M360.26,217.872l29.1-16.792,26.175,15.113-29.1,16.792Z" transform="translate(-360.26 -201.08)" fill="#fff" opacity="0.85"/><path d="M385.605,260.721,363.45,247.93v16.249l22.155,12.791Z" transform="translate(-361.437 -218.367)" fill="#90caf9"/><path d="M385.605,260.721,363.45,247.93v16.249l22.155,12.791Z" transform="translate(-361.437 -218.367)" fill="#fff" opacity="0.7"/><path d="M363.45,268.9l13.977-8.178,8.178,4.72v16.249Z" transform="translate(-361.437 -223.086)" opacity="0.1"/><path d="M363.45,264.179,377.427,256,363.45,247.93Z" transform="translate(-361.437 -218.367)" opacity="0.05"/><path d="M385.605,246,363.45,233.21v6.966l22.155,12.791Z" transform="translate(-361.437 -212.935)" fill="#90caf9"/><path d="M385.605,246,363.45,233.21v6.966l22.155,12.791Z" transform="translate(-361.437 -212.935)" fill="#fff" opacity="0.85"/><path d="M382.969,246.45c0,.322-.959,0-2.139-.631l-3.755-2.221c-1.186-.682-2.145-1.5-2.145-1.817V241.2l8.039,4.644Z" transform="translate(-365.673 -215.883)" fill="#455a64"/></g><g transform="translate(33.299 33.331)" opacity="0.1"><path d="M420.476,226.058a9.983,9.983,0,0,0,5.465-1.489,3.243,3.243,0,0,0,0-5.969,10.784,10.784,0,0,0-10.936,0,3.243,3.243,0,0,0,0,5.969A9.989,9.989,0,0,0,420.476,226.058Z" transform="translate(-413.03 -217.11)"/></g><g transform="translate(30.583)"><path d="M417.08,221.346a1.983,1.983,0,0,1,.038-.385,5.818,5.818,0,0,1,2.36-3.521h4.941a5.818,5.818,0,0,1,2.36,3.521,2,2,0,0,1,.038.391v.063a2.486,2.486,0,0,1-1.42,1.893,7.6,7.6,0,0,1-6.884,0,2.486,2.486,0,0,1-1.42-1.893A.622.622,0,0,1,417.08,221.346Z" transform="translate(-411.808 -183.901)" fill="#37474f"/><path d="M425.209,216.984c1.294.751,1.294,1.956,0,2.707a5.187,5.187,0,0,1-4.682,0,1.441,1.441,0,0,1,0-2.707A5.187,5.187,0,0,1,425.209,216.984Z" transform="translate(-412.731 -183.526)" fill="#455a64"/><path d="M423.73,191.21h1.344v17.309h0a.3.3,0,0,1-.189.3,1.054,1.054,0,0,1-.953,0,.3.3,0,0,1-.189-.3h0Z" transform="translate(-414.262 -174.223)" fill="#263238"/><path d="M408.937,180.13h0l4.676-11.92h10.513l4.676,11.92h0c.663,1.893-.252,3.881-2.758,5.332a15.867,15.867,0,0,1-14.343,0C409.189,184.011,408.268,182,408.937,180.13Z" transform="translate(-408.726 -165.736)" fill="#fddab1"/><path d="M425.452,169.616a8.4,8.4,0,0,1-7.6,0c-2.1-1.212-2.1-3.155,0-4.417a8.4,8.4,0,0,1,7.6,0C427.554,166.435,427.554,168.4,425.452,169.616Z" transform="translate(-411.51 -164.289)" fill="#d87808"/><path d="M422.012,170.286a7.143,7.143,0,0,0,3.5-.827,1.718,1.718,0,0,0,0-3.313,7.793,7.793,0,0,0-6.985,0,1.718,1.718,0,0,0,0,3.313A7.131,7.131,0,0,0,422.012,170.286Z" transform="translate(-411.761 -164.67)" opacity="0.15"/></g></g></g><g transform="translate(247.221 41.147)"><g transform="translate(15.378 25.907)"><path d="M436.472,93.849,416.683,82.422a1.142,1.142,0,0,0-1.167-.107l-2.524,1.47a1.149,1.149,0,0,0-.486,1.066v28.775a3.622,3.622,0,0,0,1.641,2.84l19.789,11.428A1.155,1.155,0,0,0,435.1,128l2.556-1.477a1.148,1.148,0,0,0,.48-1.06V96.689A3.616,3.616,0,0,0,436.472,93.849Z" transform="translate(-412.481 -82.202)" fill="#8dd52c"/><path d="M451.312,104.215v28.768a1.167,1.167,0,0,1-.48,1.066l-2.48,1.426a1.205,1.205,0,0,0,.4-1.01V105.692a3.376,3.376,0,0,0-.48-1.615l2.562-1.477A3.338,3.338,0,0,1,451.312,104.215Z" transform="translate(-425.679 -89.728)" fill="#75b51d"/><path d="M437.947,95.076l-2.562,1.477a3.4,3.4,0,0,0-1.161-1.224L414.435,83.907a1.211,1.211,0,0,0-1.085-.158c.461-.265,2.209-1.262,2.48-1.432A1.148,1.148,0,0,1,417,82.43l19.789,11.422A3.294,3.294,0,0,1,437.947,95.076Z" transform="translate(-412.795 -82.204)" fill="#75b51d"/><g transform="translate(2.861 9.682)"><path d="M431.1,119.413c-.435-.789-.9-1.546-1.363-2.3-.909-1.514-1.748-2.076-2.429-.877a1.262,1.262,0,0,1-2.063,0,18.685,18.685,0,0,1-3.439-7.149,2.626,2.626,0,0,1,1-2.871,1.167,1.167,0,0,0,.738-1.319,24.185,24.185,0,0,0-2.524-6.828,1.262,1.262,0,0,0-.883-.517c-1.666-.095-3.66,1.975-3,4.853,1.969,8.588,3.6,13.106,9.093,20.281,2.341,3.079,5.345,1.388,5.881.183.353-1.338-.391-2.379-.984-3.458Z" transform="translate(-417.003 -97.545)" fill="#fafafa"/><path d="M432.077,101.939c3.49,2.846,5.1,6.31,5.547,11.989.038.524-.082,1.205.385,1.489s.366-.517.372-1.016c-.088-5.818-2.448-11.207-6.2-13.58-.227-.139-.776-.719-.808.133,0,.581.416.738.707.972Z" transform="translate(-422.304 -98.635)" fill="#fafafa"/><path d="M432.264,105.955c-.334-.252-.782-.757-.858-.082s.41.915.732,1.205c2.152,1.988,2.9,3.628,3.262,7.131.05.511-.057,1.2.473,1.376.4.139.252-.587.284-.94,0-3.155-1.742-7.049-3.893-8.689Z" transform="translate(-422.314 -100.493)" fill="#fafafa"/><path d="M431.928,110.664c-.227-.12-.442-.215-.524.107a.9.9,0,0,0,.4.984,4.272,4.272,0,0,1,1.439,3.206.96.96,0,0,0,.41.865c.233.095.347-.3.334-.719,0-1.521-1.1-3.931-2.057-4.417Z" transform="translate(-422.307 -102.344)" fill="#fafafa"/></g></g><g transform="translate(13.634)"><path d="M444.821,66.472l-1.13-2.524a1.054,1.054,0,0,0-.562-.473,6.563,6.563,0,0,1-.864-.353.2.2,0,0,0-.158,0,.145.145,0,0,0-.088.1l-.568,1.514a.7.7,0,0,1-.473.448.681.681,0,0,1-.631-.183l-1.956-1.761a1.445,1.445,0,0,1-.435-1.174l.252-1.956a1.2,1.2,0,0,0-.2-.751,13.22,13.22,0,0,1-.89-1.357.757.757,0,0,0-.549-.328H435.23a1.155,1.155,0,0,1-1.016-.719l-1.066-2.884a.846.846,0,0,1,.032-.631.808.808,0,0,1,.486-.435l1.1-.385a.366.366,0,0,0,.208-.379c-.069-.467-.12-.934-.145-1.382a1.313,1.313,0,0,0-.3-.738l-1.735-1.9a1.388,1.388,0,0,1-.322-1.212l.473-1.975a.631.631,0,0,1,1.048-.372l1.754,1.325a.227.227,0,0,0,.316-.063,3.536,3.536,0,0,1,.416-.448.631.631,0,0,0,.183-.543l-.713-2.581a.776.776,0,0,1,.082-.631.8.8,0,0,1,.549-.353l1.4-.215a1.066,1.066,0,0,1,1.092.593l1.13,2.524a1.06,1.06,0,0,0,.555.473,6.31,6.31,0,0,1,.871.353.2.2,0,0,0,.158,0,.177.177,0,0,0,.088-.1l.568-1.514a.7.7,0,0,1,.473-.448.688.688,0,0,1,.631.183l1.956,1.761a1.445,1.445,0,0,1,.435,1.174l-.252,1.956a1.2,1.2,0,0,0,.2.751,13.22,13.22,0,0,1,.89,1.357.745.745,0,0,0,.549.328h1.338a1.155,1.155,0,0,1,1.016.719l1.066,2.884a.846.846,0,0,1,0,.631.827.827,0,0,1-.486.435l-1.1.385a.372.372,0,0,0-.215.379,11.988,11.988,0,0,1,.145,1.382,1.407,1.407,0,0,0,.3.738l1.66,1.887a1.432,1.432,0,0,1,.322,1.212L450.9,63.14a.631.631,0,0,1-.417.492.669.669,0,0,1-.631-.12L448.1,62.187a.234.234,0,0,0-.316.063,4.02,4.02,0,0,1-.417.448.631.631,0,0,0-.183.543l.751,2.606a.776.776,0,0,1-.082.631.8.8,0,0,1-.549.353l-1.4.215h-.139a1.079,1.079,0,0,1-.947-.574Zm3.647-4.752,1.754,1.325.05.032v-.063l.48-1.969a.82.82,0,0,0-.17-.631l-1.723-1.8a1.975,1.975,0,0,1-.473-1.136,10.9,10.9,0,0,0-.139-1.319.972.972,0,0,1,.631-1.054l1.1-.391a.2.2,0,0,0,.126-.114.215.215,0,0,0,0-.177l-1.06-2.884a.574.574,0,0,0-.448-.316H447.27a1.369,1.369,0,0,1-1.079-.631,14.58,14.58,0,0,0-.839-1.331,1.893,1.893,0,0,1-.315-1.2l.252-1.956a.839.839,0,0,0-.233-.631L443.1,43.711c-.038-.032-.057-.038-.063-.038a.215.215,0,0,0-.038.063l-.568,1.514a.757.757,0,0,1-.435.454.789.789,0,0,1-.663,0,7.4,7.4,0,0,0-.789-.322,1.634,1.634,0,0,1-.934-.808l-1.136-2.594a.448.448,0,0,0-.429-.233l-1.4.215a.2.2,0,0,0-.12.076.17.17,0,0,0,0,.139l.77,2.581a1.218,1.218,0,0,1-.36,1.174,3.991,3.991,0,0,0-.353.379.839.839,0,0,1-1.18.17l-1.748-1.325h-.05a.183.183,0,0,0,0,.063l-.48,1.969h0a.82.82,0,0,0,.17.631l1.723,1.8a1.975,1.975,0,0,1,.473,1.136,10.76,10.76,0,0,0,.139,1.319A.978.978,0,0,1,435,53.132l-1.1.391a.2.2,0,0,0-.126.114.214.214,0,0,0,0,.177l1.06,2.877a.555.555,0,0,0,.448.322h1.331a1.382,1.382,0,0,1,1.079.631,14.575,14.575,0,0,0,.858,1.306,1.893,1.893,0,0,1,.316,1.2l-.252,1.956a.839.839,0,0,0,.233.631L440.8,64.5a.139.139,0,0,0,.057.038l.038-.063.574-1.514a.738.738,0,0,1,.435-.454.77.77,0,0,1,.631.032,8.077,8.077,0,0,0,.8.322,1.653,1.653,0,0,1,.934.808l1.13,2.524a.448.448,0,0,0,.429.233l1.4-.215a.158.158,0,0,0,.133-.215l-.77-2.581a1.218,1.218,0,0,1,.36-1.174,3.408,3.408,0,0,0,.366-.36.883.883,0,0,1,.681-.334.8.8,0,0,1,.48.177Zm-7.755-3.155h0c-2.2-1.969-3.508-5.547-2.928-7.97a2.726,2.726,0,0,1,1.761-2.12,3.874,3.874,0,0,1,3.609,1.212c2.2,1.969,3.508,5.547,2.928,7.97a2.726,2.726,0,0,1-1.761,2.12,2.568,2.568,0,0,1-.732.107,4.461,4.461,0,0,1-2.877-1.344Zm-.984-9.465a2.1,2.1,0,0,0-1.338,1.672c-.549,2.164.713,5.471,2.732,7.32a3.319,3.319,0,0,0,3.016,1.079,2.1,2.1,0,0,0,1.338-1.71c.536-2.221-.694-5.528-2.739-7.364a3.875,3.875,0,0,0-2.455-1.161,1.792,1.792,0,0,0-.549.107Z" transform="translate(-418.095 -41.147)" fill="#edffd5"/><path d="M418.6,60.354l-.814-1.836a.688.688,0,0,0-.366-.309,5.779,5.779,0,0,1-.631-.259h-.1l-.41,1.142a.511.511,0,0,1-.865.208l-1.407-1.262a1.1,1.1,0,0,1-.328-.883l.183-1.407a.889.889,0,0,0-.139-.5,9.233,9.233,0,0,1-.631-.978.517.517,0,0,0-.347-.215l-.959-.013a.89.89,0,0,1-.776-.555l-.763-2.07a.623.623,0,0,1,.379-.846l.8-.278a.2.2,0,0,0,.114-.215,9.208,9.208,0,0,1-.1-1,.884.884,0,0,0-.2-.492l-1.262-1.262a1.085,1.085,0,0,1-.24-.921L410.068,45a.5.5,0,0,1,.833-.3l1.262.947a.107.107,0,0,0,.151-.038,3.025,3.025,0,0,1,.309-.322.379.379,0,0,0,.114-.334l-.549-1.855a.615.615,0,0,1,.5-.789l1-.151a.808.808,0,0,1,.839.454l.814,1.836a.688.688,0,0,0,.366.309,5.716,5.716,0,0,1,.631.252.211.211,0,0,0,.1-.032l.41-1.085a.549.549,0,0,1,.372-.353.555.555,0,0,1,.5.139l1.4,1.262a1.079,1.079,0,0,1,.328.883l-.177,1.407a.84.84,0,0,0,.133.5,8.641,8.641,0,0,1,.631.978.518.518,0,0,0,.347.215h.959a.89.89,0,0,1,.776.555l.8,2.045a.631.631,0,0,1-.4.852l-.8.278a.2.2,0,0,0-.12.208,7.964,7.964,0,0,1,.107,1,.954.954,0,0,0,.2.492l1.262,1.262a1.1,1.1,0,0,1,.246.915l-.341,1.42a.543.543,0,0,1-.334.391.536.536,0,0,1-.5-.095l-1.262-.947c-.057-.05-.126,0-.151.038a2.989,2.989,0,0,1-.309.322.379.379,0,0,0-.114.334l.549,1.855a.6.6,0,0,1-.5.782l-1,.158h-.1a.833.833,0,0,1-.757-.435Zm2.7-3.477,1.212.984.341-1.42a.511.511,0,0,0-.114-.4l-1.23-1.3a1.438,1.438,0,0,1-.353-.846,8.379,8.379,0,0,0-.1-.94.764.764,0,0,1,.48-.814l.8-.278a.114.114,0,0,0,.063-.057.12.12,0,0,0,0-.082l-.751-2.095a.353.353,0,0,0-.271-.2h-.953a1.047,1.047,0,0,1-.814-.48,10.891,10.891,0,0,0-.631-.934,1.382,1.382,0,0,1-.233-.9l.183-1.407a.593.593,0,0,0-.151-.4l-1.388-1.262-.41,1.085a.593.593,0,0,1-.347.36.631.631,0,0,1-.511,0,5.819,5.819,0,0,0-.562-.227,1.224,1.224,0,0,1-.7-.631l-.814-1.83a.265.265,0,0,0-.252-.139l-1,.158-.038-.271v.353l.549,1.855a.927.927,0,0,1-.271.9,3.37,3.37,0,0,0-.252.265.631.631,0,0,1-.915.133l-1.224-.965-.341,1.42h0a.524.524,0,0,0,.114.4l1.231,1.262a1.5,1.5,0,0,1,.353.852,6.014,6.014,0,0,0,.1.94.757.757,0,0,1-.48.814l-.8.278a.114.114,0,0,0-.063.057.12.12,0,0,0,0,.082l.764,2.07a.334.334,0,0,0,.271.189h.953a1.073,1.073,0,0,1,.82.48,10.346,10.346,0,0,0,.631.934,1.382,1.382,0,0,1,.233.9l-.2,1.432a.593.593,0,0,0,.151.4l1.395,1.262.435-1.035a.651.651,0,0,1,.865-.36,5.143,5.143,0,0,0,.555.227,1.224,1.224,0,0,1,.7.631l.814,1.83a.271.271,0,0,0,.252.139l1-.158.05-.082-.549-1.855a.921.921,0,0,1,.271-.9,3.372,3.372,0,0,0,.252-.265.63.63,0,0,1,.883-.145Zm-5.635-2.2h0a6.678,6.678,0,0,1-2.114-5.768,1.994,1.994,0,0,1,1.3-1.559,2.831,2.831,0,0,1,2.638.877,6.678,6.678,0,0,1,2.114,5.768,2,2,0,0,1-1.294,1.559,1.767,1.767,0,0,1-.543.082,3.269,3.269,0,0,1-2.1-.959Zm-.631-6.8a1.458,1.458,0,0,0-.921,1.161,6.062,6.062,0,0,0,1.944,5.231h0a2.341,2.341,0,0,0,2.114.764,1.47,1.47,0,0,0,.921-1.161,6.061,6.061,0,0,0-1.944-5.231,2.739,2.739,0,0,0-1.729-.82,1.325,1.325,0,0,0-.41.082Z" transform="translate(-409.706 -41.516)" fill="#edffd5"/></g></g><g transform="translate(60.312 45.767)"><g transform="translate(99.266)"><path d="M252.264,48.583,275.334,61.9a1.035,1.035,0,0,1,.467.808V78.86a1.029,1.029,0,0,1-.467.8l-1.647.953a1.022,1.022,0,0,1-.928,0L249.671,67.293a1.047,1.047,0,0,1-.461-.808V50.306a1,1,0,0,1,.467-.8l1.66-.934A1.022,1.022,0,0,1,252.264,48.583Z" transform="translate(-249.21 -48.469)" fill="#90caf9"/><path d="M273.208,81.251V65.059a1.035,1.035,0,0,0-.467-.808l-23.07-13.289c-.252-.151-.461-.032-.461.265V67.368a1.047,1.047,0,0,0,.461.808L272.741,81.5C273,81.655,273.208,81.535,273.208,81.251Z" transform="translate(-249.21 -49.364)" fill="#90caf9"/><path d="M273.208,81.251V65.059a1.035,1.035,0,0,0-.467-.808l-23.07-13.289c-.252-.151-.461-.032-.461.265V67.368a1.047,1.047,0,0,0,.461.808L272.741,81.5C273,81.655,273.208,81.535,273.208,81.251Z" transform="translate(-249.21 -49.364)" fill="#90caf9"/><path d="M286.5,88.644a1.054,1.054,0,0,0,.934,0l1.66-.953a1.029,1.029,0,0,0,.467-.8V70.723a.89.89,0,0,0-.151-.473l-2.594,1.489a.972.972,0,0,1,.139.461V88.392C286.967,88.651,286.771,88.8,286.5,88.644Z" transform="translate(-262.969 -56.505)" opacity="0.2"/><path d="M249.22,50.226c.038-.233.227-.316.454-.183l23.07,13.315a.965.965,0,0,1,.328.347l2.587-1.47a.915.915,0,0,0-.322-.334l-23.07-13.315a1.022,1.022,0,0,0-.928,0l-1.628.921A1.029,1.029,0,0,0,249.22,50.226Z" transform="translate(-249.214 -48.47)" fill="#fff" opacity="0.4"/><path d="M291.106,85.573l2.524-1.439a.429.429,0,0,0,.088-.663l-3.944-4.922L287.25,80l3.938,4.922a.435.435,0,0,1-.082.65Z" transform="translate(-263.246 -59.568)" fill="#90caf9"/><path d="M291.106,85.573l2.524-1.439a.429.429,0,0,0,.088-.663l-3.944-4.922L287.25,80l3.938,4.922a.435.435,0,0,1-.082.65Z" transform="translate(-263.246 -59.568)" fill="#fff" opacity="0.4"/><path d="M287.24,80.85l3.944,4.922a.417.417,0,0,1-.265.713l-3.679.4Z" transform="translate(-263.242 -60.417)" fill="#90caf9"/><path d="M269.775,71.59c0,.631-.454.846-1.01.517L255.95,64.725a2.228,2.228,0,0,1-1.01-1.716c0-.631.454-.846,1.01-.517l12.816,7.4a2.228,2.228,0,0,1,1.01,1.7Z" transform="translate(-251.324 -53.586)" fill="#fafafa"/><path d="M272.646,81.123c0,.631-.454.846-1.01.517L255.95,72.6a2.228,2.228,0,0,1-1.01-1.716c0-.631.454-.846,1.01-.517l15.675,9.043a2.228,2.228,0,0,1,1.022,1.71Z" transform="translate(-251.324 -56.494)" fill="#fafafa"/></g><g transform="translate(0 9.921)"><path d="M123.122,119.019l-2.524-4.657,1.994-5.755V105.08l-6.1,3.527v3.521l2.619,4.543a.372.372,0,0,0,.183.158h0Z" transform="translate(-100.973 -79.278)" fill="#90caf9"/><path d="M123.122,119.019l-2.524-4.657,1.994-5.755V105.08l-6.1,3.527v3.521l2.619,4.543a.372.372,0,0,0,.183.158h0Z" transform="translate(-100.973 -79.278)" opacity="0.2"/><path d="M129.824,68.656a4.057,4.057,0,0,0-1.83-3.155l-1.489-.858a4.026,4.026,0,0,0-3.66,0L93.73,81.434a4.039,4.039,0,0,0-1.83,3.155v17.845a4.039,4.039,0,0,0,1.83,3.155l1.489.864a4.064,4.064,0,0,0,3.66,0l12.393-7.213,2.619,4.531a.391.391,0,0,0,.707-.063l2.764-7.989,10.62-6.07a4.057,4.057,0,0,0,1.83-3.155Z" transform="translate(-91.9 -64.195)" fill="#90caf9"/><path d="M91.9,113.32a4.039,4.039,0,0,0,1.83,3.155l1.489.865a4.108,4.108,0,0,0,3.344.145c-.858.328-1.514-.158-1.514-1.205V98.447a3.679,3.679,0,0,1,.536-1.8L92.436,93.67a3.723,3.723,0,0,0-.536,1.8Z" transform="translate(-91.9 -75.068)" opacity="0.2"/><path d="M130.106,68.134c-.215-.776-.921-1.022-1.767-.536L99.255,84.4a3.666,3.666,0,0,0-1.262,1.369L92.85,82.8a3.635,3.635,0,0,1,1.262-1.363l29.1-16.81a4.064,4.064,0,0,1,3.66,0l1.5.865a4.051,4.051,0,0,1,1.735,2.644Z" transform="translate(-92.251 -64.19)" fill="#fff" opacity="0.4"/><path d="M110.412,103.924a5.383,5.383,0,0,0-2.442,4.228c0,1.559,1.092,2.19,2.442,1.407a5.383,5.383,0,0,0,2.442-4.228C112.854,103.772,111.775,103.141,110.412,103.924Z" transform="translate(-97.829 -78.727)" fill="#fafafa"/><path d="M124.672,95.674A5.4,5.4,0,0,0,122.23,99.9c0,1.552,1.1,2.183,2.442,1.407a5.383,5.383,0,0,0,2.461-4.228C127.133,95.522,126.022,94.891,124.672,95.674Z" transform="translate(-103.091 -75.683)" fill="#fafafa"/><path d="M138.942,87.416a5.4,5.4,0,0,0-2.442,4.228c0,1.559,1.092,2.19,2.442,1.413a5.4,5.4,0,0,0,2.442-4.228C141.384,87.271,140.292,86.64,138.942,87.416Z" transform="translate(-108.356 -72.637)" fill="#fafafa"/></g></g></g></svg>