<svg xmlns="http://www.w3.org/2000/svg" width="302.205" height="172.323" viewBox="0 0 302.205 172.323"><g transform="translate(-2125.454 10521.54)"><path d="M80,0H302.2a0,0,0,0,1,0,0V78.5a80,80,0,0,1-80,80H0a0,0,0,0,1,0,0V80A80,80,0,0,1,80,0Z" transform="translate(2125.454 -10507.717)" fill="#2df0da"/><g transform="translate(1880.977 -10603.188)"><path d="M348.74,86.12c3.13-1.22,6.69,1.41,9.93.53,2-.54,3.37-2.24,5.07-3.37a10.31,10.31,0,0,1,9.12-1c2.81,1.19,4.67,2.53,5.26,5.53,2.37-1.6,6.72,1.21,8.35,4.12s1.49,6,.93,9.3a43.91,43.91,0,0,1-6.12,15.93c-.27.43-.72.92-1.19.73s-.46-.51-.54-.85a36.5,36.5,0,0,1-.49-8.93,22.23,22.23,0,0,0-1.2-8.82c-1.15-2.76-3.55-5.18-6.52-5.55a9.45,9.45,0,0,0-6.22,1.82c-1.84,1.21-3.43,2.78-5.17,4.14a12.09,12.09,0,0,1-5.91,2.79,5.78,5.78,0,0,1-5.71-2.53c-1.08-1.93-.23-4.83,1.89-5.45a4.34,4.34,0,0,1-1.48-8.38Z" fill="#263238"/><path d="M382.84,102.47l-.78,33.5c-.13,5.7-5.73,10.52-11.42,10.11h0c-5.3-.39-8.64-5.27-8.51-10.58.06-2.53.1-4.63.09-4.89,0,0-8.51-1-8.93-9.45-.2-4.09.07-12.54.4-20.19A15.77,15.77,0,0,1,368.86,85.9h.81C378.5,86.06,383.27,93.65,382.84,102.47Z" fill="#ffbe9d"/><path d="M362.21,130.49a19.62,19.62,0,0,0,10.91-3.55s-2.38,6.19-10.85,5.74Z" fill="#eb996e"/><path d="M357,107.32a1.2,1.2,0,0,0,1.21,1.17,1.16,1.16,0,0,0,1.2-1.13,1.21,1.21,0,0,0-1.21-1.18,1.16,1.16,0,0,0-1.2,1.14Z" fill="#263238"/><path d="M355.66,105.06c.15.15,1-.56,2.34-.61s2.28.57,2.42.41-.1-.35-.53-.64a3.32,3.32,0,0,0-1.94-.52,3.15,3.15,0,0,0-1.86.68C355.71,104.7,355.58,105,355.66,105.06Z" fill="#263238"/><path d="M369.43,107.32a1.22,1.22,0,0,0,1.22,1.17,1.15,1.15,0,0,0,1.2-1.13,1.21,1.21,0,0,0-1.21-1.18,1.16,1.16,0,0,0-1.21,1.14Z" fill="#263238"/><path d="M368.45,104.82c.15.15,1-.56,2.34-.6s2.28.57,2.42.4-.1-.35-.53-.64a3.32,3.32,0,0,0-1.94-.51,3.18,3.18,0,0,0-1.86.67C368.5,104.46,368.37,104.76,368.45,104.82Z" fill="#263238"/><path d="M364.09,114.64a9.09,9.09,0,0,0-2.13-.3c-.33,0-.65-.08-.71-.3a1.7,1.7,0,0,1,.18-1c.29-.82.58-1.67.89-2.57a43.45,43.45,0,0,0,2-6.69,43.381,43.381,0,0,0-2.49,6.52c-.3.9-.58,1.76-.85,2.58a1.92,1.92,0,0,0-.12,1.31.85.85,0,0,0,.56.46,2.459,2.459,0,0,0,.57.06,8.11,8.11,0,0,0,2.1-.07Z" fill="#263238"/><path d="M367.92,99.74c.14.35,1.43.13,3,.26s2.78.5,3,.17c.08-.15-.14-.48-.65-.8a4.94,4.94,0,0,0-2.23-.69,5,5,0,0,0-2.3.36C368.13,99.29,367.86,99.57,367.92,99.74Z" fill="#263238"/><path d="M356,101.28c.24.28,1.12-.06,2.2-.11s2,.12,2.19-.19-.07-.45-.48-.71a3,3,0,0,0-1.8-.42,3.05,3.05,0,0,0-1.74.66C356,100.83,355.89,101.14,356,101.28Z" fill="#263238"/><path d="M382.38,108.76c.14-.07,5.75-1.94,5.78,3.85s-5.79,4.63-5.8,4.46S382.38,108.76,382.38,108.76Z" fill="#ffbe9d"/><path d="M384.12,114.87a2,2,0,0,0,.27.15,1.07,1.07,0,0,0,.76,0,2.49,2.49,0,0,0,1.14-2.25,3.341,3.341,0,0,0-.29-1.44,1.17,1.17,0,0,0-.77-.77.52.52,0,0,0-.59.28c-.08.16,0,.28-.07.29s-.12-.1-.08-.34a.61.61,0,0,1,.23-.36.69.69,0,0,1,.55-.15,1.39,1.39,0,0,1,1.06.89,3.27,3.27,0,0,1,.36,1.61,2.61,2.61,0,0,1-1.46,2.51,1.06,1.06,0,0,1-.92-.15C384.13,115,384.1,114.88,384.12,114.87Z" fill="#eb996e"/><path d="M351.83,99.28a12.19,12.19,0,0,0,10.76-2.85c2-1.82,3.49-4.39,6-5.28a6.91,6.91,0,0,1,5.28.52A13.37,13.37,0,0,1,378,95.19c-1.47,4.36-.19,9.12,1.09,13.54a2.27,2.27,0,0,0,.72,1.31c.7.5,1.71,0,2.29-.6a7.16,7.16,0,0,0,1.42-3.83,23.89,23.89,0,0,0-.4-9.38,16.26,16.26,0,0,0-4.76-8,15.37,15.37,0,0,0-10.92-3.66,18.78,18.78,0,0,0-10.78,4.31,11.06,11.06,0,0,0-3.4,4.23" fill="#263238"/><path d="M346.38,88.25a1.461,1.461,0,0,0,.07.5,2.39,2.39,0,0,0,.86,1.16,3.72,3.72,0,0,0,2.19.64,6.65,6.65,0,0,0,1.43-.14,3.14,3.14,0,0,0,1.45-.74A2.06,2.06,0,0,0,353,88a1.81,1.81,0,0,0-1.29-1.43,2.26,2.26,0,0,0-1-.1,1.94,1.94,0,0,0-1,.49,2.61,2.61,0,0,0-.78,2,3,3,0,0,0,1,2.09,4.63,4.63,0,0,0,2.14,1.11A7.64,7.64,0,0,0,357,91.5a21.562,21.562,0,0,0,4.18-2.74A28.34,28.34,0,0,1,365,86.14,8.46,8.46,0,0,1,368.91,85a8.25,8.25,0,0,1,3.49.75,10.31,10.31,0,0,1,4,3.35,14,14,0,0,1,.78,1.2,4.843,4.843,0,0,0,.26.43.67.67,0,0,0-.05-.12,3,3,0,0,0-.16-.34,10.88,10.88,0,0,0-4.71-4.7,8.32,8.32,0,0,0-3.59-.81,8.73,8.73,0,0,0-4.06,1.12A27.811,27.811,0,0,0,361,88.54a21.62,21.62,0,0,1-4.13,2.7,7.35,7.35,0,0,1-4.74.71,4.4,4.4,0,0,1-2-1,2.78,2.78,0,0,1-.92-1.9,2.39,2.39,0,0,1,.69-1.86,1.77,1.77,0,0,1,1.78-.35A1.6,1.6,0,0,1,352.82,88a1.83,1.83,0,0,1-.59,1.49,2.85,2.85,0,0,1-1.35.71,6.16,6.16,0,0,1-1.38.16,3.61,3.61,0,0,1-2.13-.57,2.38,2.38,0,0,1-.86-1.09q-.076-.222-.13-.45Z" fill="#455a64"/><path d="M387.68,96.86a9.462,9.462,0,0,1-1.75.52,4.88,4.88,0,0,1-1.94-.12,8.33,8.33,0,0,1-2.21-1,6.78,6.78,0,0,1-2.71-3.35,15.629,15.629,0,0,1-.45-1.77,1.371,1.371,0,0,0,0,.5,5.5,5.5,0,0,0,.27,1.34,6.64,6.64,0,0,0,2.75,3.53,8.161,8.161,0,0,0,2.29,1,4.81,4.81,0,0,0,2.05.07,4.64,4.64,0,0,0,1.29-.44A1.56,1.56,0,0,0,387.68,96.86Z" fill="#455a64"/><path d="M387.59,101.06c0-.06-.68.12-1.78.1A8,8,0,0,1,378.9,97c-.52-1-.68-1.64-.73-1.62a2,2,0,0,0,.08.47,6.3,6.3,0,0,0,.47,1.24,7.75,7.75,0,0,0,2.91,3.21,7.83,7.83,0,0,0,4.18,1.11,5.829,5.829,0,0,0,1.32-.16,2,2,0,0,0,.46-.19Z" fill="#455a64"/><path d="M373,110.19a.16.16,0,0,0,.17-.13.14.14,0,1,0-.28,0A.15.15,0,0,0,373,110.19Z" fill="#eb996e"/><path d="M370.47,109.72a.18.18,0,0,0,.17-.16.146.146,0,1,0-.28-.04.16.16,0,0,0,.11.2Z" fill="#eb996e"/><path d="M368.79,109.74c.08,0,.16-.09.17-.22s0-.24-.12-.25-.16.09-.17.22S368.72,109.73,368.79,109.74Z" fill="#eb996e"/><path d="M371.81,111.79c.08,0,.14,0,.14-.09s-.07-.09-.15-.09-.14,0-.14.1a.13.13,0,0,0,.15.08Z" fill="#eb996e"/><path d="M369.51,111.35a.16.16,0,0,0,.15-.16.142.142,0,1,0-.15.16Z" fill="#eb996e"/><path d="M357.6,110.38a.16.16,0,0,0,.17-.14.15.15,0,0,0-.11-.18.16.16,0,0,0-.17.14A.15.15,0,0,0,357.6,110.38Z" fill="#eb996e"/><path d="M355.9,110.29a.18.18,0,0,0,.16-.18.15.15,0,0,0-.13-.18.174.174,0,0,0-.16.17.18.18,0,0,0,.13.19Z" fill="#eb996e"/><path d="M359.1,110.36a.12.12,0,1,0-.12-.14.13.13,0,0,0,.12.14Z" fill="#eb996e"/><path d="M357.91,112.1a.16.16,0,1,0-.07-.2.14.14,0,0,0,.07.2Z" fill="#eb996e"/><path d="M356.45,111.87a.119.119,0,1,0-.17-.07.14.14,0,0,0,.17.07Z" fill="#eb996e"/><path d="M363.51,118.62c1.62,5.29,6.36.56,3.46-1.54a24,24,0,0,0-3.65,1.35" fill="#eb996e"/><path d="M364.69,121.07c1.73.4,4.05-1.61,2.57-3.67-.72-.21-2.16.82-2.89.95-2.06.78-2.14.6-.15-.35.91-.3,2.06-1.24,3.12-1.19C369.7,118.52,367,122.51,364.69,121.07Z" fill="#263238"/><path d="M361.98,134.35l7.18,7.24,12.78-8.03,3.74,6.68-6.35,75.1-26.08.21,1.73-68.76Z" fill="#f5f5f5"/><path d="M320.63,215.55l-1.5-16.13,14.92-51.74,4.85,18.65S342,199,342,199.64s-3.78,6.89-3.78,6.89l1.17,9Z" fill="#ff8900"/><path d="M362.46,134l-8,6.38-20.43,7.33L338,168.54l3.6,32.16.58,14.85H358.6l1.21-27s-3-38.65-1.48-45.76Z" fill="#ff8900"/><path d="M381.94,133.55l7.59,5.24,9.78,4.22s10.53,2.32,10.08,3-3.39,37.2-3.39,37.2l1,32.34H372.43V201l10.72-56.62Z" fill="#ff8900"/><path d="M409.12,146c1.46.4,9.84,15.9,9.84,15.9l8.07,6.7,4.65-8.61,11.07.13L444,174.6s-6.56,14.22-9.16,15.73-10.8-1.51-14.9-3-15.37-14.89-15.37-14.89Z" fill="#ff8900"/><path d="M338.15,206.66a20.5,20.5,0,0,1-1.62-2,21.65,21.65,0,0,0-4.36-4.29,11.76,11.76,0,0,0-5.64-2.12c-1.56-.13-2.53.15-2.54,0s.22-.13.66-.24a7.231,7.231,0,0,1,1.9-.18,11.05,11.05,0,0,1,5.91,2.07,18.14,18.14,0,0,1,4.37,4.49A9.24,9.24,0,0,1,338.15,206.66Z" fill="#263238"/><path d="M339.27,201.63a24.809,24.809,0,0,0-4.68-4.1,24.09,24.09,0,0,0-5.77-2.33,4.63,4.63,0,0,1,1.86.18,13.68,13.68,0,0,1,4.19,1.7,13.819,13.819,0,0,1,3.4,3,4.78,4.78,0,0,1,1,1.55Z" fill="#263238"/><path d="M358.67,203.32a4.071,4.071,0,0,1-.39-.61,20.109,20.109,0,0,1-1-1.82c-.88-1.59-2.12-3.91-3.46-6.86a82.3,82.3,0,0,1-4-10.68,63.6,63.6,0,0,1-2.48-13.75,132.07,132.07,0,0,1-.05-15.13c.05-1.14.09-2.26.14-3.33a11.1,11.1,0,0,1,.45-3.12,4.16,4.16,0,0,1,.73-1.34,3.44,3.44,0,0,1,1.17-.89,2.45,2.45,0,0,1,2.62.24l-.2.27-1.66-1.06-.13-.09.08-.12a13.94,13.94,0,0,1,1.92-2.23c.61-.6,1.12-1.1,1.53-1.53s.69-.76.88-1a4,4,0,0,1,.29-.37,1.559,1.559,0,0,1-.22.41,9.414,9.414,0,0,1-.83,1.07c-.39.45-.89,1-1.48,1.59a14.352,14.352,0,0,0-1.83,2.22l-.05-.21,1.68,1-.2.28a2.07,2.07,0,0,0-2.24-.15,3.12,3.12,0,0,0-1,.79,4.169,4.169,0,0,0-.64,1.22,10.691,10.691,0,0,0-.39,3q-.06,1.6-.12,3.33a141.464,141.464,0,0,0,.1,15.07,72,72,0,0,0,6.33,24.32c1.3,3,2.49,5.3,3.31,6.92.39.77.71,1.38.95,1.86a3.39,3.39,0,0,1,.19.7Z" fill="#263238"/><path d="M373.33,203.85a3.593,3.593,0,0,1,.26-.69c.2-.5.48-1.15.82-2,.71-1.7,1.73-4.16,2.95-7.23,2.41-6.13,5.46-14.71,8.47-24.3,1.81-5.74,3.44-11.17,4.88-15.95.36-1.19.7-2.34,1-3.45a11.33,11.33,0,0,0,.6-3.19c.09-2-1.6-3.78-3.15-3.5v-.31l2.46-.2-.12.1a3.52,3.52,0,0,0-.94-3.14,4.65,4.65,0,0,0-.95-.72,2.34,2.34,0,0,1,1.05.62,3.66,3.66,0,0,1,1.09,3.3v.09h-.1l-2.46.25v-.31c1.82-.34,3.67,1.61,3.6,3.81a11.419,11.419,0,0,1-.58,3.31c-.32,1.11-.66,2.27-1,3.46-1.4,4.79-3,10.24-4.83,16-3,9.6-6.12,18.18-8.62,24.28-1.26,3-2.33,5.5-3.11,7.17l-.91,1.92a3,3,0,0,1-.41.68Z" fill="#263238"/><path d="M379,208.23a12,12,0,0,1-4.9.45,11.92,11.92,0,0,1,4.9-.45Z" fill="#263238"/><path d="M356.26,207.1c0,.09-.49.09-.87.66a1.27,1.27,0,0,0-.21,1,1.19,1.19,0,0,0,2.07.25,1.31,1.31,0,0,0,.05-1.06c-.24-.64-.73-.77-.69-.84s.61-.07,1,.69a1.63,1.63,0,0,1,0,1.44,1.55,1.55,0,0,1-1.6.77,1.51,1.51,0,0,1-1.35-1.13,1.57,1.57,0,0,1,.38-1.39C355.68,206.89,356.3,207.05,356.26,207.1Z" fill="#263238"/><path d="M400.32,174.3a50.869,50.869,0,0,1-6.94,2.06,50.407,50.407,0,0,1-7.07,1.56,101.451,101.451,0,0,1,14-3.62Z" fill="#263238"/><path d="M405.36,173.38a4.1,4.1,0,0,1-.39-1,17.668,17.668,0,0,1-.56-2.95,58.65,58.65,0,0,1-.06-9.86,28.219,28.219,0,0,1,.7-5.41,18,18,0,0,1,1.57-4.17,13.228,13.228,0,0,1,1.7-2.48,3.261,3.261,0,0,1,.8-.76,23.86,23.86,0,0,0-2.17,3.41,18.431,18.431,0,0,0-1.43,4.12,30.243,30.243,0,0,0-.65,5.32,72.462,72.462,0,0,0-.09,9.8C405,171.87,405.44,173.35,405.36,173.38Z" fill="#263238"/><path d="M418.09,162.24a11,11,0,0,0-7.58,5.63,3,3,0,0,1,.49-1.4,8.51,8.51,0,0,1,5.61-4.17A2.88,2.88,0,0,1,418.09,162.24Z" fill="#263238"/><path d="M420.21,182.53a14.138,14.138,0,0,1,.9-2.72c.63-1.65,1.59-3.9,2.78-6.32s2.39-4.56,3.3-6.07a14.049,14.049,0,0,1,1.61-2.37,16.775,16.775,0,0,1-1.29,2.56c-.83,1.55-2,3.7-3.15,6.11s-2.19,4.63-2.91,6.24A17.436,17.436,0,0,1,420.21,182.53Z" fill="#263238"/><path d="M416.89,180.73a8.77,8.77,0,0,1,.52-2.34,17.888,17.888,0,0,1,2.55-5.24,13,13,0,0,1,4.44-3.78,7.16,7.16,0,0,1,2.25-.86c0,.08-.82.44-2.07,1.19a14.4,14.4,0,0,0-4.2,3.76,21.14,21.14,0,0,0-2.62,5,13.57,13.57,0,0,1-.87,2.27Z" fill="#263238"/><path d="M436,184.08a1.286,1.286,0,0,1-.62.26,3,3,0,0,1-1.81-.29,5.18,5.18,0,0,1-2-1.86,14.8,14.8,0,0,1-2.43-8.76,6.7,6.7,0,0,1,.41-2.42c.09,0-.07.94,0,2.42a17.24,17.24,0,0,0,1.06,5.66c.81,2.08,1.87,3.95,3.15,4.63a3.44,3.44,0,0,0,2.24.36Z" fill="#263238"/><path d="M372.59,146.79s-.41-3.8-2.19-4-5.22.12-5.34,4l1.78,2.85s-3.32,8.06-4,10.67S360,213.47,360,213.47l5.59,11.46,6-11.64,1-54.55-2.31-8.63Z" fill="#ff8900"/><path d="M382.85,144.25a3.379,3.379,0,0,1-.57.69c-.39.42-1,1-1.72,1.71a49.721,49.721,0,0,1-6.33,5l-.38.26v-.69a24.619,24.619,0,0,0-.51-4.42,7.19,7.19,0,0,0-1.51-3.19,9.2,9.2,0,0,0-2.64-2,2.43,2.43,0,0,1,.88.27,6.08,6.08,0,0,1,2,1.47,7.44,7.44,0,0,1,1.7,3.33,23.266,23.266,0,0,1,.56,4.5v.23l-.4-.2a70.242,70.242,0,0,0,6.37-4.81A30.013,30.013,0,0,1,382.85,144.25Z" fill="#263238"/><path d="M369,141.59a17.087,17.087,0,0,0-2.26,1.46,11,11,0,0,0-3.56,5.25,10.2,10.2,0,0,0-.25,1.14l-.1.54-.36-.42c-1.47-1.75-2.76-3.32-3.66-4.47a10.659,10.659,0,0,1-1.38-1.9,11.7,11.7,0,0,1,1.64,1.68c1,1.08,2.31,2.61,3.8,4.36l-.46.13a10.821,10.821,0,0,1,.27-1.2,10.45,10.45,0,0,1,3.84-5.4,8.46,8.46,0,0,1,1.77-1C368.78,141.61,369,141.55,369,141.59Z" fill="#263238"/><path d="M370,149.15c0,.14-.76.27-1.7.29s-1.7-.08-1.7-.23.75-.27,1.69-.29S370,149,370,149.15Z" fill="#263238"/><path d="M371.64,144.09a11,11,0,0,1-5.19,4.48,24.428,24.428,0,0,1,2.61-2.22,26.873,26.873,0,0,1,2.58-2.26Z" fill="#263238"/><path d="M367.07,156.62a14.27,14.27,0,0,1,.26-3.9,14.219,14.219,0,0,1,.79-3.82,15,15,0,0,1-.27,3.89,15.088,15.088,0,0,1-.78,3.83Z" fill="#263238"/><path d="M368.44,163.45a47.47,47.47,0,0,1,0-7.13,46.8,46.8,0,0,1,.49-7.12,50.893,50.893,0,0,1,0,7.13A50.111,50.111,0,0,1,368.44,163.45Z" fill="#263238"/><g opacity="0.4"><path d="M372.59,146.79s-.41-3.8-2.19-4-5.22.12-5.34,4l1.78,2.85s-3.32,8.06-4,10.67S360,213.47,360,213.47l5.59,11.46,6-11.64,1-54.55-2.31-8.63Z"/></g><path d="M342.15,215.55a3,3,0,0,1-.07-.64c0-.48-.05-1.09-.08-1.85-.05-1.59-.15-3.91-.3-6.77-.3-5.71-.91-13.59-1.91-22.26s-2.18-16.5-3.08-22.15c-.45-2.78-.82-5-1.09-6.69-.11-.75-.21-1.35-.28-1.82a2.621,2.621,0,0,1-.06-.65,4.628,4.628,0,0,1,.16.63c.1.46.23,1.06.38,1.8.33,1.57.76,3.85,1.25,6.67,1,5.64,2.23,13.46,3.24,22.15s1.55,16.58,1.75,22.31c.11,2.86.15,5.18.14,6.78v1.85A4,4,0,0,1,342.15,215.55Z" fill="#263238"/><g opacity="0.4"><path d="M347.57,151c-.92,9-1.83,18.09-1.11,27.12s3.21,18.12,8.52,25.47a4.32,4.32,0,0,0,1.29,1.3,1.57,1.57,0,0,0,1.74-.06c.81-.69.34-2-.18-2.93A88,88,0,0,1,347.57,151"/></g><g opacity="0.4"><path d="M373.66,203.23c-.12,1,1.12,1.75,2.11,1.52a4.5,4.5,0,0,0,2.34-1.87c5-6.47,7.84-14.37,9.39-22.39s1.86-14.6,2.16-22.77c-4,16.58-11.47,37.48-16.48,46.47"/></g><g opacity="0.4"><path d="M404.41,162.85s-.36,10.73,2.35,12.49l-.81,8s.13,7.13.27,9.62A32.82,32.82,0,0,1,403,178.48a98.191,98.191,0,0,1,1.23-14.9"/></g><g opacity="0.4"><path d="M431.14,161a9.22,9.22,0,0,0,4.22,5.8,5,5,0,0,0,2.2.71,4.67,4.67,0,0,0,4-2.53,12.46,12.46,0,0,0,1.15-4.84L431.68,160Z"/></g><g opacity="0.4"><path d="M338.1,206.72a14.15,14.15,0,0,0-14.21-7.83,3.15,3.15,0,0,1-1.26,0,.94.94,0,0,1-.74-.91,1.26,1.26,0,0,1,.5-.75c2.8-2.41,7.25-2.23,10.26-.1a13.35,13.35,0,0,1,5.45,9.58"/></g><g opacity="0.4"><path d="M426.51,168.57a17.64,17.64,0,0,0-11.61,10.5c-.22.56-.38,1.27,0,1.69a1.17,1.17,0,0,0,1.57-.15,3.9,3.9,0,0,0,.77-1.55,17.48,17.48,0,0,1,9.3-10.27"/></g><path d="M431.92,163.09l.19-6.52a1.38,1.38,0,0,1,.12-.56l1.47-3.53s-6-6.82-6.3-7.66-.13-1.73,1.36-1.12,6.3,5.07,6.3,5.07l1.86-3.29s-4.34-4.62-4.77-5.11-.18-3.1,1.43-2.23a52.007,52.007,0,0,1,5.69,4.57l1.11-1.11-3.21-4.94s-1.12-1.73.24-2.23,2,.5,3,1.61a36.776,36.776,0,0,1,2.52,3.52l1-.07,1.48-.36-.12-1.72s-2-2.86-2.31-3.5-1.12-1.75,0-2.25,1.83-.59,2.43.42a6.231,6.231,0,0,0,1.21,1.31,8.38,8.38,0,0,1,2-1.35c.88-.28,1.92.74.9,3.55-.17.47-1.18,5.66-1.18,5.66L448,144l-1.18,2.43-5.32,9.3.2,6.35a6.31,6.31,0,0,1-1,4,3.69,3.69,0,0,1-4.12,1.21,8.21,8.21,0,0,1-4.66-4.2Z" fill="#ffbe9d"/><path d="M441.44,148.08a9.766,9.766,0,0,1-.36-1.41l-.42-1.53c-.08-.28-.16-.59-.23-.91a1.162,1.162,0,0,1,0-.16.281.281,0,0,1,0-.12h0a.27.27,0,0,1,.23-.13.26.26,0,0,1,.18.08h0v.14a.41.41,0,0,1,0,.17h0a.25.25,0,0,1-.17.19.24.24,0,0,1-.21,0h0l-.06-.06h0l-.06-.11a2.33,2.33,0,0,0-.26-.38,21.833,21.833,0,0,0-2.52-2.38,6.451,6.451,0,0,1-1.05-1,4.54,4.54,0,0,1,1.27.74,14.26,14.26,0,0,1,2.71,2.35,3.7,3.7,0,0,1,.31.46l.06.12h0a.679.679,0,0,1-.14.09c-.04.01,0,.07-.09.06-.32.05-.2,0-.23,0h0s.11,0,.13-.06a.088.088,0,0,1,.1-.06.894.894,0,0,0,.18,0h.06v.06l.19.91c.14.58.25,1.11.32,1.56A2.72,2.72,0,0,1,441.44,148.08Z" fill="#eb996e"/><path d="M444.36,144.81a11.26,11.26,0,0,0-.42-3.13c-.62-1.63-1.64-2.71-1.51-2.83a4.86,4.86,0,0,1,2,2.66,5,5,0,0,1,.28,2.37C444.61,144.49,444.42,144.83,444.36,144.81Z" fill="#eb996e"/><path d="M435.71,154.78a12,12,0,0,1-2.48-2.46,11.581,11.581,0,0,1-2.09-2.81,11.939,11.939,0,0,1,2.48,2.47,12.1,12.1,0,0,1,2.09,2.8Z" fill="#eb996e"/><path d="M437.89,151.67a10.059,10.059,0,0,1-2.48-2.06,10.78,10.78,0,0,1-2.13-2.43,9.85,9.85,0,0,1,2.49,2.06A10.14,10.14,0,0,1,437.89,151.67Z" fill="#eb996e"/><path d="M434.06,160.8a2.53,2.53,0,0,1-1.15-.82,4.67,4.67,0,0,1-1.1-3.21,4.15,4.15,0,0,1,.5-1.84c.27-.51.55-.92.76-1.28.42-.71.46-1.23.54-1.23s.16.58-.21,1.39a7.43,7.43,0,0,0-1.07,3,5,5,0,0,0,.87,3C433.66,160.43,434.11,160.72,434.06,160.8Z" fill="#eb996e"/><path d="M441.49,155.7a29,29,0,0,1-2.15,4,6.139,6.139,0,0,1-1.11,1.43,3.85,3.85,0,0,1-1.28.8c-.82.3-1.37.15-1.36.09a10.277,10.277,0,0,0,1.22-.43,5.21,5.21,0,0,0,2.09-2.17C440.15,157.27,441.35,155.59,441.49,155.7Z" fill="#eb996e"/><path d="M445.21,140.35a9.61,9.61,0,0,1-.24-2.7v.14c-.25-.35-.51-.75-.76-1.17-.56-1-1-1.91-1.33-2.55s-.55-1.06-.49-1.1.39.29.81.91.91,1.52,1.46,2.48c.25.41.49.8.72,1.15v.14A9,9,0,0,1,445.21,140.35Z" fill="#eb996e"/><path d="M447.85,144.27c-.05,0,.08-.4.12-1.09a24.634,24.634,0,0,0,0-2.83h0c.16-.84.32-1.73.49-2.67v-.2h0a3.66,3.66,0,0,0-1-2.09c-.42-.58-.81-1.14-1.19-1.68a6.65,6.65,0,0,1-1-1.62,7.121,7.121,0,0,1,1.28,1.41l1.28,1.61a10.992,10.992,0,0,1,.73,1,2.52,2.52,0,0,1,.39,1.39h0v.2c-.19.94-.36,1.83-.53,2.67h0a17.3,17.3,0,0,1-.23,2.88C448.13,143.93,447.89,144.3,447.85,144.27Z" fill="#eb996e"/><path d="M437.36,149.63c-.14,0,.05-1-.08-2.12s-.51-2-.37-2.09.75.76.88,2A2.926,2.926,0,0,1,437.36,149.63Z" fill="#eb996e"/><path d="M441.33,146a15,15,0,0,1-.51-2.21,16.52,16.52,0,0,1-.7-2.15c.1-.09.85.73,1.2,2a3.26,3.26,0,0,1,.01,2.36Z" fill="#eb996e"/><rect width="139.2" height="38.422" transform="translate(314.19 215.55)" fill="#263238"/><path d="M293.25,217.2a68,68,0,0,1,13.23-44.27l.6.45A67.3,67.3,0,0,0,294,217.16Z" fill="#263238"/><rect width="5.81" height="12.44" rx="2.82" transform="matrix(0.812, 0.584, -0.584, 0.812, 308.511, 166.025)" fill="#263238"/><rect width="139.2" height="38.422" transform="translate(283.77 215.55)" fill="#455a64"/><path d="M309.32,216a2.371,2.371,0,0,1-.05.4l-.18,1.14a14.111,14.111,0,0,1-.37,1.8,23.772,23.772,0,0,1-.65,2.34c-.14.43-.29.87-.45,1.34s-.38.92-.58,1.42a31,31,0,0,1-1.47,3,37.1,37.1,0,0,1-4.44,6.33,37.822,37.822,0,0,1-5.73,5.2c-1,.67-1.91,1.33-2.84,1.83-.47.26-.9.54-1.34.76l-1.27.61c-.8.41-1.58.67-2.24.94a14.1,14.1,0,0,1-1.74.58l-1.11.33a3.4,3.4,0,0,1-.39.09l.38-.14,1.1-.35a18.057,18.057,0,0,0,1.72-.62,23.885,23.885,0,0,0,2.21-1c.41-.19.83-.4,1.27-.62s.86-.5,1.32-.76a31.074,31.074,0,0,0,2.81-1.83,35.44,35.44,0,0,0,10.13-11.47,33.214,33.214,0,0,0,1.47-3c.2-.49.43-.95.59-1.41l.46-1.33a23.542,23.542,0,0,0,.68-2.32,14.611,14.611,0,0,0,.4-1.78c.09-.44.16-.82.22-1.14S309.32,216,309.32,216Z" fill="#263238"/><path d="M442.75,160.11a2.43,2.43,0,0,1,.09.79,9.109,9.109,0,0,1-.18,2.14,6.51,6.51,0,0,1-1.42,2.9,5,5,0,0,1-3.49,1.86,5.72,5.72,0,0,1-3.72-1.37,7.25,7.25,0,0,1-1.9-2.6,19.469,19.469,0,0,1-.8-2c-.16-.48-.23-.75-.19-.76s.49,1,1.32,2.58a7.51,7.51,0,0,0,1.87,2.4,5.44,5.44,0,0,0,3.4,1.22,4.58,4.58,0,0,0,3.15-1.66,6.521,6.521,0,0,0,1.43-2.66C442.71,161.25,442.64,160.1,442.75,160.11Z" fill="#263238"/></g></g></svg>