<svg xmlns="http://www.w3.org/2000/svg" width="302.205" height="175.72" viewBox="0 0 302.205 175.72"><g transform="translate(-2125.454 9791.803)"><path d="M80,0H302.2a0,0,0,0,1,0,0V78.5a80,80,0,0,1-80,80H0a0,0,0,0,1,0,0V80A80,80,0,0,1,80,0Z" transform="translate(2125.454 -9774.583)" fill="#2df0da"/><g transform="translate(2159.168 -9840.667)"><g transform="translate(37.08 51.722)"><path d="M444.58,163.454a1.888,1.888,0,0,1,.143-.442l.438-1.166a17.717,17.717,0,0,0,1.1-3.953,8.13,8.13,0,0,0-.438-4.018A9.932,9.932,0,0,0,445,152.39a1.636,1.636,0,0,1,.311.34,5.2,5.2,0,0,1,.642,1.088,7.823,7.823,0,0,1,.511,4.092,15.7,15.7,0,0,1-1.166,3.977c-.209.491-.385.88-.516,1.146A2.045,2.045,0,0,1,444.58,163.454Z" transform="translate(-281.443 -112.888)" fill="#ebebeb"/><path d="M455.134,141.1a1.3,1.3,0,0,1-.1.168l-.327.458-1.227,1.665c-1.043,1.4-2.48,3.351-4.034,5.52s-2.934,4.157-3.928,5.6l-1.17,1.69-.327.458a.676.676,0,0,1-.127.151,1.6,1.6,0,0,1,.09-.176l.295-.479c.258-.409.642-1.011,1.125-1.743.962-1.461,2.324-3.462,3.879-5.634s3.011-4.092,4.092-5.487c.536-.691.978-1.228,1.289-1.637l.36-.434A.981.981,0,0,1,455.134,141.1Z" transform="translate(-281.036 -106.217)" fill="#ebebeb"/><path d="M454.142,167.09c0,.045-.622-.078-1.637-.053a9.774,9.774,0,0,0-1.743.2,11.08,11.08,0,0,0-2.046.663,10.953,10.953,0,0,0-1.854,1.088,9.628,9.628,0,0,0-1.313,1.17c-.683.732-1,1.277-1.039,1.252a1.763,1.763,0,0,1,.2-.4,3.8,3.8,0,0,1,.291-.43,6,6,0,0,1,.43-.536,8.931,8.931,0,0,1,1.305-1.228,9.529,9.529,0,0,1,3.977-1.788,8.85,8.85,0,0,1,1.784-.164,5.813,5.813,0,0,1,.687.037,3.605,3.605,0,0,1,.511.07A1.771,1.771,0,0,1,454.142,167.09Z" transform="translate(-281.402 -121.443)" fill="#ebebeb"/><path d="M63.226,112.469a2.046,2.046,0,0,1-.336-.319l-.867-.9a17.688,17.688,0,0,0-3.1-2.68,8.126,8.126,0,0,0-3.822-1.322,9.5,9.5,0,0,0-1.69.1,1.559,1.559,0,0,1,.438-.139,5.319,5.319,0,0,1,1.26-.11,7.774,7.774,0,0,1,3.928,1.293,15.52,15.52,0,0,1,3.1,2.758c.356.409.63.724.818.953A2.124,2.124,0,0,1,63.226,112.469Z" transform="translate(-50.328 -86.125)" fill="#ebebeb"/><path d="M54.2,79.62a1.113,1.113,0,0,1,.106.164c.061.11.168.3.274.5.25.458.577,1.076.978,1.825.818,1.547,1.972,3.683,3.273,6.007s2.5,4.431,3.38,5.945l1.039,1.8c.106.2.2.356.274.491s.09.176.082.18a.818.818,0,0,1-.119-.155l-.311-.475c-.262-.409-.638-1.011-1.092-1.759-.912-1.5-2.136-3.584-3.437-5.917s-2.43-4.48-3.22-6.043c-.409-.782-.712-1.416-.921-1.858l-.237-.511C54.214,79.685,54.19,79.624,54.2,79.62Z" transform="translate(-50.792 -69.893)" fill="#ebebeb"/><path d="M73.981,93.87c.037.025-.336.532-.745,1.448a9.75,9.75,0,0,0-.561,1.665,10.937,10.937,0,0,0-.274,2.132,11.289,11.289,0,0,0,.188,2.14,9.857,9.857,0,0,0,.5,1.669c.372.933.728,1.457.691,1.477a1.673,1.673,0,0,1-.262-.356,3.122,3.122,0,0,1-.266-.446,6.629,6.629,0,0,1-.3-.614,9.411,9.411,0,0,1-.548-1.7,10.185,10.185,0,0,1-.209-2.185,10.361,10.361,0,0,1,.295-2.173,8.977,8.977,0,0,1,.614-1.682,6.139,6.139,0,0,1,.327-.606,3.573,3.573,0,0,1,.282-.438,1.686,1.686,0,0,1,.274-.336Z" transform="translate(-61.422 -78.312)" fill="#ebebeb"/><path d="M193.241,437.24a1.849,1.849,0,0,1-.209.409l-.614,1.088a17.626,17.626,0,0,0-1.665,3.748,8.118,8.118,0,0,0-.16,4.038,9.866,9.866,0,0,0,.585,1.588,1.591,1.591,0,0,1-.258-.381,5.01,5.01,0,0,1-.475-1.17,7.774,7.774,0,0,1,.1-4.133,15.549,15.549,0,0,1,1.739-3.764c.278-.454.511-.818.675-1.06A1.9,1.9,0,0,1,193.241,437.24Z" transform="translate(-131.157 -281.186)" fill="#ebebeb"/><path d="M165.45,451.129a1.838,1.838,0,0,1,.127-.151l.409-.409,1.469-1.465c1.228-1.228,2.946-2.95,4.8-4.865s3.515-3.683,4.71-4.955l1.42-1.514.409-.409c.09-.09.139-.135.147-.131a.818.818,0,0,1-.119.16l-.36.434c-.319.372-.786.9-1.371,1.559-1.191,1.309-2.827,3.073-4.7,5.008s-3.584,3.617-4.853,4.824c-.634.606-1.15,1.088-1.514,1.416l-.409.376a.745.745,0,0,1-.168.123Z" transform="translate(-116.524 -281.18)" fill="#ebebeb"/><path d="M172.62,441.511c0-.041.606.168,1.6.295a9.928,9.928,0,0,0,1.755.053,10.663,10.663,0,0,0,2.119-.356,10.823,10.823,0,0,0,1.993-.818,9.479,9.479,0,0,0,1.473-.962c.786-.626,1.182-1.113,1.227-1.084a2.282,2.282,0,0,1-.266.352,3.932,3.932,0,0,1-.352.381,5.817,5.817,0,0,1-.5.471,9.166,9.166,0,0,1-1.473,1.019,10.452,10.452,0,0,1-2.046.818,10.23,10.23,0,0,1-2.169.348,8.551,8.551,0,0,1-1.784-.1,5.781,5.781,0,0,1-.675-.135,3.606,3.606,0,0,1-.5-.143A1.924,1.924,0,0,1,172.62,441.511Z" transform="translate(-120.761 -282.012)" fill="#ebebeb"/><circle cx="4.093" cy="4.093" r="4.093" transform="translate(124.388 119.834) rotate(-55.993)" fill="#ebebeb"/><path d="M389.6,321.562a4.092,4.092,0,1,1-4.092-4.092A4.092,4.092,0,0,1,389.6,321.562Z" transform="translate(-244.126 -210.423)" fill="#ebebeb"/><path d="M389.653,363.435a4.105,4.105,0,1,1-4.1-4.435A4.281,4.281,0,0,1,389.653,363.435Z" transform="translate(-244.156 -234.96)" fill="#ebebeb"/><path d="M371.886,357.221c-.176.258-2.893-1.289-6.076-3.449s-5.614-4.124-5.442-4.382,2.9,1.289,6.076,3.449S372.078,356.963,371.886,357.221Z" transform="translate(-231.683 -229.265)" fill="#ebebeb"/><path d="M374.773,326.753c.188.245-1.911,2.193-4.689,4.345s-5.192,3.682-5.381,3.457,1.907-2.193,4.689-4.345S374.58,326.508,374.773,326.753Z" transform="translate(-234.243 -215.892)" fill="#ebebeb"/><path d="M333.638,231a28.38,28.38,0,0,1,0,4.91,28.38,28.38,0,0,1,0-4.91Z" transform="translate(-215.825 -159.333)" fill="#e0e0e0"/><path d="M333.638,207a28.38,28.38,0,0,1,0,4.91,28.38,28.38,0,0,1,0-4.91Z" transform="translate(-215.825 -145.153)" fill="#e0e0e0"/><path d="M333.638,183a28.38,28.38,0,0,1,0,4.91,28.38,28.38,0,0,1,0-4.91Z" transform="translate(-215.825 -130.973)" fill="#e0e0e0"/><path d="M333.638,159a28.38,28.38,0,0,1,0,4.91,28.38,28.38,0,0,1,0-4.91Z" transform="translate(-215.825 -116.793)" fill="#e0e0e0"/><path d="M333.638,135a28.372,28.372,0,0,1,0,4.91,28.38,28.38,0,0,1,0-4.91Z" transform="translate(-215.825 -102.613)" fill="#e0e0e0"/><path d="M327,117.678a14.451,14.451,0,0,1,2.455-.106h.446v.1a11.707,11.707,0,0,1-.106,2.115,11.7,11.7,0,0,1-.106-2.115l.106.106h-.34a13.96,13.96,0,0,1-2.455-.1Z" transform="translate(-211.973 -92.309)" fill="#e0e0e0"/><path d="M303,117.7a28.38,28.38,0,0,1,4.91,0A28.38,28.38,0,0,1,303,117.7Z" transform="translate(-197.793 -92.327)" fill="#e0e0e0"/><path d="M292.376,104.29a14.451,14.451,0,0,1,.106,2.455,14.451,14.451,0,0,1-.106,2.455,13.961,13.961,0,0,1-.106-2.455,13.961,13.961,0,0,1,.106-2.455Z" transform="translate(-191.445 -84.469)" fill="#e0e0e0"/><path d="M292.376,85a10.419,10.419,0,0,1,0,2.971,10.421,10.421,0,0,1,0-2.971Z" transform="translate(-191.445 -73.072)" fill="#e0e0e0"/><path d="M147.8,357.09a6.874,6.874,0,0,1,2.455,0A7.135,7.135,0,0,1,147.8,357.09Z" transform="translate(-106.096 -233.766)" fill="#e0e0e0"/><path d="M121.64,357.07a16.221,16.221,0,0,1,2.676-.11,16.262,16.262,0,0,1,2.676.11,17.143,17.143,0,0,1-2.676.106A17.1,17.1,0,0,1,121.64,357.07Z" transform="translate(-90.64 -233.746)" fill="#e0e0e0"/><path d="M95.47,357.08a16.264,16.264,0,0,1,2.672-.1,16.262,16.262,0,0,1,2.676.11,17.14,17.14,0,0,1-2.676.106,17.142,17.142,0,0,1-2.672-.115Z" transform="translate(-75.178 -233.755)" fill="#e0e0e0"/><path d="M76.219,351.25a13.911,13.911,0,0,1,.106,2.455l-.106-.106h.957l.777.02a2.322,2.322,0,0,1,.72.078,2.594,2.594,0,0,1-.72.074l-.777.025h-.957c.094.094-.131-.131-.106-.11a14.382,14.382,0,0,1,.106-2.435Z" transform="translate(-63.734 -230.381)" fill="#e0e0e0"/><path d="M76.236,328a26.661,26.661,0,0,1,0,4.759A26.661,26.661,0,0,1,76.236,328Z" transform="translate(-63.751 -216.644)" fill="#e0e0e0"/><path d="M76.236,304.72a26.661,26.661,0,0,1,0,4.759,26.661,26.661,0,0,1,0-4.759Z" transform="translate(-63.751 -202.889)" fill="#e0e0e0"/><path d="M76.236,287.08a7.136,7.136,0,0,1,0,2.455A7.136,7.136,0,0,1,76.236,287.08Z" transform="translate(-63.751 -192.467)" fill="#e0e0e0"/><path d="M77.914,262.938a4.251,4.251,0,0,0-1.371-4.595,4.145,4.145,0,0,0-2.373-.847,3.429,3.429,0,0,1-3.02-2.046,7.214,7.214,0,0,0-12.766-1.064,5.16,5.16,0,0,1-1.575,1.989c-.953.532-2.128.172-3.212.1-3.228-.2-6.285,3.241-6.117,6.469Z" transform="translate(-46.82 -171.157)" fill="#f5f5f5"/><path d="M281.567,67.776a4.247,4.247,0,0,0-1.367-4.595,4.161,4.161,0,0,0-2.377-.851,3.433,3.433,0,0,1-3.02-2.046,7.214,7.214,0,0,0-12.766-1.06,5.147,5.147,0,0,1-1.575,1.984c-.949.532-2.124.172-3.212.106-3.228-.2-6.285,3.241-6.138,6.469Z" transform="translate(-167.134 -55.847)" fill="#74ddf7"/></g><g transform="translate(30.989 52.408)"><circle cx="27.332" cy="27.332" r="27.332" transform="translate(110.092 65.422) rotate(-45)" fill="#ccf1ff"/><path d="M225.984,351.836c-.646,16.436-12.754,30.041-29.2,30.36a29.787,29.787,0,0,1-30.36-29.2c-.319-16.449,12.8-31.625,29.2-30.36C213.112,323.967,226.569,336.836,225.984,351.836Z" transform="translate(-111.003 -214.116)" fill="#edffd5"/><circle cx="27.868" cy="27.868" r="27.868" transform="translate(0 39.412) rotate(-45)" fill="#ccfff9"/><path d="M315.5,233.145c.434.409-10.127,12.553-23.584,27.144s-24.722,26.1-25.156,25.7,10.127-12.549,23.589-27.144S315.068,232.744,315.5,233.145Z" transform="translate(-170.283 -161.281)" fill="#e0e0e0"/><path d="M252.826,158.66c-.127.577-18.736-2.987-41.563-7.954s-41.236-9.46-41.113-10.033,18.732,2.983,41.567,7.954S252.952,158.087,252.826,158.66Z" transform="translate(-113.209 -106.615)" fill="#e0e0e0"/><path d="M142.029,236.254c-.245.151-3.138-3.989-7.52-10.872s-10.237-16.518-16.375-27.336-11.457-20.773-15.139-28.057S97.216,158.107,97.47,158s2.823,4.21,6.833,11.305l15.663,27.713L135.8,224.626C139.844,231.676,142.274,236.095,142.029,236.254Z" transform="translate(-70.256 -116.886)" fill="#e0e0e0"/></g><g transform="translate(143.921 70.354)"><path d="M413.845,125.33a10.571,10.571,0,0,0,1.166,4.91,19.015,19.015,0,0,1,1.522,3.31c.295,1.182.127,2.316.331,3.453.34,1.858,1.571,3.4,2.5,5.049s1.547,3.732.63,5.381l-9.468-1.117-.667-11.751Z" transform="translate(-367.771 -115.532)" fill="#263238"/><path d="M363.282,115.59c-1.227,2.6.479,5.2-.749,7.8a20.363,20.363,0,0,0-1.543,3.977,22.159,22.159,0,0,1-.859,3.744c-.818,1.878-2.655,3.146-3.511,5-1.264,2.754.082,6.2,2.5,8.032s5.63,2.279,8.654,2.07a11.9,11.9,0,0,0,5.266-1.436,6.053,6.053,0,0,0,3.04-4.362" transform="translate(-336.03 -109.777)" fill="#263238"/><path d="M387.632,104.28c6.088,2.7,7.3,12.7,7.332,14.055.037,1.6.892,1.939,1.96,2.778a6.014,6.014,0,0,1,2.4,3.163c.233,1.027,0,2.16.479,3.1.585,1.117,1.976,1.53,3.052,2.222a7.593,7.593,0,0,1,3.155,6.138,22.093,22.093,0,0,1-1.182,6.984,3.806,3.806,0,0,1-1.4,2.394,4.023,4.023,0,0,1-2.173.36l-11.571-.258c-2.95-.065-5.978-.147-8.7-1.228a10.9,10.9,0,0,1-5.348-4.5,8.838,8.838,0,0,1-.966-6.755c.483-1.735,1.534-3.3,1.841-5.074.376-2.2-1.465-3.134-2.132-5.266s-1.228-7.234-.307-9.276" transform="translate(-346.34 -103.095)" fill="#263238"/><path d="M371.113,197.594l-1.9-6.1-.274,9.329s2.455,6.363,4.345,11.223a28.535,28.535,0,0,1-28.871.2l2.93-10.528-1.4-11.944-3.85,5.544-8.245-7.971s6.035-11.15,6.784-12.169c4.775-6.489,13.016-6.334,13.016-6.334l11.665.646a14.21,14.21,0,0,1,10.867,4.824s4.21,6.428,7.668,22.287Z" transform="translate(-322.862 -141.245)" fill="#8dd52c"/><path d="M387.11,185.162a1.133,1.133,0,0,1-.168.029,3.025,3.025,0,0,0-.5.065,8.182,8.182,0,0,0-1.862.528,8.408,8.408,0,0,0-2.541,1.669,7.847,7.847,0,0,0-1.228,1.469,5.728,5.728,0,0,0-.847,1.948,2.475,2.475,0,0,0,.037,1.121,1.8,1.8,0,0,0,.671.933,1.228,1.228,0,0,0,1.133.18,1.4,1.4,0,0,0,.786-.917,1.743,1.743,0,0,0-.09-1.272,2.774,2.774,0,0,0-.888-1.027,5.61,5.61,0,0,0-2.7-1.007,8.323,8.323,0,0,0-3.061.27,11.309,11.309,0,0,0-2.979,1.228,8.437,8.437,0,0,0-2.455,2.246,2.971,2.971,0,0,0-.589,1.551,1.424,1.424,0,0,0,.209.786,1.9,1.9,0,0,0,.6.585h-.02a1.138,1.138,0,0,0,.818.037,1.227,1.227,0,0,0,.593-.626,4.37,4.37,0,0,0,.344-1.866,5.274,5.274,0,0,0-.3-1.862,4.169,4.169,0,0,0-1.039-1.538,5.589,5.589,0,0,0-3.273-1.481,8.944,8.944,0,0,0-3.523.409,6.08,6.08,0,0,0-2.93,1.637,1.886,1.886,0,0,0,.188,2.791,1.285,1.285,0,0,0,.671.29,1.052,1.052,0,0,0,.687-.164,1.588,1.588,0,0,0,.655-1.228,3.682,3.682,0,0,0-.16-1.424c-.074-.225-.172-.442-.254-.663-.045-.106-.082-.221-.135-.323l-.164-.307a8.465,8.465,0,0,0-1.583-2.111,9.857,9.857,0,0,0-3.887-2.324,9.411,9.411,0,0,0-3.4-.45,8.682,8.682,0,0,0-2.144.409l-.536.192-.188.057.18-.078.528-.213a8.371,8.371,0,0,1,2.152-.442,9.485,9.485,0,0,1,3.449.409,9.951,9.951,0,0,1,3.953,2.332,8.343,8.343,0,0,1,1.637,2.14l.172.311c.053.106.09.221.135.331.09.225.188.446.266.679a3.863,3.863,0,0,1,.172,1.489,1.759,1.759,0,0,1-.732,1.375,1.26,1.26,0,0,1-.818.192,1.461,1.461,0,0,1-.765-.327,2.189,2.189,0,0,1-.79-1.461,1.755,1.755,0,0,1,.123-.855,2.8,2.8,0,0,1,.442-.745,6.173,6.173,0,0,1,3.02-1.71,9,9,0,0,1,3.6-.409,5.781,5.781,0,0,1,3.412,1.534,4.41,4.41,0,0,1,1.088,1.612,5.483,5.483,0,0,1,.319,1.939,4.59,4.59,0,0,1-.364,1.96,1.428,1.428,0,0,1-.708.728,1.354,1.354,0,0,1-.99-.033h0a2.046,2.046,0,0,1-.663-.651,1.587,1.587,0,0,1-.237-.9,3.167,3.167,0,0,1,.626-1.669,8.658,8.658,0,0,1,2.529-2.3,11.5,11.5,0,0,1,3.04-1.26,8.51,8.51,0,0,1,3.13-.27,5.79,5.79,0,0,1,2.786,1.047,2.954,2.954,0,0,1,.937,1.1,1.89,1.89,0,0,1,.094,1.4,1.551,1.551,0,0,1-.888,1.015,1.362,1.362,0,0,1-1.281-.2,1.947,1.947,0,0,1-.724-1.015,2.557,2.557,0,0,1-.033-1.191,5.806,5.806,0,0,1,.876-1.993,8.058,8.058,0,0,1,1.248-1.481,8.461,8.461,0,0,1,2.59-1.661,7.652,7.652,0,0,1,1.874-.5A5.792,5.792,0,0,1,387.11,185.162Z" transform="translate(-333.024 -150.344)" fill="#fafafa"/><path d="M434.368,219.06a9.816,9.816,0,0,0-1.06.511,5.43,5.43,0,0,0-2.091,2.345,4.911,4.911,0,0,0-.336.994,2.046,2.046,0,0,0,0,1.1.818.818,0,0,0,.3.45.561.561,0,0,0,.516.057,1.166,1.166,0,0,0,.622-.974,2.242,2.242,0,0,0-1.228-2.214,2.864,2.864,0,0,0-2.778.262,4,4,0,0,0-1.575,2.418,1.809,1.809,0,0,0,.111,1.326.843.843,0,0,0,1.052.409,1.076,1.076,0,0,0,.6-.974,2.112,2.112,0,0,0-.356-1.117,3.273,3.273,0,0,0-1.657-1.338,3.093,3.093,0,0,0-1.768-.106,3.384,3.384,0,0,0-1.228.573,4.276,4.276,0,0,0-.818.818.361.361,0,0,1,.037-.07,1.264,1.264,0,0,1,.123-.192,2.9,2.9,0,0,1,.61-.638,3.314,3.314,0,0,1,1.252-.622,3.13,3.13,0,0,1,1.845.082,3.4,3.4,0,0,1,1.759,1.383,2.267,2.267,0,0,1,.389,1.228,1.252,1.252,0,0,1-.7,1.15.917.917,0,0,1-.741,0,1.2,1.2,0,0,1-.561-.5,1.993,1.993,0,0,1-.143-1.477A4.19,4.19,0,0,1,428.2,221.4a3.048,3.048,0,0,1,2.991-.27,2.455,2.455,0,0,1,1.346,2.422,1.354,1.354,0,0,1-.753,1.125.749.749,0,0,1-.687-.086,1.015,1.015,0,0,1-.36-.548,2.16,2.16,0,0,1,0-1.187,4.827,4.827,0,0,1,.36-1.019,5.319,5.319,0,0,1,2.185-2.353,3.655,3.655,0,0,1,1.088-.426Z" transform="translate(-375.339 -170.911)" fill="#fafafa"/><path d="M391.22,229.5a.385.385,0,0,1-.1,0l-.29-.07a9,9,0,0,0-1.133-.192,8.654,8.654,0,0,0-4.137.577,7.9,7.9,0,0,0-1.228.63,3.527,3.527,0,0,0-1.08,1.011,1.637,1.637,0,0,0-.209,1.481,1.322,1.322,0,0,0,.458.634.958.958,0,0,0,.757.164,1.432,1.432,0,0,0,1.052-1.207,2.656,2.656,0,0,0-.471-1.727,5.237,5.237,0,0,0-3.118-2.214,5.119,5.119,0,0,0-3.781.569,4.681,4.681,0,0,0-1.391,1.207,2.353,2.353,0,0,0-.36.818,1.154,1.154,0,0,0,.065.818.818.818,0,0,0,.626.409,1.146,1.146,0,0,0,.741-.217,1.42,1.42,0,0,0,.552-1.354,3.466,3.466,0,0,0-.475-1.4,4.932,4.932,0,0,0-.855-1.084,5.553,5.553,0,0,0-2.046-1.228,5.225,5.225,0,0,0-1.784-.278,6.06,6.06,0,0,0-1.522.245.216.216,0,0,0,.094-.041l.282-.1a4.738,4.738,0,0,1,1.146-.184,5.147,5.147,0,0,1,1.821.245,5.626,5.626,0,0,1,2.1,1.228,5.184,5.184,0,0,1,.9,1.076,3.61,3.61,0,0,1,.507,1.465,1.936,1.936,0,0,1-.09.818,1.407,1.407,0,0,1-.528.7,1.371,1.371,0,0,1-.867.254.99.99,0,0,1-.782-.516,1.33,1.33,0,0,1-.09-.945,2.533,2.533,0,0,1,.389-.872,4.791,4.791,0,0,1,1.457-1.273,5.291,5.291,0,0,1,3.932-.593,5.417,5.417,0,0,1,3.245,2.308,2.864,2.864,0,0,1,.5,1.866,1.637,1.637,0,0,1-1.228,1.371,1.15,1.15,0,0,1-.908-.2,1.489,1.489,0,0,1-.524-.728,1.784,1.784,0,0,1-.078-.863,2.046,2.046,0,0,1,.315-.777,3.658,3.658,0,0,1,1.142-1.052,7.982,7.982,0,0,1,1.273-.63,8.49,8.49,0,0,1,4.2-.507A5.88,5.88,0,0,1,391.22,229.5Z" transform="translate(-345.1 -175.458)" fill="#fafafa"/><path d="M307.406,146.406c.847.041.606,4.669,1.228,3.683s-.36-5.675.524-5.593c1.154.11.818,4.947.818,5.36s.593.409.573.037c-.029-.532-.209-6.138.925-6.043.63.053.409,1.178.409,1.178s-.221,5.266.315,5.291.781-3.061.786-4.092.5-1.461.953-1.092c.311.254.372,3.453.344,4.5s-.16,3.871,1.039,2.5,2.631-1.993,3.126-1.894.524.818,0,1.064A6.9,6.9,0,0,0,317,152.441a6.593,6.593,0,0,0-.884,1.183,5.032,5.032,0,0,0-.634,1.465l1.612,19.292,1.182-1.477,6.739,6.518-3.519,4.047a6.6,6.6,0,0,1-9.857.229c-.094-.106-.188-.217-.274-.331a5.475,5.475,0,0,1-1.092-2.926l-2.226-25.008h-.02c-.049-2.778-.818-4.91-.937-6.326C306.853,146.418,307.091,146.389,307.406,146.406Z" transform="translate(-306.994 -126.473)" fill="#ffbe9d"/><path d="M377.412,135.733c.025-2.909,0-5.97,0-5.97s-3.74-.667-4.456-5.565c-.687-4.673.475-14.73.475-14.73h0c5.421-2.136,11.522-1.309,15.315,3.048h0l-.589,23.625a5.069,5.069,0,0,1-5.417,4.771h0A5.339,5.339,0,0,1,377.412,135.733Z" transform="translate(-345.838 -105.493)" fill="#ffbe9d"/><path d="M376.91,129.192a.63.63,0,0,0,.6.642.606.606,0,0,0,.655-.561.626.626,0,0,0-.6-.638.6.6,0,0,0-.655.556Z" transform="translate(-348.303 -117.484)" fill="#263238"/><path d="M374.434,127.306c.074.082.556-.266,1.227-.254s1.166.352,1.228.27-.041-.184-.254-.344a1.71,1.71,0,0,0-.99-.319,1.637,1.637,0,0,0-.982.307C374.467,127.122,374.393,127.269,374.434,127.306Z" transform="translate(-346.834 -116.318)" fill="#263238"/><path d="M393.79,129.657a.622.622,0,0,0,.6.638.593.593,0,0,0,.651-.556.626.626,0,0,0-.593-.642.6.6,0,0,0-.655.561Z" transform="translate(-358.276 -117.756)" fill="#263238"/><path d="M391.634,128.066c.074.082.556-.266,1.228-.254s1.166.352,1.227.27-.041-.184-.254-.344a1.723,1.723,0,0,0-.99-.319,1.637,1.637,0,0,0-.982.3C391.667,127.9,391.593,128.066,391.634,128.066Z" transform="translate(-356.996 -116.766)" fill="#263238"/><path d="M383.061,133.087a4.18,4.18,0,0,0-1.092-.213c-.172-.02-.336-.053-.364-.172a.9.9,0,0,1,.123-.511c.164-.409.34-.851.524-1.305a22.142,22.142,0,0,0,1.182-3.417,22.513,22.513,0,0,0-1.457,3.314l-.5,1.313a1.007,1.007,0,0,0-.094.675.409.409,0,0,0,.278.254,1.027,1.027,0,0,0,.29.045A4.551,4.551,0,0,0,383.061,133.087Z" transform="translate(-350.93 -116.796)" fill="#263238"/><path d="M384.15,158.284a12.443,12.443,0,0,0,6.571-1.674s-1.637,3.343-6.518,2.827Z" transform="translate(-352.58 -134.013)" fill="#eb996e"/><path d="M386.067,144.535a1.228,1.228,0,0,1,1.1-.438,1.1,1.1,0,0,1,.761.409.7.7,0,0,1,.045.818.818.818,0,0,1-.888.213,2.5,2.5,0,0,1-.855-.524.819.819,0,0,1-.192-.2.229.229,0,0,1,0-.254" transform="translate(-353.671 -126.615)" fill="#eb996e"/><path d="M387.222,142.39c-.11,0-.119.724-.753,1.228s-1.412.409-1.42.524.172.143.5.155a1.8,1.8,0,0,0,1.182-.409,1.571,1.571,0,0,0,.585-1.035C387.353,142.57,387.271,142.386,387.222,142.39Z" transform="translate(-353.112 -125.612)" fill="#263238"/><path d="M386.526,104.934c-1.788,2.549-6.522,5.172-9.914,5.782.409-.52,2.48-1.8,2.864-2.324-1.534,1.146-3.736,2.68-5.773,2.786a1.228,1.228,0,0,1-.7-.11.945.945,0,0,1-.356-.769,20.278,20.278,0,0,1,.143-4.427,4.885,4.885,0,0,1,1.764-3.163,8.436,8.436,0,0,1,4.939-1.3,11.166,11.166,0,0,1,4.349.585,4.069,4.069,0,0,1,2.7,2.864" transform="translate(-345.746 -101.384)" fill="#263238"/><path d="M406.5,117.206a27.657,27.657,0,0,0,.487-3.273c.143-2.52-.585-11.833-9.284-11.084l2.095,2.672s-1.719,5.642,1.939,9.538a9.071,9.071,0,0,0,2.758,4.91s1.477-.045,2-2.762" transform="translate(-360.586 -102.224)" fill="#263238"/><path d="M406.967,131.628a2.946,2.946,0,0,1,1.575.119,2.046,2.046,0,0,1,1.137,1.06,2.128,2.128,0,0,1,0,1.563,3.642,3.642,0,0,1-.9,1.305,2.455,2.455,0,0,1-.957.618,1.17,1.17,0,0,1-1.088-.18" transform="translate(-365.921 -119.22)" fill="#ffbe9d"/><path d="M407.916,135.872c-.061,0,.164.336.642.213a1.035,1.035,0,0,0,.6-.507,2.32,2.32,0,0,0,.27-.867,1.371,1.371,0,0,0-.209-.921.921.921,0,0,0-.683-.409c-.491,0-.651.323-.593.331a.982.982,0,0,1,.552-.053.884.884,0,0,1,.532,1.019c-.061.536-.274,1.027-.565,1.146S407.944,135.827,407.916,135.872Z" transform="translate(-366.616 -120.288)" fill="#eb996e"/><path d="M358.951,221.547v-2.234H343.227L338.611,199.1l-23.531.192,5.7,22.255Z" transform="translate(-311.772 -159.118)" fill="#263238"/><path d="M342.145,222.983a1.615,1.615,0,1,0,.855-2.418A1.847,1.847,0,0,0,342.145,222.983Z" transform="translate(-327.687 -171.765)" fill="#fafafa"/><path d="M361.988,243.669a14.6,14.6,0,0,1-.986-2.353,1.449,1.449,0,0,1-.09-.6.511.511,0,0,1,.36-.442c.368-.074.6.372.741.716a4.448,4.448,0,0,0,3.081,2.59l.953-.025v-.041l20.569-1.833-.982-4.092,10.888-.818.994,4.018a8.282,8.282,0,0,1-8.556,9.169h-23.6a8.161,8.161,0,0,1-8.92-6.138Z" transform="translate(-336.208 -181.374)" fill="#ffbe9d"/></g><g transform="translate(71.205 145.12)"><path d="M289.7,414.79l-9.3,5.728,3.412,8.2a29.894,29.894,0,0,0,7.3-10.536Z" transform="translate(-218.566 -361.321)" fill="#b78876"/><path d="M227.991,385.567c-1.2-2.864-5.319-12.373-8.777-15.925-5.168-5.319-14.264-4.6-14.264-4.6l-11.817.409a27.666,27.666,0,0,0-8.7,2.692l-.291.09v.057c-3.306,1.8-7.987,6.1-12.451,10.286l5.34,4.951,5.908,5.246a.147.147,0,0,0,0,.106c.061.319-.962,6.665-1.866,12.148a29.8,29.8,0,0,0,31.379,3.191l.442-5.07c.409-4.595.712-10.282.712-10.282l1.694,4.3,12.328-6.408C227.754,386.373,227.873,385.972,227.991,385.567Z" transform="translate(-154.336 -331.909)" fill="#35a3be"/><path d="M235.689,364a.892.892,0,0,1,.053.213,4.427,4.427,0,0,1,.078.618,6.174,6.174,0,0,1-.307,2.271,6.327,6.327,0,0,1-11.825.556,6.113,6.113,0,0,1-.516-2.23,3.926,3.926,0,0,1,0-.622.712.712,0,0,1,.033-.217c.025,0,0,.3.033.818a6.546,6.546,0,0,0,.573,2.173,6.461,6.461,0,0,0,2.1,2.541,6.346,6.346,0,0,0,7.586-.36,6.432,6.432,0,0,0,2.234-4.943C235.725,364.295,235.664,364,235.689,364Z" transform="translate(-184.746 -331.312)" fill="#263238"/><path d="M275.179,370.251a5.324,5.324,0,0,0-.818.2,4.059,4.059,0,0,0-1.829,1.387,6.5,6.5,0,0,0-1.162,3.216c-.082.651-.119,1.342-.143,2.046s-.041,1.457-.049,2.218a75.908,75.908,0,0,0,.348,7.774c.094.99.192,1.792.254,2.349.033.258.053.466.074.638a.784.784,0,0,1,0,.225.9.9,0,0,1-.053-.221c-.033-.168-.07-.376-.115-.634-.086-.548-.209-1.35-.319-2.345a64.092,64.092,0,0,1-.409-7.795c0-.761.02-1.506.053-2.226s.065-1.416.155-2.074a6.547,6.547,0,0,1,1.228-3.273,3.993,3.993,0,0,1,1.923-1.375A2.23,2.23,0,0,1,275.179,370.251Z" transform="translate(-212.985 -335.002)" fill="#263238"/><path d="M204.729,368.38a1.012,1.012,0,0,1-.049.229l-.184.646-.7,2.373c-.577,2-1.342,4.783-2.091,7.876s-1.334,5.9-1.731,7.95c-.2,1-.352,1.821-.466,2.426-.053.266-.1.483-.135.659a.785.785,0,0,1-.057.225,1,1,0,0,1,0-.233c.025-.176.053-.409.094-.667.082-.577.217-1.412.409-2.455.364-2.046.929-4.91,1.673-7.987s1.538-5.876,2.156-7.868c.307-1,.569-1.8.757-2.357.09-.258.164-.466.225-.634A1.067,1.067,0,0,1,204.729,368.38Z" transform="translate(-170.657 -333.9)" fill="#263238"/><path d="M289.607,410.42a3.271,3.271,0,0,1-.483.36c-.315.221-.781.532-1.363.9-1.162.753-2.786,1.755-4.615,2.8s-3.519,1.944-4.75,2.565c-.618.311-1.121.556-1.469.72a3.68,3.68,0,0,1-.556.233,3.578,3.578,0,0,1,.516-.307l1.44-.781c1.228-.655,2.889-1.567,4.714-2.615s3.462-2.046,4.64-2.746l1.4-.847A3.055,3.055,0,0,1,289.607,410.42Z" transform="translate(-216.185 -358.739)" fill="#263238"/><path d="M185.895,402.756c-.041.045-2.361-1.784-5.188-4.092s-5.094-4.21-5.057-4.255,2.361,1.784,5.188,4.092S185.932,402.711,185.895,402.756Z" transform="translate(-156.675 -349.278)" fill="#263238"/><path d="M271.02,394.49l4.624,15.213-1.723.9-1.694-4.3S270.48,397.256,271.02,394.49Z" transform="translate(-212.963 -349.327)" opacity="0.2"/><g transform="translate(33.997 33.473)" opacity="0.2"><path d="M212.94,366.935c-2.492,1.318,3.756,4.5,6.579,4.394l-2.046-5.409A28.885,28.885,0,0,0,212.94,366.935Z" transform="translate(-212.365 -365.92)"/></g><path d="M231.284,414.123l-14.8.053.974-5.446,14.926-.291Z" transform="translate(-180.8 -357.569)" fill="#fff" opacity="0.2"/><path d="M220.927,299.242a1.094,1.094,0,0,0,1.567,1.264c.712-.381.786-1.379.626-2.173a4.06,4.06,0,0,1-.123-2.377,5.255,5.255,0,0,1,1.228-1.391,3.474,3.474,0,0,0,.912-2.979,2.934,2.934,0,0,0-2.046-2.271c-1.064-.274-2.365.078-3.167-.675-.585-.544-.638-1.457-1.092-2.111-.708-1.015-2.164-1.15-3.388-.962a9.977,9.977,0,0,1-3.683.336,16.913,16.913,0,0,1-2.795-1.326,5.421,5.421,0,0,0-6.944,7.578,3.478,3.478,0,0,0,1.714,1.637" transform="translate(-171.859 -284.111)" fill="#263238"/><path d="M220.944,332.284h0a6.064,6.064,0,0,1-6.1-5.728c-.135-2.684-.246-5.266-.246-5.266s-4.98-.36-5.438-5.225-.524-16.121-.524-16.121h0a17.267,17.267,0,0,1,17.332.745l.475.3.577,25.184a6.072,6.072,0,0,1-6.08,6.109Z" transform="translate(-176.167 -292.297)" fill="#b78876"/><path d="M231.017,321.027a.708.708,0,0,0-.458.9.72.72,0,0,0,.908.45.71.71,0,0,0-.45-1.346Z" transform="translate(-189.097 -305.9)" fill="#263238"/><path d="M228.375,320.579c.082.082.544-.315,1.227-.36s1.191.274,1.26.184-.053-.188-.278-.336a1.682,1.682,0,0,0-1.98.139C228.4,320.387,228.339,320.546,228.375,320.579Z" transform="translate(-187.822 -305.203)" fill="#263238"/><path d="M212.861,321.026a.7.7,0,0,0-.454.9.716.716,0,1,0,.454-.9Z" transform="translate(-178.371 -305.9)" fill="#263238"/><path d="M209.988,320.618c.082.082.544-.319,1.227-.36s1.191.274,1.26.184-.053-.188-.278-.34a1.69,1.69,0,0,0-1.98.143C210.017,320.426,209.955,320.581,209.988,320.618Z" transform="translate(-176.959 -305.226)" fill="#263238"/><path d="M219.883,326.117a3.306,3.306,0,0,0-1.113-.139c-.18,0-.323-.037-.344-.127a.945.945,0,0,1,.086-.516l.409-1.4a18.47,18.47,0,0,0,.863-3.682,18.215,18.215,0,0,0-1.228,3.572l-.409,1.412a1.1,1.1,0,0,0-.037.741.458.458,0,0,0,.327.254,1.343,1.343,0,0,0,.3,0A3.34,3.34,0,0,0,219.883,326.117Z" transform="translate(-181.735 -305.463)" fill="#263238"/><path d="M223.321,336a16.616,16.616,0,0,1-3.241,1.227,1.886,1.886,0,0,0,2.267.561C223.787,337.117,223.321,336,223.321,336Z" transform="translate(-182.927 -314.769)" fill="#fff"/><path d="M223.17,351.43a11.538,11.538,0,0,0,6.26-2.32s-1.228,3.629-6.166,3.584Z" transform="translate(-184.752 -322.515)" fill="#a36957"/><path d="M252.47,316.3a.741.741,0,0,1,.7-.753c.917-.041,2.426.29,2.619,2.8.27,3.584-3.228,2.758-3.245,2.655S252.486,317.694,252.47,316.3Z" transform="translate(-202.063 -302.682)" fill="#b78876"/><path d="M254.526,321.224a1.052,1.052,0,0,0,.176.082.659.659,0,0,0,.471-.025,1.54,1.54,0,0,0,.614-1.44,2.046,2.046,0,0,0-.241-.884.728.728,0,0,0-.511-.442.315.315,0,0,0-.356.2c-.041.1,0,.172-.033.18s-.082-.053-.065-.2a.409.409,0,0,1,.127-.237.487.487,0,0,1,.34-.115.876.876,0,0,1,.7.5,2.083,2.083,0,0,1,.295.986,1.6,1.6,0,0,1-.818,1.616.679.679,0,0,1-.581-.053C254.538,321.31,254.514,321.232,254.526,321.224Z" transform="translate(-203.277 -304.334)" fill="#a36957"/><path d="M230.306,315.6c-.151.2-.687.106-1.379.078s-1.228-.033-1.363-.246.528-.732,1.42-.663S230.478,315.4,230.306,315.6Z" transform="translate(-187.338 -302.222)" fill="#263238"/><path d="M212.166,315.785c-.053.246-.5.364-1.007.409s-.974,0-1.068-.233.331-.614.986-.671S212.219,315.544,212.166,315.785Z" transform="translate(-177.017 -302.529)" fill="#263238"/><path d="M206.669,300.157a8.093,8.093,0,0,0,6.8-.491c2.525-1.256,5.462-1.874,6.109-1.367s.786,3.106,3.273,3.867c0,0-.172,4.955,1.8,4.779s.741-7.856.741-7.856l-4.836-2.361-5.295-1-4.975.7-3.846,1.052Z" transform="translate(-174.868 -290.976)" fill="#263238"/><path d="M148.454,327.29c.176.282,5.863,19.988,5.863,19.988l-11.285,1.543-5.192-16.084Z" transform="translate(-134.336 -309.623)" fill="#455a64"/><path d="M169.466,346.533l1.015-.536-5.908-19.967-1.092.577Z" transform="translate(-149.485 -308.878)" fill="#263238"/><path d="M150.853,339.534a.479.479,0,1,1-.565-.368A.479.479,0,0,1,150.853,339.534Z" transform="translate(-141.466 -316.633)" fill="#263238"/><path d="M147.13,368.01l-7.406,4.824-1.363-17.255h0l.115-.863,5.008-1.9-1.44-3.683a3.179,3.179,0,0,0-4.39-1.637l-1.608.818a4.542,4.542,0,0,0-2.32,2.864c-.569,2.136-1.076,4.448-1.023,4.247h0l-3.175,22.21s-1.506,6.4,2.864,9.452c3.31,2.3,8.883-.143,11.841-1.817l12.823-7.725Z" transform="translate(-129.277 -321.358)" fill="#b78876"/></g><g transform="translate(48.503 48.865)"><path d="M171.91,165.729l-5.02-7.639-8.47,5.319,7.676,11.829S170.319,170.664,171.91,165.729Z" transform="translate(-123.794 -113.398)" fill="#eb996e"/><path d="M110.938,62.979c.409-.454-.147-1.166-.728-1.379s-1.3-.307-1.575-.855c-.336-.667.258-1.416.364-2.156a8.373,8.373,0,0,0-.479-2.332,2.942,2.942,0,0,1,3.867-3.273,3.83,3.83,0,0,1,6.792-2.271,10.806,10.806,0,0,1,2.426-1.526A3.642,3.642,0,0,1,124.4,49.1a2.23,2.23,0,0,1,1.358,2.3,2.426,2.426,0,0,1,2.827-.5,3.629,3.629,0,0,1,1.837,2.365,3.861,3.861,0,0,1-1.06,3.944,2.736,2.736,0,0,1-3.826-.348" transform="translate(-94.286 -48.865)" fill="#263238"/><path d="M119.545,94.45h0a5.679,5.679,0,0,0,5.7-5.372c.127-2.508.233-4.91.233-4.91s4.656-.34,5.086-4.91.487-15.086.487-15.086h0a16.154,16.154,0,0,0-16.224.708l-.442.282-.536,23.564a5.679,5.679,0,0,0,5.7,5.724Z" transform="translate(-97.46 -56.816)" fill="#ffbe9d"/><path d="M133.033,83.949a.663.663,0,0,1,.409.818.675.675,0,0,1-.847.409.659.659,0,0,1-.409-.818A.671.671,0,0,1,133.033,83.949Z" transform="translate(-108.276 -69.572)" fill="#263238"/><path d="M134.038,83.519c-.078.074-.511-.3-1.142-.336s-1.117.254-1.182.172.049-.176.258-.319a1.563,1.563,0,0,1,.949-.233,1.543,1.543,0,0,1,.9.368C134.013,83.339,134.074,83.487,134.038,83.519Z" transform="translate(-108.004 -68.914)" fill="#263238"/><path d="M150.023,83.949a.667.667,0,0,1,.409.818.675.675,0,0,1-.847.409.659.659,0,0,1-.409-.818A.671.671,0,0,1,150.023,83.949Z" transform="translate(-118.314 -69.572)" fill="#263238"/><path d="M151.233,83.555c-.074.074-.507-.3-1.142-.34s-1.113.258-1.178.172.049-.176.258-.315a1.575,1.575,0,0,1,1.854.131C151.213,83.371,151.27,83.518,151.233,83.555Z" transform="translate(-118.166 -68.933)" fill="#263238"/><path d="M142.92,88.707a3.1,3.1,0,0,1,1.043-.135c.168,0,.3-.029.319-.119a.9.9,0,0,0-.082-.479c-.127-.409-.258-.859-.409-1.313a19.156,19.156,0,0,1-.818-3.441,18.46,18.46,0,0,1,1.158,3.339c.127.458.25.9.372,1.326a1.047,1.047,0,0,1,.033.687.434.434,0,0,1-.307.241,1,1,0,0,1-.286,0A3.167,3.167,0,0,1,142.92,88.707Z" transform="translate(-114.636 -69.162)" fill="#263238"/><path d="M137.659,97.92a15.807,15.807,0,0,0,3.036,1.142,1.764,1.764,0,0,1-2.115.528C137.238,98.976,137.659,97.92,137.659,97.92Z" transform="translate(-111.491 -77.848)" fill="#fff"/><path d="M133.851,112.383A10.8,10.8,0,0,1,128,110.21s1.15,3.4,5.773,3.355Z" transform="translate(-105.821 -85.109)" fill="#eb996e"/><path d="M110.385,84.609a.691.691,0,0,0-.651-.7c-.859-.041-2.271.27-2.455,2.615-.254,3.355,3.024,2.582,3.036,2.484S110.369,85.91,110.385,84.609Z" transform="translate(-93.57 -69.566)" fill="#ffbe9d"/><path d="M110.947,89.221a1.182,1.182,0,0,1-.168.078.614.614,0,0,1-.438-.025,1.446,1.446,0,0,1-.577-1.35,1.9,1.9,0,0,1,.225-.818.675.675,0,0,1,.479-.409.3.3,0,0,1,.336.184c.037.1,0,.164.029.168s.078-.049.061-.188a.352.352,0,0,0-.119-.221.434.434,0,0,0-.319-.11A.818.818,0,0,0,109.8,87a1.96,1.96,0,0,0-.274.921,1.515,1.515,0,0,0,.749,1.51.63.63,0,0,0,.548-.049A.34.34,0,0,0,110.947,89.221Z" transform="translate(-94.905 -71.117)" fill="#eb996e"/><path d="M131.859,78.874c.143.184.642.1,1.289.074s1.158-.029,1.273-.229-.491-.687-1.326-.618S131.7,78.681,131.859,78.874Z" transform="translate(-108.084 -66.134)" fill="#263238"/><path d="M149.775,79.068c.049.233.466.344.941.409s.908,0,1-.221-.311-.573-.921-.626S149.726,78.843,149.775,79.068Z" transform="translate(-118.684 -66.447)" fill="#263238"/><path d="M131.634,64.387a7.566,7.566,0,0,1-6.358-.458c-2.361-1.178-5.111-1.751-5.728-1.277s-.737,2.905-3.073,3.613c0,0,.16,4.64-1.69,4.472s-.691-7.365-.691-7.365l4.5-2.21,4.939-.933,4.652.655,3.6.986Z" transform="translate(-97.392 -55.58)" fill="#263238"/><path d="M81.8,129.576c4.836-4.971,13.343-4.431,13.343-4.431l11.048.409a25.962,25.962,0,0,1,8.142,2.52l.27.086v.053c3.1,1.682,7.48,5.728,11.653,9.624l-5,4.632-5.528,4.91a.143.143,0,0,1,0,.1c-.057.295.9,6.236,1.743,11.363a27.893,27.893,0,0,1-29.358,2.991l-.409-4.742c-.376-4.3-.663-9.624-.663-9.624" transform="translate(-78.524 -93.923)" fill="#ff8900"/><path d="M152.235,128.24a.88.88,0,0,1,.086.2c.057.155.127.352.209.593.18.516.409,1.268.712,2.2.577,1.866,1.318,4.464,2.017,7.365s1.228,5.548,1.567,7.475c.168.962.295,1.739.372,2.283.033.25.061.454.082.622a.9.9,0,0,1,0,.221.769.769,0,0,1-.057-.213l-.123-.618c-.11-.565-.258-1.334-.442-2.271-.372-1.915-.925-4.554-1.637-7.451s-1.416-5.491-1.956-7.365c-.266-.912-.487-1.665-.646-2.218l-.172-.606a.761.761,0,0,1-.012-.225Z" transform="translate(-120.138 -95.762)" fill="#263238"/><path d="M163.339,160.406c-.037-.045,2.079-1.829,4.722-3.985s4.824-3.867,4.861-3.822-2.079,1.829-4.726,3.985S163.376,160.451,163.339,160.406Z" transform="translate(-126.7 -110.154)" fill="#263238"/><path d="M91.149,152.67,86.82,166.9l1.612.818L90.02,163.7S91.648,155.26,91.149,152.67Z" transform="translate(-81.49 -110.196)" opacity="0.2"/><g transform="translate(25.49 31.537)" opacity="0.2"><path d="M142.228,126.889c2.332,1.228-3.511,4.19-6.138,4.112l1.919-5.061A26.365,26.365,0,0,1,142.228,126.889Z" transform="translate(-136.09 -125.94)"/></g><path d="M112.71,120.5V116.73s7.365,1.894,7.631,6.3c0,0,.937-4.869,4.73-5.106l.536,6.849-4.415,3.842H116.72l-3.543-3.056-.466-4.755" transform="translate(-96.787 -88.962)" fill="#ff8900"/><path d="M132.939,154.217a.7.7,0,0,1,0-.209v-.6c0-.52.025-1.277.029-2.205,0-1.862-.045-4.435-.278-7.267s-.606-5.376-.925-7.214c-.155-.917-.291-1.637-.409-2.169-.041-.237-.078-.434-.106-.589a.756.756,0,0,1-.02-.213,1.034,1.034,0,0,1,.061.2c.041.16.09.352.147.585.123.5.282,1.227.462,2.16a68.822,68.822,0,0,1,1.2,14.5c-.025.933-.057,1.69-.1,2.21,0,.237-.033.438-.045.6A.65.65,0,0,1,132.939,154.217Z" transform="translate(-107.728 -99.018)" fill="#263238"/><path d="M119.62,126.182a.818.818,0,0,0-.438.033.908.908,0,0,0-.409.315,3.158,3.158,0,0,0-.344.626,21.036,21.036,0,0,0-1.408,4.092l-.033.139-.123-.074c-.442-.266-.892-.552-1.346-.863a27.26,27.26,0,0,1-2.385-1.809,3.011,3.011,0,0,1-.818-1.056,3.42,3.42,0,0,1-.25-1.133,6.767,6.767,0,0,1,.155-1.637,2.656,2.656,0,0,1,.155-.585,3.461,3.461,0,0,1-.074.6,7.91,7.91,0,0,0-.086,1.637,3.3,3.3,0,0,0,.258,1.068,2.864,2.864,0,0,0,.782.982,28.638,28.638,0,0,0,2.373,1.78c.45.307.9.593,1.334.859l-.155.065a18.887,18.887,0,0,1,1.489-4.092,3.1,3.1,0,0,1,.385-.634,1,1,0,0,1,.462-.319C119.468,126.067,119.632,126.182,119.62,126.182Z" transform="translate(-96.405 -93.393)" fill="#263238"/><path d="M136.931,119.65a2.941,2.941,0,0,1,.061.589c.029.409.065.962.11,1.608s.135,1.477.27,2.365a3.924,3.924,0,0,1,.09,1.436,2.48,2.48,0,0,1-.962,1.228,10.666,10.666,0,0,0-1.637,1.227l-.16.184v-.245a8.781,8.781,0,0,0-1.1-3.683c-.471-.839-.859-1.268-.818-1.289a1.547,1.547,0,0,1,.286.295,7.165,7.165,0,0,1,.663.929,8.478,8.478,0,0,1,1.191,3.728l-.18-.061a10.258,10.258,0,0,1,1.637-1.268,2.275,2.275,0,0,0,.888-1.1,3.908,3.908,0,0,0-.078-1.358c-.127-.9-.192-1.706-.229-2.385s-.041-1.228-.041-1.612A3.614,3.614,0,0,1,136.931,119.65Z" transform="translate(-108.646 -90.687)" fill="#263238"/><path d="M184.758,122c-.3.352-11.138,14.845-11.138,14.845l1.526.863,11.121-14.321Z" transform="translate(-132.774 -92.075)" fill="#263238"/><path d="M86.062,143.325s11.4,16.416,12.091,16.739c1.35.634,16.952-12.848,18.441-14.137.2-.274.626-.851,1.457-2,0,0,1.228-5.634,2.545-5.2s-.72,2.864.135,5,4.775-2.962,4.91-3.421l1.011-1.322a17.3,17.3,0,0,1,.986,4.259c-.229,4.018-4.03,8.8-4.03,8.8s-17.054,21.154-28.748,21.792c-3.367.188-9.354-9.366-13.355-16.534A9.82,9.82,0,0,1,84.3,144.614Z" transform="translate(-77.622 -101.943)" fill="#ffbe9d"/><path d="M191.388,147.23c-.029-.02.34-.663.745-1.481s.691-1.5.724-1.489a6.809,6.809,0,0,1-.61,1.547,7.14,7.14,0,0,1-.859,1.424Z" transform="translate(-143.271 -105.227)" fill="#eb996e"/><path d="M80.3,130.39s-12.238,4.341-3.151,24.935L91.28,146.8l-2.009-4.812Z" transform="translate(-73.794 -97.032)" fill="#ff8900"/><path d="M84.231,131.26h.381a4.869,4.869,0,0,1,1.092.143,5.892,5.892,0,0,1,1.6.679,8.813,8.813,0,0,1,1.776,1.461,21.42,21.42,0,0,1,3.318,4.975c1.035,2,2,4.28,2.991,6.674l.867,2.095.037.09-.086.045c-4.092,2.23-7.647,4.317-10.16,5.884-1.256.782-2.259,1.424-2.946,1.87l-.79.511a2,2,0,0,1-.282.168,2.427,2.427,0,0,1,.258-.2c.176-.123.434-.311.769-.544.675-.466,1.665-1.129,2.917-1.927,2.5-1.6,6.043-3.711,10.135-5.949l-.049.135-.867-2.095c-.99-2.394-1.948-4.669-2.966-6.665a21.89,21.89,0,0,0-3.273-4.951,8.691,8.691,0,0,0-1.735-1.465,5.958,5.958,0,0,0-1.518-.72A8.461,8.461,0,0,0,84.231,131.26Z" transform="translate(-78.66 -97.546)" fill="#263238"/></g><g transform="translate(103.838 113.253)"><path d="M247.821,264.714a2.565,2.565,0,1,1-2.553-2.574A2.565,2.565,0,0,1,247.821,264.714Z" transform="translate(-228.918 -239.263)" fill="#263238"/><path d="M232.914,252.938a7.1,7.1,0,0,1,10.278-.135,1.447,1.447,0,0,0,2.046-2.046,10.021,10.021,0,0,0-14.358.115c-1.281,1.346.745,3.4,2.046,2.046Z" transform="translate(-221.699 -230.781)" fill="#263238"/><path d="M211.539,219.073a20.976,20.976,0,0,1,13.764-5.5,20.434,20.434,0,0,1,14.043,5.372c1.35,1.268,3.4-.757,2.046-2.046a23.413,23.413,0,0,0-16.08-6.228,23.969,23.969,0,0,0-15.806,6.338c-1.408,1.227.63,3.273,2.046,2.046Z" transform="translate(-209.031 -208.852)" fill="#263238"/><path d="M220.052,236.422a14.1,14.1,0,0,1,20.728-.3c1.3,1.334,3.343-.7,2.046-2.046a16.985,16.985,0,0,0-24.808.278c-1.256,1.358.769,3.412,2.046,2.046Z" transform="translate(-214.107 -219.584)" fill="#263238"/><path d="M247.951,260.284a2.565,2.565,0,1,1-2.553-2.574,2.566,2.566,0,0,1,2.553,2.574Z" transform="translate(-228.994 -236.645)" fill="#455a64"/><path d="M233.044,248.455a7.1,7.1,0,0,1,10.278-.139,1.447,1.447,0,0,0,2.046-2.046,10.021,10.021,0,0,0-14.358.119c-1.281,1.342.745,3.4,2.046,2.046Z" transform="translate(-221.776 -228.131)" fill="#455a64"/><path d="M211.691,214.617a21,21,0,0,1,13.768-5.5,20.418,20.418,0,0,1,14.043,5.372c1.35,1.268,3.4-.757,2.046-2.046a23.392,23.392,0,0,0-16.06-6.211,23.979,23.979,0,0,0-15.81,6.338c-1.4,1.227.63,3.273,2.046,2.046Z" transform="translate(-209.134 -206.228)" fill="#455a64"/><path d="M220.172,231.937a14.108,14.108,0,0,1,20.728-.295c1.3,1.334,3.347-.7,2.046-2.046a16.985,16.985,0,0,0-24.808.278c-1.256,1.358.769,3.412,2.046,2.046Z" transform="translate(-214.178 -216.937)" fill="#455a64"/></g></g></g></svg>