<svg xmlns="http://www.w3.org/2000/svg" width="310.264" height="176.583" viewBox="0 0 310.264 176.583"><g transform="translate(-2125.454 10035.237)"><path d="M80,0H302.2a0,0,0,0,1,0,0V78.5a80,80,0,0,1-80,80H0a0,0,0,0,1,0,0V80A80,80,0,0,1,80,0Z" transform="translate(2125.454 -10017.154)" fill="#2df0da"/><g transform="translate(2153.151 -10112.33)"><g transform="translate(29.065 44.91)"><rect width="54.217" height="30.707" rx="15.353" transform="translate(202.699 146.402) rotate(180)" fill="#f5f5f5"/><path d="M347.16,332.48h6.866l.311.757s-.942,6.4-9.166,7.728C345.17,340.965,348.753,336.855,347.16,332.48Z" transform="translate(-189.972 -188.358)" fill="#f5f5f5"/><rect width="41.532" height="23.525" rx="11.762" transform="translate(253.502 82.794) rotate(180)" fill="#f5f5f5"/><path d="M346.539,88.37H351.8l.241.576s-.727,4.906-7.016,5.924C345.01,94.87,347.756,91.723,346.539,88.37Z" transform="translate(-127.898 -7.321)" fill="#f5f5f5"/><path d="M332.206,173h8.164l.371.9s-1.118,7.618-10.9,9.191C329.84,183.089,334.1,178.2,332.206,173Z" transform="translate(-182.325 -108.805)" fill="#f5f5f5"/><rect width="67.503" height="28.111" rx="13.55" transform="translate(204.488 68.305) rotate(180)" fill="#f5f5f5"/><path d="M133.639,267.21h-7.6l-.351.837s1.047,7.077,10.149,8.58C135.839,276.627,131.859,272.056,133.639,267.21Z" transform="translate(-80.489 -155.8)" fill="#f5f5f5"/><rect width="62.822" height="26.161" rx="13.081" transform="translate(0 87.55)" fill="#f5f5f5"/><path d="M161.8,85.87h-5.568l-.251.672s.762,5.678,7.427,6.856C163.407,93.4,160.5,89.749,161.8,85.87Z" transform="translate(-162.599 68.293)" fill="#f5f5f5"/><rect width="46.012" height="20.964" rx="10.482" transform="translate(-39.731 135.038)" fill="#f5f5f5"/></g><g transform="translate(22.6 251.999)"><path d="M250.532,458.25c0,.075-51.029.13-113.961.13S22.6,458.326,22.6,458.25s51.019-.13,113.971-.13S250.532,458.18,250.532,458.25Z" transform="translate(-22.6 -458.12)" fill="#263238"/></g><g transform="translate(178.244 125.142)"><path d="M338.051,205h42.013a4.7,4.7,0,0,1,4.7,4.7v13.752a4.7,4.7,0,0,1-4.7,4.7h-5.618a10.726,10.726,0,0,0,2.381,5.713c-5.207-.837-7.518-3.719-8.47-5.713H338.051a4.7,4.7,0,0,1-4.7-4.7V209.686A4.7,4.7,0,0,1,338.051,205Z" transform="translate(-333.255 -205)" fill="#fafafa"/><path d="M337.957,205a7.634,7.634,0,0,0-1.128.165,4.671,4.671,0,0,0-3.508,4.009c-.04.431-.03.892-.03,1.368v12.645a4.912,4.912,0,0,0,.391,2.115,4.611,4.611,0,0,0,3.468,2.686,6.786,6.786,0,0,0,1.2.065h29.935l.035.07a9.592,9.592,0,0,0,3.388,3.8,11.408,11.408,0,0,0,2.376,1.178,15.83,15.83,0,0,0,2.611.667l-.115.21a11.492,11.492,0,0,1-1.624-2.661,9.331,9.331,0,0,1-.792-3.127v-.14h6.169a4.561,4.561,0,0,0,4.009-3.363,6.516,6.516,0,0,0,.16-1.829V210.182a4.771,4.771,0,0,0-.907-3.172,4.576,4.576,0,0,0-2.7-1.739,7.207,7.207,0,0,0-1.614-.11H360.2l-16.278-.045h0l16.278-.04h19.13a7.518,7.518,0,0,1,1.664.11,4.786,4.786,0,0,1,2.837,1.829,5.012,5.012,0,0,1,.962,3.313V223a6.59,6.59,0,0,1-.165,1.894,4.831,4.831,0,0,1-4.225,3.558c-.667.04-1.3,0-1.95,0h-4.1l.13-.14a10.374,10.374,0,0,0,2.35,5.638l.221.276-.341-.06a17.111,17.111,0,0,1-2.661-.677,12.029,12.029,0,0,1-2.426-1.208,9.853,9.853,0,0,1-3.478-3.9l.115.07h-29.85a6.788,6.788,0,0,1-1.233-.07,4.741,4.741,0,0,1-2.2-.972,4.9,4.9,0,0,1-1.413-1.839,5.042,5.042,0,0,1-.4-2.185V210.738a12.438,12.438,0,0,1,.04-1.378,4.721,4.721,0,0,1,3.583-4.009,3.878,3.878,0,0,1,.847-.115Z" transform="translate(-333.161 -205)" fill="#263238"/></g><g transform="translate(114.384 77.093)"><path d="M251.186,63H221.967a7.477,7.477,0,0,0-7.477,7.477V83.683a7.472,7.472,0,0,0,7.477,7.472h18.839a11.8,11.8,0,0,1-2.7,6.9c6.285-1,8.786-4.661,9.748-6.9h3.353a7.472,7.472,0,0,0,7.478-7.472V70.452A7.477,7.477,0,0,0,251.186,63Z" transform="translate(-214.37 -62.88)" fill="#fafafa"/><path d="M251.066,62.88a1.823,1.823,0,0,1,.19,0h.556a7.748,7.748,0,0,1,2.1.5,7.518,7.518,0,0,1,4.661,6.295c0,.221.025.446.035.672V82.331c0,.606,0,1.223-.03,1.859a8.9,8.9,0,0,1-.14.952,6.82,6.82,0,0,1-.271.932,7.548,7.548,0,0,1-6.1,4.972,15.035,15.035,0,0,1-2.175.08h-2.2l.105-.07a10.961,10.961,0,0,1-3.849,4.676,13.337,13.337,0,0,1-2.832,1.478,18.433,18.433,0,0,1-3.152.822l-.331.06.215-.266a13.031,13.031,0,0,0,1.864-3.127,9.943,9.943,0,0,0,.8-3.694l.13.13h-18.8a4.806,4.806,0,0,1-.927-.06,7.613,7.613,0,0,1-3.408-1.3,7.853,7.853,0,0,1-2.386-2.686,7.763,7.763,0,0,1-.877-3.423V70.4a7.518,7.518,0,0,1,.642-3.082,7.638,7.638,0,0,1,4.28-4.054,7.964,7.964,0,0,1,2.817-.5h7.873l15.536.04h5.688l-.376.08H245.4l-15.536.04h-7.873a7.628,7.628,0,0,0-2.741.5,7.4,7.4,0,0,0-4.12,3.969c-.892,1.859-.541,4.044-.611,6.194s0,4.385,0,6.651v3.438a7.463,7.463,0,0,0,.847,3.3,7.578,7.578,0,0,0,2.305,2.6,7.442,7.442,0,0,0,3.293,1.253c.3.04.6.035.9.06H240.8v.13a10.164,10.164,0,0,1-.817,3.784,13.316,13.316,0,0,1-1.909,3.2l-.115-.205a18.85,18.85,0,0,0,3.107-.807,12.925,12.925,0,0,0,2.776-1.448,10.755,10.755,0,0,0,3.779-4.571l.03-.07h2.285a16.784,16.784,0,0,0,2.145-.075,7.413,7.413,0,0,0,6.2-5.728c.055-.306.11-.616.14-.922.045-.616.03-1.238.035-1.844V70.348l-.03-.662a7.457,7.457,0,0,0-4.556-6.235,8.219,8.219,0,0,0-2.812-.571Z" transform="translate(-214.25 -62.76)" fill="#263238"/></g><g transform="translate(48.661 170.017)"><path d="M79.23,294.62H106a4.48,4.48,0,0,1,4.48,4.48v11.281a4.475,4.475,0,0,1-4.48,4.475H87.149c-1.153,1.914-3.473,4.245-8.079,5.012a11.066,11.066,0,0,0,2.32-5.012H79.23a4.476,4.476,0,0,1-4.48-4.475V299.1a4.48,4.48,0,0,1,4.48-4.48Z" transform="translate(-74.675 -294.579)" fill="#fafafa"/><path d="M79.156,294.58a5.173,5.173,0,0,0-1.894.466,4.374,4.374,0,0,0-2.371,2.852,5.618,5.618,0,0,0-.15,1.674c0,2.406,0,5.327.025,8.675v1.278c0,.431,0,.872.035,1.3a4.39,4.39,0,0,0,3.508,3.794,7.9,7.9,0,0,0,1.473.085h1.664v.13a10.961,10.961,0,0,1-2.325,5.047l-.11-.2a13.23,13.23,0,0,0,4.465-1.5,9.772,9.772,0,0,0,3.508-3.413l.035-.06h18.508a5.612,5.612,0,0,0,1.4-.115,4.34,4.34,0,0,0,3.353-3.879c.04-3.684,0-7.277.025-10.675a6.405,6.405,0,0,0-.266-2.451,4.36,4.36,0,0,0-3.478-2.827,8.721,8.721,0,0,0-1.148-.05H95.845l-12.2-.04-3.333-.065h0l3.318-.025,12.2-.04h9.542a7.81,7.81,0,0,1,1.178.045,4.591,4.591,0,0,1,3.669,2.967,4.275,4.275,0,0,1,.271,1.253c.03.436,0,.847,0,1.278,0,3.408.025,6.966,0,10.695a4.611,4.611,0,0,1-3.548,4.115,6.015,6.015,0,0,1-1.458.12H87.074l.105-.065a9.948,9.948,0,0,1-3.618,3.508A13.532,13.532,0,0,1,79.015,320l-.306.05.2-.246a10.775,10.775,0,0,0,2.285-4.992l.11.13H79.767a7.293,7.293,0,0,1-1.5-.09,4.591,4.591,0,0,1-2.506-1.458,4.511,4.511,0,0,1-1.123-2.506,13.251,13.251,0,0,1-.03-1.328q0-.646,0-1.278c0-3.348,0-6.27.025-8.675a5.693,5.693,0,0,1,.17-1.7,4.631,4.631,0,0,1,.641-1.373,4.511,4.511,0,0,1,1.809-1.5,4.586,4.586,0,0,1,1.418-.386A2.177,2.177,0,0,1,79.156,294.58Z" transform="translate(-74.6 -294.539)" fill="#263238"/></g><g transform="translate(38.226 83.162)"><path d="M107.084,121.44H62.69a8.63,8.63,0,0,0-8.63,8.63V144.2a8.635,8.635,0,0,0,8.63,8.635H99.957c.8,2.366,3.433,7.518,11.6,8.841,0,0-3.588-4.115-3.062-8.966a8.63,8.63,0,0,0,7.222-8.52V130.06A8.63,8.63,0,0,0,107.084,121.44Z" transform="translate(-53.92 -121.338)" fill="#fafafa"/><path d="M106.944,121.338h.722a8.209,8.209,0,0,1,2.06.411,8.44,8.44,0,0,1,2.947,1.689l.381.346c.125.125.241.261.366.4a9.772,9.772,0,0,1,.7.877,9.372,9.372,0,0,1,1.093,2.21,9.6,9.6,0,0,1,.431,2.716q0,1.443,0,3.007v10.575a12.078,12.078,0,0,1-.125,1.98,8.775,8.775,0,0,1-3.132,5.327,9.332,9.332,0,0,1-1.879,1.158,9.592,9.592,0,0,1-2.165.662l.09-.1a12.658,12.658,0,0,0,3.042,8.881l.19.241-.3-.05a16.965,16.965,0,0,1-6.961-2.681,13.031,13.031,0,0,1-2.837-2.7,12.529,12.529,0,0,1-1.894-3.538l.115.085h-36.2a15.311,15.311,0,0,1-2.391-.115A8.74,8.74,0,0,1,56.9,150.8a9.457,9.457,0,0,1-1.579-1.739,8.806,8.806,0,0,1-1.047-2.08,9.4,9.4,0,0,1-.316-1.113,9.98,9.98,0,0,1-.145-1.148c-.06-.772,0-1.5-.03-2.27V131.5c0-.707,0-1.413.03-2.13a8.745,8.745,0,0,1,4.15-6.841,8.65,8.65,0,0,1,3.744-1.253c.657-.045,1.3-.045,1.935-.04H79.42l20.127.04h5.468l-5.468.025-20.127.04H63.658c-.636,0-1.278,0-1.909.045a8.425,8.425,0,0,0-3.649,1.228,8.836,8.836,0,0,0-1.559,1.218,9.055,9.055,0,0,0-1.238,1.579,8.269,8.269,0,0,0-1.233,3.864c-.05.687,0,1.4-.03,2.115v11.071a11.61,11.61,0,0,0,.5,4.445,8.6,8.6,0,0,0,1,2,8.911,8.911,0,0,0,1.534,1.689,8.41,8.41,0,0,0,4.16,1.884,14.032,14.032,0,0,0,2.351.115H99.9l.03.085a12.374,12.374,0,0,0,1.849,3.463,12.925,12.925,0,0,0,2.781,2.656,16.7,16.7,0,0,0,6.861,2.651l-.105.185a14.739,14.739,0,0,1-2.446-4.345,10.7,10.7,0,0,1-.631-4.711v-.075h.08a9.146,9.146,0,0,0,2.115-.642,9.051,9.051,0,0,0,1.839-1.128,8.585,8.585,0,0,0,2.506-3.283,8.745,8.745,0,0,0,.571-1.914,11.617,11.617,0,0,0,.125-1.95V130.013a9.352,9.352,0,0,0-.416-2.676,9.162,9.162,0,0,0-1.032-2.21,9.413,9.413,0,0,0-.687-.872c-.12-.13-.236-.266-.356-.391l-.376-.346a8.43,8.43,0,0,0-2.907-1.7,8.891,8.891,0,0,0-2.045-.441Z" transform="translate(-53.78 -121.236)" fill="#263238"/></g><g transform="translate(84.465 112.426)"><path d="M274.533,230.876a3.9,3.9,0,0,1-3.654-1.634,4.6,4.6,0,0,0,2.807-.155c.847-.436,1.333-1.684.667-2.366-.5-.531-1.378-.441-2.12-.5a4.581,4.581,0,0,1-3.9-3.007c-.626-1.8-.05-3.774.175-5.673a15.627,15.627,0,0,0-6.545-14.379l-11.888-6.871c-4.315,5.513-5.658,12.96-4.766,19.907s3.844,13.476,7.387,19.546a23.008,23.008,0,0,0,3.588,4.937,9.156,9.156,0,0,0,5.342,2.746,5.513,5.513,0,0,0-.882-4.977,12.028,12.028,0,0,0,8.836-3.213l-2.551-1.955a9.3,9.3,0,0,0,7.5-2.406Z" transform="translate(-195.429 -187.939)" fill="#263238"/><path d="M212.463,211.841a11.148,11.148,0,0,1,8.084-10.5l14.91-4.26c6.47-.887,11.026,6.976,11.642,13.476.682,7.227,1.188,14.855.5,20.282-1.388,10.91-9.668,12.529-9.668,12.529s.276,9.833.361,13.005l-7.588,15.877L216.012,251.97l-3.583-40C212.418,211.786,212.453,212.087,212.463,211.841Z" transform="translate(-179.156 -188.299)" fill="#ffbf9d"/><path d="M269.946,241.785a1.4,1.4,0,0,1-1.3,1.448,1.333,1.333,0,0,1-1.473-1.213,1.4,1.4,0,0,1,1.3-1.448,1.338,1.338,0,0,1,1.478,1.213Z" transform="translate(-206.463 -210.024)" fill="#263238"/><path d="M273.121,231.256c-.165.19-1.243-.561-2.741-.5s-2.576.837-2.741.657c-.085-.08.08-.411.551-.777a3.824,3.824,0,0,1,2.185-.747,3.659,3.659,0,0,1,2.19.631C273.041,230.85,273.207,231.176,273.121,231.256Z" transform="translate(-206.687 -204.697)" fill="#263238"/><path d="M243.565,241.785a1.4,1.4,0,0,1-1.3,1.448,1.333,1.333,0,0,1-1.473-1.213,1.4,1.4,0,0,1,1.3-1.448,1.338,1.338,0,0,1,1.478,1.213Z" transform="translate(-193.304 -210.024)" fill="#263238"/><path d="M244.719,232.066c-.165.19-1.248-.556-2.741-.5s-2.576.837-2.746.657c-.08-.08.085-.411.556-.777a3.814,3.814,0,0,1,2.185-.747,3.674,3.674,0,0,1,2.19.631C244.618,231.66,244.8,231.986,244.719,232.066Z" transform="translate(-192.517 -205.101)" fill="#263238"/><path d="M259.143,244.253a10.281,10.281,0,0,1,2.421-.5c.381-.05.742-.14.8-.4a1.944,1.944,0,0,0-.286-1.128l-1.223-2.877c-1.7-4.1-2.942-7.477-2.776-7.548s1.679,3.2,3.378,7.3c.406,1,.8,2,1.173,2.9a2.215,2.215,0,0,1,.246,1.5.972.972,0,0,1-.611.581,2.906,2.906,0,0,1-.647.11A10.3,10.3,0,0,1,259.143,244.253Z" transform="translate(-201.92 -205.651)" fill="#263238"/><path d="M234.35,282.66s3.744,7.357,14.584,6.014l-.07-2.556A27.394,27.394,0,0,1,234.35,282.66Z" transform="translate(-190.092 -231.023)" fill="#ff9a6c"/><path d="M242.21,222.734c-.135.411-1.639.266-3.393.531s-3.157.787-3.4.431c-.11-.17.125-.561.687-1a5.979,5.979,0,0,1,5.177-.732C241.909,222.228,242.245,222.539,242.21,222.734Z" transform="translate(-190.61 -200.601)" fill="#263238"/><path d="M272.281,222.033c-.256.351-1.3.03-2.541.05s-2.285.3-2.536-.05c-.115-.17.04-.5.5-.852a3.508,3.508,0,0,1,2.045-.621,3.563,3.563,0,0,1,2.045.621C272.235,221.522,272.391,221.868,272.281,222.033Z" transform="translate(-206.462 -200.045)" fill="#263238"/><path d="M248.972,260.957a1.95,1.95,0,0,1,1.975-1.539,2,2,0,0,1,1.6,1.073,2.506,2.506,0,0,1,.145,1.955l-.025.14a2.23,2.23,0,0,1-2.506.6A2.075,2.075,0,0,1,248.972,260.957Z" transform="translate(-197.372 -219.429)" fill="#ff9a6c"/><path d="M254.3,261.6c0-.231-1.5-.115-2.7-1.323s-1.133-2.837-1.348-2.832c-.1,0-.266.381-.231,1.068a3.774,3.774,0,0,0,1.042,2.366,3.263,3.263,0,0,0,2.25,1C253.954,261.905,254.315,261.7,254.3,261.6Z" transform="translate(-197.909 -218.447)" fill="#263238"/><path d="M222.5,185.868a15.267,15.267,0,0,1,8.74-6.014c3.538-.616,5.668,0,7.994,2.11a8.815,8.815,0,0,0,3.508,2.075c1.7.331,3.112.05,5.137,1.088,2.761,1.413,3.974,5.107,5.252,7.934,1.594,3.508,3.859,6.746,4.9,10.459s.5,8.279-2.641,10.525c.536-2.847,1-5.979-.19-8.555a7.442,7.442,0,0,1-.19,3.082,12.844,12.844,0,0,0-2.416-4.686c-1.143-1.218-2.726-1.945-3.909-3.127-1.729-1.739-2.506-4.39-4.636-5.648-2.19-1.313-4.957-.662-7.518-.646a14.4,14.4,0,0,1-11.191-5.393l.631-.055A17.982,17.982,0,0,1,222.5,185.868Z" transform="translate(-184.181 -179.627)" fill="#263238"/><path d="M189.942,217.8c1-3.2,2.686-6.119,3.759-9.282,1.042-3.082,1.473-6.375,2.857-9.317,1.864-3.959,5.347-9.086,10.77-8.806l.371.326a11.662,11.662,0,0,1,5.468.652l.085,4.23,1.037.917c-.436.837-.847,1.649-1.248,2.446a26.186,26.186,0,0,1-1.363,4.656,12.028,12.028,0,0,1-2.6,3.959c-9.347,22.377-.872,23.791-5.082,36.616l-2.646-7.342a13.1,13.1,0,0,1-5.237-5.643c-.155.772-.316,1.549-.471,2.325a13.5,13.5,0,0,1-3.649-8.334l-1.213,2.23C188.834,224.709,188.97,221,189.942,217.8Z" transform="translate(-167.595 -184.995)" fill="#263238"/><path d="M215.694,242.848c-.145-.366-6.9-2.586-6.786,4.511.11,6.906,7.016,5.353,7.046,5.152S215.694,242.848,215.694,242.848Z" transform="translate(-177.4 -210.856)" fill="#ffbf9d"/><path d="M215.5,252.2c-.03,0-.12.085-.321.185a1.208,1.208,0,0,1-.9.035,2.976,2.976,0,0,1-1.428-2.646,4.009,4.009,0,0,1,.3-1.729,1.393,1.393,0,0,1,.887-.942.611.611,0,0,1,.717.316c.1.2.055.331.09.346s.15-.12.085-.406a.782.782,0,0,0-.276-.426.937.937,0,0,0-.672-.165,1.7,1.7,0,0,0-1.238,1.1,4.1,4.1,0,0,0-.376,1.935,3.124,3.124,0,0,0,1.809,2.947,1.283,1.283,0,0,0,1.1-.205C215.492,252.394,215.527,252.214,215.5,252.2Z" transform="translate(-179.128 -213.116)" fill="#ff9a6c"/><path d="M215.541,260.082a1.368,1.368,0,1,0,.326.1" transform="translate(-179.918 -219.751)" fill="#fff"/><path d="M215.762,260.13a1.854,1.854,0,0,1,.647.907,1.173,1.173,0,0,1-.236,1.093,1.208,1.208,0,0,1-2.145-.616,1.188,1.188,0,0,1,.376-1.052,1.864,1.864,0,0,1,1.032-.426.6.6,0,0,0-.326-.065,1.408,1.408,0,0,0-.852.326,1.373,1.373,0,0,0-.5,1.258,1.5,1.5,0,0,0,2.651.762,1.373,1.373,0,0,0,.231-1.343,1.388,1.388,0,0,0-.551-.727C215.877,260.125,215.767,260.11,215.762,260.13Z" transform="translate(-179.814 -219.704)" fill="#263238"/><path d="M231.394,198.383a20.393,20.393,0,0,0-2.7-4.455,22.552,22.552,0,0,0-4.054-3.278,3.854,3.854,0,0,1,1.458.581,11.221,11.221,0,0,1,4.916,5.633,3.919,3.919,0,0,1,.381,1.519Z" transform="translate(-185.247 -185.125)" fill="#455a64"/><path d="M285.353,306.159c-.657-.17,7.613,38.535,7.613,38.535L306.5,364.24h12.935l3.719-2.877s-6.921-13.772-10.189-18.744S296.9,309.126,285.353,306.159Z" transform="translate(-215.515 -242.745)" fill="#ff8900"/><path d="M226.3,304.085,215.814,302c-2.506,9.612-15.832,8.765-23.054,0l-5.784,1.569a81.92,81.92,0,0,0-9.522,3.142c-5.628,2.2-9.131,8.244-10.525,12.434l13.8,38.259-3.508,23.054,59.469-.065-5.408-19.546,1.183-6.29,1.749-5.448c1.744-5.6-.606-15.867-2.32-21.48l-1.864-8.139Z" transform="translate(-156.461 -240.67)" fill="#ff8900"/><g transform="translate(22.031 79.598)" opacity="0.3"><path d="M196.014,338.45s.672,8.019,0,12.028-2.28,23.781-2.28,23.781l20.072,5.974,11.026-3.844-6.42,15.461-11.722,1.679L193.428,379.32,190,369.127l1.884-5.513Z" transform="translate(-190 -338.45)"/></g><path d="M249.995,422.919l-10.685-5.327,1.739-1,3.328,1.062c0,.15,3.1,1.5,4.245,1.208a3.007,3.007,0,0,0,1.769-1.313c.16-.311-3.929-2.4-3.929-2.4l-5.152-2.636-5.513,1.448-9.833,6.134-7.372-2.3c-.185.306-2.822,11.958-2.822,11.958s7.242,2.371,11.4,2c2.827-.236,5.252-2.2,6.661-3.6l1.263.677s4.621,2.25,6.585,2.34.692-1.759.692-1.759l-3.433-2.22-1.4-1.233,2.125.757s3.6,1.844,4.335,2.05c.937.261,1.679.055,2.035-1.253s-7.016-5.628-7.016-5.628L246.2,424.9a4.054,4.054,0,0,0,2.12.306,1.714,1.714,0,0,0,1.468-.917C250.321,422.969,249.995,422.919,249.995,422.919Z" transform="translate(-180.824 -295.796)" fill="#ffbf9d"/><path d="M250.64,423.1a2.4,2.4,0,0,1,.727-.626,5.623,5.623,0,0,1,4.511-.677,2.26,2.26,0,0,1,.877.386,8.8,8.8,0,0,1-.922-.206,6.475,6.475,0,0,0-4.35.652,8.416,8.416,0,0,1-.842.471Z" transform="translate(-198.218 -300.329)" fill="#ff9a6c"/><path d="M257.856,430.428a4.9,4.9,0,0,1-.947-.581,9.848,9.848,0,0,0-2.345-1.2,4.385,4.385,0,0,0-2.561-.055,8.079,8.079,0,0,0-1,.461,1.9,1.9,0,0,1,.932-.631,4.175,4.175,0,0,1,2.706-.025,8.019,8.019,0,0,1,2.376,1.3A4.306,4.306,0,0,1,257.856,430.428Z" transform="translate(-198.398 -303.615)" fill="#ff9a6c"/><path d="M252.244,435.134a4.546,4.546,0,0,1-.581-.216,3.3,3.3,0,0,0-1.423-.16,3.217,3.217,0,0,0-1.358.466c-.321.2-.5.366-.5.336a1.269,1.269,0,0,1,.411-.5,2.877,2.877,0,0,1,2.962-.326C252.094,434.924,252.264,435.114,252.244,435.134Z" transform="translate(-197.091 -306.748)" fill="#ff9a6c"/><path d="M259.466,439.825a6.881,6.881,0,0,1-2.4-2.325,7.687,7.687,0,0,1,1.238,1.123,7.365,7.365,0,0,1,1.158,1.2Z" transform="translate(-201.426 -308.261)" fill="#ff9a6c"/><path d="M175.149,336.386c2.967-15.782-14.173-20.368-18.278-8.73,0,0-4.1,11.863-5.839,18.468-1.614,6.149-3.508,14.033-4.746,21.671-.857,5.272.581,11.527,3.573,12.795,7.813,3.318,38.811,8.279,38.811,8.279l1.924-15.8-22.974-5.433s.957-2.586-.812-2.827l5.538-19.18Z" transform="translate(-146.041 -250.218)" fill="#ff8900"/><path d="M187.48,408.27l.205.1a1.123,1.123,0,0,1,.236.15,1.366,1.366,0,0,1,.291.261,1.5,1.5,0,0,1,.386,1,2.631,2.631,0,0,1-.446,1.4l-.045-.11c1.869.336,4.44.9,7.457,1.624l10.214,2.506c1.914.456,3.769.872,5.513,1.208h.12v.115l-1.423,11.316c-.185,1.383-.331,2.506-.436,3.288-.055.366-.1.657-.13.882a1.3,1.3,0,0,1-.06.3,2.328,2.328,0,0,1,0-.306c.025-.226.05-.5.09-.887.085-.792.21-1.909.361-3.3.336-2.832.8-6.776,1.333-11.326l.1.14c-1.744-.331-3.608-.747-5.513-1.2-3.719-.887-7.192-1.784-10.2-2.531s-5.573-1.333-7.432-1.7H188l.055-.09a2.536,2.536,0,0,0,.451-1.323,1.463,1.463,0,0,0-.331-.957,1.656,1.656,0,0,0-.266-.266,1.338,1.338,0,0,0-.226-.165A.968.968,0,0,1,187.48,408.27Z" transform="translate(-166.712 -293.681)" fill="#263238"/><path d="M194.491,361.1a.772.772,0,0,1-.045.246l-.2.707-.717,2.546c-.611,2.145-1.473,5.107-2.446,8.37s-1.859,6.215-2.506,8.35c-.326,1.032-.6,1.884-.792,2.506-.1.271-.17.5-.231.682a1.043,1.043,0,0,1-.1.231.772.772,0,0,1,.045-.246l.18-.7c.18-.642.421-1.5.712-2.546.616-2.145,1.5-5.107,2.446-8.37s1.864-6.215,2.506-8.35c.326-1.032.6-1.884.792-2.506.09-.271.165-.5.231-.682S194.481,361.095,194.491,361.1Z" transform="translate(-166.702 -270.151)" fill="#263238"/><path d="M191.8,330.6a20.711,20.711,0,0,0-.446-2.506,11.026,11.026,0,0,0-8.52-8.019,19.608,19.608,0,0,0-2.546-.291,3.066,3.066,0,0,1,.692-.055,9.789,9.789,0,0,1,1.889.165,10.825,10.825,0,0,1,8.655,8.149,9.8,9.8,0,0,1,.276,1.879A3.357,3.357,0,0,1,191.8,330.6Z" transform="translate(-163.125 -249.513)" fill="#263238"/><path d="M182.123,408.365c0,.04-.356-.055-.917-.085a4.776,4.776,0,0,0-3.879,1.6c-.376.421-.551.727-.586.707a2,2,0,0,1,.446-.822,4.34,4.34,0,0,1,1.794-1.373,4.436,4.436,0,0,1,2.245-.3A1.935,1.935,0,0,1,182.123,408.365Z" transform="translate(-161.355 -293.575)" fill="#263238"/><path d="M184.964,413.094c0,.08-.907.16-1.93.6s-1.724,1.032-1.774.972A4.591,4.591,0,0,1,184.964,413.094Z" transform="translate(-163.609 -296.084)" fill="#263238"/><path d="M291.38,339.65a1.59,1.59,0,0,1,.18.3c.125.226.281.5.476.882s.456.857.712,1.423.581,1.193.867,1.914.636,1.5.937,2.376c.15.431.326.872.5,1.338s.3.947.446,1.443a43.4,43.4,0,0,1,1.418,6.56,39.74,39.74,0,0,1,.281,6.706c-.085,1.027-.135,2-.291,2.917-.07.456-.12.9-.2,1.313s-.175.817-.256,1.2c-.14.767-.366,1.438-.526,2.035-.09.3-.16.576-.246.832s-.175.471-.251.682l-.356.937a1.846,1.846,0,0,1-.135.321,1.422,1.422,0,0,1,.09-.336c.075-.246.175-.561.306-.957.07-.205.145-.436.226-.687s.145-.531.226-.832c.15-.6.356-1.268.5-2.035.075-.381.155-.782.236-1.2s.12-.852.185-1.308c.145-.9.185-1.874.266-2.9a41.014,41.014,0,0,0-.3-6.666,45.889,45.889,0,0,0-1.388-6.515c-.145-.5-.3-.967-.436-1.433s-.311-.907-.461-1.338c-.291-.867-.616-1.654-.9-2.376s-.586-1.363-.832-1.93-.476-1.047-.667-1.438-.321-.672-.431-.9A2.306,2.306,0,0,1,291.38,339.65Z" transform="translate(-218.54 -259.451)" fill="#263238"/><path d="M291.833,332.74c.065.04-.286.747-.466,1.694s-.13,1.734-.206,1.739a3.077,3.077,0,0,1-.05-1.789A3.122,3.122,0,0,1,291.833,332.74Z" transform="translate(-218.352 -256.004)" fill="#263238"/><g transform="translate(72.322 77.516)" opacity="0.3"><path d="M298.192,348.035a34.547,34.547,0,0,0-3.062-7.227q-1.478-2.842-2.952-5.658c-.19-.361-.426-.762-.827-.842a.951.951,0,0,0-1,.877,2.731,2.731,0,0,0,.356,1.423,104.036,104.036,0,0,1,4.48,11.572c1.228,3.849,2.11,8.991,1.423,12.97A17.508,17.508,0,0,0,298.192,348.035Z" transform="translate(-290.348 -334.296)"/></g><path d="M253.672,382.5a.671.671,0,0,1-.03.231c-.03.145-.06.366-.135.647a15.534,15.534,0,0,1-.762,2.315A17.431,17.431,0,0,1,241,395.936a16.179,16.179,0,0,1-2.4.441c-.286.035-.5.035-.662.045a.789.789,0,0,1-.236,0,8.329,8.329,0,0,1,.882-.14,19.131,19.131,0,0,0,2.366-.5,17.907,17.907,0,0,0,11.617-10.134,18.967,18.967,0,0,0,.817-2.3A7.6,7.6,0,0,1,253.672,382.5Z" transform="translate(-191.768 -280.826)" fill="#263238"/><path d="M372.817,396.443,371.5,395s-9.607,4.315-12.875,6.144c-4.716,2.636-5.317,3.979-5.317,3.979l-.621,3.007,2.22,1.5Z" transform="translate(-249.124 -287.061)" fill="#fff"/><path d="M354.905,409.594h0l-2.225-1.5h0l.621-3.007a3.663,3.663,0,0,1,.892-1,25.115,25.115,0,0,1,4.425-2.982c3.233-1.809,12.78-6.1,12.88-6.149h0l1.328,1.478h0Zm-2.205-1.5,2.2,1.5,17.892-13.151-1.3-1.468c-.331.145-9.678,4.355-12.865,6.139a25.057,25.057,0,0,0-4.42,2.977,3.939,3.939,0,0,0-.887,1Z" transform="translate(-249.119 -287.036)" fill="#263238"/><path d="M308.552,415.093s-.657-6.39-4.816-8.2-16.849,4.686-17.12,4.776S260.6,428.424,260.6,428.424l1.428,1.754,23.4-2.842Z" transform="translate(-203.186 -292.835)" fill="#fff"/><path d="M262.31,430.094l25.424-16.539s13.481-6.811,17.235-4.626a6.96,6.96,0,0,1,3.348,6.375L283.81,429.363l-20.3,2.461Z" transform="translate(-204.039 -293.794)" fill="#e0e0e0"/><path d="M308.671,415.424s-2.085-3.428-11.051-1.889a56.184,56.184,0,0,0-9.928,2.726L263.38,432.845l.842,1,38.59-14.374,6.059-1.2.5-1.062Z" transform="translate(-204.573 -296.109)" fill="#fff"/><path d="M259.46,426.256l22.347-15.05,22.648-3.428,3.423,1.639,18.909-13.406.907,1.042-30.045,24.267-6.445-1.549-7.021,4.942-24.151,2.556Z" transform="translate(-202.618 -287.565)" fill="#35a3be"/><path d="M260.011,427.118l-.15-.236c-.1-.175-.241-.426-.441-.767h0c2.466-1.694,10.6-7.207,22.307-15.115h0l22.643-3.448h.07l3.428,1.639h-.125l18.9-13.416.1-.065.08.09.246.281.662.762.1.105-.115.085-19.2,14.128-.065.045-.07-.035-3.764-2h.075l-22.227,3.618h.04L266.04,423.309l-4.511,2.862-1.173.742-.406.241s.13-.1.386-.266l1.163-.762,4.465-2.907,16.413-10.61h0l22.312-3.724h.08l3.769,2H308.4L327.6,396.752v.19l-.667-.762-.246-.281h.175l-18.929,13.487-.06.045-.05-.045-3.428-1.644h.07l-22.648,3.408h.04c-11.727,7.873-19.9,13.336-22.392,14.98v-.03c.2.351.331.606.426.777Z" transform="translate(-202.598 -287.415)" fill="#263238"/><path d="M303.525,427.056c.06-.04.286.2.5.531s.346.636.286.677-.286-.2-.5-.531S303.465,427.1,303.525,427.056Z" transform="translate(-224.592 -303.049)" fill="#263238"/><path d="M329.433,422.63a1.053,1.053,0,0,1-.19.18c-.16.125-.351.286-.581.476l-2.17,1.7c-1.834,1.433-4.385,3.4-7.212,5.558-1.418,1.073-2.741,2.13-4.009,3.007l-3.363,2.335-2.28,1.554-.626.411c-.145.1-.226.14-.231.13a1.211,1.211,0,0,1,.2-.17l.6-.451,2.235-1.624,3.328-2.381c1.253-.892,2.571-1.955,4.009-3.007,2.827-2.155,5.393-4.095,7.257-5.513l2.215-1.639.611-.436A1,1,0,0,1,329.433,422.63Z" transform="translate(-227.215 -300.844)" fill="#263238"/><path d="M338.206,422.63c-.611.837-2.335,3.578-2.335,3.578a30.1,30.1,0,0,1-1.353,4.9,8.785,8.785,0,0,1-6.8,5.162c-3.443.431-9.186-1.774-9.186-1.774l-7.352-2.746s-1.654-1.418-.281-2.275c0,0-1.218-1.373,1.193-1.98S321.111,430,321.111,430a21.521,21.521,0,0,0-4.39-2.922c-1.639-.6-.942-2,.431-2.155s2.4.341,4.721,1.113,4.4,2.33,5.348,2.33.356-1.534-.5-2.135c-3.483-2.4-2.325-3.2-2.325-3.2s.346-1.2,2.15-.431a46.358,46.358,0,0,1,4.932,2.777c2-.13,2.641-.626,3.092-1.809a4.245,4.245,0,0,1,1.313-1.744l.877-.712a1.062,1.062,0,0,1,1.549,1.423Z" transform="translate(-228.004 -299.967)" fill="#ffbf9d"/><path d="M320.136,442.05a48.755,48.755,0,0,1-4.626-2A47.886,47.886,0,0,1,311,437.81a49.68,49.68,0,0,1,4.626,2A47.968,47.968,0,0,1,320.136,442.05Z" transform="translate(-228.327 -308.416)" fill="#ff9a6c"/><path d="M333.661,440.94a5.583,5.583,0,0,1-1.428-.967A5.718,5.718,0,0,1,331,438.8a10.619,10.619,0,0,1,2.661,2.14Z" transform="translate(-238.304 -308.91)" fill="#ff9a6c"/><path d="M351.964,435.67c.03,0,.115.165.09.471a1.428,1.428,0,0,1-1.714,1.253c-.3-.07-.436-.2-.421-.226a4.378,4.378,0,0,1,.446.04,1.423,1.423,0,0,0,1.5-1.1C351.919,435.835,351.9,435.675,351.964,435.67Z" transform="translate(-247.741 -307.349)" fill="#ff9a6c"/><path d="M342.527,444.118c.025,0,0,.16-.13.351a1.343,1.343,0,0,1-.747.5,1.363,1.363,0,0,1-.892-.06c-.21-.1-.3-.221-.281-.241a2.717,2.717,0,0,0,1.108.05C342.191,444.559,342.462,444.083,342.527,444.118Z" transform="translate(-243.03 -311.562)" fill="#ff9a6c"/><path d="M334.392,448.284c.04.055-.336.316-.857.236s-.807-.431-.752-.476.356.16.787.221S334.357,448.219,334.392,448.284Z" transform="translate(-239.19 -313.518)" fill="#ff9a6c"/><path d="M354.952,427c.025,0,0,.246-.21.561a2.3,2.3,0,0,1-1.183.812,2.645,2.645,0,0,1-1.433.07c-.366-.1-.541-.276-.5-.3s.215.07.556.115a3.057,3.057,0,0,0,1.318-.14,2.58,2.58,0,0,0,1.118-.677C354.817,427.205,354.907,427,354.952,427Z" transform="translate(-248.589 -303.024)" fill="#ff9a6c"/><path d="M307.947,412.789a.441.441,0,0,1-.06-.105c-.035-.085-.085-.185-.145-.316a10.356,10.356,0,0,0-.616-1.183,5.8,5.8,0,0,0-1.383-1.579,4.932,4.932,0,0,0-1.148-.636,6.572,6.572,0,0,0-1.438-.336,10.387,10.387,0,0,0-1.644-.06c-.281.03-.576.03-.867.09s-.591.1-.9.17a30.822,30.822,0,0,0-3.8,1.188,89.632,89.632,0,0,0-8.47,3.729h0l-2.8,1.749c-6.27,3.939-11.918,7.553-15.977,10.209l-4.8,3.167-1.288.867-.341.221-.12.065a.68.68,0,0,1,.105-.09l.326-.241,1.273-.907c1.113-.777,2.731-1.889,4.751-3.233,4.009-2.7,9.668-6.34,15.937-10.279l2.8-1.749h0a86.157,86.157,0,0,1,8.52-3.714,30.565,30.565,0,0,1,3.834-1.173c.311-.07.616-.11.912-.17s.6-.05.892-.08a10.072,10.072,0,0,1,1.669.08,6.1,6.1,0,0,1,1.473.366,4.938,4.938,0,0,1,1.178.667,5.8,5.8,0,0,1,1.378,1.639A8.333,8.333,0,0,1,307.947,412.789Z" transform="translate(-203.965 -293.739)" fill="#263238"/><path d="M332.07,415.542a.945.945,0,0,1-.15-.18,3.091,3.091,0,0,0-.416-.5,6.015,6.015,0,0,0-2-1.338,11.116,11.116,0,0,0-3.483-.827,25.6,25.6,0,0,0-4.42.226,36.63,36.63,0,0,0-7.778,2.06c-.962.371-1.734.7-2.26.937l-.611.271a1.266,1.266,0,0,1-.215.085,4.17,4.17,0,0,1,.782-.451c.5-.261,1.278-.616,2.24-1a33.138,33.138,0,0,1,7.808-2.145,24.166,24.166,0,0,1,4.465-.21,10.87,10.87,0,0,1,3.548.9,5.884,5.884,0,0,1,2,1.438,2.977,2.977,0,0,1,.386.551C332.04,415.462,332.08,415.537,332.07,415.542Z" transform="translate(-228.193 -295.761)" fill="#263238"/><path d="M311.852,422.476c-.06.055-.5-.416-.8-1.1a2.345,2.345,0,0,1-.356-1.308Q311.3,421.259,311.852,422.476Z" transform="translate(-228.177 -299.567)" fill="#263238"/></g><g transform="translate(34.573 213.482)"><path d="M46.531,383.024l7.548,37.062h65.528a1.308,1.308,0,0,0,1.308-1.308h0a1.308,1.308,0,0,0-1.308-1.308H106.416L99.4,383a1.423,1.423,0,0,0-1.383-1.148l-50.082-.546a1.428,1.428,0,0,0-1.4,1.714Z" transform="translate(-46.496 -381.288)" fill="#e0e0e0"/><path d="M46.525,383a.865.865,0,0,1,0-.11,1.4,1.4,0,0,1,0-.336,1.458,1.458,0,0,1,1.123-1.258,2.5,2.5,0,0,1,.5-.03h4.13l18.934.18,13.2.13,7.4.075,3.879.04H98.2a1.59,1.59,0,0,1,.5.145,1.5,1.5,0,0,1,.722.757,2.069,2.069,0,0,1,.135.5l.105.5c.065.331.135.667.2,1,.135.672.276,1.348.411,2q.416,2.04.842,4.125.847,4.17,1.734,8.52c1.183,5.814,2.411,11.858,3.679,18.082l-.09-.07h12.97a2.24,2.24,0,0,1,.5.03,1.4,1.4,0,0,1,.376,2.6,1.468,1.468,0,0,1-.616.165H54.013V420c-2.305-11.392-4.185-20.658-5.513-27.063-.641-3.212-1.148-5.708-1.5-7.407-.165-.847-.3-1.5-.381-1.93s-.125-.662-.125-.662.055.226.145.657l.4,1.93c.351,1.694.867,4.19,1.529,7.4,1.313,6.415,3.213,15.682,5.543,27.063l-.07-.06h65.573a1.338,1.338,0,0,0,.536-.145,1.223,1.223,0,0,0-.326-2.265,2.441,2.441,0,0,0-.476-.025h-13.03v-.07c-1.268-6.23-2.506-12.274-3.669-18.087-.591-2.9-1.168-5.753-1.734-8.52q-.421-2.08-.832-4.12c-.14-.682-.276-1.353-.411-2-.07-.336-.135-.672-.205-1l-.1-.5a2.319,2.319,0,0,0-.125-.471,1.383,1.383,0,0,0-.642-.677,1.354,1.354,0,0,0-.456-.13h-.5l-2-.025-3.879-.045-7.392-.085-13.2-.155-18.9-.231-2.952-.04H48.129a2.35,2.35,0,0,0-.5.03,1.6,1.6,0,0,0-.426.16,1.433,1.433,0,0,0-.692,1.057A1.884,1.884,0,0,0,46.525,383Z" transform="translate(-46.49 -381.266)" fill="#263238"/><path d="M102.5,416.425a2.16,2.16,0,1,1-.633-1.532,2.165,2.165,0,0,1,.633,1.532Z" transform="translate(-72.269 -397.724)" fill="#fff"/><path d="M46.68,385.33h3.438l9.367.045,30.912.216,4.47.035h1.1a2.682,2.682,0,0,1,.561.035,1.449,1.449,0,0,1,.531.216,1.554,1.554,0,0,1,.667.9c.08.361.14.707.215,1.057.551,2.792,1.088,5.483,1.594,8.049,1,5.132,1.93,9.748,2.7,13.632s1.373,7.016,1.8,9.2c.21,1.078.371,1.919.5,2.506.055.281.1.5.12.652a1.824,1.824,0,0,1,.035.22.756.756,0,0,0-.05-.215c-.05-.145-.08-.371-.14-.652-.12-.576-.291-1.413-.5-2.506-.441-2.17-1.078-5.307-1.859-9.181L99.4,395.91c-.5-2.561-1.052-5.257-1.609-8.019-.07-.346-.135-.707-.215-1.047a1.363,1.363,0,0,0-.586-.8,1.5,1.5,0,0,0-.471-.19,2.974,2.974,0,0,0-.5-.03h-1.1l-4.47-.035L59.54,385.52l-9.367-.1-2.551-.04h-.662Z" transform="translate(-46.585 -383.293)" fill="#263238"/></g></g></g></svg>