<svg xmlns="http://www.w3.org/2000/svg" width="302.205" height="179.193" viewBox="0 0 302.205 179.193"><g transform="translate(-2125.454 9304.134)"><path d="M80,0H302.2a0,0,0,0,1,0,0V78.5a80,80,0,0,1-80,80H0a0,0,0,0,1,0,0V80A80,80,0,0,1,80,0Z" transform="translate(2125.454 -9283.44)" fill="#2df0da"/><g transform="translate(2125.454 -9304.134)"><g transform="translate(0 178.169)"><path d="M342.618,453.6c0,.105-63.865.182-142.625.182S57.35,453.707,57.35,453.6s63.852-.182,142.643-.182S342.618,453.5,342.618,453.6Z" transform="translate(-57.35 -453.42)" fill="#263238"/></g><g transform="translate(141.341 0)"><path d="M456.88,374.93c-.126,1.3-7.82,54.869-7.82,54.869h2.953l9.889-53.887Z" transform="translate(-395.823 -251.812)" fill="#455a64"/><path d="M489.412,347.848l.933,5.443-14.182,6.495L461.526,351.6l-.617,1.1,13.81,7.757-16.966,7.764.456,1.157,17.913-8.129,17.247,9.693,5.611,30.784h2.953s-7.231-53.431-7.344-54.708h0a15.078,15.078,0,0,0,3.016-1.192c5.387-2.806,6.1-8.732,6-15.992q.077-17.717.14-35.434c0-2.925,0-6.025-1.536-8.529a10.752,10.752,0,0,0-7.154-4.573,30.4,30.4,0,0,0-8.7-.119L471.3,328.729c-4.727,1.4-9.118,3.437-12.414,6.846a10.52,10.52,0,0,0-3.086,5.5,5.709,5.709,0,0,0,2.251,5.611c1.662,1.108,3.844,1.164,5.885,1.171l20.1.112C485.786,347.967,487.61,347.967,489.412,347.848Zm1.164,6.824,2.469,14.533-15.465-8.627Z" transform="translate(-397.81 -223.741)" fill="#455a64"/><path d="M373.391,255.788a6.86,6.86,0,0,1,2.357-.063c-1.613-.316-2.266-.764-2.223-1.178.063-.7,3.8-.372,5.548-.168a34.326,34.326,0,0,1-4.79-.828c-.821-.365.154-.842,1.066-1.017,1.031-.189,7.161-.449,8.929-.61a1.045,1.045,0,0,0,1.059-1.185,6.668,6.668,0,0,1,.554-5.309.786.786,0,0,1,1.277.785,9.679,9.679,0,0,0,.238,2.6,6.136,6.136,0,0,0,.7,1.943c.407.7.786,1.277,1.115,1.753l24.4,19.639,3.507-3.086,7.715,9.118-6,5.737a6.67,6.67,0,0,1-9.118.091L385.791,262.03l-9.055-3.149c-2.336-.652-3.254-1.08-3.1-1.508.2-.575.1-.365,4.51.21C378.174,257.548,371.883,256.671,373.391,255.788Z" transform="translate(-373.157 -213.083)" fill="#ffbe9d"/><path d="M380.568,262.675a22.691,22.691,0,0,1-6.018-.94,11.636,11.636,0,0,1,3.044.274,12.076,12.076,0,0,1,2.974.666Z" transform="translate(-373.573 -218.007)" fill="#eb996e"/><path d="M381.024,260.364a13.22,13.22,0,0,1-3.254-.105,13.466,13.466,0,0,1-3.219-.512,13.327,13.327,0,0,1,3.261.105,12.963,12.963,0,0,1,3.212.512Z" transform="translate(-373.573 -217.4)" fill="#eb996e"/><path d="M381.39,258.1a11.7,11.7,0,0,1-3.079-.049,12.4,12.4,0,0,1-3.051-.449,11.748,11.748,0,0,1,3.086.049,11.563,11.563,0,0,1,3.044.449Z" transform="translate(-373.785 -216.754)" fill="#eb996e"/><path d="M385.971,403.231l2.244-5.611,10.577,4.131-3.2,8.276-.7-.217c-2.981-.975-15.087-5.183-16.833-6.537C376.2,401.737,385.971,403.231,385.971,403.231Z" transform="translate(-374.551 -258.588)" fill="#455a64"/><path d="M395.865,412.014a.552.552,0,0,1-.189-.049l-.533-.168-1.957-.7c-1.648-.575-3.907-1.4-6.39-2.364s-4.706-1.887-6.312-2.581l-1.894-.828-.512-.238L377.91,405a.661.661,0,0,1,.182.063l.519.21,1.908.793c1.613.666,3.844,1.571,6.312,2.539s4.734,1.8,6.376,2.4l1.936.7.526.2Z" transform="translate(-374.576 -260.792)" fill="#263238"/><path d="M382.845,406.628a4.088,4.088,0,0,0,0-1.059,4.679,4.679,0,0,0-.365-.989,1.529,1.529,0,0,1,.5.968A1.488,1.488,0,0,1,382.845,406.628Z" transform="translate(-375.941 -260.666)" fill="#263238"/><path d="M388.261,406.531a1.277,1.277,0,0,1-.175-.533c-.056-.309-.077-.561-.035-.568a1.333,1.333,0,0,1,.175.54C388.282,406.258,388.3,406.531,388.261,406.531Z" transform="translate(-377.598 -260.92)" fill="#263238"/><path d="M389.654,406.448a1.746,1.746,0,0,1-.281-.393c-.119-.231-.182-.442-.147-.456s.154.161.273.393S389.689,406.434,389.654,406.448Z" transform="translate(-377.953 -260.97)" fill="#263238"/><path d="M390.688,405.511a1.3,1.3,0,0,1-.575-.147c-.309-.112-.547-.238-.533-.274a1.32,1.32,0,0,1,.582.147C390.464,405.349,390.7,405.476,390.688,405.511Z" transform="translate(-378.061 -260.818)" fill="#263238"/><path d="M391.265,404.623a1.193,1.193,0,0,1-.7-.063,1.248,1.248,0,0,1-.6-.33,3.358,3.358,0,0,1,.645.2,3.666,3.666,0,0,1,.659.2Z" transform="translate(-378.175 -260.562)" fill="#263238"/><path d="M387.605,404.8a1.8,1.8,0,0,1-.7-.267,4.149,4.149,0,0,1-.659-.442,2.184,2.184,0,0,1-.351-.33.421.421,0,0,1-.084-.281.3.3,0,0,1,.21-.232,1.34,1.34,0,0,1,1.4.968,1.3,1.3,0,0,1,.049.54.457.457,0,0,1-.056.189,2.156,2.156,0,0,0-.084-.7,1.326,1.326,0,0,0-.435-.6,1.143,1.143,0,0,0-.828-.26c-.14.035-.147.182-.056.3a2.635,2.635,0,0,0,.316.309,4.791,4.791,0,0,0,.631.456C387.346,404.679,387.612,404.777,387.605,404.8Z" transform="translate(-376.935 -260.267)" fill="#263238"/><path d="M388.1,404.946a.7.7,0,0,1,.105-.5,1.123,1.123,0,0,1,.379-.428.743.743,0,0,1,.7-.126.3.3,0,0,1,.084.4.842.842,0,0,1-.231.26,2.1,2.1,0,0,1-.484.281,1.086,1.086,0,0,1-.5.126s.182-.07.456-.21a2.678,2.678,0,0,0,.442-.295c.154-.112.316-.344.161-.442a.659.659,0,0,0-.561.112,1.144,1.144,0,0,0-.365.372A2.218,2.218,0,0,0,388.1,404.946Z" transform="translate(-377.615 -260.45)" fill="#263238"/><path d="M402.717,410.565a4.327,4.327,0,0,0-.793-.281,3.584,3.584,0,0,0-3.633,1.143,5.93,5.93,0,0,0-.491.7.582.582,0,0,1,.084-.21,2.713,2.713,0,0,1,.337-.526,3.543,3.543,0,0,1,1.683-1.157,3.507,3.507,0,0,1,2.048,0,2.589,2.589,0,0,1,.575.245C402.654,410.508,402.724,410.558,402.717,410.565Z" transform="translate(-380.516 -262.309)" fill="#263238"/><path d="M405,403.88a19.435,19.435,0,0,1-.757,2.209,20.765,20.765,0,0,1-.884,2.16,19.421,19.421,0,0,1,.757-2.209A19.784,19.784,0,0,1,405,403.88Z" transform="translate(-382.176 -260.457)" fill="#263238"/><path d="M395.1,410.319a6.378,6.378,0,0,1-1.606-.449,5.926,5.926,0,0,1-1.494-.7c0-.035.7.281,1.543.6S395.107,410.284,395.1,410.319Z" transform="translate(-378.784 -262.036)" fill="#263238"/><path d="M399.15,411.99c0,.035-.112.126-.245.253s-.224.259-.259.245,0-.189.168-.344S399.143,411.926,399.15,411.99Z" transform="translate(-380.765 -262.871)" fill="#263238"/><path d="M400.764,411c0,.035-.1.119-.245.182s-.295.1-.309.063.1-.119.252-.182A.889.889,0,0,1,400.764,411Z" transform="translate(-381.235 -262.583)" fill="#263238"/><path d="M402.58,410.943c0,.035-.161,0-.337,0H401.9a.439.439,0,0,1,.351-.133A.419.419,0,0,1,402.58,410.943Z" transform="translate(-381.74 -262.526)" fill="#263238"/><path d="M403.965,411.11c0,.042-.084.07-.182.07s-.182,0-.182-.07.084-.07.182-.07S403.965,411.075,403.965,411.11Z" transform="translate(-382.248 -262.595)" fill="#263238"/><path d="M427.149,446.56l.105-6.06,11.355.133-.07,8.866-.7.035c-3.135.14-15.949.477-18.032-.182C417.477,448.615,427.149,446.56,427.149,446.56Z" transform="translate(-386.979 -271.392)" fill="#455a64"/><path d="M438.707,452.9a.748.748,0,0,1-.2,0h-.561l-2.069.063c-1.739.042-4.152.07-6.81.042s-5.071-.105-6.81-.182l-2.062-.105-.561-.042h.561l2.062.063c1.746.056,4.152.119,6.81.147s5.071,0,6.81,0h2.827Z" transform="translate(-386.978 -275.03)" fill="#263238"/><path d="M424.64,452.4a4.76,4.76,0,0,0-.379-.989,4.322,4.322,0,0,0-.7-.793,1.48,1.48,0,0,1,.814.7,1.515,1.515,0,0,1,.267,1.08Z" transform="translate(-388.208 -274.414)" fill="#263238"/><path d="M429.647,450.386a2.334,2.334,0,0,1-.351-.435c-.161-.259-.274-.491-.238-.512s.189.175.351.442S429.717,450.372,429.647,450.386Z" transform="translate(-389.848 -274.061)" fill="#263238"/><path d="M430.92,449.844a1.948,1.948,0,0,1-.4-.274c-.2-.175-.33-.344-.3-.372s.2.091.393.274S430.941,449.816,430.92,449.844Z" transform="translate(-390.196 -273.989)" fill="#263238"/><path d="M431.555,448.57a2.537,2.537,0,0,1-1.185,0c0-.042.267-.07.6-.07S431.555,448.528,431.555,448.57Z" transform="translate(-390.242 -273.781)" fill="#263238"/><path d="M431.778,447.52a1.171,1.171,0,0,1-.666.189,1.2,1.2,0,0,1-.7-.1,3.513,3.513,0,0,1,.7-.042A4.221,4.221,0,0,1,431.778,447.52Z" transform="translate(-390.254 -273.489)" fill="#263238"/><path d="M428.475,448.946a2.288,2.288,0,0,1-.7,0,3.944,3.944,0,0,1-.778-.182,1.948,1.948,0,0,1-.442-.189.385.385,0,0,1-.175-.225.294.294,0,0,1,.112-.295,1.339,1.339,0,0,1,1.648.414,1.256,1.256,0,0,1,.231.491.471.471,0,0,1,0,.2,2.1,2.1,0,0,0-.33-.624,1.263,1.263,0,0,0-.617-.414,1.136,1.136,0,0,0-.87.049c-.119.084-.07.217.056.3a2.1,2.1,0,0,0,.407.175,5.1,5.1,0,0,0,.751.2A6.656,6.656,0,0,1,428.475,448.946Z" transform="translate(-389.048 -273.61)" fill="#263238"/><path d="M429.057,448.83a.7.7,0,0,1-.084-.512,1.171,1.171,0,0,1,.21-.526.7.7,0,0,1,.61-.372.3.3,0,0,1,.217.344.743.743,0,0,1-.126.323,2.16,2.16,0,0,1-.351.442,1.072,1.072,0,0,1-.421.288,3.93,3.93,0,0,0,.351-.358,2.592,2.592,0,0,0,.316-.435c.1-.154.168-.428,0-.463s-.372.161-.484.3a1.249,1.249,0,0,0-.21.47A2.491,2.491,0,0,0,429.057,448.83Z" transform="translate(-389.82 -273.459)" fill="#263238"/><path d="M444.887,448.491h-.835a3.549,3.549,0,0,0-3,2.336c-.175.484-.2.814-.224.807a.781.781,0,0,1,0-.224,2.731,2.731,0,0,1,.126-.617,3.4,3.4,0,0,1,3.086-2.378,3.3,3.3,0,0,1,.624,0A.719.719,0,0,1,444.887,448.491Z" transform="translate(-393.362 -273.751)" fill="#263238"/><path d="M444.97,441.78a19.306,19.306,0,0,1,.077,2.328,18.694,18.694,0,0,1-.07,2.336,20.43,20.43,0,0,1-.07-2.336,21.476,21.476,0,0,1,.063-2.329Z" transform="translate(-394.581 -271.775)" fill="#263238"/><path d="M437.378,451.522a5.936,5.936,0,0,1-1.662.147,6.55,6.55,0,0,1-1.655-.147c0-.042.743,0,1.655,0S437.371,451.487,437.378,451.522Z" transform="translate(-391.344 -274.678)" fill="#263238"/><path d="M441.858,451.559s-.063.161-.14.33-.119.316-.161.316-.056-.182.035-.372S441.809,451.538,441.858,451.559Z" transform="translate(-393.573 -274.694)" fill="#263238"/><path d="M442.985,450.087a.707.707,0,0,1-.168.26c-.119.112-.231.2-.259.168s.049-.147.168-.267S442.957,450.059,442.985,450.087Z" transform="translate(-393.88 -274.254)" fill="#263238"/><path d="M444.613,449.4c0,.035-.161.035-.33.091s-.288.147-.316.119.07-.182.274-.253S444.627,449.365,444.613,449.4Z" transform="translate(-394.301 -274.029)" fill="#263238"/><path d="M445.963,449.109c0,.035-.049.1-.147.133s-.182.035-.2,0,.056-.1.147-.133S445.949,449.074,445.963,449.109Z" transform="translate(-394.795 -273.955)" fill="#263238"/><path d="M459.38,211.308a7.982,7.982,0,0,1-2.862-2.918,4.208,4.208,0,0,1-.049-3.963,2.876,2.876,0,0,1,3.549-1.241,3.507,3.507,0,0,1,2.322-3.64,5.611,5.611,0,0,1,3.661.372,20.219,20.219,0,0,0,3.507,1.277c1.753.316,3.507-.14,5.323-.112a4.286,4.286,0,0,1,2.188.526c1.227.765,1.648,2.357,1.718,3.808a1.7,1.7,0,0,1,1.564.982,3.717,3.717,0,0,1,.309,1.915,9.258,9.258,0,0,1-2.167,5.422" transform="translate(-397.895 -199.394)" fill="#455a64"/><path d="M470.566,204.79a9.623,9.623,0,0,0-9.595,9.434c-.091,4.769-.119,9.819.112,11.327.954,6,5.555,6.768,5.555,6.768s.077,3.759.091,7.329a6.588,6.588,0,0,0,6.607,6.312h0a6.216,6.216,0,0,0,6.579-5.934l.288-25.5a9.616,9.616,0,0,0-9.616-9.721Z" transform="translate(-399.36 -201.005)" fill="#ffbe9d"/><path d="M462.78,222.01a.772.772,0,0,0,.743.779.736.736,0,0,0,.793-.7.772.772,0,0,0-.744-.779.736.736,0,0,0-.792.7Z" transform="translate(-399.92 -205.938)" fill="#263238"/><path d="M462.536,220.737c.1.105.7-.33,1.508-.33s1.438.421,1.529.316-.056-.224-.323-.414a2.1,2.1,0,0,0-1.22-.379,2.013,2.013,0,0,0-1.2.386C462.578,220.512,462.494,220.68,462.536,220.737Z" transform="translate(-399.844 -205.526)" fill="#263238"/><path d="M474.6,222.01a.772.772,0,0,0,.743.779.7.7,0,0,0,.793-.7.764.764,0,0,0-.736-.779.744.744,0,0,0-.8.7Z" transform="translate(-403.45 -205.938)" fill="#263238"/><path d="M474.146,220.957c.1.105.7-.33,1.508-.33s1.438.421,1.529.316-.056-.224-.323-.414a2.1,2.1,0,0,0-1.22-.379,2.013,2.013,0,0,0-1.2.386C474.188,220.746,474.1,220.914,474.146,220.957Z" transform="translate(-403.311 -205.592)" fill="#263238"/><path d="M468.972,227.125a5.938,5.938,0,0,0-1.347-.238c-.21,0-.414-.063-.449-.21a1.052,1.052,0,0,1,.14-.624l.624-1.613a28.051,28.051,0,0,0,1.4-4.208,26.725,26.725,0,0,0-1.746,4.089c-.2.568-.407,1.108-.6,1.62a1.276,1.276,0,0,0-.112.835.547.547,0,0,0,.351.309,1.4,1.4,0,0,0,.358.049A5.428,5.428,0,0,0,468.972,227.125Z" transform="translate(-401.14 -205.616)" fill="#263238"/><path d="M469.05,243.1a15.262,15.262,0,0,0,8.038-2.1s-1.95,4.124-7.954,3.563Z" transform="translate(-401.793 -211.818)" fill="#eb996e"/><path d="M472.217,230.88c-.133,0-.133.891-.9,1.529s-1.725.54-1.732.666.21.175.617.182a2.223,2.223,0,0,0,1.445-.5,1.922,1.922,0,0,0,.7-1.277C472.378,231.1,472.28,230.873,472.217,230.88Z" transform="translate(-401.951 -208.796)" fill="#263238"/><path d="M473.848,216.407c.077.231.9.119,1.88.238s1.76.386,1.887.182-.077-.309-.4-.526a3.1,3.1,0,0,0-1.4-.491,3.228,3.228,0,0,0-1.473.168C473.988,216.126,473.813,216.3,473.848,216.407Z" transform="translate(-403.224 -204.29)" fill="#455a64"/><path d="M462.987,217.3c.14.189.7,0,1.4,0s1.263.126,1.4-.07,0-.281-.281-.463a2.041,2.041,0,0,0-2.265.07C462.987,217.021,462.9,217.21,462.987,217.3Z" transform="translate(-399.973 -204.49)" fill="#455a64"/><path d="M487.29,221.559c.091-.042,3.472-1.192,3.507,2.315s-3.507,2.806-3.507,2.714Z" transform="translate(-407.24 -205.949)" fill="#ffbe9d"/><path d="M488.818,225.724a1.106,1.106,0,0,0,.161.084.589.589,0,0,0,.456,0,1.508,1.508,0,0,0,.7-1.361,1.929,1.929,0,0,0-.182-.87.7.7,0,0,0-.463-.463.309.309,0,0,0-.358.168c-.042.1,0,.168-.042.175s-.077-.056-.049-.2a.365.365,0,0,1,.14-.217.463.463,0,0,1,.33-.1.87.87,0,0,1,.645.54,2.1,2.1,0,0,1,.224.975,1.592,1.592,0,0,1-.877,1.522.7.7,0,0,1-.561-.091C488.825,225.787,488.8,225.731,488.818,225.724Z" transform="translate(-407.695 -206.424)" fill="#eb996e"/><path d="M459.843,210.18a8.49,8.49,0,0,0,7.133-.512c2.651-1.319,5.737-1.964,6.418-1.4s.821,3.254,3.444,4.054c0,0-.182,5.2,1.894,5.015s2.055-9.307,2.055-9.307l-6.123-4.524L468,202.97l-5.387,2.188-2.974,2.251Z" transform="translate(-398.983 -200.462)" fill="#455a64"/><path d="M485.5,226.185a2.6,2.6,0,0,0,1.045.652,2.153,2.153,0,0,0,1.312,0,2.1,2.1,0,0,0,1.178-2.672,2.173,2.173,0,0,0-.87-.989,2.454,2.454,0,0,0-1.192-.323.953.953,0,0,1,.344,0,2,2,0,0,1,.9.267,2.2,2.2,0,0,1,.94,1.017,2.141,2.141,0,0,1-1.227,2.855,2.2,2.2,0,0,1-1.4,0,1.963,1.963,0,0,1-.807-.484A1.171,1.171,0,0,1,485.5,226.185Z" transform="translate(-406.705 -206.395)" fill="#263238"/><path d="M483.487,224.5a2.176,2.176,0,0,1,.063-.7,3,3,0,0,1,1.08-1.683,3.051,3.051,0,1,1,0,4.833,2.987,2.987,0,0,1-1.08-1.676,2.173,2.173,0,0,1-.063-.736,4.674,4.674,0,0,0,.119.7,2.932,2.932,0,1,0,1.087-3.058,2.973,2.973,0,0,0-1.087,1.613A4.67,4.67,0,0,0,483.487,224.5Z" transform="translate(-406.101 -205.991)" fill="#263238"/><path d="M456.857,206.234a6.762,6.762,0,0,0-.3.793,1.178,1.178,0,0,0,.07.94,2.665,2.665,0,0,0,.947.87,4.846,4.846,0,0,0,3.3.407,11.574,11.574,0,0,0,3.816-1.676,22.113,22.113,0,0,1,3.7-2.027,3.773,3.773,0,0,1,1.838-.259,2.518,2.518,0,0,1,1.4.743,3.563,3.563,0,0,1,.926,2.1,3.758,3.758,0,0,1,0,.849v-.217a3.272,3.272,0,0,0-.049-.624,3.507,3.507,0,0,0-.94-2.048,2.42,2.42,0,0,0-1.4-.7,3.7,3.7,0,0,0-1.767.267,22.755,22.755,0,0,0-3.675,2.027,11.532,11.532,0,0,1-3.865,1.676,4.853,4.853,0,0,1-3.381-.442,2.665,2.665,0,0,1-.968-.919,1.22,1.22,0,0,1-.049-1A4,4,0,0,1,456.857,206.234Z" transform="translate(-398.009 -201.145)" fill="#263238"/><path d="M473.54,209.84a1.612,1.612,0,0,1,.07-.231c.049-.154.119-.379.189-.7a5.176,5.176,0,0,0,0-2.539,3.417,3.417,0,0,0-.863-1.508,3.641,3.641,0,0,0-1.76-.926,4.911,4.911,0,0,0-2.216,0,8.522,8.522,0,0,0-2.23.9c-1.445.821-2.686,1.831-3.984,2.5a7.013,7.013,0,0,1-1.936.7,2.3,2.3,0,0,1-1.746-.337,2.2,2.2,0,0,1-.884-1.192,2.238,2.238,0,0,1,0-1.115,2.106,2.106,0,0,1,.267-.652,1.04,1.04,0,0,1,.154-.2,2.427,2.427,0,0,0-.365.863,2.208,2.208,0,0,0,.042,1.08,2.1,2.1,0,0,0,.863,1.122,2.2,2.2,0,0,0,1.669.309,6.916,6.916,0,0,0,1.894-.7c1.277-.7,2.518-1.676,3.977-2.5a8.689,8.689,0,0,1,2.265-.919,5.008,5.008,0,0,1,2.279,0,3.738,3.738,0,0,1,1.817.968,3.507,3.507,0,0,1,.877,1.564,4.981,4.981,0,0,1-.049,2.581A4.814,4.814,0,0,1,473.54,209.84Z" transform="translate(-398.526 -200.669)" fill="#263238"/><path d="M486.839,267.552l-5.113,25.537.912,19.141-36.472-1.185,3.451-21.294V275.885l-4.7,5.962L435,270.224l11.692-12.442h0a20.257,20.257,0,0,1,7.862-5.092,13.054,13.054,0,0,1,4.419-.94h0a25.468,25.468,0,0,0,13.551.133l.849.1h.154a15.2,15.2,0,0,1,13.256,14.287Z" transform="translate(-391.625 -215.028)" fill="#35a3be"/><path d="M489.69,252.09s14.119.105,15.865,15.017l.877,11.082-12.8-.252Z" transform="translate(-407.956 -215.13)" fill="#35a3be"/><path d="M491.663,265.142l-.491.042a6.312,6.312,0,0,1-1.4-.119,12.7,12.7,0,0,1-2.139-.624c-.814-.295-1.725-.7-2.77-1a7.373,7.373,0,0,0-3.507-.259,10.718,10.718,0,0,0-3.745,1.55c-1.22.758-2.392,1.718-3.668,2.644a14.857,14.857,0,0,1-4.271,2.322,12.8,12.8,0,0,1-9.216-.484,26.472,26.472,0,0,1-3.542-2.1,29.166,29.166,0,0,0-3.044-1.845,8.838,8.838,0,0,0-4.973-1.031,5.947,5.947,0,0,0-1.354.337l-.449.2s.147-.084.442-.217a5.479,5.479,0,0,1,1.354-.372,8.8,8.8,0,0,1,5.022,1,28.465,28.465,0,0,1,3.072,1.831,26.377,26.377,0,0,0,3.507,2.062,12.758,12.758,0,0,0,9.118.463,14.827,14.827,0,0,0,4.208-2.294c1.269-.926,2.448-1.887,3.682-2.651a10.835,10.835,0,0,1,3.794-1.55,7.415,7.415,0,0,1,3.549.281c1.045.316,1.957.7,2.763,1.017a12.89,12.89,0,0,0,2.1.645,6.583,6.583,0,0,0,1.4.147Z" transform="translate(-395.235 -218.37)" fill="#fafafa"/><path d="M448.355,285.216a2.145,2.145,0,0,1-.554-.21,3.856,3.856,0,0,1-1.234-1.031,7.548,7.548,0,0,1-1.143-2.1c-.323-.842-.582-1.8-.989-2.735a5.912,5.912,0,0,0-1.676-2.308,5.976,5.976,0,0,0-2.055-1.115,6.783,6.783,0,0,0-2.153-.274,2.863,2.863,0,0,1,.589-.049,5.435,5.435,0,0,1,1.592.224,5.878,5.878,0,0,1,3.837,3.465c.414.954.666,1.908.982,2.742a7.427,7.427,0,0,0,1.1,2.1A3.97,3.97,0,0,0,448.355,285.216Z" transform="translate(-392.685 -222.087)" fill="#fafafa"/><path d="M482.286,284.39l-.252-.126a5.821,5.821,0,0,0-.757-.309,6.552,6.552,0,0,0-2.967-.168,14.5,14.5,0,0,0-4.208,1.48,19.909,19.909,0,0,1-5.134,1.915,15.269,15.269,0,0,1-12.3-2.89c-.547-.456-.835-.7-.835-.7s.084.056.231.175l.638.505a16.13,16.13,0,0,0,2.574,1.557,15.611,15.611,0,0,0,4.243,1.312,15.365,15.365,0,0,0,5.422-.07,19.816,19.816,0,0,0,5.106-1.9,14.547,14.547,0,0,1,4.208-1.459,6.592,6.592,0,0,1,3,.217A3.934,3.934,0,0,1,482.286,284.39Z" transform="translate(-397.845 -224.536)" fill="#fafafa"/><path d="M507.06,280.292a2.187,2.187,0,0,1-.477.309,3.745,3.745,0,0,1-1.508.351,7.168,7.168,0,0,1-2.265-.358,24.719,24.719,0,0,0-2.693-.758,11.86,11.86,0,0,0-5.015.154,14.521,14.521,0,0,0-1.466.463c-.337.133-.526.21-.526.2a8.893,8.893,0,0,1,1.964-.764,11.377,11.377,0,0,1,5.071-.2,23.152,23.152,0,0,1,2.7.764,7.132,7.132,0,0,0,2.23.386,3.948,3.948,0,0,0,1.487-.295A3.436,3.436,0,0,0,507.06,280.292Z" transform="translate(-408.977 -223.315)" fill="#fafafa"/><path d="M485.936,303.573l-.309-.112a8.894,8.894,0,0,0-.863-.309,12.043,12.043,0,0,0-3.346-.491,20.158,20.158,0,0,0-4.973.631c-1.838.449-3.808,1.136-5.906,1.775a25.249,25.249,0,0,1-6.06,1.213,12.785,12.785,0,0,1-4.98-.7,8.654,8.654,0,0,1-2.9-1.753,7.546,7.546,0,0,1-.631-.7c-.133-.168-.2-.259-.2-.259a7.869,7.869,0,0,0,.863.9,8.789,8.789,0,0,0,2.9,1.7,12.912,12.912,0,0,0,4.91.7,25.39,25.39,0,0,0,6.025-1.22c2.1-.631,4.068-1.326,5.92-1.761a19.645,19.645,0,0,1,5.008-.61,11.777,11.777,0,0,1,3.353.54A7.815,7.815,0,0,1,485.936,303.573Z" transform="translate(-397.827 -230.204)" fill="#fafafa"/><path d="M485.9,322.413l-.33-.1a7.527,7.527,0,0,0-.94-.224,9.419,9.419,0,0,0-3.549.189,27.125,27.125,0,0,0-4.959,1.873,26.683,26.683,0,0,1-2.939,1.143,14.227,14.227,0,0,1-3.325.624,19.785,19.785,0,0,1-6.474-.7,33.938,33.938,0,0,1-4.994-1.845c-1.4-.624-2.476-1.178-3.233-1.557l-.87-.449-.295-.168.309.14.877.421c.765.372,1.866.912,3.255,1.522a35.245,35.245,0,0,0,4.987,1.8,19.576,19.576,0,0,0,6.432.7,13.863,13.863,0,0,0,3.289-.61,28.537,28.537,0,0,0,2.925-1.136,26.714,26.714,0,0,1,4.994-1.845,9.118,9.118,0,0,1,3.577-.147,5.236,5.236,0,0,1,1.263.365Z" transform="translate(-397.295 -235.767)" fill="#fafafa"/><path d="M498.142,257.1l-.372.112a3.383,3.383,0,0,0-1.01.456,7.154,7.154,0,0,0-2.42,3.233,14.9,14.9,0,0,0-.849,2.7,10.965,10.965,0,0,0-.211,1.557c0,.533,0,1.1.042,1.676.1,2.3.2,4.826.309,7.477.07,1.873.14,3.675.21,5.352l-.07-.063h-.07v-.07c-.07-1.676-.14-3.507-.217-5.352-.105-2.651-.2-5.176-.295-7.477,0-.575-.063-1.129-.042-1.69a10.3,10.3,0,0,1,.232-1.578,14.86,14.86,0,0,1,.863-2.714,7.013,7.013,0,0,1,2.49-3.233,3.178,3.178,0,0,1,1.031-.442A.923.923,0,0,0,498.142,257.1Z" transform="translate(-408.988 -216.608)" fill="#263238"/><path d="M455.88,271.05c.042,0,.077,4.629.077,10.345s0,10.352-.077,10.352-.07-4.636-.07-10.352S455.845,271.05,455.88,271.05Z" transform="translate(-397.839 -220.792)" fill="#263238"/><g transform="translate(58.02 66.86)" opacity="0.2"><path d="M455.88,294.727c5.281,7.1,10.85,14.869,17.8,20.34a14.454,14.454,0,0,0,4.811,2.77,6.087,6.087,0,0,0,5.337-.7.834.834,0,0,0,.351-.428c.1-.407-.358-.7-.7-.891-6.144-2.939-10.521-8.515-15.753-12.87-3.57-2.974-11.818-8.227-11.818-8.227" transform="translate(-455.88 -294.72)"/></g><path d="M447.907,283.312c.863-.631,4.3,4.068,4.138,2.616s-4.861-5.246-3.935-5.863c1.206-.814,4.72,4.173,5.05,4.573s.9-.07.589-.414c-.456-.5-5.078-5.822-3.9-6.628.652-.449,1.326.828,1.326.828s3.97,5.309,4.51,4.91-1.669-3.605-2.5-4.629-.7-1.824.056-1.824c.505,0,3.107,3.072,3.907,4.1s2.918,3.9,2.995,1.606v-.105c0-2.265.779-4,1.34-4.356a.786.786,0,0,1,1.129.842.87.87,0,0,1-.077.316l-.063.161a11.033,11.033,0,0,0-.267,2.322,6.123,6.123,0,0,0,.274,2.048c.238.765.477,1.4.7,1.943l.351.421,19.225,10.871h0l-.526-11.124v-.442l11.327.112.2,14.792a19.172,19.172,0,0,1-.435,4.384c-.491,2.188-1.276,4.208-3.163,5.464-4.3,2.869-11.222,2-15.073-1.48l-15.97-14.512-3.3-3h0a73.547,73.547,0,0,1-6.081-5.071C447.339,283.768,447.55,283.55,447.907,283.312Z" transform="translate(-395.414 -222.533)" fill="#ffbe9d"/><path d="M468.721,331.753s-54.245-11.173-58.916-8.957-21.6,55.353-21.6,55.353l13.642,5.422,17.71-43.3s36.956,14.392,42.882,13.172S468.721,331.753,468.721,331.753Z" transform="translate(-377.652 -236.157)" fill="#263238"/><path d="M454.967,339.19c-.7.246-29.255,9.581-31.24,13.277s1.648,62.423,1.648,62.423h16.553v-55.62l31.219-.785Z" transform="translate(-388.081 -241.139)" fill="#263238"/><path d="M476.224,361.068a2.047,2.047,0,0,1-.463-.056l-1.3-.231c-1.129-.21-2.763-.533-4.769-.968-4.026-.856-9.56-2.146-15.6-3.879-3.016-.877-5.864-1.789-8.417-2.679s-4.854-1.767-6.747-2.581c-.954-.386-1.8-.771-2.546-1.108s-1.4-.631-1.894-.9l-1.185-.6a1.962,1.962,0,0,1-.4-.232,2.934,2.934,0,0,1,.435.168l1.206.533c.526.245,1.164.519,1.922.835s1.6.7,2.56,1.059c1.9.779,4.208,1.606,6.761,2.5s5.422,1.767,8.417,2.644c6.018,1.732,11.538,3.058,15.55,3.977l4.741,1.08,1.291.3A2.17,2.17,0,0,1,476.224,361.068Z" transform="translate(-390.998 -243.723)" fill="#455a64"/><path d="M422.983,370.9a4.208,4.208,0,0,1-.147-.919c-.07-.666-.154-1.515-.26-2.518s-.217-2.35-.344-3.738a17.023,17.023,0,0,1,0-4.629,7.182,7.182,0,0,1,2.336-4,12.2,12.2,0,0,1,3.191-2.048,25.027,25.027,0,0,1,2.364-.926,4.861,4.861,0,0,1,.9-.259c0,.063-1.234.505-3.149,1.4a12.446,12.446,0,0,0-3.044,2.062,7.014,7.014,0,0,0-2.2,3.815,17.575,17.575,0,0,0,0,4.538c.1,1.4.182,2.651.259,3.745s.112,1.859.147,2.525a4.339,4.339,0,0,1-.049.947Z" transform="translate(-387.765 -244.923)" fill="#455a64"/><path d="M478.788,358.839c-4.84-.323-2.56-7.273-2.441-15.01.07-4.854,3.3-9.616,6.817-12.962a16.545,16.545,0,0,1,6.172-3.451,38.415,38.415,0,0,1,18.727-1.2S517.231,361.336,478.788,358.839Z" transform="translate(-403.781 -237.075)" fill="#455a64"/></g><g transform="translate(39.017 0.011)"><path d="M248.037,342.787l21.189-.112c2.146,0,4.447-.07,6.193-1.241a5.99,5.99,0,0,0,2.378-5.913,11.11,11.11,0,0,0-3.247-5.793c-3.507-3.6-8.1-5.744-13.088-7.21L245.6,272.4a31.9,31.9,0,0,0-9.174.119,11.339,11.339,0,0,0-7.54,4.819c-1.592,2.623-1.634,5.906-1.62,9q.07,18.664.154,37.342c-.119,7.652.638,13.866,6.312,16.833a16.916,16.916,0,0,0,3.177,1.255h0c-.119,1.361-7.715,57.675-7.715,57.675h3.114l5.9-32.439,18.18-10.219,18.874,8.578.484-1.227-17.878-8.178,14.526-8.171-.652-1.157-15.43,8.62-14.939-6.839.975-5.744C244.222,342.8,246.15,342.8,248.037,342.787Zm6.754,13.326-16.3,9.118,2.616-15.339Z" transform="translate(-227.268 -221.126)" fill="#455a64"/><path d="M292.378,371.22c.133,1.368,8.248,57.822,8.248,57.822h-3.114L287.09,372.23Z" transform="translate(-245.132 -250.715)" fill="#455a64"/><path d="M349.467,294.285l8-2.806c2.062-.575,2.869-.954,2.735-1.333-.175-.5-.084-.316-3.984.189,0,0,5.555-.779,4.208-1.55a5.99,5.99,0,0,0-2.1-.063c1.4-.274,1.992-.7,1.964-1.038-.056-.631-3.36-.323-4.91-.147a29.9,29.9,0,0,0,4.208-.7c.7-.323-.133-.75-.94-.9s-6.312-.393-7.876-.54a.926.926,0,0,1-.94-1.045,5.822,5.822,0,0,0-.491-4.685c-.442-.477-1.227,0-1.129.7a8.5,8.5,0,0,1-.14,2.279,5.613,5.613,0,0,1-.638,1.718c-.365.617-.7,1.122-.989,1.543l-5.267,1.48,2.174,8.585Z" transform="translate(-261.281 -223.319)" fill="#aa6550"/><path d="M360.16,294.9a19.977,19.977,0,0,0,5.309-.835,10.83,10.83,0,0,0-2.679.238A10.284,10.284,0,0,0,360.16,294.9Z" transform="translate(-266.952 -227.674)" fill="#874030"/><path d="M359.59,292.873a11.72,11.72,0,0,0,2.869-.091,11.6,11.6,0,0,0,2.841-.456A23.466,23.466,0,0,0,359.59,292.873Z" transform="translate(-266.782 -227.154)" fill="#874030"/><path d="M359.44,290.863a10.61,10.61,0,0,0,2.721-.042,10.724,10.724,0,0,0,2.693-.4,10.674,10.674,0,0,0-2.728.042,10.523,10.523,0,0,0-2.686.4Z" transform="translate(-266.737 -226.567)" fill="#874030"/><path d="M279.02,252.56s5.527,14.147,5.513,19.59c0,3.577-.933,32.481-.933,32.481l-33.75,7.631,8.339-23.026-2.623-10.661.582-26.014Z" transform="translate(-234.011 -215.281)" fill="#8dd52c"/><path d="M290.413,252.56a11.643,11.643,0,0,1,8.185,8.213c1.929,6.888,7.112,20.242,7.112,20.242l23.5-3.507,2.869,9.6-23.847,7.477a11.019,11.019,0,0,1-13.018-6.93L288,267.717Z" transform="translate(-245.404 -215.281)" fill="#8dd52c"/><path d="M250.7,252.56s-5.878,1.361-8.367,6.558-10.626,27.136-10.626,27.136l14.932,1.361,4.973-12.891Z" transform="translate(-228.594 -215.281)" fill="#8dd52c"/><path d="M231.658,298.394c-.1.267-1.824.7-1.634,2.581s.295,6.032,3.507,6.221,15.311-5.043,15.311-5.043V299.79a2.5,2.5,0,0,0-2.679-2.483Z" transform="translate(-228.086 -228.642)" fill="#75b51d"/><path d="M297.876,295.24a5.415,5.415,0,0,1-.07-1.045c0-.7-.035-1.648,0-2.848,0-2.406.112-5.73.042-9.392a40.546,40.546,0,0,0-.435-5.127c-.253-1.557-.575-2.953-.877-4.11s-.6-2.1-.8-2.728a5.027,5.027,0,0,1-.267-1.01,6.044,6.044,0,0,1,.407.968c.245.624.554,1.55.9,2.7a36.363,36.363,0,0,1,.968,4.131,38.468,38.468,0,0,1,.463,5.169c.07,3.682-.1,7.014-.147,9.4-.035,1.15-.063,2.1-.091,2.848A6.251,6.251,0,0,1,297.876,295.24Z" transform="translate(-247.634 -220.185)" fill="#263238"/><path d="M260.211,277.55c.091.035-.968,3.121-2.364,6.895a72.3,72.3,0,0,1-2.707,6.768,70.8,70.8,0,0,1,2.364-6.895,70.121,70.121,0,0,1,2.707-6.768Z" transform="translate(-235.591 -222.744)" fill="#263238"/><path d="M248.735,297.983a6.67,6.67,0,0,0-2.272-.926,11.076,11.076,0,0,0-2.672-.119c-1.01.063-2.1.2-3.3.316-2.35.252-4.468.533-6,.736a19.439,19.439,0,0,1-2.483.295,2.378,2.378,0,0,1,.652-.182c.421-.091,1.038-.217,1.8-.351,1.522-.267,3.647-.582,6-.842,1.178-.119,2.294-.238,3.332-.288a10.371,10.371,0,0,1,2.742.2,5.105,5.105,0,0,1,1.711.7C248.595,297.773,248.749,297.969,248.735,297.983Z" transform="translate(-228.681 -228.434)" fill="#263238"/><path d="M247.045,301.243a22.928,22.928,0,0,1-2.427.295c-1.5.161-3.57.435-5.828.884s-4.271.975-5.716,1.4a20.643,20.643,0,0,1-2.364.645,2.589,2.589,0,0,1,.6-.28c.393-.161.968-.372,1.69-.61a47.978,47.978,0,0,1,11.594-2.286c.757-.049,1.4-.077,1.8-.07a1.978,1.978,0,0,1,.659.021Z" transform="translate(-228.296 -229.807)" fill="#263238"/><g transform="translate(21.373 56.573)" opacity="0.2"><path d="M257.74,286.873l2.462,8.676a24.03,24.03,0,0,0,.3-15.48l-2.581,6.768" transform="translate(-257.74 -280.07)"/></g><g transform="translate(3.349 70.549)" opacity="0.2"><path d="M232.847,303.309a.526.526,0,0,1-.779-.26.821.821,0,0,1,.295-.856,2.308,2.308,0,0,1,.87-.407A43.929,43.929,0,0,1,246.188,300c.217,0,.519.119.442.323s-.168.14-.281.161l-13.761,2.679" transform="translate(-232.043 -299.995)"/></g><path d="M254.132,253h.288a3.386,3.386,0,0,1,.8.224,4.349,4.349,0,0,1,2.216,2.062,4.251,4.251,0,0,1-.428,4.4,4.524,4.524,0,0,1-2.188,1.592,7.524,7.524,0,0,0-2.483,1.185,3.928,3.928,0,0,0-.947,2.483,8.663,8.663,0,0,1-.281,1.347,3.688,3.688,0,0,1-.624,1.2,3.928,3.928,0,0,1-6.551-.337,3.339,3.339,0,0,1-.337-.765c-.049-.182-.063-.281-.049-.288a7.191,7.191,0,0,0,.505.975,4.04,4.04,0,0,0,2.357,1.648,3.767,3.767,0,0,0,3.809-1.4,4.686,4.686,0,0,0,.814-2.392,9.34,9.34,0,0,1,.274-1.4,2.805,2.805,0,0,1,.786-1.3,7.547,7.547,0,0,1,2.6-1.256,4.138,4.138,0,0,0,2.041-1.452,4.019,4.019,0,0,0,.47-4.082,4.306,4.306,0,0,0-2.041-2.048,8.515,8.515,0,0,0-1.031-.393Z" transform="translate(-232.128 -215.413)" fill="#fafafa"/><path d="M269.606,277.873a3.662,3.662,0,0,1-.133.61l-.449,1.732a18.238,18.238,0,0,0-.631,6.467,9.356,9.356,0,0,0,1.55,4.152,6.706,6.706,0,0,0,1.753,1.718,6.5,6.5,0,0,0,2.427.947,17.1,17.1,0,0,0,5.667-.217,11.671,11.671,0,0,0,5.611-2.258,5.864,5.864,0,0,0,2.1-5.324,4.033,4.033,0,0,0-1.4-2.378,10.2,10.2,0,0,0-2.392-1.4,22.927,22.927,0,0,1-2.434-1.178,6.187,6.187,0,0,1-1.88-1.753,18.232,18.232,0,0,0-1.4-1.9,5.267,5.267,0,0,0-5.309-1.4,5.365,5.365,0,0,0-2.315,1.494,5.988,5.988,0,0,0-1.192,2.055,2.76,2.76,0,0,1,.161-.6,5.2,5.2,0,0,1,.926-1.543,5.449,5.449,0,0,1,2.357-1.6,5.358,5.358,0,0,1,3.745.161A5.232,5.232,0,0,1,278.2,276.9a17.087,17.087,0,0,1,1.4,1.908,5.609,5.609,0,0,0,1.8,1.655,21.746,21.746,0,0,0,2.4,1.157,10.147,10.147,0,0,1,2.483,1.4,4.377,4.377,0,0,1,1.529,2.581,6.207,6.207,0,0,1-2.251,5.667,11.923,11.923,0,0,1-5.751,2.329,17.225,17.225,0,0,1-5.793.2,6.775,6.775,0,0,1-2.539-1.01,6.887,6.887,0,0,1-1.824-1.81,9.6,9.6,0,0,1-1.564-4.292,14.217,14.217,0,0,1,.133-3.766,25.961,25.961,0,0,1,.624-2.77c.2-.751.386-1.326.512-1.718l.147-.442Z" transform="translate(-239.438 -222.05)" fill="#fafafa"/><path d="M301.373,265.662a1.4,1.4,0,0,1-.631-.14,3,3,0,0,1-1.361-1.122,2.848,2.848,0,0,1-.477-1.15c-.084-.442-.056-.912-.147-1.354a1.129,1.129,0,0,0-.856-.919c-.463-.14-1.017-.112-1.592-.245a3.977,3.977,0,0,1-2.546-1.936,3.794,3.794,0,0,1,.386-4.208c.267-.316.463-.442.477-.428a4.848,4.848,0,0,0-.982,2.069,3.542,3.542,0,0,0,.407,2.378,3.788,3.788,0,0,0,2.336,1.753c.512.119,1.073.091,1.62.252a1.522,1.522,0,0,1,.736.449,1.635,1.635,0,0,1,.344.743c.091.512.049.975.119,1.4a2.624,2.624,0,0,0,.393,1.059A3.142,3.142,0,0,0,300.8,265.4a5.557,5.557,0,0,1,.568.259Z" transform="translate(-246.986 -215.759)" fill="#fafafa"/><path d="M327.467,289.654a.785.785,0,0,1,.344.274,1.529,1.529,0,0,1,.21,1.227,1.816,1.816,0,0,1-.421.835,2.853,2.853,0,0,1-.884.645,25.36,25.36,0,0,1-2.483.8,2.806,2.806,0,0,0-1.206.764,2.743,2.743,0,0,0-.631,1.4c-.2,1.087,0,2.315-.281,3.612a4.313,4.313,0,0,1-2.553,3.093,3.69,3.69,0,0,1-2.188.133,3.451,3.451,0,0,1-1.88-1.234,2.805,2.805,0,0,0-1.6-1.206,4.322,4.322,0,0,0-1.964.407,4.334,4.334,0,0,1-2.1.26,4.664,4.664,0,0,1-1.88-.7,4.91,4.91,0,0,1-2.1-2.988,6.432,6.432,0,0,1,.042-3.191,8.607,8.607,0,0,1,2.392-3.893,10.038,10.038,0,0,1,.947-.807,1.757,1.757,0,0,1,.358-.245s-.456.386-1.206,1.157a8.739,8.739,0,0,0-2.237,3.85,6.228,6.228,0,0,0,0,3.051,4.587,4.587,0,0,0,1.992,2.806,3.935,3.935,0,0,0,3.668.4,4.657,4.657,0,0,1,2.139-.421,2.034,2.034,0,0,1,1.052.512,8.37,8.37,0,0,1,.772.814,3.156,3.156,0,0,0,3.661,1,4.012,4.012,0,0,0,2.357-2.806c.267-1.2.084-2.441.309-3.591a3.029,3.029,0,0,1,.7-1.536,3.2,3.2,0,0,1,1.347-.919c.933-.316,1.8-.414,2.483-.743a2.027,2.027,0,0,0,1.249-1.319,1.473,1.473,0,0,0-.133-1.157A2.44,2.44,0,0,0,327.467,289.654Z" transform="translate(-250.678 -226.115)" fill="#fafafa"/><path d="M254.032,289.707a16.579,16.579,0,0,0-1.81-.7,6.516,6.516,0,0,0-7.715,3.57,17.8,17.8,0,0,0-.638,1.838,1.354,1.354,0,0,1,0-.533,5.765,5.765,0,0,1,.386-1.4,6.467,6.467,0,0,1,8.045-3.71,5.484,5.484,0,0,1,1.326.624C253.905,289.532,254.046,289.686,254.032,289.707Z" transform="translate(-232.217 -225.994)" fill="#fafafa"/><path d="M284.055,317.591a1.338,1.338,0,0,1,.119.2,3.67,3.67,0,0,1,.2.659,3.928,3.928,0,0,1-.414,2.476,3.612,3.612,0,0,1-1.192,1.3,3.738,3.738,0,0,1-1.943.6,3.984,3.984,0,0,1-2.174-.568c-.7-.393-1.1-1.234-1.831-1.192a4.91,4.91,0,0,0-2.02.9,4.02,4.02,0,0,1-6.137-3.549,3.9,3.9,0,0,1,.091-.7c.042-.147.07-.224.084-.224a5.016,5.016,0,0,0,0,.9,4.208,4.208,0,0,0,.764,2.251,3.865,3.865,0,0,0,5.043.982c.323-.182.645-.4,1-.589a2.624,2.624,0,0,1,1.206-.372,1.628,1.628,0,0,1,1.171.533,4.691,4.691,0,0,0,.849.7,3.7,3.7,0,0,0,1.978.533,3.507,3.507,0,0,0,1.788-.512,3.4,3.4,0,0,0,1.129-1.178,3.949,3.949,0,0,0,.5-2.329C284.16,317.9,284.02,317.605,284.055,317.591Z" transform="translate(-239.627 -234.674)" fill="#fafafa"/><path d="M355.3,421.85l2.49,17.247-11.229,1.543-2.294-16.868Z" transform="translate(-262.207 -265.834)" fill="#aa6550"/><path d="M358.372,446.489l-.168-.989-10.914,1.445.7,4.1.7-.07c3-.351,15.241-2.006,17.128-2.953C367.89,446.959,358.372,446.489,358.372,446.489Z" transform="translate(-263.109 -272.897)" fill="#ff8900"/><g transform="translate(84.343 174.873)" opacity="0.5"><path d="M351.953,451.243a3.822,3.822,0,0,0-1.782-2.055,3.675,3.675,0,0,0-2.651-.344l.519,3.009Z" transform="translate(-347.52 -448.736)" fill="#fff"/></g><g transform="translate(84.876 173.985)" opacity="0.5"><path d="M363.346,447.47s3.374.365,3.065.961-12.625,2.735-18.131,3.2v-.238l14.378-2.371S362.721,447.6,363.346,447.47Z" transform="translate(-348.28 -447.47)" fill="#fff"/></g><path d="M348,451.749a.774.774,0,0,0,.189,0l.512-.063,1.978-.259c1.662-.224,3.956-.568,6.488-1.01s4.8-.877,6.453-1.22l1.943-.421.526-.126.182-.049h-.189l-.533.1-1.95.386c-1.648.316-3.928.75-6.46,1.185s-4.812.793-6.474,1.045l-1.971.295-.533.084Z" transform="translate(-263.321 -273.822)" fill="#263238"/><path d="M368.756,449.126a4.756,4.756,0,0,1,.2-1,5.223,5.223,0,0,1,.54-.87,1.473,1.473,0,0,0-.659.821A1.515,1.515,0,0,0,368.756,449.126Z" transform="translate(-269.502 -273.422)" fill="#263238"/><path d="M363.846,447.986a2.137,2.137,0,0,0,.266-.477c.112-.281.182-.5.147-.519s-.154.2-.267.47S363.811,447.972,363.846,447.986Z" transform="translate(-268.05 -273.341)" fill="#263238"/><path d="M362.488,447.691a1.749,1.749,0,0,0,.337-.323c.154-.2.259-.379.231-.4s-.175.119-.337.316S362.46,447.642,362.488,447.691Z" transform="translate(-267.646 -273.335)" fill="#263238"/><path d="M361.45,446.582a1.234,1.234,0,0,0,.575,0,1.276,1.276,0,0,0,.554-.154,2.588,2.588,0,0,0-1.129.182Z" transform="translate(-267.337 -273.172)" fill="#263238"/><path d="M361,445.619a1.1,1.1,0,0,0,.659.077,1.171,1.171,0,0,0,.631-.2,3.211,3.211,0,0,0-.645.063A3.853,3.853,0,0,0,361,445.619Z" transform="translate(-267.203 -272.897)" fill="#263238"/><path d="M364.14,446.48a2.105,2.105,0,0,0,.7-.126,4.517,4.517,0,0,0,.7-.295,1.886,1.886,0,0,0,.393-.245.386.386,0,0,0,.133-.245.3.3,0,0,0-.154-.26,1.3,1.3,0,0,0-1.508.645,1.346,1.346,0,0,0-.147.5.421.421,0,0,0,0,.189,2.033,2.033,0,0,1,.217-.645,1.284,1.284,0,0,1,.526-.491,1.108,1.108,0,0,1,.835-.084c.119.063.105.2,0,.295a2.147,2.147,0,0,1-.365.231,4.625,4.625,0,0,1-.7.309C364.4,446.4,364.133,446.48,364.14,446.48Z" transform="translate(-268.14 -272.824)" fill="#263238"/><path d="M363.935,446.478a.7.7,0,0,0,0-.491,1.137,1.137,0,0,0-.281-.477.7.7,0,0,0-.638-.253.281.281,0,0,0-.154.358.819.819,0,0,0,.168.288,2.328,2.328,0,0,0,.4.365,1.017,1.017,0,0,0,.449.21,3.89,3.89,0,0,1-.393-.288,2.528,2.528,0,0,1-.358-.365c-.119-.133-.232-.379-.063-.442s.379.091.505.21a1.2,1.2,0,0,1,.273.421,1.993,1.993,0,0,1,.091.463Z" transform="translate(-267.754 -272.822)" fill="#263238"/><path d="M347.59,448.743a4.138,4.138,0,0,1,.8-.112,3.624,3.624,0,0,1,1.866.414,3.562,3.562,0,0,1,1.347,1.347c.245.435.316.744.344.736a.85.85,0,0,0-.042-.217,2.6,2.6,0,0,0-.217-.561,3.339,3.339,0,0,0-1.368-1.4,3.387,3.387,0,0,0-1.936-.393,2.671,2.671,0,0,0-.589.119A.7.7,0,0,0,347.59,448.743Z" transform="translate(-263.198 -273.804)" fill="#263238"/><path d="M355.51,450.267a6.154,6.154,0,0,0,1.6-.133,6.415,6.415,0,0,0,1.55-.407c0-.042-.7.133-1.571.281S355.51,450.225,355.51,450.267Z" transform="translate(-265.563 -274.157)" fill="#263238"/><path d="M352.5,451s.084.14.182.288.161.288.2.273,0-.175-.091-.351A.41.41,0,0,0,352.5,451Z" transform="translate(-264.664 -274.539)" fill="#263238"/><path d="M351.12,449.777a.632.632,0,0,0,.2.224c.133.091.252.147.273.119s-.063-.133-.2-.224S351.141,449.749,351.12,449.777Z" transform="translate(-264.252 -274.172)" fill="#263238"/><path d="M349.38,449.379c0,.035.154,0,.323.035s.3.091.323.063-.091-.161-.3-.189S349.366,449.344,349.38,449.379Z" transform="translate(-263.732 -274.026)" fill="#263238"/><path d="M348.17,449.3c0,.042.063.084.161.105a.457.457,0,0,0,.182,0,.28.28,0,0,0-.154-.1C348.268,449.288,348.177,449.267,348.17,449.3Z" transform="translate(-263.371 -274.027)" fill="#263238"/><path d="M304.143,423.154l-6.909,14.961L287.17,432.9l4.994-11.054Z" transform="translate(-245.156 -265.834)" fill="#aa6550"/><path d="M296.138,442.608l.428-.912-9.749-5.106L285,440.342l.6.33c2.658,1.4,13.614,7.147,15.7,7.456C303.643,448.471,296.138,442.608,296.138,442.608Z" transform="translate(-244.508 -270.236)" fill="#ff8900"/><g transform="translate(40.584 167.203)" opacity="0.5"><path d="M288.686,442.317a3.752,3.752,0,0,0-.267-2.7,3.675,3.675,0,0,0-1.978-1.817l-1.312,2.763Z" transform="translate(-285.13 -437.8)" fill="#fff"/></g><g transform="translate(40.506 169.889)" opacity="0.5"><path d="M299.735,447.122s2.539,2.244,1.943,2.553-11.881-5.036-16.658-7.827l.126-.217,13.109,6.355S299.153,446.876,299.735,447.122Z" transform="translate(-285.02 -441.63)" fill="#fff"/></g><path d="M285,441.52l.161.1.477.259,1.753.933c1.494.772,3.57,1.81,5.885,2.911s4.44,2.048,5.983,2.721l1.831.772.5.2a.59.59,0,0,0,.175.063l-.168-.084-.491-.224-1.817-.821c-1.529-.7-3.64-1.648-5.962-2.749s-4.391-2.1-5.892-2.876l-1.789-.87-.484-.238Z" transform="translate(-244.508 -271.708)" fill="#263238"/><path d="M303.8,450.431a4.2,4.2,0,0,1,.736-.7,4.5,4.5,0,0,1,.94-.4,1.767,1.767,0,0,0-1.676,1.094Z" transform="translate(-250.122 -274.04)" fill="#263238"/><path d="M300.639,446.575c0,.035.238-.07.491-.232s.435-.309.421-.344a1.269,1.269,0,0,0-.491.231C300.808,446.393,300.618,446.547,300.639,446.575Z" transform="translate(-249.177 -273.046)" fill="#263238"/><path d="M299.78,445.564c0,.035.217,0,.456-.07s.435-.154.421-.189-.21,0-.456.063S299.773,445.529,299.78,445.564Z" transform="translate(-248.921 -272.834)" fill="#263238"/><path d="M299.69,444a1.459,1.459,0,0,0,.484.309c.281.14.526.224.54.189s-.2-.168-.484-.309A2.2,2.2,0,0,0,299.69,444Z" transform="translate(-248.894 -272.449)" fill="#263238"/><path d="M299.89,443a1.526,1.526,0,0,0,.491.442,1.129,1.129,0,0,0,.631.2,3.957,3.957,0,0,0-.561-.323,4.372,4.372,0,0,0-.561-.323Z" transform="translate(-248.954 -272.15)" fill="#263238"/><path d="M301.7,445.634a1.833,1.833,0,0,0,.638.295,4.159,4.159,0,0,0,.743.175,1.97,1.97,0,0,0,.463,0,.358.358,0,0,0,.253-.119.281.281,0,0,0,0-.3,1.29,1.29,0,0,0-1.6-.344,1.22,1.22,0,0,0-.407.33c-.077.091-.105.154-.1.161a1.953,1.953,0,0,1,.54-.407,1.3,1.3,0,0,1,.7-.091,1.059,1.059,0,0,1,.7.407c.063.126,0,.225-.175.238a2.94,2.94,0,0,1-.428,0,5.53,5.53,0,0,1-.737-.14C301.949,445.76,301.7,445.613,301.7,445.634Z" transform="translate(-249.491 -272.806)" fill="#263238"/><path d="M301.74,445.346a.7.7,0,0,0,.281-.407,1.144,1.144,0,0,0,.049-.547.7.7,0,0,0-.379-.575.281.281,0,0,0-.33.2.7.7,0,0,0,0,.33,2.011,2.011,0,0,0,.119.526,1,1,0,0,0,.238.435,4.784,4.784,0,0,0-.154-.463,3.028,3.028,0,0,1-.084-.5c0-.175.035-.442.2-.4s.253.295.295.47a1.059,1.059,0,0,1,0,.5A2.643,2.643,0,0,1,301.74,445.346Z" transform="translate(-249.388 -272.392)" fill="#263238"/><path d="M287.1,437.8a7.8,7.8,0,0,1,.7.372,3.508,3.508,0,0,1,1.284,1.4,3.6,3.6,0,0,1,.33,1.88c-.056.5-.175.785-.147.793s.042-.063.091-.2a3.272,3.272,0,0,0,.147-.582,3.332,3.332,0,0,0-1.655-3.388,3.185,3.185,0,0,0-.554-.238A.661.661,0,0,0,287.1,437.8Z" transform="translate(-245.135 -270.597)" fill="#263238"/><path d="M292.62,443.729a6.05,6.05,0,0,0,1.4.814,6.458,6.458,0,0,0,1.5.561c0-.042-.652-.3-1.445-.7A10.39,10.39,0,0,0,292.62,443.729Z" transform="translate(-246.783 -272.367)" fill="#263238"/><path d="M289.853,442.4c-.035,0,0,.161,0,.337v.344a.483.483,0,0,0,.126-.337C289.98,442.54,289.888,442.386,289.853,442.4Z" transform="translate(-245.952 -271.971)" fill="#263238"/><path d="M289.433,440.609c-.035,0,0,.147,0,.295s.126.267.161.252,0-.14,0-.295S289.468,440.6,289.433,440.609Z" transform="translate(-245.827 -271.436)" fill="#263238"/><path d="M288.23,439.3c0,.035.119.1.245.217s.182.245.224.238,0-.189-.133-.33S288.23,439.269,288.23,439.3Z" transform="translate(-245.472 -271.042)" fill="#263238"/><path d="M287.3,438.526a.274.274,0,0,0,.07.175c.07.07.147.105.168.077s0-.1-.07-.168S287.328,438.5,287.3,438.526Z" transform="translate(-245.194 -270.812)" fill="#263238"/><path d="M250.4,334.282s-3.766,13.572,8.248,17.338l35.925,1.178-17.093,43.486,15.43,4.37,19.744-44.384a14.532,14.532,0,0,0,1.564-6.572h0a14.582,14.582,0,0,0-11.138-14.175l-28.055-6.8-24.085,5.744" transform="translate(-234.009 -238.024)" fill="#263238"/><path d="M270.349,331.387s-6.888,13.8,8.571,16.833l36.24,4.208,4.755,46.586,15.024-.9-3.325-49.2a16.132,16.132,0,0,0-11.306-14.638l-31.022-7.47-18.937,4.587" transform="translate(-239.676 -237.451)" fill="#263238"/><path d="M319.4,371.335a6.89,6.89,0,0,1,.407-1.066c.309-.743.736-1.781,1.284-3.079l4.657-10.942h0c2.216-4.026,1.7-10.268-1.894-14.8a14.225,14.225,0,0,0-5.1-3.837,33.617,33.617,0,0,0-5.7-1.978c-1.866-.505-3.668-.884-5.345-1.263l-4.671-1.052-6.761-1.543-1.831-.442-.477-.126-.161-.049h.168l.484.091,1.852.372,6.782,1.4,4.685,1.01c1.683.365,3.507.736,5.359,1.234a32.266,32.266,0,0,1,5.765,1.978,14.674,14.674,0,0,1,5.239,3.928c3.675,4.657,4.208,11.026,1.887,15.178h0c-1.971,4.482-3.619,8.227-4.783,10.885-.575,1.291-1.038,2.315-1.368,3.044A9.812,9.812,0,0,1,319.4,371.335Z" transform="translate(-247.138 -238.753)" fill="#455a64"/><path d="M315.991,355.06a21.181,21.181,0,0,1-1.249,3.717,20.931,20.931,0,0,1-1.592,3.591,21.176,21.176,0,0,1,1.249-3.717A20.925,20.925,0,0,1,315.991,355.06Z" transform="translate(-252.914 -245.89)" fill="#455a64"/><path d="M248.823,304.163l19.358,1.746s5.765-2.392,7.014-1.746,7.056,6,7.056,6h-46.88l-.351-.954Z" transform="translate(-229.583 -230.658)" fill="#aa6550"/><path d="M268.1,201.514c.961-1.543,2.967-2.1,4.79-2.1a11.341,11.341,0,0,1,10.675,9.069c.365,2.048.147,4.208.793,6.165a17.225,17.225,0,0,0,2.174,3.928,10.521,10.521,0,0,1,1.824,4.082,4.1,4.1,0,0,1-1.5,4,5,5,0,0,1-4.419,8.417c-1.094-.189-2.272-.7-3.261-.21A5.317,5.317,0,0,0,277.967,236a5.7,5.7,0,0,1-6.046,1.017,10.52,10.52,0,0,1-4.776-4.208c-.316-.477-.7-1.031-1.3-.975a1.8,1.8,0,0,0-.856.477,5.085,5.085,0,0,1-6.951-7.357,5.821,5.821,0,0,1-3.815-3.823,8.451,8.451,0,0,1,.21-5.513,21.539,21.539,0,0,1,4.678-6.831c1.69-1.9,2.188-4.84,3.879-6.733a5.415,5.415,0,0,1,3.149-2.1,6.27,6.27,0,0,1,3.619.807" transform="translate(-235.209 -199.41)" fill="#263238"/><path d="M275.55,203.7a9.448,9.448,0,0,0-9.441,9.546l.274,25.825a6.088,6.088,0,0,0,6.432,5.8h0a6.405,6.405,0,0,0,6.46-6.158c0-3.507.091-7.161.091-7.161s4.5-.75,5.429-6.614c.231-1.473.245-6.888.2-11.874a9.441,9.441,0,0,0-9.448-9.363Z" transform="translate(-238.867 -200.691)" fill="#aa6550"/><path d="M290.5,221.87a.758.758,0,0,1-.7.764.7.7,0,0,1-.779-.7.757.757,0,0,1,.7-.764.7.7,0,0,1,.779.7Z" transform="translate(-245.708 -205.906)" fill="#263238"/><path d="M290.095,220.663c-.1.1-.666-.323-1.473-.323s-1.4.407-1.494.309.049-.217.309-.407a2.1,2.1,0,0,1,1.192-.372,2.041,2.041,0,0,1,1.178.379C290.053,220.424,290.137,220.6,290.095,220.663Z" transform="translate(-245.135 -205.52)" fill="#263238"/><path d="M278.953,221.87a.757.757,0,0,1-.7.765.7.7,0,0,1-.772-.7.758.758,0,0,1,.7-.765.7.7,0,0,1,.771.7Z" transform="translate(-242.262 -205.906)" fill="#263238"/><path d="M278.725,220.853c-.091.1-.666-.323-1.473-.323s-1.4.407-1.494.309.056-.224.316-.414a2.1,2.1,0,0,1,1.192-.365,1.964,1.964,0,0,1,1.171.379C278.725,220.628,278.781,220.8,278.725,220.853Z" transform="translate(-241.74 -205.576)" fill="#263238"/><path d="M284.04,226.877a5.126,5.126,0,0,1,1.312-.238c.21,0,.407-.063.442-.2a1.066,1.066,0,0,0-.14-.61l-.61-1.578a26.926,26.926,0,0,1-1.4-4.117,26.538,26.538,0,0,1,1.7,4c.2.554.4,1.08.582,1.585a1.15,1.15,0,0,1,.105.807.526.526,0,0,1-.337.309,1.319,1.319,0,0,1-.351.042A5.386,5.386,0,0,1,284.04,226.877Z" transform="translate(-244.102 -205.597)" fill="#263238"/><path d="M281.653,242.514a14.96,14.96,0,0,1-7.862-2.1s1.908,4.026,7.778,3.507Z" transform="translate(-241.16 -211.653)" fill="#874030"/><path d="M282.693,232.3a1.445,1.445,0,0,0-1.3-.54,1.333,1.333,0,0,0-.926.491.863.863,0,0,0-.063.968.989.989,0,0,0,1.066.267,3.106,3.106,0,0,0,1.031-.617.93.93,0,0,0,.231-.238.266.266,0,0,0,0-.3" transform="translate(-243.098 -209.066)" fill="#874030"/><path d="M280.754,230.55c.133,0,.133.87.884,1.494s1.69.526,1.7.645-.21.175-.6.182a2.209,2.209,0,0,1-1.4-.491,1.943,1.943,0,0,1-.7-1.255C280.6,230.76,280.7,230.543,280.754,230.55Z" transform="translate(-243.201 -208.709)" fill="#263238"/><path d="M278.5,217.74c-.084.217-.891.112-1.838.224s-1.718.379-1.845.175c-.056-.091.077-.3.386-.512a3.127,3.127,0,0,1,1.368-.477,3.071,3.071,0,0,1,1.438.168C278.357,217.431,278.532,217.606,278.5,217.74Z" transform="translate(-241.462 -204.701)" fill="#263238"/><path d="M289.735,217.28c-.14.182-.7,0-1.368,0s-1.241.119-1.4-.07.035-.281.281-.449a1.9,1.9,0,0,1,1.115-.3,1.929,1.929,0,0,1,1.094.365C289.721,217,289.777,217.189,289.735,217.28Z" transform="translate(-245.077 -204.501)" fill="#263238"/><path d="M263.027,212.629c.414-3.556,2.1-7.133,5.141-9.006,2.672-1.641,5.408-2.02,8.066-.568a7.6,7.6,0,0,1,6.221,1.957,9.869,9.869,0,0,1,3.023,6.186,15.036,15.036,0,0,1-1.4,6.951c-.147-1.978.063-4.026-.084-6.011-3.051-1.291-6.383-3.851-7.568-6.951a12.422,12.422,0,0,1-8.887,8.662,10.17,10.17,0,0,1-3.507,9.413C263.293,219.763,262.613,216.178,263.027,212.629Z" transform="translate(-237.909 -200.229)" fill="#263238"/><path d="M263.382,220.81c-.456,2.272.323,4.587.9,6.831s.919,4.776-.288,6.754a3.507,3.507,0,0,0-.814,1.8,6.515,6.515,0,0,0,.61,1.662,2.6,2.6,0,0,1-1.171,2.806,4.257,4.257,0,0,1-3.17.456,12.5,12.5,0,0,1-3.051-1.2l-2.855-1.4a4.8,4.8,0,0,1-1.2-.75,4.033,4.033,0,0,1-1.045-2.1,12.892,12.892,0,0,1,1.529-9c1.529-2.714.849-7.217,3.507-8.887" transform="translate(-234.371 -204.896)" fill="#263238"/><path d="M254.925,234.562a5.672,5.672,0,0,1-1.529-.6,4.79,4.79,0,0,1-1.4-1.312,4.741,4.741,0,0,1-.877-2.343,6.1,6.1,0,0,1,.512-2.995,7.373,7.373,0,0,1,.877-1.466,18.182,18.182,0,0,1,1.234-1.361,12.92,12.92,0,0,0,1.291-1.5,4.335,4.335,0,0,0,.778-1.957c.182-1.445-.365-2.876-.133-4.257a2.658,2.658,0,0,1,1.038-1.69,6.641,6.641,0,0,1,1.838-.884,13.756,13.756,0,0,0,3.675-1.641,24.876,24.876,0,0,0,5.015-4.559c1.263-1.459,2.181-2.721,2.806-3.6.309-.442.547-.786.7-1.024a2.1,2.1,0,0,0,.217-.372,3.459,3.459,0,0,0-.288.323l-.757.982c-.659.842-1.613,2.1-2.9,3.507a25.446,25.446,0,0,1-5,4.447,13.8,13.8,0,0,1-3.605,1.578,6.747,6.747,0,0,0-1.95.94,3.051,3.051,0,0,0-1.185,1.929c-.245,1.543.309,2.953.14,4.278a6.073,6.073,0,0,1-1.957,3.254c-.435.463-.87.919-1.241,1.4a7.566,7.566,0,0,0-.9,1.55,6.313,6.313,0,0,0-.484,3.149,4.868,4.868,0,0,0,.975,2.448A4.742,4.742,0,0,0,253.3,234.1a3.966,3.966,0,0,0,1.171.435A1.46,1.46,0,0,0,254.925,234.562Z" transform="translate(-234.296 -200.482)" fill="#455a64"/><path d="M259.26,211.271a1.942,1.942,0,0,0,.624-.126,16.125,16.125,0,0,0,1.648-.554,25.25,25.25,0,0,0,9.391-6.383,15.533,15.533,0,0,0,1.115-1.326c.245-.323.372-.512.351-.533s-.631.645-1.662,1.669a30.292,30.292,0,0,1-9.307,6.312C260.095,210.921,259.239,211.222,259.26,211.271Z" transform="translate(-236.821 -200.288)" fill="#455a64"/><path d="M285.9,201.427a3.023,3.023,0,0,0-.856-.772,4.973,4.973,0,0,0-2.658-.926,3.374,3.374,0,0,0-1.55.33,2.805,2.805,0,0,0-1.01.821c-.449.6-.442,1.1-.4,1.094a7.714,7.714,0,0,1,.617-.919,3.058,3.058,0,0,1,2.336-.933,5.534,5.534,0,0,1,2.518.765A5.146,5.146,0,0,0,285.9,201.427Z" transform="translate(-242.837 -199.505)" fill="#455a64"/><path d="M265.821,225.256a1.278,1.278,0,0,1-.21.274,2.252,2.252,0,0,1-.807.484,2.223,2.223,0,0,1-1.4,0,2.132,2.132,0,0,1,.589-4.138,1.177,1.177,0,0,1,.337,0,2.631,2.631,0,0,0-1.185.33,2.154,2.154,0,0,0-.87.982,2.027,2.027,0,0,0,.042,1.578,1.992,1.992,0,0,0,1.136,1.094,2.161,2.161,0,0,0,1.312,0A2.476,2.476,0,0,0,265.821,225.256Z" transform="translate(-237.638 -206.115)" fill="#263238"/><path d="M266.88,223.6a6.37,6.37,0,0,0-.119-.7,3.023,3.023,0,0,0-1.087-1.606,2.9,2.9,0,1,0,1.087,3.051,6.115,6.115,0,0,0,.119-.7,2.434,2.434,0,0,1-.063.736,2.981,2.981,0,0,1-1.087,1.683,3.052,3.052,0,1,1-.014-4.833,2.967,2.967,0,0,1,1.087,1.676,2.174,2.174,0,0,1,.077.694Z" transform="translate(-237.287 -205.737)" fill="#263238"/><path d="M260.288,351.828c4.952-.323,2.623-7.442,2.5-15.36-.077-4.966-3.381-9.819-7.014-13.263a16.968,16.968,0,0,0-6.312-3.507,39.278,39.278,0,0,0-19.169-1.227S220.947,354.416,260.288,351.828Z" transform="translate(-227.882 -234.768)" fill="#455a64"/></g><g transform="translate(7.197 44.493)"><path d="M314.753,270.379a4.519,4.519,0,0,1-.273-.778c-.154-.491-.344-1.171-.519-1.936s-.309-1.452-.393-1.964a4.02,4.02,0,0,1-.1-.821,4.577,4.577,0,0,1,.2.807c.154.7.295,1.3.435,1.943s.309,1.255.477,1.943A4.5,4.5,0,0,1,314.753,270.379Z" transform="translate(-221.189 -263.442)" fill="#263238"/><path d="M317.151,270.494c-.042,0-.372-1.606-.736-3.6s-.638-3.619-.6-3.626.372,1.606.736,3.6S317.193,270.487,317.151,270.494Z" transform="translate(-221.889 -262.961)" fill="#263238"/><path d="M320.006,270.735c-.042,0-.435-1.753-.884-3.935s-.785-3.963-.743-3.97.435,1.753.884,3.935S320.041,270.728,320.006,270.735Z" transform="translate(-222.654 -262.83)" fill="#263238"/><path d="M322.456,269.483a4.987,4.987,0,0,1-.161-.828l-.358-2c-.133-.666-.259-1.29-.4-2a6.21,6.21,0,0,1-.147-.828,4.09,4.09,0,0,1,.253.807c.126.5.288,1.206.442,1.992s.252,1.494.309,2.013a4.136,4.136,0,0,1,.063.842Z" transform="translate(-223.554 -263.129)" fill="#263238"/><path d="M324.809,266.554a3,3,0,0,1-.295-.926,3.163,3.163,0,0,1-.154-.968,3.624,3.624,0,0,1,.295.933A3.387,3.387,0,0,1,324.809,266.554Z" transform="translate(-224.441 -263.376)" fill="#263238"/><path d="M320.879,272.63a11.543,11.543,0,0,1-1.866.358,12.465,12.465,0,0,1-1.894.21,13.68,13.68,0,0,1,1.866-.358A12.385,12.385,0,0,1,320.879,272.63Z" transform="translate(-222.279 -265.756)" fill="#263238"/><path d="M320.966,269.628c0,.035-1.655.358-3.717.7s-3.731.61-3.738.568,1.655-.358,3.717-.7S320.959,269.586,320.966,269.628Z" transform="translate(-221.201 -264.859)" fill="#263238"/><path d="M321.469,266.828c0,.035-2.069.365-4.629.736s-4.643.631-4.65.589,2.069-.372,4.629-.736S321.462,266.786,321.469,266.828Z" transform="translate(-220.807 -264.022)" fill="#263238"/><path d="M319.764,264.3c0,.042-1.55.3-3.507.575s-3.507.463-3.507.428,1.557-.3,3.507-.575S319.757,264.263,319.764,264.3Z" transform="translate(-220.974 -263.267)" fill="#263238"/><path d="M314.753,270.379a4.519,4.519,0,0,1-.273-.778c-.154-.491-.344-1.171-.519-1.936s-.309-1.452-.393-1.964a4.02,4.02,0,0,1-.1-.821,4.577,4.577,0,0,1,.2.807c.154.7.295,1.3.435,1.943s.309,1.255.477,1.943A4.5,4.5,0,0,1,314.753,270.379Z" transform="translate(-221.189 -263.442)" fill="#263238"/><path d="M317.151,270.494c-.042,0-.372-1.606-.736-3.6s-.638-3.619-.6-3.626.372,1.606.736,3.6S317.193,270.487,317.151,270.494Z" transform="translate(-221.889 -262.961)" fill="#263238"/><path d="M320.006,270.735c-.042,0-.435-1.753-.884-3.935s-.785-3.963-.743-3.97.435,1.753.884,3.935S320.041,270.728,320.006,270.735Z" transform="translate(-222.654 -262.83)" fill="#263238"/><path d="M322.456,269.483a4.987,4.987,0,0,1-.161-.828l-.358-2c-.133-.666-.259-1.29-.4-2a6.21,6.21,0,0,1-.147-.828,4.09,4.09,0,0,1,.253.807c.126.5.288,1.206.442,1.992s.252,1.494.309,2.013a4.136,4.136,0,0,1,.063.842Z" transform="translate(-223.554 -263.129)" fill="#263238"/><path d="M324.809,266.554a3,3,0,0,1-.295-.926,3.163,3.163,0,0,1-.154-.968,3.624,3.624,0,0,1,.295.933A3.387,3.387,0,0,1,324.809,266.554Z" transform="translate(-224.441 -263.376)" fill="#263238"/><path d="M320.879,272.63a11.543,11.543,0,0,1-1.866.358,12.465,12.465,0,0,1-1.894.21,13.68,13.68,0,0,1,1.866-.358A12.385,12.385,0,0,1,320.879,272.63Z" transform="translate(-222.279 -265.756)" fill="#263238"/><path d="M320.966,269.628c0,.035-1.655.358-3.717.7s-3.731.61-3.738.568,1.655-.358,3.717-.7S320.959,269.586,320.966,269.628Z" transform="translate(-221.201 -264.859)" fill="#263238"/><path d="M321.469,266.828c0,.035-2.069.365-4.629.736s-4.643.631-4.65.589,2.069-.372,4.629-.736S321.462,266.786,321.469,266.828Z" transform="translate(-220.807 -264.022)" fill="#263238"/><path d="M319.764,264.3c0,.042-1.55.3-3.507.575s-3.507.463-3.507.428,1.557-.3,3.507-.575S319.757,264.263,319.764,264.3Z" transform="translate(-220.974 -263.267)" fill="#263238"/><path d="M416.24,270.379a6.34,6.34,0,0,1,.182-.807c.168-.7.316-1.3.47-1.943s.281-1.248.435-1.943a4.915,4.915,0,0,1,.2-.807,4.015,4.015,0,0,1-.1.821c-.084.512-.217,1.206-.393,1.964s-.372,1.445-.519,1.936a3.6,3.6,0,0,1-.281.778Z" transform="translate(-251.878 -263.442)" fill="#263238"/><path d="M410.849,270.735c-.042,0,.295-1.781.743-3.97s.842-3.949.884-3.935-.295,1.781-.743,3.97S410.891,270.742,410.849,270.735Z" transform="translate(-250.267 -262.83)" fill="#263238"/><path d="M408.63,269.483a5.99,5.99,0,0,1,.063-.842c.063-.519.168-1.234.316-2.013s.309-1.487.442-1.992a5.3,5.3,0,0,1,.245-.807,5.038,5.038,0,0,1-.147.828c-.14.7-.259,1.333-.393,2l-.358,2A5.381,5.381,0,0,1,408.63,269.483Z" transform="translate(-249.606 -263.129)" fill="#263238"/><path d="M406.53,266.554a3.115,3.115,0,0,1,.154-.961,3.623,3.623,0,0,1,.295-.933,3.163,3.163,0,0,1-.119.94A3,3,0,0,1,406.53,266.554Z" transform="translate(-248.979 -263.376)" fill="#263238"/><path d="M409.07,272.63a12.324,12.324,0,0,1,1.887.21,13.948,13.948,0,0,1,1.873.358,12.366,12.366,0,0,1-1.894-.21A11.539,11.539,0,0,1,409.07,272.63Z" transform="translate(-249.737 -265.756)" fill="#263238"/><path d="M407.41,269.628c0-.042,1.683.21,3.738.568s3.717.7,3.71.7-1.676-.21-3.738-.568S407.4,269.663,407.41,269.628Z" transform="translate(-249.242 -264.859)" fill="#263238"/><path d="M406.13,266.828c0-.042,2.1.224,4.65.589s4.629.7,4.629.736-2.1-.224-4.65-.589S406.123,266.863,406.13,266.828Z" transform="translate(-248.859 -264.022)" fill="#263238"/><path d="M408.79,264.3c0-.035,1.578.154,3.507.428s3.507.533,3.507.575-1.578-.154-3.507-.428S408.79,264.34,408.79,264.3Z" transform="translate(-249.654 -263.267)" fill="#263238"/><path d="M444.911,411.614l-12.344-95.3h4.342V312.81H195.3v3.507h7.014c0,1-20.41,95.3-20.41,95.3h3.577l21.252-95.3H427.874l12.583,95.3Z" transform="translate(-181.9 -277.755)" fill="#263238"/></g></g></g></svg>