<svg xmlns="http://www.w3.org/2000/svg" width="302.205" height="158.5" viewBox="0 0 302.205 158.5"><g transform="translate(-2125.454 8796.337)"><path d="M80,0H302.2a0,0,0,0,1,0,0V78.5a80,80,0,0,1-80,80H0a0,0,0,0,1,0,0V80A80,80,0,0,1,80,0Z" transform="translate(2125.454 -8796.337)" fill="#2df0da"/><g transform="translate(2160.565 -8850.697)"><g transform="translate(27.531 72.789)"><path d="M104.087,131.91H37.06v67.023H81.3l11.8,10.575.308-10.575h10.671Z" transform="translate(-36.952 -131.831)" fill="#fafafa"/><path d="M63.365,200.943c-.042,0-.075-11.8-.075-26.349s.033-26.353.075-26.353.075,11.8.075,26.353S63.407,200.943,63.365,200.943Z" transform="translate(-52.253 -141.357)" fill="#263238"/><path d="M55.976,157.882a5.692,5.692,0,0,1-1.3.075,5.666,5.666,0,0,1-1.3-.075,5.666,5.666,0,0,1,1.3-.075A5.692,5.692,0,0,1,55.976,157.882Z" transform="translate(-46.472 -146.932)" fill="#263238"/><path d="M56.216,151.772a5.692,5.692,0,0,1-1.3.075,5.638,5.638,0,0,1-1.3-.075,5.637,5.637,0,0,1,1.3-.075A5.691,5.691,0,0,1,56.216,151.772Z" transform="translate(-46.612 -143.368)" fill="#263238"/><path d="M55.976,164.482a5.692,5.692,0,0,1-1.3.075,5.666,5.666,0,0,1-1.3-.075,5.666,5.666,0,0,1,1.3-.075A5.692,5.692,0,0,1,55.976,164.482Z" transform="translate(-46.472 -150.782)" fill="#263238"/><path d="M55.976,171.072a5.692,5.692,0,0,1-1.3.075,5.667,5.667,0,0,1-1.3-.075,5.666,5.666,0,0,1,1.3-.075,5.691,5.691,0,0,1,1.3.075Z" transform="translate(-46.472 -154.627)" fill="#263238"/><path d="M55.976,177.672a5.692,5.692,0,0,1-1.3.075,5.667,5.667,0,0,1-1.3-.075,5.668,5.668,0,0,1,1.3-.075A5.691,5.691,0,0,1,55.976,177.672Z" transform="translate(-46.472 -158.477)" fill="#263238"/><path d="M55.976,184.262a5.691,5.691,0,0,1-1.3.075,5.667,5.667,0,0,1-1.3-.075,5.666,5.666,0,0,1,1.3-.075A5.69,5.69,0,0,1,55.976,184.262Z" transform="translate(-46.472 -162.321)" fill="#263238"/><path d="M55.976,190.882a5.693,5.693,0,0,1-1.3.075,5.666,5.666,0,0,1-1.3-.075,5.667,5.667,0,0,1,1.3-.075A5.692,5.692,0,0,1,55.976,190.882Z" transform="translate(-46.472 -166.183)" fill="#263238"/><path d="M55.976,197.452a5.988,5.988,0,0,1-1.3.075,5.967,5.967,0,0,1-1.3-.075,5.666,5.666,0,0,1,1.3-.075,5.692,5.692,0,0,1,1.3.075Z" transform="translate(-46.472 -170.015)" fill="#263238"/><path d="M55.976,204.042a5.692,5.692,0,0,1-1.3.075,5.666,5.666,0,0,1-1.3-.075,5.667,5.667,0,0,1,1.3-.075A5.692,5.692,0,0,1,55.976,204.042Z" transform="translate(-46.472 -173.86)" fill="#263238"/><path d="M55.976,210.632a5.693,5.693,0,0,1-1.3.075,5.667,5.667,0,0,1-1.3-.075,5.666,5.666,0,0,1,1.3-.075A5.691,5.691,0,0,1,55.976,210.632Z" transform="translate(-46.472 -177.704)" fill="#263238"/><path d="M55.976,217.224a5.692,5.692,0,0,1-1.3.075,5.666,5.666,0,0,1-1.3-.075,5.969,5.969,0,0,1,1.3-.075,5.988,5.988,0,0,1,1.3.075Z" transform="translate(-46.472 -181.55)" fill="#263238"/><path d="M55.976,223.822a5.692,5.692,0,0,1-1.3.075,5.666,5.666,0,0,1-1.3-.075,5.667,5.667,0,0,1,1.3-.075,5.69,5.69,0,0,1,1.3.075Z" transform="translate(-46.472 -185.398)" fill="#263238"/><path d="M55.976,230.412a5.692,5.692,0,0,1-1.3.075,5.668,5.668,0,0,1-1.3-.075,5.666,5.666,0,0,1,1.3-.075A5.69,5.69,0,0,1,55.976,230.412Z" transform="translate(-46.472 -189.242)" fill="#263238"/><path d="M55.976,237a5.692,5.692,0,0,1-1.3.075,5.667,5.667,0,0,1-1.3-.075,5.667,5.667,0,0,1,1.3-.075,5.692,5.692,0,0,1,1.3.075Z" transform="translate(-46.472 -193.087)" fill="#263238"/><path d="M55.976,243.6a5.694,5.694,0,0,1-1.3.075,5.666,5.666,0,0,1-1.3-.075,5.667,5.667,0,0,1,1.3-.075,5.692,5.692,0,0,1,1.3.075Z" transform="translate(-46.472 -196.937)" fill="#263238"/><path d="M55.976,250.192a5.692,5.692,0,0,1-1.3.075,5.667,5.667,0,0,1-1.3-.075,5.667,5.667,0,0,1,1.3-.075A5.691,5.691,0,0,1,55.976,250.192Z" transform="translate(-46.472 -200.781)" fill="#263238"/><path d="M75.133,157.515c0,.042-1.5.075-3.367.075s-3.367-.033-3.367-.075,1.508-.075,3.367-.075S75.133,157.473,75.133,157.515Z" transform="translate(-55.234 -146.724)" fill="#263238"/><path d="M75.133,250.167c0,.025-1.5.042-3.367.042s-3.367,0-3.367-.042,1.508-.037,3.367-.037S75.133,250.147,75.133,250.167Z" transform="translate(-55.234 -200.794)" fill="#263238"/><path d="M89.43,171.079c0,.042-2.821.075-6.3.075s-6.3-.033-6.3-.075S79.651,171,83.151,171,89.43,171.038,89.43,171.079Z" transform="translate(-60.151 -154.634)" fill="#90caf9"/><path d="M124.365,171.085c0,.042-2.821.075-6.3.075s-6.3-.033-6.3-.075,2.821-.075,6.3-.075S124.365,171.043,124.365,171.085Z" transform="translate(-80.533 -154.64)" fill="#263238"/><path d="M102.672,177.685c0,.042-4.167.075-9.279.075s-9.283-.033-9.283-.075,4.167-.075,9.283-.075S102.672,177.643,102.672,177.685Z" transform="translate(-64.398 -158.49)" fill="#263238"/><path d="M102.672,184.275c0,.042-4.167.075-9.279.075s-9.283-.033-9.283-.075,4.167-.075,9.283-.075S102.672,184.233,102.672,184.275Z" transform="translate(-64.398 -162.334)" fill="#90caf9"/><path d="M133.342,204.055c0,.042-4.167.075-9.283.075s-9.279-.033-9.279-.075,4.167-.075,9.279-.075S133.342,204.013,133.342,204.055Z" transform="translate(-82.289 -173.873)" fill="#90caf9"/><path d="M120.106,190.895c0,.042-4.167.075-9.283.075s-9.283-.033-9.283-.075,4.167-.075,9.283-.075S120.106,190.841,120.106,190.895Z" transform="translate(-74.566 -166.196)" fill="#263238"/><path d="M155.616,177.685c0,.042-4.167.075-9.283.075s-9.283-.033-9.283-.075,4.167-.075,9.283-.075S155.616,177.643,155.616,177.685Z" transform="translate(-95.28 -158.49)" fill="#263238"/><path d="M75.133,164.495c0,.042-1.5.075-3.367.075s-3.367-.033-3.367-.075,1.508-.075,3.367-.075S75.133,164.453,75.133,164.495Z" transform="translate(-55.234 -150.795)" fill="#90caf9"/><path d="M75.133,243.615c0,.042-1.5.075-3.367.075s-3.367-.033-3.367-.075,1.508-.075,3.367-.075S75.133,243.573,75.133,243.615Z" transform="translate(-55.234 -196.95)" fill="#263238"/><path d="M83.143,190.895c0,.042-1.508.075-3.367.075s-3.367-.033-3.367-.075,1.508-.075,3.367-.075A32.825,32.825,0,0,1,83.143,190.895Z" transform="translate(-59.906 -166.196)" fill="#263238"/><path d="M89.43,217.2c0,.038-2.821.075-6.3.075s-6.3-.038-6.3-.075,2.821-.075,6.3-.075S89.43,217.163,89.43,217.2Z" transform="translate(-60.151 -181.544)" fill="#90caf9"/><path d="M124.365,217.2c0,.038-2.821.075-6.3.075s-6.3-.038-6.3-.075,2.821-.075,6.3-.075S124.365,217.163,124.365,217.2Z" transform="translate(-80.533 -181.544)" fill="#263238"/><path d="M102.672,223.795c0,.042-4.167.075-9.279.075s-9.283-.033-9.283-.075,4.167-.075,9.283-.075S102.672,223.753,102.672,223.795Z" transform="translate(-64.398 -185.388)" fill="#263238"/><path d="M102.672,230.385c0,.042-4.167.075-9.279.075s-9.283-.033-9.283-.075,4.167-.075,9.283-.075S102.672,230.343,102.672,230.385Z" transform="translate(-64.398 -189.232)" fill="#90caf9"/><path d="M120.106,236.975c0,.042-4.167.075-9.283.075s-9.283-.033-9.283-.075,4.167-.075,9.283-.075S120.106,236.942,120.106,236.975Z" transform="translate(-74.566 -193.076)" fill="#263238"/><path d="M155.616,223.795c0,.042-4.167.075-9.283.075s-9.283-.033-9.283-.075,4.167-.075,9.283-.075S155.616,223.753,155.616,223.795Z" transform="translate(-95.28 -185.388)" fill="#263238"/><path d="M83.143,236.975c0,.042-1.508.075-3.367.075s-3.367-.033-3.367-.075,1.508-.075,3.367-.075S83.143,236.942,83.143,236.975Z" transform="translate(-59.906 -193.076)" fill="#263238"/><path d="M55.976,257.069a5.692,5.692,0,0,1-1.3.075,5.666,5.666,0,0,1-1.3-.075,6.136,6.136,0,0,1,1.3-.071A6.161,6.161,0,0,1,55.976,257.069Z" transform="translate(-46.472 -204.796)" fill="#263238"/><path d="M55.976,263.662a5.692,5.692,0,0,1-1.3.075,5.668,5.668,0,0,1-1.3-.075,5.666,5.666,0,0,1,1.3-.075,5.692,5.692,0,0,1,1.3.075Z" transform="translate(-46.472 -208.639)" fill="#263238"/><path d="M55.976,270.252a5.694,5.694,0,0,1-1.3.075,5.668,5.668,0,0,1-1.3-.075,5.666,5.666,0,0,1,1.3-.075,5.692,5.692,0,0,1,1.3.075Z" transform="translate(-46.472 -212.483)" fill="#263238"/><path d="M75.133,270.265c0,.042-1.5.075-3.367.075s-3.367-.033-3.367-.075,1.508-.075,3.367-.075S75.133,270.223,75.133,270.265Z" transform="translate(-55.234 -212.496)" fill="#90caf9"/><path d="M102.672,257.045c0,.042-4.167.075-9.279.075s-9.283-.033-9.283-.075,4.167-.075,9.283-.075S102.672,257,102.672,257.045Z" transform="translate(-64.398 -204.784)" fill="#90caf9"/><path d="M120.106,263.635c0,.042-4.167.075-9.283.075s-9.283-.033-9.283-.075,4.167-.075,9.283-.075S120.106,263.593,120.106,263.635Z" transform="translate(-74.566 -208.628)" fill="#263238"/><path d="M83.143,263.635c0,.042-1.508.075-3.367.075s-3.367-.033-3.367-.075,1.508-.075,3.367-.075S83.143,263.593,83.143,263.635Z" transform="translate(-59.906 -208.628)" fill="#263238"/><rect width="67.023" height="3.712" transform="translate(0.108 0.079)" fill="#e0e0e0"/><path d="M103.936,131.8v4.767c0,3.121,0,7.7.021,13.545,0,11.708.029,28.47.05,48.715v.092H93.265l.1-.1c-.1,3.333-.2,6.9-.3,10.571v.217l-.162-.142-11.812-10.55.071.029H36.8V131.72h.092l48.665.05,13.579.021h-.05l-13.6.025-48.607.046.092-.092V198.8l-.108-.108H81.19l.029.029,11.8,10.616-.167.071c.108-3.671.212-7.258.312-10.571v-.1h10.766l-.1.1c.021-20.22.038-36.966.05-48.657,0-5.854,0-10.441.025-13.566v-3.571C103.915,132.232,103.936,131.8,103.936,131.8Z" transform="translate(-36.8 -131.72)" fill="#263238"/><path d="M41.668,135.824a.55.55,0,1,1-.161-.393.554.554,0,0,1,.161.393Z" transform="translate(-38.993 -133.791)" fill="#263238"/><path d="M45.448,135.824a.554.554,0,1,1-.554-.554A.554.554,0,0,1,45.448,135.824Z" transform="translate(-41.198 -133.791)" fill="#263238"/><path d="M49,135.824a.554.554,0,1,1-.554-.554A.554.554,0,0,1,49,135.824Z" transform="translate(-43.269 -133.791)" fill="#263238"/><path d="M103.936,131.8v4.767c0,3.121,0,7.7.021,13.545,0,11.708.029,28.47.05,48.715v.092H93.265l.1-.1c-.1,3.333-.2,6.9-.3,10.571v.217l-.162-.142-11.812-10.55.071.029H36.8V131.72h.092l48.665.05,13.579.021h-.05l-13.6.025-48.607.046.092-.092V198.8l-.108-.108H81.19l.029.029,11.8,10.616-.167.071c.108-3.671.212-7.258.312-10.571v-.1h10.766l-.1.1c.021-20.22.038-36.966.05-48.657,0-5.854,0-10.441.025-13.566v-3.571C103.915,132.232,103.936,131.8,103.936,131.8Z" transform="translate(-36.8 -131.72)" fill="#263238"/></g><g transform="translate(35.003 181.269)"><path d="M165.33,405.41l3.017,21h10.971l2.758-21Z" transform="translate(-164.122 -399.856)" fill="#455a64"/><path d="M162.43,400.5a4.321,4.321,0,0,1,1.454-3.5h16.5c.9.687,1.183,2.017,1.3,3.5Z" transform="translate(-162.43 -394.95)" fill="#455a64"/><path d="M168.47,394.13l1.392-2.05h11.433l1.221,2.05Z" transform="translate(-165.953 -392.08)" fill="#455a64"/><path d="M183.173,396.682c0,.058-3.542.108-7.916.108s-7.916-.05-7.916-.108,3.542-.112,7.916-.112S183.173,396.62,183.173,396.682Z" transform="translate(-165.294 -394.699)" fill="#263238"/><path d="M181.927,405.258c0,.058-4.275.108-9.541.108s-9.546-.05-9.546-.108,4.271-.108,9.546-.108S181.927,405.2,181.927,405.258Z" transform="translate(-162.669 -399.704)" fill="#263238"/><path d="M166.96,416.79h15.445l-.9,6.883H167.947Z" transform="translate(-165.073 -406.494)" fill="#263238"/></g><g transform="translate(86.636 76.393)"><path d="M193.29,287.106l1.825,22.758,2.5.367-1.746-23.67Z" transform="translate(-187.193 -225.649)" fill="#263238"/><path d="M185.559,291l7.7,1.846,6.787,6.487-2.7,3.221-6.108-6.887S184.488,293.962,185.559,291Z" transform="translate(-182.616 -228.239)" fill="#ba7e6d"/><path d="M201.814,308.749v-.058l-1.721-5.083-6.221-2.917a4.166,4.166,0,0,0-.792,1,10.245,10.245,0,0,0-2.7-2.454l-1.25-.775a2.162,2.162,0,0,0-2.383,3.446,1.746,1.746,0,0,0-.271,3.062,2.3,2.3,0,0,0-.25,3.517,1.6,1.6,0,0,0-.437,1.667,3.95,3.95,0,0,0,.979,1.567,13.8,13.8,0,0,0,2.337,2.083,2.679,2.679,0,0,0,.967.471,1.379,1.379,0,0,0,1.337-1.4L195.2,315.6l3.333,7.033,8.558-5.212Z" transform="translate(-182.668 -232.513)" fill="#ba7e6d"/><path d="M196.074,306.253a.671.671,0,0,1-.192-.092,3.489,3.489,0,0,1-.513-.329,4.925,4.925,0,0,1-1.392-1.746,5.071,5.071,0,0,1-.417-3.275,8.642,8.642,0,0,1,.283-.917,1.008,1.008,0,0,0-.025-.871,2.5,2.5,0,0,0-.771-.6,4.167,4.167,0,0,1-.833-.712,4.049,4.049,0,0,1-.608-.9c-.158-.321-.271-.646-.442-.921a1.325,1.325,0,0,0-.7-.583c-.287-.108-.608-.171-.9-.263a9.221,9.221,0,0,1-3.029-1.342,2.546,2.546,0,0,1-1.167-1.867v-.354l.058-.254a.783.783,0,0,1,.063-.2,1,1,0,0,1-.021.213l-.033.25v.342a2.5,2.5,0,0,0,1.171,1.75,9.47,9.47,0,0,0,2.992,1.275c.3.087.608.142.929.263a1.554,1.554,0,0,1,.8.667c.188.3.3.633.45.933a4.009,4.009,0,0,0,.579.854,3.858,3.858,0,0,0,.775.679,2.616,2.616,0,0,1,.833.662,1.225,1.225,0,0,1,.046,1.05,7.975,7.975,0,0,0-.288.9,4.975,4.975,0,0,0,.35,3.162,5.108,5.108,0,0,0,1.308,1.746C195.824,306.1,196.086,306.232,196.074,306.253Z" transform="translate(-182.573 -228.251)" fill="#875149"/><path d="M194.158,306.85a1.534,1.534,0,0,1,.275.325,5.322,5.322,0,0,1,.6,1,1.538,1.538,0,0,1,.154.833,2.15,2.15,0,0,1-.354.887,1.437,1.437,0,0,1-.854.65,1.912,1.912,0,0,1-1.112-.242,11.116,11.116,0,0,1-3.154-2.2,10,10,0,0,1-.779-.871,1.491,1.491,0,0,1-.238-.358c.029,0,.417.458,1.121,1.121a12.374,12.374,0,0,0,3.142,2.112,1.741,1.741,0,0,0,.987.225,1.25,1.25,0,0,0,.725-.554,2.042,2.042,0,0,0,.342-.8,1.479,1.479,0,0,0-.121-.742,7.212,7.212,0,0,0-.533-1.017A1.525,1.525,0,0,1,194.158,306.85Z" transform="translate(-184.516 -237.485)" fill="#875149"/><path d="M192.474,314.579a2.213,2.213,0,0,1,.417.279,5.045,5.045,0,0,1,1,.954,2.749,2.749,0,0,1,.454.858,1.908,1.908,0,0,1,0,1.125,1.571,1.571,0,0,1-.792.967,1.666,1.666,0,0,1-1.337-.042,11.17,11.17,0,0,1-3.567-2.8,9.747,9.747,0,0,1-.833-1.1,2.163,2.163,0,0,1-.246-.442c.033-.021.417.592,1.183,1.442a12,12,0,0,0,3.537,2.7,1.438,1.438,0,0,0,1.162.05,1.417,1.417,0,0,0,.7-.833,1.758,1.758,0,0,0,0-1.017,2.737,2.737,0,0,0-.417-.833,5.933,5.933,0,0,0-.933-.975,2.266,2.266,0,0,1-.325-.333Z" transform="translate(-183.857 -241.877)" fill="#875149"/><path d="M193.717,323.194a1.121,1.121,0,0,1,.262.3,2.271,2.271,0,0,1,.417,1.021,1.6,1.6,0,0,1-.112.771,1.192,1.192,0,0,1-.633.65,1.554,1.554,0,0,1-.992.038,4.918,4.918,0,0,1-.967-.383,18.184,18.184,0,0,1-3.05-1.875c-.362-.279-.646-.521-.833-.692a1.393,1.393,0,0,1-.279-.288c.008-.012.458.333,1.2.854a22.343,22.343,0,0,0,3.054,1.8,4.841,4.841,0,0,0,.921.371,1.392,1.392,0,0,0,.867,0,1.021,1.021,0,0,0,.542-.537,1.467,1.467,0,0,0,.125-.687,2.354,2.354,0,0,0-.329-.987A2.379,2.379,0,0,1,193.717,323.194Z" transform="translate(-183.833 -246.754)" fill="#875149"/><path d="M196.754,329.42a2.641,2.641,0,0,1,.3.529,5.1,5.1,0,0,1,.271.608,1.546,1.546,0,0,1,.067.833,1.317,1.317,0,0,1-.417.742,1.079,1.079,0,0,1-.658.246c-.417,0-.6-.217-.579-.225a1.666,1.666,0,0,0,.567.071,1,1,0,0,0,.537-.242,1.183,1.183,0,0,0,.35-.633,2.433,2.433,0,0,0-.262-1.35A1.346,1.346,0,0,1,196.754,329.42Z" transform="translate(-188.62 -250.651)" fill="#875149"/><path d="M200.552,332.718l-.075-2.558a2.083,2.083,0,0,1-1.787.033,4.05,4.05,0,0,1,.262,1.921l-.133.938Z" transform="translate(-190.344 -251.083)" fill="#263238"/><path d="M178.75,239.044c-.533-7.083,1.3-12.533,4.021-13.4.367-.112,1.779-.8,2.146-.683,2.658.833,4.583,6.441,5.05,12.679.417,5.3.054,10.416-1.8,12.629-.625.754-2.058.833-2.846.929C182.23,251.586,179.288,246.144,178.75,239.044Z" transform="translate(-178.658 -189.708)" fill="#455a64"/><path d="M187.661,225c-3.283.721-5.354,6.775-4.833,13.57.608,7.975,3.567,12.5,6.666,12.083a3.591,3.591,0,0,0,1.092-.521c1.842-2.225,2.183-7.325,1.783-12.616C191.9,231.333,190.307,225.887,187.661,225Z" transform="translate(-181.044 -189.738)" fill="#fff"/><path d="M198.238,237.937c.417,5.292-.079,10.279-1.921,12.5,2.5-1.442,4.233-6.8,3.75-13.083-.533-7.083-3.621-12.787-6.716-12.4-.1,0-.125.2-.221.229C195.784,226.058,197.772,231.72,198.238,237.937Z" transform="translate(-187.1 -189.701)" fill="#263238"/><path d="M182.733,238.474a.833.833,0,0,1,.025.158l.05.454c.046.417.113.987.242,1.742a26.375,26.375,0,0,0,.6,2.717,18.807,18.807,0,0,0,1.3,3.437,11.2,11.2,0,0,0,1.129,1.8,5.217,5.217,0,0,0,1.725,1.479,2.537,2.537,0,0,0,2.317.021,4.687,4.687,0,0,0,1.8-1.817,14.749,14.749,0,0,0,1.725-5.329,27.5,27.5,0,0,0,.2-6.054,26.666,26.666,0,0,0-1.112-5.941,12.873,12.873,0,0,0-2.637-4.921,3.612,3.612,0,0,0-2.217-1.2,2.841,2.841,0,0,0-2.175.867,6.779,6.779,0,0,0-1.321,1.867,12.55,12.55,0,0,0-.787,1.971,23.659,23.659,0,0,0-.9,6.379c0,.762,0,1.354.025,1.758v.458a.707.707,0,0,1,0,.154.621.621,0,0,1-.021-.154c0-.112-.025-.263-.042-.454-.025-.417-.062-1-.062-1.767a22.916,22.916,0,0,1,.833-6.421,12.72,12.72,0,0,1,.779-2.012,6.821,6.821,0,0,1,1.35-1.921,3.029,3.029,0,0,1,2.312-.929,3.8,3.8,0,0,1,2.342,1.25,13.069,13.069,0,0,1,2.7,5,26.728,26.728,0,0,1,1.129,6,27.7,27.7,0,0,1-.2,6.1,14.941,14.941,0,0,1-1.767,5.417,4.871,4.871,0,0,1-1.883,1.883,2.658,2.658,0,0,1-1.25.283,2.862,2.862,0,0,1-1.217-.312,5.321,5.321,0,0,1-1.775-1.537,10.978,10.978,0,0,1-1.137-1.837,18.6,18.6,0,0,1-1.283-3.471,25.961,25.961,0,0,1-.562-2.737c-.117-.754-.167-1.35-.2-1.75a2.033,2.033,0,0,0-.029-.458A.762.762,0,0,1,182.733,238.474Z" transform="translate(-180.949 -189.63)" fill="#263238"/><path d="M195.342,253.3c.058,0-.446,2-1.125,4.421s-1.275,4.383-1.333,4.367.446-2,1.125-4.425S195.284,253.283,195.342,253.3Z" transform="translate(-186.954 -206.247)" fill="#263238"/><path d="M195.992,243.77c.058,0-.446,2-1.125,4.425s-1.275,4.379-1.333,4.362.446-2,1.125-4.421S195.938,243.753,195.992,243.77Z" transform="translate(-187.333 -200.688)" fill="#263238"/><path d="M312.133,184.41l-39.891,6.933c.125.629.254,1.25.383,1.867l-.1-.254c1.625,7.45,3.217,15.416.417,22.5-.925,2.337-2.333,4.583-2.325,7.108,0,1.183.329,2.342.392,3.525a3.806,3.806,0,0,1-1.129,3.225c-.992.8-2.658.929-3.025,2.146a2.642,2.642,0,0,0,.9,2.342,18.162,18.162,0,0,0,5.65,4.258,8.929,8.929,0,0,0,1.875,4.167L283,238.592l-.475-2.5a3.75,3.75,0,0,0,2.612,2.108,9.419,9.419,0,0,0,4.421-.367,125.576,125.576,0,0,0,24.341-8.891c1.033-.5,6.25-.892,6.25-.892C321.045,214.817,317.053,196.739,312.133,184.41Z" transform="translate(-230.072 -166.06)" fill="#263238"/><path d="M318.048,156.465c-2.771-5.792-5.629-11.821-11.5-14.425-5.229-2.317-10.441-2.012-15.92-.379a20.257,20.257,0,0,0-7.5,4.787c-2.792,2.667-3.225,6.758-3.937,10.554-1.429,7.6,1.3,16.716,4.083,18.749l32.274,7.8c4.371-3.892,7.429-5.966,7.366-11.82C322.861,167.757,319.786,160.061,318.048,156.465Z" transform="translate(-237.075 -140.37)" fill="#263238"/><path d="M309.746,157.184l-19.237-.754c-5.979.621-8.333,8.641-7.471,14.583.967,6.6,2.408,14.633,4.212,19.333,3.621,9.454,11.383,9.112,11.383,9.112s.054.142.725,3.037l1.375,6.546c4.137,7.4,11.954,4.687,21.087-1.621l-8.258-47.395A3.521,3.521,0,0,0,309.746,157.184Z" transform="translate(-239.447 -149.738)" fill="#ba7e6d"/><path d="M292.523,206.712A1.283,1.283,0,0,0,294,207.72a1.25,1.25,0,0,0,1.054-1.4,1.287,1.287,0,0,0-1.479-1.012A1.25,1.25,0,0,0,292.523,206.712Z" transform="translate(-245.074 -178.238)" fill="#263238"/><path d="M290.017,200.335c.188.129.992-.775,2.342-1.054s2.5.183,2.6,0c.054-.087-.167-.35-.662-.575a3.525,3.525,0,0,0-2.121-.192,3.362,3.362,0,0,0-1.821,1.046C289.988,199.919,289.926,200.256,290.017,200.335Z" transform="translate(-243.597 -174.24)" fill="#263238"/><path d="M322.724,199.418a1.287,1.287,0,0,0,1.479,1.012,1.25,1.25,0,0,0,1.054-1.4,1.283,1.283,0,0,0-1.475-1.012A1.25,1.25,0,0,0,322.724,199.418Z" transform="translate(-262.692 -173.985)" fill="#263238"/><path d="M321.461,192.727c.192.133.992-.775,2.342-1.054s2.5.183,2.6,0c.054-.087-.163-.35-.663-.575a3.554,3.554,0,0,0-2.121-.192,3.392,3.392,0,0,0-1.821,1.046C321.448,192.344,321.369,192.669,321.461,192.727Z" transform="translate(-261.941 -169.803)" fill="#263238"/><path d="M309.66,204.979a9.089,9.089,0,0,0-2.279.067c-.35.037-.692.037-.8-.183a1.82,1.82,0,0,1,0-1.071q.225-1.358.467-2.842c.625-4.033,1-7.325.833-7.35s-.8,3.229-1.429,7.266q-.221,1.487-.417,2.846a2.037,2.037,0,0,0,.108,1.392.879.879,0,0,0,.671.383,2.424,2.424,0,0,0,.6-.042A9.075,9.075,0,0,0,309.66,204.979Z" transform="translate(-252.919 -171.421)" fill="#263238"/><path d="M320.71,250.97a25.441,25.441,0,0,0,12.362-6.25s-1.792,7.529-11.779,8.683Z" transform="translate(-261.523 -201.242)" fill="#875149"/><path d="M321.87,223.946a1.825,1.825,0,0,0-1.667-.5,2.392,2.392,0,0,0-1.908,1.508,1.475,1.475,0,0,0,.129,1.067c.112.162.033.087.2.179a4.2,4.2,0,0,0,1.892.687,1.8,1.8,0,0,0,1.708-1.075A1.817,1.817,0,0,0,321.87,223.946Z" transform="translate(-260.087 -188.81)" fill="#875149"/><path d="M320.454,221.128c-.225.033.075,1.5-.967,2.8s-2.637,1.458-2.608,1.667c0,.1.417.212,1.071.1a3.75,3.75,0,0,0,2.2-1.308,3.246,3.246,0,0,0,.712-2.329C320.788,221.427,320.55,221.1,320.454,221.128Z" transform="translate(-259.289 -187.478)" fill="#263238"/><path d="M317.866,183.427c.188.35,1.525-.029,3.154-.079s2.992.188,3.154-.179c.071-.171-.208-.487-.783-.767a5.479,5.479,0,0,0-4.808.2C318.033,182.923,317.779,183.26,317.866,183.427Z" transform="translate(-259.855 -164.619)" fill="#263238"/><path d="M288.348,192.121c.371.187,1.229-.521,2.4-1.021s2.262-.7,2.367-1.1c.042-.187-.237-.417-.787-.508a3.966,3.966,0,0,0-2.158.337A3.888,3.888,0,0,0,288.5,191.2C288.194,191.671,288.177,192.025,288.348,192.121Z" transform="translate(-242.582 -169.005)" fill="#263238"/><path d="M300.154,149.018a22.245,22.245,0,0,0,4.442,11.171,8.192,8.192,0,0,0,2.471,2.3,3.642,3.642,0,0,0,3.267.217,13.537,13.537,0,0,1-4.542-6.862,29.222,29.222,0,0,0,6.25,6.75c2.525,1.775,5.833,2.721,8.725,1.712l-.7-1.946a7.1,7.1,0,0,0,3.279,3.125,3.641,3.641,0,0,0,4.192-.933c-2.208-4.612-.542-10.621-3.55-14.754-2.083-2.862-5.858-3.946-9.387-4.167a28.187,28.187,0,0,0-14.454,2.979" transform="translate(-249.53 -143.41)" fill="#263238"/><path d="M301.18,153.78V154h.038C301.209,153.93,301.2,153.872,301.18,153.78Z" transform="translate(-250.131 -148.193)" fill="#263238"/><path d="M287.653,153.544l-.65-.1c-2.062-.492-3.529-1.25-5.75,1.958a18,18,0,0,0-2.546,6.458,23.366,23.366,0,0,0-.687,6.454,26.621,26.621,0,0,0,1.637,7.5,8.622,8.622,0,0,0,1.792-5.692,25.217,25.217,0,0,1,.417-6.071,15.53,15.53,0,0,0,.925,5,2.084,2.084,0,0,0,.833,1.087.883.883,0,0,0,1.2-.3,10.891,10.891,0,0,1-1.433-5.833,31.13,31.13,0,0,1,.833-6.029,29.9,29.9,0,0,0,2.812,9.779,2.617,2.617,0,0,0,.875,1.154,2.379,2.379,0,0,0,2.112-.083,5,5,0,0,1,2.083-.612,28.7,28.7,0,0,1-4.458-14.67Z" transform="translate(-236.595 -147.735)" fill="#263238"/><path d="M313.889,265.53l30.158,1.55L324.66,291.333l-7.962,3.746-7.062-1.687-1.625-5.137Z" transform="translate(-254.115 -213.381)" fill="#ba7e6d"/><path d="M390.743,279.768a3.3,3.3,0,0,1-.617.067,15.051,15.051,0,0,0-1.667.208,7.6,7.6,0,0,0-2.333.833,11.219,11.219,0,0,0-2.442,1.812,12.152,12.152,0,0,0-1.767,2.5,21.738,21.738,0,0,0-1.079,2.246c-.271.662-.467,1.208-.6,1.583a3.644,3.644,0,0,1-.229.583,3.569,3.569,0,0,1,.146-.608c.112-.387.288-.942.542-1.617a19.309,19.309,0,0,1,1.042-2.3,11.725,11.725,0,0,1,1.783-2.542,10.834,10.834,0,0,1,2.5-1.837,7.638,7.638,0,0,1,2.4-.808,11.452,11.452,0,0,1,1.7-.137A3.6,3.6,0,0,1,390.743,279.768Z" transform="translate(-296.116 -221.674)" fill="#263238"/><path d="M213,321.593s11.2,21.716,13.075,24.137c4.442,5.721,14.583,3.9,16.016.762,2.5-5.417,10.479-23.5,10.479-23.5l-2.637-6.5-8.875-18.333-8.7,30.112L221.079,314Z" transform="translate(-198.691 -232.416)" fill="#c1ff6e"/><path d="M343.59,313.945s-1.008-30.607-2.3-34.837-2.862-6.558-6.046-8.616c-3.625-2.342-7.5-3.025-7.916-3.412,0,0-11.025,12.241-16.541,19.229s-12.691,7.358-14.166,5.516-2.575-5.6-1.287-11.533a122.272,122.272,0,0,0,1.829-14.762l-1.279.142a18.8,18.8,0,0,0-15.854,12.62c-.088.267-.175.538-.254.833-2.583,8.846,7.55,21.562,7.55,21a32.516,32.516,0,0,0,.65,6.975c1.471,5.892,14.345,15.766,15.083,18.645s1.346,21.3,1.346,21.3,22.32.042,31.32,0c7.312-.038,23.374,0,23.374,0Z" transform="translate(-237.401 -213.381)" fill="#c1ff6e"/><path d="M296.464,294.62s.046.121.117.35a10.247,10.247,0,0,1,.271,1.021,20.115,20.115,0,0,1,.462,3.858,49.315,49.315,0,0,1-.2,5.754c-.167,2.162-.417,4.529-.554,7.021a35.86,35.86,0,0,0,.233,7.008,20.783,20.783,0,0,0,1.571,5.491,20,20,0,0,0,1.942,3.333c.271.371.5.642.642.833a2.711,2.711,0,0,1,.217.3,1.739,1.739,0,0,1-.25-.271c-.154-.183-.392-.45-.675-.812a18.416,18.416,0,0,1-2.012-3.333,20.049,20.049,0,0,1-1.629-5.521,35.344,35.344,0,0,1-.254-7.054c.125-2.5.392-4.867.571-7.025a53.011,53.011,0,0,0,.25-5.733,21.454,21.454,0,0,0-.392-3.846c-.075-.45-.175-.792-.229-1.025A1.869,1.869,0,0,1,296.464,294.62Z" transform="translate(-247.264 -230.351)" fill="#263238"/><g transform="translate(47.112 68.119)" opacity="0.3"><path d="M296.4,331.651c-2.658-1.767-4.108-4.946-4.517-8.108a33.61,33.61,0,0,1,.6-9.521c.554-3.5,1.479-6.667,2.033-10.162.362,4.846-.179,9.079-.529,13.8s-.175,9.758,2.412,13.716" transform="translate(-291.731 -303.86)"/></g><path d="M251.59,360.366c-.046.037-4.242-5.142-9.366-11.566s-9.25-11.666-9.2-11.7,4.242,5.141,9.371,11.566S251.64,360.328,251.59,360.366Z" transform="translate(-210.369 -255.131)" fill="#263238"/><g transform="translate(76.828 55.407)" opacity="0.3"><path d="M363.05,287.241a8.4,8.4,0,0,0,2.058,2.142,2.846,2.846,0,0,0,2.833.258c1.042-.575,1.387-1.875,1.717-3.021a26,26,0,0,1,8.987-13.27,44.576,44.576,0,0,0-9.208,4.583,15.016,15.016,0,0,0-6.091,8.058" transform="translate(-363.05 -273.35)"/></g><path d="M328.44,361.237a1.375,1.375,0,0,1-.3.071l-.862.158c-.371.071-.833.15-1.367.221s-1.146.175-1.821.25c-1.354.171-2.971.317-4.767.417s-3.783.138-5.862.1-4.054-.187-5.833-.362-3.4-.417-4.742-.642c-.671-.1-1.275-.229-1.808-.329s-.987-.2-1.358-.283l-.854-.2a1.421,1.421,0,0,1-.3-.083,2.186,2.186,0,0,1,.3.042l.862.158c.375.075.833.163,1.362.246s1.137.2,1.812.3c1.342.212,2.95.417,4.737.592s3.75.3,5.833.346,4.046,0,5.833-.079,3.408-.229,4.758-.379c.679-.062,1.287-.15,1.825-.212s1-.129,1.371-.187l.871-.117A1.667,1.667,0,0,1,328.44,361.237Z" transform="translate(-248.608 -268.811)" fill="#fff"/><path d="M330.171,322.9a2,2,0,0,1-.267.217l-.8.6-.583.417c-.221.15-.467.292-.729.454a20.515,20.515,0,0,1-1.812,1.046l-1.087.55c-.379.192-.8.342-1.212.521a28.584,28.584,0,0,1-2.742.992,30.233,30.233,0,0,1-13.22.967,28.339,28.339,0,0,1-2.858-.579c-.437-.121-.871-.208-1.275-.342l-1.154-.388a18.755,18.755,0,0,1-1.946-.771c-.283-.121-.55-.229-.787-.342l-.637-.337-.879-.458a1.667,1.667,0,0,1-.3-.179,2.173,2.173,0,0,1,.321.142l.9.417.646.321c.238.108.5.208.788.325.571.225,1.208.521,1.95.737l1.154.375c.417.125.833.208,1.271.325.875.246,1.833.383,2.842.558a30.778,30.778,0,0,0,13.133-.937c.971-.317,1.9-.6,2.729-.962.417-.179.833-.325,1.212-.508l1.087-.538c.7-.321,1.287-.708,1.821-1.012.263-.158.513-.3.733-.437l.592-.417.833-.562A2.088,2.088,0,0,1,330.171,322.9Z" transform="translate(-248.206 -246.848)" fill="#fff"/><path d="M234.135,360.449a1.823,1.823,0,0,1-.287.35c-.2.221-.492.521-.867.888a31.828,31.828,0,0,1-3.117,2.642,31.059,31.059,0,0,1-3.437,2.212c-.458.254-.833.45-1.1.571a1.957,1.957,0,0,1-.417.175c0-.029.55-.342,1.442-.875s2.083-1.312,3.383-2.258a38.092,38.092,0,0,0,3.142-2.579C233.651,360.874,234.114,360.424,234.135,360.449Z" transform="translate(-205.639 -268.751)" fill="#fff"/><path d="M255.845,384a2.883,2.883,0,0,1-.179.571,6.178,6.178,0,0,1-.258.654c-.113.237-.225.542-.383.833a19.546,19.546,0,0,1-1.2,2.112,22,22,0,0,1-1.812,2.362,21.3,21.3,0,0,1-2.15,2.058,18.75,18.75,0,0,1-1.967,1.425c-.287.192-.567.337-.8.475a6.751,6.751,0,0,1-.621.329,2.593,2.593,0,0,1-.55.242,3.514,3.514,0,0,1,.508-.317c.171-.092.375-.208.6-.358s.5-.3.779-.5a21.826,21.826,0,0,0,1.925-1.446,21.307,21.307,0,0,0,3.921-4.379,22.733,22.733,0,0,0,1.229-2.083c.167-.3.292-.587.417-.833s.217-.458.292-.637A3.56,3.56,0,0,1,255.845,384Z" transform="translate(-217.895 -282.49)" fill="#fff"/><path d="M277.475,370.3a4.115,4.115,0,0,1-.417-.571c-.237-.379-.6-.917-1.062-1.567s-1.046-1.4-1.725-2.208-1.479-1.646-2.358-2.5a30.41,30.41,0,0,0-2.608-2.225c-.833-.646-1.621-1.179-2.3-1.608s-1.225-.762-1.617-.979a4.23,4.23,0,0,1-.592-.362,3.851,3.851,0,0,1,.633.287c.417.2.971.513,1.667.925a27.988,27.988,0,0,1,2.333,1.579,31.35,31.35,0,0,1,2.637,2.225,32.213,32.213,0,0,1,2.362,2.5c.675.833,1.25,1.583,1.7,2.25s.792,1.217,1.008,1.608A4.5,4.5,0,0,1,277.475,370.3Z" transform="translate(-228.908 -267.487)" fill="#fff"/><path d="M282.707,332.194c0,.029-.517-.4-1.358-1.021a27.563,27.563,0,0,0-7.179-3.858c-.983-.358-1.608-.537-1.6-.575a1.961,1.961,0,0,1,.454.087c.283.063.7.179,1.2.342a22.886,22.886,0,0,1,7.221,3.883,9.292,9.292,0,0,1,.95.833A2.015,2.015,0,0,1,282.707,332.194Z" transform="translate(-233.441 -249.088)" fill="#fff"/><path d="M287.615,304.019a9.491,9.491,0,0,1-1.1-.571c-.675-.358-1.617-.833-2.683-1.308s-2.054-.833-2.779-1.083a8.6,8.6,0,0,1-1.162-.417,6.144,6.144,0,0,1,1.212.279,23.407,23.407,0,0,1,2.817,1.029,24.764,24.764,0,0,1,2.671,1.375,5.555,5.555,0,0,1,1.025.7Z" transform="translate(-237.711 -233.863)" fill="#fff"/><path d="M303.836,282.3c0,.029-.546-.217-1.412-.571a30.478,30.478,0,0,0-7.05-1.958c-.929-.142-1.508-.2-1.5-.233a1.415,1.415,0,0,1,.417,0,11.01,11.01,0,0,1,1.117.092,24,24,0,0,1,3.621.7,23.451,23.451,0,0,1,3.467,1.25c.417.2.771.367,1,.5A1.865,1.865,0,0,1,303.836,282.3Z" transform="translate(-245.866 -221.544)" fill="#fff"/><path d="M341.125,395.727a3.006,3.006,0,0,1-.612.083c-.4.042-.967.083-1.667.125a53.99,53.99,0,0,1-5.537,0,54.837,54.837,0,0,1-5.542-.525c-.7-.1-1.25-.2-1.667-.279a2.848,2.848,0,0,1-.6-.142,3.864,3.864,0,0,1,.613.058l1.667.212c1.4.171,3.333.367,5.5.467s4.108.092,5.525.054l1.667-.054A3.931,3.931,0,0,1,341.125,395.727Z" transform="translate(-264.318 -288.901)" fill="#fff"/><path d="M390.749,437.982a.533.533,0,0,1-.117.046l-.354.117-1.362.417c-.6.192-1.321.417-2.175.646s-1.817.525-2.917.787-2.258.575-3.537.854-2.646.567-4.087.858c-2.892.537-6.091,1.042-9.462,1.429s-6.608.579-9.55.692c-1.471.033-2.867.079-4.167.063s-2.525-.021-3.637-.05-2.117-.087-3-.129-1.642-.1-2.262-.154l-1.425-.121-.371-.038a.386.386,0,0,1-.125-.021h.5l1.429.079c.621.042,1.379.088,2.262.112s1.887.092,3,.1,2.325.046,3.633.025,2.7-.046,4.167-.083c2.917-.121,6.158-.342,9.529-.708s6.558-.883,9.45-1.412c1.442-.283,2.812-.538,4.083-.833s2.462-.558,3.542-.833,2.046-.529,2.917-.754,1.587-.417,2.183-.608l1.375-.4.362-.1A.453.453,0,0,1,390.749,437.982Z" transform="translate(-274.059 -313.973)" fill="#fff"/><path d="M421.816,411.371c0,.058-4.2.55-9.4,1.1s-9.412.942-9.412.879,4.2-.55,9.4-1.1S421.808,411.308,421.816,411.371Z" transform="translate(-309.527 -298.453)" fill="#fff"/><path d="M419.258,382.294c0,.058-2.083.654-4.725,1.329s-4.767,1.175-4.783,1.117,2.083-.654,4.729-1.329S419.241,382.235,419.258,382.294Z" transform="translate(-313.464 -281.492)" fill="#fff"/><path d="M420.972,355.83a22.537,22.537,0,0,1-3,.862,22.255,22.255,0,0,1-3.058.654,22.544,22.544,0,0,1,3-.862A22.25,22.25,0,0,1,420.972,355.83Z" transform="translate(-316.474 -266.057)" fill="#fff"/><g transform="translate(66.774 85.339)" opacity="0.3"><path d="M338.92,387.372c5.175,1.042,9.9,2.787,15.15,2.212s10.558-3.046,13.266-7.579c2.008-3.362,2.379-7.429,2.7-11.333q1.046-12.746,2.083-25.483l-10.729,29.762-5.146,7.85Z" transform="translate(-338.92 -345.19)"/></g><path d="M291.6,340.137l29.749-5.079s6.221-37.632,6.391-38.3,2.254-12.387,8.15-13.391,11.271,1.342,11.616,7.033c.279,4.55-6.325,37.241-10.487,52.382a12.066,12.066,0,0,1-10.637,8.3c-12.162.229-34.653,0-34.653,0Z" transform="translate(-244.542 -223.653)" fill="#c1ff6e"/><path d="M327.581,306.924c-.117.721-2.5,15.1-6.3,38.332v.062h-.062l-29.737,5.1.087-.1c.037,3.479.079,7.171.121,10.937l-.1-.108,11.25.079c6.3.029,12.445.033,18.383,0l4.408-.054a10.417,10.417,0,0,0,4.187-.792,12.566,12.566,0,0,0,6.108-5.417l.242-.446.2-.462a7.707,7.707,0,0,0,.342-.942c.2-.637.354-1.292.529-1.933.35-1.279.658-2.554.979-3.808.625-2.5,1.2-4.946,1.75-7.308,1.092-4.729,2.046-9.146,2.917-13.183,1.667-8.079,2.917-14.641,3.65-19.2.179-1.142.342-2.154.454-3.033.063-.417.117-.833.167-1.217s.075-.708.108-1.012a13.149,13.149,0,0,0,.092-1.375,4.039,4.039,0,0,1,.021-.471v.471a11.159,11.159,0,0,1-.071,1.379c-.029.3-.058.642-.1,1.012s-.1.779-.154,1.221c-.108.883-.262,1.9-.437,3.037-.7,4.583-1.925,11.129-3.583,19.212-.833,4.042-1.787,8.462-2.871,13.191-.542,2.367-1.117,4.808-1.742,7.321-.317,1.25-.625,2.525-.975,3.808-.175.642-.329,1.292-.525,1.942a8.33,8.33,0,0,1-.35.962l-.2.471-.246.454a12.733,12.733,0,0,1-6.208,5.5,10.557,10.557,0,0,1-4.258.808l-4.45.054c-5.937.05-12.083.046-18.387,0l-11.25-.079h-.1v-.108c-.038-3.75-.079-7.454-.117-10.937V350.2h.087l29.77-5.062-.075.071c1.946-11.625,3.546-21.2,4.662-27.87.571-3.333,1.017-5.933,1.317-7.708l.362-2.021C327.526,307.157,327.581,306.924,327.581,306.924Z" transform="translate(-244.39 -233.822)" fill="#263238"/><path d="M390.873,349.621a3.986,3.986,0,0,1-.687-.062l-1.871-.233c-1.579-.192-3.75-.417-6.187-.542s-4.617-.142-6.208-.121l-1.887.033a4.039,4.039,0,0,1-.692,0,4.43,4.43,0,0,1,.687-.075c.446-.038,1.087-.071,1.883-.1,1.592-.058,3.8-.071,6.225.058s4.621.375,6.2.6c.787.117,1.425.221,1.862.3a4.339,4.339,0,0,1,.679.133Z" transform="translate(-292.225 -261.769)" fill="#fff"/><path d="M398.62,311.729a4.368,4.368,0,0,1-.671-.133c-.417-.1-1.05-.229-1.821-.367a33.69,33.69,0,0,0-12.17,0c-.771.142-1.392.275-1.817.375a4.363,4.363,0,0,1-.671.133,4.13,4.13,0,0,1,.65-.212c.417-.129,1.037-.283,1.808-.446a30.52,30.52,0,0,1,12.229-.021c.771.163,1.392.313,1.812.442A3.645,3.645,0,0,1,398.62,311.729Z" transform="translate(-296.967 -239.585)" fill="#fff"/><path d="M383.235,391.089a3.719,3.719,0,0,1-.562-.367c-.175-.125-.392-.275-.654-.437s-.546-.362-.883-.546a21.915,21.915,0,0,0-2.412-1.212,23.186,23.186,0,0,0-3.133-1.046,23.472,23.472,0,0,0-3.262-.546,20.958,20.958,0,0,0-2.7-.058c-.383,0-.729.042-1.033.067s-.571.05-.783.079a3.463,3.463,0,0,1-.671.058,4.818,4.818,0,0,1,.658-.142c.213-.042.475-.088.779-.117s.654-.087,1.042-.1a19.275,19.275,0,0,1,2.725,0,20,20,0,0,1,6.458,1.608,19.267,19.267,0,0,1,2.412,1.25c.337.192.621.417.875.575a5.819,5.819,0,0,1,.633.471A4.44,4.44,0,0,1,383.235,391.089Z" transform="translate(-288.608 -284.05)" fill="#fff"/><path d="M374.47,421.156a4.04,4.04,0,0,1-.354-.571c-.213-.375-.533-.912-.933-1.571a50.326,50.326,0,0,0-7.433-9.471c-.546-.546-1-.979-1.308-1.275a4.728,4.728,0,0,1-.471-.479,4.122,4.122,0,0,1,.529.417c.329.275.8.7,1.358,1.229a43.332,43.332,0,0,1,4.062,4.479,42.809,42.809,0,0,1,3.4,5c.383.671.683,1.225.875,1.612A4.449,4.449,0,0,1,374.47,421.156Z" transform="translate(-286.759 -296.368)" fill="#fff"/><path d="M326.841,428.321a2.131,2.131,0,0,1-.042-.5q0-.554-.038-1.375c-.029-1.162-.1-2.762-.225-4.529s-.308-3.362-.446-4.512c-.067-.542-.125-1-.167-1.367a2.184,2.184,0,0,1-.037-.5,2.622,2.622,0,0,1,.121.492c.062.317.146.783.233,1.358.179,1.15.379,2.746.512,4.517s.171,3.379.163,4.542c0,.583,0,1.054-.029,1.379a2.612,2.612,0,0,1-.046.5Z" transform="translate(-264.542 -300.883)" fill="#fff"/><path d="M402.063,286.773c0,.058-3.058-.058-6.825-.267s-6.812-.417-6.808-.479,3.058.058,6.821.263S402.063,286.714,402.063,286.773Z" transform="translate(-301.027 -225.328)" fill="#fff"/><g transform="translate(67.899 96.618)" opacity="0.3"><path d="M350.528,387.047a30.4,30.4,0,0,1-8.908-6.383,14.606,14.606,0,0,1,3.7.867,4.305,4.305,0,0,0,3.667-.317,5.179,5.179,0,0,0,1.462-2.187,53.07,53.07,0,0,0,2.533-6.766c-.717,4.725-1.5,10.083-2.45,14.787" transform="translate(-341.62 -372.26)"/></g><g transform="translate(33.746 95.585)" opacity="0.3"><path d="M259.658,369.78a31.078,31.078,0,0,1,8.887,8.571c.154.225.308.525.154.75s-.633.188-.9,0c-2.775-2.083-5.992-6.3-8.15-9.308" transform="translate(-259.65 -369.78)"/></g><path d="M359.977,188.275l-8.333-15.145-8.7.954c-.617,6.746,5.654,12.554,5.521,19.329-.054,2.792-1.212,5.537-.833,8.308.346,2.612,2.012,4.9,2.379,7.5.437,3.087-.983,6.087-2.1,8.991s-1.937,6.312-.417,9.029A28.134,28.134,0,0,0,355.1,229.4c2.333-2.175,3.192-7.046,6.608-10.45,0,0,4.317-5.283,8.025-3.646,0,0,4.262-2.417-4.758-15.058C362.9,197.371,361.081,192.029,359.977,188.275Z" transform="translate(-274.466 -159.48)" fill="#263238"/><path d="M217.57,415.224l6.25-4.658a3.229,3.229,0,0,1,2.146-.592l5,.417,11.666,5.062,5.7-.762.087,9.925a50.453,50.453,0,0,1-7.083-.058,16.49,16.49,0,0,1-4.783-2.112,2.225,2.225,0,0,1,.333,1.779c-.333.779-3,2-3,2s-1.892.667-2.225-.667c0,0-3.333.442-3.671-2.229,0,0-5.1-.862-4.375-3.212.537-1.742,1.087-3.017,1.087-3.017l1.5-3.333-1.667-.3s-3.058,2.283-4.392,2.5A3.769,3.769,0,0,1,217.57,415.224Z" transform="translate(-201.357 -297.636)" fill="#ba7e6d"/><path d="M243.707,423.54c.025.033-.462.279-1.079.875a5.679,5.679,0,0,0-1.6,2.854,6.3,6.3,0,0,0,.029,1.821c.083.562.2,1.067.3,1.483a11.252,11.252,0,0,1,.312,1.367,1.25,1.25,0,0,1-.146-.346c-.083-.229-.2-.562-.317-.979a14.452,14.452,0,0,1-.342-1.492,6.046,6.046,0,0,1-.046-1.892,5.471,5.471,0,0,1,1.7-2.917,5.041,5.041,0,0,1,.833-.608A1.116,1.116,0,0,1,243.707,423.54Z" transform="translate(-214.886 -305.556)" fill="#875149"/><path d="M250.758,430.116a2.424,2.424,0,0,1-.354,0,1.842,1.842,0,0,0-.875.312,2.375,2.375,0,0,0-.875,1.05,3.471,3.471,0,0,0-.2,1.667,10.156,10.156,0,0,0,.362,1.7c.142.521.279.992.417,1.379.254.775.471,1.25.442,1.25s-.083-.1-.192-.3a8.575,8.575,0,0,1-.4-.892c-.15-.383-.3-.854-.454-1.375a8.821,8.821,0,0,1-.387-1.737,3.541,3.541,0,0,1,.238-1.783,2.433,2.433,0,0,1,.975-1.1,1.783,1.783,0,0,1,.958-.267A.754.754,0,0,1,250.758,430.116Z" transform="translate(-219.233 -309.336)" fill="#875149"/><path d="M259.063,439.449c-.021,0,.021-.133.167-.267a1.317,1.317,0,0,1,.679-.3.963.963,0,0,1,.737.163c.158.133.175.267.154.275s-.1-.075-.237-.146a1.034,1.034,0,0,0-.625-.075A2.739,2.739,0,0,0,259.063,439.449Z" transform="translate(-225.559 -314.498)" fill="#875149"/><path d="M259.522,435.46c.021,0,.125.067.192.25a1.838,1.838,0,0,1,.087.737,1.467,1.467,0,0,1-.229.712c-.117.167-.242.213-.254.188s.054-.108.121-.262a2.151,2.151,0,0,0,.146-.654,3.187,3.187,0,0,0,0-.683C259.539,435.577,259.5,435.477,259.522,435.46Z" transform="translate(-225.71 -312.509)" fill="#875149"/><path d="M232.1,423.9a1.487,1.487,0,0,1,.117-.417c.092-.254.229-.625.417-1.075.346-.9.833-2.15,1.4-3.521.2-.487.417-.962.579-1.4v-.021h0a3.016,3.016,0,0,1,1.317-.858,3.117,3.117,0,0,1,1.225-.162,2.662,2.662,0,0,1,.792.171c.175.071.263.121.258.133a5.136,5.136,0,0,0-1.054-.175,3.129,3.129,0,0,0-2.379,1.025v-.029c-.179.442-.371.917-.567,1.408-.558,1.371-1.075,2.6-1.458,3.5-.192.442-.35.8-.467,1.05a1.492,1.492,0,0,1-.175.375Z" transform="translate(-209.833 -301.416)" fill="#875149"/></g><g transform="translate(54.261 158.997)"><path d="M101.157,341.414l20.67,46.249h48.149a4.129,4.129,0,0,0-4.021-3.333l-41.361-.3-19.908-44.207a1.937,1.937,0,0,0-2.5-.987h0a1.942,1.942,0,0,0-1.029,2.579Z" transform="translate(-100.975 -338.662)" fill="#1d7e96"/><path d="M101.136,341.377a2.4,2.4,0,0,1-.092-.242,1.762,1.762,0,0,1-.079-.75,1.917,1.917,0,0,1,.5-1.121,1.962,1.962,0,0,1,1.546-.637,1.983,1.983,0,0,1,1.7,1.192c.329.717.683,1.5,1.067,2.354l2.642,5.833,16.25,35.961-.087-.058,21.666.15,11.745.083,6.05.046h1.529a4.8,4.8,0,0,1,1.55.188,4.266,4.266,0,0,1,2.433,1.912,4.355,4.355,0,0,1,.358.792,3.7,3.7,0,0,1,.117.417l.025.1c-.217.262-.067.071-.117.129H121.748l-.025-.054-14.945-33.541-4.167-9.412-1.1-2.5-.275-.637-.092-.217s.037.067.1.208.162.358.292.633l1.121,2.475c.975,2.171,2.4,5.346,4.225,9.387l15,33.507-.083-.05h48.14c-.046.058.112-.125-.1.129l-.025-.1a3.3,3.3,0,0,0-.112-.417,3.791,3.791,0,0,0-.338-.75,4.025,4.025,0,0,0-2.308-1.817,4.558,4.558,0,0,0-1.487-.179h-1.529L158,384.35l-11.745-.087-21.666-.167h-.062l-.025-.058-16.166-35.991-2.617-5.833-1.054-2.358a1.911,1.911,0,0,0-3.592,1.283A2.418,2.418,0,0,1,101.136,341.377Z" transform="translate(-100.954 -338.624)" fill="#263238"/><path d="M153.638,447.53a7.717,7.717,0,0,1-1.35,1.742,21.113,21.113,0,0,1-1.508,1.6,7.718,7.718,0,0,1,1.35-1.742A20.176,20.176,0,0,1,153.638,447.53Z" transform="translate(-130.02 -402.154)" fill="#263238"/><path d="M162.224,450.716a.24.24,0,0,1,.146-.046.608.608,0,0,1,.383.154.66.66,0,1,1-1.008.837.687.687,0,0,1,0-.625.612.612,0,0,1,.287-.3c.092-.037.15-.029.15,0a.769.769,0,0,0-.3.371.55.55,0,0,0,.033.462.508.508,0,0,0,.883-.179.546.546,0,0,0-.15-.442A.879.879,0,0,0,162.224,450.716Z" transform="translate(-136.372 -403.986)" fill="#263238"/><path d="M167.518,450.716a.24.24,0,0,1,.146-.046.617.617,0,0,1,.383.154.671.671,0,1,1-1.012.213.6.6,0,0,1,.292-.3c.092-.037.15-.029.15,0a.79.79,0,0,0-.3.371.554.554,0,0,0,.038.462.508.508,0,0,0,.883-.179.558.558,0,0,0-.15-.442C167.739,450.716,167.518,450.749,167.518,450.716Z" transform="translate(-139.458 -403.986)" fill="#263238"/></g><g transform="translate(20.91 207.698)"><rect width="190.074" height="5.162" fill="#263238"/></g></g></g></svg>