<svg xmlns="http://www.w3.org/2000/svg" width="279.536" height="269.748" viewBox="0 0 279.536 269.748"><g transform="translate(-956.5 -4547.336)"><path d="M80,0H254a0,0,0,0,1,0,0V175a80,80,0,0,1-80,80H0a0,0,0,0,1,0,0V80A80,80,0,0,1,80,0Z" transform="translate(956.5 4547.336)" fill="#2df0da"/><g transform="translate(933.072 4514.486)"><g transform="translate(23.428 45.85)"><rect width="42.636" height="61.798" transform="translate(197.687 6.683)" fill="#e0e0e0"/><rect width="42.636" height="61.798" transform="translate(195.552 6.683)" fill="#f5f5f5"/><rect width="32.042" height="48.415" transform="translate(200.852 13.371)" fill="#eed3b4"/><path d="M386.657,116.181V112.6c0-2.323,0-5.7-.03-9.975,0-8.532,0-20.618-.055-34.862l.109.109H354.615l.115-.115v48.415l-.091-.091,23.322.049h.073l-23.377.049h-.1V67.56h32.26v.1c0,14.269-.036,26.378-.049,34.935,0,4.245,0,7.635-.03,9.945v3.311A.863.863,0,0,1,386.657,116.181Z" transform="translate(-153.763 -54.395)" fill="#e0e0e0"/><path d="M412.653,56.87a8.176,8.176,0,0,1-.758,1.1c-.5.661-1.213,1.558-2,2.535s-1.552,1.819-2.11,2.426a8.1,8.1,0,0,1-.934.958,7.958,7.958,0,0,1,.813-1.067l2.05-2.486,2.08-2.468a7.887,7.887,0,0,1,.861-1Z" transform="translate(-174.344 -50.187)" fill="#e0e0e0"/><path d="M407.76,147.48a39.548,39.548,0,0,0,5.6,6.986" transform="translate(-174.702 -85.852)" fill="#fff"/><path d="M413.375,154.462a6.33,6.33,0,0,1-.97-.885,29.775,29.775,0,0,1-2.11-2.377,30.478,30.478,0,0,1-1.856-2.583,5.876,5.876,0,0,1-.649-1.146,9.269,9.269,0,0,1,.782,1.055c.473.661,1.134,1.565,1.9,2.529s1.5,1.819,2.044,2.426A9.012,9.012,0,0,1,413.375,154.462Z" transform="translate(-174.714 -85.848)" fill="#e0e0e0"/><path d="M345.9,154.229l5.585-6.889" transform="translate(-150.354 -85.797)" fill="#fff"/><path d="M351.485,147.34a43.243,43.243,0,0,1-2.7,3.517,43.058,43.058,0,0,1-2.88,3.372,40.931,40.931,0,0,1,2.7-3.517A41.745,41.745,0,0,1,351.485,147.34Z" transform="translate(-150.354 -85.797)" fill="#e0e0e0"/><path d="M345.91,56.87a37,37,0,0,1,2.711,3.238,39.345,39.345,0,0,1,2.529,3.384,39.528,39.528,0,0,1-2.711-3.238,40.959,40.959,0,0,1-2.529-3.384Z" transform="translate(-150.358 -50.187)" fill="#e0e0e0"/><rect width="10.727" height="30.465" transform="translate(212.18 23.201)" fill="#e0e0e0"/><path d="M200.688,45.85V86H143.02l-2.08-39.871Z" transform="translate(-69.681 -45.85)" fill="#e0e0e0"/><rect width="39.786" height="57.668" transform="translate(71.259 40.065) rotate(-90)" fill="#fff"/><path d="M198.714,86.2H140.5V45.86h58.214Zm-57.674-.552h57.123V46.406H141.04Z" transform="translate(-69.508 -45.854)" fill="#e0e0e0"/><rect width="45.177" height="29.901" transform="translate(77.505 5.221)" fill="#fff"/><path d="M196.322,54.393H183.667l-32.521.067.133-.133v29.9h0l-.146-.139H196.31l-.109.109c0-9.1.042-16.561.061-21.751v-.073c0,5.215.036,12.7.061,21.83v.23h-.115l-45.177.03H151v-.146h0V54.29h.127l32.606.061,9.284.036H196.3Z" transform="translate(-73.641 -49.172)" fill="#e0e0e0"/><path d="M140.94,46.13a4.76,4.76,0,0,1,.994.643c.606.424,1.389,1.031,2.262,1.722s1.625,1.352,2.165,1.819a4.78,4.78,0,0,1,.825.843c-.055.061-1.437-1.079-3.171-2.462a31.535,31.535,0,0,1-3.074-2.565Z" transform="translate(-69.681 -45.96)" fill="#e0e0e0"/><path d="M231.946,46.31a28.175,28.175,0,0,1-3.032,2.583,26.93,26.93,0,0,1-3.214,2.359,28.731,28.731,0,0,1,3.032-2.583,28.046,28.046,0,0,1,3.214-2.359Z" transform="translate(-103.043 -46.031)" fill="#e0e0e0"/><path d="M231.828,108.549,225.4,103.34" transform="translate(-102.925 -68.478)" fill="#fff"/><path d="M225.37,103.34a30.159,30.159,0,0,1,3.3,2.492,31.129,31.129,0,0,1,3.129,2.717,30.532,30.532,0,0,1-3.3-2.492,29,29,0,0,1-3.123-2.717Z" transform="translate(-102.913 -68.478)" fill="#e0e0e0"/><path d="M140.94,108.748a28.366,28.366,0,0,1,3-2.553,27.514,27.514,0,0,1,3.184-2.335,27.7,27.7,0,0,1-3.032,2.559A26.679,26.679,0,0,1,140.94,108.748Z" transform="translate(-69.681 -68.683)" fill="#e0e0e0"/><rect width="10.012" height="28.428" transform="translate(86.68 24.553) rotate(-90)" fill="#e0e0e0"/><path d="M47.139,403.275c.57-2.25-.916-4.493-2.577-6.112s-3.638-3.068-4.506-5.215c-1.413-3.481.431-8.01-1.959-10.915-1.407-1.7-3.911-2.268-5.16-4.087a9.369,9.369,0,0,1-1.134-3.262,33.17,33.17,0,0,0-8.344-15.4,28.8,28.8,0,0,0,3.347,14.881c.97,1.819,2.165,3.6,2.492,5.646.534,3.311-1.3,6.737-.461,9.987.952,3.723,5.148,6.191,5.367,10.024.188,3.238-2.62,6.1-2.389,9.332a8.708,8.708,0,0,0,1.461,3.839c2.529,4.148,6.228,7,11.807,6.877l6.834.2Z" transform="translate(-23.428 -168.823)" fill="#f5f5f5"/><path d="M70.37,403.8a5.524,5.524,0,0,0,1.886-.055,10.915,10.915,0,0,0,2.213-.57,9.43,9.43,0,0,0,2.735-1.516,3.857,3.857,0,0,0,1.122-1.51,7.028,7.028,0,0,0,.309-2.044,19.933,19.933,0,0,1,.146-2.213,6.215,6.215,0,0,1,.825-2.2c.794-1.419,2.128-2.765,2.547-4.693a16.27,16.27,0,0,0-.218-5.985,12.754,12.754,0,0,1,.121-6.422c.77-2.141,2.213-4.081,2.947-6.495s.37-5.051.509-7.635a10.139,10.139,0,0,1,.873-3.8c.546-1.213,1.3-2.359,1.9-3.638,1.213-2.583,1.395-5.5,1.71-8.362q.23-2.165.467-4.372a20.988,20.988,0,0,1,.734-4.372,38.363,38.363,0,0,1,1.607-4.245,13.087,13.087,0,0,0,.782-2.213,20.78,20.78,0,0,0,.206-2.353,27.511,27.511,0,0,0-.206-4.73c-.194-1.577-.491-3.135-.667-4.718v-.273l-.036-.315-.279.146a10.5,10.5,0,0,0-3.638,3.123,16.748,16.748,0,0,0-2.238,4.178,51.592,51.592,0,0,0-2.08,8.963,24.727,24.727,0,0,1-2.759,8.283c-.74,1.213-1.643,2.335-2.426,3.529a9.575,9.575,0,0,0-1.674,3.905c-.388,2.893,1.213,5.421.9,7.98a8.774,8.774,0,0,1-1.213,3.553c-.606,1.1-1.334,2.116-2.025,3.135a20.1,20.1,0,0,0-1.819,3.165,10,10,0,0,0-.819,3.432c-.158,2.3.182,4.487,0,6.555a15.16,15.16,0,0,1-1.649,5.621c-.855,1.7-1.789,3.226-2.529,4.73-.382.74-.74,1.461-1.025,2.183A10.97,10.97,0,0,0,67,393.718a13.577,13.577,0,0,0,0,3.9,9.8,9.8,0,0,0,1.983,4.966,5.419,5.419,0,0,0,.552.606,2.782,2.782,0,0,0,.455.376c.255.188.388.273.388.273a8.716,8.716,0,0,1-1.328-1.3,9.909,9.909,0,0,1-1.886-4.93,13.741,13.741,0,0,1,.067-3.845,10.406,10.406,0,0,1,.606-2.11,22.313,22.313,0,0,1,1.031-2.153c.764-1.467,1.686-2.99,2.523-4.687a15.245,15.245,0,0,0,1.692-5.749c.17-2.11-.158-4.3,0-6.549a9.7,9.7,0,0,1,.807-3.317,19.532,19.532,0,0,1,1.819-3.1c.685-1.019,1.419-2.038,2.05-3.153a9.284,9.284,0,0,0,1.286-3.7c.315-2.729-1.286-5.276-.885-7.968a9.32,9.32,0,0,1,1.589-3.748c.776-1.17,1.68-2.286,2.426-3.535A24.609,24.609,0,0,0,85,335.57a49.9,49.9,0,0,1,2.062-8.884,16.258,16.258,0,0,1,2.183-4.069,10.066,10.066,0,0,1,3.5-3l-.315-.176v.279c.182,1.595.473,3.159.667,4.718A27.287,27.287,0,0,1,93.3,329.1a21.129,21.129,0,0,1-.194,2.28,13.591,13.591,0,0,1-.758,2.134,39.335,39.335,0,0,0-1.619,4.287,21.9,21.9,0,0,0-.746,4.445c-.152,1.474-.309,2.935-.461,4.378-.309,2.868-.509,5.743-1.662,8.235-.57,1.243-1.328,2.389-1.892,3.638a10.642,10.642,0,0,0-.891,3.942c-.133,2.638.224,5.215-.479,7.556s-2.171,4.275-2.917,6.488a13.528,13.528,0,0,0-.1,6.579,15.3,15.3,0,0,1,.249,5.876c-.431,1.819-1.674,3.171-2.486,4.633a6.319,6.319,0,0,0-.837,2.292,19.248,19.248,0,0,0-.127,2.238,7.053,7.053,0,0,1-.285,1.983,3.638,3.638,0,0,1-1.049,1.449,9.46,9.46,0,0,1-2.668,1.522,11.487,11.487,0,0,1-2.189.606,8.712,8.712,0,0,1-1.389.146C70.534,403.8,70.37,403.8,70.37,403.8Z" transform="translate(-40.522 -153.39)" fill="#e0e0e0"/><path d="M93.805,325.83a.849.849,0,0,0-.067.206q-.055.243-.146.606c-.133.54-.285,1.352-.54,2.371s-.873,2.159-1.4,3.578-1.092,3.032-1.595,4.851-.958,3.857-1.431,6.028a24.5,24.5,0,0,1-2.153,6.67c-.552,1.116-1.176,2.244-1.668,3.475a16.063,16.063,0,0,0-.964,3.929,80.392,80.392,0,0,1-1.425,8.271c-1.34,5.609-2.614,10.952-3.778,15.815l-3.165,12.9c-.873,3.638-1.589,6.61-2.092,8.7-.236,1.007-.418,1.819-.552,2.371l-.133.606a1.121,1.121,0,0,0,0,.212,1.209,1.209,0,0,0,.079-.206c.042-.139.1-.358.17-.606.158-.57.364-1.358.606-2.353.534-2.08,1.3-5.033,2.232-8.671s2.031-8.035,3.256-12.874S81.5,371.5,82.854,365.895a78.191,78.191,0,0,0,1.419-8.314,15.815,15.815,0,0,1,.928-3.832c.473-1.213,1.092-2.323,1.643-3.444a24.706,24.706,0,0,0,2.147-6.792c.467-2.159.885-4.2,1.37-6.015s1.013-3.45,1.528-4.851a35.213,35.213,0,0,0,1.334-3.638c.243-1.067.358-1.849.461-2.4.042-.255.079-.461.1-.606A.855.855,0,0,0,93.805,325.83Z" transform="translate(-42.818 -156.051)" fill="#e0e0e0"/><path d="M58.255,389.936c4.463-2.674,5.676-10.739,3.8-15.572s-5.173-9.248-5.706-14.414c-.406-3.972.867-8.059-.079-11.934-1.279-5.233-6.416-9.266-6.385-14.651,0-3.032,1.716-5.876,1.565-8.9-.188-3.705-3.032-6.628-4.851-9.878-2.674-4.979-2.911-10.885-3.887-16.476s-3.117-11.582-8.1-14.3c-.709,4.76-1.94,8.023-1.51,14.463.152,2.31,2.868,6.725,3.262,11.788.23,3.032.4,6.064.606,9.1a29.037,29.037,0,0,0,1.474,8.708c.825,2.11,2.141,4.02,2.753,6.2,1.152,4.1-.309,8.562.606,12.734.794,3.523,3.25,6.543,3.772,10.121.728,5.015-2.492,10.254-.8,15.039.837,2.377,2.808,4.275,3.372,6.725.443,1.9,0,3.923.388,5.834.643,3.081,6.543,5.458,9.7,5.233" transform="translate(-27.201 -139.512)" fill="#e0e0e0"/><path d="M37.745,291.58a1.267,1.267,0,0,0,0,.267,7.8,7.8,0,0,0,.1.782c.1.685.224,1.7.467,3s.94,2.783,1.492,4.56,1.158,3.814,1.668,6.1.964,4.821,1.425,7.55a30.794,30.794,0,0,0,2.341,8.526c.606,1.425,1.346,2.85,1.88,4.366a19.829,19.829,0,0,1,.97,4.821,97.283,97.283,0,0,0,1.364,10.388c1.407,7.034,2.747,13.741,3.972,19.841s2.426,11.522,3.414,16.154,1.777,8.283,2.335,10.885c.285,1.261.5,2.25.661,2.953.073.321.133.57.182.77a1.31,1.31,0,0,0,.073.255.812.812,0,0,0,0-.267c-.036-.194-.079-.455-.139-.776-.139-.7-.334-1.7-.606-2.971-.528-2.6-1.279-6.325-2.2-10.915s-2.074-10.1-3.323-16.179-2.541-12.8-3.929-19.835a97.992,97.992,0,0,1-1.377-10.357,19.854,19.854,0,0,0-1-4.912c-.552-1.552-1.273-2.983-1.9-4.39a31.248,31.248,0,0,1-2.347-8.429c-.491-2.717-.94-5.257-1.486-7.55a63.106,63.106,0,0,0-1.74-6.112c-.606-1.783-1.28-3.238-1.558-4.518s-.412-2.292-.546-2.971l-.121-.776A1.468,1.468,0,0,0,37.745,291.58Z" transform="translate(-29.061 -142.57)" fill="#ebebeb"/><path d="M410.014,397c-11.091-6.592-14.487-20.084-14.978-32.4-.085-2.056-.467-4.2.376-6.064s3.032-3.268,4.93-2.541c1.577.606,2.371,2.329,3.329,3.729a12.043,12.043,0,0,0,5.148,4.245,4.521,4.521,0,0,0,4.245.073c1.7-1.11,1.728-3.566,1.564-5.609q-.455-5.694-.916-11.4a19.256,19.256,0,0,1,.17-6.106,6.386,6.386,0,0,1,3.638-4.572c1.874-.691,4.384.255,4.942,2.225a18.5,18.5,0,0,1,.243,2.535,2.19,2.19,0,0,0,1.407,1.928,2.514,2.514,0,0,0,2.171-1.1,27.3,27.3,0,0,0,4.33-7.713,37.838,37.838,0,0,1,3.978-7.92,11.041,11.041,0,0,1,7.168-4.748c2.923-.382,6.155,1.213,7.107,4.008s-.509,5.864-2.165,8.326a45.685,45.685,0,0,1-8.8,9.745,3.747,3.747,0,0,0-1.455,1.819c-.346,1.389,1.043,2.644,2.426,3a23.458,23.458,0,0,0,4.8.182c1.607.067,3.378.643,4.087,2.1.995,2.025-.606,4.336-2.2,5.894a39.1,39.1,0,0,1-11.055,7.519,12.528,12.528,0,0,0-4.136,2.426c-1.1,1.17-1.728,3.032-.891,4.415s2.753,1.7,4.3,1.3a27.042,27.042,0,0,0,4.354-2.044c2.723-1.261,6.361-1.334,8.332.952a6.484,6.484,0,0,1,1.11,5.658,14.893,14.893,0,0,1-2.723,5.276,39.288,39.288,0,0,1-15.875,13.007c-6.337,2.735-12.322,3.79-18.956,1.9" transform="translate(-169.631 -154.346)" fill="#f5f5f5"/><path d="M423.023,398.618c.091-4.9-.764-2.183.606-8.49a183.477,183.477,0,0,1,5.8-20.217q.91-2.647,1.819-5.221c.606-1.716,1.176-3.414,1.856-5.039a91.622,91.622,0,0,1,4.427-9.1c1.546-2.832,3.123-5.458,4.609-7.883s2.929-4.7,4.33-6.7a71.936,71.936,0,0,1,7.277-8.932c.94-.982,1.692-1.722,2.207-2.219l.606-.558a2.2,2.2,0,0,1,.212-.182,1.9,1.9,0,0,1-.188.212l-.564.606c-.5.515-1.213,1.267-2.159,2.268a76.53,76.53,0,0,0-7.168,8.987c-1.383,2-2.8,4.245-4.281,6.707s-3.032,5.088-4.572,7.92a92.42,92.42,0,0,0-4.39,9.1c-.673,1.619-1.249,3.3-1.819,5.015s-1.213,3.463-1.789,5.221a187.38,187.38,0,0,0-5.821,20.169c-1.376,6.307-.552,3.566-.673,8.447" transform="translate(-180.638 -155.362)" fill="#e0e0e0"/><path d="M436.883,368.207a4.247,4.247,0,0,1-.261-.855c-.152-.552-.34-1.364-.558-2.371-.437-2.007-.946-4.8-1.5-7.883s-1.1-5.87-1.571-7.883c-.23-1-.424-1.819-.564-2.365a4.2,4.2,0,0,1-.182-.879,4.091,4.091,0,0,1,.321.837c.182.546.418,1.346.685,2.341.534,1.989,1.128,4.772,1.68,7.883s1.019,5.8,1.389,7.883c.176.952.321,1.752.443,2.4A3.822,3.822,0,0,1,436.883,368.207Z" transform="translate(-184.341 -163.978)" fill="#e0e0e0"/><path d="M465.759,371.366a5.566,5.566,0,0,1-1.037.2c-.667.109-1.637.267-2.826.491-2.383.437-5.652,1.158-9.229,2.1s-6.767,1.965-9.06,2.759c-1.152.388-2.074.728-2.711.958a5.457,5.457,0,0,1-1.007.321,5.983,5.983,0,0,1,.952-.461c.606-.273,1.534-.655,2.674-1.073,2.274-.861,5.458-1.91,9.054-2.868a91.994,91.994,0,0,1,9.284-2.007c1.213-.194,2.177-.309,2.85-.37A5.128,5.128,0,0,1,465.759,371.366Z" transform="translate(-187.349 -173.971)" fill="#e0e0e0"/><path d="M414.437,410.979a1.305,1.305,0,0,1-.2-.3c-.146-.249-.315-.552-.521-.916-.449-.8-1.061-1.971-1.819-3.426-1.486-2.911-3.414-7-5.458-11.522s-3.954-8.641-5.379-11.576c-.7-1.431-1.267-2.608-1.7-3.475l-.449-.982a1.147,1.147,0,0,1-.133-.34,1.6,1.6,0,0,1,.2.3c.139.249.309.552.521.916.443.8,1.061,1.971,1.819,3.426,1.492,2.911,3.42,7,5.458,11.522s3.96,8.641,5.379,11.576c.7,1.431,1.273,2.6,1.7,3.475.188.382.333.691.461.952A1.419,1.419,0,0,1,414.437,410.979Z" transform="translate(-171.168 -176.758)" fill="#e0e0e0"/><path d="M458.629,409.33a1.213,1.213,0,0,1-.333.17l-.988.412c-.91.376-2.141.879-3.638,1.486-3.074,1.255-7.277,3.032-11.97,5.015s-8.92,3.717-12.025,4.912c-1.552.606-2.814,1.061-3.687,1.37l-1.013.346a1.267,1.267,0,0,1-.364.1,1.736,1.736,0,0,1,.333-.17l.988-.412,3.638-1.486c3.074-1.255,7.277-3.032,11.976-5.009s8.92-3.723,12.019-4.912c1.552-.606,2.814-1.067,3.693-1.37l1.013-.352A1.525,1.525,0,0,1,458.629,409.33Z" transform="translate(-181.334 -188.917)" fill="#e0e0e0"/></g><g transform="translate(28.559 294.534)"><path d="M297.91,456.108c0,.085-59.554.158-133,.158s-133.019-.073-133.019-.158,59.542-.158,133.019-.158S297.91,456.023,297.91,456.108Z" transform="translate(-31.89 -455.95)" fill="#263238"/></g><g transform="translate(181.76 60.25)"><path d="M377.131,98.677c-4.348-1.868-9.405.8-11.358,3.76a25.086,25.086,0,0,0-3.353,10.018,82.417,82.417,0,0,0-.534,21.83c.23,2.141.649,4.469,2.286,5.87s3.82,1.443,5.834,1.092a7.947,7.947,0,0,0,4.851-2.426c1.819-2.177,1.583-5.342,1.389-8.174a84.805,84.805,0,0,1,3.032-28.992" transform="translate(-314.787 -80.799)" fill="#263238"/><path d="M371.71,102.243c2-3.966,8.059-6.106,12.959-4.778,4.136,1.116,8.556,5.361,8.859,9.7.431,6.331-2.99,12.795-.964,18.8,2.359,7,11.042,10.388,13.262,17.428a11.085,11.085,0,0,1-.952,8.817,5.39,5.39,0,0,1-3.523,2.856c-1.922.309-3.7-.982-5.215-2.207-4.105-3.3-8.277-6.67-11.14-11.1-3.365-5.209-4.663-11.522-4.718-17.743s1.055-12.352,2.159-18.453" transform="translate(-318.845 -80.411)" fill="#263238"/><path d="M387.409,111.446a9.345,9.345,0,0,0-8.4-10.472,9.538,9.538,0,0,0-10.157,8.186c-.655,4.336-1.213,8.72-1.213,10.309.061,4.8,2.868,6.67,4,7.222a6.4,6.4,0,0,0,1.261.315h0a.036.036,0,0,1,0,.036l-1.067,5.506c-.485,3.608,1.534,6.822,5.13,7.35s6.44-2.244,6.992-5.852Z" transform="translate(-317.243 -81.931)" fill="#eb996e"/><path d="M371.464,118.058a.764.764,0,0,0,.606.867.74.74,0,0,0,.879-.57.77.77,0,0,0-.606-.867.728.728,0,0,0-.879.57Z" transform="translate(-318.744 -88.44)" fill="#263238"/><path d="M371.464,116.269c.079.109.709-.23,1.522-.109s1.346.606,1.449.528,0-.23-.249-.455a2.074,2.074,0,0,0-1.146-.546,2.025,2.025,0,0,0-1.213.206C371.531,116.051,371.422,116.215,371.464,116.269Z" transform="translate(-318.744 -87.731)" fill="#263238"/><path d="M384.134,120.111a.764.764,0,0,0,.606.867.728.728,0,0,0,.879-.564.758.758,0,0,0-.606-.867.728.728,0,0,0-.879.564Z" transform="translate(-323.731 -89.25)" fill="#263238"/><path d="M384.586,118.433c.079.115.716-.224,1.522-.1s1.352.606,1.455.528,0-.23-.255-.461a2.116,2.116,0,0,0-1.14-.54,2.007,2.007,0,0,0-1.213.206C384.658,118.221,384.549,118.384,384.586,118.433Z" transform="translate(-323.91 -88.584)" fill="#263238"/><path d="M376.985,123.639a5.548,5.548,0,0,0-1.279-.431c-.206-.049-.394-.121-.412-.267a1.122,1.122,0,0,1,.23-.606c.267-.473.546-.97.843-1.486a27.54,27.54,0,0,0,1.977-3.929,27.472,27.472,0,0,0-2.286,3.76c-.291.521-.564,1.025-.819,1.5a1.213,1.213,0,0,0-.243.849.527.527,0,0,0,.3.352,1.286,1.286,0,0,0,.346.1A5.129,5.129,0,0,0,376.985,123.639Z" transform="translate(-320.136 -88.224)" fill="#263238"/><path d="M376.221,143.3a13.11,13.11,0,0,0,7.362-1.073s-1.819,3.966-7.653,2.553Z" transform="translate(-320.506 -98.186)" fill="#7c5142"/><path d="M378.31,131.091a1.486,1.486,0,0,1,1.389-.352,1.377,1.377,0,0,1,.855.606.855.855,0,0,1-.079.976.994.994,0,0,1-1.1.115,3.208,3.208,0,0,1-.946-.77.958.958,0,0,1-.2-.273.285.285,0,0,1,.048-.3" transform="translate(-321.399 -93.644)" fill="#7c5142"/><path d="M380.207,129.54c-.133,0-.261.855-1.11,1.37s-1.765.285-1.789.406.182.2.576.273a2.244,2.244,0,0,0,1.492-.291,1.947,1.947,0,0,0,.873-1.158C380.335,129.776,380.268,129.546,380.207,129.54Z" transform="translate(-321.048 -93.191)" fill="#263238"/><path d="M384.329,116.122c.049.23.873.249,1.819.5s1.674.606,1.819.443c.073-.085-.03-.315-.309-.57a3.283,3.283,0,0,0-2.771-.722C384.511,115.885,384.311,116.013,384.329,116.122Z" transform="translate(-323.811 -87.747)" fill="#263238"/><path d="M372.352,113.572c.115.206.7.1,1.377.188s1.213.3,1.383.127,0-.279-.218-.491a1.9,1.9,0,0,0-1.073-.467,1.874,1.874,0,0,0-1.146.212C372.407,113.287,372.3,113.469,372.352,113.572Z" transform="translate(-319.093 -86.646)" fill="#263238"/><path d="M375.79,101.212a9.9,9.9,0,0,0,6.846,7.883l-.273-1.358a13.947,13.947,0,0,0,7.568,6.725,9.593,9.593,0,0,0-14.1-12.486" transform="translate(-320.45 -81.563)" fill="#263238"/><path d="M418.942,154.2a7.8,7.8,0,0,0,.934-1.461,7.471,7.471,0,0,0,.479-4.609,9.581,9.581,0,0,0-1.17-3.032,16.216,16.216,0,0,0-2.292-2.947c-1.819-1.928-4.245-3.638-6.41-5.809a12.425,12.425,0,0,1-2.644-3.638,14.063,14.063,0,0,1-1.134-4.045,35.442,35.442,0,0,1,0-7.083c.152-2.007.309-3.638.412-4.748.055-.54.091-.964.121-1.292a2.809,2.809,0,0,1,.067-.449,2.17,2.17,0,0,1,0,.455c0,.327-.036.758-.067,1.292-.073,1.158-.182,2.777-.315,4.754a36.886,36.886,0,0,0,.1,7.034,14,14,0,0,0,1.122,3.954,12.322,12.322,0,0,0,2.589,3.566c2.159,2.153,4.56,3.863,6.4,5.821a16.071,16.071,0,0,1,2.3,3.032,9.7,9.7,0,0,1,1.17,3.1,7.477,7.477,0,0,1-.606,4.7,5.608,5.608,0,0,1-.722,1.085A3.032,3.032,0,0,1,418.942,154.2Z" transform="translate(-332.549 -87.503)" fill="#263238"/><path d="M428.166,425.1l2.874,14.093,5.488,10.491a1.474,1.474,0,0,1-.709,2.037h0a1.486,1.486,0,0,1-1.346-.085c-2.607-1.564-12.17-7.368-12.322-8.411-.182-1.213-4.02-14.663-4.02-14.663Z" transform="translate(-337.116 -209.524)" fill="#90caf9"/><g transform="translate(84.816 232.755)" opacity="0.6"><path d="M438.286,462.872,424.4,453.43l.133.606a2.225,2.225,0,0,0,.837,1.286c1.128.843,4.293,3.1,11.522,7.489a1.48,1.48,0,0,0,1.389.073Z" transform="translate(-424.4 -453.43)" fill="#fff"/></g><g transform="translate(85.53 227.523)" opacity="0.6"><path d="M426.712,444.849a.885.885,0,0,1,.491,1.079.849.849,0,0,1-1.067.5.94.94,0,0,1-.515-1.146.885.885,0,0,1,1.164-.4" transform="translate(-425.576 -444.802)" fill="#fff"/></g><path d="M439.689,458.707a4.464,4.464,0,0,1,.982-1.37,4.549,4.549,0,0,1,1.54-.679c0-.036-.194-.1-.534-.073a2.322,2.322,0,0,0-1.953,1.583C439.629,458.489,439.653,458.7,439.689,458.707Z" transform="translate(-345.589 -221.914)" fill="#263238"/><path d="M442.051,461.859c.085.042.431-.515,1.1-.885a13.466,13.466,0,0,1,1.334-.491A1.637,1.637,0,0,0,443,460.7C442.233,461.125,441.972,461.835,442.051,461.859Z" transform="translate(-346.526 -223.416)" fill="#263238"/><path d="M435.74,455.234a13.787,13.787,0,0,1,1.613-1.486,15.612,15.612,0,0,1,1.971-.958,4.032,4.032,0,0,0-3.584,2.426Z" transform="translate(-344.047 -220.423)" fill="#263238"/><path d="M433.7,449.144c.055.073.758-.424,1.759-.691s1.849-.206,1.862-.3a3.638,3.638,0,0,0-3.638.995Z" transform="translate(-343.236 -218.541)" fill="#263238"/><path d="M432.138,442.352a7.562,7.562,0,0,1,1.819-.764,7,7,0,0,1,1.965.042c0-.036-.176-.176-.54-.291a3.19,3.19,0,0,0-2.838.546C432.241,442.122,432.114,442.328,432.138,442.352Z" transform="translate(-342.628 -215.867)" fill="#263238"/><path d="M433.21,438.819a1.279,1.279,0,0,0-.1-.534,3.783,3.783,0,0,0-.74-1.292,1.655,1.655,0,0,0-.879-.606.606.606,0,0,0-.606.273.934.934,0,0,0-.079.685,2.086,2.086,0,0,0,2.207,1.474,2.426,2.426,0,0,0,2.031-1.759.837.837,0,0,0-.115-.691.606.606,0,0,0-.661-.164,2.025,2.025,0,0,0-.813.691,4.246,4.246,0,0,0-.709,1.31,1.31,1.31,0,0,0-.109.534,6.945,6.945,0,0,1,.988-1.7,1.922,1.922,0,0,1,.722-.606.309.309,0,0,1,.364.091.558.558,0,0,1,.049.455,2.159,2.159,0,0,1-1.789,1.516,1.819,1.819,0,0,1-1.892-1.213.71.71,0,0,1,.03-.479.315.315,0,0,1,.34-.158,1.534,1.534,0,0,1,.758.515,5.39,5.39,0,0,1,1,1.662Z" transform="translate(-342.093 -213.881)" fill="#263238"/><path d="M364.9,427.371l.667,11.443s-11.406,4.524-11.491,6.67l22.237-.5-.3-17.877Z" transform="translate(-311.905 -210.315)" fill="#90caf9"/><g transform="translate(59.466 227.365)" opacity="0.6"><path d="M383.653,444.559a.9.9,0,0,1,.649,1.019.867.867,0,0,1-1.007.655.952.952,0,0,1-.685-1.085.91.91,0,0,1,1.128-.564" transform="translate(-382.595 -444.542)" fill="#fff"/></g><g transform="translate(42.163 232.834)" opacity="0.6"><path d="M376.309,455.379l-.1-1.819-21.285,1.146s-.982.455-.855,1.152Z" transform="translate(-354.061 -453.56)" fill="#fff"/></g><path d="M372.439,446.17c0,.109.546.146,1.091.479s.837.788.934.746-.079-.673-.74-1.067S372.409,446.067,372.439,446.17Z" transform="translate(-319.131 -217.775)" fill="#263238"/><path d="M368.62,447.878c0,.109.455.285.831.734s.5.934.606.928.164-.606-.315-1.176S368.62,447.775,368.62,447.878Z" transform="translate(-317.628 -218.471)" fill="#263238"/><path d="M365.95,451.365c.1,0,.243-.528-.055-1.116s-.8-.813-.849-.722.279.4.509.891S365.841,451.353,365.95,451.365Z" transform="translate(-316.22 -219.131)" fill="#263238"/><path d="M372.657,441.642c.049.1.546-.067,1.158-.036s1.1.212,1.152.115-.412-.473-1.14-.491S372.6,441.557,372.657,441.642Z" transform="translate(-319.216 -215.872)" fill="#263238"/><g transform="translate(53.138 219.178)" opacity="0.3"><path d="M372.16,431.179l.115,2.044,10.927-.346-.03-1.837Z" transform="translate(-372.16 -431.04)"/></g><path d="M372.51,436.88a2.122,2.122,0,0,0,1.116-.03,4.894,4.894,0,0,0,1.158-.388,5.1,5.1,0,0,0,.606-.352,1.511,1.511,0,0,0,.327-.267.473.473,0,0,0,.036-.606.606.606,0,0,0-.479-.236,1.63,1.63,0,0,0-.418.067,4,4,0,0,0-.685.255,3.948,3.948,0,0,0-1.013.7c-.5.485-.673.9-.637.916s.3-.309.813-.716a4.468,4.468,0,0,1,.982-.606,3.852,3.852,0,0,1,.606-.212c.237-.067.437-.073.5.03s.03.055,0,.127a1.249,1.249,0,0,1-.243.194,5.951,5.951,0,0,1-.606.352,6.306,6.306,0,0,1-1.067.437A6.674,6.674,0,0,0,372.51,436.88Z" transform="translate(-319.159 -213.421)" fill="#263238"/><path d="M371.765,436.067a1.82,1.82,0,0,0,.267-1.085,3.529,3.529,0,0,0-.176-1.213,3.639,3.639,0,0,0-.3-.673.946.946,0,0,0-.728-.546.527.527,0,0,0-.455.321,1.49,1.49,0,0,0-.109.412,2.571,2.571,0,0,0,.521,1.892c.449.564.9.685.91.649a4.749,4.749,0,0,1-.691-.807,2.5,2.5,0,0,1-.376-1.037,2.286,2.286,0,0,1,0-.643c.03-.236.115-.43.2-.406a.823.823,0,0,1,.4.352,4.534,4.534,0,0,1,.291.606,3.936,3.936,0,0,1,.236,1.1C371.814,435.643,371.7,436.049,371.765,436.067Z" transform="translate(-318.269 -212.456)" fill="#263238"/><path d="M379.616,225.271s6.537,14.2,7.525,18.337,19.241,113.572,19.241,113.572L389.609,358.2,366.833,251.146,376,357.423,359.5,358.8s-12.474-112.3-11.946-115.47c.8-4.784,4.851-18.55,4.851-18.55Z" transform="translate(-309.329 -130.678)" fill="#263238"/><path d="M376.53,253.87s0,.091-.139.182a.607.607,0,0,1-.643-.061,1.443,1.443,0,0,1-.394-.946l-.218-1.3c-.321-1.934-.74-4.615-1.176-7.568s-.831-5.639-1.091-7.58c-.115-.928-.212-1.7-.291-2.3a4.427,4.427,0,0,1-.067-.849,4.245,4.245,0,0,1,.188.831c.1.606.23,1.364.388,2.286.321,1.934.74,4.609,1.213,7.568s.825,5.639,1.085,7.58c.061.479.121.916.17,1.31a1.4,1.4,0,0,0,.3.879.515.515,0,0,0,.54.1C376.488,253.936,376.512,253.857,376.53,253.87Z" transform="translate(-319.159 -134.086)" fill="#455a64"/><path d="M375.958,236.8s0-.1.158-.188a.91.91,0,0,1,.661-.1.885.885,0,0,1,.7.722,1.055,1.055,0,0,1-.54,1.116,1.1,1.1,0,0,1-1.213-.206,1.013,1.013,0,0,1-.285-.964c.146-.606.558-.716.552-.679a1.7,1.7,0,0,0-.334.716.794.794,0,0,0,.261.716.837.837,0,0,0,.885.139.788.788,0,0,0,.394-.788.673.673,0,0,0-.473-.558A1.146,1.146,0,0,0,375.958,236.8Z" transform="translate(-320.303 -135.287)" fill="#455a64"/><path d="M311.309,101.489,301.03,85.608h0L297.9,80.381s-.928-5.239-1.37-6.713c-.922-3.032-1.213-2.953-1.528-2.783-.9.449,1.413,5.4.3,4.621s-2.122-6.379-3.032-5.876c-1.213.667,1.316,5.8,1.5,6.252s-.467.722-.606.309c-.206-.606-2.492-6.816-3.681-6.173-.655.352.091,1.474.091,1.474s2.571,5.658,2,5.943-2.2-2.99-2.668-4.13-1.213-1.364-1.516-.746c-.224.424,1.128,3.954,1.619,5.076s1.886,4.16,0,3.22-3.729-.94-4.245-.606a.667.667,0,0,0,.467,1.17,7.81,7.81,0,0,1,2.068.564,5.009,5.009,0,0,1,1.48.879c.515.437.928.831,1.273,1.17l2.553,5.306h0l11.273,22.127,23.607,19.55,5.955-10.733Z" transform="translate(-284.531 -69.597)" fill="#cc8763"/><path d="M420.64,245.789c.146.467.3,1.013.455,1.668a4.986,4.986,0,0,1,.1,1.722,7.8,7.8,0,0,1-.443,2.1.663.663,0,0,0,.825.946c.528-.267,1.364-1.9,1.4-4.033s2.1.509,2.874,1.461,3.293,3.766,3.772,3.76c.7,0,.819-.764.03-1.692s-2.965-3.881-2.426-4.245,4.36,4.5,4.36,4.5.655,1.176,1.273.758c1.11-.764-3.365-5.646-3.808-6.1-.3-.315.249-.752.558-.394s3.729,4.954,4.851,4.19c.873-.606-3.638-4.051-3.826-5.4s3.159,2.977,3.972,2.383c.3-.224.5-.431-1.783-2.632-1.1-1.073-5.336-4.3-5.336-4.3L418.523,211l-11.133.182Z" transform="translate(-332.888 -125.254)" fill="#eb996e"/><path d="M352.414,142.928h0a54.758,54.758,0,0,1-5.312-2.371L329.443,127.18l-7.883,10.527S341.711,155.9,342.044,155.8,352.414,142.928,352.414,142.928Z" transform="translate(-299.105 -92.262)" fill="#edffd5"/><path d="M366.424,153.08l-1.334.042a9.229,9.229,0,0,0-8.447,6.313c-1.346,4.051-1.267,5.373-2.2,8.4-2.232,7.228,1.777,16,1.777,16l-1.383,12.734,27.233.491,1.37-15.33,5.088-22.952s-1.128-4.924-5.458-5.324C380.826,153.238,366.424,153.08,366.424,153.08Z" transform="translate(-311.781 -102.456)" fill="#edffd5"/><path d="M400.131,154.34s6.452-.03,8.417,7.41,5.888,27.009,5.888,27.009l-12.225,3.675-6.573-26.857a13.268,13.268,0,0,1-.528-4.7C395.311,158.191,396.317,154.7,400.131,154.34Z" transform="translate(-328.043 -102.952)" fill="#edffd5"/><path d="M371.45,151.007l2.153-4.117,3.638,2.062v1.789l1.152-1.789,8.581-2.062v5.088l-10.018,1.092Z" transform="translate(-318.742 -100.02)" fill="#8dd52c"/><path d="M357.768,164a6.064,6.064,0,0,1-.455.873c-.158.273-.346.606-.534,1.013s-.437.849-.643,1.377-.461,1.085-.661,1.716-.412,1.3-.606,2.013a25.548,25.548,0,0,0-.606,9.587c.109.734.194,1.437.352,2.08a18.3,18.3,0,0,0,.437,1.783c.133.552.321,1.025.461,1.449a10.084,10.084,0,0,0,.4,1.073,6.421,6.421,0,0,1,.334.928,6.62,6.62,0,0,1-.449-.879,10.079,10.079,0,0,1-.455-1.061c-.152-.424-.358-.9-.5-1.443a17.643,17.643,0,0,1-.485-1.819c-.164-.649-.261-1.352-.382-2.1a26.523,26.523,0,0,1-.17-4.851,26.844,26.844,0,0,1,.794-4.821c.212-.722.4-1.407.649-2.031a17.286,17.286,0,0,1,.71-1.716,14.978,14.978,0,0,1,.685-1.364,10,10,0,0,1,.606-1A5.334,5.334,0,0,1,357.768,164Z" transform="translate(-311.779 -106.754)" fill="#263238"/><path d="M376.949,149.76a5.205,5.205,0,0,1-.321,1.243c-.237.758-.606,1.819-.982,2.935-.067.176-.127.352-.188.521l-.067.182-.164-.1a12.23,12.23,0,0,1-2.171-1.668,3.354,3.354,0,0,1-.716-.849,30.469,30.469,0,0,0,3.032,2.244l-.23.085.188-.528c.4-1.14.782-2.165,1.067-2.9A4.936,4.936,0,0,1,376.949,149.76Z" transform="translate(-319.093 -101.15)" fill="#263238"/><path d="M388.148,153.713a6.573,6.573,0,0,1-1.3.552c-.813.309-1.94.709-3.208,1.14l-.182.067v-.346c-.2-1.358-.358-2.589-.461-3.481a6.8,6.8,0,0,1-.1-1.455,6.725,6.725,0,0,1,.321,1.425c.158.879.358,2.11.558,3.463v.158l-.206-.127c1.267-.424,2.426-.794,3.244-1.049A5.918,5.918,0,0,1,388.148,153.713Z" transform="translate(-323.246 -101.319)" fill="#263238"/><path d="M399,216.63a4.39,4.39,0,0,1,.794,4.815,11.057,11.057,0,0,0,0-2.474A11.716,11.716,0,0,0,399,216.63Z" transform="translate(-329.586 -127.47)" fill="#263238"/><path d="M417.359,204a9.094,9.094,0,0,1-1.746.534c-1.092.285-2.608.606-4.3.952s-3.238.54-4.354.673a10.012,10.012,0,0,1-1.819.133,11.043,11.043,0,0,1,1.819-.358c1.1-.188,2.638-.443,4.324-.758s3.208-.606,4.311-.855A11.339,11.339,0,0,1,417.359,204Z" transform="translate(-332.003 -122.499)" fill="#fafafa"/><path d="M414.825,191.72a9.5,9.5,0,0,1-1.819.667c-1.128.352-2.7.776-4.451,1.213s-3.329.819-4.469,1.116a14.731,14.731,0,0,1-1.856.449,9.582,9.582,0,0,1,1.819-.661c1.128-.358,2.7-.782,4.451-1.213s3.329-.813,4.469-1.116A14.733,14.733,0,0,1,414.825,191.72Z" transform="translate(-330.857 -117.665)" fill="#fafafa"/><path d="M404.132,205.238a3.871,3.871,0,0,1-.224-.71c-.127-.521-.3-1.176-.491-1.959-.4-1.655-.934-3.948-1.51-6.482s-1.067-4.851-1.419-6.507c-.158-.782-.285-1.443-.394-1.977a3.789,3.789,0,0,1-.1-.734,2.839,2.839,0,0,1,.224.7l.491,1.959c.406,1.655.94,3.948,1.51,6.488s1.073,4.851,1.419,6.5c.158.788.291,1.449.394,1.983a2.838,2.838,0,0,1,.1.734Z" transform="translate(-329.976 -115.756)" fill="#263238"/><path d="M395.435,181.571c0,.085-9.138-.091-20.405-.394s-20.4-.606-20.4-.7,9.138.085,20.405.388S395.435,181.48,395.435,181.571Z" transform="translate(-312.122 -113.228)" fill="#fafafa"/><path d="M394.081,165.17a1.316,1.316,0,0,1-.352.055l-1.013.085c-.885.073-2.159.158-3.742.255-3.159.188-7.525.394-12.352.528s-9.2.158-12.358.139c-1.583,0-2.862,0-3.747-.048l-1.019-.036a2.342,2.342,0,0,1-.358-.03,1.262,1.262,0,0,1,.358,0l1.019-.03,3.741-.048c3.165-.036,7.531-.1,12.358-.23s9.187-.3,12.346-.437l3.747-.152h1.019a1.57,1.57,0,0,1,.352-.048Z" transform="translate(-313.897 -107.215)" fill="#fafafa"/><path d="M344.749,158.792c-.067-.061,2.019-2.571,4.651-5.609s4.851-5.458,4.894-5.4-2.019,2.565-4.651,5.609S344.816,158.828,344.749,158.792Z" transform="translate(-308.232 -100.37)" fill="#fafafa"/><path d="M383.115,199.2c0,.091-6.234-.461-13.9-1.213s-13.887-1.455-13.88-1.546,6.234.467,13.911,1.213S383.121,199.142,383.115,199.2Z" transform="translate(-312.397 -119.521)" fill="#fafafa"/><path d="M384.141,214.464c0,.091-6.064,0-13.5-.146s-13.492-.376-13.492-.461,6.064,0,13.5.146S384.141,214.38,384.141,214.464Z" transform="translate(-313.114 -126.365)" fill="#fafafa"/><path d="M371.443,196.415a2.306,2.306,0,0,1,0-.449v-1.28c0-1.116.085-2.729.218-4.718.067-.994.152-2.08.273-3.244s.3-2.426.461-3.711c.327-2.614.606-5.494.91-8.49a124.307,124.307,0,0,1,2.213-15.409c.443-1.94.9-3.493,1.213-4.554.17-.5.309-.91.418-1.213a2.057,2.057,0,0,1,.164-.418,2.1,2.1,0,0,1-.1.437c-.1.309-.212.722-.364,1.213-.3,1.067-.722,2.626-1.134,4.566A139.675,139.675,0,0,0,373.6,174.53c-.3,3.032-.606,5.906-.934,8.49-.176,1.3-.358,2.541-.491,3.7s-.23,2.25-.315,3.238c-.158,1.983-.249,3.59-.309,4.7l-.073,1.279A2.343,2.343,0,0,1,371.443,196.415Z" transform="translate(-318.735 -102.397)" fill="#263238"/><rect width="6.598" height="1.716" transform="translate(62.55 67.239)" fill="#c1ff6e"/><g transform="translate(68.102 72.46)" opacity="0.3"><path d="M398.937,189.09a13.389,13.389,0,0,0,.461,15.075l1.213-8.49" transform="translate(-396.836 -189.09)"/></g><path d="M392.237,117.594c.776,1.595.394,3.5-.17,5.191s-1.286,3.39-1.14,5.16c.133,1.643,1.019,3.153,1.176,4.8.273,2.765-1.5,5.276-2.225,7.962a10.97,10.97,0,0,0,2.359,10,1.31,1.31,0,0,0,.916.54.976.976,0,0,0,.831-.825,4.36,4.36,0,0,0-.03-1.255c-.334-3.966,3.481-7.143,4.033-11.085.364-2.565-.7-5.1-.855-7.683-.2-3.25,1.025-6.4,1.425-9.636a7.5,7.5,0,0,0-.188-3.3,3.444,3.444,0,0,0-2.232-2.3,2.268,2.268,0,0,0-2.711,1.34" transform="translate(-325.855 -87.497)" fill="#263238"/></g><g transform="translate(148.623 74.957)"><path d="M255.975,135.329l-12.837,8.126,9.1-24.893,2.456-4.906c.327-.412.728-.885,1.213-1.425a5.458,5.458,0,0,1,1.486-1.134,8.143,8.143,0,0,1,2.159-.873.722.722,0,0,0,.346-1.322c-.576-.3-2.535-.067-4.469,1.213s-.825-2.2-.437-3.469,1.389-5.239,1.092-5.67c-.437-.606-1.182-.273-1.54,1s-1.686,5.021-2.341,4.784,1.389-6.67,1.389-6.67.661-1.3-.091-1.6c-1.358-.534-3.032,6.452-3.171,7.119-.1.467-.825.236-.691-.255s2.189-6.361.813-6.919c-1.061-.431-1.431,5.737-2.529,6.713s.758-4.645-.273-5.015c-.382-.139-.685-.188-1.279,3.2-.291,1.643-.606,7.4-.606,7.4l-2.99,5.894.073.067L230.6,142.539c-2.347,6.2,1.486,11.206,5.324,13.474h0a10.824,10.824,0,0,0,11.522-.327l14.826-9.9Z" transform="translate(-229.886 -95.646)" fill="#eb996e"/><path d="M361.734,215.37c.309.455.649,1,1.025,1.655a5.567,5.567,0,0,1,.649,1.819,8.756,8.756,0,0,1,.182,2.426.752.752,0,0,0,1.213.764c.485-.473.867-2.486.243-4.8s2.426-.115,3.56.667,4.742,3.032,5.257,2.874c.752-.23.649-1.085-.5-1.819s-4.421-3.25-3.984-3.826,6.137,3.481,6.137,3.481,1.073,1.061,1.607.412c.958-1.17-5.415-5.033-6.028-5.385-.431-.243,0-.885.473-.606s5.585,4.172,6.573,2.99c.758-.91-5.209-3.226-5.827-4.621s4.348,2.219,5.039,1.322c.255-.334.4-.606-2.753-2.28-1.528-.813-7.119-2.959-7.119-2.959L333.185,163.22l-9.945,8.963Z" transform="translate(-266.63 -121.154)" fill="#eb996e"/><path d="M279.194,427.633l.655,11.23s-11.2,4.439-11.279,6.525l21.83-.109-.309-17.919Z" transform="translate(-245.112 -225.12)" fill="#455a64"/><g transform="translate(40.428 212.635)" opacity="0.6"><path d="M297.589,444.513a.9.9,0,0,1,.643,1.007.861.861,0,0,1-.994.643.934.934,0,0,1-.667-1.067.885.885,0,0,1,1.1-.552" transform="translate(-296.555 -444.501)" fill="#fff"/></g><g transform="translate(23.477 218.34)" opacity="0.6"><path d="M290.412,455.729V453.91l-20.963.806s-.964.443-.837,1.122Z" transform="translate(-268.601 -453.91)" fill="#fff"/></g><path d="M286.58,446.093c0,.109.54.146,1.073.473s.819.776.916.728-.073-.655-.728-1.043S286.555,446,286.58,446.093Z" transform="translate(-252.2 -232.453)" fill="#263238"/><path d="M282.84,447.78c0,.1.443.273.819.716s.485.916.606.91.164-.606-.309-1.152S282.84,447.677,282.84,447.78Z" transform="translate(-250.729 -233.139)" fill="#263238"/><path d="M280.223,451.188c.1,0,.23-.515-.055-1.091s-.788-.8-.831-.71.273.394.5.873S280.114,451.182,280.223,451.188Z" transform="translate(-249.348 -233.782)" fill="#263238"/><path d="M286.8,441.65c.048.1.534-.061,1.14-.03s1.073.206,1.128.115-.406-.467-1.116-.485S286.743,441.571,286.8,441.65Z" transform="translate(-252.285 -230.587)" fill="#263238"/><path d="M286.65,436.989a1.983,1.983,0,0,0,1.1-.03,4.669,4.669,0,0,0,1.134-.376,5.272,5.272,0,0,0,.606-.346,1.213,1.213,0,0,0,.327-.267.461.461,0,0,0,.036-.564.606.606,0,0,0-.473-.236,1.582,1.582,0,0,0-.412.067,4.19,4.19,0,0,0-.673.249,3.961,3.961,0,0,0-.995.685c-.491.479-.655.879-.606.9s.285-.309.794-.7a4.4,4.4,0,0,1,.958-.576,4.714,4.714,0,0,1,.606-.206c.23-.067.431-.073.491.03s0,.055,0,.121a1.014,1.014,0,0,1-.237.194,6.514,6.514,0,0,1-.57.346,6.064,6.064,0,0,1-1.049.424,8.492,8.492,0,0,0-1.037.285Z" transform="translate(-252.228 -228.194)" fill="#263238"/><path d="M285.918,436.169a1.74,1.74,0,0,0,.267-1.061,3.723,3.723,0,0,0-.176-1.213,3.474,3.474,0,0,0-.3-.655.922.922,0,0,0-.71-.54.521.521,0,0,0-.449.315,1.667,1.667,0,0,0-.1.406,2.273,2.273,0,0,0,0,.734,2.516,2.516,0,0,0,.491,1.122c.437.552.885.673.891.606a6.96,6.96,0,0,1-.679-.788,2.661,2.661,0,0,1-.37-1.019,2.492,2.492,0,0,1,0-.637c.03-.23.115-.418.2-.4a.815.815,0,0,1,.394.352,3.688,3.688,0,0,1,.279.606,3.742,3.742,0,0,1,.237,1.085C285.985,435.75,285.858,436.156,285.918,436.169Z" transform="translate(-251.351 -227.222)" fill="#263238"/><path d="M341.693,427.268l.855,11.218s-11.115,4.639-11.158,6.725l21.83-.873-1.759-17.488Z" transform="translate(-269.838 -224.919)" fill="#455a64"/><g transform="translate(78.392 212.318)" opacity="0.6"><path d="M360.185,443.992a.891.891,0,0,1,.655.988.855.855,0,0,1-.976.661.94.94,0,0,1-.691-1.055.885.885,0,0,1,1.092-.57" transform="translate(-359.161 -443.98)" fill="#fff"/></g><g transform="translate(61.538 217.649)" opacity="0.6"><path d="M353.193,454.541l-.133-1.771-20.866,1.5s-.952.461-.813,1.14Z" transform="translate(-331.367 -452.77)" fill="#fff"/></g><path d="M349.2,445.807c0,.109.54.133,1.079.455s.837.758.934.716-.091-.655-.746-1.037S349.169,445.71,349.2,445.807Z" transform="translate(-276.847 -232.336)" fill="#263238"/><path d="M345.49,447.568c0,.1.449.261.825.7s.5.91.606.9.152-.606-.334-1.146S345.49,447.465,345.49,447.568Z" transform="translate(-275.388 -233.054)" fill="#263238"/><path d="M342.929,451.026c.1,0,.224-.521-.073-1.091s-.807-.788-.849-.7.279.394.515.867S342.82,451.02,342.929,451.026Z" transform="translate(-274.016 -233.723)" fill="#263238"/><path d="M349.337,441.354c.048.1.534-.073,1.14-.055s1.079.188,1.128.1-.412-.461-1.122-.467S349.283,441.276,349.337,441.354Z" transform="translate(-276.9 -230.461)" fill="#263238"/><path d="M349.13,436.678a1.953,1.953,0,0,0,1.091-.049,4.944,4.944,0,0,0,1.128-.394,4.853,4.853,0,0,0,.606-.358,1.4,1.4,0,0,0,.321-.273.461.461,0,0,0,0-.57.606.606,0,0,0-.473-.224,1.48,1.48,0,0,0-.406.073,4.2,4.2,0,0,0-.673.261,3.9,3.9,0,0,0-.982.7c-.485.491-.643.891-.606.91s.285-.309.782-.716a4.154,4.154,0,0,1,1.571-.807c.23-.067.431-.079.491,0s0,.049,0,.121a1.213,1.213,0,0,1-.236.194,5.808,5.808,0,0,1-.564.358,6.161,6.161,0,0,1-1.037.443A8.082,8.082,0,0,0,349.13,436.678Z" transform="translate(-276.82 -228.052)" fill="#263238"/><path d="M348.375,435.9a1.818,1.818,0,0,0,.243-1.067,3.638,3.638,0,0,0-.194-1.213,3.5,3.5,0,0,0-.309-.649.891.891,0,0,0-.716-.521.5.5,0,0,0-.443.321,1.4,1.4,0,0,0-.1.406,2.268,2.268,0,0,0,.03.734,2.481,2.481,0,0,0,.509,1.11c.449.546.9.655.9.606a4.9,4.9,0,0,1-.691-.776,2.571,2.571,0,0,1-.388-1.007,2.237,2.237,0,0,1,0-.637c0-.23.1-.424.194-.4a.785.785,0,0,1,.394.34,3.776,3.776,0,0,1,.3.606,4.047,4.047,0,0,1,.255,1.079C348.412,435.482,348.315,435.882,348.375,435.9Z" transform="translate(-275.92 -227.123)" fill="#263238"/><path d="M305.889,107.37,303.749,132.2l-12.437-.995c-.079-1.449,0-7.071,0-7.071s-5.173-.8-5.233-5.973c-.036-2.517.327-7.707.7-12.383a9.575,9.575,0,0,1,10.127-8.793h0a9.569,9.569,0,0,1,8.981,10.382Z" transform="translate(-252.002 -95.078)" fill="#eb996e"/><path d="M294.732,140.406a12.019,12.019,0,0,0,6.743-1.916s-1.595,3.723-6.755,3.256Z" transform="translate(-255.405 -111.42)" fill="#d1734a"/><path d="M289.293,118.082c.085.1.667-.285,1.461-.249s1.358.473,1.449.376-.042-.218-.285-.412a2.037,2.037,0,0,0-2.322-.109C289.342,117.864,289.251,118.033,289.293,118.082Z" transform="translate(-253.265 -103.11)" fill="#263238"/><path d="M301.293,118.188c.1.091.643-.34,1.437-.358s1.389.358,1.474.261-.055-.218-.315-.394a2.019,2.019,0,0,0-1.182-.327,1.953,1.953,0,0,0-1.14.406C301.329,117.969,301.25,118.145,301.293,118.188Z" transform="translate(-257.987 -103.106)" fill="#263238"/><path d="M295.926,122.344a5.063,5.063,0,0,0-1.292-.236c-.206,0-.394-.061-.431-.2a1.03,1.03,0,0,1,.133-.606q.291-.74.606-1.546a26.855,26.855,0,0,0,1.352-4.045,26.87,26.87,0,0,0-1.674,3.929c-.2.54-.388,1.055-.576,1.552a1.212,1.212,0,0,0-.1.794.5.5,0,0,0,.333.3,1.274,1.274,0,0,0,.346.049,5.585,5.585,0,0,0,1.3.012Z" transform="translate(-255.089 -102.454)" fill="#263238"/><path d="M299.445,127.55c-.133,0-.133.855-.873,1.467s-1.655.521-1.662.643.206.164.606.176a2.159,2.159,0,0,0,1.389-.485,1.874,1.874,0,0,0,.673-1.213C299.6,127.762,299.5,127.544,299.445,127.55Z" transform="translate(-256.266 -107.114)" fill="#263238"/><path d="M301.648,112.262c.079.218.873.115,1.819.23s1.686.364,1.819.17c.055-.091-.079-.3-.382-.5a3.032,3.032,0,0,0-1.346-.473,2.989,2.989,0,0,0-1.407.17C301.787,112,301.617,112.165,301.648,112.262Z" transform="translate(-258.13 -100.862)" fill="#263238"/><path d="M289.574,112.651c.164.212.788,0,1.546,0s1.4.139,1.546-.073c.067-.109-.036-.315-.315-.509a2.256,2.256,0,0,0-2.492.073C289.593,112.336,289.5,112.554,289.574,112.651Z" transform="translate(-253.37 -100.887)" fill="#263238"/><path d="M309.49,102.717h0a4.063,4.063,0,0,1,1.516,2.632v.1c.206,1.474.164,2.977.382,4.451a6.671,6.671,0,0,0,1.819,3.984c.449.418,1.213.709,1.607.218a1.243,1.243,0,0,0,.188-.679c.273-3.56,1.249-6.719,1.213-10.448a3.129,3.129,0,0,0-1.3-2.553c-.776-.564-1.728-1.14-2.6-.734s-1.989,2.037-2.662,2.723" transform="translate(-261.218 -96.095)" fill="#263238"/><path d="M315.744,117.9c.091-.036,3.553-1.049,3.444,2.486s-3.638,2.7-3.638,2.6S315.744,117.9,315.744,117.9Z" transform="translate(-263.603 -103.25)" fill="#eb996e"/><path d="M317.388,122.382a.9.9,0,0,0,.164.1.606.606,0,0,0,.461,0,1.528,1.528,0,0,0,.752-1.346,2.092,2.092,0,0,0-.146-.885.71.71,0,0,0-.449-.485.309.309,0,0,0-.37.158c-.049.1-.03.164-.049.17s-.073-.061-.042-.206a.418.418,0,0,1,.146-.218.473.473,0,0,1,.346-.079.873.873,0,0,1,.606.57,2.043,2.043,0,0,1,.182.994,1.6,1.6,0,0,1-.946,1.5.691.691,0,0,1-.564-.109C317.394,122.473,317.376,122.388,317.388,122.382Z" transform="translate(-264.325 -103.977)" fill="#d1734a"/><path d="M301.2,98.022c.867-1.419-1.516-3.45-3.262-4s-4.045.3-5.785.873a9.593,9.593,0,0,1-3.341.825,7.932,7.932,0,0,1-2.244-.57A5.621,5.621,0,0,0,284.3,94.7a2.147,2.147,0,0,0-1.862,1.182,1.334,1.334,0,0,0,.9,1.819,1.734,1.734,0,1,0-.467,3.22c-.5-.382-1.273.249-1.213.879a1.819,1.819,0,0,0,1.213,1.34,6.678,6.678,0,0,0,4.724-.073c1.528-.509,2.941-1.316,4.451-1.868s4.051-1.54,5.567-1.007c1.122.394,1.9,1.74,2.529,1.443a2.153,2.153,0,0,0,1.122-1.589,6.416,6.416,0,0,0-.067-2.013" transform="translate(-249.915 -93.849)" fill="#263238"/><path d="M284.29,98.213a7.51,7.51,0,0,0,.564.679,4.985,4.985,0,0,0,1.965,1.261,4.457,4.457,0,0,0,3.359-.121,15.815,15.815,0,0,0,3.42-2.638,7.277,7.277,0,0,1,3.972-1.9,4.069,4.069,0,0,1,3.384,1.17,3.068,3.068,0,0,1,.8,2.286,2.268,2.268,0,0,1-.152.649c-.061.139-.1.206-.115.2a5.19,5.19,0,0,0,.133-.855,3.032,3.032,0,0,0-.849-2.11,3.857,3.857,0,0,0-3.153-1.043,7.192,7.192,0,0,0-3.8,1.874,15.431,15.431,0,0,1-3.511,2.662,4.645,4.645,0,0,1-3.59.073,4.694,4.694,0,0,1-1.983-1.407,3.323,3.323,0,0,1-.37-.552A.831.831,0,0,1,284.29,98.213Z" transform="translate(-251.299 -94.483)" fill="#455a64"/><path d="M315.7,111.747a.935.935,0,0,1-.285-.376,2.328,2.328,0,0,1-.176-1.286c.073-1.14,1.085-2.359,1.213-3.936a3.553,3.553,0,0,0-.364-2.122,2.674,2.674,0,0,0-1.316-1.134,2.256,2.256,0,0,0-1.176-.164c-.285.049-.437.115-.449.085s.121-.127.418-.218a2.256,2.256,0,0,1,1.3.061,2.893,2.893,0,0,1,1.5,1.213,3.76,3.76,0,0,1,.461,2.3,6.464,6.464,0,0,1-.679,2.232,6.671,6.671,0,0,0-.637,1.71,2.681,2.681,0,0,0,.188,1.631Z" transform="translate(-262.658 -97.265)" fill="#455a64"/><path d="M310.3,245.667l20.326,118.26L314.6,365.879,291.84,260.384l1.9,103.973H278.39L272.32,244.63Z" transform="translate(-246.588 -153.197)" fill="#263238"/><path d="M266.861,170.667l-5.73,3.56-6.5-12.492c2.856-2.062,12.013-7.956,14.335-9.472a11.169,11.169,0,0,1,1.819-.988A18.641,18.641,0,0,1,275.6,150.1c1.467-.2,2.583-.3,3.3-.388a21.273,21.273,0,0,0,12.837,0h0a12.727,12.727,0,0,1,1.467.115h0c4.245.606,8.362,3.584,10.915,6.349l10.115,9.1-9.921,11.861-3.068-3.638.722,16.755,2.929,20.836H265.272s-.085-4.912.273-11.74c.509-9.605,1.013-24.541,1.013-24.541" transform="translate(-239.625 -115.836)" fill="#90caf9"/><path d="M274.1,189.427a19.747,19.747,0,0,0,.255-2.759c.115-1.7.267-4.051.479-6.67s.449-4.936.606-6.634a18.607,18.607,0,0,0,.2-2.753,15.5,15.5,0,0,0-.509,2.717c-.249,1.692-.528,4.039-.746,6.634s-.315,4.96-.352,6.67A15.767,15.767,0,0,0,274.1,189.427Z" transform="translate(-247.247 -124.062)" fill="#263238"/><path d="M330.245,174.38a7.885,7.885,0,0,0-.1,1.9c0,1.17.073,2.789.2,4.572s.309,3.39.479,4.548a7.024,7.024,0,0,0,.382,1.862,9.353,9.353,0,0,0-.073-1.892c-.1-1.34-.218-2.868-.346-4.554s-.23-3.214-.333-4.548a8.489,8.489,0,0,0-.212-1.885Z" transform="translate(-269.341 -125.546)" fill="#263238"/><rect width="6.598" height="1.716" transform="translate(51.025 50.817)" fill="#fafafa"/><path d="M310.993,158.439a5.5,5.5,0,0,0-1.577-.224,7.5,7.5,0,0,0-4.033,1.474c-.77.509-1.558,1.146-2.426,1.789a16.978,16.978,0,0,1-3.032,1.753,17.688,17.688,0,0,1-3.717,1.116,18.113,18.113,0,0,1-4.16.218,16.693,16.693,0,0,1-4.093-.764,17.771,17.771,0,0,1-1.856-.7,15.676,15.676,0,0,1-1.674-.9c-2.153-1.267-3.584-3.032-5.094-4.075a6.155,6.155,0,0,0-4.039-1.322,4.936,4.936,0,0,0-1.534.431l.091-.061a1.82,1.82,0,0,1,.273-.158,3.468,3.468,0,0,1,1.158-.334,6.179,6.179,0,0,1,4.178,1.255c1.558,1.055,3,2.8,5.112,4.014a15.26,15.26,0,0,0,1.655.873,18.021,18.021,0,0,0,1.819.679,16.615,16.615,0,0,0,4.02.746,18.143,18.143,0,0,0,4.081-.206,17.821,17.821,0,0,0,3.638-1.079,16.75,16.75,0,0,0,3-1.7c.885-.606,1.686-1.261,2.474-1.765a7.434,7.434,0,0,1,4.154-1.407,4,4,0,0,1,1.213.182,2.2,2.2,0,0,1,.291.109A.386.386,0,0,1,310.993,158.439Z" transform="translate(-247.155 -118.574)" fill="#fafafa"/><path d="M267.976,178.022c-.049,0-.437-.521-1.213-1.213a9.961,9.961,0,0,0-1.51-1.11,10.953,10.953,0,0,0-2.1-.934,11.074,11.074,0,0,0-2.25-.443,9.97,9.97,0,0,0-1.88.03c-1.061.127-1.7.358-1.716.3s.146-.091.431-.194a6.349,6.349,0,0,1,1.255-.321,9.1,9.1,0,0,1,1.928-.1,10.613,10.613,0,0,1,2.329.431,10.31,10.31,0,0,1,2.147.988,8.757,8.757,0,0,1,1.522,1.213,5.569,5.569,0,0,1,.5.546,3.081,3.081,0,0,1,.346.443C267.909,177.864,267.994,178,267.976,178.022Z" transform="translate(-240.679 -125.404)" fill="#fafafa"/><path d="M308.377,189.376a1.509,1.509,0,0,1-.3.182l-.9.473-.661.34c-.249.115-.522.218-.813.346-.606.236-1.213.54-2,.776l-1.213.394c-.412.133-.855.23-1.3.358a28.145,28.145,0,0,1-2.923.606,37.6,37.6,0,0,1-6.822.418,37.179,37.179,0,0,1-6.773-.946c-1.019-.279-1.989-.528-2.862-.861-.443-.158-.873-.285-1.273-.455l-1.152-.491c-.74-.291-1.364-.649-1.928-.934-.279-.146-.546-.273-.776-.406l-.606-.388-.867-.546a1.352,1.352,0,0,1-.291-.212,2.014,2.014,0,0,1,.327.158l.891.491.643.364c.236.127.5.243.782.382.57.267,1.213.606,1.94.885l1.146.473c.4.158.831.279,1.273.437.873.315,1.819.552,2.844.819a34.6,34.6,0,0,0,13.486.54,27.975,27.975,0,0,0,2.9-.606c.449-.121.891-.206,1.3-.334l1.182-.376c.758-.218,1.413-.509,2-.728.291-.115.57-.212.819-.321l.667-.309.928-.418A1.153,1.153,0,0,1,308.377,189.376Z" transform="translate(-247.607 -130.919)" fill="#fafafa"/><path d="M340.86,173.18a13.409,13.409,0,0,0-1.849-.152A9.1,9.1,0,0,0,334.8,174.3a19.957,19.957,0,0,0-3.535,2.741,12.5,12.5,0,0,1-1.4,1.243,9.653,9.653,0,0,1,1.243-1.4,16.759,16.759,0,0,1,3.535-2.856,8.544,8.544,0,0,1,4.372-1.213,5.408,5.408,0,0,1,1.37.188,1.388,1.388,0,0,1,.479.182Z" transform="translate(-269.236 -124.928)" fill="#fafafa"/><path d="M308.748,211.312a1.781,1.781,0,0,1-.327.164l-.958.431a14.621,14.621,0,0,1-1.54.606c-.612.2-1.292.491-2.074.716l-1.213.37c-.431.127-.879.218-1.346.34-.928.249-1.934.424-3,.606a43.551,43.551,0,0,1-13.947.121c-1.061-.188-2.074-.346-3.032-.606-.467-.115-.922-.2-1.346-.321l-1.213-.352c-.788-.206-1.48-.473-2.092-.679a15.512,15.512,0,0,1-1.552-.606l-.964-.406a2.109,2.109,0,0,1-.327-.164,1.34,1.34,0,0,1,.352.1l.988.358c.424.158.94.352,1.558.54s1.31.437,2.1.606l1.213.327c.431.109.885.194,1.346.3.928.224,1.94.37,3,.546a45.146,45.146,0,0,0,13.88-.115c1.055-.194,2.062-.358,2.983-.606.461-.115.916-.2,1.34-.321l1.213-.352c.782-.206,1.474-.467,2.086-.667s1.128-.394,1.552-.564l.976-.37A1.25,1.25,0,0,1,308.748,211.312Z" transform="translate(-247.178 -140.078)" fill="#fafafa"/><path d="M310.753,236.592a1.443,1.443,0,0,1-.388,0l-1.092-.139c-.946-.133-2.322-.3-4.026-.473s-3.735-.334-5.991-.449-4.748-.146-7.356-.091-5.094.218-7.343.418-4.275.455-5.967.709-3.062.479-4,.655l-1.085.182a2.232,2.232,0,0,1-.382.049,1.46,1.46,0,0,1,.37-.109l1.073-.243c.934-.212,2.3-.473,3.99-.752s3.717-.552,5.973-.782,4.748-.382,7.368-.443,5.112,0,7.374.115,4.3.309,6,.521,3.074.4,4.02.57l1.085.2A2.818,2.818,0,0,1,310.753,236.592Z" transform="translate(-246.903 -149.446)" fill="#fafafa"/></g><g transform="translate(34.25 73.001)"><path d="M90.444,100.35a11.461,11.461,0,0,0-11.23,9.2c-.467,2.692.042,5.621-1.213,8.053-1.643,3.226-5.955,4.712-6.919,8.2-.813,2.917,1.1,6.064.285,8.993-.606,2.11-2.48,3.6-3.4,5.579a6.349,6.349,0,0,0,.418,6.064,5.761,5.761,0,0,0,5.458,2.5,23.652,23.652,0,0,0,3.808-1.286c2.759-.9,5.755-.606,8.629-.176s5.827.867,8.653.2,5.536-2.759,5.961-5.633c.273-1.862-.431-3.711-1.007-5.506-3.766-11.855-2.025-24.79-4.7-36.936" transform="translate(-51.552 -94.161)" fill="#263238"/><path d="M82.311,116.645a12.376,12.376,0,0,0-2.529-2.474,4.742,4.742,0,0,0-3.353-.873,2.99,2.99,0,0,0-2.48,2.232,2.189,2.189,0,0,0,1.819,2.559,1.716,1.716,0,0,0-2.286,1.292,2.365,2.365,0,0,0,1.443,2.426,3.869,3.869,0,0,0,2.965-.079,11.254,11.254,0,0,0,2.571-1.607l2.753-2.08" transform="translate(-53.946 -99.535)" fill="#263238"/><path d="M71.316,148.458a1.468,1.468,0,0,1-.473-.212,2.5,2.5,0,0,1-.916-1.182,3.475,3.475,0,0,1-.055-2.359,7.362,7.362,0,0,1,1.7-2.632A17.585,17.585,0,0,0,74,139.211a5.536,5.536,0,0,0,.455-4.111,24.217,24.217,0,0,1-.867-4.736,4.6,4.6,0,0,1,.746-2.48,6.525,6.525,0,0,1,1.947-1.819c1.516-.964,3.184-1.486,4.524-2.426a5.567,5.567,0,0,0,1.643-1.655,6.476,6.476,0,0,0,.77-2.183,40.022,40.022,0,0,0,.279-4.311,15.16,15.16,0,0,1,.643-3.741,8.126,8.126,0,0,1,3.147-4.427,5.493,5.493,0,0,1,1.34-.667,3.091,3.091,0,0,1,.37-.1h.133a7.386,7.386,0,0,0-1.789.879,8.144,8.144,0,0,0-3.032,4.39,15.329,15.329,0,0,0-.606,3.693,38.309,38.309,0,0,1-.255,4.342,6.434,6.434,0,0,1-.788,2.256,5.761,5.761,0,0,1-1.734,1.819c-1.389.982-3.062,1.51-4.53,2.426a6.222,6.222,0,0,0-1.813,1.692,4.245,4.245,0,0,0-.7,2.31,25.987,25.987,0,0,0,.843,4.675,7.731,7.731,0,0,1,.152,2.262,4.736,4.736,0,0,1-.667,2.037,17.518,17.518,0,0,1-2.474,2.88,7.35,7.35,0,0,0-1.7,2.535,3.378,3.378,0,0,0,0,2.262,2.486,2.486,0,0,0,.837,1.17C71.153,148.385,71.329,148.44,71.316,148.458Z" transform="translate(-52.46 -96.892)" fill="#455a64"/><path d="M86.39,121.93a10.4,10.4,0,0,0,.534-2.347A10.243,10.243,0,0,0,86.6,117.2,4.13,4.13,0,0,1,86.39,121.93Z" transform="translate(-59.032 -101.084)" fill="#455a64"/><path d="M90.99,138.8s-.079-.073-.218-.23a3.214,3.214,0,0,1-.461-.813,5.142,5.142,0,0,1,.049-3.372,16.689,16.689,0,0,1,2.571-4.324,11.013,11.013,0,0,0,1.383-2.559,9.848,9.848,0,0,0,.5-3.08c.036-2.159-.376-4.208-.5-6.1a11.091,11.091,0,0,1,.606-5,6.215,6.215,0,0,1,2-2.729,4.5,4.5,0,0,1,.8-.473,1.213,1.213,0,0,1,.3-.109,10.344,10.344,0,0,0-1.025.679,6.294,6.294,0,0,0-1.868,2.717,11.1,11.1,0,0,0-.5,4.894c.139,1.868.564,3.917.528,6.125a10,10,0,0,1-.521,3.178,11.073,11.073,0,0,1-1.437,2.62,16.986,16.986,0,0,0-2.6,4.245,5.106,5.106,0,0,0-.146,3.262A5.009,5.009,0,0,0,90.99,138.8Z" transform="translate(-60.473 -98.254)" fill="#455a64"/><path d="M65.189,144.546l.176.279a1.971,1.971,0,0,0,.691.606,2.571,2.571,0,0,0,1.419.291,2.523,2.523,0,0,0,1.686-.843,4.026,4.026,0,0,0,.946-2.128,7,7,0,0,0-.218-2.711c-.236-.946-.606-1.91-.873-2.959a7.41,7.41,0,0,1-.249-3.341,6.276,6.276,0,0,1,1.558-2.971,14.6,14.6,0,0,1,2.347-2.044c.794-.606,1.589-1.079,2.292-1.595a15.767,15.767,0,0,0,1.819-1.552,6.834,6.834,0,0,0,1.868-2.886,9.575,9.575,0,0,0,.236-1.261,3.638,3.638,0,0,1-.115,1.292,6.761,6.761,0,0,1-1.819,3.032,15.573,15.573,0,0,1-1.819,1.607c-.7.528-1.492,1.031-2.274,1.619a14.7,14.7,0,0,0-2.329,2.007,6.064,6.064,0,0,0-1.48,2.826,7.331,7.331,0,0,0,.236,3.208c.273,1.019.606,2,.855,2.965a7.028,7.028,0,0,1,.194,2.82,4.16,4.16,0,0,1-1.019,2.238,2.686,2.686,0,0,1-1.819.867,2.65,2.65,0,0,1-1.492-.364,1.716,1.716,0,0,1-.679-.691.709.709,0,0,1-.1-.23C65.2,144.576,65.183,144.546,65.189,144.546Z" transform="translate(-50.687 -102.749)" fill="#263238"/><path d="M122.854,110.37c.461,3.129,1.31,6.222,2.662,8.162,1.085,1.552,3.2,2.426,3.523,4.33.273,1.577-.673,3.147-.522,4.736.243,2.517,3.032,4.045,3.8,6.44a5.722,5.722,0,0,1-1.771,5.7,12.65,12.65,0,0,1-5.585,2.759c-2.893.782-6.4,1.019-8.49-1.14-1.425-1.486-1.74-3.681-1.922-5.724-.485-5.458-.467-10.982-.443-16.476" transform="translate(-69.936 -98.396)" fill="#263238"/><path d="M97.3,112.178a9.411,9.411,0,0,1,8.49-10.545,9.6,9.6,0,0,1,10.236,8.247,104.373,104.373,0,0,1,1.213,10.388c-.061,4.851-2.893,6.719-4.039,7.277a6.458,6.458,0,0,1-1.267.315h0a.036.036,0,0,0-.03.036l1.073,5.549c.485,3.638-1.54,6.877-5.173,7.41s-6.488-2.262-7.046-5.9Z" transform="translate(-63.298 -94.941)" fill="#ffbe9d"/><path d="M124.62,118.35c-.079.115-.716-.23-1.534-.109s-1.358.606-1.461.534,0-.23.255-.461a2.135,2.135,0,0,1,1.152-.546,2.037,2.037,0,0,1,1.213.206C124.553,118.131,124.662,118.3,124.62,118.35Z" transform="translate(-72.885 -101.3)" fill="#263238"/><path d="M112.46,120.73c-.079.115-.716-.23-1.534-.109s-1.358.606-1.461.534,0-.23.255-.461a2.134,2.134,0,0,1,1.152-.546,2.037,2.037,0,0,1,1.213.206C112.387,120.511,112.5,120.657,112.46,120.73Z" transform="translate(-68.098 -102.236)" fill="#263238"/><path d="M118.59,124.507a5.458,5.458,0,0,1,1.292-.437c.206-.049.4-.121.412-.267a1.043,1.043,0,0,0-.23-.606c-.267-.479-.552-.976-.849-1.5a28.162,28.162,0,0,1-2-3.96,27,27,0,0,1,2.31,3.79l.825,1.51a1.213,1.213,0,0,1,.23.807.546.546,0,0,1-.3.358,1.249,1.249,0,0,1-.346.1A5.07,5.07,0,0,1,118.59,124.507Z" transform="translate(-71.167 -101.296)" fill="#263238"/><path d="M116.556,144.229a13.206,13.206,0,0,1-7.416-1.079s1.819,3.99,7.707,2.571Z" transform="translate(-67.986 -111.298)" fill="#eb996e"/><path d="M117.838,131.97a1.5,1.5,0,0,0-1.4-.352,1.358,1.358,0,0,0-.855.606.861.861,0,0,0,.079.988,1,1,0,0,0,1.11.115,3.086,3.086,0,0,0,.952-.776.91.91,0,0,0,.2-.279.273.273,0,0,0-.042-.3" transform="translate(-70.475 -106.74)" fill="#eb996e"/><path d="M115.585,130.41c.133,0,.267.861,1.116,1.383s1.783.285,1.819.406-.188.2-.606.273a2.262,2.262,0,0,1-1.5-.291,1.934,1.934,0,0,1-.879-1.164C115.458,130.646,115.525,130.416,115.585,130.41Z" transform="translate(-70.49 -106.284)" fill="#263238"/><path d="M111.343,116.98c-.049.23-.885.249-1.819.5s-1.68.606-1.819.449,0-.315.315-.606a3.293,3.293,0,0,1,2.789-.728C111.155,116.72,111.361,116.865,111.343,116.98Z" transform="translate(-67.4 -100.822)" fill="#263238"/><path d="M123.627,114.6c-.115.206-.709.1-1.389.188s-1.213.309-1.395.133c-.067-.085,0-.285.218-.5a1.94,1.94,0,0,1,1.079-.431,2.007,2.007,0,0,1,1.158.212C123.573,114.331,123.682,114.513,123.627,114.6Z" transform="translate(-72.583 -99.816)" fill="#263238"/><path d="M124.234,119.5a.764.764,0,0,0,.606.867.728.728,0,0,0,.873-.57.764.764,0,0,0-.606-.867.728.728,0,0,0-.873.57Z" transform="translate(-73.924 -101.757)" fill="#263238"/><path d="M111.893,121.8a.752.752,0,0,0,.606.867.728.728,0,0,0,.879-.564.764.764,0,0,0-.606-.867.722.722,0,0,0-.879.564Z" transform="translate(-69.066 -102.665)" fill="#263238"/><path d="M98.22,154.584,116.606,151l-.522,10.248s-8.18,2.541-8.49,2.692-5.652,0-5.652,0Z" transform="translate(-63.688 -114.388)" fill="#ffbe9d"/><path d="M55.451,249.06c-.139.467-.285,1.013-.431,1.674a4.978,4.978,0,0,0-.073,1.722,7.55,7.55,0,0,0,.479,2.086.668.668,0,0,1-.813.964c-.534-.249-1.395-1.88-1.467-4.008s-2.1.546-2.85,1.5-3.226,3.82-3.705,3.826c-.7,0-.837-.752-.061-1.692s2.9-3.929,2.377-4.305-4.293,4.572-4.293,4.572-.606,1.213-1.255.776c-1.122-.74,3.275-5.7,3.705-6.161.3-.321-.261-.746-.564-.382s-3.638,5.015-4.8,4.245c-.885-.576,3.578-4.111,3.735-5.458s-3.111,3.032-3.929,2.426c-.309-.218-.5-.418,1.734-2.662,1.085-1.085,5.264-4.384,5.264-4.384L57,214.18H68.124Z" transform="translate(-41.294 -139.256)" fill="#ffbe9d"/><path d="M153.79,122.93s15.857-6.307,18.374-8.253S190.507,98.5,190.507,98.5l2.1-1.771c.261-.406.552-.9.873-1.492a5.021,5.021,0,0,0,.54-1.631,7.834,7.834,0,0,0,.115-2.147.667.667,0,0,1,1.043-.7c.437.412.825,2.189.315,4.245s2.165.055,3.153-.667,4.148-2.789,4.609-2.656c.679.188.606.946-.406,1.637s-3.869,2.983-3.463,3.487,5.379-3.22,5.379-3.22.934-.964,1.419-.4c.879,1.019-4.706,4.584-5.245,4.912-.376.224.042.788.431.521s4.882-3.82,5.785-2.789c.691.788-4.566,2.971-5.088,4.245s3.82-2.062,4.451-1.279c.236.291.37.54-2.4,2.086-1.346.746-6.27,2.771-6.27,2.771l-.521.54-21.084,21.836-19.356,7.744Z" transform="translate(-85.561 -90.623)" fill="#ffbe9d"/><path d="M50.2,418.21l-3.093,14.038-5.658,10.4a1.474,1.474,0,0,0,.679,2.044h0a1.468,1.468,0,0,0,1.346-.061c2.632-1.522,12.286-7.168,12.455-8.2.2-1.213,4.245-14.6,4.245-14.6Z" transform="translate(-41.274 -219.562)" fill="#90caf9"/><g transform="translate(0.858 215.918)" opacity="0.6"><path d="M42.69,455.9l14.038-9.211-.146.606a2.219,2.219,0,0,1-.855,1.267c-1.14.825-4.348,3.032-11.649,7.277a1.486,1.486,0,0,1-1.389.055Z" transform="translate(-42.69 -446.69)" fill="#fff"/></g><g transform="translate(12.582 210.667)" opacity="0.6"><path d="M62.573,438.073a.9.9,0,0,0-.515,1.073.861.861,0,0,0,1.061.521.946.946,0,0,0,.54-1.14.891.891,0,0,0-1.164-.418" transform="translate(-62.023 -438.031)" fill="#fff"/></g><path d="M48.8,451.7a4.5,4.5,0,0,0-.958-1.389,4.5,4.5,0,0,0-1.534-.7c0-.036.2-.1.54-.067a2.292,2.292,0,0,1,1.213.528,2.316,2.316,0,0,1,.734,1.086C48.869,451.484,48.839,451.7,48.8,451.7Z" transform="translate(-43.256 -231.891)" fill="#263238"/><path d="M46.437,454.817c-.079.042-.418-.521-1.092-.9s-1.316-.418-1.316-.515a1.637,1.637,0,0,1,1.48.243C46.286,454.084,46.534,454.793,46.437,454.817Z" transform="translate(-42.359 -233.381)" fill="#263238"/><path d="M52.141,448.278a14.233,14.233,0,0,0-1.589-1.51,13.831,13.831,0,0,0-1.953-.988,3.268,3.268,0,0,1,2.135.74,3.214,3.214,0,0,1,1.407,1.759Z" transform="translate(-44.158 -230.414)" fill="#263238"/><path d="M54.248,442.218c-.061.079-.752-.437-1.746-.716s-1.85-.237-1.862-.333a2.862,2.862,0,0,1,1.947.03,2.832,2.832,0,0,1,1.662,1.019Z" transform="translate(-44.961 -228.538)" fill="#263238"/><path d="M55.8,435.461a7.279,7.279,0,0,0-1.819-.794,7.185,7.185,0,0,0-1.965,0c0-.036.176-.176.546-.279a3.129,3.129,0,0,1,1.486-.042,3.172,3.172,0,0,1,1.34.606C55.713,435.23,55.834,435.436,55.8,435.461Z" transform="translate(-45.504 -225.886)" fill="#263238"/><path d="M54.477,431.9a1.213,1.213,0,0,1,.109-.534,3.857,3.857,0,0,1,.758-1.28,1.71,1.71,0,0,1,.891-.606.606.606,0,0,1,.606.291.964.964,0,0,1,.067.685,2.074,2.074,0,0,1-2.225,1.431,2.426,2.426,0,0,1-2-1.789.806.806,0,0,1,.127-.685.606.606,0,0,1,.661-.158,2.074,2.074,0,0,1,.807.7,4.373,4.373,0,0,1,.685,1.322,1.28,1.28,0,0,1,.1.534,7.01,7.01,0,0,0-.982-1.716,2,2,0,0,0-.716-.606.309.309,0,0,0-.364.085.606.606,0,0,0-.055.455,2.159,2.159,0,0,0,1.752,1.534,1.819,1.819,0,0,0,1.916-1.213.71.71,0,0,0,0-.479.321.321,0,0,0-.334-.164,1.492,1.492,0,0,0-.764.5,5.458,5.458,0,0,0-1.037,1.692Z" transform="translate(-45.753 -223.894)" fill="#263238"/><path d="M121.123,426.7l-.424,11.243s11.285,4.208,11.406,6.294l-21.83-.042-.055-17.549Z" transform="translate(-68.411 -222.884)" fill="#90caf9"/><g transform="translate(44.915 214.067)" opacity="0.6"><path d="M115.966,443.676a.885.885,0,0,0-.606,1.013.861.861,0,0,0,1,.606.94.94,0,0,0,.649-1.079.891.891,0,0,0-1.11-.534" transform="translate(-115.344 -443.638)" fill="#fff"/></g><g transform="translate(41.863 219.544)" opacity="0.6"><path d="M110.31,454.441l.067-1.771,20.9.7s.97.424.861,1.11Z" transform="translate(-110.31 -452.67)" fill="#fff"/></g><path d="M126.788,445.038c0,.1-.534.152-1.061.491s-.807.788-.9.752.061-.661.7-1.061S126.812,444.941,126.788,445.038Z" transform="translate(-74.149 -230.084)" fill="#263238"/><path d="M130.911,446.641c0,.1-.437.279-.8.734s-.467.922-.57.922-.176-.606.285-1.164S130.911,446.537,130.911,446.641Z" transform="translate(-75.986 -230.735)" fill="#263238"/><path d="M133.914,450c-.1,0-.243-.509,0-1.091s.776-.819.819-.728-.267.4-.485.879S134.011,449.985,133.914,450Z" transform="translate(-77.685 -231.35)" fill="#263238"/><path d="M126.3,440.608c-.042.1-.534-.048-1.134,0s-1.073.23-1.128.139.394-.473,1.11-.509S126.354,440.529,126.3,440.608Z" transform="translate(-73.848 -228.232)" fill="#263238"/><g transform="translate(41.815 206.046)" opacity="0.3"><path d="M121.042,430.41l-.073,2-10.733-.115-.006-1.807Z" transform="translate(-110.23 -430.41)"/></g><path d="M125.7,435.969a2.1,2.1,0,0,1-1.1,0,5.239,5.239,0,0,1-1.771-.691,1.268,1.268,0,0,1-.327-.255.479.479,0,0,1-.049-.57.606.606,0,0,1,.467-.243,1.376,1.376,0,0,1,.412.061,3.741,3.741,0,0,1,1.686.9c.5.467.679.867.643.885s-.3-.3-.813-.685a4.246,4.246,0,0,0-.97-.552,4.029,4.029,0,0,0-.606-.194c-.23-.061-.424-.061-.485.042s0,.055,0,.121a1.085,1.085,0,0,0,.243.188,4.632,4.632,0,0,0,.606.327,6.134,6.134,0,0,0,1.055.412,7.549,7.549,0,0,1,1.007.255Z" transform="translate(-73.198 -225.86)" fill="#263238"/><path d="M127.429,435.1a1.772,1.772,0,0,1-.291-1.055,3.838,3.838,0,0,1,.152-1.213,4.16,4.16,0,0,1,.285-.667.916.916,0,0,1,.7-.552.515.515,0,0,1,.455.309,1.37,1.37,0,0,1,.109.4,2.292,2.292,0,0,1,0,.734,2.523,2.523,0,0,1-.467,1.134c-.431.564-.873.691-.885.655a4.714,4.714,0,0,0,.667-.807,2.462,2.462,0,0,0,.346-1.025,2.214,2.214,0,0,0,0-.606c0-.23-.121-.418-.206-.394a.793.793,0,0,0-.382.358,3.641,3.641,0,0,0-.273.606,3.718,3.718,0,0,0-.212,1.091C127.375,434.684,127.484,435.085,127.429,435.1Z" transform="translate(-75.07 -224.837)" fill="#263238"/><path d="M75.509,223.18s-6.9,10.915-7.883,15.075C66.734,242,51.635,323.3,48.512,340.13a3.438,3.438,0,0,0,2.4,3.923l13.644,4.111a3.45,3.45,0,0,0,4.36-2.6l16.864-78.747-4.93,78.043a3.99,3.99,0,0,0,4.111,4.245l13.377-.412a4,4,0,0,0,3.814-3.735c1.164-18.8,6.391-104.3,5.342-106.975-1.182-3.032-4.281-13.5-4.281-13.5Z" transform="translate(-44.1 -142.798)" fill="#263238"/><path d="M70.75,414.817a4.183,4.183,0,0,1-.837-.1c-.54-.085-1.31-.23-2.256-.424-1.9-.388-4.5-1-7.343-1.819s-5.373-1.71-7.192-2.407c-.9-.346-1.631-.637-2.128-.855a4.849,4.849,0,0,1-.764-.358,4.121,4.121,0,0,1,.807.249l2.165.752c1.819.637,4.354,1.48,7.186,2.3s5.421,1.474,7.277,1.916l2.232.522a5.2,5.2,0,0,1,.855.224Z" transform="translate(-44.799 -215.878)" fill="#455a64"/><path d="M55.514,408.384a2.286,2.286,0,0,1-.867-1.5,2.359,2.359,0,0,1,.109-1.716c.1,0,0,.77.2,1.649S55.587,408.329,55.514,408.384Z" transform="translate(-46.494 -214.43)" fill="#455a64"/><path d="M58.326,405.69a2.9,2.9,0,0,1-.164,1.613,2.826,2.826,0,0,1-.752,1.431,8.283,8.283,0,0,1,.449-1.522,7.834,7.834,0,0,1,.467-1.522Z" transform="translate(-47.625 -214.634)" fill="#455a64"/><path d="M129.574,412.47a3.481,3.481,0,0,1,.388,1.419,3.378,3.378,0,0,1,.079,1.474,6.956,6.956,0,0,1-.467-2.893Z" transform="translate(-76.025 -217.303)" fill="#455a64"/><path d="M132.135,411.21a7.6,7.6,0,0,1-.042,3.032,7.225,7.225,0,0,1,.042-3.032Z" transform="translate(-76.956 -216.807)" fill="#455a64"/><path d="M116,229.45a1.656,1.656,0,0,1,0,.431c0,.309,0,.722-.042,1.213-.042,1.067-.139,2.608-.273,4.512-.279,3.808-.8,9.066-1.649,14.826s-1.819,10.952-2.62,14.687c-.388,1.868-.716,3.378-.958,4.421-.115.491-.212.891-.279,1.213a2.5,2.5,0,0,1-.121.412,1.82,1.82,0,0,1,.055-.424c.061-.309.133-.71.224-1.213.212-1.079.5-2.589.861-4.433.722-3.748,1.68-8.932,2.529-14.687s1.4-11,1.734-14.8c.152-1.874.279-3.4.376-4.5.042-.5.073-.916.1-1.213A2.656,2.656,0,0,1,116,229.45Z" transform="translate(-68.348 -145.266)" fill="#455a64"/><path d="M120.469,228.876a1,1,0,0,1-.3.036l-.879.042c-.758.03-1.862.061-3.226.085-2.723.042-6.488.042-10.648-.073s-7.92-.327-10.636-.521c-1.364-.1-2.462-.188-3.22-.267l-.873-.091a1.037,1.037,0,0,1-.3-.055,1.213,1.213,0,0,1,.309,0l.879.036,3.22.164c2.717.139,6.476.309,10.63.431s7.92.152,10.642.164h4.105a.916.916,0,0,1,.3.048Z" transform="translate(-60.602 -144.705)" fill="#455a64"/><path d="M120.592,229.21a6.774,6.774,0,0,1,0,1.031c0,.716-.055,1.662-.091,2.808-.091,2.371-.236,5.639-.424,9.254-.1,1.819-.164,3.529-.285,5.1a10.03,10.03,0,0,1-1.061,4.051,5.318,5.318,0,0,1-1.94,2.044,3.638,3.638,0,0,1-.7.315,1.316,1.316,0,0,1-.267.055,8.592,8.592,0,0,0,.9-.473,5.458,5.458,0,0,0,1.819-2.05,10.085,10.085,0,0,0,.964-3.966c.1-1.558.164-3.287.261-5.088.188-3.638.37-6.889.515-9.254.079-1.14.146-2.086.194-2.8a6.25,6.25,0,0,1,.115-1.025Z" transform="translate(-70.616 -145.171)" fill="#455a64"/><path d="M90.356,240.31a2.329,2.329,0,0,1,0,.7,10.108,10.108,0,0,1-.34,1.886,11.467,11.467,0,0,1-8.829,8.247,10.049,10.049,0,0,1-1.9.206,2.311,2.311,0,0,1-.7-.048,23.736,23.736,0,0,0,2.559-.376,11.782,11.782,0,0,0,8.665-8.1,24.964,24.964,0,0,0,.552-2.523Z" transform="translate(-55.958 -149.54)" fill="#455a64"/><path d="M141.039,253.08a1.444,1.444,0,0,1-.479-.121,7.211,7.211,0,0,1-1.213-.534,10.236,10.236,0,0,1-1.655-1.11,11.745,11.745,0,0,1-1.7-1.752,11.524,11.524,0,0,1-1.261-2.1,10.073,10.073,0,0,1-.643-1.886,7.575,7.575,0,0,1-.206-1.322,1.6,1.6,0,0,1,0-.5c.061,0,.109.691.412,1.765a11.17,11.17,0,0,0,.7,1.819,12.127,12.127,0,0,0,1.249,2.025,12.48,12.48,0,0,0,1.637,1.728,11.766,11.766,0,0,0,1.577,1.134C140.4,252.8,141.057,253,141.039,253.08Z" transform="translate(-77.715 -150.898)" fill="#455a64"/><path d="M91.813,243.58v.273c0,.176-.061.461-.1.8-.1.71-.236,1.734-.418,3.032-.364,2.65-.94,6.482-1.686,11.212-1.486,9.454-3.76,22.485-6.67,36.79s-6.076,27.2-8.441,36.475c-1.182,4.633-2.171,8.38-2.886,10.958-.352,1.279-.606,2.28-.819,2.971l-.224.77a2.271,2.271,0,0,1-.085.261,1.017,1.017,0,0,1,.055-.267c.055-.176.109-.449.194-.782.176-.7.431-1.7.764-2.983.673-2.589,1.631-6.343,2.783-10.982,2.31-9.29,5.342-22.158,8.3-36.463s5.245-27.324,6.792-36.766c.776-4.724,1.377-8.55,1.783-11.194.206-1.31.364-2.335.479-3.032l.127-.788C91.789,243.671,91.813,243.58,91.813,243.58Z" transform="translate(-52.77 -150.828)" fill="#455a64"/><path d="M124,354.049a2.008,2.008,0,0,1,0-.255c0-.188.036-.437.055-.752.061-.679.139-1.649.249-2.9.224-2.523.552-6.155.952-10.63.8-8.981,2.056-21.375,3-35.092.467-6.864.782-13.407.916-19.368s.1-11.321,0-15.827-.346-8.144-.522-10.66c-.091-1.243-.158-2.213-.212-2.893,0-.321-.03-.57-.042-.752a1.213,1.213,0,0,1,0-.261,1.389,1.389,0,0,1,.036.255c0,.182.042.431.079.752.061.679.152,1.649.267,2.893.218,2.51.455,6.155.606,10.66s.212,9.878.085,15.839-.424,12.516-.891,19.4c-.946,13.729-2.238,26.118-3.093,35.092-.449,4.475-.807,8.1-1.055,10.624-.133,1.243-.23,2.213-.3,2.892-.036.315-.067.564-.085.746a1.685,1.685,0,0,1-.042.23Z" transform="translate(-73.833 -155.189)" fill="#455a64"/><path d="M123.657,416.224c0,.091-4.791.691-10.727,1.34s-10.757,1.116-10.77,1.031,4.8-.691,10.733-1.34S123.651,416.139,123.657,416.224Z" transform="translate(-65.239 -218.777)" fill="#455a64"/><path d="M102.091,104.439a7.883,7.883,0,0,0-1.316,7.835c.685,1.746,2.025,3.347,1.91,5.221-.139,2.323-2.51,4.136-2.377,6.458.146,2.62,3.493,4.245,3.493,6.889s-1.613,3.675-4.724,4.245c-2,.364-3.1-2.1-4.093-3.875a15.01,15.01,0,0,1-1.516-5.834,59.425,59.425,0,0,1-.152-10.072,17.382,17.382,0,0,1,2-7.816,10.133,10.133,0,0,1,6.67-4.639" transform="translate(-61.701 -95.436)" fill="#263238"/><path d="M118.819,106.956c-1,1.528-4.172.606-6.064-.467a4.566,4.566,0,0,1-6.228-1.286,2.529,2.529,0,0,1-4.136-.606,4.993,4.993,0,0,1,.758-5.124,7.192,7.192,0,0,1,4.36-2.371,10.115,10.115,0,0,1,10.272,4.245A6.749,6.749,0,0,1,118.843,107" transform="translate(-65.167 -93.102)" fill="#263238"/><path d="M118.988,108.626c-.055.036-.606-.952-1.819-2.3a12.528,12.528,0,0,0-5.761-3.772,9.757,9.757,0,0,0-6.786.521,8.3,8.3,0,0,0-2.292,1.74s0-.067.1-.176a3.287,3.287,0,0,1,.37-.455,6.064,6.064,0,0,1,1.716-1.3,9.611,9.611,0,0,1,6.974-.606,11.388,11.388,0,0,1,3.511,1.74,13.523,13.523,0,0,1,2.335,2.189,13.165,13.165,0,0,1,1.249,1.746,3.565,3.565,0,0,1,.4.673Z" transform="translate(-65.306 -95.057)" fill="#455a64"/><path d="M109.476,110.728c-.049,0-.17-.54-.546-1.346a6.355,6.355,0,0,0-2.177-2.632,4.851,4.851,0,0,0-3.275-.764,8.732,8.732,0,0,0-1.389.382,1.35,1.35,0,0,1,.321-.236,3.518,3.518,0,0,1,1.031-.37,4.785,4.785,0,0,1,3.487.722,6.028,6.028,0,0,1,2.2,2.808,3.638,3.638,0,0,1,.346,1.437Z" transform="translate(-65.211 -96.552)" fill="#455a64"/><path d="M82.783,145.649s-8.186,2.335-11.249,7.38S59,193.609,59,193.609l10.83,1.213,9.011-23.649,2.225,7.392-1.419,7.277,27.724,1.3,1.959-31.866,29.61-14.42,3.335-3.456-8.611-9.1-3.287,3.068-29.713,10.885s1.1,8.781-6.907,10.054S82.783,145.649,82.783,145.649Z" transform="translate(-48.251 -105.453)" fill="#ff8900"/><rect width="6.598" height="1.716" transform="translate(50.371 52.1)" fill="#fafafa"/><path d="M86.667,181.69c.085,0,1.322,3.869,2.771,8.7s2.547,8.762,2.462,8.793-1.322-3.875-2.765-8.7S86.582,181.714,86.667,181.69Z" transform="translate(-59.139 -126.467)" fill="#263238"/><path d="M147.139,161.29a20.394,20.394,0,0,0-3.335,3.256,19.92,19.92,0,0,0-2.213,4.105,4.148,4.148,0,0,1,.346-1.346,11.643,11.643,0,0,1,4-5.312,4.245,4.245,0,0,1,1.2-.7Z" transform="translate(-80.759 -118.438)" fill="#263238"/><g transform="translate(27.105 56.587)" opacity="0.2"><path d="M86.917,184.249a43.054,43.054,0,0,0-.94,9.1,7.531,7.531,0,0,0,.261,2.244,2.862,2.862,0,0,0,1.352,1.74,8.646,8.646,0,0,0,1.819-3.857,8.217,8.217,0,0,0-.467-2.947q-.934-3.293-1.88-6.585" transform="translate(-85.972 -183.94)"/></g><path d="M99.5,150.29c1.467,1.025,1.959,3,1.892,4.778s-.606,3.529-.673,5.318.37,3.754,1.819,4.815l7.046-2.389c-1.389-.794-1.68-2.7-1.377-4.245s1.037-3.032,1.116-4.645c.224-4.19-2.789-7.768-4.2-9.472" transform="translate(-64.192 -111.81)" fill="#263238"/></g><g transform="translate(91.149 63.523)"><path d="M145.439,430.32l-2.729,15.609h13.5l1.492-14.76Z" transform="translate(-138.098 -214.851)" fill="#90caf9"/><path d="M156.717,453.709a9.4,9.4,0,0,1-1.965.115c-1.213,0-2.893,0-4.742-.091l-4.736-.2a10.55,10.55,0,0,1-1.965-.158,9.658,9.658,0,0,1,1.971-.1c1.213,0,2.893,0,4.742.091l4.736.194A10.843,10.843,0,0,1,156.717,453.709Z" transform="translate(-138.335 -223.88)" fill="#263238"/><g transform="translate(4.612 229.465)" opacity="0.6"><path d="M142.71,455.013h13.5l.127-1.279-13.383-.333-.243,1.461" transform="translate(-142.71 -453.4)" fill="#fff"/></g><path d="M153.58,446.245a54.862,54.862,0,0,1,.74-5.955,56.626,56.626,0,0,1,1.049-5.9,56.74,56.74,0,0,1-.74,5.949A58.952,58.952,0,0,1,153.58,446.245Z" transform="translate(-142.377 -216.453)" fill="#263238"/><path d="M156.751,449.444a6.47,6.47,0,0,0-.23-2.832,5.6,5.6,0,0,0-1.7-2.517,5.457,5.457,0,0,0-3.475-1.213,5.718,5.718,0,0,0-3.511,1.14,6.222,6.222,0,0,0-1.88,2.426,7.786,7.786,0,0,0-.606,2.8.749.749,0,0,0-.042-.2,3.94,3.94,0,0,1,0-.606,5.973,5.973,0,0,1,.449-2.1,6.264,6.264,0,0,1,1.91-2.547,5.931,5.931,0,0,1,3.693-1.213,5.536,5.536,0,0,1,5.385,4,5.215,5.215,0,0,1,.2,2.134,3.147,3.147,0,0,1-.109.576C156.788,449.383,156.763,449.45,156.751,449.444Z" transform="translate(-139.114 -219.676)" fill="#263238"/><path d="M236.257,423.13l3.281,10.757s12.043.279,12.843,2.207l-20.618,7.113-5.8-16.555Z" transform="translate(-170.866 -212.021)" fill="#90caf9"/><g transform="translate(61.618 223.046)" opacity="0.6"><path d="M237.083,442.927a.891.891,0,0,0-.249,1.158.849.849,0,0,0,1.146.261.934.934,0,0,0,.261-1.213.885.885,0,0,0-1.213-.139" transform="translate(-236.719 -442.816)" fill="#fff"/></g><g transform="translate(60.358 223.31)" opacity="0.6"><path d="M235.161,451.127l-.521-1.692,19.981-6.185s1.055.085,1.176.764Z" transform="translate(-234.64 -443.25)" fill="#fff"/></g><path d="M247.864,440.49c.03.1-.461.321-.843.819s-.5,1.007-.606,1-.158-.643.315-1.213S247.852,440.387,247.864,440.49Z" transform="translate(-178.889 -218.842)" fill="#263238"/><path d="M252.292,440.737c.061.091-.315.412-.515.958s-.139,1.031-.236,1.061-.364-.521-.109-1.213S252.261,440.646,252.292,440.737Z" transform="translate(-180.849 -218.943)" fill="#263238"/><path d="M256.2,443.026c-.079.055-.394-.4-.327-1.043s.467-1.025.534-.958-.115.467-.164.995S256.3,442.978,256.2,443.026Z" transform="translate(-182.636 -219.062)" fill="#263238"/><path d="M245.789,436.515c0,.109-.521.127-1.073.364s-.94.564-1.025.5.224-.576.879-.843S245.813,436.418,245.789,436.515Z" transform="translate(-177.839 -217.237)" fill="#263238"/><g transform="translate(55.852 213.237)" opacity="0.3"><path d="M237.4,426.64l.588,1.916-10.175,3.408-.6-1.7Z" transform="translate(-227.21 -426.64)"/></g><path d="M243.665,432.446a2.056,2.056,0,0,1-1.037.352,5.02,5.02,0,0,1-1.213.042,5.812,5.812,0,0,1-.7-.109,1.509,1.509,0,0,1-.4-.139.467.467,0,0,1-.23-.522.607.607,0,0,1,.364-.382,1.587,1.587,0,0,1,.406-.079,4.082,4.082,0,0,1,.722,0,3.7,3.7,0,0,1,1.164.3,2.457,2.457,0,0,1,.9.606c-.03,0-.376-.188-.988-.388a4.491,4.491,0,0,0-1.1-.2,4.085,4.085,0,0,0-.661,0c-.236,0-.424.079-.443.194s0,.061.061.109a.957.957,0,0,0,.291.1q.34.079.655.127a6.063,6.063,0,0,0,1.128.036,8.275,8.275,0,0,1,1.085-.042Z" transform="translate(-176.419 -215.352)" fill="#263238"/><path d="M245.314,431.031a1.871,1.871,0,0,1-.606-.9,3.559,3.559,0,0,1-.249-1.176,3.707,3.707,0,0,1,.049-.722.891.891,0,0,1,.479-.746.509.509,0,0,1,.534.139,1.572,1.572,0,0,1,.237.34,2.553,2.553,0,0,1,.164,1.916,1.524,1.524,0,0,1-.606.91,8.091,8.091,0,0,0,.364-.976,2.517,2.517,0,0,0,0-1.085,2.062,2.062,0,0,0-.224-.606c-.109-.206-.249-.358-.327-.309a.765.765,0,0,0-.243.467,3.4,3.4,0,0,0-.061.649,4.1,4.1,0,0,0,.152,1.1C245.126,430.661,245.393,431,245.314,431.031Z" transform="translate(-178.146 -213.725)" fill="#263238"/><path d="M139.977,198.81l-3.887,8a9.8,9.8,0,0,0,1.6,10.915h0a9.805,9.805,0,0,0,8.314,3.1l15.111-1.722v-8.987l-14.869.431L149.965,204Z" transform="translate(-135.105 -123.728)" fill="#b78876"/><path d="M172.009,133.972c-2.492-4.208-3.208-9.818-3.838-14.669-.3-2.286-.819-5.536.788-6.968,1.722-1.528,1.886-3.887,3.863-5.069a6.072,6.072,0,0,1,6.525.073" transform="translate(-147.992 -87.337)" fill="#263238"/><path d="M182.473,150.413h0a6.755,6.755,0,0,0,7.277-6.458c.152-3.675.285-7.392.285-7.392s5.579-.509,6-6.022.273-18.253.273-18.253h0a19.217,19.217,0,0,0-19.4,1.213l.291,19.4-.036,10.448C177.173,146.841,178.986,150.11,182.473,150.413Z" transform="translate(-151.556 -88.86)" fill="#b78876"/><path d="M188.683,120.762a2.824,2.824,0,0,0-3.766-.837,3.208,3.208,0,0,0-1.079,4.008,4.245,4.245,0,0,0,2.7,2.05,2.122,2.122,0,0,1,1.649,2.286c-.164,1.389-2.468,1.9-3.511,3.032-1.619,1.777-5.173,2.523-7.562,2.8s-2.068.291-3.426-1.643a7.374,7.374,0,0,1-1.328-4.481l-.218-12.2a17.585,17.585,0,0,1,.291-4.378,5.894,5.894,0,0,1,2.316-3.638c1.346-.879,3.032-.946,4.578-1.437,1.91-.606,3.535-1.874,5.324-2.783s3.984-1.449,5.779-.546c1.286.649,2.147,1.94,3.4,2.656,1.777,1.019,4.208.794,5.063,3.42a4.445,4.445,0,0,1-.036,2.808c-1.213,3.566-5.646,4.991-8.823,3.438a8.656,8.656,0,0,1-.115,3.857c-.206.606-.279,1.54-1.213,1.558" transform="translate(-149.67 -85.83)" fill="#263238"/><path d="M196.422,136.531a.545.545,0,0,1-.073.236.825.825,0,0,1-.606.309,1.522,1.522,0,0,1-1.425-1.528,1.571,1.571,0,0,1,.412-1.164,1.631,1.631,0,0,1,.861-.5c.57-.115.9.091.873.127a6.665,6.665,0,0,0-.794.139,1.389,1.389,0,0,0-.958,1.377,1.3,1.3,0,0,0,1.037,1.267C196.2,136.822,196.386,136.5,196.422,136.531Z" transform="translate(-158.41 -98.161)" fill="#7c5142"/><path d="M168.01,109.383a6.458,6.458,0,1,0-8.841-4.366,1.607,1.607,0,0,1,0,1.14c-.236.406-.788.461-1.213.606-1.558.606-1.771,2.965-.606,4.184a4.73,4.73,0,0,0,4.657.958,2.672,2.672,0,0,0,2.341,3.1,4.075,4.075,0,0,0,3.7-1.965,9.253,9.253,0,0,0,1.255-4.19" transform="translate(-143.569 -83.655)" fill="#263238"/><path d="M175.668,106.36a1.765,1.765,0,0,1,0,.558,8.351,8.351,0,0,1-.218,1.528,9.254,9.254,0,0,1-6.8,6.87,8.3,8.3,0,0,1-1.522.218,1.589,1.589,0,0,1-.564,0c0-.055.8-.067,2.031-.412a9.593,9.593,0,0,0,6.67-6.713C175.6,107.16,175.607,106.354,175.668,106.36Z" transform="translate(-147.486 -87.34)" fill="#f5f5f5"/><path d="M171.074,97.855a.523.523,0,0,1,.164-.061,1.777,1.777,0,0,1,.5-.055,2.977,2.977,0,0,1,1.74.661,3.765,3.765,0,0,1,.867.97,4.281,4.281,0,0,1,.534,1.395,8.059,8.059,0,0,1-.133,3.366,13.656,13.656,0,0,1-2.589,5.458,11.522,11.522,0,0,1-1.213,1.358,2.268,2.268,0,0,1-.528.424c-.042-.042.685-.679,1.595-1.916a14.663,14.663,0,0,0,2.456-5.421,8.023,8.023,0,0,0,.158-3.238,4.245,4.245,0,0,0-.473-1.322,3.639,3.639,0,0,0-.782-.928,3,3,0,0,0-1.637-.649C171.316,97.824,171.074,97.9,171.074,97.855Z" transform="translate(-149.004 -83.946)" fill="#455a64"/><path d="M160.42,110.276a1.957,1.957,0,0,1,.2-.412,5.457,5.457,0,0,1,.77-.976,6.482,6.482,0,0,1,7.622-1.213,5.774,5.774,0,0,1,1.037.679c.224.188.327.309.315.327a10.855,10.855,0,0,0-1.449-.807,6.67,6.67,0,0,0-7.374,1.213A12.971,12.971,0,0,0,160.42,110.276Z" transform="translate(-145.069 -87.569)" fill="#455a64"/><path d="M178.32,116c.03-.036.728.528,1.928,1.334a29.907,29.907,0,0,0,4.942,2.7,28.166,28.166,0,0,0,2.9,1.085,9.357,9.357,0,0,0,2.426.528,2.88,2.88,0,0,0,1.595-.4c.334-.206.467-.394.491-.376s-.091.224-.424.479a2.789,2.789,0,0,1-1.662.522,8.726,8.726,0,0,1-2.535-.479,26.075,26.075,0,0,1-7.883-3.875,17.231,17.231,0,0,1-1.352-1.073A2.426,2.426,0,0,1,178.32,116Z" transform="translate(-152.115 -91.133)" fill="#455a64"/><path d="M175.535,100.924a2.426,2.426,0,0,1-.061-.77,6.064,6.064,0,0,1,.382-2.068,4.16,4.16,0,0,1,2.074-2.316,3.311,3.311,0,0,1,1.862-.334,3.111,3.111,0,0,1,1.819.9,3.99,3.99,0,0,1,1.031,1.74,4.936,4.936,0,0,1,.133,1.868,7.465,7.465,0,0,1-1.055,2.941,16.484,16.484,0,0,1-1.213,1.716,3.475,3.475,0,0,1-.509.606,4.276,4.276,0,0,1,.412-.655c.273-.406.685-.988,1.11-1.752a7.616,7.616,0,0,0,.964-2.862,4.693,4.693,0,0,0-.146-1.752,3.851,3.851,0,0,0-.952-1.6,2.893,2.893,0,0,0-1.637-.819,3.074,3.074,0,0,0-1.692.291,4.008,4.008,0,0,0-2,2.141,6.719,6.719,0,0,0-.467,2,7.276,7.276,0,0,1-.061.734Z" transform="translate(-150.992 -83.032)" fill="#263238"/><path d="M254.654,80.122c-.9-.455-3.487,4.36-3.529,3.032s3.845-5.512,2.886-5.949c-1.249-.57-3.863,4.518-4.111,4.93s-.861.067-.606-.3c.358-.522,3.972-6.064,2.753-6.67-.679-.315-1.128.952-1.128.952s-3,5.458-3.572,5.154,1.079-3.547,1.716-4.6.382-1.771-.309-1.668c-.473.073-2.5,3.268-3.1,4.33s-2.207,4-2.6,1.91-1.48-3.553-2.044-3.748a.673.673,0,0,0-.667,1.073,7.691,7.691,0,0,1,.788,2,5.131,5.131,0,0,1,.182,1.716c-.049.667-.115,1.213-.182,1.716l-1.182,2.48s-8.562,19.5-10.024,22.309S216.59,123.9,216.59,123.9l2.5,14.39,19.253-20.842,10.169-28.622.249-.709s3.638-3.875,4.56-5.112C255.211,80.455,254.987,80.291,254.654,80.122Z" transform="translate(-167.178 -74.994)" fill="#b78876"/><path d="M153.171,242.62s-6.064,13.7-7.362,27.288l-6.41,87.121,21.388,2.25,6.264-90.311s19.623,91.123,20.393,91.123,17.216-6.125,17.216-6.125l-19.344-110.9Z" transform="translate(-136.796 -140.972)" fill="#455a64"/><path d="M187.479,286.67c0,.1-4.36-.867-9.7-2.165s-9.617-2.426-9.587-2.541,4.354.861,9.7,2.159S187.479,286.56,187.479,286.67Z" transform="translate(-148.127 -156.454)" fill="#263238"/><path d="M162.745,401.542a.948.948,0,0,0-.224.042,5.523,5.523,0,0,1-.649.061,12.592,12.592,0,0,1-2.389-.146,23.646,23.646,0,0,1-3.45-.837c-1.273-.4-2.65-.9-4.1-1.383a24.258,24.258,0,0,0-4.178-1,12.734,12.734,0,0,0-3.487,0,11.09,11.09,0,0,0-3.068.976.789.789,0,0,1,.182-.133,5.1,5.1,0,0,1,.564-.327,7.946,7.946,0,0,1,2.286-.734,12.305,12.305,0,0,1,3.56-.042,22.877,22.877,0,0,1,4.245.995l4.093,1.4a24.989,24.989,0,0,0,3.4.891,20.618,20.618,0,0,0,3.22.236Z" transform="translate(-137.504 -202.094)" fill="#fafafa"/><path d="M162.673,391.659a6.336,6.336,0,0,1-.873,0,19.042,19.042,0,0,0-2.371.067,70.5,70.5,0,0,0-7.713,1.419,28.834,28.834,0,0,1-4.318.552,14.89,14.89,0,0,1-3.547-.236,10.378,10.378,0,0,1-2.286-.728,6.347,6.347,0,0,1-.576-.3.674.674,0,0,1-.188-.127,15.839,15.839,0,0,0,3.093.934,21.508,21.508,0,0,0,7.762-.4,56.546,56.546,0,0,1,7.762-1.328,14.72,14.72,0,0,1,2.389.03,3.639,3.639,0,0,1,.867.121Z" transform="translate(-137.347 -199.561)" fill="#fafafa"/><path d="M226.252,377.749a.678.678,0,0,1-.115.194,3.455,3.455,0,0,1-.424.5,5.379,5.379,0,0,1-2.062,1.213,8.9,8.9,0,0,1-3.523.37c-1.334-.1-2.765-.418-4.245-.667a14.2,14.2,0,0,0-4.245-.115,13.488,13.488,0,0,0-3.353.891,21.54,21.54,0,0,0-2.844,1.5,1.472,1.472,0,0,1,.158-.158,5.525,5.525,0,0,1,.515-.388,11.526,11.526,0,0,1,2.08-1.164,12.8,12.8,0,0,1,3.408-.97,13.754,13.754,0,0,1,4.33.091c1.516.249,2.929.576,4.245.685a8.993,8.993,0,0,0,3.432-.291,5.621,5.621,0,0,0,2.044-1.085C226.045,377.986,226.227,377.731,226.252,377.749Z" transform="translate(-162.789 -194.159)" fill="#fafafa"/><path d="M231.893,404.229a3.838,3.838,0,0,1-.564.667,13.86,13.86,0,0,1-1.777,1.589,16.9,16.9,0,0,1-7.174,3.135,17.331,17.331,0,0,1-7.816-.424,15.349,15.349,0,0,1-2.238-.837,3.863,3.863,0,0,1-.764-.424,6.374,6.374,0,0,1,.813.309,18.968,18.968,0,0,0,2.244.74,18.071,18.071,0,0,0,7.707.321,17.67,17.67,0,0,0,7.095-3C231.037,405.138,231.838,404.18,231.893,404.229Z" transform="translate(-165.198 -204.581)" fill="#fafafa"/><path d="M223.528,366.649h-.843a6.362,6.362,0,0,0-2.219.515,12.23,12.23,0,0,0-2.88,1.789c-1.007.807-2.05,1.789-3.287,2.662a8.732,8.732,0,0,1-3.923,1.613,12.867,12.867,0,0,1-3.463,0c-.976-.121-1.759-.285-2.292-.4a4.783,4.783,0,0,1-.831-.212,3.948,3.948,0,0,1,.849.1c.546.073,1.328.2,2.3.291a13.4,13.4,0,0,0,3.4-.048,8.671,8.671,0,0,0,3.79-1.589c1.213-.855,2.256-1.819,3.281-2.626a11.654,11.654,0,0,1,2.983-1.771,5.894,5.894,0,0,1,2.3-.43,3.851,3.851,0,0,1,.606.073A.655.655,0,0,1,223.528,366.649Z" transform="translate(-162.14 -189.747)" fill="#fafafa"/><path d="M165.456,359.786a1.324,1.324,0,0,1-.194.133,5.143,5.143,0,0,1-.606.3,7.956,7.956,0,0,1-2.389.606,13.164,13.164,0,0,1-3.638-.164,34.564,34.564,0,0,1-4.324-1.1,38.374,38.374,0,0,0-4.275-1.122,14.057,14.057,0,0,0-3.578-.249,10.958,10.958,0,0,0-3.2.807.729.729,0,0,1,.2-.127,4.678,4.678,0,0,1,.606-.3,8.131,8.131,0,0,1,2.389-.606,13.218,13.218,0,0,1,3.638.182,35.71,35.71,0,0,1,4.324,1.1,37.323,37.323,0,0,0,4.245,1.116,13.947,13.947,0,0,0,3.578.23A10.66,10.66,0,0,0,165.456,359.786Z" transform="translate(-138.311 -186.352)" fill="#fafafa"/><path d="M218.517,336.41a.671.671,0,0,1-.061.23,4.384,4.384,0,0,1-.261.606,6.87,6.87,0,0,1-1.528,1.953,10.224,10.224,0,0,1-3.141,1.9,19.088,19.088,0,0,1-4.372,1.025c-1.577.206-3.081.34-4.433.546a28.876,28.876,0,0,0-3.566.637,6.131,6.131,0,0,0-2.141,1.11,8.383,8.383,0,0,1-.685.606.8.8,0,0,1,.139-.188,5.211,5.211,0,0,1,.467-.485,5.791,5.791,0,0,1,2.147-1.213,24.812,24.812,0,0,1,3.6-.71c1.358-.23,2.868-.364,4.433-.606a20.012,20.012,0,0,0,4.311-.982,10.49,10.49,0,0,0,3.1-1.819,8.169,8.169,0,0,0,2-2.614Z" transform="translate(-159.991 -177.888)" fill="#fafafa"/><path d="M145.44,331.727a12.068,12.068,0,0,0,3.032,1.419,9.49,9.49,0,0,0,3.6.315,11.358,11.358,0,0,0,4.184-1.437c1.4-.752,2.692-1.577,3.978-2.147a9.666,9.666,0,0,1,3.6-.9,5.506,5.506,0,0,1,2.468.431,3.641,3.641,0,0,1,.606.34.752.752,0,0,1,.188.146c0,.03-.285-.158-.825-.37a5.779,5.779,0,0,0-2.426-.327,9.879,9.879,0,0,0-3.487.946c-1.249.606-2.535,1.407-3.954,2.165a11.14,11.14,0,0,1-4.305,1.443,9.339,9.339,0,0,1-3.687-.382,8.7,8.7,0,0,1-2.262-1.067,4.851,4.851,0,0,1-.546-.406Q145.431,331.736,145.44,331.727Z" transform="translate(-139.173 -174.958)" fill="#fafafa"/><path d="M212.736,307.23a4.3,4.3,0,0,1-.473.764,13.509,13.509,0,0,1-1.637,1.819,13.983,13.983,0,0,1-7.222,3.481,17.385,17.385,0,0,1-4.451,0,14.46,14.46,0,0,0-3.578.036,6.214,6.214,0,0,0-2.25.8c-.485.3-.709.534-.728.515s.042-.073.146-.182a4.727,4.727,0,0,1,.515-.437,5.918,5.918,0,0,1,2.274-.916,13.6,13.6,0,0,1,3.638-.109,18.057,18.057,0,0,0,4.384-.049,14.3,14.3,0,0,0,7.125-3.335A22.29,22.29,0,0,0,212.736,307.23Z" transform="translate(-157.654 -166.403)" fill="#fafafa"/><path d="M167.961,303.582a11.928,11.928,0,0,0-3.074-.606,9.1,9.1,0,0,0-3.323.54c-.606.212-1.213.552-1.85.819a3.874,3.874,0,0,1-1.079.285,2.681,2.681,0,0,1-1.152-.152,10.21,10.21,0,0,1-1.916-1.1,8.338,8.338,0,0,0-1.819-.843,8.92,8.92,0,0,0-3.335-.443,11.951,11.951,0,0,0-3.032.673,1.281,1.281,0,0,1,.188-.115,4.437,4.437,0,0,1,.606-.261,8.368,8.368,0,0,1,2.274-.521,8.883,8.883,0,0,1,3.438.388,8.368,8.368,0,0,1,1.874.861,10.631,10.631,0,0,0,1.856,1.061,2.716,2.716,0,0,0,2.013-.121c.637-.255,1.213-.606,1.868-.807a8.933,8.933,0,0,1,3.426-.491,8.35,8.35,0,0,1,2.292.449,5.054,5.054,0,0,1,.606.243C167.9,303.534,167.967,303.57,167.961,303.582Z" transform="translate(-139.937 -164.277)" fill="#fafafa"/><path d="M211.755,301.13a4.851,4.851,0,0,1-.655.661,18.935,18.935,0,0,1-1.953,1.625c-.437.309-.91.667-1.455.982-.273.164-.546.346-.837.509l-.922.479a21.157,21.157,0,0,1-4.348,1.583,20.557,20.557,0,0,1-4.6.521l-1.037-.03c-.34,0-.661-.061-.976-.085-.637-.042-1.213-.17-1.74-.255a19.185,19.185,0,0,1-2.462-.606,5.916,5.916,0,0,1-.873-.327c0-.067,1.273.382,3.372.74.528.073,1.1.182,1.728.212.309,0,.606.061.964.067h1.025a21.466,21.466,0,0,0,4.524-.534,22.2,22.2,0,0,0,4.287-1.54l.916-.461c.3-.158.57-.333.843-.491.546-.3,1.013-.649,1.461-.94a24.156,24.156,0,0,0,2-1.534A5.416,5.416,0,0,1,211.755,301.13Z" transform="translate(-156.672 -164.002)" fill="#fafafa"/><path d="M191.731,272.316a2.23,2.23,0,0,1-.394.243l-1.164.606c-1.019.528-2.492,1.3-4.39,2.1a25.408,25.408,0,0,1-6.955,1.928,16.677,16.677,0,0,1-4.281-.073,24.535,24.535,0,0,1-4.433-1.213c-2.953-1.073-5.658-2.353-8.277-3.032a19.81,19.81,0,0,0-7.095-.558,20.562,20.562,0,0,0-4.712,1.043c-.54.194-.952.352-1.213.467a3.155,3.155,0,0,1-.437.164,2.737,2.737,0,0,1,.376-.164c.267-.139.679-.315,1.213-.528a19.278,19.278,0,0,1,4.73-1.152,19.842,19.842,0,0,1,7.2.5c2.65.673,5.373,1.947,8.3,3.032a24.863,24.863,0,0,0,4.378,1.182,16.373,16.373,0,0,0,4.2.1,25.978,25.978,0,0,0,6.9-1.85c1.9-.77,3.384-1.5,4.421-2l1.213-.576A3.118,3.118,0,0,1,191.731,272.316Z" transform="translate(-140.33 -152.543)" fill="#fafafa"/><path d="M193.032,256.076a6.167,6.167,0,0,0-1.14-1.061,7.313,7.313,0,0,0-4.063-1.067,8.532,8.532,0,0,0-2.874.5c-1,.358-2.044.813-3.135,1.31a37.118,37.118,0,0,1-7.331,2.777,27.894,27.894,0,0,1-18.192-1.655c-.467-.218-.813-.4-1.055-.521a1.818,1.818,0,0,1-.352-.206,1.989,1.989,0,0,1,.382.146l1.073.473a32.635,32.635,0,0,0,4.069,1.364,29.054,29.054,0,0,0,6.288.885,28.531,28.531,0,0,0,7.719-.788,38.2,38.2,0,0,0,7.277-2.729c1.1-.491,2.153-.946,3.171-1.292a8.393,8.393,0,0,1,2.959-.485,7.277,7.277,0,0,1,4.13,1.213,4.244,4.244,0,0,1,.849.819A2.315,2.315,0,0,1,193.032,256.076Z" transform="translate(-142.892 -145.344)" fill="#fafafa"/><path d="M199.113,157.486l-8.526-11.206-.376.273-13.6,8.562-14.517.5s-10.181,0-14,8.023c-.418.879-8.781,17.586-8.781,17.586l12.91,4.736L154.312,180l2.668,13.535-3.845,11.158,32.357,1.734-2.711-16.2,2.426-19.4Z" transform="translate(-136.76 -103.052)" fill="#a9f73f"/><path d="M189.177,207.85a3.451,3.451,0,0,1,0,.934,8.853,8.853,0,0,1-.606,2.474,12.049,12.049,0,0,1-5.664,6.064,16.743,16.743,0,0,1-8.174,1.637,18.2,18.2,0,0,1-2.529-.261,3.742,3.742,0,0,1-.9-.212c0-.073,1.316.176,3.438.194a17.483,17.483,0,0,0,7.986-1.71,12.213,12.213,0,0,0,5.591-5.8,14.372,14.372,0,0,0,.861-3.317Z" transform="translate(-149.351 -127.286)" fill="#263238"/><path d="M164.405,204.814c-.109,0-1.662-7-3.469-15.687s-3.19-15.766-3.081-15.766,1.655,7,3.469,15.688S164.514,204.79,164.405,204.814Z" transform="translate(-144.058 -113.711)" fill="#263238"/><g transform="translate(24.266 82.807)" opacity="0.2"><path d="M175.193,220.4a2.942,2.942,0,0,1,1.819-3.147,18.32,18.32,0,0,1,3.839-.946,10.782,10.782,0,0,0,6.24-4.154c.2-.285.443-.606.788-.606a.752.752,0,0,1,.709.606,2.48,2.48,0,0,1,.061,1.213c-.606,3.1-3.111,4.4-5.676,5.779s-4.621,1.51-7.8,1.255" transform="translate(-175.122 -211.55)"/></g></g></g></g></svg>