<svg xmlns="http://www.w3.org/2000/svg" width="505" height="271" viewBox="0 0 505 271"><g transform="translate(-915 -3480.56)"><path d="M80,0H505a0,0,0,0,1,0,0V121.251a80,80,0,0,1-80,80H0a0,0,0,0,1,0,0V80A80,80,0,0,1,80,0Z" transform="translate(915 3550.309)" fill="#ff8900" opacity="0.1"/><g transform="translate(1511.274 3396.729)"><g transform="translate(-428.737 199.571)"><g transform="translate(33.214)"><path d="M-237.473,256.846l-36.48-11.7-43.658-.162s-33.693,10.506-37.783,12.678l-1.882,90.8-1.462,51.779,118.991-.636V336.891Z" transform="translate(358.738 -244.982)" fill="#05d6bf"/></g><g transform="translate(0 12.678)"><path d="M-368.426,262.634a77.945,77.945,0,0,0-20.674,29.9c-4.851,12.828-15.884,41.29-15.884,41.29l34.564,12.255,7.818-55.2Z" transform="translate(404.984 -262.634)" fill="#05d6bf"/></g><g transform="translate(139.926 10.506)"><path d="M-199.837,259.61s9,.765,17.827,14.912c6.224,9.978,21.384,53.653,21.384,53.653l-39.9,13.943-9.631-7.417Z" transform="translate(210.156 -259.61)" fill="#05d6bf"/></g><g transform="translate(34.49 35.134)"><path d="M-356.775,293.9c.1,0,.187,15.3.187,34.172s-.084,34.176-.187,34.176-.187-15.3-.187-34.176S-356.879,293.9-356.775,293.9Z" transform="translate(356.962 -293.901)" fill="#263238"/></g><g transform="translate(23.643 30.037)"><path d="M-362.745,295.176a6.263,6.263,0,0,1-1.783-.627,15.647,15.647,0,0,1-3.8-2.523,15.651,15.651,0,0,1-2.915-3.515,6.3,6.3,0,0,1-.813-1.706,24.368,24.368,0,0,0,3.978,4.942A24.371,24.371,0,0,0-362.745,295.176Z" transform="translate(372.064 -286.804)" fill="#fff"/></g><g transform="translate(37.041 41.419)"><path d="M-239.885,302.672a1.848,1.848,0,0,1-.266.147l-.8.4-3.089,1.493-2.237,1.071c-.828.369-1.75.717-2.729,1.119-1.971.771-4.175,1.761-6.727,2.539l-3.97,1.319c-1.384.45-2.862.787-4.371,1.207l-2.31.616c-.392.1-.784.217-1.184.307l-1.218.249-5.047,1.032a138.729,138.729,0,0,1-22.814,2.059,138.813,138.813,0,0,1-22.819-2.067l-5.047-1.034-1.218-.25c-.4-.09-.793-.207-1.185-.308l-2.31-.616c-1.509-.422-2.987-.759-4.371-1.209l-3.97-1.321c-2.552-.779-4.755-1.77-6.726-2.542-.978-.4-1.9-.751-2.728-1.12l-2.236-1.072-3.088-1.494-.8-.4a2,2,0,0,1-.266-.146,1.848,1.848,0,0,1,.284.112l.814.363,3.116,1.429,2.247,1.041c.831.358,1.756.7,2.736,1.089,1.975.752,4.181,1.724,6.732,2.485l3.969,1.295c1.383.442,2.858.771,4.366,1.185l2.306.606c.392.1.783.214,1.184.3l1.215.245,5.037,1.015a140.742,140.742,0,0,0,22.758,2.033,140.653,140.653,0,0,0,22.753-2.025l5.036-1.013,1.215-.244c.4-.088.791-.2,1.184-.3l2.306-.605c1.508-.413,2.984-.742,4.367-1.183l3.969-1.293c2.552-.761,4.757-1.732,6.732-2.483.981-.392,1.906-.73,2.737-1.088l2.247-1.04,3.116-1.428.815-.363A1.821,1.821,0,0,1-239.885,302.672Z" transform="translate(353.409 -302.652)" fill="#fff"/></g><g transform="translate(153.675 28.859)"><path d="M-176.676,285.166c.017.019-.147.2-.458.5s-.777.734-1.368,1.245a48.172,48.172,0,0,1-4.878,3.67,48.071,48.071,0,0,1-5.3,3.026c-.7.34-1.28.6-1.685.763a2.429,2.429,0,0,1-.644.222,22.758,22.758,0,0,1,2.208-1.221c1.37-.736,3.236-1.8,5.218-3.1s3.7-2.6,4.915-3.561A22.916,22.916,0,0,1-176.676,285.166Z" transform="translate(191.013 -285.164)" fill="#fff"/></g><g transform="translate(20.655 36.586)"><path d="M-362.783,305.857a2.4,2.4,0,0,1-.666-.118,15.146,15.146,0,0,1-1.76-.542,21.665,21.665,0,0,1-5.342-2.886,21.647,21.647,0,0,1-4.328-4.26,15.223,15.223,0,0,1-1.035-1.523,2.339,2.339,0,0,1-.308-.6c.055-.035.572.773,1.55,1.961a25.03,25.03,0,0,0,4.343,4.124,25.005,25.005,0,0,0,5.216,2.941C-363.689,305.536-362.766,305.793-362.783,305.857Z" transform="translate(376.225 -295.923)" fill="#fff"/></g><g transform="translate(36.824 50.185)"><path d="M-242.028,318.586a1.812,1.812,0,0,1-.266.14l-.8.377-3.074,1.418-2.226,1.017c-.824.348-1.742.672-2.716,1.05-1.96.72-4.153,1.656-6.689,2.366l-3.947,1.213c-1.375.412-2.842.707-4.341,1.086l-2.294.552c-.389.09-.779.2-1.176.274l-1.208.214-5.006.885a132.742,132.742,0,0,1-22.564,1.35,132.686,132.686,0,0,1-22.429-2.851l-4.936-1.217-1.191-.294c-.392-.1-.773-.236-1.156-.352l-2.252-.7c-1.471-.478-2.915-.87-4.26-1.373l-3.857-1.474c-2.483-.876-4.609-1.956-6.516-2.806-.947-.442-1.841-.825-2.639-1.228l-2.153-1.163-2.973-1.62-.768-.429a1.9,1.9,0,0,1-.255-.157,1.748,1.748,0,0,1,.274.124l.786.4,3,1.556,2.165,1.133c.8.393,1.7.767,2.647,1.2,1.913.83,4.041,1.891,6.525,2.749l3.856,1.448c1.344.495,2.787.879,4.255,1.349l2.249.692c.382.113.763.243,1.154.347l1.189.289,4.925,1.2a134.336,134.336,0,0,0,22.368,2.814,134.332,134.332,0,0,0,22.5-1.316l4.994-.867,1.206-.209c.4-.077.786-.181,1.174-.269l2.29-.541c1.5-.371,2.963-.659,4.336-1.062l3.944-1.188c2.535-.691,4.73-1.607,6.694-2.308.975-.368,1.9-.681,2.722-1.019l2.236-.986,3.1-1.353.811-.343A1.817,1.817,0,0,1-242.028,318.586Z" transform="translate(353.712 -314.858)" fill="#fff"/></g><g transform="translate(153.7 33.654)"><path d="M-172.6,291.842a4.31,4.31,0,0,1-.623.667c-.417.414-1.036.995-1.815,1.7-1.555,1.408-3.766,3.289-6.309,5.236s-4.94,3.588-6.707,4.721c-.883.567-1.605,1.013-2.114,1.306a4.32,4.32,0,0,1-.807.427,4.253,4.253,0,0,1,.729-.549l2.045-1.4c1.726-1.187,4.087-2.858,6.625-4.8s4.767-3.784,6.363-5.138l1.89-1.607A4.222,4.222,0,0,1-172.6,291.842Z" transform="translate(190.979 -291.841)" fill="#fff"/></g><g transform="translate(36.236 106.863)"><path d="M-303.277,400.136a2.814,2.814,0,0,1-.525.058l-1.51.094c-.656.044-1.459.074-2.392.091s-2,.052-3.17.04c-2.35.019-5.147-.086-8.249-.25-3.1-.2-6.5-.494-10.063-.928-3.558-.45-6.932-.994-9.987-1.56-3.048-.6-5.787-1.181-8.06-1.774-1.142-.275-2.166-.56-3.064-.813s-1.672-.47-2.3-.673l-1.441-.46a2.826,2.826,0,0,1-.495-.185,2.786,2.786,0,0,1,.516.113l1.459.392c.631.181,1.406.386,2.31.611s1.928.5,3.072.758c2.278.559,5.016,1.112,8.061,1.692,3.052.546,6.42,1.079,9.97,1.528,3.552.432,6.946.739,10.039.955,3.094.182,5.884.315,8.229.33,1.172.029,2.233.022,3.164.016s1.734-.006,2.39-.027l1.511-.024A2.78,2.78,0,0,1-303.277,400.136Z" transform="translate(354.53 -393.774)" fill="#fff"/></g><g transform="translate(34.713 115.299)"><path d="M-312.961,411.526a2.026,2.026,0,0,1-.448.041l-1.288.045c-.559.022-1.245.029-2.04.014s-1.7-.011-2.7-.06c-2-.057-4.381-.241-7.017-.488-2.633-.273-5.521-.638-8.539-1.106-6.036-.951-11.452-2.08-15.358-2.943-1.954-.432-3.531-.8-4.618-1.061l-1.25-.312a2.063,2.063,0,0,1-.43-.134,2.044,2.044,0,0,1,.447.06l1.265.243,4.641.944c3.919.8,9.336,1.883,15.361,2.833,3.013.466,5.893.842,8.518,1.132,2.627.265,5,.475,6.992.567,1,.067,1.9.089,2.693.116s1.477.048,2.036.049l1.287.025A2.04,2.04,0,0,1-312.961,411.526Z" transform="translate(356.651 -405.52)" fill="#fff"/></g><g transform="translate(89.006 105.353)"><path d="M-217.856,391.674a.533.533,0,0,1-.157.053l-.468.119-1.807.422c-1.57.365-3.853.845-6.682,1.392-5.658,1.1-13.527,2.377-22.277,3.286s-16.718,1.259-22.481,1.342c-2.882.043-5.214.041-6.826.005l-1.855-.043-.482-.021a.564.564,0,0,1-.164-.02.542.542,0,0,1,.164-.019l.483-.016,1.855-.027c1.61-.009,3.941-.047,6.819-.124,5.756-.151,13.706-.551,22.449-1.45s16.6-2.143,22.267-3.174c2.833-.514,5.122-.953,6.7-1.274l1.821-.353.475-.083A.554.554,0,0,1-217.856,391.674Z" transform="translate(281.056 -391.671)" fill="#fff"/></g><g transform="translate(80.999 115.3)"><path d="M-221,405.524a.707.707,0,0,1-.179.05l-.532.111-2.05.392c-1.783.331-4.366.791-7.568,1.3-3.2.529-7.021,1.077-11.272,1.636-4.255.529-8.942,1.041-13.876,1.423-4.938.362-9.653.547-13.943.585-4.289-.024-8.155-.118-11.388-.415-.808-.068-1.579-.115-2.306-.191l-2.05-.245-1.783-.216c-.547-.076-1.043-.171-1.49-.244l-2.057-.36-.534-.1a.713.713,0,0,1-.179-.047.7.7,0,0,1,.186.009l.539.067,2.066.29c.449.062.945.146,1.492.211l1.783.185,2.048.216c.726.067,1.5.106,2.3.164,3.227.263,7.085.329,11.366.334,4.282-.057,8.987-.251,13.917-.613,4.927-.381,9.609-.883,13.861-1.392,4.249-.54,8.072-1.06,11.274-1.555,3.2-.478,5.794-.9,7.584-1.185l2.062-.322.538-.075A.675.675,0,0,1-221,405.524Z" transform="translate(292.204 -405.521)" fill="#fff"/></g><g transform="translate(61.69 77.362)"><path d="M-250.776,352.7a1.059,1.059,0,0,1-.169.162l-.52.446-2.025,1.687-7.461,6.181c-6.293,5.227-14.942,12.5-24.375,20.675s-17.862,15.709-23.93,21.2l-7.177,6.508-1.956,1.763-.516.452a1.116,1.116,0,0,1-.184.145,1.061,1.061,0,0,1,.158-.173l.49-.479,1.91-1.815c1.661-1.573,4.086-3.828,7.1-6.6,6.023-5.538,14.427-13.1,23.862-21.283s18.115-15.42,24.452-20.6c3.168-2.588,5.744-4.668,7.538-6.09l2.068-1.632.544-.417A1.093,1.093,0,0,1-250.776,352.7Z" transform="translate(319.089 -352.698)" fill="#263238"/></g><g transform="translate(69.769 84.636)" opacity="0.3"><path d="M-283.118,385.51l-24.722,21.808c21.292-9.648,39.479-24.33,51.308-44.492Z" transform="translate(307.84 -362.826)"/></g><g transform="translate(152.206 48.113)" opacity="0.3"><path d="M-193.059,355.769c5.345-10.837,5.466-32.082.069-43.8.322,13.173.293,30.654-.069,43.8" transform="translate(193.059 -311.973)"/></g><g transform="translate(152.018 37.626)"><path d="M-193.133,297.371c.1,0,.187,26.193.187,58.5s-.083,58.5-.187,58.5-.187-26.187-.187-58.5S-193.236,297.371-193.133,297.371Z" transform="translate(193.32 -297.371)" fill="#263238"/></g></g><g transform="translate(-396.639 83.831)"><g transform="translate(0 5.302)"><path d="M-248.966,148.641c1.768-3.883,3.567-7.884,3.821-12.161s-1.4-8.953-5.048-10.98c-3.375-1.872-7.591-1.125-11.187-2.5-4.436-1.692-7.158-6.263-9.043-10.738s.91-6.028-2.366-9.542c-4.347-4.662-7.227-5.384-12.924-2.723-3.989-2.963-17.951-8.481-22.009-8.7-6.021-.321-12.89.005-17.192,4.228-3.339,3.276-5.507,7.49-9.566,9.813-5.585,3.2-12.545.215-18.979.305-1.312.019-2.847.319-3.414,1.5-.491,1.023-.022,2.226.445,3.26l4.734,10.481a9.882,9.882,0,0,1-8.6-.4,29.231,29.231,0,0,0,7.222,18.559c-1.122-.834-2.858-.038-3.455,1.226a6.219,6.219,0,0,0-.035,4.11,30.514,30.514,0,0,0,15.482,19.575,30.513,30.513,0,0,0,24.93,1.155l35.372,3.467A9.05,9.05,0,0,0-274.8,174.4c4.035-2.848,4.706-4.482,4.706-4.482,2.4,1.872.5.914,2.4,1.872,4.346,2.194,10.9-.147,12-5.017a10.368,10.368,0,0,1,2.478-5.349c1.437-1.393,3.451-1.9,5.241-2.748a14.564,14.564,0,0,0,6.638-6.5A10.516,10.516,0,0,1-248.966,148.641Z" transform="translate(360.293 -91.213)" fill="#12263f"/></g><g transform="translate(22.352 11.128)"><path d="M-294.131,99.326l-1.78.09A34.426,34.426,0,0,0-328.6,132.744c-.5,16.691-.844,35.146-.284,44.06,1.159,18.446,19.765,20.386,19.765,20.386.01.192-.061,2.96-.162,6.747a21.659,21.659,0,0,0,21.647,22.236h0a21.656,21.656,0,0,0,21.653-21.328l1.053-69.674C-264.24,115.922-274.87,99.479-294.131,99.326Z" transform="translate(329.172 -99.326)" fill="#ffbe9d"/><g transform="translate(20.043 89.547)"><path d="M-301.254,232.325a44.647,44.647,0,0,0,23.674-8.317s-5.183,13.777-23.684,13.044Z" transform="translate(301.264 -224.008)" fill="#eb996e"/></g></g><g transform="translate(26.357 38.489)"><g transform="translate(12.33 11.18)"><g transform="translate(15.498)"><path d="M-284.8,156.119c.358.381,2.522-1.283,5.608-1.3,3.083-.06,5.356,1.552,5.689,1.162.163-.173-.2-.863-1.192-1.591a7.72,7.72,0,0,0-4.556-1.4,7.45,7.45,0,0,0-4.461,1.51C-284.66,155.253-284.978,155.949-284.8,156.119Z" transform="translate(284.848 -152.989)" fill="#263238"/></g><g transform="translate(18.299 6.502)"><path d="M-280.947,164.422a2.5,2.5,0,0,0,2.532,2.394,2.388,2.388,0,0,0,2.456-2.378,2.5,2.5,0,0,0-2.529-2.4A2.39,2.39,0,0,0-280.947,164.422Z" transform="translate(280.947 -162.043)" fill="#263238"/></g><g transform="translate(0 0.713)"><path d="M-299.093,177.682c.006-.162-1.773-.378-4.649-.6-.728-.038-1.421-.148-1.568-.636a3.692,3.692,0,0,1,.376-2.171q.889-2.68,1.864-5.624c2.578-8,4.406-14.568,4.083-14.669s-2.676,6.3-5.254,14.307q-.928,2.958-1.772,5.652a4.2,4.2,0,0,0-.233,2.862,1.821,1.821,0,0,0,1.245,1,4.924,4.924,0,0,0,1.239.109C-300.879,177.921-299.1,177.844-299.093,177.682Z" transform="translate(306.427 -153.982)" fill="#263238"/></g></g><g transform="translate(28.569)"><path d="M-283.8,139.618c.283.691,2.764.231,5.717.45,2.958.156,5.37.925,5.728.275.158-.311-.287-.952-1.278-1.585a9.337,9.337,0,0,0-4.3-1.315,9.235,9.235,0,0,0-4.417.763C-283.406,138.709-283.921,139.289-283.8,139.618Z" transform="translate(283.816 -137.423)" fill="#263238"/></g><g transform="translate(0 5.539)"><path d="M-323.571,147.394c.311.565,2.732,0,5.651-.024,2.92-.077,5.331.4,5.653-.172.141-.275-.329-.786-1.335-1.252a10.192,10.192,0,0,0-4.3-.809,10.532,10.532,0,0,0-4.313.96C-323.229,146.6-323.708,147.124-323.571,147.394Z" transform="translate(323.594 -145.135)" fill="#263238"/></g></g><g transform="translate(85.778 59.913)"><path d="M-240.859,168.056c.308-.152,12.494-4.391,12.727,8.248s-12.5,10.267-12.533,9.9S-240.859,168.056-240.859,168.056Z" transform="translate(240.859 -167.252)" fill="#ffbe9d"/></g><g transform="translate(89.734 63.966)"><path d="M-235.34,182.939c.055-.042.223.15.6.313a2.2,2.2,0,0,0,1.647,0c1.326-.515,2.411-2.655,2.43-4.935a7.285,7.285,0,0,0-.674-3.141,2.545,2.545,0,0,0-1.688-1.659,1.122,1.122,0,0,0-1.288.627c-.163.356-.078.608-.144.631-.034.032-.275-.207-.182-.731a1.4,1.4,0,0,1,.482-.8,1.663,1.663,0,0,1,1.212-.344,3.092,3.092,0,0,1,2.336,1.917,7.48,7.48,0,0,1,.829,3.509c-.034,2.548-1.294,4.956-3.111,5.517a2.356,2.356,0,0,1-2.02-.3C-235.312,183.244-235.383,182.962-235.34,182.939Z" transform="translate(235.351 -172.895)" fill="#eb996e"/></g><g transform="translate(10.722)"><path d="M-253.057,124.482c-2.531-4.513-3.024-9.841-4.351-14.842s-3.978-10.212-8.812-12.059l-.111.046c-4.336-1.858-9.729-2.005-13.389.952-.743-6.583-6.378-11.909-12.747-13.735s-16.665-1.054-22.865,1.282c-4.793,1.8-9.473,5.618-15.183,11.246a62.012,62.012,0,0,0-6.619,7.663l-5.957,17.077a7.268,7.268,0,0,0-1.6,1.538c-2.283,2.97,1.77,6.852,4.635,4.438l.051-.043a32.233,32.233,0,0,1,1.392,2.982v.024l.093.188c.272.621.554,1.24.9,1.856l0-.042,3.875,19.106c.389-5.178.417-23.219.806-28.4a28.919,28.919,0,0,0,20.817-9.052c2.9-3.072,5.216-6.951,9.045-8.74,4.937-2.306,10.717-.417,15.823,1.486l-.214-.2a23.088,23.088,0,0,1,7.016,5.308,71.886,71.886,0,0,0,2.427,30.486c.45,1.481,1.7,4.539,3.13,5.129,2.812,1.16,3.64-1.711,5.381-3.206,1.281-1.1,3.149-1.205,5.186-1.153a113.147,113.147,0,0,0,3.761-13.026,11.519,11.519,0,0,0,5.292.473l-1.543-3.941a6.028,6.028,0,0,0,2.245,1.078,2.058,2.058,0,0,0,2.173-.888C-251.9,126.556-252.528,125.426-253.057,124.482Z" transform="translate(345.364 -83.831)" fill="#12263f"/></g><g transform="translate(70.521 16.731)"><path d="M-262.1,107.127a15.853,15.853,0,0,1,1.81,1.731,13.215,13.215,0,0,1,2.689,6.179,23.219,23.219,0,0,1,.365,4.691c-.03,1.7-.208,3.509-.381,5.42a48.585,48.585,0,0,0-.274,6.037,21.283,21.283,0,0,0,.343,3.2,6.64,6.64,0,0,0,1.23,3.12,2.78,2.78,0,0,0,2.579.932,4.139,4.139,0,0,0,2.369-1.268,9.547,9.547,0,0,0,1.88-4.643l-.388.038a15.436,15.436,0,0,0,2.154,3.909,5.487,5.487,0,0,0,3.539,2.031,3.543,3.543,0,0,0,1.907-.289,3.069,3.069,0,0,0,1.319-1.242,3.164,3.164,0,0,0,.428-1.624,2.294,2.294,0,0,0-.56-1.446l-.2.17a11.876,11.876,0,0,0,3.889,3.057,10.676,10.676,0,0,0,1.215.5,2,2,0,0,0,.437.118,2.208,2.208,0,0,0-.412-.186c-.271-.119-.675-.292-1.176-.562a12.253,12.253,0,0,1-3.751-3.1l-.2.169a2.364,2.364,0,0,1,.06,2.739,2.765,2.765,0,0,1-1.191,1.1,3.218,3.218,0,0,1-1.728.241,5.141,5.141,0,0,1-3.284-1.929A15.214,15.214,0,0,1-249.5,132.4l-.251-.6-.136.635a9.233,9.233,0,0,1-1.79,4.436,3.723,3.723,0,0,1-2.119,1.135,2.345,2.345,0,0,1-2.193-.79,6.275,6.275,0,0,1-1.135-2.919,20.94,20.94,0,0,1-.343-3.13,49.172,49.172,0,0,1,.248-5.986c.162-1.91.327-3.733.343-5.45a23.1,23.1,0,0,0-.424-4.754,13.032,13.032,0,0,0-2.861-6.23A7.491,7.491,0,0,0-262.1,107.127Z" transform="translate(262.103 -107.127)" fill="#455a64"/></g><g transform="translate(13.144 6.153)"><path d="M-341.992,119.615c0,.006.045.05.145.129l.453.346a6.226,6.226,0,0,0,.769.517,9.715,9.715,0,0,0,1.107.615,16.339,16.339,0,0,0,7.851,1.6,20.867,20.867,0,0,0,11.208-3.855,36.162,36.162,0,0,0,9.8-10.791c1.39-2.2,2.533-4.461,3.784-6.546a24.4,24.4,0,0,1,4.241-5.514,12.583,12.583,0,0,1,5.379-3.1,9,9,0,0,1,2.806-.259,9.9,9.9,0,0,1,2.551.549,10.65,10.65,0,0,1,3.788,2.4,10.6,10.6,0,0,1,2.017,2.743,12.72,12.72,0,0,1,.888,2.783.607.607,0,0,0-.01-.193c-.02-.154-.045-.339-.075-.566a9.2,9.2,0,0,0-.652-2.1,10.508,10.508,0,0,0-2-2.842,10.8,10.8,0,0,0-3.852-2.513,10.142,10.142,0,0,0-2.631-.6,9.326,9.326,0,0,0-2.918.244,12.883,12.883,0,0,0-5.562,3.157,24.589,24.589,0,0,0-4.334,5.588c-1.266,2.1-2.41,4.354-3.787,6.534a36.178,36.178,0,0,1-9.658,10.693,20.748,20.748,0,0,1-10.994,3.876,16.572,16.572,0,0,1-7.766-1.442A26.065,26.065,0,0,1-341.992,119.615Z" transform="translate(341.992 -92.399)" fill="#455a64"/></g><g transform="translate(11.649 25.233)"><path d="M-344.072,118.97a2.853,2.853,0,0,0,.651.475,14.324,14.324,0,0,0,1.933,1.038,19.042,19.042,0,0,0,3.074,1.086,21.77,21.77,0,0,0,3.948.615,21.861,21.861,0,0,0,3.992-.181,19.08,19.08,0,0,0,3.174-.745,14.3,14.3,0,0,0,2.035-.821,2.853,2.853,0,0,0,.7-.4c-.034-.073-1.063.427-2.821.931a21.673,21.673,0,0,1-3.139.644,23.708,23.708,0,0,1-3.916.144,23.705,23.705,0,0,1-3.875-.569,21.766,21.766,0,0,1-3.049-.982C-343.062,119.51-344.03,118.9-344.072,118.97Z" transform="translate(344.073 -118.965)" fill="#455a64"/></g><g transform="translate(26.037 50.198)"><path d="M-323.993,156.855c.358.381,2.522-1.283,5.609-1.3,3.083-.06,5.355,1.551,5.688,1.162.164-.174-.2-.863-1.191-1.591a7.725,7.725,0,0,0-4.557-1.4,7.45,7.45,0,0,0-4.462,1.511C-323.851,155.99-324.169,156.686-323.993,156.855Z" transform="translate(324.039 -153.725)" fill="#263238"/></g><g transform="translate(30.442 56.655)"><path d="M-317.906,165.094a2.5,2.5,0,0,0,2.532,2.394,2.388,2.388,0,0,0,2.456-2.377,2.5,2.5,0,0,0-2.529-2.4A2.39,2.39,0,0,0-317.906,165.094Z" transform="translate(317.906 -162.715)" fill="#263238"/></g><g transform="translate(43.644 78.026)"><g transform="translate(0.312 0.308)"><path d="M-299.09,194.731a51.9,51.9,0,0,1,7.447-1.378l1.837-.452h0c.832,1.14.822,4.194.055,5.387a5.165,5.165,0,0,1-3.666,2.176,3.751,3.751,0,0,1-2.965-.682s-2.272-1.078-2.708-5.052" transform="translate(299.09 -192.901)" fill="#eb996e"/></g><path d="M-294.589,200.248a6.015,6.015,0,0,0,2.735-.886,5.048,5.048,0,0,0,1.87-2.4,6.311,6.311,0,0,0,.228-3.729l-.052-.2.326.208c-2.737.423-5.21.773-7,1a14.549,14.549,0,0,1-2.913.243,14.739,14.739,0,0,1,2.851-.649c1.775-.329,4.237-.745,6.974-1.171l.261-.041.065.249.058.224a6.626,6.626,0,0,1-.294,4.072,5.272,5.272,0,0,1-2.149,2.553,4.4,4.4,0,0,1-2.147.651A1.52,1.52,0,0,1-294.589,200.248Z" transform="translate(299.489 -192.512)" fill="#263238"/><path d="M-293.878,200.413a1.575,1.575,0,0,1-.812-.139l-.027-.031v-.029l-.006-.031.027-.042c.041-.052.111-.058.3-.071a4.852,4.852,0,0,0,2.458-.823,4.928,4.928,0,0,0,1.835-2.36,6.18,6.18,0,0,0,.255-3.552c-2.52.387-4.872.721-6.659.944-2.981.373-3,.283-3.014.169s-.032-.2,2.922-.752c1.853-.343,4.33-.759,6.977-1.171l.341-.054.144.551a6.7,6.7,0,0,1-.3,4.129,5.371,5.371,0,0,1-2.186,2.6,4.456,4.456,0,0,1-2.192.664Zm-.245-.187c.089.006.19.009.307.007a4.263,4.263,0,0,0,2.1-.638,5.184,5.184,0,0,0,2.112-2.51,6.516,6.516,0,0,0,.291-4.017l-.1-.392-.182.028c-2.645.412-5.121.827-6.972,1.17-1.315.243-2.015.394-2.386.487.382-.024,1.095-.093,2.422-.259,1.78-.222,4.126-.554,6.638-.94l-.1-.372.72.458-.236.036-.167.026a6.36,6.36,0,0,1-.264,3.642,5.122,5.122,0,0,1-1.9,2.446A4.98,4.98,0,0,1-294.123,200.226Z" transform="translate(299.525 -192.472)" fill="#263238"/></g></g><g transform="translate(-489.274 94.439)"><g transform="translate(0.154 0.184)"><path d="M-430,176.338s-21.905,7.893-32.631,4.791-18.265-7.444-23.641-20.152c-4.351-10.283-3.483-22.915,1.728-32.79,4.561-8.643,12.7-13.515,21.275-18.206,10.646-5.825,25.1-10.62,37.224-11.084s19.908,3.1,28.869,11.281,13.736,21.243,10.574,32.959c-3.35,12.417-14.524,21.234-26.232,26.555,0,0-3.3,11.518,5.991,17.888C-406.844,187.58-421.987,191.333-430,176.338Z" transform="translate(489.06 -98.857)" fill="#c1ff6e"/></g><path d="M-430.061,176.266s.086.127.251.391l.738,1.183.546.882c.21.319.488.63.762.989s.582.737.906,1.146.755.769,1.166,1.192a19.319,19.319,0,0,0,7.282,4.554,20.56,20.56,0,0,0,5.334,1.133,21.6,21.6,0,0,0,6.147-.33l-.034.188a14.876,14.876,0,0,1-5.694-7.441,16.95,16.95,0,0,1-.917-5.114,19.962,19.962,0,0,1,.552-5.455l.014-.057.059-.027a67.037,67.037,0,0,0,9.89-5.556,47.748,47.748,0,0,0,9.206-8.09c.363-.386.684-.812,1.016-1.232s.677-.831.984-1.274c.608-.89,1.251-1.767,1.78-2.727a32.508,32.508,0,0,0,1.548-2.922c.241-.5.426-1.028.643-1.544l.315-.78c.1-.264.172-.535.259-.8a27.143,27.143,0,0,0,1.347-6.705,29.191,29.191,0,0,0-.283-7.023,35.152,35.152,0,0,0-5.185-13.554,37.383,37.383,0,0,0-4.721-5.871,56.7,56.7,0,0,0-5.827-5.037,34.412,34.412,0,0,0-14.161-6.659,48.021,48.021,0,0,0-16.194-.121,87.848,87.848,0,0,0-15.919,3.926,97.8,97.8,0,0,0-14.613,6.345,85.124,85.124,0,0,0-12.994,8.205,32.1,32.1,0,0,0-9.184,11.32,40.146,40.146,0,0,0-2.486,6.636,42.409,42.409,0,0,0-1.232,6.791,38.263,38.263,0,0,0-.08,6.7c.057,1.1.223,2.182.363,3.257.2,1.064.377,2.126.662,3.154,2.239,8.177,6.634,15.38,12.662,19.482a37.063,37.063,0,0,0,9.278,4.509c.773.266,1.54.519,2.3.742a19.1,19.1,0,0,0,2.269.57,14.569,14.569,0,0,0,2.243.311,17.545,17.545,0,0,0,2.194.1,48.482,48.482,0,0,0,8.007-.651c2.448-.361,4.66-.841,6.645-1.283,3.962-.926,6.994-1.828,9.041-2.456l3.114-.994s-.259.107-.779.29-1.291.448-2.312.776c-2.042.652-5.069,1.577-9.031,2.526-1.986.454-4.2.945-6.651,1.317a48.418,48.418,0,0,1-8.036.684,17.526,17.526,0,0,1-2.21-.093,14.774,14.774,0,0,1-2.269-.307,19.276,19.276,0,0,1-2.292-.57c-.766-.221-1.536-.472-2.313-.738a37.233,37.233,0,0,1-9.352-4.517,28.592,28.592,0,0,1-4.255-3.65,33.211,33.211,0,0,1-3.592-4.627,42.965,42.965,0,0,1-2.86-5.382c-.45-.933-.807-1.919-1.191-2.9-.319-1.006-.677-2.012-.914-3.062-.289-1.036-.465-2.107-.672-3.18-.143-1.083-.311-2.173-.371-3.283a38.529,38.529,0,0,1,.072-6.757,42.719,42.719,0,0,1,1.234-6.848,40.48,40.48,0,0,1,2.5-6.7,32.43,32.43,0,0,1,9.271-11.449,85.346,85.346,0,0,1,13.043-8.25,97.978,97.978,0,0,1,14.667-6.374,88.194,88.194,0,0,1,15.987-3.944,48.372,48.372,0,0,1,16.322.127,34.763,34.763,0,0,1,14.307,6.732,57.042,57.042,0,0,1,5.863,5.073,37.781,37.781,0,0,1,4.765,5.934,35.479,35.479,0,0,1,5.226,13.695,29.506,29.506,0,0,1,.278,7.1,27.473,27.473,0,0,1-1.37,6.782c-.088.271-.164.545-.263.812l-.32.788c-.22.521-.407,1.054-.651,1.56a32.875,32.875,0,0,1-1.568,2.95c-.537.968-1.187,1.853-1.8,2.75-.31.447-.666.857-.995,1.283s-.659.851-1.026,1.24a47.962,47.962,0,0,1-9.278,8.125,67.138,67.138,0,0,1-9.943,5.559l.073-.085a19.779,19.779,0,0,0-.554,5.374,16.731,16.731,0,0,0,.891,5.045,14.666,14.666,0,0,0,5.586,7.345l.2.139-.237.049a21.706,21.706,0,0,1-6.213.313,20.648,20.648,0,0,1-5.372-1.166,19.342,19.342,0,0,1-7.306-4.627c-.41-.429-.831-.8-1.162-1.207l-.9-1.158c-.271-.363-.547-.68-.752-1l-.527-.881-.712-1.2C-429.982,176.411-430.061,176.266-430.061,176.266Z" transform="translate(489.274 -98.601)" fill="#c1ff6e"/><g transform="translate(18.624 18.224)"><path d="M-410.412,123.977c.046.093-11.768,5.976-26.382,13.14s-26.5,12.9-26.549,12.8,11.765-5.975,26.385-13.14S-410.457,123.884-410.412,123.977Z" transform="translate(463.343 -123.975)" fill="#263238"/></g><g transform="translate(23.549 28.554)"><path d="M-403.555,138.359c.046.093-11.767,5.976-26.382,13.14s-26.5,12.9-26.549,12.8,11.765-5.975,26.385-13.141S-403.6,138.266-403.555,138.359Z" transform="translate(456.486 -138.357)" fill="#263238"/></g><g transform="translate(31.516 38.524)"><path d="M-395.944,152.242a3.191,3.191,0,0,1-.489.284l-1.435.748-5.295,2.71c-4.471,2.288-10.625,5.492-17.418,9.04s-12.972,6.717-17.475,8.945c-2.251,1.115-4.079,2.005-5.349,2.6l-1.466.684a3.206,3.206,0,0,1-.522.216,3.12,3.12,0,0,1,.489-.284l1.434-.747,5.3-2.711c4.471-2.288,10.625-5.492,17.421-9.041s12.969-6.716,17.472-8.945c2.251-1.115,4.079-2.005,5.349-2.6l1.467-.684A3.208,3.208,0,0,1-395.944,152.242Z" transform="translate(445.393 -152.24)" fill="#263238"/></g></g><g transform="translate(-446.75 165.972)"><g transform="translate(7.305 44.104)"><path d="M-391.652,262.445l3.137,67.5,5.518,5.937,7.025,8.53s-7.025,28.351-17.312,30.86-21.429-1.29-24.69-10.322-1.6-24.835-.594-34.961,5.764-65.449,5.764-65.449l11.993-4.93Z" transform="translate(419.894 -259.61)" fill="#ffbe9d"/></g><g transform="translate(0 0)"><path d="M-394.607,245.88s.815-5.909,0-9.78-6.113-12.022-6.113-12.022.815-7.742,0-8.965-2.649-5.7-6.113-1.222c0,0-2.445-5.3-4.075-5.705a3.8,3.8,0,0,0-2.445,0l4.279-5.7a6.583,6.583,0,0,0,.014-2.332,2.42,2.42,0,0,0-2.383-1.947h0a2.428,2.428,0,0,0-1.843.847l-10.458,12.193s-6.521,11.818-6.317,13.244,3.871,6.113,3.871,6.113,9.373,12.836,10.188,15.281a13.334,13.334,0,0,1,.408,5.3Z" transform="translate(430.066 -198.201)" fill="#ffbe9d"/><g transform="translate(9.321 10.17)"><path d="M-417.078,225.812a13.052,13.052,0,0,1,.36-2.325,24.666,24.666,0,0,1,1.683-5.435,12.436,12.436,0,0,1,3.445-4.53,8.051,8.051,0,0,1,1.462-.932,1.822,1.822,0,0,1,.595-.225c.033.063-.8.422-1.889,1.361a13.382,13.382,0,0,0-3.274,4.484,30.146,30.146,0,0,0-1.764,5.336A16.676,16.676,0,0,1-417.078,225.812Z" transform="translate(417.088 -212.361)" fill="#eb996e"/></g><g transform="translate(18.539 15.888)"><path d="M-404.238,228.45A4.019,4.019,0,0,1-404,227.1a15.21,15.21,0,0,1,1.237-3.078,15.178,15.178,0,0,1,1.872-2.741,4.044,4.044,0,0,1,.993-.951c.088.078-1.34,1.611-2.534,3.868C-403.644,226.441-404.125,228.48-404.238,228.45Z" transform="translate(404.252 -220.323)" fill="#eb996e"/></g><g transform="translate(28.774 25.21)"><path d="M-389.74,233.624a.179.179,0,0,1-.244-.062.178.178,0,0,1,.088-.236.178.178,0,0,1,.243.062A.178.178,0,0,1-389.74,233.624Z" transform="translate(390.001 -233.303)" fill="#eb996e"/></g><g transform="translate(28.876 23.795)"><path d="M-389.811,236.361a10.189,10.189,0,0,1,.144-2.743c.083-.689.177-1.316.264-1.785l.252.1c-.371.443-.626.7-.671.669s.129-.352.445-.835l.284-.435-.032.535c-.029.476-.088,1.107-.171,1.8A10.242,10.242,0,0,1-389.811,236.361Z" transform="translate(389.86 -231.332)" fill="#eb996e"/></g></g><g transform="translate(36.479 69.111)"><path d="M-379.267,294.428a.6.6,0,0,1,.032.17l.057.5q.067.711.182,1.936c.129,1.683.292,4.12.457,7.133.333,6.026.7,14.355,1.039,23.554s.607,17.536.774,23.567c.073,2.992.133,5.424.174,7.144q.017,1.228.027,1.943c0,.2,0,.369,0,.506a.61.61,0,0,1-.014.172.568.568,0,0,1-.024-.171c-.009-.136-.021-.3-.034-.5q-.036-.712-.1-1.941c-.07-1.719-.17-4.15-.293-7.14-.227-6.057-.539-14.373-.883-23.561-.363-9.184-.69-17.5-.929-23.555-.142-2.988-.256-5.418-.338-7.137l-.111-1.939c-.008-.2-.015-.369-.02-.5A.591.591,0,0,1-379.267,294.428Z" transform="translate(379.274 -294.428)" fill="#eb996e"/></g></g><g transform="translate(-276.116 201.376)"><g transform="translate(0 29.991)"><path d="M-128.291,289.4s-16.087,61.784-18.778,68.934c-5.323,14.14-8.956,20.865-14.98,24.394-6.585,3.857-18.361,1.66-21.141-4.635-2.545-5.762-9.291-29.757-9.291-29.757l20.657-7.451,24.641-51.631Z" transform="translate(192.481 -289.254)" fill="#ffbe9d"/></g><g transform="translate(42.087)"><path d="M-75,248.615c1.011.731-20.7,19.73-20.7,19.73l-16.081,9.289-5.3,19.734-16.8-10.375s6.083-19.68,8.91-21.035c4.93-2.364,5.879-10.288,7.642-9.995s2.532.261,1.945,3.2-.823,4.24-.823,4.24l18.572-5.383s10.288-9.994,13.521-9.406c1.866.339,2.086.587,2.086.587h0A5.25,5.25,0,0,1-75,248.615Z" transform="translate(133.881 -247.495)" fill="#ffbe9d"/><g transform="translate(13.567 10.52)"><path d="M-92.311,262.148a4.492,4.492,0,0,1-.874.338l-2.423.791-8.021,2.507-8.027,2.487-2.43.758a4.568,4.568,0,0,1-.9.246,4.453,4.453,0,0,1,.855-.383c.561-.22,1.378-.521,2.4-.872,2.034-.706,4.862-1.623,8-2.594s5.986-1.812,8.055-2.4c1.034-.294,1.874-.526,2.456-.677A4.5,4.5,0,0,1-92.311,262.148Z" transform="translate(114.99 -262.143)" fill="#eb996e"/></g><g transform="translate(39.407 1.307)"><path d="M-79.011,263.74a2.98,2.98,0,0,1,.471-.6c.322-.366.8-.888,1.387-1.528,1.182-1.28,2.834-3.029,4.676-4.946l4.733-4.878a3.45,3.45,0,0,0,.932-1.74,3.465,3.465,0,0,0-.036-.735c.011-.005.045.055.1.176a1.5,1.5,0,0,1,.084.571,3.374,3.374,0,0,1-.874,1.9c-1.163,1.322-2.829,3.041-4.667,4.968s-3.524,3.637-4.755,4.869c-.616.616-1.118,1.11-1.472,1.446A3,3,0,0,1-79.011,263.74Z" transform="translate(79.012 -249.316)" fill="#eb996e"/></g></g><g transform="translate(12.382 72.979)"><path d="M-162.84,349.109c.094.042-2.6,6.394-6.028,14.187s-6.276,14.08-6.37,14.038,2.6-6.393,6.028-14.188S-162.935,349.067-162.84,349.109Z" transform="translate(175.24 -349.109)" fill="#eb996e"/></g></g></g></g></svg>